<svg id="Layer_1" data-name="Layer 1" xmlns="http://www.w3.org/2000/svg" viewBox="0 0 111 129.5"><title>about</title><g id="Outlined"><g id="Maps"><g id="Outlined-_-Maps-_-person_pin" data-name="Outlined-/-Maps-/-person_pin"><path id="_-Icon-Color" data-name="-Icon-Color" d="M355.17,250.33H268.83a12.33,12.33,0,0,0-12.33,12.34V349a12.33,12.33,0,0,0,12.33,12.33H293.5l18.5,18.5,18.5-18.5h24.67A12.37,12.37,0,0,0,367.5,349V262.67A12.37,12.37,0,0,0,355.17,250.33Zm0,98.67H325.38l-3.64,3.64L312,362.38l-9.81-9.8L298.62,349H268.83V262.67h86.34ZM312,305.83a18.5,18.5,0,1,0-18.5-18.5A18.55,18.55,0,0,0,312,305.83Zm0-24.66a6.17,6.17,0,1,1-6.17,6.16A6.18,6.18,0,0,1,312,281.17Zm37,52.91c0-15.42-24.48-22.08-37-22.08s-37,6.66-37,22.08v8.75h74Zm-58.71-3.58c4.57-3.15,13.76-6.17,21.71-6.17s17.14,3,21.71,6.17Z" transform="translate(-256.5 -250.33)" style="fill:#fff"/></g></g></g></svg>