<?xml version="1.0" encoding="UTF-8"?><svg id="Layer_2" xmlns="http://www.w3.org/2000/svg" viewBox="0 0 29.67 79.73"><g id="Layer_1-2"><path d="M18.34,77.45c-2.55-5.31-5.81-10.22-8.76-15.31s-5.51-10.1-6.35-15.76c-1.62-10.98,5.35-21.48,11.75-29.74,3.79-4.9,7.97-9.48,12.27-13.94,1.23-1.27-.31-3.07-1.82-2.36-4.11,1.96-8.22,3.91-12.33,5.87l1.82,2.36c1.24-1,2.56-1.9,3.94-2.71,.68-.4,1.38-.78,2.08-1.13,.64-.32,1.64-.55,2.19-.99l.34-.13c-.49-.64-.66-.83-.5-.56-.01,.01,.12,.22,.13,.26-.03-.1,.21,.58,.27,.75,.3,.87,.56,1.75,.81,2.63,.39,1.33,.68,2.72,1.22,4.01,.34,.82,.83,1.65,1.85,1.63,.46,0,.81-.2,1.13-.51,1.14-1.07-1.95,.42-1.99-.29,0,.12,.25,.55,.27,.61,.68,1.79,3.58,1.01,2.89-.8-.37-.98-.81-2.27-2.09-2.25-.53,0-1.16,.33-1.39,.84-.45,.63,.3,.62,2.24-.03-.05-.09-.1-.18-.14-.27-.03-.15-.12-.3-.17-.45-.59-1.72-.98-3.52-1.54-5.25-.25-.77-.48-1.64-.89-2.34-.71-1.18-2.08-1.17-3.25-.73-3.47,1.27-6.67,3.3-9.54,5.6-1.41,1.13,.39,3.04,1.82,2.36,4.11-1.96,8.22-3.91,12.33-5.87l-1.82-2.36C17.05,8.95,8.94,17.99,3.82,28.54,1.41,33.51-.31,38.93,.05,44.52s2.65,11.26,5.38,16.34c3.3,6.12,7.31,11.83,10.33,18.11,.83,1.74,3.42,.22,2.59-1.51h0Z" fill="#fab512"/></g></svg>