<?xml version="1.0" encoding="UTF-8"?><svg id="Layer_2" xmlns="http://www.w3.org/2000/svg" viewBox="0 0 349.59 435.32"><g id="Layer_2_Image"><path d="M347.51,318.2c-3.65,22.66-11.55,45.09-26.04,62.88-15.93,19.56-38.91,32.37-62.91,40.11-39.63,12.76-83.43,16.59-124.75,12.64-22.73-2.16-45.83-5.84-66.34-16.31-19.8-10.11-35.86-25.9-47.46-44.75-2.74-4.44-6.55-10.71-9.81-19.62-2.35-6.41-3.33-11.25-5.28-20.83-.79-3.83-2.15-10.61-3.17-18.72-.05-.37-.1-.75-.15-1.12-2.67-21.29-2.43-41.48,4.13-62.07,2.95-9.25,6.76-18.22,11.37-26.75,4.19-11.67,11.29-22.24,17.65-32.97,5.28-8.91,10.18-18.31,12.46-28.49,.69-3.1,1.04-6.25,1.19-9.41,.35-7.71-.52-15.53-.63-23.21-.47-31.24,14.51-60.32,41.5-76.48,7.87-4.72,16.41-8.28,25.2-10.87,6.52-1.92,12.54-3.4,19.3-4.34,7.64-1.07,15.29-2.13,22.93-3.2,6.23-.87,7.86-4.76,9.94-10.2,3.06-8.01,8.97-14.81,16.26-19.26C187.05,2.7,192.38-.13,197.36,0c3.38,.09,6.98,2.17,7.63,5.49,.31,1.53-.03,3.12-.47,4.62-1.23,4.25-3.21,8.27-5.83,11.83-.56,.77-.94,1.41-.67,2.34,3.42-.69,6.73-2.41,10.28-3.05,3.96-.72,7.98-.99,11.98-1.27,4.12-.28,8.3-.55,12.34,.27,2.34,.48,13.8,5.71,8.36,7.51-2.37,.78-3.84,1.86-6.79,4.02-2.72,1.98-1.47,1.99-5.66,5.77-3.99,3.6-6.9,5.19-7.42,5.28-.04,.01-.26,.05-.28,.15-.04,.17,.43,.39,.56,.46,.9,.43,1.81,.45,1.87,.45,1.13,.02,1.82,.59,3.11,1.25,5.97,3.02,12.34,5.12,18.25,8.34,6.28,3.42,12.28,7.35,17.91,11.76,24.57,19.24,40.9,47.55,42.79,78.93,.65,10.83-.39,21.76-3.23,32.23-.65,2.41-1.44,4.87-2.43,7.24,6.47,4.72,12.09,10.51,17.39,16.85,27.55,33.02,37.25,75.66,30.46,117.73Z" fill="#fdbd6f"/><path d="M223.13,117.34c.86-2.73,4.08-12.36,14.18-18.14,11.35-6.49,22.64-3.13,24.61-2.5,13.13,4.16,21.47,16.35,20.79,30.19-.81,16.51-13.43,28.23-29.55,28.63-3.99,.1-11.22,.18-18.56-4.39-1.77-1.1-6.87-4.37-10.22-10.84-5.28-10.2-2.06-20.37-1.25-22.94Z" fill="#fff5ec"/><path d="M252.16,126.21c.16,.85,.67,2.95,2.5,4.6,2.62,2.36,6.7,2.69,9.67,.96,.57-.33,2.76-1.7,3.57-4.5,.75-2.59-.15-4.73-.43-5.35-.89-2.02-2.35-3.09-2.68-3.32-2.38-1.68-6.28-2.31-9.35-.14-2.43,1.71-3.69,4.71-3.28,7.75Z" fill="#74706b"/><path d="M51.11,111.29c5.64-11.01,17.98-18.16,31.16-15.44s22.89,14.77,23.4,27.81c.59,15.18-11.56,29.96-26.92,30.96-16.58,1.08-30.07-12.6-30.81-28.83-.24-5.19,.94-10.15,3.17-14.51Z" fill="#fff5ec"/><path d="M58.36,125.48c.14,.78,.6,2.72,2.25,4.24,2.36,2.18,6.04,2.48,8.71,.89,.51-.3,2.48-1.56,3.21-4.14,.68-2.38-.14-4.35-.39-4.93-.8-1.86-2.12-2.84-2.41-3.05-2.15-1.54-5.66-2.12-8.42-.13-2.19,1.57-3.33,4.34-2.96,7.13Z" fill="#74706b"/><ellipse cx="174.8" cy="313.66" rx="114.36" ry="115.19" fill="#f5825f"/><g id="Shape_1"><polygon points="192.56 133.26 165.21 133.26 165.21 386.46 192.56 386.46 192.56 133.26 192.56 133.26" fill="#ffbe70"/></g><g id="Ellipse_2"><path d="M124.53,342.93c-37.84,0-68.52,19.23-68.52,42.96s30.68,42.96,68.52,42.96c5.04,0,10.07-.34,15.06-1.04,4.67-.65,9.31-1.62,13.84-2.92,17.52-5.02,37.92-16.58,39.08-36.93,.67-11.78-5.62-22.03-14.68-29.06-14.89-11.55-34.79-15.96-53.31-15.96h0Z" fill="#ffbe70"/></g><path d="M172.18,252.47c3.13,3.04,6.16,6.03,9.86,8.4,4.93,3.16,10.33,5.55,15.68,7.89,6.91,3.02,13.89,5.35,20.48,9.09s12.51,8.07,17.74,13.35c5.02,5.07,9.23,10.87,13.16,16.83,2.27,3.44,4.45,6.97,6.16,10.73,.87,1.9,1.62,3.86,2.18,5.88,.47,1.71,.39,4.32,1.2,5.78,.39-.12,.7-.4,.96-.74,4.4-5.76,4.98-13.54,5.04-20.52,.07-8.47-.58-17.02-2.96-25.15-2.19-7.49-5.82-14.48-10.13-20.96-4.1-6.16-8.72-12.52-14.14-17.54-5.79-5.37-12.19-10.02-18.2-15.14-10.15-8.64-20.83-19.14-27.26-30.94-.95-1.74-1.78-3.55-2.43-5.42-.32-.92-.64-4.39-1.7-4.66-6.05-1.53-20.83,58.09-15.64,63.14Z" fill="#fdbd6f"/><path d="M135,121.2c.44-.53,.91-1.05,1.42-1.56,10.7-10.67,34.16-8.44,36.94,8.66,1.86,11.46-9.6,22.22-18.16,27.97-3.2,2.15-6.86,4.2-8.28,7.77-.99,2.5-1.83,4.44-4.86,3.33-4.11-1.5-7.99-5.17-10.13-8.99-3.55-6.36-3.64-13.82-2.72-20.87,.79-6.03,1.94-11.62,5.79-16.32Z" fill="#f5825f"/><path d="M139.43,142.08c-.11,.49-.53,2.01-1.96,3.09-.4,.3-1.87,1.41-3.25,.98-1.95-.61-2.35-3.85-2.49-4.98-.21-1.72,.08-3.1,.68-5.81,.6-2.71,.9-4.06,1.81-5.66,.92-1.62,1.97-3.45,4.08-4.08,.19-.06,3.09-.94,4.83,.75,1.55,1.51,1.1,4.02,.91,5.06-.34,1.87-1.13,2.59-2.34,4.91-.67,1.28-1.55,3.2-2.26,5.74Z" fill="#feeee7"/></g></svg>