<svg id="Layer_1" data-name="Layer 1" xmlns="http://www.w3.org/2000/svg" viewBox="0 0 320.04 412.95"><defs><style>.cls-1{fill:#fdc55f;}.cls-2{fill:#fb6952;}.cls-3{fill:#fff;}.cls-4{fill:none;stroke:#4d0aca;stroke-miterlimit:10;stroke-width:3px;}.cls-5{fill:#4d0aca;}</style></defs><path class="cls-1" d="M151.71,45.59c11.68,1.77,13.74.2,18.92,1.32,12.29,2.65,19.46,15.54,24.2,24,7.92,14.25,4.58,19.46,14.8,37.92,2.91,5.25,4.12,6.52,5.37,10.54,3.71,11.87.11,22.86-2.58,30.71-3.42,10-7,20.32-16.33,27.67-4.55,3.58-8.35,4.77-40.85,8.59-28.73,3.37-33.48,3.34-40.13,1.3-11.3-3.45-18.66-9.81-23.79-14.34C84.17,167,69.6,154.17,66.71,135.12c-1.92-12.73,3.6-13.58,11.18-54.9,1.6-8.71,1.66-10.34,3.24-13.78C88.41,50.51,108,39.72,123.39,41c3.43.27,10.44,1.44,13.55,1.95C144.85,44.22,146.78,44.85,151.71,45.59Z" transform="translate(-10.84 -14.55)"/><path class="cls-2" d="M57,140.68a6,6,0,1,0-6-6,6.06,6.06,0,0,0,6,6Z" transform="translate(-10.84 -14.55)"/><path class="cls-2" d="M58.91,110.43a6,6,0,1,0-6-6,6.08,6.08,0,0,0,6,6Z" transform="translate(-10.84 -14.55)"/><path class="cls-2" d="M67.46,80.56a6,6,0,1,0-6-6,6.06,6.06,0,0,0,6,6Z" transform="translate(-10.84 -14.55)"/><path class="cls-2" d="M83.74,43.21a6,6,0,1,0-6-6,6.07,6.07,0,0,0,6,6Z" transform="translate(-10.84 -14.55)"/><path class="cls-2" d="M117.63,29.72a6,6,0,1,0-6-6,6.07,6.07,0,0,0,6,6Z" transform="translate(-10.84 -14.55)"/><path class="cls-2" d="M146.81,26.55a6,6,0,1,0-6-6,6.08,6.08,0,0,0,6,6Z" transform="translate(-10.84 -14.55)"/><path class="cls-2" d="M178.79,47.6a6,6,0,1,0-6-6,6.08,6.08,0,0,0,6,6Z" transform="translate(-10.84 -14.55)"/><path class="cls-2" d="M201.92,61a6,6,0,1,0-6-6,6.08,6.08,0,0,0,6,6Z" transform="translate(-10.84 -14.55)"/><path class="cls-2" d="M215.2,88.27a6,6,0,1,0-6-6,6.06,6.06,0,0,0,6,6Z" transform="translate(-10.84 -14.55)"/><path class="cls-2" d="M224.92,105.15a6,6,0,1,0-6-6,6.06,6.06,0,0,0,6,6Z" transform="translate(-10.84 -14.55)"/><path class="cls-3" d="M47.64,209c7.6-22.64,5.42-27.33,9.41-37.24,9.47-23.55,36.22-33.13,53.86-39.44,29.57-10.58,38.08-2,76.36-15.61,10.89-3.88,13.71-5.82,21.7-6.85,23.55-3,42.77,8.18,56.48,16.43,17.42,10.49,35.44,21.34,45.76,42.73,5,10.39,5.85,18.39,1,84.63-4.25,58.54-6.05,68-12.29,80.52-10.61,21.27-25.2,33.6-35.56,42.17-14.44,12-43.86,36.3-80.53,35.06-24.53-.83-24.09-12.15-98.58-42.45-15.7-6.39-18.72-7.1-24.58-11.5C33.59,337.09,20.6,294.08,28.55,263.8c1.76-6.73,6.52-20.29,8.63-26.29C42.55,222.2,44.43,218.59,47.64,209Z" transform="translate(-10.84 -14.55)"/><path class="cls-4" d="M35.8,204.07c8.33-24.82,6-30,10.32-40.83,10.39-25.81,39.71-36.31,59.05-43.23,32.41-11.6,41.74-2.2,83.7-17.12,11.94-4.24,15-6.37,23.79-7.5,25.82-3.34,46.89,9,61.91,18,19.1,11.5,38.86,23.39,50.17,46.84,5.49,11.39,6.41,20.17,1.14,92.77-4.66,64.18-6.63,74.56-13.47,88.27-11.63,23.32-27.63,36.84-39,46.24-15.83,13.1-48.08,39.79-88.29,38.43-26.89-.91-26.4-13.32-108.06-46.54-17.22-7-20.53-7.79-26.95-12.61-29.73-22.33-44-69.49-35.25-102.68,1.93-7.37,7.15-22.24,9.46-28.82C30.22,218.52,32.28,214.56,35.8,204.07Z" transform="translate(-10.84 -14.55)"/><path class="cls-5" d="M113.53,179.2l-4.35-15.49-11.83.78,3.84,13.67c.4,1.43,1.34,3,1,4.26a9.34,9.34,0,0,1-2.82,4.94,4.06,4.06,0,0,1-6.09-1c-1.59-2.2-.33-4.15,1.3-5.64a24.56,24.56,0,0,1,4-2.47c-1.41-5-2.81-10.15-4.31-15.28-.65-2.23-.91-3.28,2.24-2.81,3.33.5,6.83-.14,10.26-.34,2.67-.16,4,.83,4.71,3.77,1.38,5.59,3.3,11,5.16,16.51,1.25,3.68.54,7-2.28,8.43-2.16,1.11-4.38,1-6-1s-.66-4.14,1-5.67A28.47,28.47,0,0,1,113.53,179.2Z" transform="translate(-10.84 -14.55)"/><path class="cls-5" d="M141.56,181.32v-8.23l-5.9-1.35V179c0,.76.24,1.67-.08,2.24a4.65,4.65,0,0,1-2.06,2,2.1,2.1,0,0,1-2.85-1.39c-.47-1.31.42-2.08,1.42-2.57a12.2,12.2,0,0,1,2.3-.62c0-2.66,0-5.39,0-8.12,0-1.18,0-1.74,1.49-1.05a25,25,0,0,0,5.07,1.34c1.33.32,1.84,1,1.79,2.54-.09,2.94.1,5.9.25,8.85.11,2-.69,3.49-2.27,3.79a2.28,2.28,0,0,1-2.78-1.37c-.5-1.27.25-2.13,1.29-2.64A14.65,14.65,0,0,1,141.56,181.32Z" transform="translate(-10.84 -14.55)"/><path class="cls-5" d="M105.36,210.27c-1-3.44-2.77-6.86-3.58-10.57l.65-.28a3.71,3.71,0,0,1,.72.88c1.46,3.68,2.93,7.35,4.31,11.06,1,2.56.2,4.06-2.32,4.51a3,3,0,0,1-2.48-.61,3,3,0,0,1,.2-2.6A12.49,12.49,0,0,1,105.36,210.27Z" transform="translate(-10.84 -14.55)"/><path class="cls-5" d="M133.43,226.17c.33-2.26.54-3.74.73-5.08-2.46-.29-4.7-.22-6.74-.85-3.79-1.17-5.17-4.46-3.35-8.06A35.66,35.66,0,0,1,128.4,206c1.21-1.48,1.65-2.68.69-4.63a25.32,25.32,0,0,1-1.86-6.5,5,5,0,0,1,.45-3.28,4.59,4.59,0,0,1,2.8-2.19c.75-.08,2,1.2,2.41,2.16,1.43,3.5.75,7.06-.32,10.53-.92,3-.42,3.74,2.5,3.75,4.82,0,7.27,4,5.24,8.45a2.68,2.68,0,0,1-.34.7,16.69,16.69,0,0,0-5,10.59c-.18,2.39-3.41,3.71-5.71,2.65a4.09,4.09,0,0,1-2.23-2.71,3.59,3.59,0,0,1,2.16-2.65c.9-.25,2.15.69,3.18,1.26C132.72,224.36,132.84,225,133.43,226.17Zm2.42-9.06c3.07-2.36,4.29-5.17,3.13-7.33a3.59,3.59,0,0,0-4.81-1.85C134.74,211,135.27,214,135.85,217.11Zm-3.29-8.65c-3.34,2.9-3.88,6.73-1.7,9a2.3,2.3,0,0,0,1.94.69,2.19,2.19,0,0,0,1-1.81C133.53,213.87,133,211.41,132.56,208.46Zm-1-2.39-1.19-.43a67.57,67.57,0,0,0-4.87,7.57c-1.42,2.95.17,5.09,3.84,5.38C126.32,213.83,128.26,209.84,131.56,206.07Zm-1-15c-2.37,2.29-2,6.83.61,10C132.05,197.67,132.63,194.43,130.55,191.05Z" transform="translate(-10.84 -14.55)"/><path class="cls-5" d="M151.49,149.87c0,3.33,0,6.7,0,10.08,0,1.25.1,1.93-1.58,1.14S146,160,144,159.5c-2.42-.64-2.52-1-2.51-3.56,0-3.44-.09-6.89-.34-10.32-.2-2.83,1.57-5.2,3.88-4.58a3.54,3.54,0,0,1,2.27,2c.15.78-.67,2-1.41,2.66s-1.87.68-3,1v9.93l7.06,1.63c0-2.95.16-5.9,0-8.82-.16-2.25.26-4,1.77-4.87a3.17,3.17,0,0,1,4.23,1.1c.7,1.42-.1,3-2,3.64A18,18,0,0,1,151.49,149.87Z" transform="translate(-10.84 -14.55)"/><path class="cls-5" d="M125.49,161.93c.42-5.54-.36-11.5.46-17.33l1.08,0a5.56,5.56,0,0,1,.58,1.69c.15,6.16.32,12.31.34,18.47,0,4.24-1.87,6-5.76,5.2-1.25-.26-3-1.26-3.27-2.29s.71-2.88,1.69-3.65C121.87,163,123.67,162.64,125.49,161.93Z" transform="translate(-10.84 -14.55)"/></svg>