<svg id="Layer_1" data-name="Layer 1" xmlns="http://www.w3.org/2000/svg" viewBox="0 0 698.31 711.77"><defs><style>.cls-1{fill:#fdc55f;}.cls-2{fill:#fb6952;}.cls-3{fill:#fff;}.cls-4{fill:none;stroke:#4d0aca;stroke-miterlimit:10;stroke-width:3px;}.cls-5{fill:#4d0aca;}</style></defs><path class="cls-1" d="M123.08,74.11c19.14-6.2,21.08-10.16,29.81-12.41,20.74-5.33,41.49,8.83,55.18,18.17C231,95.53,229.88,106,259.51,126.32c8.43,5.78,11.24,6.79,16.22,12C290.42,153.52,293.31,173,295.2,187c2.4,17.81,4.89,36.24-3.77,54.58-4.21,8.91-9.07,13.62-55.65,44.2-41.18,27-48.44,30.61-60.1,32.58-19.84,3.36-35.89-.72-47.15-3.7C112.82,310.5,80.82,302,61.92,275.22,49.28,257.3,57,251.8,37.09,183.11c-4.21-14.49-5.35-17-5.58-23.44-1.06-29.81,20.53-61.16,44.92-71,5.42-2.2,17-5.77,22.11-7.35C111.59,77.25,115,76.74,123.08,74.11Z" transform="translate(-7.19 -33.73)"/><path class="cls-2" d="M46.84,287.93a6,6,0,1,0-6-6,6.06,6.06,0,0,0,6,6Z" transform="translate(-7.19 -33.73)"/><path class="cls-2" d="M26.63,240.43a6,6,0,1,0-6-6,6.07,6.07,0,0,0,6,6Z" transform="translate(-7.19 -33.73)"/><path class="cls-2" d="M16.9,188.44a6,6,0,1,0-6-6,6.07,6.07,0,0,0,6,6Z" transform="translate(-7.19 -33.73)"/><path class="cls-2" d="M13.2,119.16a6,6,0,1,0,0-12,6,6,0,0,0,0,12Z" transform="translate(-7.19 -33.73)"/><path class="cls-2" d="M54.52,72.79a6,6,0,1,0-6-6,6.07,6.07,0,0,0,6,6Z" transform="translate(-7.19 -33.73)"/><path class="cls-2" d="M96.53,45.73a6,6,0,1,0-6-6,6.07,6.07,0,0,0,6,6Z" transform="translate(-7.19 -33.73)"/><path class="cls-2" d="M161.26,53.4a6,6,0,1,0-6-6,6.06,6.06,0,0,0,6,6Z" transform="translate(-7.19 -33.73)"/><path class="cls-2" d="M206.69,56.16a6,6,0,1,0-6-6,6.07,6.07,0,0,0,6,6Z" transform="translate(-7.19 -33.73)"/><path class="cls-2" d="M247.71,87.56a6,6,0,1,0-6-6,6.06,6.06,0,0,0,6,6Z" transform="translate(-7.19 -33.73)"/><path class="cls-2" d="M275.38,105.86a6,6,0,1,0-6-6,6.07,6.07,0,0,0,6,6Z" transform="translate(-7.19 -33.73)"/><path class="cls-3" d="M111,287.34c16-47.67,11.41-57.53,19.81-78.39,19.93-49.57,76.22-69.72,113.36-83,62.22-22.27,80.15-4.21,160.7-32.86,22.92-8.15,28.85-12.23,45.67-14.41,49.57-6.39,90,17.22,118.87,34.59,36.67,22.07,74.6,44.91,96.31,89.92,10.55,21.87,12.32,38.72,2.2,178.12-9,123.21-12.73,143.13-25.87,169.47-22.33,44.77-53.05,70.73-74.84,88.77-30.39,25.15-92.31,76.39-169.5,73.78-51.62-1.75-50.69-25.58-207.47-89.35-33.05-13.44-39.4-15-51.73-24.21C81.45,556.88,54.13,466.35,70.85,402.62c3.72-14.15,13.73-42.69,18.16-55.33C100.31,315.07,104.27,307.47,111,287.34Z" transform="translate(-7.19 -33.73)"/><path class="cls-4" d="M86.12,276.92c17.53-52.25,12.52-63.06,21.72-85.94,21.85-54.33,83.56-76.42,124.27-91C300.32,75.58,320,95.37,408.27,64,433.4,55,439.9,50.55,458.34,48.17c54.34-7,98.69,18.88,130.31,37.92,40.2,24.2,81.77,49.23,105.57,98.57,11.57,24,13.51,42.45,2.42,195.26-9.81,135.07-14,156.91-28.36,185.78-24.48,49.08-58.15,77.54-82,97.31-33.32,27.58-101.19,83.75-185.81,80.88C343.84,742,344.86,715.86,173,646c-36.23-14.74-43.2-16.39-56.71-26.54-62.58-47-92.53-146.25-74.2-216.11,4.07-15.52,15.05-46.8,19.91-60.66C74.38,307.33,78.72,299,86.12,276.92Z" transform="translate(-7.19 -33.73)"/><path class="cls-5" d="M249.72,224.57,240.55,192l-24.89,1.65q4,14.37,8.08,28.76c.84,3,2.81,6.33,2.18,9-.92,3.8-3,8.11-5.93,10.4-4.19,3.3-9.46,2.55-12.82-2.12s-.68-8.73,2.73-11.86c2.2-2,5.13-3.21,8.45-5.2-3-10.53-5.92-21.37-9.08-32.15-1.37-4.69-1.91-6.91,4.71-5.92,7,1.05,14.39-.29,21.6-.72,5.63-.33,8.4,1.76,9.93,7.94,2.9,11.77,6.94,23.26,10.85,34.74,2.64,7.76,1.15,14.69-4.79,17.75-4.55,2.34-9.23,2.1-12.53-2.16-3.42-4.43-1.39-8.72,2.16-12C243.58,227.92,246.63,226.53,249.72,224.57Z" transform="translate(-7.19 -33.73)"/><path class="cls-5" d="M308.71,229V211.72l-12.43-2.84c0,5.08,0,10.18,0,15.27,0,1.6.51,3.51-.16,4.71a9.78,9.78,0,0,1-4.34,4.23c-2.51,1-5-.14-6-2.92s.87-4.37,3-5.41a26.79,26.79,0,0,1,4.86-1.31c0-5.59,0-11.33,0-17.08,0-2.5,0-3.66,3.12-2.2,3.29,1.54,7.09,2,10.68,2.81,2.8.66,3.87,2.1,3.77,5.35-.2,6.19.2,12.41.53,18.61.22,4.19-1.46,7.36-4.79,8-2.55.48-4.81-.32-5.84-2.9s.52-4.47,2.7-5.54A30.61,30.61,0,0,1,308.71,229Z" transform="translate(-7.19 -33.73)"/><path class="cls-5" d="M232.51,290c-2.06-7.25-5.84-14.43-7.52-22.23l1.35-.61a8.27,8.27,0,0,1,1.53,1.86c3.07,7.74,6.15,15.48,9.06,23.29,2,5.38.43,8.54-4.87,9.47-1.71.3-4.4-.11-5.23-1.27s-.44-4,.43-5.48C228.39,293.07,230.53,291.77,232.51,290Z" transform="translate(-7.19 -33.73)"/><path class="cls-5" d="M291.6,323.43c.68-4.76,1.12-7.88,1.52-10.7-5.18-.6-9.88-.47-14.17-1.78-8-2.46-10.89-9.4-7.05-17,2.37-4.67,5.78-8.84,9.1-12.91,2.55-3.12,3.49-5.65,1.46-9.75s-3-9-3.92-13.68a10.6,10.6,0,0,1,.94-6.9c1.29-2.1,3.75-4.4,5.9-4.62,1.58-.16,4.25,2.53,5.07,4.55,3,7.36,1.59,14.85-.67,22.16-1.93,6.21-.89,7.88,5.26,7.89,10.14,0,15.31,8.34,11,17.78a5.49,5.49,0,0,1-.71,1.48c-5.9,6.23-9.82,13.13-10.51,22.28-.38,5-7.18,7.81-12,5.59-2.09-1-4.64-3.7-4.69-5.7s2.56-5,4.53-5.58,4.54,1.46,6.69,2.65C290.11,319.63,290.35,321,291.6,323.43Zm5.08-19.08c6.47-5,9-10.87,6.58-15.41-2.27-4.22-5.79-5.47-10.11-3.91C294.34,291.54,295.47,297.74,296.68,304.35Zm-6.92-18.19c-7,6.11-8.17,14.16-3.58,19,.95,1,3,1.85,4.09,1.45s2.21-2.56,2.08-3.81C291.8,297.55,290.78,292.37,289.76,286.16Zm-2.11-5-2.49-.92c-3.48,5.29-7.54,10.27-10.26,15.94-3,6.21.36,10.71,8.09,11.32C276.63,297.46,280.71,289.07,287.65,281.13Zm-2.13-31.62c-5,4.82-4.15,14.37,1.29,21C288.68,263.45,289.92,256.63,285.52,249.51Z" transform="translate(-7.19 -33.73)"/><path class="cls-5" d="M329.61,162.84c0,7-.05,14.11,0,21.22,0,2.64.19,4.06-3.33,2.41-3.86-1.82-8.32-2.26-12.51-3.36-5.1-1.35-5.3-2-5.28-7.48,0-7.25-.2-14.51-.71-21.73-.43-6,3.31-11,8.16-9.63,1.91.51,4.41,2.48,4.77,4.21s-1.41,4.28-3,5.58-3.94,1.44-6.22,2.17v20.91l14.87,3.43c0-6.21.34-12.42-.11-18.56-.34-4.75.55-8.5,3.71-10.25s7.48-.6,8.92,2.32-.21,6.19-4.18,7.65A38.78,38.78,0,0,1,329.61,162.84Z" transform="translate(-7.19 -33.73)"/><path class="cls-5" d="M274.88,188.22c.89-11.66-.75-24.21,1-36.47l2.28-.1c.42,1.18,1.19,2.36,1.22,3.56.32,12.95.66,25.91.7,38.86,0,8.93-3.94,12.61-12.11,11-2.63-.54-6.31-2.66-6.89-4.81s1.51-6.06,3.55-7.7C267.27,190.38,271.05,189.72,274.88,188.22Z" transform="translate(-7.19 -33.73)"/></svg>