<?xml version="1.0" encoding="UTF-8"?>
<svg id="sw-js-blob-svg" xmlns="http://www.w3.org/2000/svg" xmlns:xlink="http://www.w3.org/1999/xlink" viewBox="0 0 85.18 82.46">
  <defs>
    <style>
      .cls-1 {
        fill: #1b1b1b;
      }

      .cls-1, .cls-2, .cls-3, .cls-4, .cls-5, .cls-6, .cls-7 {
        stroke-width: 0px;
      }

      .cls-2, .cls-8 {
        opacity: .5;
      }

      .cls-2, .cls-7 {
        fill: #ff936c;
      }

      .cls-9 {
        clip-path: url(#clippath-2);
      }

      .cls-4 {
        fill: none;
      }

      .cls-10 {
        clip-path: url(#clippath-1);
      }

      .cls-5 {
        fill: #ffce89;
      }

      .cls-6 {
        fill: #fff;
      }

      .cls-11 {
        clip-path: url(#clippath);
      }

      .cls-12 {
        clip-path: url(#clippath-3);
      }
    </style>
    <clipPath id="clippath">
      <rect class="cls-4" x="2.47" y="77.99" width="5.3" height="1.44" transform="translate(-43.3 16.45) rotate(-34.15)"/>
    </clipPath>
    <clipPath id="clippath-1">
      <rect class="cls-4" x="5.22" y="63.77" width=".49" height="5.03" transform="translate(-36.27 14.5) rotate(-34.15)"/>
    </clipPath>
    <clipPath id="clippath-2">
      <rect class="cls-4" x="74.13" y=".43" width="8.23" height="11.45" transform="translate(39.36 74.34) rotate(-64.8)"/>
    </clipPath>
    <clipPath id="clippath-3">
      <rect class="cls-4" x="44.32" y="30.98" width="37.62" height="41.45"/>
    </clipPath>
  </defs>
  <path class="cls-5" d="M82.67,52.86c-2.77,9.74-7.95,18.44-15.35,23.55-7.45,5.02-17.29,6.32-27.26,6.01-9.97-.31-20.11-2.32-24.87-8.56-4.8-6.1-4.22-16.43-2.89-25.01,1.24-8.54,3.38-15.28,6.5-22.96,3.16-7.59,2.23-14.74,9.22-18.42,7.08-3.73,22.14-4.12,31.47-.59,9.29,3.44,18.21,9.29,22.37,17.49,4.17,8.2,3.63,18.84.81,28.49Z"/>
  <g>
    <path class="cls-2" d="M.03,68.75s-.04-.12,0-.17c.04-.05.09-.08.15-.07.06.01.11.03.16.06.16.08.31.16.47.24.22.11.43.22.65.33.16.08.33.17.49.25.15.08.3.15.45.22.17.08.33.16.5.24.19.09.38.18.56.27.18.09.37.18.55.26.15.07.3.14.45.22.14.07.28.14.42.21.1.05.1.14.07.2-.03.07-.12.09-.2.06-.3-.11-.58-.24-.87-.38-.2-.1-.4-.19-.6-.28-.19-.09-.38-.19-.57-.28-.2-.09-.39-.19-.59-.28-.12-.06-.25-.12-.37-.18-.23-.11-.45-.23-.68-.35-.16-.08-.32-.17-.48-.25-.15-.08-.3-.16-.45-.23-.05-.02-.09-.05-.11-.1Z"/>
    <g class="cls-8">
      <g class="cls-11">
        <path class="cls-7" d="M7.02,76.82c.04.06.03.14-.03.19-.07.07-.14.14-.22.2-.07.06-.14.12-.2.18-.04.04-.08.07-.12.1-.15.12-.29.25-.43.38-.14.13-.27.28-.41.41-.33.34-.64.69-.95,1.04-.28.32-.56.64-.84.96-.09.1-.18.21-.27.31-.03.03-.05.05-.08.08-.05.05-.15.05-.2,0-.06-.05-.07-.14-.02-.21.06-.09.12-.17.19-.25.34-.38.68-.77,1.02-1.15.2-.23.4-.46.61-.68.2-.22.41-.43.61-.64.12-.12.25-.25.38-.36.12-.1.24-.21.36-.3.11-.08.22-.17.33-.25.01-.01.03-.03.04-.04.08-.07.2-.04.23.03h0Z"/>
      </g>
    </g>
    <path class="cls-2" d="M.52,75.39c-.05-.06-.04-.16.05-.23.06-.04.12-.06.18-.09.21-.09.43-.18.64-.27.28-.12.56-.22.85-.32.37-.12.74-.24,1.11-.35.25-.08.51-.16.76-.24.28-.09.55-.17.83-.26.04-.01.08-.03.12-.02.08.02.12.05.13.12,0,.09-.02.14-.1.17-.04.02-.09.03-.13.05-.32.13-.64.23-.97.33-.35.11-.7.22-1.05.33-.36.12-.72.23-1.08.37-.24.09-.49.19-.73.3-.12.05-.24.11-.36.16-.04.02-.07.03-.11.03-.07,0-.12,0-.16-.07Z"/>
    <g class="cls-8">
      <g class="cls-10">
        <path class="cls-7" d="M4.42,64.31c.09.17.21.32.31.49.07.12.15.23.22.35.41.6.81,1.21,1.22,1.8.17.24.33.47.49.71.09.13.18.27.24.42.02.06.04.11.03.18-.02.06-.05.09-.11.1-.06,0-.11,0-.14-.05-.03-.05-.06-.1-.08-.16-.01-.03-.03-.05-.04-.08-.2-.3-.4-.61-.62-.9-.23-.31-.42-.63-.65-.94-.18-.24-.34-.48-.5-.73-.14-.23-.3-.44-.44-.67-.07-.11-.14-.22-.21-.33-.03-.05-.06-.11-.08-.17-.02-.06,0-.13.06-.17.05-.04.12-.03.17,0,.05.04.1.08.13.14Z"/>
      </g>
    </g>
  </g>
  <g class="cls-8">
    <g class="cls-9">
      <path class="cls-7" d="M82.83,8.97c-.03.06-.05.11-.07.16-.02.03-.01.04.02.06,0,0,.01,0,.02,0,.09.05.13.13.11.23-.01.06-.04.11-.06.17-.06.14-.13.29-.2.43-.03.05-.04.11-.04.17,0,.14-.04.27-.13.38-.14.18-.32.29-.54.33-.35.06-.69.06-1.04,0-.29-.04-.57-.12-.85-.2-.3-.08-.6-.18-.9-.27-.19-.06-.38-.11-.56-.19-.1-.04-.2-.07-.29-.12-.08-.04-.17-.06-.26-.08-.34-.09-.69-.16-1.04-.23-.29-.06-.57-.14-.84-.22-.23-.07-.46-.15-.68-.23-.14-.05-.27-.1-.4-.15-.08-.03-.17-.07-.25-.11-.14-.06-.27-.15-.41-.23-.18-.12-.36-.23-.54-.35-.35-.24-.69-.49-1-.78-.09-.09-.18-.18-.26-.28-.17-.21-.34-.42-.48-.65-.08-.12-.15-.26-.18-.4-.03-.15,0-.29.07-.42.08-.15.21-.24.36-.31.13-.05.26-.1.39-.13.23-.05.47-.1.71-.12.04,0,.07,0,.11,0,.03,0,.05-.01.06-.04.1-.18.21-.36.32-.54.07-.11.16-.19.28-.24.07-.03.14-.06.22-.08.03,0,.05-.03.06-.05.12-.16.25-.32.39-.46.23-.24.46-.47.72-.67.22-.17.46-.31.71-.43.2-.09.41-.18.62-.25.47-.16.94-.28,1.44-.33.19-.02.37-.02.56,0,.06,0,.12,0,.18,0,.2.02.4.07.59.12.18.05.37.1.55.16.2.06.39.14.57.23.18.09.33.22.47.38.06.07.12.14.17.21.02.03.05.06.06.1,0,.02.02.03.04.04.26.15.49.34.7.54.26.25.49.53.68.84.21.34.32.71.35,1.11,0,.11,0,.22,0,.34,0,.26-.01.52-.04.78-.03.35-.07.69-.15,1.03-.05.19-.11.37-.19.55-.03.07-.06.15-.09.21ZM78.57,2.46s-.02,0-.03,0c-.03,0-.06,0-.09,0-.46.04-.92.15-1.36.29-.27.09-.54.2-.8.32-.24.12-.46.25-.66.42-.37.31-.7.64-.99,1.02-.15.2-.29.4-.41.62-.1.17-.19.34-.31.5-.02.02-.02.04-.01.07.02.04.03.08.04.11.14.29.31.56.53.8.36.41.78.75,1.24,1.05.15.1.3.19.44.28.11.07.23.14.35.21.1.06.2.11.3.17.03.02.04.02.06-.02.09-.1.18-.19.27-.29.07-.07.14-.15.21-.22.06-.06.13-.08.21-.07.03,0,.06,0,.09.02.13.04.25.09.38.15.18.09.36.19.54.29.06.04.12.07.17.11.07.06.11.13.11.22,0,.04,0,.08,0,.12-.02.17-.05.33-.09.49,0,.03-.01.05-.02.08,0,.04,0,.04.03.05.08.02.16.05.24.07.19.05.37.11.56.18.1.04.21.08.32.11.2.07.41.12.62.17.18.04.36.08.53.13.13.03.26.08.39.11.09.02.19.04.28.04.04,0,.09,0,.09-.07,0,0,0-.01,0-.02.06-.11.09-.23.13-.35.06-.17.17-.31.34-.38.09-.04.18-.07.27-.09.02,0,.03,0,.04-.03.02-.04.05-.09.07-.13.06-.13.12-.26.17-.4.08-.19.14-.39.18-.59.05-.26.08-.51.11-.77.03-.27.04-.54.05-.82,0-.1,0-.2,0-.3-.02-.24-.06-.48-.14-.7-.11-.3-.28-.57-.48-.82-.16-.2-.34-.39-.53-.56-.14-.13-.29-.25-.46-.35-.08-.04-.15-.09-.23-.13-.05-.03-.1-.05-.15-.08-.02-.01-.04-.02-.04-.05,0-.02.03-.02.07-.02.02,0,.05.01.07.02.01,0,.03.01.05,0-.1-.13-.2-.25-.33-.35-.05-.04-.1-.08-.15-.11-.15-.08-.31-.15-.48-.21-.24-.08-.49-.16-.74-.22-.17-.04-.33-.08-.5-.1-.11-.01-.22,0-.33.03-.08.03-.17.07-.24.11-.29.16-.57.35-.84.55-.07.05-.13.1-.21.15-.01,0-.03.02-.04.02-.01,0-.03,0-.04,0-.01-.01,0-.03,0-.04,0-.01.01-.02.02-.03.02-.02.04-.04.06-.06.21-.19.44-.37.68-.52.12-.07.24-.15.37-.22ZM82.49,10.07c-.05.02-.1.03-.14.04-.16.04-.33.06-.49.08-.02,0-.05,0-.07,0-.14,0-.27-.02-.41-.05-.11-.03-.22-.07-.34-.1-.24-.06-.48-.12-.71-.18-.15-.04-.3-.08-.44-.12-.16-.05-.31-.12-.47-.17-.21-.07-.42-.14-.63-.21-.06-.02-.07-.02-.09.04-.04.08-.09.14-.17.18-.01,0-.02.01-.03.02-.02.02-.05.02-.08.02-.04,0-.07,0-.11-.02-.09-.03-.17-.07-.25-.11-.31-.14-.6-.29-.88-.48-.14-.1-.28-.21-.36-.36-.03-.06-.04-.11-.02-.17.01-.04.01-.04-.03-.06-.07-.04-.13-.07-.2-.11-.12-.07-.24-.14-.36-.22-.21-.13-.42-.26-.62-.4-.37-.25-.71-.53-1.03-.85-.27-.28-.5-.59-.67-.94-.03-.06-.06-.11-.06-.18,0-.04-.02-.06-.05-.07-.06-.03-.12-.07-.15-.13-.01-.02-.03-.03-.05-.03-.32.04-.63.09-.94.18-.12.03-.23.08-.33.15-.17.12-.31.37-.21.63.04.09.08.18.13.26.14.23.31.44.48.64.08.09.15.18.24.26.31.3.65.55,1.01.79.18.12.36.24.54.35.13.08.26.17.41.23.06.03.12.05.19.08.14.06.27.11.41.15.25.09.5.17.75.25.27.08.55.16.83.21.42.08.84.17,1.24.3.06.02.12.03.17.07.08.06.17.08.26.12.11.04.23.07.34.11.2.06.4.12.6.18.22.07.45.13.67.19.32.08.64.15.98.16.22,0,.43,0,.65-.05.07-.02.14-.03.19-.07.09-.06.17-.13.23-.22.05-.07.09-.15.09-.24,0-.05,0-.09,0-.15ZM77.98,9.35h0c.1.05.2.09.29.14.06.03.12.04.19,0,.04-.03.08-.05.1-.09.03-.05.05-.1.06-.15.05-.16.08-.31.11-.48.01-.07.02-.14.02-.21,0-.08-.03-.14-.1-.19-.12-.08-.24-.15-.37-.22-.09-.05-.18-.09-.26-.14-.11-.06-.23-.12-.35-.15-.05-.02-.11-.03-.16-.03-.05,0-.09.02-.12.06-.08.11-.17.2-.26.3-.06.07-.13.14-.19.21-.03.03-.05.07-.06.11-.02.05-.01.1.02.14.04.05.09.1.14.14.11.09.24.17.36.25.1.06.2.12.3.18.09.04.18.09.27.13ZM81.9,10.08s.02,0,.02,0c.2-.03.4-.06.59-.15.03-.01.05-.03.06-.06.07-.14.13-.28.2-.43,0-.02.02-.04.02-.06.02-.09-.06-.16-.15-.13-.09.03-.17.06-.25.09-.1.04-.2.1-.26.19-.03.05-.06.11-.08.17-.03.09-.06.19-.1.28-.01.03-.03.06-.05.09ZM74.37,4.67c-.05.02-.09.04-.12.05-.07.03-.13.08-.17.15-.05.08-.1.16-.15.25-.07.11-.13.23-.2.34-.02.03-.01.04.01.06.02.02.05.03.07.04.04.02.05.01.07-.02.07-.13.15-.26.22-.39.06-.1.11-.2.17-.3.03-.05.07-.11.11-.18Z"/>
    </g>
    <path class="cls-7" d="M80.67,3.17s.01,0,.02.02c.01.02,0,.03-.01.04-.02,0-.05,0-.08,0-.13,0-.27,0-.4-.02-.38-.02-.75,0-1.13.05-.2.02-.4.06-.59.11-.19.06-.38.13-.55.23-.02.01-.04.02-.06.03-.02,0-.04,0-.06-.02-.01-.02-.01-.04,0-.06.01-.03.04-.04.06-.06.07-.05.15-.08.23-.12.28-.13.58-.19.89-.23.28-.04.57-.06.86-.06.25,0,.49.01.73.06.03,0,.06.01.09.02Z"/>
    <path class="cls-7" d="M73.29,5.66s.03.04,0,.05c-.01,0-.02.01-.04.01-.09.02-.17.04-.26.07-.15.05-.3.11-.43.21-.11.07-.19.17-.25.29,0,.02-.02.04-.03.05-.01.01-.02.02-.04.02-.02,0-.02-.02-.03-.03,0-.02,0-.03,0-.05,0-.05.03-.09.06-.13.07-.1.17-.18.27-.25.19-.11.39-.19.61-.22.03,0,.06,0,.09,0,.01,0,.03,0,.04,0Z"/>
  </g>
  <g id="Layer_1-2" data-name="Layer 1-2">
    <path class="cls-6" d="M65.23,36.64c-.04.67.8.91,1.3.62.16-.09.32-.46.34-.65.06-.63-.41-.85-.96-.72-.33.08-.66.4-.68.76ZM67.83,35.2c.3.58.46,1.46.17,2.2-.36.9-1.42,1.61-2.74,1.24-.75-.21-1.31-1.15-1.3-1.92,0-1.09.77-2.15,1.85-2.3.78-.11,1.73.23,2.02.79"/>
    <path class="cls-1" d="M67.59,58.41c.19.05.08.55-.14.52-.08-.18.11-.34.14-.52"/>
    <path class="cls-1" d="M67.18,51.82c.27.12.31.46.51.65-.31.07-.55-.37-.51-.65"/>
    <path class="cls-1" d="M67.11,57.86s.06,0,.07.04c-.02.12-.02.55-.28.55-.08-.21.08-.46.2-.58"/>
    <path class="cls-1" d="M66.6,52.37c.2.04.25.23.34.38-.2.1-.45-.16-.34-.38"/>
    <path class="cls-6" d="M65.91,35.89c.55-.13,1.02.09.96.72-.02.2-.18.56-.34.65-.5.3-1.34.05-1.3-.62.02-.35.35-.68.68-.76"/>
    <path class="cls-6" d="M62.22,36.4c.71.06.81-1.19,0-1.03-.59.11-.52.99,0,1.03ZM62.49,34.38c.6-.01,1.24.44,1.33,1.17.15,1.17-.79,2.11-1.85,2.09-2.04-.04-1.41-2.84-.07-3.23.21-.06.37-.03.58-.04"/>
    <path class="cls-6" d="M62.22,35.37c.81-.16.71,1.09,0,1.03-.52-.04-.59-.91,0-1.03"/>
    <path class="cls-6" d="M61.32,67.36s-.02.06-.02.09c0-.03.02-.06.02-.09"/>
    <path class="cls-6" d="M61.29,67.45s-.02.09-.04.13c.01-.05.02-.09.04-.13"/>
    <path class="cls-6" d="M61.25,67.63l-.02.09.02-.09"/>
    <path class="cls-6" d="M69.06,37.09c.05.52-.38,1.39-.58,1.92-.25.66-.38,1.34-.55,1.92-.18.62-.39,1.28-.51,1.99-.13.72-.13,1.48-.24,2.23-.04.29-.13.59-.17.89-.04.34-.03.66-.07,1-.05.41-.24.86-.38,1.3-.26.88-.62,1.55-1.13,2.13-.28.32-.73.73-1.06.93-2.26,1.38-6.25.65-6.33-2.4-.04-1.67,1.27-2.78,1.54-4.36-.02-.13.2-.03.2-.14.04-.8.13-1.52.17-2.37.01-.25-.05-.55,0-.72.06-.24.32-.44.41-.69.19-.51.2-1.08.22-1.69v-.16c0-.05,0-.11,0-.16,0-.16.01-.32.02-.49v-.05c.01-.09.02-.19.03-.28,0-.05.01-.11.02-.17,0-.04.01-.08.02-.11s.01-.08.02-.11c0-.04.01-.08.02-.11.16-.06.26.19.44.28.98.45,2.18-.04,2.57-.86.15,1.6,1.63,2.54,3.25,1.96.93-.33,1.41-1.42,1.4-2.61.29.26.64.49.68.93"/>
    <path class="cls-6" d="M60.69,37.51s-.01.08-.02.11c0-.04.01-.08.02-.11"/>
    <path class="cls-6" d="M60.67,37.62l-.02.11.02-.11"/>
    <path class="cls-6" d="M60.63,37.9c0,.09-.02.19-.02.28,0-.09.01-.18.02-.28"/>
    <path class="cls-6" d="M60.61,38.23c0,.16-.01.33-.02.49,0-.16,0-.33.02-.49"/>
    <path class="cls-6" d="M60.59,38.72c0,.05,0,.11,0,.16,0-.05,0-.11,0-.16"/>
    <g class="cls-12">
      <path class="cls-1" d="M63.96,36.71c0,.78.55,1.71,1.3,1.92,1.32.38,2.38-.34,2.74-1.24.29-.73.13-1.62-.17-2.2-.29-.56-1.24-.9-2.02-.79-1.07.15-1.84,1.21-1.85,2.3h0ZM44.67,48.21c-.05.38-.06,1.39.38,1.37.08,0,.53-.49.65-.65.59-.81,1.12-1.58,1.71-2.23.19-.21.39-.41.58-.61.08-.08.17-.17.25-.25.04-.04.08-.08.13-.12.01-.01.03-.02.04-.04.03-.03.06-.05.08-.08.03-.02.06-.05.08-.08.03-.02.06-.05.08-.08.03-.02.06-.05.09-.08.46-.41.93-.79,1.43-1.18-.06-.4.13-.56.17-.86-.17-.1-.5-.04-.65-.17-.2-.76.68-.94.72-1.68-.5-.16-1.11-.4-.86-1.03-1.09.87-1.97,2.15-2.94,3.37-.88,1.11-1.74,2.76-1.95,4.4h0ZM57.87,41.21c.1,0,.2,0,.32,0h.07s.07.01.07.01c.02,0,.05,0,.07,0h0s.05,0,.07,0c.01,0,.03,0,.04,0,.02,0,.05,0,.07,0h.05s.11.01.11.01h0s.05,0,.07,0h0s.05,0,.07,0h0s.05,0,.07,0h0c.15,0,.3.01.43,0,0,0,.02,0,.02,0,.07,0,.13-.02.19-.03.02,0,.04-.01.06-.02.01,0,.02,0,.04-.01s.02,0,.04-.01c0,0,.01,0,.02,0,.01,0,.02-.01.03-.02.02,0,.03-.02.04-.03.02-.01.04-.03.06-.05.27-.26.38-1.02.42-1.6.08-1.25.35-2.65-.31-3.33-1.03-.25-2.17-.13-3.18.14-.61.16-1.29.44-1.92.72-1.84.83-3.68,1.85-4.93,3.09-.1.26-.29.44-.27.82.25.3.8.15.89.55.13.61-.74.9-.75,1.51.27.08.64.07.72.34.03.24-.26.44-.21.72,1.46-.97,3.36-1.84,5.37-2.37.69-.18,1.45-.43,2.12-.48h0ZM71.35,37.47c.13-1.09-.89-1.46-1.47-1.89-.24-.18-.48-.48-.75-.69-.31-.23-.64-.46-.79-.69-.46-.72-.34-2.02-.17-2.81-.56.31-.86.87-1.13,1.44-.09.18-.15.41-.31.55-.4-.24-.16-1.11-.38-1.44-.35.63-.57,1.37-.75,2.16-.62.17-1.29.31-1.95.52.12.3.34.5.34.93.45-.77,1.39-1.64,2.57-1.41.85.17,1.49.75,1.71,1.61.4.37,1.01.7,1.03,1.44.01.76-.57,1.59-.82,2.37-.18.55-.26,1.18-.44,1.79-.54,1.78-.68,3.71-.89,5.74-.04.43-.24.91-.38,1.41-.25.92-.75,1.72-1.27,2.27-2.08,2.18-7.28,2.24-7.66-1.54-.64,3.05-.86,6.77-.1,9.68.47,1.79,1.16,3.06,2.29,4.09.58.52,1.22.92,1.88,1.31-.14.75-.26,1.51-.41,2.3-.05.26-.11.52-.18.77,0,.03-.02.06-.02.09-.01.04-.02.09-.04.13,0,.01,0,.03-.01.04l-.02.09c-.02.11-.05.21-.07.31-.08.43-.02.91-.24,1.3-.65-.37-1.76-.77-2.6-.52.35-.07.65.13.96.21.45.11.97.08,1.23.34-.16.16-.44.1-.68.14-.71.12-1.55.31-2.15.52.71-.06,1.56.05,2.23-.04.29-.04.61-.24.82-.04-.56.53-1.34.85-1.78,1.51.97-.34,1.81-.82,2.6-1.34.47-1.78.76-3.74,1.27-5.5.47-.06,1.44.13,2.02-.04.32,1.07.25,2.34.41,3.5.06.44.13.91.2,1.34-.69.69-1.54,1.22-2.29,1.85.66-.29,1.24-.76,1.78-1.13.18-.13.42-.28.65-.28-.04.51-.34,1.21-.34,1.75.35-.52.59-1.15.92-1.68.51.19,1.03.55,1.47.69-.33-.56-1.16-.88-1.34-1.61-.1-.41-.06-.91-.1-1.37-.08-.95-.08-1.92-.1-2.89.55,0,1.44-.35,2.05-.31.29.02.51.26.79.45,1.55,1.03,2.88,2.06,4.76,2.68,1.07.35,2.13.69,3.22,1,1.08.3,2.76.79,3.8.65-.56-.07-.88-.43-1.27-.62-.28-.14-.64-.11-.79-.41.69-.4,1.98-.19,2.67-.58-3.09-.79-6.03-1.73-8.07-3.57-1.52.49-3.67.1-4.93-.41-1.14-.47-2.11-1.04-2.87-1.85-.69-.73-1.19-1.52-1.61-2.51-.44-1.04-1.07-2.39-.89-3.53.06-.37.16-.81.34-1.07.02.58-.19,1.13-.14,1.72.08,1.03.54,1.99.92,2.88.7,1.64,1.69,2.83,3.18,3.67,1.01.57,2.31,1.01,3.73,1.1,1.23.08,2.31.03,2.84-.69-.73-1.52-1.65-2.75-2.29-4.36-.95-2.38-1.57-5.13-1.99-8.03-.31-2.14-.2-4.07.04-6.15.11-1,.18-2.02.38-2.99.14-.71.41-1.5.62-2.27.09-.35.22-.71.38-1.07.15-.33.37-.72.41-1.03h0ZM81.92,67.45c.16.45-.86.57-1.06.62-.42.1-1,.16-1.4.24.2.06.44.32.72.45.37.16,1.34.29,1.33.65,0,.34-.95.23-1.3.21-2.35-.19-4.57-1.02-6.67-1.75-1.62-.56-2.84-1.27-4.1-2.2-.3-.22-.89-.76-1.27-.83-.56-.1-1.13.24-1.75.21-.11.43.01.84.04,1.27.05.93-.06,1.91.17,2.71.11.4.56.76.86,1.06.16.16.32.33.48.48.14.13.44.3.31.58-.35.13-.69-.15-.99-.31-.32-.17-.65-.32-.96-.48-.37.52-.61,1.15-1.03,1.68-.12.16-.22.44-.51.38-.25-.58.35-1.14.27-1.89,0-.03.04-.04.04-.07-.4.26-.82.57-1.27.82-.41.24-.89.66-1.47.48-.02-.35.37-.54.58-.72.68-.58,1.49-1.05,2.15-1.68-.18-1.44-.32-2.93-.48-4.39-.5.09-1.01-.04-1.57,0-.28.95-.44,1.93-.72,2.99-.21.78-.21,1.62-.52,2.23-.14.29-.53.43-.92.65-.22.13-.35.32-.55.41-.16.08-.37.1-.55.17-.39.16-.94.56-1.44.45-.14-.29.19-.42.34-.58.31-.32.63-.7,1.03-.96-.42.08-.71-.03-1.13-.04-.5,0-1.52.25-1.57-.21-.04-.31.66-.45.92-.52.47-.11.77-.15,1.2-.21-.25-.42-1.7-.05-1.64-.65.03-.35,1.51-.33,1.99-.24.47.09.86.26,1.23.38.29-1.45.59-2.89.86-4.36-1.19-.76-2.35-1.54-3.15-2.85-.76-1.24-1.33-3.4-1.44-5.25-.12-2.09.02-4.6.38-6.42.05-.26.1-.49.17-.72.07-.22.21-.4.27-.62.13-.43.11-.79.24-1.13.35-.94.98-1.79,1.23-2.89-1.2.02-2.17,0-3.28.24-1.58.33-3.23.62-4.58,1.06-1.96.64-3.79,1.26-5.03,2.54-.23.32-.48.81-.79,1.1-.14.13-.38.34-.58.34-.58,0-.72-.86-.68-1.51.04-.81.43-1.72.75-2.51.34-.81.7-1.5,1.16-2.09.51-.65.93-1.28,1.4-1.85.48-.58,1.04-1.06,1.64-1.61,1.14-1.06,2.4-2.03,3.76-2.75,1.4-.74,2.96-1.54,4.65-1.82.81-.13,1.61-.05,2.29.07.85-.55,1.23-2.01,2.74-1.82.27.04.44.21.68.34.64-.18,1.3-.35,1.99-.48.02-.42.16-.84.38-1.37.13-.31.44-1.08.72-1.03.32.06.18.78.24,1.2.39-.57.8-1.42,1.61-1.68.27.41-.04.95-.07,1.44-.03.55.08,1.23.34,1.61.15.21.41.37.65.55.22.17.44.37.65.55.73.63,2.07,1.06,1.71,2.57-.09.37-.33.69-.48,1.03-.16.35-.24.76-.34,1.13-.61,2.27-1.04,4.82-1.2,7.66-.09,1.6.18,3.2.41,4.7.23,1.51.61,2.87.96,4.12.36,1.28.79,2.58,1.37,3.74.26.52.62,1.11.92,1.61.27.45.88,1.24.86,1.68-.02.3-.28.37-.48.55,1.24,1.15,3.36,2.13,5.41,2.71.71.2,1.43.49,2.05.62.27.06.75-.03.82.17h-.02ZM68.48,39.01c.2-.53.63-1.41.58-1.92-.04-.44-.39-.67-.68-.93,0,1.19-.48,2.28-1.4,2.61-1.62.58-3.1-.36-3.25-1.96-.38.82-1.58,1.31-2.57.86-.18-.08-.28-.34-.44-.28,0,.04-.02.08-.02.11,0,.04-.01.08-.02.11s-.01.07-.02.11c0,.05-.01.11-.02.17,0,.09-.02.19-.02.28v.05c-.02.16-.02.33-.02.49,0,.05,0,.11,0,.16v.16c-.01.6-.03,1.17-.22,1.69-.09.24-.35.45-.41.69-.05.17.01.47,0,.72-.04.85-.13,1.57-.17,2.37,0,.11-.22,0-.2.14-.27,1.58-1.58,2.69-1.54,4.36.08,3.05,4.07,3.79,6.33,2.4.33-.2.77-.6,1.06-.93.51-.58.86-1.25,1.13-2.13.13-.44.33-.9.38-1.3.04-.34.03-.66.07-1,.04-.3.13-.6.17-.89.11-.76.11-1.51.24-2.23.12-.71.33-1.37.51-1.99.17-.58.3-1.26.55-1.92h0ZM61.98,37.64c1.06.02,1.99-.92,1.85-2.09-.09-.73-.74-1.18-1.33-1.17-.21,0-.38-.02-.58.04-1.34.38-1.97,3.19.07,3.23ZM59.7,42.84c.04-.43.06-.87.05-1.39-.76.11-1.34-.06-2.15.04-.49.05-1.03.29-1.57.41-3.71.84-6.91,2.99-8.73,5.36-.02,0-.02.02-.03.04.01-.01.02-.02.03-.04h0c1.51-.8,3.27-1.55,5.2-1.92.98-.19,1.88-.54,2.87-.69.51-.08,1-.22,1.51-.28.9-.11,1.9.01,2.7-.04,0-.05,0-.1,0-.14,0-.03,0-.06,0-.09,0-.03,0-.06,0-.09,0-.02,0-.03,0-.05,0-.03,0-.06,0-.09,0-.03,0-.06,0-.09,0-.03,0-.06,0-.08v-.04c.02-.13.03-.25.04-.37,0-.03,0-.05,0-.08,0-.03,0-.05,0-.08,0-.01,0-.03,0-.04,0-.04,0-.08.01-.12,0-.01,0-.03,0-.04,0-.03,0-.05,0-.08"/>
    </g>
    <path class="cls-1" d="M60.23,57.42c-.03.21-.25.48-.44.31.12-.13.26-.25.44-.31"/>
    <path class="cls-6" d="M60.03,36.16c.66.68.39,2.08.31,3.33-.04.58-.15,1.34-.42,1.6-.02.02-.04.04-.06.05-.01,0-.03.02-.04.03-.01,0-.02.01-.03.02,0,0-.01,0-.02,0-.01,0-.02.01-.04.01s-.02,0-.04.01c-.02,0-.04.01-.06.02-.06.01-.12.02-.19.03,0,0-.01,0-.02,0-.13.01-.28.01-.43,0h0s-.05,0-.07,0h0s-.05,0-.07,0h0s-.05,0-.07,0h-.12s-.05-.01-.05-.01c-.02,0-.05,0-.07,0-.01,0-.03,0-.04,0-.02,0-.05,0-.07,0h0s-.05,0-.07,0h-.07s-.07-.01-.07-.01c-.11,0-.22,0-.32,0-.68.05-1.43.3-2.12.48-2.01.53-3.91,1.4-5.37,2.37-.05-.28.24-.48.21-.72-.08-.28-.45-.26-.72-.34,0-.61.88-.9.75-1.51-.08-.4-.64-.25-.89-.55-.02-.38.17-.56.27-.83,1.25-1.24,3.09-2.26,4.93-3.09.62-.28,1.3-.56,1.92-.72,1.02-.26,2.15-.39,3.18-.14h0ZM58.08,39.66c.09.03.16.17.24.1,0-.14-.05-.22-.07-.34h-.14s-.04.15-.04.24h0ZM57.91,40.14c.09-.17-.12-.46-.31-.34,0,.05.02.1.05.13,0,.01.02.02.02.04.01.02.02.03.04.04.05.05.12.09.2.13"/>
    <path class="cls-6" d="M59.85,41.14s.04-.03.06-.05c-.02.02-.04.04-.06.05-.01.01-.03.02-.04.03.02,0,.03-.02.04-.03"/>
    <path class="cls-6" d="M59.78,41.18s.02-.01.03-.02c-.01,0-.02.01-.03.02"/>
    <path class="cls-6" d="M59.73,41.21s.02,0,.04-.01c-.01,0-.02.01-.04.01"/>
    <path class="cls-6" d="M59.69,41.22s.02,0,.04-.01c-.01,0-.02,0-.04.01"/>
    <path class="cls-1" d="M59.58,56.7c-.05.26-.23.53-.51.45.1-.22.31-.33.51-.45"/>
    <path class="cls-6" d="M59.63,41.23c-.06.01-.12.02-.19.03.07,0,.13-.02.19-.03"/>
    <path class="cls-6" d="M59.42,41.27c-.13.01-.28.01-.43,0,.15,0,.3.01.43,0"/>
    <path class="cls-6" d="M58.99,41.27s-.05,0-.07,0c.02,0,.05,0,.07,0"/>
    <path class="cls-6" d="M58.91,41.26s-.05,0-.07,0c.02,0,.05,0,.07,0"/>
    <path class="cls-6" d="M58.83,41.26s-.05,0-.07,0c.02,0,.05,0,.07,0"/>
    <path class="cls-6" d="M58.75,41.25h-.11s.11,0,.11,0"/>
    <path class="cls-6" d="M58.53,41.23s.05,0,.07,0c-.02,0-.05,0-.07,0"/>
    <path class="cls-6" d="M58.49,41.23s-.05,0-.07,0c.02,0,.05,0,.07,0"/>
    <path class="cls-6" d="M57.77,42.86c.14.1.28-.04.31-.17-.08-.05-.19-.04-.26.03,0,0,0,0-.01.01,0,0,0,0,0,.01,0,.01-.01.02-.02.04,0,.02-.01.05,0,.08h0ZM58.21,43.44c.13.01.2-.03.21-.14-.03,0-.04-.03-.04-.07-.19-.01-.22.06-.17.21h0ZM59.75,41.45c0,.53-.02.96-.05,1.39,0,.03,0,.05,0,.08,0,.01,0,.03,0,.04,0,.04,0,.08-.01.12,0,.01,0,.03,0,.04,0,.02,0,.05,0,.08,0,.03,0,.05,0,.08-.01.12-.02.25-.03.37v.04s-.01.06-.01.08c0,.03,0,.06,0,.09,0,.03,0,.06,0,.09,0,.02,0,.03,0,.05,0,.03,0,.06,0,.09,0,.03,0,.06,0,.09,0,.05,0,.09,0,.14-.8.04-1.81-.08-2.7.04-.5.06-1,.2-1.51.28-1,.15-1.9.5-2.87.69-1.93.38-3.69,1.13-5.2,1.92h0c1.82-2.36,5.02-4.52,8.73-5.36.55-.12,1.08-.36,1.57-.41.82-.09,1.4.07,2.15-.04"/>
    <path class="cls-6" d="M58.41,41.22s-.05,0-.07,0c.02,0,.05,0,.07,0"/>
    <path class="cls-6" d="M58.34,41.22h-.07s.07,0,.07,0"/>
    <path class="cls-1" d="M58.42,43.31c0,.11-.08.15-.21.14-.04-.15-.01-.22.17-.21,0,.04,0,.06.04.07"/>
    <path class="cls-1" d="M58.32,39.77c-.08.07-.15-.08-.24-.1,0-.09-.01-.2.04-.24h.14c.02.12.08.2.07.34"/>
    <path class="cls-6" d="M58.26,41.21h-.07s.07,0,.07,0"/>
    <path class="cls-1" d="M57.82,42.72c.07-.07.18-.08.26-.03-.02.13-.17.27-.31.17,0-.03,0-.06,0-.08,0-.01.01-.02.02-.04,0,0,0,0,0-.01s0,0,.01-.01"/>
    <path class="cls-1" d="M57.6,39.8c.19-.11.4.18.31.34-.07-.04-.14-.08-.2-.13-.01-.01-.03-.03-.04-.04-.01-.01-.02-.02-.02-.04-.02-.04-.04-.08-.05-.13"/>
    <path class="cls-6" d="M66.91,58.45c.26,0,.25-.43.28-.55,0-.02-.03-.04-.07-.04-.13.12-.28.37-.2.58h0ZM66.6,52.37c-.11.22.14.47.34.38-.1-.14-.14-.34-.34-.38ZM59.79,57.73c.19.17.42-.1.44-.31-.19.06-.32.18-.44.31ZM59.07,57.14c.28.09.47-.19.51-.45-.2.12-.41.23-.51.45ZM67.18,51.82c-.04.28.21.72.51.65-.2-.19-.24-.53-.51-.65ZM67.45,58.93c.22.04.33-.47.14-.52-.02.18-.22.34-.14.52ZM69.88,35.58c.58.43,1.61.8,1.47,1.89-.04.31-.26.7-.41,1.03-.16.35-.28.72-.38,1.06-.21.77-.47,1.56-.62,2.27-.19.97-.26,1.99-.38,2.99-.23,2.07-.34,4.01-.04,6.15.41,2.9,1.03,5.65,1.98,8.03.64,1.61,1.56,2.84,2.29,4.36-.53.71-1.61.76-2.84.69-1.42-.08-2.72-.53-3.73-1.1-1.49-.84-2.48-2.03-3.18-3.67-.38-.9-.84-1.86-.92-2.88-.05-.59.16-1.13.14-1.72-.19.25-.28.69-.34,1.07-.18,1.14.45,2.49.89,3.53.42.98.92,1.78,1.61,2.51.77.81,1.73,1.39,2.87,1.85,1.26.52,3.4.9,4.93.41,2.04,1.84,4.99,2.78,8.08,3.57-.69.4-1.98.19-2.67.58.15.3.5.28.79.41.38.19.7.55,1.27.62-1.04.13-2.72-.35-3.8-.65-1.09-.31-2.15-.64-3.22-1-1.87-.61-3.21-1.65-4.76-2.68-.28-.19-.5-.43-.79-.45-.62-.05-1.5.3-2.05.31.03.96.02,1.94.1,2.89.04.46,0,.96.1,1.37.18.73,1.01,1.05,1.34,1.61-.45-.14-.96-.5-1.47-.69-.33.53-.58,1.16-.92,1.68,0-.54.31-1.24.34-1.75-.23,0-.47.15-.65.28-.54.38-1.12.85-1.78,1.13.75-.63,1.6-1.16,2.29-1.85-.07-.43-.14-.9-.2-1.34-.16-1.16-.1-2.43-.41-3.5-.58.16-1.55-.03-2.02.04-.5,1.75-.79,3.71-1.27,5.5-.79.52-1.63,1-2.6,1.34.44-.66,1.22-.98,1.78-1.51-.22-.2-.53,0-.82.04-.67.09-1.51-.03-2.23.04.61-.2,1.45-.4,2.15-.52.25-.04.53.02.68-.14-.26-.27-.78-.23-1.23-.34-.31-.07-.61-.27-.96-.2.84-.26,1.95.15,2.6.52.22-.4.16-.87.24-1.3.02-.11.04-.21.07-.31l.02-.09s0-.03.01-.04c.01-.05.02-.09.04-.13,0-.03.02-.06.02-.09.07-.25.13-.51.18-.77.15-.79.28-1.55.41-2.3-.67-.38-1.31-.79-1.88-1.31-1.13-1.03-1.82-2.29-2.29-4.09-.76-2.91-.54-6.63.1-9.68.39,3.78,5.59,3.73,7.66,1.54.52-.54,1.01-1.34,1.27-2.27.13-.49.33-.98.38-1.41.21-2.02.35-3.95.89-5.74.18-.6.26-1.23.44-1.79.25-.78.83-1.61.82-2.37-.01-.74-.63-1.07-1.03-1.44-.22-.86-.86-1.45-1.71-1.61-1.18-.23-2.12.64-2.57,1.41,0-.43-.22-.63-.34-.93.66-.21,1.33-.35,1.95-.52.18-.79.41-1.54.75-2.16.21.33-.02,1.21.38,1.44.16-.14.22-.37.31-.55.27-.57.57-1.13,1.13-1.44-.17.8-.29,2.1.17,2.81.15.22.47.45.79.69.27.21.51.51.75.69"/>
    <path class="cls-1" d="M57.67,39.97s.02.03.04.04c-.01-.01-.03-.03-.04-.04"/>
    <path class="cls-1" d="M57.65,39.94s.02.02.02.04c-.01-.01-.02-.02-.02-.04"/>
    <path class="cls-6" d="M45.04,49.59c-.44.02-.43-.99-.38-1.37.21-1.64,1.07-3.28,1.95-4.4.97-1.22,1.86-2.49,2.94-3.37-.25.64.35.87.86,1.03-.04.74-.92.92-.72,1.68.15.13.48.07.65.17-.04.3-.23.46-.17.86-.49.38-.97.77-1.43,1.18-.03.02-.06.05-.09.08l-.08.08s-.06.05-.08.08c-.03.03-.06.05-.08.08-.01.01-.03.03-.04.04-.04.04-.08.08-.13.12-.08.08-.17.16-.25.25-.19.2-.39.4-.58.61-.59.65-1.12,1.42-1.71,2.23-.12.17-.57.65-.65.65"/>
    <path class="cls-6" d="M48.66,45.45s.06-.05.09-.08c-.03.02-.06.05-.09.08"/>
    <path class="cls-6" d="M48.49,45.61s.06-.05.08-.08c-.03.03-.06.05-.08.08"/>
    <path class="cls-6" d="M48.41,45.69s.06-.05.08-.08c-.03.03-.06.05-.08.08"/>
    <path class="cls-6" d="M48.24,45.85s.08-.08.13-.12c-.04.04-.08.08-.13.12"/>
    <path class="cls-6" d="M48.24,45.85c-.08.08-.17.16-.25.25.08-.08.17-.17.25-.25"/>
    <path class="cls-6" d="M47.3,47.25s-.02.02-.03.04c0-.02,0-.04.03-.04"/>
    <path class="cls-3" d="M65.39,36.19c0,.28-.23.5-.5.5s-.5-.23-.5-.5.23-.5.5-.5.5.23.5.5"/>
    <path class="cls-3" d="M62.16,35.81c0,.28-.23.5-.5.5s-.5-.23-.5-.5.23-.5.5-.5.5.23.5.5"/>
  </g>
</svg>