<?xml version="1.0" encoding="UTF-8"?>
<svg id="sw-js-blob-svg" xmlns="http://www.w3.org/2000/svg" xmlns:xlink="http://www.w3.org/1999/xlink" viewBox="0 0 89.33 78.11">
  <defs>
    <style>
      .cls-1, .cls-2 {
        opacity: .5;
      }

      .cls-1, .cls-3, .cls-4, .cls-5, .cls-6, .cls-7 {
        stroke-width: 0px;
      }

      .cls-1, .cls-6 {
        fill: #ff936c;
      }

      .cls-8 {
        clip-path: url(#clippath-2);
      }

      .cls-3 {
        fill: none;
      }

      .cls-9 {
        clip-path: url(#clippath-1);
      }

      .cls-10 {
        clip-path: url(#clippath-4);
      }

      .cls-4 {
        fill: #ffce89;
      }

      .cls-5 {
        fill: #fff;
      }

      .cls-11 {
        clip-path: url(#clippath);
      }

      .cls-12 {
        clip-path: url(#clippath-3);
      }

      .cls-7 {
        fill: #1d1d1d;
      }
    </style>
    <clipPath id="clippath">
      <rect class="cls-3" x="72.53" y="27.03" width="16.8" height="24.18"/>
    </clipPath>
    <clipPath id="clippath-1">
      <rect class="cls-3" x="54.06" y="27.21" width="18.49" height="25.49"/>
    </clipPath>
    <clipPath id="clippath-2">
      <rect class="cls-3" x="4.24" y="5.08" width="5.52" height="4.68"/>
    </clipPath>
    <clipPath id="clippath-3">
      <rect class="cls-3" x="63.92" y="70.86" width="10.46" height="6.02"/>
    </clipPath>
    <clipPath id="clippath-4">
      <rect class="cls-3" x="63.33" y="71.58" width="1.1" height="1.29"/>
    </clipPath>
  </defs>
  <path class="cls-4" d="M65.85,14.17c7,6.1,14,12.1,15.7,19.2,1.6,7.2-2.1,15.6-7.3,22-5.2,6.3-11.8,10.5-19.7,15-7.9,4.5-17,9.4-23.9,7.2-6.9-2.1-11.5-11.3-16.6-20.2-5.1-8.9-10.6-17.5-10.2-26,.3-8.5,6.6-16.9,14.4-22.9C26.05,2.57,35.35-1.03,43.55.27c8.2,1.4,15.3,7.8,22.3,13.9Z"/>
  <g id="Layer_1-2" data-name="Layer 1-2">
    <path class="cls-5" d="M84.8,39.34c.06.25.45.06.52-.03-.07-.4-.34-.04-.52.03ZM84.56,38.97c.23.08.25-.12.43-.09,0-.35-.4-.13-.43.09ZM88.82,35.14c.18,1.16-.46,2.38-.88,3.56-.37,1.04-.45,2.13-.75,3.25-1.91-.29-3.87-.54-5.67-.92.34-2.53.82-4.88,1.39-7.12,1.95.53,3.95.75,5.92,1.23"/>
    <path class="cls-5" d="M85.99,27.52c1.66.13,2.9,1.46,2.46,3.19-.58,2.3-3.3,3.59-5.87,2.83.02-.11.04-.21.07-.3,0-.03.02-.05.03-.08.02-.05.04-.1.06-.15.04-.11.1-.21.14-.32.15.02.31.04.46.06,1.48-.36,3.1-1.22,3.72-2.58.39.11.14.73.61.79.05-.65-.44-1.5-.97-1.63-.35-.09-1.13.06-1.49.23-.16.08-.26.27-.42.37-.13.08-.31.09-.45.18-1.05.63-1.7,2.06-2.17,3.35-.65-.11-1.43-.25-2.09-.37.06-.34.13-.69.19-1.04.21.09.13.4.42.42.07-.07.18-.09.18-.26.22.04.05.38.38.33.42-1.53,1.16-3.13,2.37-4.12.55-.46,1.5-.94,2.37-.87h0ZM84.76,33.02c.7,0,1.42-.43,1.74-1.09-.27.17-.52.37-.74.61-.31.2-.78.18-1,.48"/>
    <g class="cls-11">
      <path class="cls-7" d="M86.7,29.31c.52.13,1.02.98.97,1.63-.47-.05-.21-.67-.61-.79-.62,1.37-2.24,2.22-3.72,2.58-.15-.02-.31-.04-.46-.06-.05.11-.1.21-.14.32-.02.05-.04.1-.06.15,0,.03-.02.05-.03.08-.03.09-.05.19-.07.3,2.57.76,5.29-.52,5.87-2.83.43-1.73-.8-3.06-2.46-3.19-.87-.07-1.82.41-2.37.87-1.2.99-1.95,2.59-2.37,4.12-.33.05-.16-.3-.38-.33,0,.17-.1.19-.18.26-.3-.02-.21-.33-.42-.42.03-.15.06-.3.09-.45.22.06.42.24.72.12.63-2.08,2.14-4.09,4.07-4.56,2.22-.54,3.95,1.35,3.85,3.04-.13,2.13-1.98,3.23-3.41,3.85,1.06.35,2.64.3,3.58.74.47,1.06-.09,1.94-.43,2.96-.19.58-.35,1.18-.51,1.77-.34,1.22-.51,2.57-.9,3.7-.38,1.1-.67,2.31-1.01,3.5-.46,1.57-1.02,3.03-1.09,4.43-.41.22-.85-.04-1.26-.11-1.15-.2-2.37-.38-3.55-.55-.98-.14-1.89-.33-2.87-.42-1.74-.15-3.41-.53-5-.97.24-.1.48-.2.72-.31.9.25,1.8.48,2.86.67.43-1.96.66-3.81.96-5.67-.97-.16-2.08-.3-3.17-.45-.01-.09-.03-.17-.04-.26,1.07.15,2.18.24,3.29.43.19-.8.57-1.86.44-2.72-1.3-.15-2.75-.24-4.19-.41-.02-.1-.03-.19-.05-.29,1.45.19,2.94.29,4.32.42.16-1.73.42-3.32.72-4.9h.22s0,.01.01.01c-.39,2.16-.48,4.41-.88,6.6-.46,2.48-.97,4.89-1.31,7.27,1.01.21,2.2.17,3.15.4,1.23-5.55,1.79-10.87,3-16.01-.88-.21-1.68-.36-2.56-.5.02-.1.03-.2.05-.3.66.12,1.44.26,2.09.37.47-1.29,1.13-2.72,2.17-3.35.14-.08.31-.1.45-.18.16-.1.26-.3.42-.37.37-.17,1.14-.32,1.49-.23h0ZM87.94,38.7c.42-1.18,1.06-2.4.88-3.56-1.96-.48-3.97-.71-5.92-1.23-.57,2.24-1.05,4.59-1.39,7.12,1.8.38,3.76.63,5.67.92.3-1.12.37-2.21.75-3.25h0ZM87.1,42.27c-1.86-.35-3.85-.61-5.67-.97-.12.83-.31,1.66-.44,2.72,1.62.29,3.67.65,5.34.92.11-.47.28-1.01.44-1.56.02-.06.04-.12.05-.17,0-.03.02-.06.03-.09.06-.2.12-.41.18-.61,0-.03.02-.06.02-.09.02-.06.03-.11.04-.17h0ZM86.43,30.64c.13-.19.36-.74.11-.88-1.66.14-2.64,1.16-3.34,2.54.98-.21,2.66-.8,3.23-1.66h0ZM84.8,50.69c.36-1.88.97-3.56,1.45-5.42-1.72-.41-3.48-.55-5.29-.96-.42,1.9-.6,3.79-1.05,5.61,1.7.25,3.52.53,4.89.77"/>
    </g>
    <path class="cls-5" d="M81.44,41.3c1.81.36,3.81.61,5.67.97-.01.06-.03.11-.04.17,0,.03-.02.06-.02.09-.06.2-.12.4-.18.61,0,.03-.02.06-.03.09-.02.06-.04.12-.05.17-.17.55-.34,1.09-.44,1.56-1.67-.27-3.72-.63-5.34-.92.13-1.06.32-1.9.44-2.72"/>
    <path class="cls-5" d="M86.25,45.27c-.48,1.86-1.09,3.54-1.45,5.42-1.37-.24-3.19-.52-4.89-.77.45-1.82.63-3.72,1.05-5.61,1.81.41,3.57.55,5.29.96"/>
    <path class="cls-7" d="M84.56,38.97c.04-.22.43-.44.43-.09-.19-.03-.21.16-.43.09"/>
    <path class="cls-5" d="M82.73,33c-.02.05-.04.1-.06.15.02-.05.04-.1.06-.15"/>
    <path class="cls-5" d="M82.67,33.15s-.02.05-.03.08c0-.03.02-.05.03-.08"/>
    <path class="cls-5" d="M78.26,23.45c0-.07-.03-.11-.05-.14-.04-.04-.1-.04-.15-.02h0s-.03.02-.04.03c0,0,0,0-.01,0,0,0-.01,0-.02.01,0,0-.02.01-.02.02,0,0,0,0,0,0-.06.06-.11.14-.11.22.23.05.23-.14.42-.13h0ZM78.63,23.83c-.11-.38-.34,0-.52.09.09.25.46.01.52-.09ZM81.63,19.29c.31,1.13-.18,2.42-.47,3.64-.25,1.08-.2,2.17-.37,3.31-1.09-.04-2.19-.06-3.27-.11-.24-.19-.5-.36-.76-.45-.62-.24-1.21-.11-1.71.21.05-2.52.25-4.88.56-7.14,1.99.3,4.01.29,6.02.55"/>
    <path class="cls-5" d="M82.58,33.87c-1.21,5.13-1.77,10.45-3,16.01-.95-.24-2.14-.19-3.15-.4.34-2.39.85-4.8,1.31-7.27.4-2.18.49-4.43.88-6.6.41.03.87.23,1.25-.03-.05-.7.03-1.44.15-2.2.88.14,1.68.29,2.56.5"/>
    <path class="cls-5" d="M80.75,14.93c.06-.43.02-.83-.1-1.18.12.35.15.75.1,1.18,0,.05-.01.1-.02.14,0-.05.02-.1.02-.14"/>
    <path class="cls-5" d="M80.73,15.07s-.02.1-.03.14c0-.05.02-.1.03-.14"/>
    <path class="cls-5" d="M80.7,15.22c-.01.06-.03.13-.04.19.02-.06.03-.13.04-.19"/>
    <path class="cls-5" d="M80.66,15.4c-.02.08-.04.15-.07.23.03-.08.05-.15.07-.23"/>
    <path class="cls-5" d="M80.56,13.51c.04.08.06.16.09.24-.03-.08-.06-.16-.09-.24"/>
    <path class="cls-5" d="M80.57,15.68s-.03.09-.05.13c.02-.04.04-.09.05-.13"/>
    <path class="cls-5" d="M80.74,26.56c-.13.92-.37,1.94-.46,2.75-.27-.01-.55-.03-.84-.04-.19-.77-.44-1.51-.9-2.09-.19-.24-.43-.52-.69-.77.97.04,1.95.08,2.89.15"/>
    <path class="cls-5" d="M80.46,15.94s-.03.06-.04.09c.01-.03.03-.06.04-.09"/>
    <path class="cls-5" d="M80.4,16.07s-.03.06-.04.08c.02-.03.03-.06.04-.08"/>
    <path class="cls-5" d="M80.31,16.24s-.03.05-.05.08c.02-.03.03-.05.05-.08"/>
    <path class="cls-7" d="M80.35,31.57c-.03.15-.06.3-.09.45-.01,0-.03,0-.04-.01-.3,0-.06.37-.33.38-.04-.01-.08-.03-.11-.05.05-.3.1-.61.16-.91.02.06.04.12.05.18.13-.07.25-.06.35-.03"/>
    <path class="cls-5" d="M79.79,32.34s.07.04.11.05c.27-.01.03-.38.33-.38.01,0,.03,0,.04.01-.07.35-.13.7-.19,1.04-.14-.03-.27-.05-.39-.07.04-.22.07-.44.11-.65"/>
    <path class="cls-5" d="M80.24,16.36s-.03.05-.05.08c.02-.03.03-.05.05-.08"/>
    <path class="cls-7" d="M80.08,33.07c-.02.1-.04.2-.05.3-.13-.02-.26-.04-.39-.06.02-.11.03-.21.05-.31.13.02.26.04.39.07"/>
    <path class="cls-5" d="M80.23,29.64c-.09.61-.19,1.2-.29,1.79-.17-.58-.29-1.23-.44-1.86.24.02.48.04.72.07"/>
    <path class="cls-5" d="M80.03,33.37c-.12.76-.2,1.5-.15,2.2-.38.26-.84.06-1.25.03.03-.15.05-.3.09-.45.24.01.48.03.7.04.05-.64.13-1.27.22-1.88.13.02.26.04.39.06"/>
    <path class="cls-7" d="M79.95,31.43c-.05.3-.11.61-.16.91-.27-.17-.14-.49-.21-.74-.05-.16-.18-.29-.22-.45-.13-.51-.2-1.08-.31-1.61.16,0,.31.02.47.04.15.63.27,1.28.43,1.86"/>
    <path class="cls-7" d="M77.4,14.14c.34-.21,1.1-.45,1.45-.4.53.07,1.13.86,1.15,1.51-.47,0-.29-.64-.69-.71-.46,1.43-1.98,2.46-3.4,2.99h-.47c-.09.27-.19.52-.2.88,2.02.35,3.99-.49,4.95-1.97.02-.03.03-.05.05-.08,0-.01.02-.03.03-.04.02-.03.03-.05.05-.08s.03-.05.04-.08c.01-.03.03-.06.04-.08,0-.01.01-.03.02-.04.01-.03.03-.06.04-.09.02-.04.04-.09.06-.13s.04-.09.05-.13l.02-.04c.03-.08.05-.15.07-.23.02-.06.03-.13.04-.19,0-.05.02-.1.03-.14,0-.05.02-.1.02-.14.06-.43.02-.83-.1-1.18-.03-.08-.06-.16-.09-.24-.02-.04-.04-.08-.05-.11,0,0,0-.02-.02-.03-.01-.03-.03-.05-.04-.08-.02-.03-.03-.05-.05-.08-.01-.02-.02-.04-.03-.05t0,0s-.04-.05-.05-.07h0l-.04-.05s-.03-.03-.04-.05c-.04-.05-.09-.11-.14-.16-.53-.53-1.3-.82-2.15-.79-.88.03-1.76.62-2.26,1.14-1.08,1.13-1.64,2.8-1.88,4.37-.1.03-.16,0-.2-.03,0,0,0,0,0,0,0,0-.01-.01-.02-.02,0,0,0,0,0-.01s0,0,0-.01c0,0,0,0,0-.01,0-.01,0-.02-.02-.04,0,0,0-.01,0-.02,0,0,0,0,0,0,0,0,0,0,0-.01-.01-.03-.03-.05-.04-.07,0,0,0,0,0,0-.02-.02-.05-.04-.1-.04,0,.04,0,.08,0,.11v.02s-.01,0-.01.02c0,0,0,.01-.01.02,0,0,0,0,0,.01,0,0-.01.01-.02.02s-.01.01-.02.02h0s0,0-.01.01,0,0-.01.01c0,0,0,0-.01.01,0,0-.02.02-.03.03-.31.01-.25-.34-.51-.38-.3.03-.02.37-.29.42-.43-.09-.3-.48-.41-.75-.06-.15-.21-.27-.27-.42-.23-.58-.36-1.24-.58-1.83-.38-1-.89-1.65-1.74-2.26-.3-.21-.66-.53-.97-.62-1.37-.39-2.2,1.16-2.23,2.26-.07,2.87,2.66,3.74,5.22,4.09.04-.47-.12-.74-.27-1.03-.08,0-.16,0-.23,0-.85-.75-1.7-1.51-2.11-2.69v-.47c-.34-.03-.64,0-.79.18-.12.64.36.94.26,1.4-.62-.11-.75-1.51-.26-1.82.84-.31,1.46.21,1.9.72.39.45.71,1.14,1.1,1.79.39.65.76,1.38.77,2.07.74.04,2.01.12,2.99.18.32-1.34.81-2.83,1.77-3.58.13-.1.3-.13.42-.23.15-.12.23-.32.38-.42h0ZM81.91,18.87c.59,1,.13,1.94-.08,2.99-.12.6-.21,1.22-.3,1.82-.2,1.25-.21,2.61-.47,3.78-.25,1.14-.4,2.38-.61,3.59-.03.18-.06.35-.09.53-.11-.03-.22-.04-.36.03-.02-.06-.04-.12-.05-.18.1-.59.2-1.18.29-1.79-.24-.03-.48-.05-.72-.07-.02-.1-.04-.2-.07-.3.29.01.57.03.84.04.09-.81.33-1.83.46-2.75-.94-.07-1.92-.11-2.89-.15-.11-.1-.21-.19-.33-.28,1.08.04,2.18.07,3.27.11.17-1.14.12-2.24.37-3.31.28-1.22.78-2.51.47-3.64-2-.25-4.02-.25-6.02-.55-.3,2.26-.51,4.62-.56,7.14-.11.07-.22.15-.32.25.13-2.5.27-4.96.55-7.39-1.16-.15-2.19-.2-3.41-.23-.64,2.93-.24,6.02-.44,9.06-.09,1.34-.2,2.66-.29,3.97-.09-.02-.19-.03-.29-.02.03-.78.05-1.55.09-2.32-.58-.03-1.21-.04-1.86-.06,0-.09,0-.17-.02-.26.64,0,1.28,0,1.93.04.1-.82.35-1.91.13-2.75-1.2,0-2.53.06-3.86.07-.48-.21-1.02-.25-1.54-.02-.29,0-.57-.03-.86-.04,0,.22.02.45.03.66-.12.12-.22.25-.33.38-.11-1.26-.22-2.5-.37-3.62-.16-1.27-.48-2.58-.37-3.84.03-.37.11-1.36.3-1.68.68-1.09,3.17.08,4.44-.32-1.5-.51-2.97-1.99-2.75-4.05.14-1.31,1.25-2.82,2.74-2.44.71.18,1.47.79,1.94,1.29,1.05,1.08,1.35,2.88,1.95,4.23.38-.25.65.19,1.07-.03.39-2.14,1.66-4.31,3.52-5,2.15-.79,4.08.89,4.17,2.58.12,2.13-1.6,3.44-2.95,4.21,1.1.22,2.65,0,3.64.33h0ZM78.74,15.09c.11-.21.27-.78.01-.89-1.63.33-2.49,1.45-3.03,2.9.95-.32,2.55-1.09,3.01-2.02ZM71.51,18.5c-.08,0-.17-.01-.26-.02-.14-.01-.29-.02-.44-.04-.03,0-.06,0-.09,0-.06,0-.12,0-.18-.01-.15-.01-.31-.02-.46-.04-.06,0-.13,0-.19-.01-1.45-.1-3.01-.2-4.2-.28-.23-.02-.86-.04-1.08.13-.27.21-.35,1.11-.39,1.58-.17,1.95.62,4.12.67,6.04,2.07.21,4.29.07,6.3.03-.06-2.6.14-4.92.33-7.38ZM70.55,16.2c-.25-.6-.82-1.54-1.33-1.89.24.82.83,1.31,1.33,1.89"/>
    <path class="cls-5" d="M79.35,31.15c.04.16.18.3.22.45.08.25-.06.58.21.74-.04.22-.07.44-.11.65-.17-.03-.32-.06-.46-.08.07-.69-.21-1.45-.53-2.14-.2-.44-.37-.89-.55-1.29.3.01.6.03.9.05.11.53.17,1.1.31,1.61"/>
    <path class="cls-7" d="M79.44,29.27c.03.1.05.2.07.3-.15-.01-.31-.03-.47-.04-.02-.09-.04-.18-.06-.27h0c.15,0,.31,0,.46.01"/>
    <path class="cls-5" d="M79.64,33.31c-.09.62-.17,1.24-.22,1.88-.22-.01-.46-.03-.7-.04.13-.64.3-1.28.51-1.9.14.02.28.04.41.06"/>
    <path class="cls-7" d="M79.44,29.27c-.15,0-.31-.02-.46-.02-.26-1.03-.7-1.73-1.47-2.44-.14-.13-.3-.29-.46-.43.27.01.53.03.8.04.27.25.51.52.69.77.45.59.71,1.33.9,2.09"/>
    <path class="cls-5" d="M78.98,29.26c.02.09.04.18.06.27-.3-.02-.6-.04-.9-.05-.04-.1-.09-.2-.14-.29.33.02.66.04.98.05h0"/>
    <path class="cls-7" d="M78.96,16.35c-.13.36-.36.67-.66.9-.02.01-.04.03-.05.04-.03.02-.06.04-.08.06-.04.03-.08.05-.12.07,0,0-.02,0-.03.02-.03.02-.06.03-.09.04s-.06.03-.09.04c-.02,0-.04.02-.06.03-.05.02-.11.04-.16.05-.02,0-.04.01-.06.02s-.04,0-.06.01c-.04,0-.09.02-.13.02.19-.33.66-.37.94-.6.18-.27.41-.49.66-.69"/>
    <path class="cls-5" d="M78.72,31.68c.11.3.24.6.15,1.05-1.59-.41-3.23-1.03-4.1-2.15.03-.43.06-.86.11-1.29.27.03.54.05.8.07.07.21.19.36.37.41.04-.13.04-.26,0-.39.29.02.58.03.87.04.36.86.96,1.54,1.57,2.21.08,0,.15.02.23.03"/>
    <path class="cls-7" d="M78.69,30.78c.31.69.59,1.45.53,2.14.14.02.3.05.46.08-.02.1-.03.21-.05.31-.13-.02-.27-.04-.41-.06-.21.62-.38,1.26-.51,1.9-.08,0-.16,0-.23-.01.12-.64.25-1.29.37-1.94-1.26-.25-2.81-.54-4.18-.79,0-.13.01-.26.02-.4.49.11.96.18,1.34.11-.47-.22-.92-.54-1.3-.95,0-.2.02-.4.04-.6.88,1.13,2.51,1.74,4.1,2.15.09-.46-.04-.75-.15-1.05-.08,0-.15-.02-.23-.03-.61-.67-1.21-1.35-1.57-2.21.12,0,.24,0,.36.02.23.5.59.91.89,1.36-.11-.38-.32-.9-.58-1.34.18,0,.37.01.55.02.18.4.35.86.55,1.29"/>
    <path class="cls-7" d="M78.72,35.15c-.03.15-.06.3-.09.45h-.01c-.07,0-.14,0-.22-.01.03-.15.06-.3.08-.45.08,0,.16,0,.23.01"/>
    <path class="cls-5" d="M78.85,33.2c-.13.65-.25,1.3-.37,1.94-1.23-.06-2.66-.12-4.01-.15.11-.85.16-1.71.2-2.57,1.38.25,2.92.53,4.18.79"/>
    <path class="cls-7" d="M78.11,23.91c.17-.08.4-.47.52-.09-.06.1-.42.33-.52.09"/>
    <path class="cls-5" d="M78.48,35.14c-.03.15-.06.3-.08.45-1.1-.06-2.25-.09-3.37-.13-.79-.03-1.53-.08-2.3-.09-.02-.14-.03-.28-.05-.42.51-.02,1.01-.02,1.47.04.09-.88.17-1.75.23-2.62.1.02.2.04.3.05-.04.87-.09,1.72-.2,2.57,1.36.04,2.79.09,4.01.15"/>
    <path class="cls-7" d="M78.21,23.31s.04.07.05.14c-.19,0-.19.18-.42.13,0-.08.05-.16.11-.22h0s.01-.02.02-.03c0,0,.01,0,.02-.01,0,0,0,0,.01,0,.01,0,.03-.02.04-.02h0c.06-.03.11-.03.15.01"/>
    <path class="cls-7" d="M78,29.2c.05.09.1.19.14.29-.18,0-.37-.02-.55-.02-.06-.11-.13-.21-.19-.3l.6.03"/>
    <path class="cls-7" d="M77.52,26.13c.11.09.22.18.33.28-.27-.01-.54-.02-.8-.04-.14-.12-.28-.23-.42-.29.3.02.6.03.9.04"/>
    <path class="cls-5" d="M77.59,29.46c.26.44.47.96.58,1.34-.3-.45-.66-.86-.89-1.36.1,0,.21,0,.31.01"/>
    <path class="cls-5" d="M77.6,40.77c.13.86-.25,1.92-.44,2.72-1.11-.19-2.23-.28-3.29-.43-.15-.89-.3-1.81-.45-2.7,1.44.16,2.9.26,4.19.41"/>
    <path class="cls-7" d="M77.59,29.46c-.1,0-.21,0-.31-.01-.04-.1-.09-.2-.12-.3.08,0,.16,0,.24.01.07.09.13.19.19.3"/>
    <path class="cls-5" d="M77.34,28.31s.04.04.06.06c-.02-.02-.04-.04-.06-.06"/>
    <path class="cls-5" d="M77.4,29.16c-.08,0-.16,0-.24-.01-.04-.12-.07-.24-.09-.37.11.1.23.23.33.38"/>
    <path class="cls-7" d="M77.16,29.15c.04.11.07.21.12.3-.12,0-.24,0-.36-.02-.04-.1-.08-.2-.11-.31.12,0,.23.01.35.02"/>
    <path class="cls-5" d="M77.12,28.13s.03.02.04.03c-.02-.01-.03-.02-.04-.03"/>
    <path class="cls-5" d="M77.05,26.38c.16.14.32.3.46.43.77.71,1.21,1.4,1.47,2.44-.32-.02-.65-.04-.98-.05-.06-.12-.13-.22-.19-.32-.12-.17-.25-.35-.41-.5-.02-.02-.04-.04-.06-.06-.06-.05-.12-.1-.18-.14-.02-.01-.03-.02-.04-.03,0,0-.02,0-.02-.02l-.05-.03c-.29-.17-.63-.26-1.05-.15-.3.15-.44.67-.39,1.12-.25-.02-.5-.03-.73-.04,0-1,.09-1.81.12-2.59.06-.05.12-.1.18-.15.61.04,1.24.08,1.87.11"/>
    <path class="cls-5" d="M77.05,28.09l.05.03-.05-.03"/>
    <path class="cls-5" d="M76.81,29.13c.04.11.07.21.11.31-.29-.01-.58-.03-.87-.04-.02-.1-.06-.2-.09-.31.28.02.56.03.84.05"/>
    <path class="cls-7" d="M77.52,26.13c-.3-.01-.6-.03-.9-.04,0,0,0,0-.01,0-.35-.14-.67-.15-.97-.06-.2-.01-.4-.03-.6-.05,0-.03,0-.06,0-.09.49-.32,1.08-.44,1.71-.21.26.1.52.26.76.45"/>
    <path class="cls-5" d="M77.07,43.76c-.3,1.86-.53,3.71-.96,5.67-1.06-.18-1.96-.42-2.86-.67.41-.18.81-.36,1.21-.54-.03-1.38-.26-3.1-.55-4.9,1.09.15,2.21.28,3.17.45"/>
    <path class="cls-5" d="M76.63,26.09c.14.06.28.17.42.29-.63-.03-1.26-.06-1.87-.11.15-.11.3-.19.47-.24.32.03.65.04.98.06"/>
    <path class="cls-5" d="M76.61,26.08s0,0,.01,0c-.33-.02-.66-.04-.98-.06.29-.09.62-.09.97.06"/>
    <path class="cls-7" d="M76,27.94c.41-.1.76-.02,1.05.15l.05.03s.02,0,.02.02c.02.01.03.02.04.03.06.04.12.09.18.14.02.02.04.04.06.06.16.15.29.33.41.5.07.1.13.21.19.32l-.6-.03c-.11-.15-.22-.29-.33-.38.02.13.05.25.09.37-.12,0-.24-.01-.35-.02-.04-.13-.08-.26-.11-.4.02-.15.04-.31.06-.46-.34-.07-.64-.08-.81.08-.09.29-.04.52.02.72-.12,0-.24-.01-.36-.02-.05-.45.09-.97.39-1.12"/>
    <path class="cls-5" d="M75.95,28.35c.17-.16.47-.15.81-.08-.02.15-.04.31-.06.46.03.14.07.27.11.4-.29-.02-.57-.03-.84-.05-.06-.21-.11-.44-.02-.72"/>
    <path class="cls-7" d="M76.05,29.39c.03.13.04.25,0,.39-.18-.05-.3-.21-.37-.41.13,0,.25.02.38.03"/>
    <path class="cls-7" d="M75.96,29.08c.03.11.07.21.09.31-.13,0-.25-.02-.38-.03-.03-.09-.05-.2-.07-.31.12,0,.24.01.36.02"/>
    <path class="cls-5" d="M74.66,37.28c-.06.22.17.21.35.23.13-.31-.21-.36-.35-.23ZM75.3,36.32c.01.23.31.48.53.3,0-.22-.32-.38-.53-.3ZM78.4,35.59c-.3,1.58-.55,3.17-.72,4.9-1.38-.13-2.87-.23-4.32-.42-.17-1.03-.33-2.03-.45-2.96-.07-.57-.12-1.16-.18-1.74.77,0,1.51.06,2.3.09,1.12.04,2.28.07,3.37.13"/>
    <path class="cls-5" d="M76.03,32.13c-.38.07-.85,0-1.34-.11.01-.28.03-.56.04-.84.38.4.83.73,1.3.95"/>
    <path class="cls-5" d="M75.61,29.06c.01.11.03.21.07.31-.27-.02-.53-.04-.8-.07-.04.43-.08.86-.11,1.29-.09-.12-.17-.24-.25-.37.07-1.17.13-2.32.18-3.47.09-.12.19-.23.3-.33-.03.79-.12,1.59-.12,2.59.24.02.48.03.73.04"/>
    <path class="cls-7" d="M75.83,36.63c-.21.18-.51-.08-.53-.3.21-.07.52.08.53.3"/>
    <path class="cls-7" d="M75.05,25.98c.2.02.39.04.59.05-.17.05-.33.13-.47.24-.06,0-.12,0-.17-.01,0,.05,0,.11,0,.16-.11.1-.21.21-.3.33.01-.21.02-.41.03-.62.1-.09.21-.17.32-.25v.09"/>
    <path class="cls-7" d="M75,26.26c.06,0,.12,0,.17.01-.06.04-.12.09-.18.15,0-.05,0-.11,0-.16"/>
    <path class="cls-7" d="M74.66,37.28c.13-.12.48-.07.35.23-.18-.03-.41-.02-.35-.23"/>
    <path class="cls-5" d="M75.28,18.74c-.29,2.43-.43,4.89-.55,7.39-.48.43-.84,1.06-.97,1.66-.27,1.21.08,2.29.72,3.1-.02.35-.05.71-.07,1.06-1.06-.27-2.18-.63-2.74-.11-.03-.03-.05-.06-.07-.08-.13-.12-.28-.19-.45-.23.09-1.31.2-2.63.29-3.97.21-3.04-.19-6.12.44-9.06,1.22.04,2.24.08,3.41.23"/>
    <path class="cls-7" d="M74.76,30.58c-.01.2-.02.4-.04.6-.09-.09-.17-.19-.25-.3.01-.22.03-.45.04-.67.07.13.16.25.25.37"/>
    <path class="cls-7" d="M74.73,26.13c0,.21-.02.41-.03.62-.3.4-.49.89-.55,1.33-.12.86.03,1.56.37,2.14-.01.22-.03.45-.04.67-.63-.81-.99-1.89-.72-3.1.13-.6.49-1.22.97-1.66"/>
    <path class="cls-7" d="M74.73,31.18c-.01.28-.03.56-.04.84-.09-.02-.19-.04-.29-.07.03-.36.05-.71.07-1.06.08.1.17.2.25.3"/>
    <path class="cls-7" d="M74.69,32.02c0,.13-.01.26-.02.4-.1-.02-.2-.04-.3-.05,0-.14.02-.27.03-.41.1.03.19.05.29.07"/>
    <path class="cls-5" d="M74.7,26.75c-.06,1.14-.12,2.3-.18,3.47-.34-.58-.49-1.29-.37-2.14.06-.44.26-.93.55-1.33"/>
    <path class="cls-7" d="M74.4,31.95c0,.14-.02.27-.03.41-.45-.08-.88-.16-1.27-.23-.23-.04-.85-.14-1.08,0-.04.03-.09.07-.13.13-.08-.17-.16-.31-.23-.42.56-.53,1.68-.16,2.74.11"/>
    <path class="cls-7" d="M73.9,43.31c.29,1.8.53,3.53.55,4.9-.4.18-.8.36-1.21.54-.25-.07-.49-.14-.74-.21.47-.21.96-.42,1.48-.64-.17-1.5-.15-3.18-.5-4.66l.42.06"/>
    <path class="cls-7" d="M73.86,43.06c.01.09.03.17.04.26l-.42-.06c-.02-.09-.04-.18-.07-.26.15.02.29.04.44.06"/>
    <path class="cls-7" d="M73.41,40.36c.15.89.31,1.81.45,2.7-.15-.02-.3-.04-.44-.06-.04-.14-.08-.28-.13-.42-.24.09-.48.18-.74.26-.17-.04-.34-.07-.51-.12.45-.16.87-.33,1.28-.54-.07-.61-.17-1.23-.3-1.87.13.02.25.03.38.04"/>
    <path class="cls-5" d="M73.49,43.26c.35,1.48.32,3.16.5,4.66-.52.22-1,.43-1.48.64-.34-.09-.69-.19-1.05-.29-.04-1.63-.34-3.45-.12-5.05.22-.07.45-.13.67-.2.47.09.97.17,1.48.24"/>
    <path class="cls-5" d="M73.6,17.52s0,0,0,0c0,0,0,0,0,0"/>
    <path class="cls-5" d="M73.59,17.5s.01.02.02.02c0,0-.01-.01-.02-.02"/>
    <path class="cls-5" d="M73.58,17.48s0,0,0,.01c0,0,0,0,0-.01"/>
    <path class="cls-5" d="M73.57,17.47s0,0,0,.01c0,0,0,0,0-.01"/>
    <path class="cls-5" d="M73.57,17.46h0s0,0,0,0"/>
    <path class="cls-5" d="M73.54,17.4s0,.01,0,.02c0,0,0-.01,0-.02"/>
    <path class="cls-5" d="M73.53,17.38s0,0,0,.01c0,0,0,0,0-.01"/>
    <path class="cls-5" d="M73.49,17.31s0,0,0,0c0,0,0,0,0,0"/>
    <path class="cls-5" d="M73.42,42.99c.02.09.04.17.07.26-.51-.07-1.01-.15-1.48-.24.19-.06.37-.12.55-.18.28.06.57.11.86.16"/>
    <path class="cls-5" d="M73.38,17.37s0,.01,0,.02c0,0,0-.01,0-.02"/>
    <path class="cls-5" d="M73.38,17.39s0,0,0,.02c0,0,0-.01,0-.02"/>
    <path class="cls-7" d="M73.36,40.07c.02.09.03.19.05.29-.13-.01-.25-.03-.38-.04-.02-.1-.04-.2-.06-.3.13.02.26.04.39.05"/>
    <path class="cls-5" d="M73.36,17.43s0,0,0,.01c0,0,0,0,0-.01"/>
    <path class="cls-5" d="M73.3,42.58c.05.14.09.28.13.42-.29-.04-.58-.1-.86-.16.26-.08.5-.17.74-.26"/>
    <path class="cls-5" d="M73.33,17.46s-.01.01-.02.02c0,0,.01-.01.02-.02"/>
    <path class="cls-5" d="M73.3,17.49h.01s-.01,0-.01,0"/>
    <path class="cls-5" d="M73.27,17.51s0,0,.01-.01c0,0,0,0-.01.01"/>
    <path class="cls-5" d="M71.2,17c.15.29.3.57.27,1.03-2.57-.35-5.3-1.21-5.22-4.09.03-1.1.86-2.65,2.23-2.26.31.09.68.41.97.62.85.62,1.37,1.26,1.74,2.26.22.59.36,1.25.58,1.83.06.16.21.27.28.42.12.27-.02.66.41.75.26-.04-.02-.38.29-.42.26.04.19.39.51.38,0,0,.02-.02.03-.03,0,0,0,0,.01-.01s0,0,.01-.01h.01s.01-.02.02-.03c0,0,.01-.01.02-.02,0,0,0,0,0-.01,0,0,0-.01.01-.02,0,0,0-.01,0-.02v-.02s.02-.06.01-.11c.04,0,.07.02.1.04,0,0,0,0,0,0,.02.02.03.04.04.07,0,0,0,0,0,.01,0,0,0,0,0,0,0,0,0,.01,0,.02,0,.01,0,.02.02.04h0s0,.02,0,.03,0,0,0,.01c0,0,.01.02.02.02,0,0,0,0,0,0,.04.04.09.05.2.03.24-1.57.8-3.24,1.88-4.37.5-.52,1.38-1.11,2.26-1.14.85-.03,1.62.26,2.15.79.05.05.1.1.14.16.01.02.03.03.04.05l.04.05s.04.05.05.08h0l.04.05s.03.05.05.08c.02.03.03.05.04.08,0,0,0,.02.02.03.02.04.04.07.05.11.04.08.07.16.09.24.12.35.15.75.1,1.18,0,.05-.01.1-.02.14,0,.05-.02.1-.03.14-.01.06-.03.13-.04.19-.02.08-.04.15-.07.23l-.02.04s-.03.09-.05.13c-.02.04-.04.09-.06.13-.01.03-.03.06-.04.09,0,.01-.01.03-.02.04-.01.03-.03.06-.04.08-.02.03-.03.06-.04.08s-.03.05-.05.08l-.03.04s-.03.05-.05.08c-.95,1.47-2.93,2.32-4.95,1.97,0-.36.11-.61.2-.89h.47c1.42-.52,2.94-1.56,3.4-2.99.4.07.22.71.69.71-.02-.65-.61-1.44-1.15-1.51-.36-.05-1.11.19-1.45.4-.15.09-.23.3-.38.42-.12.1-.3.13-.42.23-.97.75-1.45,2.24-1.77,3.58-.98-.05-2.24-.14-2.99-.18,0-.69-.38-1.41-.77-2.07-.39-.65-.71-1.34-1.1-1.79-.45-.51-1.07-1.04-1.9-.72-.5.31-.37,1.72.26,1.82.1-.47-.38-.76-.26-1.4.15-.18.45-.2.8-.18v.47c.41,1.18,1.25,1.94,2.11,2.69.08,0,.16,0,.23,0h0ZM78.3,17.25c.3-.23.53-.54.66-.89-.25.2-.48.42-.66.69-.28.23-.76.27-.94.6.04,0,.09-.01.13-.02.02,0,.04,0,.06-.01s.04,0,.06-.02c.05-.01.11-.03.16-.05.02,0,.04-.02.06-.03.03-.01.06-.03.09-.04s.06-.03.09-.04c0,0,.02-.01.03-.02.04-.02.08-.04.12-.07.03-.02.06-.04.08-.06.02-.01.04-.03.05-.04"/>
    <path class="cls-5" d="M73.03,40.31c.13.64.23,1.26.3,1.87-.41.21-.83.38-1.28.54-.25-.06-.5-.14-.75-.22-.02-.72,0-1.47.06-2.26.13-.04.27-.07.4-.11.42.07.84.13,1.26.18"/>
    <path class="cls-5" d="M73.11,32.13c.39.07.82.15,1.27.23-.06.87-.14,1.74-.23,2.62-.46-.06-.96-.05-1.47-.04-.08-.56-.19-1.12-.37-1.64-.08-.22-.23-.67-.41-1.05.04-.06.08-.1.13-.13.23-.14.85-.04,1.08,0"/>
    <path class="cls-5" d="M72.97,40.02c.02.1.04.2.06.3-.42-.05-.85-.11-1.26-.18.22-.06.45-.13.67-.2.18.03.35.06.53.08"/>
    <path class="cls-7" d="M73.36,40.07c-.13-.02-.26-.04-.39-.05-.02-.08-.04-.16-.05-.24-.16.05-.32.11-.48.15-.21-.04-.43-.08-.64-.12.35-.11.69-.23,1.03-.35-.29-1.26-.29-2.71-.46-4.09h.35c.07.58.11,1.17.18,1.74.12.93.28,1.93.45,2.96"/>
    <path class="cls-5" d="M72.92,39.77c.02.08.04.16.05.24-.18-.03-.36-.05-.53-.08.16-.05.32-.1.48-.16"/>
    <path class="cls-7" d="M72.68,34.95c.02.14.04.28.05.42h-.35c-.02-.14-.04-.28-.06-.41.12,0,.24,0,.36-.01"/>
    <path class="cls-5" d="M72.37,35.37c.17,1.38.16,2.83.46,4.09-.34.13-.68.24-1.03.35-.13-.03-.25-.05-.37-.08.12-1.36-.12-2.89-.12-4.35.28,0,.55,0,.83,0,.08,0,.16,0,.24,0"/>
    <path class="cls-7" d="M73.25,48.76c-.24.1-.47.21-.72.31-.25-.07-.49-.14-.74-.21.24-.1.47-.2.71-.31.25.07.5.14.74.21"/>
    <path class="cls-7" d="M72.68,34.95c-.12,0-.24,0-.36.01-.08-.52-.19-1.03-.36-1.51-.07-.19-.16-.46-.28-.71.06-.19.13-.36.22-.48.17.37.33.82.41,1.05.19.52.3,1.08.37,1.64"/>
    <path class="cls-5" d="M72.32,34.96c.02.14.04.27.06.41-.08,0-.16,0-.24,0-.28,0-.55.01-.83,0,0-.14,0-.28,0-.42.33.01.67,0,1.01,0"/>
    <path class="cls-7" d="M72.56,42.84c-.18.06-.36.12-.55.18-.18-.03-.35-.07-.52-.11.19-.06.38-.12.56-.19.17.04.33.08.51.12"/>
    <path class="cls-5" d="M71.68,32.74c.11.25.21.52.28.71.17.48.28.99.36,1.51-.34,0-.68.02-1.01,0,.01-.45.06-.88.14-1.3.05-.25.13-.61.23-.92"/>
    <path class="cls-5" d="M72.51,48.55c-.24.11-.47.21-.71.31-.26-.08-.51-.15-.76-.23-.18-1.46-.17-3.34-.13-5.29.15-.04.29-.08.44-.13-.22,1.6.08,3.42.12,5.05.36.1.71.19,1.05.29"/>
    <path class="cls-7" d="M71.8,39.81c.21.04.43.08.64.12-.22.07-.44.13-.66.2-.13-.02-.26-.04-.39-.07,0,.06,0,.12-.02.18-.13.04-.26.07-.38.1,0-.1,0-.19,0-.29.27-.08.54-.15.81-.24"/>
    <path class="cls-7" d="M71.9,32.26c-.08.12-.15.29-.22.48-.08-.18-.17-.35-.26-.49.05-.13.1-.24.16-.31.03-.03.05-.06.08-.09.08.1.16.25.23.42"/>
    <path class="cls-5" d="M71.42,32.25c.09.13.18.31.26.49-.1.31-.18.68-.23.92-.09.42-.13.86-.14,1.3-.12,0-.23-.01-.34-.02,0-.25.02-.51.03-.76.02-.21.05-.41.09-.61.06-.28.18-.9.33-1.32"/>
    <path class="cls-7" d="M71.59,31.76s.05.05.07.08c-.03.03-.06.06-.08.09-.06.07-.11.18-.16.31,0,0,0,0,0,0-.04-.05-.07-.09-.11-.13,0,0,0,0,0,0l-.02-.02h-.02s0-.02,0-.02c0,0-.01-.01-.02-.02,0,0,0,0,0,0h-.02s0-.01,0-.01c0,0,0,0-.02,0,0,0,0,0-.01,0-.02,0-.04-.02-.06-.02,0-.15.02-.31.03-.46.17.03.32.11.45.23"/>
    <path class="cls-7" d="M71.49,42.91c.17.04.34.07.52.11-.22.07-.44.13-.67.2.01-.09.03-.18.04-.27.04-.01.07-.02.11-.03"/>
    <path class="cls-5" d="M71.42,39.74c.12.03.25.05.37.08-.27.08-.54.16-.81.24.02-.92.04-1.8.03-2.63,0-.67-.06-1.36-.07-2.04.12,0,.24,0,.35,0,0,1.46.24,2.99.12,4.35"/>
    <path class="cls-5" d="M72.05,42.72c-.18.06-.37.13-.56.19-.03,0-.06-.01-.1-.02,0,.02,0,.04,0,.05-.16.05-.32.09-.48.14.02-.91.05-1.84.07-2.74.13-.03.26-.07.38-.1-.06.79-.08,1.53-.06,2.26.24.08.49.16.75.22"/>
    <path class="cls-7" d="M71.38,40.06c.13.02.26.05.39.07-.13.04-.27.08-.4.11,0-.06,0-.12.02-.18"/>
    <path class="cls-5" d="M71.4,42.89s.06.01.1.02c-.04,0-.07.02-.11.03,0-.02,0-.04,0-.05"/>
    <path class="cls-5" d="M71.42,32.25s0,0,0,0c0,0,0,0,0,0"/>
    <path class="cls-7" d="M71.39,42.94c-.02.09-.03.18-.04.27-.14.04-.29.08-.44.13,0-.09,0-.17,0-.26.16-.04.32-.09.48-.14"/>
    <path class="cls-5" d="M71.3,32.11h0s0,0,0,0"/>
    <path class="cls-5" d="M71.28,32.09s.01.01.02.02c0,0-.01-.01-.02-.02"/>
    <path class="cls-5" d="M71.26,32.08s0,0,.02.01c0,0,0,0-.02-.01"/>
    <path class="cls-5" d="M71.23,32.05s.02,0,.02.02c0,0-.02-.01-.02-.02"/>
    <path class="cls-5" d="M71.21,32.04s0,0,.02,0c0,0,0,0-.02,0"/>
    <path class="cls-5" d="M71.19,32.02s0,0,.02,0c0,0,0,0-.02,0"/>
    <path class="cls-5" d="M71.18,32.02s0,0,.01,0c0,0,0,0,.02,0,0,0,0,0,0,0,0,0,0,0,.02,0,0,0,0,0,0,0,0,0,.02,0,.02.02,0,0,0,0,0,0,0,0,0,0,.02.01,0,0,.01.01.02.02,0,0,0,0,0,0,.04.04.07.08.11.13,0,0,0,0,0,0-.16.42-.28,1.04-.33,1.32-.04.2-.07.4-.09.61.03-.72.07-1.45.12-2.18.02,0,.04.01.06.02"/>
    <path class="cls-5" d="M71.13,26.16c.22.84-.03,1.93-.13,2.75-.65-.04-1.29-.04-1.93-.04-.03-.3-.1-.61-.22-.92-.27-.71-.87-1.41-1.59-1.73,1.34-.01,2.66-.07,3.86-.07"/>
    <path class="cls-5" d="M71.04,48.63c.25.08.51.15.76.23-.7.3-1.42.58-2.26.85-.7-1.88-1.18-3.68-1.74-5.48.94-.3,2.04-.59,3.11-.89-.04,1.96-.04,3.84.13,5.29"/>
    <path class="cls-7" d="M71.14,31.53c-.01.16-.02.31-.03.47-.08-.02-.17-.02-.27,0,0-.16.01-.32.02-.48.1,0,.2,0,.29.02"/>
    <path class="cls-5" d="M70.84,31.99c.1,0,.2,0,.27,0-.05.73-.09,1.46-.12,2.18-.04.39-.05.8-.04,1.2-1.88-.05-3.71-.34-5.44-.65-.07-.3-.14-.63-.2-.96.15-.05.31-.11.47-.16.04.24.08.47.11.71,1.66.24,2.99.53,4.76.62.11-1.01.16-1.98.2-2.95"/>
    <path class="cls-5" d="M70.97,34.94c.11,0,.23.02.34.02,0,.14,0,.28,0,.42-.12,0-.24,0-.35,0,0-.4,0-.8.04-1.2-.01.26-.02.51-.03.76"/>
    <path class="cls-5" d="M70.98,40.34c-.02.9-.05,1.83-.07,2.74-1.05.3-2.15.55-3.24.89-.3-.77-.82-1.76-.82-2.63,1.27-.33,2.71-.63,4.13-1"/>
    <path class="cls-5" d="M70.95,29.2c-.04.77-.06,1.54-.09,2.32-1.06.03-2.6,1.11-3.65,1.06,1.05-.69,1.92-1.97,1.88-3.43.65,0,1.28.03,1.86.06"/>
    <path class="cls-7" d="M70.86,31.51l-.02.48c-.27.03-.59.13-.74.18-1.23.41-2.86.94-4.33,1.44-.03-.19-.07-.39-.11-.58,1.69-.86,3.1-2.07,2.99-3.89.14,0,.29,0,.43,0,.04,1.47-.83,2.74-1.88,3.43,1.05.05,2.58-1.04,3.65-1.06"/>
    <path class="cls-5" d="M70.84,31.99c-.04.96-.09,1.94-.2,2.95-1.77-.09-3.1-.38-4.76-.62-.03-.23-.07-.47-.11-.71,1.47-.5,3.1-1.04,4.33-1.44.15-.05.47-.15.74-.18"/>
    <path class="cls-7" d="M69.28,37.48c.09.21-.13.23-.31.28-.17-.29.16-.38.31-.28"/>
    <path class="cls-7" d="M69.07,28.88c0,.09.02.18.02.26-.14,0-.29,0-.43,0,0-.08-.01-.17-.03-.26h.44"/>
    <path class="cls-7" d="M68.85,27.96c.12.31.19.62.22.92h-.44c-.03-.19-.06-.38-.12-.58-.3-1.06-1.49-2.35-2.72-1.63-.28.17-.55.56-.79.85-.02.02-.03.04-.05.06-.02-.24-.04-.49-.05-.74.21-.22.45-.42.69-.55.05-.03.09-.05.14-.07.51.02,1.03.02,1.54.02.72.32,1.32,1.01,1.59,1.73"/>
    <path class="cls-5" d="M68.63,28.88c.01.09.02.17.03.26-.5,0-1.01-.02-1.51-.03-.02-.09-.05-.18-.09-.26.52.03,1.04.03,1.57.03"/>
    <path class="cls-7" d="M68.52,36.62c.02.23-.24.52-.48.38-.03-.22.27-.42.48-.38"/>
    <path class="cls-7" d="M68.89,22.25c-.19.2-.52-.02-.56-.24.2-.09.53.02.56.24"/>
    <path class="cls-5" d="M68.04,37c.23.15.5-.15.48-.38-.21-.04-.51.16-.48.38ZM71.02,37.42c0,.83,0,1.72-.03,2.63-1.42.4-2.89.7-4.25,1.03-.6-2.54-1.38-4.73-2.18-7.06.24-.08.49-.17.74-.26.06.34.13.66.2.96,1.73.31,3.56.6,5.44.65,0,.68.06,1.37.07,2.04h0ZM68.97,37.76c.18-.05.4-.07.31-.28-.15-.1-.48,0-.31.28"/>
    <path class="cls-5" d="M66.91,42.78c.8,2.39,1.64,4.7,2.31,7.02-.97.35-2.15.47-3.06.84-1.99-5.33-3.29-10.52-5.2-15.43,1.09-.44,2.07-.74,3.24-1.08,1.35,2.68,1.75,5.77,2.71,8.65"/>
    <path class="cls-7" d="M68.18,23.23c-.18,0-.41.03-.37-.19.12-.14.46-.13.37.19"/>
    <path class="cls-5" d="M65.79,26.67c1.23-.72,2.42.57,2.72,1.63.06.2.1.39.12.58-.53,0-1.06,0-1.57-.03-.05-.12-.12-.23-.21-.3-.02-.02-.04-.03-.05-.05,0,0,0,0-.01,0-.04-.03-.09-.05-.13-.07-.22-.02-.42,0-.6.06-.02,0-.04.01-.06.02-.02,0-.04.02-.06.03-.03.01-.06.03-.08.04-.02,0-.03.02-.04.03-.03.02-.06.04-.09.06-.02.02-.04.03-.06.05,0,0,0,0-.01,0,0,0,0,0,0,0-.19-.03-.38-.07-.57-.11-.05-.34-.09-.68-.12-1.03.02-.02.03-.04.05-.06.23-.28.5-.68.79-.85"/>
    <path class="cls-7" d="M67.06,28.85c.04.08.06.17.09.26-.1,0-.2,0-.3,0-.01-.08-.04-.17-.08-.26.1,0,.19.01.29.02"/>
    <path class="cls-7" d="M67.26,26.23c-.51,0-1.03,0-1.54-.02.52-.24,1.06-.2,1.54.02"/>
    <path class="cls-5" d="M66.85,29.09c.08.45-.16.79.01,1.15.34-.15.4-.69.28-1.14.5.02,1.01.02,1.51.03.11,1.82-1.31,3.03-2.99,3.89-.1-.54-.21-1.08-.3-1.63.36-.63.64-1.3.71-2.1-.02-.08-.05-.17-.07-.25.28.02.56.03.85.04"/>
    <path class="cls-7" d="M67.15,29.1c.12.46.05.99-.28,1.14-.18-.36.07-.7-.01-1.15.1,0,.2,0,.3,0"/>
    <g class="cls-9">
      <path class="cls-7" d="M54.96,37.34c-.01,1.17.79,2.3,1.37,3.4.52.98.74,2.05,1.19,3.11,1.85-.55,3.76-1.08,5.49-1.7-.69-2.46-1.49-4.72-2.37-6.86-1.85.79-3.81,1.3-5.69,2.05h0ZM57.76,31.29c.17.05.3.23.47.31.14.06.32.05.47.11,1.12.48,1.97,1.8,2.62,3.01.93-.3,2.13-.71,2.84-.93-.16-.67,0-1.46.22-2.19.16-.55.28-1.12.44-1.59.04.43.08.84.13,1.25-.02.1-.04.2-.05.29.02-.04.04-.09.07-.13.02.18.04.35.06.52-.11.16-.22.33-.33.49-.07.02-.15.04-.22.06-.07.31-.15.62,0,1.06.25-.1.49-.21.73-.32.03.18.06.35.09.52-.26.09-.51.18-.74.26.8,2.33,1.58,4.52,2.18,7.06,1.36-.33,2.83-.63,4.25-1.03,0,.1,0,.19,0,.29-1.42.37-2.85.67-4.13,1,0,.87.52,1.86.82,2.63,1.08-.34,2.19-.6,3.24-.89,0,.09,0,.17,0,.26-1.07.3-2.17.59-3.11.89.56,1.8,1.04,3.6,1.74,5.48.84-.27,1.56-.55,2.26-.85.24.07.49.14.74.21-1.37.58-2.81,1.1-4.33,1.45-.96.22-1.83.53-2.78.81-1.15.34-2.33.68-3.44,1.04-.39.13-.79.45-1.23.29-.26-1.38-1.02-2.75-1.69-4.23-.51-1.12-.97-2.29-1.49-3.32-.54-1.07-.9-2.38-1.4-3.54-.25-.56-.48-1.14-.75-1.68-.47-.96-1.16-1.76-.84-2.87.87-.57,2.43-.74,3.44-1.23-1.5-.41-3.49-1.24-3.92-3.33-.33-1.65,1.11-3.77,3.39-3.55,1.97.2,3.75,1.98,4.67,3.95.46.11.62-.39,1.05-.24.24-1.46.08-3.28.82-4.59.14-.25.33-.54.54-.81.02.26.04.52.07.78-.43.64-.66,1.3-.75,2.15-.07.62-.03,1.3-.1,1.92-.02.17-.13.32-.16.48-.04.29.18.63-.21.83-.27.02-.08-.38-.38-.33-.24.1-.09.43-.4.5-.08-.06-.19-.07-.21-.23-.22.07,0,.38-.33.38-.63-1.46-1.59-2.94-2.92-3.75-.62-.38-1.62-.72-2.47-.53-1.62.36-2.66,1.85-1.99,3.5.89,2.2,3.77,3.09,6.21,1.98-.03-.11-.07-.2-.11-.29-.02-.04-.03-.07-.05-.1-.08-.15-.17-.28-.26-.42-.15.04-.3.08-.45.13-1.51-.15-3.24-.77-4.04-2.04-.38.17-.03.74-.49.86-.12-.52.11-1.22.47-1.57,0,0,.01-.01.02-.02.08-.07.16-.13.25-.16.33-.13,1.12-.1,1.51.02h0ZM69.22,49.8c-.67-2.32-1.51-4.63-2.31-7.02-.97-2.89-1.36-5.97-2.71-8.65-1.17.34-2.15.65-3.24,1.08,1.91,4.92,3.21,10.1,5.2,15.43.91-.37,2.09-.49,3.06-.84ZM65.85,50.73c-.69-1.74-1.14-3.59-1.82-5.41-1.73.66-3.46,1.05-5.11,1.69.74,1.77,1.57,3.35,2.19,5.16,1.32-.43,3.09-.96,4.74-1.45h0ZM63.95,45.05c-.28-1.03-.58-1.83-.82-2.63-1.74.6-3.69,1.14-5.48,1.75.36.86.84,1.79,1.13,2.55,1.62-.5,3.6-1.14,5.16-1.66h0ZM60.13,33.74c-.89-1.27-2-2.15-3.66-2.05-.22.18.08.68.23.86.69.78,2.42,1.12,3.42,1.19"/>
    </g>
    <path class="cls-5" d="M66.8,28.49s.04.03.05.05c-.02-.02-.04-.03-.05-.05"/>
    <path class="cls-5" d="M66.77,28.83c.04.09.07.18.08.26-.29-.01-.57-.03-.85-.04l-.05-.2c.08-.03.15-.05.23-.07.2.02.39.04.59.05"/>
    <path class="cls-5" d="M66.18,28.78c.24-.06.44-.07.59.04,0,0,0,0,0,.01-.2-.01-.4-.03-.59-.05"/>
    <path class="cls-7" d="M66.06,28.48c.17-.06.37-.09.6-.06.05.02.09.04.13.07,0,0,0,0,.01,0,.02.01.04.03.05.05.08.08.15.19.21.31-.1,0-.19,0-.29-.02,0,0,0,0,0,0-.14-.11-.35-.1-.59-.04-.18-.02-.36-.04-.54-.07,0,0,0,0,0,0,0,0,0,0,.01,0,.02-.02.04-.03.06-.05.03-.02.06-.04.09-.06.02,0,.03-.02.04-.03.03-.02.05-.03.08-.04.02,0,.04-.02.06-.03s.04-.02.06-.02"/>
    <path class="cls-5" d="M66.06,28.48c.17-.06.37-.09.6-.06.05.02.09.04.13.07-.04-.03-.09-.05-.13-.07-.22-.02-.42,0-.6.06"/>
    <path class="cls-7" d="M66,29.05c.02.08.04.17.07.25-.07.8-.35,1.47-.71,2.1-.03-.19-.06-.38-.08-.57.22-.43.41-.88.43-1.43-.19.21-.35.54-.48.9-.03-.36-.04-.72-.04-1.07,0,0,0,0,0-.01.01-.02.02-.04.04-.05.02-.04.05-.07.07-.1.01-.02.03-.03.04-.05,0,0,.01-.01.02-.02.21.02.42.04.64.05"/>
    <path class="cls-7" d="M65.95,28.85l.05.2c-.22-.01-.43-.03-.64-.05.05-.06.1-.11.15-.17,0,0,.02-.01.02-.02.01-.01.02-.02.04-.03l.03-.03s.03-.02.04-.03c0,0,0,0,0,0,.18.03.36.05.54.07-.07.02-.15.04-.23.07"/>
    <path class="cls-5" d="M65.94,28.53s.04-.02.06-.03c-.02,0-.04.02-.06.03"/>
    <path class="cls-5" d="M65.81,28.59s.03-.02.04-.03c-.02,0-.03.02-.04.03"/>
    <path class="cls-5" d="M64.03,45.32c.68,1.82,1.13,3.67,1.82,5.41-1.65.48-3.41,1.02-4.74,1.45-.62-1.81-1.45-3.39-2.19-5.16,1.65-.65,3.37-1.04,5.11-1.69"/>
    <path class="cls-5" d="M68.33,22.01c.04.22.37.44.56.24-.03-.22-.36-.34-.56-.24ZM68.18,23.23c.09-.32-.25-.33-.37-.19-.04.22.19.19.37.19ZM65.67,18.1c1.19.08,2.75.17,4.2.28.06,0,.13,0,.19.01.16.01.31.02.46.04.06,0,.12,0,.18.01.03,0,.06,0,.09,0,.15.01.3.02.44.04.09,0,.17.01.26.02-.18,2.45-.39,4.77-.33,7.38-2.02.04-4.23.18-6.3-.03-.05-1.91-.84-4.08-.67-6.04.04-.47.12-1.37.39-1.58.21-.17.84-.14,1.08-.13"/>
    <path class="cls-5" d="M65.66,28.7s.04-.03.06-.05c-.02.02-.04.03-.06.05"/>
    <path class="cls-7" d="M65.66,33.02c.04.2.07.39.11.58-.16.05-.31.11-.47.16-.03-.17-.06-.35-.09-.52.15-.07.3-.14.45-.22"/>
    <path class="cls-5" d="M65.65,28.71s0,0,0,0c0,0,0,0,0,0"/>
    <path class="cls-5" d="M65.64,28.71s0,0,0,0c-.01,0-.03.02-.04.03l-.03.03s-.02.02-.04.03c0,0-.02.01-.02.02-.05.05-.1.11-.15.17-.05,0-.1,0-.16-.02,0,.09-.01.17-.01.26-.07.12-.14.24-.2.36-.06.13-.12.27-.17.42-.06-.66-.13-1.34-.18-2.02.09-.14.2-.28.31-.43.03.35.07.7.12,1.03.19.04.38.08.57.11"/>
    <path class="cls-7" d="M65.6,28.75s.03-.02.04-.03c-.01,0-.03.02-.04.03"/>
    <path class="cls-5" d="M65.72,26.22s-.09.04-.14.07c-.24.13-.47.33-.69.55-.01-.22-.02-.44-.03-.66.28.02.57.03.86.04"/>
    <path class="cls-7" d="M65.53,28.81s.02-.02.04-.03c-.01,0-.02.02-.04.03"/>
    <path class="cls-7" d="M65.53,28.81s-.02.01-.02.02c0,0,.02-.01.02-.02"/>
    <path class="cls-5" d="M65.71,29.4c-.02.55-.21,1-.43,1.43-.02-.18-.04-.35-.06-.53.13-.36.3-.69.48-.9"/>
    <path class="cls-5" d="M65.37,31.4c.09.54.2,1.09.3,1.63-.15.08-.3.15-.45.22-.07-.42-.13-.85-.18-1.3.12-.18.23-.36.34-.55"/>
    <path class="cls-5" d="M65.36,29s-.01.01-.02.02c-.01.02-.03.03-.04.05-.03.03-.05.07-.07.1-.01.02-.02.04-.04.05,0,0,0,0,0,.01,0-.09,0-.17.01-.26.05,0,.1.01.16.02"/>
    <path class="cls-5" d="M65.35,29.02s-.03.03-.04.05c.01-.02.03-.03.04-.05"/>
    <path class="cls-7" d="M65.28,30.83c.03.19.05.38.08.57-.11.19-.22.37-.34.55-.02-.17-.04-.35-.06-.52.1-.2.21-.4.31-.6"/>
    <path class="cls-7" d="M65.23,30.3c.02.17.04.35.06.53-.1.2-.21.4-.31.6,0-.05-.01-.1-.02-.15.06-.3.16-.64.28-.97"/>
    <path class="cls-5" d="M65.24,29.17s-.02.04-.04.05c.01-.02.02-.04.04-.05"/>
    <path class="cls-7" d="M65.23,30.3c-.12.32-.21.67-.28.97-.05-.41-.09-.83-.13-1.25.05-.15.11-.29.17-.42.06-.12.13-.24.2-.36-.01.35,0,.71.04,1.07"/>
    <path class="cls-5" d="M65.03,31.95c.06.45.12.88.18,1.3-.24.11-.49.22-.73.32-.15-.44-.07-.75,0-1.06.08-.02.15-.04.22-.06.11-.16.22-.33.33-.49"/>
    <path class="cls-7" d="M64.9,26.84c.01.25.03.49.06.74-.12.14-.22.28-.31.43-.02-.26-.04-.52-.07-.78.1-.13.21-.26.33-.38"/>
    <path class="cls-5" d="M63.13,42.41c.23.8.54,1.6.82,2.63-1.56.51-3.54,1.15-5.16,1.66-.29-.76-.78-1.69-1.13-2.55,1.79-.61,3.73-1.14,5.48-1.75"/>
    <path class="cls-5" d="M59.18,29.93c1.33.82,2.29,2.3,2.92,3.75.34,0,.11-.31.33-.38.02.17.13.18.21.23.31-.07.15-.39.4-.5.3-.04.12.35.38.33.39-.2.16-.54.21-.83.03-.16.14-.31.16-.48.07-.62.04-1.29.1-1.92.09-.85.32-1.51.75-2.15.06.68.12,1.35.18,2.02-.16.47-.28,1.04-.44,1.59-.21.73-.38,1.52-.22,2.19-.71.22-1.91.63-2.84.93-.65-1.22-1.49-2.53-2.62-3.01-.15-.06-.33-.05-.47-.11-.18-.08-.3-.25-.47-.31-.38-.12-1.17-.16-1.51-.02-.09.04-.17.09-.25.16,0,0-.01.01-.02.02-.36.35-.58,1.05-.47,1.57.46-.12.12-.7.49-.86.81,1.26,2.53,1.89,4.04,2.04.15-.04.3-.08.45-.13.09.14.18.27.26.42.02.03.04.07.05.1.04.09.08.18.11.29-2.44,1.11-5.31.22-6.21-1.98-.67-1.66.37-3.14,1.99-3.5.86-.19,1.86.16,2.47.53h0ZM57.02,34.09c.43.44,1.08.67,1.66.58-.26-.27-.73-.19-1.06-.34-.25-.21-.52-.37-.82-.5.01.02.02.03.04.05.01.02.02.03.04.05.01.02.03.03.04.05.02.02.04.04.06.07.01.01.03.03.04.04"/>
    <path class="cls-5" d="M60.92,34.88c-.03-.11-.07-.2-.11-.29.04.09.08.18.11.29"/>
    <path class="cls-5" d="M60.76,34.49s.04.07.05.1c-.02-.04-.03-.07-.05-.1"/>
    <path class="cls-7" d="M59.71,40.54c-.21.11-.26-.08-.44-.02-.04-.35.37-.19.44.02"/>
    <path class="cls-5" d="M59.01,40.98c.08.08.49.21.52-.04-.19-.04-.51-.36-.52.04ZM59.27,40.52c.18-.06.23.13.44.02-.07-.21-.49-.38-.44-.02ZM60.65,35.3c.87,2.14,1.68,4.4,2.37,6.86-1.73.62-3.63,1.15-5.49,1.7-.45-1.07-.68-2.13-1.19-3.11-.58-1.11-1.38-2.23-1.37-3.4,1.87-.75,3.83-1.25,5.69-2.05"/>
    <path class="cls-7" d="M59.53,40.93c-.03.26-.44.13-.52.04,0-.4.33-.08.52-.04"/>
    <path class="cls-7" d="M57.63,34.33c.33.15.8.06,1.06.34-.59.08-1.23-.14-1.66-.58-.01-.01-.03-.03-.04-.04-.02-.02-.04-.04-.06-.07-.01-.02-.03-.03-.04-.05-.01-.02-.03-.03-.04-.05-.01-.02-.03-.03-.04-.05.29.13.57.29.82.5"/>
  </g>
  <path class="cls-1" d="M6.78,13.29c-.2-.07-.42-.07-.63-.04-.28.04-.56.11-.83.19-.11.04-.23.07-.34.12.08-.08.16-.15.24-.23.22-.22.43-.46.62-.7.18-.24.34-.52.32-.83-.02-.26-.2-.46-.46-.48-.24-.02-.48.08-.69.2-.45.27-.79.68-1.04,1.13-.11.2-.2.4-.27.61-.02-.18-.05-.36-.09-.54-.06-.28-.14-.55-.24-.82-.08-.22-.17-.48-.33-.67-.14-.16-.38-.25-.57-.14-.21.11-.27.39-.3.61-.06.51.1,1.05.3,1.52.22.54.54,1.03.93,1.46.08.09.19.04.24-.04.57-.06,1.15.04,1.72.07.52.03,1.15,0,1.56-.36.18-.15.31-.37.27-.61-.04-.21-.19-.36-.38-.43h0ZM4.84,12c.17-.15.97-.71,1.01-.18.02.27-.17.53-.34.72-.17.2-.35.4-.54.59-.38.38-.78.73-1.22,1.05.13-.81.45-1.63,1.07-2.18ZM2.73,13.08c-.19-.48-.42-1.13-.2-1.63.15-.34.39.17.45.3.12.28.21.56.29.85.14.55.2,1.11.18,1.67-.3-.36-.54-.76-.72-1.19ZM6.63,14.16c-.4.26-.94.25-1.39.22-.37-.02-.74-.07-1.11-.08.28-.17.57-.32.87-.44.42-.16.89-.32,1.34-.34.16,0,.37,0,.48.13.15.18-.05.4-.2.5h0Z"/>
  <g class="cls-2">
    <g class="cls-8">
      <path class="cls-6" d="M9.64,8.03c-.1-.21-.32-.31-.54-.32-.24-.02-.48.06-.71.13-.24.07-.47.16-.69.26-.18.08-.35.16-.51.27.15-.27.29-.55.42-.83.13-.3.25-.6.34-.91.08-.28.19-.6.18-.89,0-.22-.1-.46-.31-.56-.25-.13-.51.03-.71.19-.46.37-.71.94-.8,1.51-.06.37-.06.74-.05,1.11-.11-.35-.23-.7-.36-1.05-.1-.28-.2-.57-.4-.79-.19-.21-.49-.37-.77-.24-.48.22-.42.87-.3,1.29.15.49.42.93.73,1.33.26.34.58.68.94.92-.1.1-.02.32.13.25,0,0,.02,0,.03-.01.02,0,.04,0,.06-.01.55-.24,1.16-.33,1.75-.42.49-.08,1.18-.11,1.49-.56.13-.19.18-.44.08-.65ZM7,5.92c.13-.18.34-.43.57-.49.23-.05.27.27.25.43-.08.54-.27,1.08-.5,1.57-.21.46-.46.91-.73,1.34-.04-.97-.18-2.02.4-2.85ZM5.62,8.59c-.3-.33-.56-.7-.74-1.1-.15-.31-.32-.76-.19-1.1.12-.33.45-.23.63,0,.17.21.25.49.34.75.24.68.46,1.37.66,2.07,0,0,0,.01,0,.02-.27-.17-.5-.39-.7-.62h0ZM9.22,8.63c-.18.15-.43.19-.66.23-.25.05-.5.09-.75.12-.39.06-.77.13-1.15.24.23-.33.58-.57.94-.75.36-.19.76-.34,1.16-.43.17-.04.42-.08.56.06.15.15.03.41-.11.52h0Z"/>
    </g>
  </g>
  <path class="cls-1" d="M2.32,6.1c.07-.09.1-.19.09-.29.19-.49.54-.9.9-1.28.44-.47.88-.94,1.12-1.55.11-.29.17-.6.14-.91-.03-.25-.11-.55-.36-.67-.29-.14-.61.09-.8.29-.22.22-.37.49-.5.76-.2.42-.35.85-.46,1.3-.01-.64.03-1.28-.33-1.84-.1-.15-.24-.35-.44-.36-.21,0-.33.2-.4.38-.17.46-.05.98.02,1.45.04.27.09.55.13.82-.11-.23-.22-.46-.33-.7-.15-.32-.49-.85-.91-.52-.32.26-.2.77-.08,1.1.16.41.42.77.73,1.09.37.37.79.68,1.21.98,0,0,0,0,0,0,.06.05.17.05.23-.03h0ZM.35,3.77c-.04-.15-.11-.46.04-.58.18-.13.35.22.41.33.28.58.55,1.17.83,1.75.08.17.3.04.27-.11-.1-.59-.19-1.17-.29-1.76-.05-.28-.1-.56-.12-.84,0-.13,0-.27.02-.4.01-.07.07-.33.16-.33.07,0,.18.2.21.25.07.11.12.23.15.35.07.23.1.48.1.72.02.54-.02,1.08.14,1.6.05.17.28.13.29-.04.06-.62.21-1.23.45-1.81.11-.26.23-.53.39-.77.11-.16.44-.59.68-.47.21.1.2.53.18.71-.03.28-.13.55-.27.8-.28.49-.68.88-1.06,1.29-.32.35-.61.72-.79,1.15-.04.03-.06.08-.05.14,0,0,0,0,0,.01-.72-.51-1.51-1.12-1.75-2Z"/>
  <g class="cls-2">
    <g class="cls-12">
      <path class="cls-6" d="M70.27,75.51c.24,0,.51.13.61.18.3.16,1.7.76,3.18.87.04-.14,0-.64-.16-1.05-.1-.24-.18-.3-.2-.31-.76-.08-2.2-.58-3.77-1.3-1.63-.75-2.93-1.54-3.47-2.1-.36-.37-.65-.63-1.07-.62-.47.01-.88.3-1.06.74-.05.13-.08.26-.08.4,0,.12.01.23.04.34.02.08.05.16.09.23.23.43.41.92.53,1.44.14.6.56,1.18,1.17,1.6.62.42,1.67.58,2.62.39.57-.11,1-.34,1.18-.63.09-.13.22-.18.37-.18ZM74.1,76.88s-.01,0-.02,0c-1.79-.13-3.33-.9-3.34-.91-.23-.12-.52-.2-.58-.11-.23.36-.72.63-1.38.76-.85.17-2.07.1-2.86-.44-.66-.46-1.14-1.11-1.29-1.78-.11-.49-.28-.95-.5-1.36-.05-.09-.09-.19-.12-.29-.04-.14-.06-.28-.06-.43,0-.18.04-.35.1-.51.22-.55.74-.92,1.33-.93.58-.01.98.39,1.29.72,1.15,1.19,5.55,3.16,7.05,3.31.45.05.69,1.15.65,1.6-.03.33-.19.37-.28.37"/>
    </g>
  </g>
  <path class="cls-1" d="M67.01,73.43c-.32,0-.61.12-.77.35-.15.21-.17.5-.07.8.11.32.34.61.66.83.28.19.85.26,1.54.18.66-.08,1.12-.26,1.19-.36,0,0,.01-.01,0-.04-.03-.17-.33-.56-1.6-1.43-.31-.21-.66-.32-.97-.32ZM67.83,75.92c-.39,0-.86-.05-1.17-.26-.37-.25-.65-.6-.78-.98-.14-.39-.1-.77.1-1.07.2-.3.54-.47.96-.48.4-.01.82.12,1.2.37,1.15.79,1.67,1.28,1.73,1.63.02.1,0,.2-.06.28-.18.24-.83.41-1.4.48-.14.02-.35.04-.58.04"/>
  <g class="cls-2">
    <g class="cls-10">
      <path class="cls-6" d="M63.78,72.3l.17.11s0-.06,0-.09c0-.04,0-.09,0-.13l-.18.11ZM64.15,72.86s-.06,0-.08-.02l-.67-.41s-.07-.08-.07-.13.03-.1.07-.13l.71-.43c.06-.03.13-.03.18.01.05.04.07.11.04.17-.05.13-.08.26-.08.4,0,.12.01.23.04.34.02.06,0,.13-.06.16-.03.02-.06.03-.09.03"/>
    </g>
  </g>
  <path class="cls-1" d="M65.28,72.15c0,.16-.13.28-.28.28s-.28-.13-.28-.28.13-.28.28-.28.28.13.28.28"/>
  <path class="cls-1" d="M66.55,75.14c-.08,0-.15-.07-.15-.15,0-.08.06-.15.15-.16.43-.01,1.06-.48,1.14-.99.01-.08.09-.14.18-.13.08.01.14.09.13.18-.05.3-.24.62-.53.86-.28.24-.61.38-.9.38h0"/>
  <path class="cls-1" d="M66.53,77.59s-.02,0-.03,0c-.08-.01-.14-.09-.13-.18l.18-1.05c.01-.08.09-.14.18-.13.08.01.14.09.13.18l-.18,1.04c-.01.08-.08.13-.15.13"/>
  <path class="cls-1" d="M67.42,78.11s-.02,0-.03,0c-.08-.01-.14-.09-.13-.18l.24-1.41c.01-.08.09-.14.18-.13.08.01.14.09.13.18l-.24,1.41c-.01.07-.08.13-.15.13"/>
</svg>