<?xml version="1.0" encoding="UTF-8"?>
<svg id="Layer_2" data-name="Layer 2" xmlns="http://www.w3.org/2000/svg" xmlns:xlink="http://www.w3.org/1999/xlink" viewBox="0 0 87.13 67.82">
  <defs>
    <style>
      .cls-1 {
        fill: #4f4c4c;
      }

      .cls-1, .cls-2, .cls-3, .cls-4, .cls-5, .cls-6, .cls-7, .cls-8 {
        stroke-width: 0px;
      }

      .cls-9 {
        clip-path: url(#clippath-11);
      }

      .cls-2, .cls-10 {
        opacity: .5;
      }

      .cls-2, .cls-6 {
        fill: #ff936c;
      }

      .cls-11 {
        clip-path: url(#clippath-2);
      }

      .cls-12 {
        clip-path: url(#clippath-6);
      }

      .cls-3 {
        fill: none;
      }

      .cls-13 {
        clip-path: url(#clippath-7);
      }

      .cls-14 {
        clip-path: url(#clippath-1);
      }

      .cls-15 {
        clip-path: url(#clippath-4);
      }

      .cls-4 {
        fill: #ffce89;
      }

      .cls-16 {
        clip-path: url(#clippath-12);
      }

      .cls-5 {
        fill: #fff;
      }

      .cls-7 {
        fill: #231f20;
      }

      .cls-17 {
        clip-path: url(#clippath-9);
      }

      .cls-18 {
        clip-path: url(#clippath);
      }

      .cls-19 {
        clip-path: url(#clippath-3);
      }

      .cls-20 {
        clip-path: url(#clippath-8);
      }

      .cls-21 {
        clip-path: url(#clippath-5);
      }

      .cls-8 {
        fill: #d3d2d2;
      }

      .cls-22 {
        clip-path: url(#clippath-10);
      }
    </style>
    <clipPath id="clippath">
      <rect class="cls-3" x="43.57" y="33.98" width="30.89" height="18.63"/>
    </clipPath>
    <clipPath id="clippath-1">
      <rect class="cls-3" x="43.38" y="33.91" width="31.09" height="18.7"/>
    </clipPath>
    <clipPath id="clippath-2">
      <rect class="cls-3" x="74.37" y="47.31" width=".1" height=".2"/>
    </clipPath>
    <clipPath id="clippath-3">
      <rect class="cls-3" x="74.17" y="47.12" width=".3" height=".39"/>
    </clipPath>
    <clipPath id="clippath-4">
      <rect class="cls-3" x="64.17" y="45.94" width="10.3" height="8.04"/>
    </clipPath>
    <clipPath id="clippath-5">
      <rect class="cls-3" x="63.97" y="45.74" width="10.49" height="8.24"/>
    </clipPath>
    <clipPath id="clippath-6">
      <rect class="cls-3" x="32.98" y="43.59" width="29.61" height="16.8"/>
    </clipPath>
    <clipPath id="clippath-7">
      <rect class="cls-3" x="32.79" y="43.59" width="29.81" height="16.8"/>
    </clipPath>
    <clipPath id="clippath-8">
      <rect class="cls-3" x="32.25" y="49.08" width="2.89" height="2.94"/>
    </clipPath>
    <clipPath id="clippath-9">
      <rect class="cls-3" x="32.25" y="49.08" width="3.09" height="3.14"/>
    </clipPath>
    <clipPath id="clippath-10">
      <rect class="cls-3" x="72.83" y="21.93" width="13.81" height="12.49" transform="translate(37.6 101.51) rotate(-79.58)"/>
    </clipPath>
    <clipPath id="clippath-11">
      <rect class="cls-3" x="5.38" y="8.39" width="5.33" height=".62"/>
    </clipPath>
    <clipPath id="clippath-12">
      <rect class="cls-3" x="2.47" y="9.12" width=".52" height="5.97"/>
    </clipPath>
  </defs>
  <g id="sw-js-blob-svg">
    <path class="cls-4" d="M59.46,12.12c5.2,6.9,7.7,14.8,8.7,23.8s.6,19-4.6,24.6c-5.3,5.5-15.3,6.6-25.8,7.1s-21.6.5-28-5.1c-6.3-5.5-8.1-16.6-6.2-25.7,1.8-9.2,7.3-16.5,13.7-23.3C23.66,6.72,30.96.32,38.56.02c7.7-.4,15.6,5.3,20.9,12.1Z"/>
    <g id="Layer_1-2" data-name="Layer 1-2">
      <g class="cls-18">
        <path class="cls-5" d="M64.19,52.42l-20.57-11.97,10.2-6.45,20.57,11.97-10.2,6.45"/>
      </g>
      <g class="cls-14">
        <path class="cls-7" d="M64.19,52.42l.04-.07-20.46-11.9,10.05-6.36,20.41,11.88-10.09,6.38.04.07.04-.07-.04.07.04.07,10.2-6.45s.04-.04.04-.07c0-.03-.01-.05-.04-.07l-20.57-11.97s-.06-.01-.08,0l-10.2,6.45s-.04.04-.04.07c0,.03.01.05.04.07l20.57,11.97s.06.01.08,0l-.04-.07"/>
      </g>
      <path class="cls-5" d="M55.02,46.26l-9.77-5.66,8.87-5.58,9.77,5.67-8.87,5.58"/>
      <path class="cls-7" d="M55.02,46.26l.04-.07-9.66-5.6,8.72-5.49,9.62,5.57-8.76,5.51.04.07.04-.07-.04.07.04.07,8.87-5.58s.04-.04.04-.07c0-.03-.02-.05-.04-.07l-9.78-5.66s-.06-.01-.08,0l-8.87,5.58s-.04.04-.04.07c0,.03.01.05.04.07l9.77,5.66s.06.01.08,0l-.04-.07"/>
      <path class="cls-5" d="M57.3,43v.39l3.29-2.09v-.39l-3.29,2.09"/>
      <path class="cls-7" d="M57.3,43h-.08v.39s.02.06.04.07.06.01.08,0l3.29-2.09s.04-.04.04-.07v-.39s-.02-.06-.04-.07-.06-.01-.08,0l-3.29,2.09s-.04.04-.04.07h.08l.04.07,3.17-2.02v.2l-3.13,1.99v-.24h-.08l.04.07-.04-.07"/>
      <path class="cls-5" d="M49.87,40.43l-1.33-.77v.39l1.33.77v-.38"/>
      <path class="cls-7" d="M49.87,40.43l.04-.07-1.33-.77s-.06-.01-.08,0c-.03.01-.04.04-.04.07v.39s.01.05.04.07l1.33.77s.05.01.08,0,.04-.04.04-.07v-.38s-.01-.05-.04-.07l-.04.07h-.08v.25l-1.17-.68v-.2l1.21.7.04-.07h-.08.08"/>
      <path class="cls-5" d="M55.41,43.06l-.98-.6-.53.32-2.8-1.63v.39l2.8,1.63.53-.31.95.59,1.94-.06v-.39l-1.9.08"/>
      <path class="cls-7" d="M55.41,43.06l.04-.07-.98-.6s-.06-.02-.08,0l-.49.29-2.76-1.61s-.06-.01-.08,0c-.03.01-.04.04-.04.07v.39s.01.05.04.07l2.8,1.63s.06.01.08,0l.49-.29.9.56s.03.01.04.01l1.94-.06s.08-.04.08-.08v-.39s0-.04-.03-.06c-.01-.01-.04-.02-.06-.02l-1.9.08v.08s.05-.07.05-.07l-.04.07v.08s1.83-.07,1.83-.07v.23l-1.84.05-.93-.57s-.06-.02-.08,0l-.49.29-2.72-1.58v-.2l2.69,1.56s.06.01.08,0l.49-.29.93.58s.03.01.05.01v-.08"/>
      <path class="cls-5" d="M53.28,36.65l-4.74,3,1.33.77c.14-.04.3-.06.47-.06.55,0,1,.21,1,.47,0,.12-.09.22-.24.3l2.8,1.63.53-.32.98.6,1.92-.08,3.26-2.08-7.31-4.25"/>
      <path class="cls-7" d="M53.28,36.65l-.04-.07-4.74,3s-.04.04-.04.07c0,.03.01.05.04.07l1.33.77s.04.01.06,0c.13-.03.29-.05.45-.05.26,0,.5.05.67.13.08.04.15.08.19.13.04.05.06.09.06.13,0,.04-.01.08-.05.11-.03.04-.08.08-.15.12-.03.01-.04.04-.04.07s.01.06.04.07l2.8,1.63s.06.01.08,0l.49-.29.93.58s.03.01.05.01l1.92-.08s.03,0,.04-.01l3.26-2.08s.04-.04.04-.07c0-.03-.01-.05-.04-.07l-7.31-4.25s-.06-.01-.08,0l.04.07-.04.07,7.2,4.19-3.14,2-1.88.08-.95-.59s-.06-.02-.08,0l-.49.29-2.76-1.61-.04.07.04.07c.08-.04.15-.1.2-.16.05-.06.08-.14.08-.21,0-.09-.04-.17-.1-.24-.09-.1-.23-.17-.4-.23-.17-.05-.37-.08-.58-.08-.18,0-.35.02-.49.06l.02.08.04-.07-1.22-.71,4.63-2.93-.04-.07-.04.07.04-.07"/>
      <path class="cls-5" d="M50.34,40.37c-.17,0-.34.02-.48.06v.38c.61-.35,1.27-.05,1.27.21,0,.04-.01.08-.03.12.15-.08.23-.19.23-.3,0-.26-.45-.47-1-.47"/>
      <path class="cls-7" d="M50.34,40.37v-.08c-.18,0-.35.02-.5.06-.04,0-.06.04-.06.08v.38s.02.05.04.07c.03.01.05.01.08,0,.18-.11.37-.15.54-.15s.34.05.45.11c.06.03.1.07.12.1s.04.06.04.08c0,.03,0,.05-.02.08-.02.03-.01.07.01.09s.06.03.09.01c.08-.04.15-.1.2-.16.05-.06.08-.13.08-.21,0-.09-.04-.17-.1-.24-.09-.1-.23-.17-.4-.23-.17-.05-.37-.08-.58-.08v.16c.26,0,.5.05.67.13.08.04.15.08.19.13.04.05.06.09.06.13,0,.04-.01.07-.05.11s-.08.08-.15.12l.04.07.07.04s.04-.1.04-.16c0-.07-.03-.13-.07-.18-.06-.08-.16-.14-.28-.19-.12-.05-.26-.08-.41-.08-.2,0-.41.05-.62.17l.04.07h.08v-.38h-.08l.02.08c.14-.03.29-.06.46-.06v-.08"/>
      <path class="cls-5" d="M53.95,41.74l-3.65-2.1,3.62-2.29,3.65,2.1-3.62,2.29"/>
      <path class="cls-7" d="M53.95,41.74l.04-.07-3.54-2.04,3.47-2.2,3.5,2.01-3.51,2.22.04.07.04-.07-.04.07.04.07,3.62-2.29s.04-.04.04-.07-.02-.05-.04-.07l-3.65-2.1s-.06-.01-.08,0l-3.62,2.29s-.04.04-.04.07c0,.03.02.05.04.07l3.65,2.1s.06.01.08,0l-.04-.07"/>
      <path class="cls-5" d="M53.95,41.6l-3.41-1.96,3.38-2.14,3.41,1.96-3.38,2.14"/>
      <path class="cls-7" d="M53.95,41.6l.04-.07-3.3-1.9,3.23-2.04,3.26,1.87-3.27,2.07.04.07.04-.07-.04.07.04.07,3.38-2.14s.04-.04.04-.07c0-.03-.01-.05-.04-.07l-3.41-1.96s-.06-.01-.08,0l-3.38,2.14s-.04.04-.04.07c0,.03.01.05.04.07l3.41,1.96s.06.01.08,0l-.04-.07"/>
      <path class="cls-5" d="M59.48,41.01l-1.83-1.05.4-.23,1.83,1.05-.4.23"/>
      <path class="cls-7" d="M59.48,41.01l.04-.07-1.71-.98.24-.14,1.67.96-.28.16.04.07.04-.07-.04.07.04.07.4-.23s.04-.04.04-.07-.01-.05-.04-.07l-1.83-1.05s-.05-.01-.08,0l-.4.23s-.04.04-.04.07.01.05.04.07l1.83,1.05s.06.01.08,0l-.04-.07"/>
      <path class="cls-5" d="M58.85,41.4l-1.83-1.05.4-.23,1.83,1.05-.4.23"/>
      <path class="cls-7" d="M58.85,41.4l.04-.07-1.71-.98.24-.14,1.67.96-.28.16.04.07.04-.07-.04.07.04.07.4-.23s.04-.04.04-.07-.01-.05-.04-.07l-1.83-1.05s-.06-.01-.08,0l-.4.23s-.04.04-.04.07.01.05.04.07l1.83,1.05s.06.01.08,0l-.04-.07"/>
      <path class="cls-5" d="M57.78,41.52l-1.39-.79.4-.23,1.39.79-.4.23"/>
      <path class="cls-7" d="M57.78,41.52l.04-.07-1.27-.73.24-.14,1.23.7-.28.16.04.07.04-.07-.04.07.04.07.4-.23s.04-.04.04-.07-.01-.05-.04-.07l-1.39-.79s-.06-.01-.08,0l-.4.23s-.04.04-.04.07.01.05.04.07l1.39.79s.05.01.08,0l-.04-.07"/>
      <path class="cls-5" d="M57.58,42.16l-1.83-1.05.4-.23,1.83,1.05-.4.23"/>
      <path class="cls-7" d="M57.58,42.16l.04-.07-1.71-.98.24-.14,1.67.96-.28.16.04.07.04-.07-.04.07.04.07.4-.23s.04-.04.04-.07-.01-.05-.04-.07l-1.83-1.05s-.05-.01-.08,0l-.4.23s-.04.04-.04.07.01.05.04.07l1.83,1.05s.06.01.08,0l-.04-.07"/>
      <path class="cls-5" d="M56.23,42.14l-1.11-.64.4-.23,1.11.64-.4.23"/>
      <path class="cls-7" d="M56.23,42.14l.04-.07-1-.57.24-.14.96.55-.28.16.04.07.04-.07-.04.07.04.07.4-.23s.04-.04.04-.07-.01-.05-.04-.07l-1.11-.64s-.06-.01-.08,0l-.4.23s-.04.04-.04.07.01.05.04.07l1.11.64s.06.01.08,0l-.04-.07"/>
      <path class="cls-5" d="M53.39,45.23l-.85-.49v-2.28l.85.49v2.28"/>
      <path class="cls-1" d="M53.39,45.25l-.85-.49v-.02l.85.49v.02"/>
      <path class="cls-5" d="M53.39,42.77l-.85-.49v-.2l.85.49v.2"/>
      <path class="cls-1" d="M53.39,42.95l-.85-.49v-.18l.85.49v.18M53.39,42.57l-.85-.49.85.49"/>
      <path class="cls-5" d="M53.39,42.38l-.85-.49v-.87l.85.49v.88"/>
      <path class="cls-1" d="M53.39,42.57l-.85-.49v-.18l.85.49v.18"/>
      <path class="cls-5" d="M52.54,37.03v-.93l.85-.54v1.05l-.07-.04s-.03-.01-.04-.01c-.01,0-.03,0-.04.01l-.7.45"/>
      <path class="cls-1" d="M52.54,36.1h0s.85-.54.85-.54h0l-.85.54"/>
      <path class="cls-5" d="M52.54,38.13v-.91l.75-.47.1.06v.79l-.85.54"/>
      <path class="cls-1" d="M52.54,37.22v-.19l.7-.45s.03-.01.04-.01c.01,0,.03,0,.04.01l.07.04v.18l-.1-.06-.75.47M53.28,36.65l-.04.07.04-.07"/>
      <path class="cls-1" d="M53.39,41.51l-.85-.49v-.15l.85.49v.15M52.54,38.28v-.15l.85-.54v.15l-.85.54"/>
      <path class="cls-5" d="M53.39,41.18l-.85-.49v-2.22l.85-.54v3.25"/>
      <path class="cls-1" d="M53.39,41.36l-.85-.49v-.18l.85.49v.18M52.54,38.47v-.19l.85-.54v.19l-.85.54"/>
      <path class="cls-8" d="M53.46,45.46s-.03,0-.04-.01l-1.01-.59s-.03-.02-.03-.04l1.09.63h-.01"/>
      <path class="cls-8" d="M53.55,45.32l-.16-.09v-2.28l.16.09v2.28M52.54,44.74l-.16-.09v-2.28l.16.09v2.28"/>
      <path class="cls-7" d="M53.48,45.46l-1.09-.63s0-.02,0-.03v-.15l.16.09v.02l.85.49v-.02l.16.09v.06s-.01.05-.04.07c0,0-.02,0-.03.01"/>
      <path class="cls-8" d="M53.55,42.86l-.16-.09v-.2l.16.09v.2M52.54,42.27l-.16-.09v-.2l.16.09v.2"/>
      <path class="cls-7" d="M53.55,43.04l-.16-.09v-.18l.16.09v.18M53.55,42.66l-.16-.09.16.09M52.54,42.46l-.16-.09v-.18l.16.09v.18M52.54,42.07l-.16-.09.16.09"/>
      <path class="cls-8" d="M53.55,42.48l-.16-.09v-.88l.16.09v.88M52.54,41.89l-.16-.09v-.87l.16.09v.87"/>
      <path class="cls-7" d="M53.55,42.66l-.16-.09v-.18l.16.09v.18M52.54,42.07l-.16-.09v-.18l.16.09v.18"/>
      <path class="cls-8" d="M52.4,36s.01-.01.02-.02l1.01-.63s0,0,0,0l-1.03.65"/>
      <path class="cls-8" d="M52.38,37.13v-.93l.16-.1v.93l-.16.1M53.55,36.72l-.16-.09v-1.05l.16-.1v1.25"/>
      <path class="cls-7" d="M52.38,36.2v-.15s0-.04.02-.05l1.03-.65s.03,0,.04,0,.03,0,.04.01c.03.01.04.04.04.07v.04l-.16.1h0l-.85.53h0s-.16.1-.16.1"/>
      <path class="cls-8" d="M52.38,38.23v-.91l.16-.1v.91l-.16.1M53.39,37.6v-.79l.16.09v.6l-.16.1"/>
      <path class="cls-7" d="M52.38,37.32v-.19l.16-.1v.19l-.16.1M53.55,36.9l-.16-.09v-.18l.16.09v.18"/>
      <path class="cls-7" d="M53.55,41.6l-.16-.09v-.15l.16.09v.15M52.54,41.02l-.16-.09v-.15l.16.09v.15M52.38,38.38v-.15l.16-.1v.15l-.16.1M53.39,37.74v-.15l.16-.1v.15l-.16.1"/>
      <path class="cls-8" d="M53.55,41.27l-.16-.09v-3.25l.16-.1v3.44M52.54,40.69l-.16-.09v-2.03l.16-.1v2.22"/>
      <path class="cls-7" d="M53.55,41.45l-.16-.09v-.18l.16.09v.18M52.54,40.87l-.16-.09v-.18l.16.09v.18M52.38,38.57v-.19l.16-.1v.19l-.16.1M53.39,37.93v-.19l.16-.1v.19l-.16.1"/>
      <path class="cls-5" d="M50.36,43.48l-.85-.49v-2.29l.32.19h0s.03.01.04.01c.01,0,.03,0,.04-.01.15-.09.31-.13.45-.15v2.74M49.51,38.95v-.93l.85-.53v.92l-.85.54"/>
      <path class="cls-1" d="M50.36,43.48l-.85-.49h0s.85.49.85.49h0"/>
      <path class="cls-5" d="M49.79,40.67l-.28-.16v-.2l.28.16v.2"/>
      <path class="cls-1" d="M49.83,40.88l-.32-.19v-.18l.28.16v.14s.02.05.04.07M49.79,40.47l-.28-.16.28.16"/>
      <path class="cls-5" d="M49.88,40.34l-.37-.22v-.99l.85-.54v.91l-.1.06s-.04.04-.04.07c0,.03.02.05.04.07l.1.06v.52h-.02c-.16,0-.32.02-.46.05"/>
      <path class="cls-1" d="M49.79,40.47l-.28-.16v-.18l.37.22c.14-.03.3-.05.46-.05h.02-.02v.08-.08c-.18,0-.35.02-.5.06-.04,0-.06.04-.06.08v.04M49.51,39.13v-.19l.85-.54v.19l-.85.54"/>
      <path class="cls-5" d="M49.95,40.68v-.19c.12-.03.25-.04.4-.04v-.08.08h.02v.13c-.13.01-.27.04-.41.11"/>
      <path class="cls-1" d="M49.87,40.89s-.03,0-.04,0h0s-.04-.04-.04-.07v-.34s0-.04,0-.04c0-.04.02-.07.06-.08.15-.04.32-.06.5-.06v.16c-.14,0-.28.01-.4.04v.19c.14-.06.28-.1.41-.11v.16c-.15.01-.3.06-.45.15-.01,0-.03.01-.04.01M50.36,40.45h-.02v-.16h.02v.16"/>
      <path class="cls-1" d="M50.36,39.77l-.1-.06s-.04-.04-.04-.07c0-.03.01-.05.04-.07l.1-.06v.26"/>
      <path class="cls-8" d="M50.43,43.7s-.02,0-.03-.01l-1.01-.59s-.01,0-.02-.01l1.05.61"/>
      <path class="cls-8" d="M50.52,43.57l-.16-.09v-2.74s.06,0,.09,0h0s.05,0,.07,0v2.83M49.51,42.98l-.16-.09v-2.29l.16.09v2.29M49.35,39.05v-.94l1.17-.73v.94l-.16.1v-.92l-.85.53v.93l-.16.1"/>
      <path class="cls-7" d="M50.44,43.7h-.01l-1.05-.61s-.02-.03-.02-.06v-.14l.16.09h0s.85.5.85.5h0s.16.09.16.09v.05s-.01.06-.04.07c-.01,0-.03.01-.04.01M49.35,38.11v-.13s.01-.05.04-.07l1.01-.63s.03-.01.04-.01c.01,0,.03,0,.04.01.03.01.04.04.04.07v.03l-1.17.73"/>
      <path class="cls-8" d="M49.51,40.51l-.16-.09v-.2l.16.09v.2"/>
      <path class="cls-7" d="M49.51,40.69l-.16-.09v-.18l.16.09v.18M49.51,40.31l-.16-.09.16.09"/>
      <path class="cls-8" d="M50.52,40.3c-.05,0-.1,0-.16,0v-.52l.16.09v.44M49.51,40.13l-.16-.09v-.8l.16-.1v.99M50.36,39.51v-.91l.16-.1v.91l-.16.1"/>
      <path class="cls-7" d="M49.51,40.31l-.16-.09v-.18l.16.09v.18M49.35,39.23v-.19l.16-.1v.19l-.16.1M50.36,38.6v-.19l.16-.1v.19l-.16.1"/>
      <path class="cls-8" d="M50.36,40.57v-.13c.05,0,.11,0,.16,0v.11s-.05,0-.07,0h0s-.06,0-.09,0"/>
      <path class="cls-7" d="M50.36,40.73v-.16s.06,0,.09,0h0s.05,0,.07,0v.16s-.04,0-.07,0h0s-.06,0-.09,0M50.52,40.46c-.05,0-.1,0-.16,0v-.16c.05,0,.11,0,.16,0v.16"/>
      <path class="cls-8" d="M50.46,39.65h0s0-.01,0-.01h0"/>
      <path class="cls-7" d="M50.52,39.86l-.16-.09v-.26l.16-.1v.15h-.02s-.04.05-.04.08h0s0,.01,0,.01c0,.03.02.05.04.06h.02v.15"/>
      <path class="cls-7" d="M50.52,39.71h-.02s-.04-.04-.04-.07h0s.01-.06.04-.08h.02s0,.15,0,.15"/>
      <path class="cls-5" d="M55.1,46.12v-2.77l.23.14s.03.01.04.01h0l1.66-.05v1.44l-1.94,1.22M57.03,38.74l-1.94-1.13v-1.94l1.94,1.12v1.94"/>
      <path class="cls-1" d="M55.1,46.14v-.02l1.94-1.22h0s-1.94,1.24-1.94,1.24M57.03,36.8l-1.94-1.12h0s1.94,1.11,1.94,1.11h0"/>
      <path class="cls-5" d="M55.39,43.35l-.3-.18v-.2l.27.17h0s.03.01.04.01h0l1.63-.06v.23l-1.64.05"/>
      <path class="cls-1" d="M55.37,43.51s-.03,0-.04-.01l-.23-.14v-.19l.3.18,1.64-.05v.16l-1.66.05h0M55.41,43.14s-.03,0-.04-.01c.01,0,.03.01.04.01h0,0M55.41,43.14l1.63-.07h0s-1.63.07-1.63.07"/>
      <path class="cls-5" d="M55.43,42.98l-.33-.2v-1.2l1.1.63s.03.01.04.01.03,0,.04-.01l.4-.23s.04-.04.04-.07-.01-.05-.04-.07l-1.11-.64s-.03-.01-.04-.01-.03,0-.04.01l-.39.22v-.31l1.94-1.23v.36l-.05.03s-.04.04-.04.07.01.05.04.07l.05.03v.1l-.2-.12s-.03-.01-.04-.01-.03,0-.04.01l-.4.23s-.04.04-.04.07.01.05.04.07l.68.39v.11l-.84-.48s-.03-.01-.04-.01-.03,0-.04.01l-.4.23s-.04.04-.04.07.01.05.04.07l1.32.76v.98l-1.61.07M57.03,39.05l-1.94-1.11v-.13l1.94,1.13v.12"/>
      <path class="cls-1" d="M55.41,43.14s-.03,0-.04-.01h0l-.27-.17v-.19l.33.2,1.61-.07v.16l-1.63.07h0M57.03,38.93l-1.94-1.13v-.18l1.94,1.13v.18"/>
      <path class="cls-1" d="M55.1,41.11v-.15l1.94-1.23v.15l-1.94,1.23M57.03,39.19l-1.94-1.11v-.15l1.94,1.11v.14"/>
      <path class="cls-5" d="M55.1,40.78v-2.52l1.94,1.11v.18l-1.94,1.23"/>
      <path class="cls-1" d="M55.1,40.97v-.19l1.94-1.23v.19l-1.94,1.23M57.03,39.37l-1.94-1.11v-.18l1.94,1.11v.18"/>
      <path class="cls-1" d="M57.03,40.44l-.05-.03s-.04-.04-.04-.07.01-.05.04-.07l.05-.03v.19"/>
      <path class="cls-5" d="M57.03,41.01l-.49-.28.24-.14.24.14v.28"/>
      <path class="cls-1" d="M57.03,41.19l-.68-.39s-.04-.04-.04-.07.01-.05.04-.07l.4-.23s.03-.01.04-.01.03,0,.04.01l.2.12v.18l-.24-.14-.24.14.49.28v.18"/>
      <path class="cls-5" d="M57.03,41.76l-1.12-.64.24-.14.88.5v.28"/>
      <path class="cls-1" d="M57.03,41.94l-1.32-.76s-.04-.04-.04-.07.01-.05.04-.07l.4-.23s.03-.01.04-.01.03,0,.04.01l.84.48v.18l-.88-.5-.24.14,1.12.64v.18"/>
      <path class="cls-5" d="M56.23,42.05l-.95-.55.24-.14.96.55-.24.14"/>
      <path class="cls-1" d="M56.23,42.22s-.03,0-.04-.01l-1.1-.63v-.15l.39-.22s.03-.01.04-.01.03,0,.04.01l1.11.64s.04.04.04.07-.01.05-.04.07l-.4.23s-.03.01-.04.01M56.23,42.14l.04-.07-.04.07M55.52,41.36l-.24.14.95.55.24-.14-.96-.55"/>
      <path class="cls-8" d="M55.02,46.37s-.03,0-.04,0c-.02-.01-.03-.03-.04-.05l.04.02s.03.01.04.01c.01,0,.03,0,.04-.01l2.12-1.33s-.01.02-.03.03l-2.09,1.33s-.03.01-.04.01M57.18,36.7l-.03-.02h0s.02,0,.03.02M57.15,36.68l-2.13-1.24h0s.03,0,.04.01l2.09,1.22h0"/>
      <path class="cls-8" d="M55.02,46.17l-.08-.04v-2.87l.16.1v2.77l-.08.05M57.03,44.9v-1.44h.16s0,1.34,0,1.34l-.16.1M57.19,38.84l-.16-.09v-1.94l.16.09v1.94M55.1,37.62l-.16-.09v-1.94l.16.09v1.94"/>
      <path class="cls-7" d="M55.02,46.34s-.03,0-.04-.01l-.04-.02s0-.01,0-.03v-.16l.08.04.08-.05v.02l1.94-1.23h0s.16-.11.16-.11v.15s0,.03-.01.04l-2.12,1.33s-.03.01-.04.01M55.02,46.26l.04-.07-.04.07M57.19,36.89l-.16-.09h0s-1.94-1.14-1.94-1.14h0s-.16-.08-.16-.08v-.06s.01-.06.04-.07c.01,0,.02,0,.04-.01l2.13,1.24-.04.06.04-.06.03.02s.01.03.01.04v.15"/>
      <path class="cls-8" d="M57.03,43.3v-.23h.16s0,.22,0,.22h-.16M55.1,43.17l-.16-.1v-.2l.16.1v.2"/>
      <path class="cls-7" d="M57.03,43.46v-.16h.16s0,.15,0,.15h-.16M55.1,43.35l-.16-.1v-.19l.16.1v.19M57.03,43.08h0s.16-.01.16-.01h0s-.16.01-.16.01"/>
      <path class="cls-8" d="M57.03,42.92v-.98l.16.09v.88h-.16M55.1,42.78l-.16-.1v-1.47l.16-.1v.31h-.01s-.04.05-.04.08.01.05.04.07h.01v1.21M57.19,41.39l-.16-.09v-.11l.16.09v.11M57.19,40.64l-.16-.09v-.1l.16.09v.1M57.03,40.25v-.36l.16-.1v.37l-.16.09M57.19,39.14l-.16-.09v-.12l.16.09v.12M55.1,37.93l-.16-.09v-.13l.16.09v.13"/>
      <path class="cls-7" d="M57.03,43.07v-.16h.16s0,.15,0,.15h-.16M55.1,42.97l-.16-.1v-.19l.16.1v.19M57.19,39.02l-.16-.09v-.18l.16.09v.18M55.1,37.8l-.16-.09v-.18l.16.09v.18"/>
      <path class="cls-7" d="M54.94,41.21v-.15l.16-.1v.15l-.16.1M57.03,39.89v-.15l.16-.1v.15l-.16.1M57.19,39.28l-.16-.09v-.14l.16.09v.15M55.1,38.08l-.16-.09v-.15l.16.09v.15"/>
      <path class="cls-8" d="M54.94,40.88v-2.71l.16.09v2.52l-.16.1M57.03,39.55v-.18l.15.09-.15.1"/>
      <path class="cls-7" d="M54.94,41.07v-.19l.16-.1v.19l-.16.1M57.03,39.74v-.19l.15-.1-.15-.09v-.18l.16.09v.36l-.16.1M55.1,38.26l-.16-.09v-.18l.16.09v.18"/>
      <path class="cls-8" d="M57.19,40.35h-.01s.01-.01.01-.01h0"/>
      <path class="cls-7" d="M57.19,40.54l-.16-.09v-.19l.16-.09v.18h-.01s.01.01.01.01v.18"/>
      <path class="cls-8" d="M57.19,41.1l-.16-.09v-.28l.16.09v.28"/>
      <path class="cls-7" d="M57.19,41.28l-.16-.09v-.18l.16.09v.18M57.19,40.82l-.16-.09v-.18l.16.09v.18"/>
      <path class="cls-8" d="M57.19,41.85l-.16-.09v-.28l.16.09v.28"/>
      <path class="cls-7" d="M57.19,42.03l-.16-.09v-.18l.16.09v.18M57.19,41.57l-.16-.09v-.18l.16.09v.18"/>
      <path class="cls-7" d="M55.1,41.58h-.01s-.04-.05-.04-.08.01-.05.04-.07h.01s0,.15,0,.15"/>
      <path class="cls-5" d="M43.61,41.83h0s0,0,0,0h0s0,0,0,0Z"/>
      <path class="cls-7" d="M43.61,41.83h.08s-.08,0-.08,0l-.04.07h0s.04-.06.04-.06l-.04-.07h0s.04.07.04.07h.08-.08l.04.07h0s.04-.04.04-.07c0-.03-.01-.05-.04-.07h0s-.06-.02-.08,0c-.03.01-.04.04-.04.07h0s.01.06.04.07.05.01.08,0l-.04-.07"/>
      <g class="cls-11">
        <path class="cls-5" d="M74.39,47.34h0s0,0,0,0h0s0,0,0,0Z"/>
      </g>
      <g class="cls-19">
        <path class="cls-7" d="M74.39,47.34h-.08s.08,0,.08,0l.04-.07h0s-.04.07-.04.07l.04.07h0s-.04-.07-.04-.07h-.08.08l-.04-.07h0s-.04.04-.04.07.01.06.04.07h0s.06.02.08,0c.03-.01.04-.04.04-.07h0s-.01-.06-.04-.07c-.03-.01-.05-.01-.08,0l.04.07"/>
      </g>
      <g class="cls-15">
        <path class="cls-5" d="M64.19,52.42l10.2-6.45v1.37l-10.2,6.46v-1.37"/>
      </g>
      <g class="cls-21">
        <path class="cls-7" d="M64.19,52.42l.04.07,10.08-6.38v1.18l-10.04,6.35v-1.23h-.08l.04.07-.04-.07h-.08v1.37s.01.06.04.07c.03.01.06.01.08,0l10.2-6.45s.04-.04.04-.07v-1.37s-.01-.06-.04-.07-.06-.01-.08,0l-10.2,6.45s-.04.04-.04.07h.08"/>
      </g>
      <path class="cls-5" d="M67.6,50.78l2.25-1.42v.34l-2.25,1.42v-.34"/>
      <path class="cls-7" d="M67.6,50.78l.04.07,2.13-1.34v.15l-2.09,1.31v-.2h-.08l.04.07-.04-.07h-.08v.34s.01.06.04.07.06.01.08,0l2.25-1.42s.04-.04.04-.07v-.34s-.02-.06-.04-.07-.06-.01-.08,0l-2.25,1.42s-.04.04-.04.07h.08"/>
      <path class="cls-5" d="M64.19,52.42l-20.57-11.97v1.37l20.57,11.97v-1.37"/>
      <path class="cls-7" d="M64.19,52.42l.04-.07-20.57-11.97s-.06-.01-.08,0c-.03.01-.04.04-.04.07v1.37s.01.05.04.07l20.57,11.97s.05.01.08,0,.04-.04.04-.07v-1.37s-.01-.05-.04-.07l-.04.07h-.08v1.23l-20.42-11.88v-1.19l20.45,11.9.04-.07h-.08.08"/>
      <path class="cls-5" d="M47.22,43.03l-2.14-1.21v.39l2.14,1.21v-.39"/>
      <path class="cls-7" d="M47.22,43.03l.04-.07-2.14-1.21s-.05-.01-.08,0-.04.04-.04.07v.39s.01.05.04.07l2.14,1.21s.05.01.08,0,.04-.04.04-.07v-.39s-.01-.05-.04-.07l-.04.07h-.08v.25l-1.98-1.12v-.21l2.02,1.14.04-.07h-.08.08"/>
      <path class="cls-5" d="M48.82,43.91l-1.07-.6v.39l1.07.6v-.39"/>
      <path class="cls-7" d="M48.82,43.91l.04-.07-1.07-.6s-.05-.01-.08,0-.04.04-.04.07v.39s.01.06.04.07l1.07.6s.06.01.08,0c.03-.01.04-.04.04-.07v-.39s-.01-.06-.04-.07l-.04.07h-.08v.25l-.91-.52v-.21l.95.54.04-.07h-.08.08"/>
      <path class="cls-5" d="M69.05,46.45c.2,1.76-1.74,3.16-4.35,3.12s-4.88-1.48-5.08-3.24c-.2-1.76,1.74-3.16,4.35-3.12,2.6.03,4.88,1.48,5.08,3.24"/>
      <path class="cls-7" d="M69.05,46.45h-.08c0,.09.01.17.01.25,0,.78-.44,1.47-1.19,1.98-.75.5-1.8.82-3.01.82h-.09c-1.29-.02-2.49-.38-3.4-.96-.91-.58-1.51-1.36-1.6-2.21-.01-.08-.01-.16-.01-.24,0-.78.44-1.47,1.19-1.98.75-.51,1.8-.82,3.01-.82h.09c1.29.02,2.49.38,3.4.96.91.58,1.51,1.36,1.6,2.21h.08s.08-.02.08-.02c-.11-.91-.74-1.73-1.68-2.32-.93-.6-2.17-.97-3.48-.99h-.09c-1.23,0-2.31.32-3.09.84-.78.53-1.26,1.27-1.26,2.11,0,.09,0,.17.01.26.1.91.74,1.73,1.68,2.33.93.6,2.17.97,3.48.99h.09c1.23,0,2.31-.32,3.09-.84s1.26-1.27,1.26-2.11c0-.09,0-.17-.01-.26h-.08"/>
      <path class="cls-5" d="M69.06,46.88v-.76l-9.45-.47v.52l9.45.71"/>
      <path class="cls-7" d="M69.06,46.88h.08v-.76s-.03-.08-.08-.08l-9.45-.47s-.04,0-.06.02-.03.04-.03.06v.52s.03.08.08.08l9.44.71s.04,0,.06-.02.03-.04.03-.06h-.08v-.08s-9.37-.71-9.37-.71v-.36l9.29.46v.69h.08v-.08s0,.08,0,.08"/>
      <path class="cls-5" d="M69.05,46.09c.2,1.76-1.74,3.16-4.35,3.12-2.6-.03-4.88-1.48-5.08-3.24-.2-1.76,1.74-3.16,4.35-3.12,2.6.03,4.88,1.48,5.08,3.24"/>
      <path class="cls-7" d="M69.05,46.09h-.08c0,.09.01.17.01.25,0,.78-.44,1.47-1.19,1.98-.75.5-1.8.82-3.01.82h-.09c-1.29-.02-2.49-.38-3.4-.96-.91-.58-1.51-1.36-1.6-2.21-.01-.08-.01-.16-.01-.24,0-.78.44-1.47,1.19-1.98.75-.51,1.8-.82,3.01-.82h.09c1.29.02,2.49.38,3.4.96.91.58,1.51,1.36,1.6,2.21h.08s.08-.02.08-.02c-.1-.91-.74-1.73-1.68-2.32-.93-.6-2.17-.97-3.48-.99h-.09c-1.23,0-2.31.32-3.09.84s-1.26,1.27-1.26,2.11c0,.09,0,.17.01.26.1.91.74,1.73,1.68,2.33.93.6,2.17.97,3.48.99h.09c1.23,0,2.31-.32,3.09-.84.78-.53,1.26-1.27,1.26-2.11,0-.09,0-.17-.01-.26h-.08"/>
      <path class="cls-5" d="M67.1,45.94c.12,1.03-1.02,1.85-2.55,1.83s-2.86-.87-2.98-1.9c-.12-1.03,1.02-1.85,2.55-1.83s2.86.87,2.98,1.9"/>
      <path class="cls-7" d="M67.1,45.94h-.08c0,.05,0,.1,0,.15,0,.44-.25.84-.68,1.13-.43.29-1.04.47-1.74.47h-.05c-.75,0-1.45-.22-1.97-.56-.26-.17-.48-.36-.64-.58s-.26-.45-.29-.69c0-.05,0-.09,0-.14,0-.44.25-.84.68-1.13.43-.29,1.04-.47,1.74-.47h.05c.75,0,1.45.22,1.97.56.26.17.48.36.64.58.16.21.26.45.29.69h.08s.08-.02.08-.02c-.06-.55-.45-1.03-1-1.39-.55-.35-1.28-.57-2.06-.58h-.05c-.73,0-1.37.19-1.83.5-.46.31-.75.76-.75,1.26,0,.05,0,.1,0,.15.06.55.44,1.03,1,1.39.55.35,1.28.57,2.06.58h.05c.73,0,1.37-.19,1.83-.5.46-.31.75-.76.75-1.26,0-.05,0-.1,0-.15h-.08"/>
      <path class="cls-5" d="M67.1,45.94c.12,1.03-1.02,1.85-2.55,1.83s-2.86-.87-2.98-1.9c-.12-1.03,1.02-1.85,2.55-1.83s2.86.87,2.98,1.9"/>
      <path class="cls-7" d="M67.1,45.94h-.08c0,.05,0,.1,0,.15,0,.44-.25.84-.68,1.13-.43.29-1.04.47-1.74.47h-.05c-.75,0-1.45-.22-1.97-.56-.26-.17-.48-.36-.64-.58s-.26-.45-.29-.69c0-.05,0-.09,0-.14,0-.44.25-.84.68-1.13.43-.29,1.04-.47,1.74-.47h.05c.75,0,1.45.22,1.97.56.26.17.48.36.64.58.16.21.26.45.29.69h.08s.08-.02.08-.02c-.06-.55-.45-1.03-1-1.39-.55-.35-1.28-.57-2.06-.58h-.05c-.73,0-1.37.19-1.83.5-.46.31-.75.76-.75,1.26,0,.05,0,.1,0,.15.06.55.44,1.03,1,1.39.55.35,1.28.57,2.06.58h.05c.73,0,1.37-.19,1.83-.5.46-.31.75-.76.75-1.26,0-.05,0-.1,0-.15h-.08"/>
      <path class="cls-5" d="M61.58,45.89c.14-.86,1.19-1.51,2.54-1.49,1.52.02,2.84.86,2.97,1.88.02-.11.02-.22,0-.34-.12-1.03-1.45-1.88-2.98-1.9s-2.67.8-2.55,1.83v.02"/>
      <path class="cls-7" d="M61.58,45.89h.08c.06-.39.34-.74.76-1s1-.41,1.65-.41h.05c.74,0,1.44.22,1.96.55.52.33.87.78.93,1.26,0,.04.04.07.08.07s.07-.03.08-.07c.01-.07.02-.14.02-.21,0-.05,0-.1,0-.15-.06-.55-.45-1.03-1-1.39-.55-.35-1.28-.57-2.06-.58h-.05c-.73,0-1.37.19-1.83.5-.46.31-.75.76-.75,1.26,0,.05,0,.1,0,.15h0v.03s.04.07.08.07.07-.03.08-.07h-.08s.08-.02.08-.02v-.02s-.08.01-.08.01h.08c0-.06,0-.1,0-.15,0-.44.25-.84.68-1.13.43-.29,1.04-.47,1.74-.47h.05c.75,0,1.45.22,1.97.56.26.17.48.36.64.58.16.21.26.45.29.69,0,.05,0,.09,0,.14,0,.06,0,.12-.01.18h.08s.08,0,.08,0c-.07-.54-.46-1.02-1.01-1.37-.55-.35-1.27-.56-2.04-.58h-.05c-.68,0-1.28.16-1.73.44s-.76.67-.83,1.12h.08s.08,0,.08,0h-.08"/>
      <g class="cls-12">
        <path class="cls-5" d="M62.35,56.77c-.18-.87-.74-1.61-1.37-2.22-1.23-1.18-2.76-2.01-4.32-2.67-1.58-.67-3.21-1.19-4.82-1.77-1.59-.58-3.19-1.24-4.6-2.19-.71-.48-1.44-1.17-1.41-2.1.02-.78.68-1.24,1.36-1.47.35-.12.7-.2,1.06-.26.25-.05.14-.42-.1-.37-.73.14-1.5.32-2.08.81-.29.24-.5.58-.59.95-.1.44-.02.9.17,1.31.38.83,1.19,1.37,1.95,1.83.73.44,1.5.81,2.28,1.15,1.58.68,3.23,1.2,4.85,1.79,1.59.58,3.16,1.23,4.57,2.17,1.33.89,2.95,2.25,2.72,4.04-.24,1.89-2.67,2.29-4.21,2.14-1.85-.18-3.52-1.11-4.9-2.32-1.11-.97-2.06-2.1-2.97-3.25l-.02-.02c-.27-.34-.54-.68-.81-1.02-.62-.78-1.26-1.56-1.95-2.29-.66-.69-1.37-1.35-2.2-1.85-.84-.5-1.78-.81-2.75-.96-.96-.16-1.95-.21-2.92-.05-.47.08-.92.21-1.35.39-.1.04-.12.18-.07.26.06.1.17.11.26.07.89-.38,1.87-.47,2.83-.43.97.05,1.95.23,2.85.58.89.35,1.67.91,2.37,1.56.72.67,1.37,1.41,1.99,2.17.23.28.45.56.68.84-.09-.04-.18-.08-.26-.12-.5-.21-1.04-.34-1.58-.42-.54-.07-1.07-.08-1.6-.01-.7.09-1.39.26-2.07.45-.69.19-1.38.38-2.08.5s-1.41.2-2.12.23c-.67.02-1.36.02-2.02-.08-.32-.05-.63-.12-.94-.23-.29-.1-.56-.25-.82-.42-.4-.26-.79-.55-1.11-.91-.3-.33-.52-.74-.69-1.15-.05-.13-.1-.26-.15-.39-.03-.1-.13-.16-.24-.14-.1.03-.17.14-.14.24.17.48.37.96.67,1.37.28.39.63.72,1.01,1,.49.36,1,.67,1.59.84.64.18,1.31.23,1.97.25,1.46.03,2.91-.16,4.31-.53,1.24-.32,2.52-.77,3.82-.71.54.03,1.07.13,1.58.29.49.15.98.36,1.39.68.09.07.17.14.25.22h0c.72.91,1.46,1.8,2.29,2.62,1.32,1.3,2.87,2.42,4.69,2.89.9.23,1.84.31,2.76.17.85-.13,1.76-.43,2.37-1.06.62-.64.79-1.56.61-2.41"/>
      </g>
      <g class="cls-13">
        <path class="cls-7" d="M62.35,56.77l.08-.02c-.19-.89-.75-1.65-1.39-2.25-1.24-1.19-2.78-2.02-4.35-2.69-1.58-.67-3.22-1.19-4.82-1.78-1.59-.58-3.18-1.23-4.58-2.18-.35-.23-.69-.52-.95-.85-.26-.33-.43-.71-.43-1.14v-.05c.01-.37.17-.65.41-.89.24-.23.56-.4.9-.51.34-.12.69-.19,1.05-.26.06-.01.12-.04.15-.09.04-.05.05-.1.05-.15,0-.07-.03-.14-.08-.2-.05-.06-.12-.1-.21-.1-.02,0-.04,0-.06,0-.73.14-1.52.32-2.12.83-.3.25-.53.6-.61.99-.03.14-.04.27-.04.41,0,.33.08.65.21.95.39.86,1.22,1.41,1.98,1.86.73.44,1.5.82,2.29,1.15,1.59.68,3.23,1.2,4.85,1.79,1.58.58,3.15,1.23,4.55,2.16.62.41,1.3.93,1.82,1.54.52.61.89,1.31.89,2.1,0,.11,0,.22-.02.33-.05.4-.2.73-.43,1-.33.41-.83.68-1.39.86-.55.17-1.17.25-1.72.25-.21,0-.41-.01-.59-.03-1.83-.17-3.48-1.1-4.85-2.3-1.11-.96-2.05-2.09-2.97-3.24l-.02-.02c-.27-.34-.54-.68-.81-1.02-.62-.78-1.26-1.56-1.95-2.29-.66-.7-1.38-1.36-2.21-1.86-.85-.51-1.8-.81-2.78-.98-.56-.09-1.13-.15-1.7-.15-.41,0-.83.03-1.24.1-.47.08-.93.21-1.37.4-.05.02-.09.06-.11.1-.02.04-.03.09-.03.14,0,.05.01.1.04.14h0s.06.08.1.1c.04.02.09.03.13.03.05,0,.09-.01.14-.03h0c.74-.31,1.54-.43,2.35-.43.15,0,.3,0,.45.01.96.05,1.93.23,2.83.58.88.34,1.65.9,2.34,1.55.71.67,1.36,1.41,1.98,2.16.23.28.45.56.68.84l.06-.05.03-.07c-.09-.04-.18-.08-.27-.12-.51-.21-1.05-.35-1.6-.42-.29-.04-.59-.06-.88-.06-.25,0-.5.01-.74.05-.71.09-1.4.27-2.08.45-.69.19-1.37.38-2.07.5s-1.4.2-2.11.23c-.2,0-.41.01-.61.01-.47,0-.94-.02-1.39-.09-.31-.05-.63-.12-.92-.22-.28-.1-.54-.24-.8-.41-.4-.26-.78-.54-1.09-.89-.29-.32-.51-.72-.68-1.13-.05-.13-.1-.26-.15-.39-.02-.06-.05-.1-.1-.14s-.1-.06-.16-.06c-.02,0-.05,0-.07.01-.06.02-.11.05-.14.1-.04.05-.06.1-.06.17,0,.03,0,.05.01.08h0c.17.48.38.97.68,1.39.29.4.64.73,1.03,1.02.49.36,1.02.68,1.62.85.65.19,1.33.24,1.99.25.11,0,.22,0,.33,0,1.35,0,2.7-.19,4-.53,1.17-.3,2.35-.71,3.54-.71.09,0,.17,0,.25,0,.53.03,1.05.12,1.56.28.49.15.96.36,1.36.66.08.06.16.14.24.21h0s0,0,0,0l.05-.06-.06.05c.72.91,1.46,1.8,2.29,2.63,1.32,1.31,2.89,2.43,4.72,2.91.6.16,1.22.24,1.84.24.32,0,.64-.02.95-.07.86-.13,1.78-.44,2.42-1.08.48-.49.7-1.15.7-1.82,0-.22-.03-.45-.07-.66l-.16.03c.04.21.07.42.07.63,0,.63-.2,1.25-.66,1.71-.59.61-1.49.91-2.32,1.03-.31.05-.62.07-.93.07-.61,0-1.21-.08-1.8-.24-1.8-.47-3.34-1.57-4.65-2.87-.82-.81-1.56-1.71-2.28-2.61h-.01s0-.01,0-.01l-.05.06.06-.06c-.08-.08-.16-.15-.25-.22-.42-.32-.91-.54-1.41-.69-.52-.16-1.06-.26-1.6-.29-.09,0-.18,0-.26,0-1.23,0-2.43.42-3.58.72-1.3.34-2.63.53-3.96.53-.11,0-.22,0-.33,0-.66-.01-1.32-.07-1.95-.25-.57-.17-1.08-.47-1.57-.83-.38-.28-.72-.6-1-.99h0c-.29-.41-.49-.88-.66-1.35v-.03s0-.05.02-.07c.02-.02.04-.04.06-.04.01,0,.02,0,.03,0,.02,0,.05,0,.07.02.02.01.04.04.05.06.05.13.1.27.15.4.17.43.41.84.71,1.18.33.37.72.66,1.12.92.26.17.53.32.84.43.31.11.63.18.95.23.47.07.95.09,1.42.09.21,0,.41,0,.62-.01.72-.03,1.43-.1,2.14-.23.71-.13,1.4-.32,2.08-.51.68-.19,1.36-.36,2.06-.45.24-.03.48-.05.72-.05.29,0,.57.02.86.06.53.07,1.06.21,1.56.41.09.04.18.08.26.12.03.02.07,0,.1-.02.02-.03.02-.07,0-.1-.22-.28-.45-.56-.68-.84-.62-.76-1.28-1.5-2-2.18-.7-.65-1.49-1.23-2.4-1.58-.91-.36-1.9-.54-2.88-.59-.15,0-.3-.01-.46-.01-.82,0-1.65.12-2.41.44h0s-.05.02-.07.02c-.02,0-.04,0-.05-.01-.01,0-.03-.02-.04-.04,0-.01-.01-.04-.01-.06,0-.02,0-.05.01-.06,0-.02.02-.03.03-.03.43-.18.87-.31,1.33-.39.4-.06.81-.09,1.22-.09.56,0,1.12.06,1.68.15.95.16,1.89.46,2.72.95.81.49,1.52,1.14,2.18,1.83.69.72,1.32,1.5,1.94,2.28.27.34.54.68.81,1.02l.02.02h0c.92,1.15,1.87,2.29,2.98,3.26,1.38,1.21,3.07,2.16,4.94,2.34.19.02.39.03.61.03.76,0,1.62-.13,2.33-.47.35-.17.67-.4.91-.69s.41-.65.46-1.08c.01-.12.02-.23.02-.35,0-.84-.39-1.57-.92-2.2-.54-.63-1.23-1.15-1.86-1.57-1.42-.95-3-1.6-4.58-2.18-1.62-.59-3.26-1.11-4.84-1.79-.78-.33-1.54-.71-2.27-1.14-.76-.45-1.56-.99-1.92-1.79-.13-.28-.2-.58-.2-.89,0-.13.01-.25.04-.38.08-.35.29-.67.56-.9.56-.47,1.31-.65,2.04-.79h.03s.06.01.09.04c.02.03.04.06.04.09,0,.02,0,.04-.02.05-.01.01-.03.03-.06.03-.36.07-.72.15-1.08.27-.35.12-.69.29-.95.55s-.45.58-.46,1v.05c0,.47.19.89.46,1.24s.63.64.99.88c1.42.96,3.02,1.62,4.62,2.2,1.61.59,3.24,1.1,4.82,1.77,1.55.66,3.08,1.49,4.3,2.66.62.6,1.17,1.33,1.34,2.17l.08-.02"/>
      </g>
      <g class="cls-20">
        <path class="cls-5" d="M35.12,50.61c0,.77-.63,1.39-1.4,1.39s-1.4-.62-1.4-1.39.63-1.39,1.4-1.39,1.4.62,1.4,1.39"/>
      </g>
      <g class="cls-17">
        <path class="cls-7" d="M35.12,50.61h-.08c0,.36-.15.69-.39.93-.24.24-.57.39-.93.39s-.69-.15-.93-.39c-.24-.24-.39-.56-.39-.93s.15-.69.39-.93c.24-.24.57-.38.93-.38s.69.15.93.38c.24.24.39.57.39.93h.16c0-.81-.66-1.47-1.48-1.47s-1.48.66-1.48,1.47.66,1.47,1.48,1.47,1.48-.66,1.48-1.47h-.08"/>
      </g>
      <path class="cls-5" d="M39.47,47.76c0,.77-.63,1.39-1.4,1.39s-1.4-.62-1.4-1.39.63-1.39,1.4-1.39,1.4.62,1.4,1.39"/>
      <path class="cls-7" d="M39.47,47.76h-.08c0,.36-.15.69-.39.93-.24.24-.57.39-.93.39s-.69-.15-.93-.39c-.24-.24-.39-.56-.39-.93s.15-.69.39-.93c.24-.24.57-.38.93-.38s.69.15.93.38c.24.24.39.56.39.93h.16c0-.81-.66-1.47-1.48-1.47s-1.48.66-1.48,1.47.66,1.47,1.48,1.47,1.48-.66,1.48-1.47h-.08"/>
      <path class="cls-5" d="M39.36,47.55c0,.57-.46,1.03-1.03,1.03s-1.03-.46-1.03-1.03.46-1.03,1.03-1.03,1.03.46,1.03,1.03"/>
      <path class="cls-7" d="M39.36,47.55h-.08c0,.26-.11.5-.28.67-.17.17-.41.28-.67.28s-.5-.11-.67-.28c-.17-.17-.28-.41-.28-.67s.11-.5.28-.67c.17-.17.41-.28.67-.28s.5.1.67.28c.17.17.28.41.28.67h.16c0-.61-.5-1.1-1.11-1.1s-1.11.49-1.11,1.1.49,1.1,1.11,1.1,1.11-.49,1.11-1.1h-.08"/>
      <path class="cls-5" d="M39.36,47.46c0,.52-.42.94-.94.94s-.94-.42-.94-.94.42-.94.94-.94.94.42.94.94"/>
      <path class="cls-7" d="M39.36,47.46h-.08c0,.24-.1.45-.25.61-.16.15-.37.25-.61.25s-.45-.1-.61-.25c-.16-.16-.25-.37-.25-.61s.1-.45.25-.6.37-.25.61-.25.45.1.61.25c.15.16.25.37.25.6h.16c0-.56-.45-1.01-1.02-1.01s-1.02.45-1.02,1.01.45,1.01,1.02,1.01,1.02-.45,1.02-1.01h-.08"/>
      <path class="cls-5" d="M38.34,46.61c-.24,0-.45.09-.62.23-.14.16-.23.38-.23.61,0,.52.42.94.94.94.24,0,.45-.09.62-.23.14-.16.23-.38.23-.61,0-.52-.42-.94-.94-.94"/>
      <path class="cls-7" d="M38.34,46.61v-.08c-.26,0-.49.1-.67.25h0c-.16.19-.25.42-.25.67,0,.56.45,1.01,1.02,1.01.26,0,.49-.1.67-.25h0c.16-.19.25-.42.25-.67,0-.56-.45-1.01-1.02-1.01v.16c.24,0,.45.1.61.25.16.15.25.37.25.6,0,.22-.08.41-.21.56l.06.05-.05-.06c-.15.13-.35.21-.56.21-.24,0-.45-.1-.61-.25-.16-.16-.25-.37-.25-.61,0-.21.08-.41.21-.56l-.06-.05.05.06c.15-.13.35-.21.56-.21v-.08"/>
      <path class="cls-5" d="M38.96,47.46c0,.3-.24.54-.54.54s-.54-.24-.54-.54.24-.54.54-.54.54.24.54.54"/>
      <path class="cls-7" d="M38.96,47.46h-.08c0,.13-.05.24-.13.32-.08.08-.2.13-.32.13s-.24-.05-.32-.13c-.08-.08-.13-.2-.13-.32s.05-.24.13-.32.2-.13.32-.13.24.05.32.13c.08.08.13.2.13.32h.16c0-.34-.28-.61-.62-.61s-.62.28-.62.61.28.61.62.61.61-.28.62-.61h-.08"/>
    </g>
    <g class="cls-10">
      <g class="cls-22">
        <path class="cls-6" d="M77.01,32.48c-.19-.03-.34-.06-.49-.09-1.84-.33-2.98-1.72-3.05-3.56-.03-.94.21-1.81.67-2.63,1.01-1.79,2.42-3.15,4.28-4.04.64-.31,1.32-.53,2.04-.55.49,0,.99,0,1.48.04.9.08,1.67.48,2.37,1.02.79.59,1.3,1.4,1.68,2.29.23.55.27,1.15.23,1.74-.08,1.14-.47,2.17-1.11,3.1-.19.28-.42.54-.67.77-1.2,1.09-2.6,1.79-4.2,2.06-.32.05-.63.03-.94-.03-.17-.03-.32,0-.45.11-.3.26-.61.52-.91.79-.26.25-.5.52-.75.78-.08.08-.16.16-.24.23-.1.08-.21.12-.33.05-.12-.07-.15-.18-.12-.31s.05-.25.09-.37c.12-.38.24-.77.36-1.15.02-.08.04-.16.07-.27ZM77.13,33.64s.03.02.04.02c.03-.02.05-.04.08-.06.43-.46.89-.87,1.38-1.26.22-.17.42-.23.68-.19.26.04.53.08.79.03,1.55-.26,2.91-.93,4.02-2.06.24-.24.45-.52.63-.8.5-.8.81-1.68.92-2.62.07-.61.04-1.22-.24-1.78-.18-.37-.38-.75-.63-1.09-.61-.84-1.46-1.36-2.44-1.65-1.03-.31-2.06-.24-3.09,0-.25.06-.5.14-.72.26-1.82.93-3.22,2.3-4.16,4.12-.47.92-.66,1.89-.44,2.91.24,1.15.92,1.94,2.03,2.36.38.14.77.23,1.18.23.25,0,.36.13.31.38-.03.15-.07.3-.11.45-.07.25-.15.51-.22.76Z"/>
      </g>
      <path class="cls-6" d="M81.54,28.15c.28-.83.55-1.62.82-2.45-.11-.05-.19-.1-.27-.13-.86-.3-1.73-.59-2.59-.89-.2-.07-.39-.16-.59-.25-.29.75-.57,1.49-.85,2.23-.08.2-.15.4-.22.6-.06.16-.15.27-.32.34-.16.07-.31.18-.46.28-.34.22-.71.34-1.11.34-.2,0-.39-.05-.55-.17-.25-.19-.33-.5-.14-.75.38-.52.89-.82,1.56-.74.16.02.31.12.47.19.06.03.11.08.18.14.11-.29.22-.55.33-.82.25-.59.49-1.18.75-1.77.09-.22.11-.22.35-.2.08,0,.15.02.23.04.64.2,1.27.4,1.91.6.42.13.83.27,1.24.41.1.03.2.06.3.08.28.06.38.21.3.48-.12.39-.26.78-.37,1.17-.05.16-.07.33-.1.5-.04.19-.08.38-.14.57-.09.34-.2.67-.28,1.01-.05.19-.15.31-.33.4-.41.2-.84.22-1.28.23-.29,0-.56-.03-.83-.15-.06-.03-.12-.06-.18-.1-.47-.32-.49-.84-.02-1.16.56-.38,1.17-.4,1.79-.21.13.04.25.1.42.17Z"/>
    </g>
    <path class="cls-2" d="M3.94,6.43c0-.21,0-.43-.02-.64-.02-.43-.04-.86-.08-1.29-.03-.43-.06-.86-.1-1.28l-.12-1.28c-.03-.25-.06-.5-.1-.75-.03-.24-.08-.47-.12-.71-.01-.1-.17-.08-.17.02,0,.22-.02.43-.02.65,0,.21,0,.43,0,.64,0,.43.02.86.03,1.29.02.85.08,1.71.14,2.56.02.26.05.52.07.77.03.24.05.48.11.71.02.09.1.14.19.14.09,0,.15-.08.16-.17.03-.22.03-.43.02-.65Z"/>
    <path class="cls-2" d="M6.08,2.72c-.03-.07-.12-.13-.2-.1-.36.1-.7.24-1.04.38-.33.13-.67.27-1,.42-.33.14-.65.29-.97.44-.33.15-.65.3-.98.45-.37.17-.74.32-1.11.49-.09.04-.03.2.06.16.67-.25,1.34-.5,2.01-.74.33-.12.67-.24,1-.36.18-.07.35-.14.53-.21.17-.07.34-.13.51-.2.37-.16.75-.31,1.1-.5.07-.04.11-.13.08-.21Z"/>
    <path class="cls-2" d="M5.03.47s0,0,0,0c-.03.05-.07.1-.11.15-.04.05-.07.11-.09.16-.06.11-.11.23-.17.34-.12.24-.22.48-.33.72-.21.46-.41.92-.61,1.39-.41.93-.82,1.87-1.19,2.82-.1.26-.21.53-.31.79-.05.13-.1.26-.15.39-.05.14-.09.28-.13.42-.04.15.17.26.25.12.13-.23.25-.46.36-.7.1-.23.21-.47.31-.7.21-.46.4-.93.6-1.39.2-.47.39-.94.58-1.42.19-.47.38-.94.57-1.41.1-.26.22-.52.31-.79.05-.13.09-.26.14-.4.02-.07.05-.13.06-.2,0-.04.01-.08.02-.11,0-.04,0-.08.02-.11.02-.08-.08-.12-.13-.06Z"/>
    <path class="cls-2" d="M5.88,5.62c-.27-.29-.56-.56-.86-.81-.29-.24-.59-.47-.88-.71-.59-.47-1.19-.93-1.79-1.38-.17-.13-.34-.25-.51-.39-.08-.07-.16-.13-.25-.19-.04-.03-.09-.05-.13-.08-.05-.03-.1-.06-.14-.1-.08-.06-.19.07-.11.13.03.03.07.06.1.09.03.04.06.08.1.12.07.07.14.13.21.19.14.12.28.25.42.37.28.25.56.51.84.75.28.25.57.5.86.75.29.24.57.49.86.73.34.29.69.55,1.06.79.08.05.18.03.24-.04.06-.07.06-.18,0-.24Z"/>
    <g class="cls-10">
      <g class="cls-9">
        <path class="cls-6" d="M10.55,8.5c-.17-.05-.34-.07-.52-.07-.16,0-.33,0-.49,0-.33,0-.65,0-.98.02-.65.03-1.3.06-1.94.08-.18,0-.36.02-.55.03-.09,0-.19.01-.28.02-.05,0-.09,0-.14,0-.05,0-.09.02-.14.02-.11,0-.12.16,0,.17.08,0,.16.03.24.03.08,0,.17.01.25.02.16,0,.32.02.49.03.32.02.65.03.97.05.32.02.64.03.96.05.16,0,.32.02.49.02.16,0,.33,0,.49,0,.18,0,.36,0,.55,0,.09,0,.19,0,.28-.02.06,0,.12,0,.18-.02.04,0,.09-.02.14-.03.08-.02.16-.1.16-.19,0-.08-.05-.17-.14-.2Z"/>
      </g>
    </g>
    <path class="cls-2" d="M8.46,6.57c0-.23-.03-.46,0-.69.01-.11-.17-.12-.17,0,0,.21-.04.41-.08.61-.03.2-.05.39-.07.59-.05.4-.08.81-.12,1.21-.07.81-.14,1.61-.18,2.42-.01.22-.02.45-.02.67,0,.06,0,.12,0,.17,0,.07,0,.14.02.21,0,.05.01.1.02.16,0,.03,0,.06,0,.08,0,.04.02.07.04.1.04.1.2.1.25,0,.03-.05.05-.1.06-.16l.03-.15c.02-.11.04-.23.06-.34.02-.2.04-.39.05-.59.03-.41.05-.81.06-1.22.02-.4.03-.8.04-1.21.01-.4.03-.81.03-1.22,0-.22,0-.45,0-.67Z"/>
    <path class="cls-2" d="M10.07,6.34c-.14.15-.29.28-.43.43-.14.14-.28.29-.42.44-.27.29-.54.59-.8.9-.52.62-1.02,1.26-1.49,1.93-.13.19-.26.37-.37.57-.06.1-.12.19-.17.29-.06.1-.11.21-.16.31-.03.06-.02.14.04.18.07.04.14.01.18-.04.06-.08.13-.15.19-.23.06-.08.12-.16.17-.24.12-.16.24-.33.35-.5.23-.33.46-.65.69-.97.47-.65.96-1.28,1.47-1.89.14-.17.29-.34.43-.51.14-.17.28-.35.44-.52.07-.08-.04-.21-.12-.13Z"/>
    <path class="cls-2" d="M10.44,11.01c-.18-.34-.4-.65-.65-.95-.23-.29-.47-.57-.72-.84-.5-.55-1.02-1.08-1.57-1.6-.15-.14-.31-.28-.47-.42-.08-.07-.16-.14-.24-.21-.08-.06-.17-.12-.25-.19-.08-.07-.19.03-.12.11.05.06.11.13.16.19.01.02.03.02.04.03.06.06.12.13.18.19.13.13.26.27.39.4.26.27.51.53.75.81.5.56.97,1.13,1.43,1.72.13.16.26.33.39.49.13.16.28.31.42.46.06.06.14.07.21.02.07-.05.09-.13.05-.2Z"/>
    <path class="cls-2" d="M4.83,11.97c-.07-.03-.14-.06-.21-.08-.09-.02-.19-.04-.29-.05-.15-.02-.3-.04-.45-.05-.31-.03-.61-.05-.92-.06-.31-.01-.61-.02-.92-.01-.31,0-.62.03-.92.05-.17.01-.35.03-.53.05-.09.01-.17.03-.26.04,0,0,0,0,0,0-.01,0-.03,0-.05,0-.07.02-.15.03-.22.05-.1.02-.08.18.02.18.15-.01.31,0,.47,0,.15,0,.3,0,.45,0,.31,0,.61.01.92.03.61.03,1.23.07,1.84.15.17.02.34.05.5.07.09.01.17.02.26.03.1,0,.2,0,.29-.02.08,0,.15-.1.15-.18,0-.09-.05-.15-.14-.19Z"/>
    <g class="cls-10">
      <g class="cls-16">
        <path class="cls-6" d="M2.95,12.72c0-.37,0-.74,0-1.1,0-.37,0-.74-.02-1.11,0-.21-.01-.41-.02-.62v-.32c-.01-.05-.02-.1-.02-.15,0-.05,0-.11,0-.16,0-.11-.17-.12-.17,0,0,.09-.01.18-.02.28,0,.09-.01.19-.02.28-.01.19-.03.37-.04.55-.03.37-.04.73-.06,1.1-.03.74-.06,1.47-.08,2.21,0,.2,0,.41,0,.61,0,.22.01.44.07.66.04.14.25.16.3.01.1-.37.09-.75.1-1.13,0-.37,0-.74,0-1.1Z"/>
      </g>
    </g>
    <path class="cls-2" d="M4.75,10.45c-.09.02-.17.04-.25.07-.1.03-.19.07-.28.11-.16.07-.32.15-.48.23-.32.18-.62.4-.91.63-.56.45-1.05,1-1.43,1.6-.21.34-.4.7-.55,1.08-.04.09.11.16.16.07.16-.31.35-.61.56-.89.05-.07.1-.14.16-.2.01-.02.03-.03.04-.05,0,0,.04-.05.03-.03.03-.04.07-.08.1-.12,0,0,0-.01.01-.01,0,0,0,0,0,0,.01-.02.03-.03.04-.05.03-.04.06-.07.09-.11.06-.06.12-.13.17-.19.24-.25.5-.49.78-.71.07-.05.13-.11.2-.16.02-.01.04-.03.05-.04,0,0,.03-.02.04-.03,0,0-.02,0,0,0,0,0,0,0,0,0,0,0,.01,0,.02-.01.02-.01.04-.03.06-.04.15-.1.3-.19.45-.29.17-.1.34-.2.51-.29.08-.05.17-.09.25-.14.09-.05.17-.1.26-.15.13-.09.06-.29-.1-.26Z"/>
    <path class="cls-2" d="M3.29,11.64s0,0,0,0c0,0,0,0,0,0Z"/>
    <path class="cls-2" d="M4.78,13.88c-.23-.27-.46-.52-.7-.78-.23-.26-.48-.5-.72-.76-.49-.5-.99-.99-1.49-1.49-.14-.14-.28-.28-.42-.41-.14-.14-.29-.27-.43-.41-.08-.08-.2.04-.13.12.23.26.45.53.68.8.23.26.46.52.69.78.46.52.93,1.05,1.41,1.56.27.28.55.56.83.84.07.07.19.08.26,0s.08-.18,0-.26Z"/>
  </g>
</svg>