<?xml version="1.0" encoding="UTF-8"?>
<svg id="sw-js-blob-svg" xmlns="http://www.w3.org/2000/svg" xmlns:xlink="http://www.w3.org/1999/xlink" viewBox="0 0 85.03 75.19">
  <defs>
    <style>
      .cls-1, .cls-2 {
        opacity: .5;
      }

      .cls-1, .cls-3, .cls-4, .cls-5, .cls-6, .cls-7 {
        stroke-width: 0px;
      }

      .cls-1, .cls-7 {
        fill: #ff936c;
      }

      .cls-8 {
        clip-path: url(#clippath-2);
      }

      .cls-9 {
        opacity: .98;
      }

      .cls-4 {
        fill: none;
      }

      .cls-10 {
        clip-path: url(#clippath-1);
      }

      .cls-5 {
        fill: #ffce89;
      }

      .cls-6 {
        fill: #fff;
      }

      .cls-11 {
        clip-path: url(#clippath);
      }
    </style>
    <clipPath id="clippath">
      <rect class="cls-4" x="27.74" y="46.88" width="11.4" height="22.03"/>
    </clipPath>
    <clipPath id="clippath-1">
      <rect class="cls-4" x="1.07" y="2.96" width="9.5" height="10.49" transform="translate(-1.72 1.54) rotate(-13.17)"/>
    </clipPath>
    <clipPath id="clippath-2">
      <rect class="cls-4" x="68.35" y="62.63" width="16.67" height="12.56"/>
    </clipPath>
  </defs>
  <path class="cls-5" d="M69.36,20.34c2.09,8.38,1.3,16.63-1.3,25.31-2.6,8.67-6.88,17.72-13.85,20.84-7.03,2.99-16.66.09-26.52-3.56-9.86-3.65-20.08-7.99-23.78-15.64-3.65-7.53-.96-18.45,4.34-26.08,5.25-7.76,13.17-12.33,21.72-16.09C38.53,1.37,47.75-1.67,54.86,1.03c7.24,2.64,12.28,10.98,14.5,19.31Z"/>
  <g id="Layer_1-2" data-name="Layer 1-2" class="cls-9">
    <path class="cls-6" d="M69.1,51.32c-.28,2.47-.6,5.33-2.87,7.15-2.19,1.76-4.94,1.53-6.6,1.4-1.55-.12-4.23-.34-6.07-2.35-1.21-1.32-1.48-2.77-1.95-5.35-.25-1.38-.46-3.14-.43-5.21,1.23-.09,2.27-1.28,2.19-2.51.67,1.02,1.65,1.92,2.82,2.22.18.05.36.08.55.09.41.03.83-.04,1.21-.19.94-.38,1.68-1.23,1.62-2.23.29.93,1.04,1.68,1.95,2.02.3.11.62.18.94.19.52.02,1.03-.1,1.49-.33.69-.35,1.27-.94,1.55-1.66.6.71,1.46,1.3,2.36,1.43.33.05.67.03,1-.06.31,1.53.48,3.36.25,5.4h0Z"/>
    <path class="cls-3" d="M68.84,51.32c-.23,2.03-.49,4.2-1.74,5.89-1.38,1.85-3.61,2.51-5.82,2.49-.81,0-1.62-.07-2.43-.16-.91-.1-1.82-.27-2.68-.59-1-.38-1.91-.99-2.6-1.81-.56-.67-.91-1.47-1.14-2.31-.33-1.18-.54-2.42-.73-3.63-.21-1.4-.29-2.83-.28-4.25l-.26.26c1.38-.12,2.51-1.37,2.45-2.77-.16.04-.32.09-.48.13.84,1.26,2.17,2.44,3.77,2.44,1.44,0,2.97-1.15,2.9-2.69l-.51.07c.44,1.33,1.69,2.32,3.09,2.4,1.45.08,2.8-.86,3.34-2.18l-.43.11c.88,1.03,2.23,1.8,3.61,1.44-.11-.06-.21-.12-.32-.18.36,1.75.44,3.55.24,5.33-.04.33.48.33.52,0,.2-1.83.1-3.67-.26-5.46-.03-.14-.19-.21-.32-.18-1.2.31-2.36-.43-3.11-1.31-.14-.16-.36-.05-.43.11-.46,1.11-1.65,1.87-2.85,1.8s-2.23-.91-2.59-2.02c-.09-.27-.52-.24-.51.07.06,1.33-1.34,2.26-2.57,2.16-1.33-.1-2.43-1.12-3.14-2.18-.13-.2-.49-.14-.48.13.05,1.1-.82,2.15-1.93,2.25-.14.01-.26.11-.26.26-.03,2.51.3,5.03.88,7.47.21.91.51,1.81,1.04,2.58.62.91,1.49,1.63,2.47,2.12,1.67.82,3.58.99,5.41,1.07,2.26.1,4.59-.36,6.24-2.03,1.79-1.82,2.13-4.42,2.41-6.85.04-.33-.48-.33-.52,0h0Z"/>
    <path class="cls-3" d="M72.11,41.24c-.13,1.08-1.3,1.91-2.36,1.68,1.02.79.36,2.64-.88,3h-.02s-1,.06-1,.06c-.9-.13-1.76-.72-2.36-1.43-.28.72-.86,1.31-1.55,1.66-.46.23-.98.35-1.49.33-.32-.01-.64-.08-.94-.19-.9-.34-1.66-1.09-1.95-2.02.07,1-.68,1.85-1.62,2.23-.39.15-.8.23-1.21.19-.18-.01-.37-.04-.55-.09-1.16-.29-2.14-1.2-2.82-2.22.08,1.23-.96,2.42-2.19,2.51,0,0-.01,0-.01,0-1.23.08-2.41-.96-2.5-2.19-1.39-.17-2.54-1.54-2.43-2.94.11-1.47,1.58-2.69,3.04-2.53-.54-1.16-.26-2.65.67-3.52.93-.87,2.44-1.06,3.56-.44.37-1.07,1.35-1.9,2.46-2.09,1.11-.19,2.31.26,3.02,1.14.71-.96,1.96-1.49,3.15-1.34,1.19.15,2.26.97,2.72,2.07,1.23-.56,2.76-.41,3.85.38s1.71,2.21,1.55,3.55c1.08.03,2.02,1.12,1.88,2.2h0Z"/>
    <path class="cls-3" d="M71.86,41.18c-.14.94-1.08,1.68-2.04,1.5-.23-.04-.47.25-.25.43.46.38.51.96.31,1.49-.09.26-.25.49-.44.69-.11.11-.23.2-.37.28-.05.03-.1.05-.15.07-.05.02-.16.05-.08.03-.19.03-.39.02-.59.03-.16,0-.33.04-.49,0-.83-.16-1.55-.71-2.09-1.34-.14-.16-.36-.05-.43.11-.46,1.11-1.65,1.87-2.85,1.8s-2.23-.91-2.59-2.02c-.09-.27-.52-.24-.51.07.06,1.33-1.34,2.26-2.57,2.16-1.33-.1-2.43-1.12-3.14-2.18-.13-.2-.49-.14-.48.13.05,1.09-.83,2.17-1.94,2.25-1.1.08-2.15-.83-2.25-1.93,0-.1-.07-.23-.19-.25-1.3-.18-2.4-1.42-2.24-2.77.15-1.32,1.47-2.32,2.77-2.2.21.02.29-.23.22-.39-.48-1.05-.22-2.39.61-3.19.85-.82,2.23-.98,3.27-.43.16.08.32,0,.38-.15.35-.97,1.23-1.71,2.24-1.9,1.01-.19,2.13.26,2.8,1.06.12.14.31.07.4-.05.68-.9,1.88-1.39,3-1.2,1.08.18,1.99.93,2.42,1.93.06.14.24.14.35.09,1.17-.52,2.61-.36,3.62.41,1.01.77,1.52,2.05,1.38,3.3-.01.14.13.25.26.26.97.05,1.72.99,1.63,1.94-.03.33.48.33.52,0,.13-1.24-.91-2.39-2.14-2.45.09.09.17.17.26.26.15-1.43-.49-2.89-1.64-3.75-1.18-.88-2.81-1-4.14-.41l.35.09c-.5-1.16-1.62-2.02-2.87-2.19-1.32-.18-2.64.41-3.44,1.46l.4-.05c-.78-.96-2.08-1.42-3.3-1.2-1.2.22-2.19,1.13-2.6,2.26l.38-.15c-1.24-.67-2.87-.48-3.89.51-1.02.99-1.26,2.55-.69,3.81.07-.13.15-.26.22-.39-1.21-.11-2.41.61-2.97,1.67-.59,1.12-.33,2.43.5,3.35.47.51,1.11.87,1.8.97-.06-.08-.13-.17-.19-.25.13,1.36,1.37,2.54,2.77,2.44,1.39-.09,2.52-1.38,2.46-2.77-.16.04-.32.09-.48.13.84,1.26,2.17,2.44,3.77,2.44,1.44,0,2.97-1.15,2.9-2.69l-.51.07c.43,1.33,1.69,2.32,3.09,2.4s2.8-.86,3.34-2.18l-.43.11c.49.57,1.1,1.05,1.81,1.32.25.1.53.19.79.18.2,0,.41-.02.61-.04.14,0,.28,0,.42-.03.27-.06.52-.23.73-.4.42-.35.71-.87.8-1.4.1-.6-.05-1.23-.54-1.63l-.25.43c1.21.24,2.5-.62,2.67-1.86.05-.32-.45-.47-.5-.14h0Z"/>
    <path class="cls-3" d="M58.41,50.18c0,.1-.02.19-.06.28s-.09.17-.16.24c-.07.07-.15.12-.24.16-.09.04-.19.06-.28.06s-.19-.02-.28-.06-.17-.09-.24-.16-.12-.15-.16-.24c-.04-.09-.06-.19-.06-.28s.02-.19.06-.28.09-.17.16-.24.15-.12.24-.16.19-.06.28-.06.19.02.28.06c.09.04.17.09.24.16.07.07.12.15.16.24.04.09.06.19.06.28Z"/>
    <path class="cls-3" d="M62.94,50.18c0,.1-.02.19-.06.28s-.09.17-.16.24c-.07.07-.15.12-.24.16-.09.04-.19.06-.28.06s-.19-.02-.28-.06-.17-.09-.24-.16-.12-.15-.16-.24c-.04-.09-.06-.19-.06-.28s.02-.19.06-.28.09-.17.16-.24.15-.12.24-.16.19-.06.28-.06.19.02.28.06c.09.04.17.09.24.16.07.07.12.15.16.24.04.09.06.19.06.28Z"/>
    <path class="cls-3" d="M64.86,52.67c-.86,1.42-2.44,2.09-4.06,2-.33-.02-.33.5,0,.52,1.8.1,3.55-.69,4.5-2.26.17-.29-.27-.54-.45-.26h0Z"/>
    <path class="cls-3" d="M64.3,52.76l1.33.53c.31.12.44-.38.14-.5-.44-.18-.89-.35-1.33-.53-.31-.12-.44.38-.14.5h0Z"/>
  </g>
  <g id="Layer_1-2-2" data-name="Layer 1-2" class="cls-9">
    <path class="cls-6" d="M38.81,66.16c-.2.75-.84,1.28-1.46,1.75-1.46,1.11-2.25.68-2.61.43-.81-.57-1.2-.53-2.06-1-.64-.35-1.33-.6-1.92-1.02-1.04-.74-2.05-2.1-2.46-3.21-.13-.28-.23-.57-.29-.87-.12-.55.1-1.35.65-1.44.58-.1.85.09,1.03.24-.17-.25-.27-.52-.32-.81-.09-.5.1-.89.47-1.09.36-.2.97,0,1.25.3-.18-.46-.32-.9-.22-1.49.05-.29.49-.77,1.11-.67.43.07.65.25.94.49-.71-.71-1.34-1.49-1.89-2.32-.42-.64-.99-2.21.05-2.56.37-.12.99.1,1.32.4.53.5,1.04,1.02,1.51,1.58.12-.23.26-.45.41-.67.41-.58.91-1.11,1.58-1.31.28-.09.56.04.65.18.24.35.24.75.12,1.22-.11.4-.27.79-.46,1.17l-.69,1.4c.49.64.99,1.33,1.49,2.04.36.52.71,1.05.96,1.63.23.53.61,3.14.79,4.15.09.49.17,1.01.05,1.49h0Z"/>
    <g class="cls-11">
      <path class="cls-3" d="M38.98,64.61c-.21-1.17-.36-2.35-.62-3.51-.13-.6-.37-1.12-.7-1.65-.51-.81-1.09-1.59-1.66-2.36-.07-.09-.13-.18-.2-.27.22-.44.44-.88.65-1.32.32-.65.72-1.52.46-2.26-.12-.32-.33-.55-.68-.6-.35-.05-.73.13-1.02.33-.56.37-.98.93-1.32,1.5-.32-.36-.66-.72-1.01-1.05-.47-.46-1.11-.94-1.81-.76-.57.15-.82.71-.79,1.26.04.63.3,1.24.64,1.76.33.48.68.94,1.05,1.38-.17-.02-.35,0-.51.05-.17.05-.32.13-.45.25-.46.39-.45,1.01-.32,1.57-.42-.15-.89-.11-1.22.22-.39.39-.4.94-.24,1.43-.33-.08-.68-.04-.95.15-.48.34-.6,1.03-.49,1.57.08.37.23.72.37,1.06.14.34.31.66.5.97.4.65.88,1.23,1.45,1.74.6.54,1.3.88,2.02,1.23.35.17.69.36,1.05.51.28.12.57.22.85.35.39.19.72.51,1.15.63.47.13.96.04,1.4-.15.39-.17.74-.42,1.08-.68.33-.24.63-.52.9-.84.27-.32.44-.69.52-1.1.07-.48,0-.95-.09-1.41h0ZM35.09,53.63c.33-.31,1.18-.93,1.4-.22.1.31.03.64-.06.94-.11.35-.25.69-.42,1.01-.17.35-.35.7-.52,1.06-.42-.55-.85-1.08-1.31-1.6.24-.44.54-.84.9-1.19h0ZM38.64,65.86c-.04.34-.17.64-.37.9-.39.52-.97.97-1.52,1.29-.38.22-.83.41-1.29.35-.32-.05-.54-.23-.82-.41-.49-.31-1.04-.46-1.55-.71-.33-.16-.65-.33-.97-.49-.33-.15-.65-.32-.97-.5-.57-.35-1.06-.83-1.49-1.34-.43-.51-.78-1.07-1.05-1.67-.25-.57-.57-1.24-.32-1.86.11-.27.28-.41.57-.43.12-.01.24,0,.35.03s.22.09.31.16c0,.03.01.06.03.08l.81,1.15s.03.05.06.06c.02.02.05.03.08.04.03,0,.06,0,.09,0,.03,0,.06-.01.08-.03.09-.06.15-.2.08-.31l-.81-1.15s-.01-.02-.02-.02c0-.03-.02-.07-.03-.09-.25-.4-.49-1.02-.13-1.44.32-.36.88-.2,1.18.1,0,0,.02.01.03.02.28.37.59.72.91,1.07.02.02.05.04.07.05s.06.02.09.02.06,0,.09-.02.05-.03.07-.05c.02-.02.04-.05.05-.07.01-.03.02-.06.02-.09s0-.06-.02-.09c-.01-.03-.03-.05-.05-.07-.15-.16-.29-.32-.44-.49-.07-.09-.15-.17-.22-.26-.04-.04-.07-.09-.1-.13l-.05-.06s0-.01-.01-.02-.02-.03-.03-.04c-.01-.02-.03-.04-.05-.05-.11-.28-.21-.57-.22-.88-.01-.27,0-.52.2-.71.47-.46,1.09-.15,1.51.21.01.01.03.02.05.03.01.03.03.06.05.08.28.27.57.54.84.83.02.02.05.03.07.05.03.01.06.02.08.01s.06,0,.08-.02c.03-.01.05-.03.07-.05s.04-.04.05-.07c.01-.03.02-.05.02-.08,0-.03,0-.06-.01-.09-.01-.03-.03-.05-.05-.07-.27-.29-.56-.56-.84-.83-.01-.01-.03-.02-.05-.03-.01-.03-.03-.06-.05-.08-.57-.58-1.1-1.2-1.57-1.87-.33-.46-.6-.92-.73-1.48-.09-.4-.12-.96.33-1.15.28-.12.65.01.9.15.25.14.46.36.66.56,1.07,1.06,2.03,2.25,2.94,3.45.55.72,1.08,1.46,1.58,2.21.32.49.6.99.74,1.57.28,1.2.43,2.44.65,3.65.07.37.13.75.09,1.13h0ZM32.51,53.89c-.08-.12-.18-.23-.3-.31-.23-.17-.55-.35-.84-.25-.29.1-.46.42-.45.73.01.18.05.36.11.53.05.17.13.33.22.48.02.04.05.07.09.09.04.02.08.03.12.02.04,0,.08-.02.12-.05.03-.03.06-.06.07-.11.02,0,.04-.01.05-.02.27-.19.53-.39.8-.58.11-.09.12-.19.09-.32-.02-.07-.05-.14-.08-.2ZM31.47,54.08s0,0,0,.01c0,0-.01-.01,0-.01ZM32.05,54.2s0-.09,0-.14c0-.01,0-.02,0-.03.02.02.03.03.05.05h0s0,.02,0,.02l.02.04s-.09.06-.09.06ZM31.65,49.83c.21.21.44.38.7.52s.53.23.82.28c.04.04.08.06.13.07.05,0,.1,0,.15-.03,1.11-.79,1.77-2.16,1.63-3.53,0-.03,0-.06-.02-.09s-.03-.05-.05-.07-.05-.04-.07-.05c-.03-.01-.06-.02-.09-.02-1.07.01-1.66.89-1.95,1.85-.07-.19-.16-.37-.25-.54-.25-.44-.68-.95-1.2-1.07-.3-.07-.61.06-.67.39-.05.27-.01.59.05.86.14.55.4,1.03.81,1.43h0ZM33.52,49.58s0-.01,0-.02c.02-.07.05-.13.08-.2,0,.03.01.06.02.08-.04.05-.07.09-.11.14ZM34.17,48.48c-.03.06-.06.12-.09.19-.01-.04-.02-.08-.04-.12.06-.07.12-.15.18-.22-.02.05-.04.1-.06.15h0ZM34.65,47.38v.19s-.07-.04-.11-.04-.08,0-.11.03c-.47.33-.83.76-1.08,1.27.22-.7.62-1.34,1.31-1.45h0ZM31.22,47.65c.02-.09.07-.08.16-.06.02,0,.03.01.05.02,0,.02,0,.03-.01.05,0,.29.07.56.23.81.08.35.21.68.39.99.05.09.11.18.18.26-.39-.3-.67-.67-.84-1.13-.08-.2-.13-.41-.15-.63-.01-.1-.01-.21,0-.31h0Z"/>
    </g>
  </g>
  <g>
    <path class="cls-1" d="M7.19,7.74c-.13.13-.26.27-.39.4-.05.05-.05.13,0,.18.14.16.28.31.41.47.13.16.26.33.39.49.25.32.49.65.73.98.05.07.09.13.14.2-.47-.28-.93-.59-1.38-.92-.16-.12-.32-.24-.48-.37-.07-.06-.17,0-.2.07-.28.69-.52,1.4-.72,2.12-.05-.57-.1-1.14-.16-1.7-.02-.23-.05-.46-.06-.67,0-.04-.01-.08-.05-.1-.03-.02-.07-.04-.11-.03-.58.22-1.17.43-1.75.64.49-.41.97-.81,1.46-1.22.08-.06.16-.12.22-.2.07-.09.08-.2.05-.31-.02-.1-.06-.19-.09-.28-.03-.1-.07-.2-.1-.3-.13-.4-.27-.8-.41-1.19-.08-.23-.17-.45-.26-.68-.01-.04-.03-.07-.04-.11.21.26.42.53.63.8.28.35.56.72.82,1.07.07.09.15.2.22.3.04.05.07.11.11.16.04.06.08.13.13.17.04.04.11.05.15.02.02,0,.04,0,.07-.01.49-.26.98-.51,1.47-.77-.26.26-.52.52-.78.79ZM8.77,6.35c-.04-.05-.11-.07-.17-.04-.58.3-1.16.61-1.74.92-.14.08-.29.15-.43.23-.22-.38-.46-.74-.72-1.09-.3-.4-.62-.78-.96-1.14-.2-.2-.4-.4-.61-.59-.06-.06-.15,0-.12.09.07.19.13.39.2.58.07.2.13.39.2.59.13.39.26.78.38,1.17.06.2.12.39.18.59.01.05.03.09.04.14,0,.02,0,.04.01.06,0,0,0,.01,0,.02,0,0,0,.01,0,.02,0,0,0,.01,0,.02,0,0,0,0,0,0h0s0,.01,0,.02c0,0-.02.02-.02.02-.03.03-.07.06-.1.09-.32.27-.64.53-.96.8-.36.3-.71.6-1.08.9-.09.08,0,.25.12.21.63-.2,1.25-.42,1.87-.65.12-.05.24-.09.37-.14.03.34.06.7.09,1.05.04.41.08.81.11,1.22.02.24.05.49.07.71,0,.05.07.1.12.1.05,0,.11-.03.13-.09.09-.38.2-.75.31-1.12.11-.37.23-.73.37-1.09.05-.15.11-.29.17-.44.52.4,1.07.76,1.64,1.09.17.1.35.2.53.3.04.02.09.02.13-.01.03-.03.05-.09.02-.13-.47-.7-.96-1.38-1.49-2.04-.07-.09-.14-.18-.22-.28-.05-.06-.09-.12-.14-.18.44-.44.87-.88,1.31-1.32.13-.13.26-.27.39-.4.05-.05.05-.12.02-.17"/>
    <path class="cls-1" d="M6.22,8.53s-.1,0-.11.04c-.06.18-.12.36-.17.55-.02.08-.04.17-.06.25-.02-.21-.05-.42-.07-.64,0-.06,0-.15-.05-.2-.05-.06-.13-.04-.2-.03-.1.01-.2.04-.31.06,0,0,.02-.02.03-.03.05-.05.1-.1.15-.15.1-.1.2-.21.29-.32.02-.02.03-.05.02-.08,0,0,0,0,0-.01-.06-.19-.13-.38-.2-.57-.02-.07-.05-.14-.08-.21.2.3.4.6.6.91.02.03.06.04.09.01.12-.09.26-.15.4-.18-.09.12-.19.24-.28.36-.02.02-.01.06,0,.08.13.14.27.28.4.42-.15-.1-.3-.19-.46-.27ZM7.19,9.18c-.26-.29-.52-.57-.78-.85.11-.14.21-.28.32-.43.02-.03,0-.09-.05-.09-.11.01-.22.03-.32.06-.08.03-.16.07-.24.12-.26-.39-.52-.79-.8-1.17-.01-.02-.03-.03-.05-.02-.02,0-.04.03-.03.05.07.19.12.38.18.57.06.18.12.37.18.55-.1.1-.2.2-.29.3-.05.05-.1.11-.14.16-.05.05-.09.11-.13.17-.03.04.02.09.06.08.14-.03.29-.03.43-.05.04,0,.07-.01.11-.02.02,0,.02,0,.03,0,.01.03.01.07.01.1,0,.04.01.08.02.11.04.29.09.57.12.86,0,.05.09.05.1,0,.04-.19.11-.37.16-.55.05-.15.09-.31.14-.46.31.16.62.35.89.57.05.04.12-.04.08-.09"/>
    <g class="cls-2">
      <g class="cls-10">
        <path class="cls-7" d="M8.38,7.5c-.15.2-.29.4-.45.59-.03.04-.06.1-.02.15.6.84,1.14,1.73,1.55,2.67.09.19.17.39.24.59-.32-.13-.63-.25-.95-.39-.38-.17-.76-.35-1.14-.53-.22-.1-.43-.21-.65-.31-.08-.04-.15,0-.18.07-.39.88-.82,1.73-1.31,2.55-.07.12-.14.24-.22.35-.06-.81-.12-1.61-.17-2.42-.02-.27-.04-.53-.06-.8,0-.11-.1-.16-.19-.12-.79.32-1.6.56-2.44.69-.16.02-.32.04-.47.06.53-.91,1.15-1.75,1.9-2.5.23-.23.47-.45.71-.66.04-.01.08-.05.06-.1-.19-.5-.36-1.01-.56-1.51-.19-.5-.39-.99-.57-1.49-.07-.19-.14-.39-.21-.58.17.11.35.22.52.34.25.17.5.35.74.54.48.37.93.76,1.37,1.17.24.23.49.47.71.72.03.03.07.04.11.03.85-.28,1.69-.59,2.53-.9.14-.05.28-.1.42-.15-.38.67-.8,1.31-1.26,1.93ZM10,5.27s-.08-.06-.13-.05c-.85.3-1.7.6-2.55.91-.21.08-.42.16-.64.24-.2-.2-.4-.4-.6-.59-.22-.21-.45-.41-.68-.6-.46-.4-.95-.77-1.45-1.13-.28-.2-.57-.4-.86-.57-.04-.02-.09-.02-.12.01-.03.03-.04.08-.02.12.2.49.39.99.58,1.49.19.5.38,1,.57,1.5.09.22.17.45.26.67-.01,0-.02.01-.03.02-.88.75-1.65,1.63-2.28,2.6-.18.27-.34.55-.49.84-.06.11.03.2.14.19.86-.08,1.71-.26,2.53-.53.18-.06.35-.12.53-.19.06.88.12,1.76.19,2.65.02.27.04.53.06.8,0,.06.03.11.09.13.06.02.12,0,.15-.06.53-.82,1-1.67,1.41-2.55.1-.21.19-.42.29-.63.35.16.7.33,1.05.48.39.17.78.33,1.17.5.22.1.45.19.67.28.07.03.17-.05.14-.13-.35-.99-.8-1.96-1.37-2.84-.14-.22-.3-.44-.46-.65.26-.33.51-.66.75-1,.25-.36.49-.74.72-1.12.13-.22.25-.43.38-.65.02-.04.02-.1,0-.14"/>
      </g>
    </g>
  </g>
  <g class="cls-2">
    <g class="cls-8">
      <path class="cls-7" d="M84.91,64.82c-1.29-2.69-4.99-2.67-6.89-.65-3.09-.26-5.32,2.55-6.44,5.11-2.63.2-3.62,3.29-3.02,5.52.05.21.3.35.5.28.45-.15.24-.63.2-.97-.08-.69-.06-1.4.16-2.07.27-.88.94-1.69,1.87-1.89-.54,1.58.92,3.57,2.6,2.7,1.54-1.11.2-3.43-1.42-3.55.56-1.22,1.58-2.66,2.51-3.35.7-.53,1.53-.94,2.42-.99-1.3,1.94,1.01,4.43,3.09,3.83.93-.21,1.41-1.22,1.09-2.09-.35-1.17-1.37-2.02-2.52-2.36.72-.61,2.06-.95,2.75-.82.27.04.53.1.78.2.03.01.18.08.05.02.27.12.52.26.75.44h0c.21.17.41.37.57.59.18.2.21.56.5.64.35.1.63-.29.46-.6ZM72.75,70.23c.14.05.27.13.39.21.03.02.13.11.02.01.22.17.39.38.5.64h0c.07.17.11.36.09.56,0-.03,0,.05,0,.06h0c-.01.06-.03.13-.06.2h0s-.06.1-.09.14c0,0,0,0,0-.01-.03.04-.07.08-.11.11h.01c-.43.27-.99-.04-1.27-.4h.01c-.27-.29-.25-.95-.22-1.09.01-.18.08-.39.13-.57.04,0,.23.03.05,0,.19.03.37.07.55.14ZM79.06,65.22s.1.04.15.06h-.01c.26.11.5.25.73.42h-.01c.17.13.33.28.47.46l-.02-.02s.02.02.03.03c0,0,.01.01.01.02,0,0,0-.01-.01-.02,0,0,0,0,0-.01.03.04.03.04.03.04.11.15.2.31.28.47.01.03.06.14,0,.01.06.15.12.32.14.48h0s0,.03,0,.05c0-.01,0-.03,0-.04,0,0,0,0,0,0,.02.15.02.3-.04.44,0,0,0-.01.01-.02-.02.05-.04.09-.07.13,0,0-.03.05-.04.06v-.02s-.04.06-.07.08c0,0-.04.04-.06.05,0,0,0,0,.01-.01-.07.05-.15.09-.23.13.06-.03.07-.03.06-.03-.23.11-.52.13-.78.1,0,0-.05,0-.07,0h0,.02c-.17-.03-.34-.07-.5-.14h.01c-.19-.08-.37-.19-.53-.31h0c-.16-.12-.29-.26-.42-.42h.01c-.09-.11-.16-.24-.22-.37,0,0,0,0,0,0,0-.01-.02-.06-.02-.06-.04-.1-.07-.21-.09-.32,0,.03.01.05,0-.03,0,0,0,0,0,.01,0,0,0-.02,0-.03,0,0,0,.01,0,.02-.06-.52.19-1.01.52-1.39.24.04.48.11.72.19h0Z"/>
    </g>
  </g>
</svg>