<?xml version="1.0" encoding="UTF-8"?>
<svg id="Layer_2" data-name="Layer 2" xmlns="http://www.w3.org/2000/svg" xmlns:xlink="http://www.w3.org/1999/xlink" viewBox="0 0 79.09 83.12">
  <defs>
    <style>
      .cls-1 {
        fill: #1b1b1b;
      }

      .cls-1, .cls-2, .cls-3, .cls-4, .cls-5, .cls-6, .cls-7 {
        stroke-width: 0px;
      }

      .cls-8 {
        opacity: .5;
      }

      .cls-9 {
        clip-path: url(#clippath-2);
      }

      .cls-3 {
        fill: none;
      }

      .cls-10 {
        clip-path: url(#clippath-1);
      }

      .cls-4 {
        fill: #ffce89;
      }

      .cls-5 {
        fill: #fff;
      }

      .cls-6 {
        fill: #0c0c0c;
      }

      .cls-7 {
        fill: #ff936c;
      }

      .cls-11 {
        clip-path: url(#clippath);
      }
    </style>
    <clipPath id="clippath">
      <rect class="cls-3" y="33.64" width="33.95" height="39.43"/>
    </clipPath>
    <clipPath id="clippath-1">
      <rect class="cls-3" x="18.77" y="2.13" width="10.14" height="6.46" transform="translate(.6 12.92) rotate(-30.69)"/>
    </clipPath>
    <clipPath id="clippath-2">
      <rect class="cls-3" x="65.83" y="72.59" width="12.41" height="9.31" transform="translate(-14.83 17.16) rotate(-12.33)"/>
    </clipPath>
  </defs>
  <g id="sw-js-blob-svg">
    <path class="cls-4" d="M64.11,18.83c5.2,6.9,7.7,14.8,8.7,23.8s.6,19-4.6,24.6c-5.3,5.5-15.3,6.6-25.8,7.1s-21.6.5-28-5.1c-6.3-5.5-8.1-16.6-6.2-25.7,1.8-9.2,7.3-16.5,13.7-23.3,6.4-6.8,13.7-13.2,21.3-13.5,7.7-.4,15.6,5.3,20.9,12.1Z"/>
    <g id="Layer_1-2" data-name="Layer 1-2">
      <path class="cls-5" d="M1.83,42.4h0c.08.21.24.39.4.57.2.23.41.46.43.74v.06s0,.01,0,.02h0s0,0,0,.01h0s0,0,0,0h0s0,0,0,0h0s0,0,0,0c0,0,0,0,0,0,0,0,0,0,0,0s0,0,0,0c0,0,0,0,0,0,0,0,0,0,0,0,0,0,0,0,0,0h0s0,0,0,0h0s-.02,0-.04,0h-.02c-.17-.04-.33-.16-.49-.28-.19-.15-.39-.3-.64-.35,0,0-.02,0-.03,0h-.01c-.14-.02-.29,0-.45.02-.07,0-.14.02-.21.02-.17.5-.14,1.07.08,1.71.17.51.47,1.05.87,1.62.66.92,1.38,1.7,2.21,2.38l.02.02s.07.06.11.09c.1.08.21.17.34.26.05.04.09.07.14.1h0s.02.02.03.03.02.02.04.03c.02.02.05.03.07.05.02.01.05.03.07.05,0,0,.02.01.03.02.01.01.03.02.04.03h0c.12.08.24.16.37.25.23.15.46.29.7.42.01,0,.03.02.04.02.01,0,.03.01.04.02h.02s.01.02.02.02c0,0,0,0,0,0,.03.02.05.03.08.04h0c.08.04.14.08.21.12.14.07.26.14.38.2.35.17.66.3.96.39.01,0,.03,0,.04.01.02,0,.03.01.05.01.19.05.38.1.56.12.14.02.28.03.42.04h.01s.04.01.06.03c.02.02.02.04.02.07-.11,1.07-.12,2.27-.02,3.46.09,1.13.27,2.22.53,3.14.21-.19.4-.39.59-.59.08-.09.17-.18.26-.27.07-.54.05-1.23.02-1.96-.03-.87-.06-1.76.06-2.51.14-.87.46-1.39.99-1.59.18-.07.35-.08.5-.06.28.04.52.22.72.39.12-.23.31-.43.56-.59.27-.16.59-.26.93-.28.17-.01.34,0,.5.02.16.03.31.07.46.13.26.12.48.29.63.5.15-.17.35-.31.6-.41.28-.12.6-.18.91-.17.1,0,.2,0,.3.02.42.06.76.25.97.53.14-.07.28-.17.43-.27.37-.25.78-.53,1.31-.46h0c.31.04.52.22.73.39.11.09.22.18.34.25.29-.28.72-.44,1.22-.46.18,0,.37,0,.55.04.3.05.57.16.78.3.28.2.55.51.78.92.21.36.39.82.55,1.33.27.87.46,1.93.52,2.89.04.61.08.94.28,1.21.15-1.17.2-2.44.13-3.61-.09-1.36-.33-2.55-.7-3.47-.01-.02,0-.05,0-.07s.03-.04.06-.04c1.91-.42,4.03-1.3,6.04-2.2.06-.03.13-.06.2-.09.03-.01.05-.03.08-.04,0,0,0,0,0,0,0,0,.01,0,.03-.01,0,0,0,0,.01,0h0s.05-.03.08-.04c.01,0,.03-.02.04-.02.07-.04.13-.08.2-.12.03-.02.05-.03.08-.05l.08-.05c.64-.46.98-1.02,1.01-1.66-.07-.11-.2-.19-.32-.26-.16-.1-.33-.2-.42-.39-.02-.04,0-.08.03-.1.22-.16.5-.48.71-.82.25-.41.38-.81.36-1.12-.02-.28-.16-.49-.43-.63-.07-.04-.14-.05-.21-.06-.05,0-.11,0-.16,0-.04,0-.09,0-.14,0-.11,0-.23-.04-.34-.14-.03-.03-.04-.08-.01-.12.02-.03.04-.05.06-.08.29-.39.68-.92.93-1.5.14-.31.22-.6.24-.86.03-.3-.02-.57-.14-.82-.12-.24-.33-.5-.57-.7-.25-.2-.5-.33-.72-.35-.03,0-.05,0-.08,0-.31,0-.51.15-.69.3-.16.12-.31.24-.52.26h-.02s-.04-.01-.06-.03c-.02-.02-.03-.05-.02-.07.06-.36,0-.81-.15-1.2-.16-.39-.38-.67-.62-.75-.03,0-.06-.01-.09-.02-.3-.04-.75.09-.98.21-.49.26-.83.91-1.15,1.53-.05.09-.1.19-.15.28-.33.62-.71,1.26-1.22,1.77-.55.55-1.19.87-1.94.98h-.03s-.07-.03-.08-.07c-.24-1.14-.6-2.14-1.04-2.96-.12.1-.21.24-.31.39-.08.12-.16.25-.26.35h-.01s-.02.04-.04.05h-.02s-.06.06-.1.08c-.04.02-.07.04-.11.05h-.01s-.03.01-.04.01c0,0-.01,0-.01,0,0,0-.02,0-.03,0h-.02s0,0,0,0h-.01s-.04.01-.05.01h0s-.01,0-.01,0h0s-.03,0-.04,0h-.01c-.1.01-.19,0-.28,0-.18-.02-.35-.09-.51-.21,0,0,0,0-.01,0,0,0,0,0,0,0,0,0,0,0,0,0-.02-.02-.05-.04-.08-.06,0,0,0,0-.01-.01,0,0,0,0,0,0,0,0,0,0,0,0h0s0,0,0,0c0,0-.01-.01-.02-.02,0,0,0,0-.01-.01h0s0-.01,0-.01h0s0,0,0,0h0s0-.01,0-.01c-.26-.28-.41-.64-.49-.9,0-.03,0-.07.03-.09.3-.27.69-.45,1.06-.63.16-.08.33-.16.49-.25-.36-.58-.84-1.11-1.37-1.52-.63-.49-1.29-.82-1.98-.96-.05,0-.1-.02-.15-.02-.36-.05-.73-.02-1.09,0-.09,0-.18.01-.27.02-1.8.12-3.26.59-4.36,1.4-.53.39-1.03.94-1.43,1.56-.41.64-.69,1.34-.82,2-.09.46-.09,1.08,0,1.62.03.17.09.34.14.51.1.31.22.64.13.98h0s0,.01,0,.01h0s0,0,0,0c0,0,0,0,0,0h0s0,.01-.01.01h0s0,0,0,0c0,0,0,0,0,0h0s0,0-.01,0h0s0,0-.01,0h-.04s-.05-.02-.06-.04h0l-.02-.02s-.02-.02-.03-.03c-.01-.01-.02-.02-.03-.03-.01,0-.02-.02-.03-.03-.01-.01-.02-.02-.03-.03-.01,0-.02-.02-.03-.03-.01-.01-.02-.02-.03-.03-.01,0-.02-.02-.03-.03-.01-.01-.02-.02-.04-.03-.01-.01-.02-.02-.03-.03-.01-.01-.02-.02-.04-.03-.01-.01-.02-.02-.03-.03l-.04-.03s-.02-.02-.03-.03c-.01-.01-.02-.02-.04-.03-.01-.01-.02-.02-.03-.03-.01-.01-.03-.02-.04-.04-.01-.01-.02-.02-.03-.03-.01-.01-.03-.02-.04-.04-.01,0-.02-.02-.03-.03l-.04-.04s-.02-.02-.03-.03l-.04-.04s-.02-.02-.03-.03c-.01-.01-.03-.03-.04-.04-.01-.01-.02-.02-.03-.03-.01-.01-.03-.03-.04-.04l-.03-.03s-.03-.03-.04-.04c-.01-.01-.02-.02-.03-.03-.01-.01-.03-.03-.04-.04l-.03-.03s-.03-.03-.04-.04l-.03-.03s-.03-.03-.04-.04c-.01-.01-.02-.02-.03-.03-.01-.01-.03-.03-.04-.04-.01-.01-.02-.02-.03-.03-.01-.01-.03-.03-.04-.04-.01-.01-.02-.02-.03-.03-.01-.01-.03-.03-.04-.04-.01-.01-.02-.02-.03-.04-.01-.01-.03-.03-.04-.04-.01-.01-.02-.02-.03-.04-.01-.01-.03-.03-.04-.04-.01-.01-.02-.02-.03-.04-.01-.01-.03-.03-.04-.04-.01-.01-.02-.03-.03-.04-.01-.01-.03-.03-.04-.04-.01-.01-.02-.03-.03-.04-.01-.01-.02-.03-.04-.05-.01-.01-.02-.02-.03-.04-.01-.01-.02-.03-.04-.05-.01-.01-.02-.03-.03-.04-.01-.01-.02-.03-.04-.04-.01-.01-.02-.03-.03-.04-.01-.01-.02-.03-.03-.04-.01-.01-.02-.03-.04-.04-.01-.01-.02-.03-.03-.04-.01-.01-.02-.03-.04-.05-.01-.01-.02-.03-.03-.04-.01-.02-.03-.03-.04-.05,0,0-.01-.01-.02-.02-.02-.02-.03-.04-.05-.07-.22-.29-.43-.61-.64-.91-.4-.6-.78-1.16-1.22-1.56-.03-.03-.06-.05-.09-.08h0c-.22-.18-.55-.29-.84-.28h-.03s-.06,0-.09,0c-.13.02-.3.07-.42.22h0s-.01.03-.02.04c-.07.1-.11.21-.13.32,0,.04-.01.08-.02.12,0,.05,0,.1,0,.15,0,.08,0,.17.01.26,0,.04.01.09.02.13.03.2.08.41.13.61,0,.02.01.04.01.06.08.31.14.59.11.79,0,0,0,0,0,0h0s0,0,0,0h0s0,.01,0,.01h0s0,0,0,.01c0,0,0,0,0,0,0,0,0,0,0,0,0,0,0,0,0,0s0,0,0,0h0s0,0,0,0c0,0,0,0,0,0s0,0,0,0h0s0,0,0,0,0,0,0,0h-.05s0,0,0,0c0,0,0,0,0,0,0,0,0,0,0,0s0,0,0,0c-.2-.12-.38-.29-.55-.46-.4-.38-.77-.74-1.47-.64-.03.05-.05.11-.08.17-.16.4-.2.88-.09,1.26.05.18.18.35.31.51.18.23.36.46.27.72h0s0,0,0,0h0s0,0,0,.01h0s0,0,0,0,0,0,0,0c0,0,0,0,0,0s0,0,0,0c0,0,0,0,0,0h0s0,0,0,0,0,0,0,0c0,0,0,0,0,0h0s0,0,0,0h0s-.02,0-.03,0h-.02s0,0,0,0h0s0,0,0,0c-.13-.06-.26-.13-.39-.21-.39-.22-.8-.44-1.24-.38h0s-.04.07-.06.11c-.06.14-.1.31-.1.49,0,.22.04.46.11.67h.03ZM18.75,36.52c.02-.42.19-.72.45-.82.24-.1.5-.07.74.09.06.04.12.09.17.14.12.12.23.26.32.43.12.23.19.47.19.68,0,.03-.02.06-.04.07-.03.02-.06.02-.09,0-.04-.02-.08-.06-.12-.09-.1-.1-.18-.24-.27-.39-.11-.17-.2-.32-.29-.41-.12-.12-.25-.17-.41-.09-.06.03-.17.17-.19.26-.05.21.02.48.09.71.06.21.11.39.07.53,0,.02,0,.03-.02.04-.02.02-.04.04-.07.04-.01,0-.03,0-.04-.01-.11-.06-.21-.16-.29-.3,0,0-.01-.02-.01-.03,0,0,0,0,0-.01-.03-.05-.05-.11-.07-.16-.08-.21-.12-.46-.1-.69h0ZM15.33,37.19c.28-.7.82-1.05,1.45-.94.24.04.48.17.69.39.12.11.23.25.33.41.31.47.49.99.57,1.26.01.03,0,.07-.03.09-.03.02-.07.03-.1,0-.04-.02-.08-.05-.12-.08-.2-.17-.35-.44-.51-.72-.12-.2-.23-.41-.37-.58-.05-.06-.09-.11-.14-.15-.22-.2-.46-.24-.76-.15-.33.1-.7.57-.77.95-.06.34.05.67.16,1,.07.23.14.45.16.67h0c0,.06-.04.1-.08.1h0s-.04,0-.06-.02c-.1-.07-.19-.16-.27-.26-.15-.2-.25-.45-.3-.74-.07-.4-.01-.86.14-1.25h0Z"/>
      <path class="cls-2" d="M15.49,39.17c.08.1.17.19.27.26.01.01.04.02.06.02h0s.08-.04.08-.09h0c-.01-.23-.09-.45-.16-.68-.1-.32-.21-.66-.16-1,.07-.39.44-.85.77-.95.3-.09.53-.05.76.15.05.04.1.09.14.15.14.17.26.38.37.58.16.28.31.55.51.72.04.03.07.06.12.08.03.02.07.01.1,0,.03-.02.04-.06.03-.09-.08-.27-.26-.79-.57-1.26-.11-.16-.22-.3-.33-.41-.22-.22-.45-.35-.69-.39-.63-.11-1.17.24-1.45.94-.15.39-.2.84-.14,1.25.05.29.15.54.3.73h0ZM18.11,38.05c-.12-.14-.22-.33-.33-.53-.16-.29-.33-.58-.55-.78-.27-.23-.57-.3-.92-.18-.18.06-.39.21-.56.42-.17.21-.29.45-.33.67-.07.38.05.74.16,1.08.05.14.09.28.12.41-.42-.45-.45-1.29-.21-1.9.11-.29.28-.52.48-.66.17-.13.36-.19.58-.19.06,0,.13,0,.2.02.32.06.63.3.91.73.21.31.35.64.45.9h0Z"/>
      <path class="cls-1" d="M32.56,53.92c0-.08,0-.17,0-.25,0-.18.03-.66,0-1.11-.04-.71-.16-.89-.23-.94-.02-.01-.06-.03-.12,0-.11.06-.22.1-.34.16-.29.13-.6.27-.99.51-.06.04-.14.08-.22.13-.18.11-.41.24-.59.36-.28.19-.29.26-.29.27,0,.11.2.21.36.3.07.03.13.07.18.1.75.47,1.43.75,2.19.92.05-.12.04-.29.04-.45h0ZM32.4,53.75c-.01.1-.02.2-.03.29,0,.02-.01.04-.02.05,0,0-.01,0-.01.01-.01.01-.03.01-.05.01,0,0-.02,0-.03,0-.82-.26-1.49-.57-2.07-.96-.02-.01-.04-.04-.04-.07,0-.02,0-.05.03-.07,0,0,0,0,0,0,.51-.39.94-.67,1.38-.88.05-.02.09-.04.13-.06l.13-.06h0s.02,0,.03-.01c.02-.01.05-.02.07-.03.01,0,.02-.01.03-.01h0s.04-.02.07-.03l.07-.03s.07,0,.09.02c.35.38.27,1.18.21,1.82h0Z"/>
      <path class="cls-2" d="M32.74,52.56c-.01-.26-.04-.48-.08-.64-.05-.22-.13-.36-.23-.43-.06-.04-.16-.07-.29,0-.11.05-.22.1-.34.16-.3.14-.61.28-1.01.52-.06.04-.13.08-.21.13-.66.38-.97.59-.97.78,0,.21.24.34.46.45.06.03.12.07.17.1.79.49,1.5.79,2.31.95,0,0,.01,0,.02,0,.03,0,.05-.01.07-.04.12-.17.11-.39.1-.6,0-.08,0-.16,0-.23.01-.18.03-.67,0-1.13h0ZM30.33,53.45c-.06-.04-.12-.07-.18-.1-.16-.09-.36-.19-.36-.3,0,0,.01-.07.29-.27.18-.12.41-.25.59-.36.08-.05.16-.09.22-.13.39-.24.7-.38.99-.51.12-.05.23-.1.34-.16.07-.03.1-.02.12,0,.07.05.2.23.23.94.03.45,0,.93,0,1.11,0,.08,0,.16,0,.25,0,.16.01.33-.04.45-.76-.17-1.44-.45-2.19-.92h0Z"/>
      <path class="cls-2" d="M32.1,51.91l-.07.03s-.05.02-.07.03h0s-.02.01-.03.01c-.02.01-.05.02-.07.03-.01,0-.02,0-.03.01,0,0,0,0,0,0l-.13.06s-.08.04-.13.06c-.44.22-.87.49-1.38.88,0,0,0,0,0,0-.02.02-.03.04-.03.07,0,.03.01.05.04.07.57.39,1.25.7,2.07.96,0,0,.02,0,.03,0,.02,0,.03,0,.05-.01,0,0,.01,0,.01-.01.01-.01.02-.03.02-.05,0-.09.02-.19.03-.29.06-.64.14-1.44-.21-1.82-.02-.02-.06-.03-.09-.02h0ZM32.03,52.12s.02-.01.04-.01.02,0,.03-.01h.01c.25.34.18,1.08.13,1.64,0,.07-.01.13-.02.19-.71-.23-1.3-.5-1.82-.83.46-.35.85-.59,1.25-.79.04-.02.08-.04.12-.06s.08-.04.13-.06c.04-.02.08-.04.13-.05h0Z"/>
      <path class="cls-5" d="M31.9,52.18s-.09.04-.13.06c-.04.02-.08.04-.12.06-.4.2-.79.45-1.25.79.51.33,1.11.61,1.82.83,0-.06.01-.12.02-.19.05-.55.13-1.3-.13-1.64h-.01s-.02.01-.03.02c-.01,0-.02.01-.04.01-.04.02-.09.03-.13.05h0Z"/>
      <path class="cls-1" d="M28.57,50.82h0c-.12.01-.27.22-.38.55-.1.27-.16.56-.17.74.18,0,.45-.05.68-.13.3-.1.5-.24.52-.35.02-.12-.09-.35-.28-.55-.16-.17-.3-.25-.37-.25h0ZM29,51.56h0v.02s-.02.05-.05.06h0s-.08.04-.12.07c0,0-.01,0-.02.01,0,0,0,0-.01,0h0s-.1.04-.15.06c0,0-.02,0-.02,0,0,0,0,0-.01,0,0,0,0,0,0,0,0,0-.01,0-.01,0,0,0-.01,0-.02,0s-.01,0-.02,0c0,0-.01,0-.02,0-.01,0-.03,0-.05.01-.03,0-.07.01-.1.02h-.01s-.04,0-.06-.02c-.02-.02-.03-.04-.03-.07h0c0-.18.07-.31.12-.43.03-.06.06-.12.08-.19,0-.02.03-.04.05-.05.02-.01.05,0,.07,0,.17.09.35.2.4.46h0s0,.02,0,.01c0,0,0,0,0,0h0Z"/>
      <path class="cls-2" d="M28.55,50.65c-.25.03-.43.37-.53.66-.11.3-.18.68-.18.89,0,.04.03.08.08.08.03,0,.06,0,.09,0,.2,0,.49-.05.75-.14.48-.17.61-.35.64-.48.04-.22-.14-.5-.32-.7-.07-.08-.32-.33-.52-.31h0ZM29.22,51.62c-.02.11-.22.25-.52.35-.23.08-.51.13-.68.13.01-.18.07-.47.17-.74.12-.33.26-.53.38-.55h0c.07,0,.21.09.37.26.19.2.3.42.28.55h0Z"/>
      <path class="cls-5" d="M28.6,51.29s-.03.08-.05.11c-.04.08-.07.16-.09.25,0,0,0,0,.01,0h0s.01,0,.02,0c0,0,.01,0,.02,0,.01,0,.02,0,.03,0h0s.02,0,.03,0c0,0,0,0,0,0,.05-.02.1-.04.14-.06h0s.01,0,.01,0c0,0,0,0,.01,0l.06-.03h0c-.03-.1-.1-.16-.21-.22h0Z"/>
      <path class="cls-2" d="M29,51.56h0c-.04-.27-.23-.38-.4-.47-.02-.01-.05-.01-.07,0-.02.01-.04.03-.05.05-.02.07-.05.13-.08.19-.06.12-.12.25-.12.43h0s0,.05.03.07c.02.01.04.02.06.02h.01s.07-.01.1-.02c.02,0,.03,0,.05-.01,0,0,.01,0,.02,0,0,0,.01,0,.02,0,0,0,.01,0,.02,0,0,0,.01,0,.01,0,0,0,0,0,0,0,0,0,0,0,.01,0,0,0,.01,0,.02,0,.06-.02.11-.04.15-.07h0s0,0,.01,0c0,0,.01,0,.02-.01.04-.02.08-.04.12-.06h0s.04-.04.05-.06h0v-.02h0ZM28.81,51.51s-.04.02-.06.03c0,0,0,0-.01,0,0,0,0,0-.01,0h0s-.09.04-.14.06c0,0,0,0,0,0,0,0-.02,0-.03,0h0s-.02,0-.03,0c0,0-.01,0-.02,0,0,0-.01,0-.02,0h0s0,0-.01,0c.02-.09.06-.17.09-.25.02-.04.04-.07.05-.11.1.06.18.13.21.22h0Z"/>
      <path class="cls-1" d="M33.71,42.98c-.06-.35-.25-.8-.85-.94-.03,0-.05-.03-.06-.05-.01-.03,0-.06,0-.08.26-.4.55-.87.73-1.4.22-.61.23-1.15.05-1.62,0,0,0,0,0,0-.2-.51-.85-1.17-1.32-1.33-.45-.16-.86-.01-1.23.16-.03.01-.06.01-.08,0-.02-.01-.04-.04-.04-.07-.02-.3-.16-.69-.37-1.04-.2-.33-.44-.57-.63-.62-.46-.12-1.04.06-1.32.19-.39.19-.96.86-1.26,1.38-.12.21-.24.44-.36.66-.28.54-.58,1.09-.96,1.55-.44.52-.94.83-1.53.95-.02,0-.05,0-.07-.01s-.03-.03-.04-.06c-.16-1-.55-1.8-.92-2.58-.04-.09-.09-.18-.13-.27-.01-.02-.01-.05,0-.07.09-.22.25-.4.41-.58.26-.3.51-.59.43-.99-.36,0-.7.16-1.02.31-.19.09-.38.18-.57.24-.03.01-.07,0-.09-.03-.06-.08-.12-.15-.18-.23-.51-.65-1.04-1.32-1.76-1.76-.39-.24-1.16-.65-1.89-.74-1.16-.13-2.37-.02-3.5.32-.99.3-1.9.76-2.57,1.32-.84.69-1.52,1.59-1.93,2.52-.23.53-.37,1.07-.42,1.61-.05.59,0,1.18.17,1.75.01.04,0,.08-.04.1-.03.02-.08.02-.1-.01-.43-.4-.9-1.03-1.4-1.69-.11-.14-.22-.3-.34-.45-.18-.23-.35-.48-.52-.72-.4-.57-.78-1.1-1.2-1.43-.16-.13-.42-.26-.6-.3-.46-.11-.82-.04-1.07.2-.36.34-.48,1.04-.32,1.87,0,.03,0,.07-.03.08-.03.02-.06.02-.09,0-.12-.06-.23-.13-.35-.2-.39-.24-.8-.49-1.27-.3-.57.23-.48,1.52-.26,2.18.01.03,0,.07-.02.09-.02.02-.06.03-.09.02-.54-.19-.91-.22-1.1-.09-.19.13-.27.39-.26.78.01.35.11.72.17.99.02.07.03.13.04.18,0,.03,0,.06-.02.08-.02.02-.05.03-.08.02-.45-.1-.78-.06-.99.12-.23.21-.31.61-.25,1.2.06.51.27,1.13.58,1.66.77,1.33,1.85,2.58,3.13,3.6,1.34,1.06,2.83,1.83,4.33,2.23.04.01.07.05.06.09-.09,1.03-.02,2.18.04,3.2.01.24.03.47.04.69,0,.05-.03.09-.08.09-.04,0-.07-.02-.08-.05,0,0-.01,0-.02-.01-.14-.13-.39-.22-.64-.3-.2-.07-.41-.14-.57-.24-.07-.05-.12-.1-.16-.15-.06-.07-.09-.11-.18-.11h-.04s-.09.02-.21.31c-.08.18-.14.39-.17.52,0,.02-.01.04-.02.05-.36,1.22-.64,2.64-.7,3.64-.15,2.29-.02,4.14.39,5.52h0c.25.86.46,1.53.78,2.19.32.64.71,1.25,1.17,1.79.44.52.96,1,1.54,1.43,1.08.8,2.39,1.46,4.01,2.01.96.33,1.77.51,2.45.55,1.72.1,3.36-.15,4.87-.75,1.29-.51,2.48-1.27,3.55-2.26.48-.44.91-.94,1.3-1.53.34-.51.67-1.09,1.04-1.83.56-1.13.95-2.63,1.1-4.21.08-.8.09-1.61.04-2.39-.05-.82-.17-1.59-.36-2.31-.01-.05-.03-.09-.04-.14-.2-.77-.42-1.65-1.01-1.89-.03-.01-.05-.05-.05-.08.02-1.8-.2-3.45-.66-5.05,0-.03,0-.05.01-.07s.04-.04.06-.04c1.15-.13,2.38-.65,3.75-1.25.3-.13.61-.26.91-.38.94-.38,1.82-.73,2.4-1.33.2-.21.37-.47.49-.73.13-.29.17-.57.13-.81-.05-.28-.22-.5-.52-.65-.03-.01-.05-.04-.05-.07s.01-.06.04-.08c.57-.36.96-1.3.83-2.05h0ZM22.97,36.8c.27-.11.52-.2.76-.31.03-.01.07,0,.1.02.02.02.03.06.02.09h0s0,0,0,0h0s0,0,0,0c-.13.23-.41.68-.79,1.18,0,0,0,0,0,0-.02.03-.04.06-.07.09-.02.03-.04.07-.07.1-.08.12-.17.25-.27.37,0,0,0,0,0,0,0,0,0,.01-.01.01-.17.21-.36.39-.57.43h-.04s-.03.01-.05.01c-.03,0-.05,0-.08,0-.1,0-.21-.02-.31-.06-.05-.02-.1-.05-.16-.08h0s-.07-.05-.1-.08c0,0-.02-.01-.02-.02,0,0,0,0-.01,0,0,0,0,0,0,0,0,0,0,0,0,0h0s-.03-.03-.05-.05c-.01-.01-.02-.02-.03-.03-.01-.02-.03-.03-.04-.05l-.05-.07s0,0,0,0c0,0,0-.01-.01-.02s0-.01-.01-.02c-.02-.03-.04-.06-.06-.09h0s0,0,0-.01c0,0,0-.01-.01-.02,0,0,0,0,0,0h0s0-.01,0-.02c0,0,0-.01,0-.01,0,0,0-.01-.01-.02-.03-.07-.06-.12-.09-.18-.01-.03,0-.06,0-.08,0,0,.01-.01.02-.02.57-.48,1.34-.79,2.09-1.08h0ZM6.95,55.39s.04-.03.07-.03c.01,0,.02,0,.03,0,.67.25,1.16.51,1.55.8.02.01.03.03.03.05.03.13.05.27.07.42.03.22.07.44.12.68.03.12.06.23.08.34.1.39.19.73.04.98-.09.15-.25.26-.51.32,0,0-.01,0-.02,0h0s-.07-.02-.08-.06c-.25-.81-.59-1.56-.92-2.28-.17-.37-.34-.75-.5-1.13-.01-.03,0-.07.02-.09h0ZM26.51,56.04s.04-.05.08-.05h0s.06.02.08.05c.64,1.33.98,3.13.96,5.06-.01.93-.1,1.84-.27,2.7-.18.89-.44,1.69-.77,2.38-.89,1.87-2.08,3.36-3.53,4.43-.8.59-1.68,1.06-2.64,1.39-1.01.35-2.12.57-3.3.64-.18.01-.35.01-.53.01h0c-.77,0-1.53-.1-2.32-.3-.89-.22-1.7-.54-2.42-.83-1.27-.5-2.37-1.22-3.28-2.13-.01-.01-.04-.04-.05-.05-.33-.34-.64-.71-.92-1.11-.03-.04-.06-.08-.09-.12h0c-.05-.08-.11-.17-.17-.26-.06-.09-.11-.18-.16-.26,0-.01-.01-.03-.02-.04-.02-.03-.04-.07-.06-.1-.01-.02-.03-.04-.04-.07-.01-.02-.03-.04-.04-.07-.04-.07-.08-.14-.11-.21h0c-.06-.11-.1-.2-.14-.28-.03-.06-.06-.13-.1-.22h0l-.07-.14c-.04-.08-.07-.15-.09-.22-.03-.07-.06-.15-.09-.23-.04-.09-.07-.19-.11-.3-.02-.05-.04-.1-.05-.16h0s-.02-.05-.03-.08c-.02-.06-.04-.11-.05-.16-.13-.43-.25-.87-.34-1.33-.26-1.29-.3-2.78-.12-4.44.18-1.69.55-3.16.83-4.1,0,0,0-.02.01-.02.02-.03.03-.04.03-.07,0-.04.02-.07.06-.08.01,0,.02,0,.03,0,.03,0,.05.01.07.04.09.14.18.29.27.45.02.04.04.08.07.12.02.04.04.08.06.12h0s.04.08.06.12c0,.01.01.02.01.03s0,.02.01.03c.03.06.06.12.09.18,0,.02.01.03.02.05.01.02.02.05.03.07.01.02.02.04.03.07.02.04.04.08.05.12.02.04.04.08.05.12.01.02.02.04.03.07.02.04.03.08.05.12.04.11.09.23.15.38.03.08.07.17.1.26.08.22.17.44.25.65l.04.12c.12.3.21.56.32.82.2-.07.33-.24.47-.42.05-.07.11-.14.17-.2.26-.28.54-.56.82-.83.42-.41.85-.83,1.22-1.29.01-.02.04-.03.06-.03h.01s.04,0,.06.02c.68.65,1.1,1.56,1.51,2.45.1.22.2.44.31.66.51-.42.94-.95,1.35-1.46.15-.18.3-.37.45-.56.04-.05.09-.1.13-.15.05-.06.1-.12.15-.17.03-.04.07-.07.1-.11.04-.04.07-.08.11-.11.15-.15.29-.28.44-.4.02-.01.04-.03.05-.04.01-.01.03-.02.05-.02h.03s0,0,0,0h0s.03.01.03.03c.08.11.16.22.24.32l.16.22c.76,1.05,1.39,2.03,1.92,3,.16-.14.25-.35.33-.56.05-.11.09-.23.15-.34.19-.34.42-.66.66-.99.4-.57.82-1.17,1.07-1.86.01-.03.03-.05.06-.06h.02s.04,0,.06.03c.52.53.96,1.14,1.38,1.74.43.6.87,1.22,1.39,1.74.12-.14.2-.33.27-.53.03-.07.05-.14.08-.21.19-.45.32-1.05.45-1.68.09-.42.18-.85.3-1.26,0-.03.03-.05.06-.06,0,0,.01,0,.02,0,.02,0,.04,0,.06.02.35.33.58.77.81,1.19.17.33.35.66.58.94.18-.29.21-.68.25-1.09.04-.38.07-.78.23-1.1h0ZM12.61,51.58c.23-.29.5-.62.89-.76.07-.03.15-.05.23-.06.57-.09,1.09.11,1.54.58.01.01.03.03.04.04h0s0,.02.01.02c0,0,0,0,0,0,.01.01.03.03.04.04l.02.02s.01.01.02.02l.02.02h0s.04.05.06.08c.06-.05.11-.1.17-.16.07-.06.13-.12.2-.18.28-.23.62-.44,1.19-.42.56.03.88.35,1.19.69.13-.07.26-.18.4-.28.13-.1.27-.2.41-.29.31-.2.66-.33,1.05-.23.32.09.54.32.76.54.06.06.12.12.18.18.12-.07.23-.14.33-.22.12-.09.25-.18.4-.25.21-.11.46-.17.8-.14.85.08,1.46.63,1.89,1.69.36.9.54,2.03.69,3.03.04.29.08.56.13.82,0,.03,0,.05-.02.07,0,0-.01.01-.02.02-.01,0-.03.01-.05.01-.2-.01-.3-.2-.39-.39-.07-.13-.13-.26-.23-.33-.2.47-.31,1.06-.42,1.62-.15.81-.3,1.64-.74,2.2h-.01s-.04.04-.06.04c-.03,0-.05,0-.07-.03-.42-.48-.8-1.02-1.17-1.53-.47-.66-.96-1.35-1.54-1.93-.72,1.33-1.51,2.57-2.27,3.72,0,0,0,.01-.01.02-.02.02-.04.03-.06.03h0s-.06-.02-.07-.05c-.41-.89-.95-1.67-1.46-2.39-.07-.1-.15-.21-.23-.31-.03-.04-.06-.08-.08-.12-.15-.21-.33-.45-.51-.7-.03.01-.07.03-.09.07h0s0,0,0,.01h0s0,.01-.01.02c0,0,0,0,0,.01,0,0,0,0,0,0,0,0,0,0,0,0,0,0,0,0,0,0,0,0,0,0,0,0-.04.05-.07.1-.1.16-.04.06-.07.12-.12.18-.01.02-.03.04-.05.05-.14.14-.28.29-.43.43-.09.09-.19.18-.28.27-.04.04-.08.08-.11.12l-.07.08s-.02.02-.03.04h0s-.03.04-.03.04h0c-.07.08-.14.16-.21.24-.02.03-.05.06-.07.09-.07.09-.14.19-.2.28-.06.09-.12.18-.19.26-.19.26-.41.5-.7.65-.02.01-.05.01-.07,0s-.04-.03-.05-.05c-.44-1.12-1.04-2.16-1.78-3.1-.03.03-.06.05-.09.09-.07.07-.13.15-.19.23-.06.07-.12.15-.18.21-.09.09-.18.16-.28.19-.03,0-.06,0-.08-.02s-.03-.05-.03-.08c.07-.52.04-1.19.02-1.91-.03-.74-.05-1.5.02-2.14,0,0,0,0,0-.01.08-.66.46-1.22.95-1.38.02,0,.05-.02.07-.02.19-.05.39-.03.57.05.17.07.33.2.46.37.05-.06.1-.13.16-.2h0ZM26.18,56.74c.09.11.04.31,0,.47,0,.03-.01.06-.02.08,0,.03-.03.05-.05.06-.03.01-.06,0-.08-.01-.07-.05-.06-.15-.04-.22,0-.06.02-.12,0-.14,0,0,0-.01-.01-.02-.02.2-.05.4-.08.6,0,.03-.03.06-.06.07s-.07,0-.09-.02c-.37-.37-.42-.78-.46-1.47-.06-.95-.24-1.98-.51-2.84-.33-1.07-.77-1.82-1.26-2.16-.31-.21-.76-.33-1.22-.31-.48.02-.9.19-1.15.46-.03.03-.07.03-.1.02-.17-.08-.3-.2-.43-.31-.2-.16-.38-.32-.64-.35-.46-.07-.83.19-1.19.43-.18.12-.35.23-.53.31-.04.02-.08,0-.11-.03-.22-.34-.64-.53-1.16-.54-.61,0-1.19.24-1.45.62-.02.02-.05.04-.08.04-.03,0-.06-.02-.07-.04-.13-.24-.34-.42-.61-.54-.26-.11-.56-.16-.87-.14-.66.04-1.21.38-1.39.86-.01.03-.03.05-.06.05-.03,0-.06,0-.08-.02l-.03-.03c-.31-.26-.64-.53-1.1-.35-.25.09-.44.27-.59.53-.14.24-.23.54-.29.93-.12.73-.09,1.62-.06,2.47.02.75.05,1.46-.03,2.02,0,.02-.01.04-.02.05-.09.09-.19.2-.27.29-.22.24-.46.48-.72.7-.01.01-.03.02-.05.02,0,0-.02,0-.03,0-.03,0-.05-.03-.06-.06-.28-.96-.48-2.11-.57-3.31-.09-1.17-.09-2.34.01-3.4-.31-.02-.61-.07-.94-.17h-.01s-.05-.02-.08-.03c-.31-.09-.63-.23-.99-.4-.13-.07-.26-.13-.38-.2-.06-.04-.13-.07-.21-.12-.01,0-.03-.01-.04-.02-.01,0-.03-.01-.04-.02,0,0-.01,0-.02-.01s-.01,0-.02-.01h0s-.03-.01-.04-.02c-.01,0-.03-.02-.04-.02-.24-.14-.48-.28-.7-.43-.13-.09-.25-.17-.37-.25,0,0-.01,0-.02-.01-.02-.01-.04-.02-.05-.04-.05-.03-.1-.07-.14-.1h0s-.02-.01-.03-.02c-.01,0-.03-.02-.04-.03-.04-.03-.09-.07-.14-.1-.12-.08-.23-.17-.35-.26-.04-.04-.09-.07-.14-.11-.85-.69-1.58-1.48-2.25-2.41-.41-.58-.71-1.15-.89-1.67-.24-.7-.26-1.33-.06-1.88.01-.03.04-.05.07-.06.09,0,.18-.02.26-.03.19-.02.37-.05.55-.01.3.06.52.23.72.38.11.08.21.16.31.21-.04-.19-.21-.37-.37-.56-.17-.19-.35-.39-.44-.63-.15-.4-.22-1.02.09-1.46.01-.01.03-.03.05-.03,0,0,0,0,0,0,.52-.09.99.17,1.4.4.1.05.19.1.28.15,0-.14-.13-.29-.26-.46s-.28-.36-.34-.57c-.17-.6,0-1.22.2-1.6.01-.02.04-.04.06-.04.36-.06.69-.01.98.15.26.14.47.34.68.53.13.13.26.25.4.35-.01-.18-.07-.4-.13-.64-.02-.07-.04-.15-.05-.22-.12-.52-.21-1.08.07-1.5.12-.18.31-.29.56-.33.36-.05.82.07,1.1.31.5.41.91,1.03,1.35,1.68.2.3.41.61.63.9.68.9,1.38,1.66,2.02,2.21.02-.24-.07-.48-.15-.74-.06-.17-.12-.35-.15-.54-.09-.57-.09-1.2,0-1.68.27-1.39,1.17-2.83,2.31-3.67,1.12-.83,2.62-1.32,4.45-1.43.09,0,.17-.01.26-.02.42-.03.86-.07,1.29.02.72.15,1.41.48,2.06.99.57.45,1.08,1.02,1.46,1.65.01.02.02.04.01.07s-.02.04-.04.05c-.19.11-.39.2-.58.29-.34.16-.7.33-.98.57.08.23.21.54.43.78,0,0,0,0,.01.01,0,0,0,0,0,0,0,0,0,0,.01,0,0,0,.01.01.02.02,0,0,0,0,.01.01,0,0,0,0,0,0,0,0,0,0,.01.01,0,0,0,0,0,0,0,0,0,0,.01.01.02.01.03.03.04.04,0,0,0,0,0,0,0,0,0,0,.01,0,0,0,0,0,0,0,0,0,0,0,.01.01.2.14.42.2.66.17h0s.02,0,.03,0h0s0,0,.01,0h.01s.03,0,.05,0h0s0,0,.01,0h.02s.02,0,.03,0h0s.02,0,.03,0h.01s.05-.03.08-.04c.02-.01.05-.03.07-.05h.01s.02-.03.03-.03h.01c.09-.1.16-.22.23-.34.12-.19.24-.38.44-.5.02-.01.04-.01.07-.01.02,0,.04.02.05.04.47.83.84,1.85,1.09,3.01.69-.12,1.27-.42,1.77-.92.49-.49.87-1.12,1.19-1.73.05-.09.1-.18.15-.28.34-.65.69-1.32,1.22-1.61.28-.15.85-.32,1.21-.2.28.09.55.4.72.85.15.38.21.81.18,1.17.11-.04.21-.11.32-.2.2-.15.43-.33.8-.33h0c.36,0,.69.21.91.39.26.21.49.5.62.76.13.27.19.58.16.91-.03.28-.11.59-.26.91-.26.59-.66,1.13-.95,1.53,0,0,0,0,0,.01.09.05.18.05.29.05.13,0,.28,0,.45.09.32.17.5.43.52.77.03.44-.19.91-.38,1.22-.2.33-.47.64-.69.82.07.11.19.18.32.26.15.09.3.18.4.35,0,.01.01.03.01.04-.02.71-.38,1.33-1.08,1.82-.03.02-.05.04-.08.05-.03.02-.05.04-.08.05-.07.04-.14.08-.2.12h0s-.03.01-.04.02h0s-.05.03-.08.05h-.01s-.02.02-.03.02c-.03.01-.05.03-.08.04-.07.04-.14.07-.2.1-1.98.88-4.07,1.76-5.97,2.19.36.92.59,2.1.67,3.43.07,1.03.04,2.11-.07,3.14.01-.02.04-.03.06-.03h0v-.04s.03-.07.06-.08c.04-.01.08,0,.1.03l.02-.02Z"/>
      <g class="cls-11">
        <path class="cls-2" d="M33.71,44.22c.17-.42.23-.87.17-1.26-.09-.53-.39-.9-.86-1.05.26-.41.52-.86.69-1.34.23-.65.25-1.24.04-1.75,0,0,0,0,0,0-.22-.56-.91-1.24-1.42-1.42-.47-.16-.89-.04-1.25.12-.05-.31-.18-.67-.38-.99-.23-.38-.5-.63-.73-.69-.5-.14-1.14.06-1.43.2-.47.22-1.07.98-1.34,1.45-.12.21-.24.44-.36.66-.55,1.04-1.11,2.11-2.29,2.39-.17-.98-.56-1.77-.92-2.54-.04-.08-.08-.16-.11-.23.08-.17.22-.33.36-.5.28-.32.6-.69.45-1.21-.01-.04-.04-.06-.08-.06-.43-.02-.8.16-1.17.33-.17.08-.33.16-.5.21-.05-.06-.1-.12-.14-.18-.5-.63-1.06-1.34-1.81-1.8-.4-.25-1.19-.67-1.96-.76-1.18-.13-2.41-.02-3.57.33-1.01.3-1.95.78-2.63,1.35-.86.71-1.56,1.63-1.97,2.59-.24.55-.38,1.11-.43,1.67-.05.51-.01,1.01.1,1.51-.36-.38-.75-.9-1.16-1.44-.11-.15-.22-.3-.34-.45-.18-.23-.35-.47-.51-.71-.41-.58-.79-1.12-1.23-1.47-.18-.14-.46-.28-.66-.33-.26-.06-.5-.07-.72-.03-.2.04-.37.13-.52.27-.21.2-.35.5-.41.87-.05.29-.04.63.01.98-.06-.04-.12-.07-.19-.11-.41-.25-.87-.54-1.42-.32-.32.13-.5.5-.53,1.07-.02.42.05.86.12,1.16-.52-.16-.88-.17-1.1-.02-.55.37-.29,1.4-.16,1.96,0,.02,0,.03.01.05-.44-.08-.78-.01-1.01.19-.27.25-.38.7-.3,1.35.06.53.29,1.18.6,1.72.78,1.35,1.87,2.61,3.17,3.65,1.33,1.06,2.83,1.84,4.32,2.24-.08,1.03-.01,2.15.04,3.15.01.17.02.33.03.48-.16-.11-.38-.18-.58-.25-.19-.07-.39-.13-.53-.22-.05-.03-.08-.07-.12-.12-.07-.09-.16-.2-.37-.17-.23.03-.39.47-.53.95,0,.02-.01.04-.02.05-.36,1.23-.64,2.67-.71,3.68-.16,2.31-.02,4.18.4,5.58h0c.26.87.46,1.54.79,2.22.32.66.72,1.27,1.19,1.82.45.53.97,1.02,1.56,1.46,1.09.82,2.42,1.48,4.06,2.03.98.33,1.8.51,2.5.56.26.01.51.02.77.02,1.47,0,2.88-.26,4.18-.78,1.3-.52,2.52-1.29,3.61-2.29.49-.45.92-.96,1.33-1.56.35-.51.68-1.1,1.05-1.85.57-1.15.96-2.67,1.11-4.27.08-.81.09-1.63.04-2.42-.05-.83-.17-1.62-.36-2.34-.01-.05-.02-.09-.04-.14-.2-.79-.43-1.68-1.06-1.98.01-1.76-.2-3.38-.65-4.95,1.14-.15,2.35-.66,3.7-1.25.3-.13.61-.26.91-.38.95-.38,1.85-.74,2.46-1.37.4-.42.77-1.11.67-1.68-.05-.3-.22-.53-.49-.7.26-.2.48-.51.63-.88h0ZM32.87,45.03s-.04.05-.04.08c0,.03.02.06.05.07.3.15.47.36.52.65.04.23,0,.51-.13.81-.12.26-.29.52-.49.73-.58.6-1.46.96-2.4,1.33-.3.12-.61.25-.91.38-1.37.61-2.6,1.12-3.75,1.25-.03,0-.05.02-.06.04s-.02.05-.01.07c.47,1.6.69,3.25.66,5.05,0,.04.02.07.05.08.59.24.81,1.11,1.01,1.89.01.05.03.09.04.14.19.72.31,1.49.36,2.31.05.78.04,1.59-.04,2.39-.15,1.58-.54,3.08-1.1,4.21-.36.74-.69,1.32-1.04,1.83-.4.59-.82,1.09-1.3,1.53-1.07.99-2.27,1.75-3.55,2.26-1.51.6-3.15.85-4.87.75-.69-.04-1.49-.22-2.45-.55-1.62-.55-2.93-1.2-4.01-2.01-.58-.43-1.09-.91-1.54-1.43-.46-.54-.85-1.14-1.17-1.79-.32-.66-.52-1.33-.78-2.18h0c-.41-1.38-.54-3.24-.39-5.53.07-.99.34-2.42.7-3.64,0-.01.01-.03.02-.05.04-.12.1-.33.17-.52.12-.29.2-.31.21-.31h.04c.09,0,.12.04.18.11.04.05.09.1.16.15.16.1.37.17.57.24.25.08.5.17.64.3,0,0,.01.01.02.01.01.03.05.05.08.05.05,0,.08-.04.08-.09-.01-.22-.03-.44-.04-.69-.06-1.02-.13-2.17-.04-3.2,0-.04-.02-.08-.06-.09-1.5-.39-2.99-1.16-4.33-2.23-1.28-1.02-2.36-2.26-3.13-3.6-.3-.53-.52-1.15-.58-1.66-.07-.59.01-.99.25-1.2.2-.18.53-.22.99-.12.03,0,.06,0,.08-.02.02-.02.03-.05.02-.08-.01-.05-.03-.11-.04-.18-.07-.27-.16-.64-.17-.99-.02-.39.07-.66.26-.78.19-.13.56-.1,1.1.09.03.01.07,0,.09-.02s.03-.06.02-.09c-.21-.66-.31-1.94.26-2.18.47-.19.87.06,1.27.3.12.08.24.15.35.2.03.01.07.01.09,0,.03-.02.04-.05.03-.08-.16-.83-.04-1.52.32-1.87.25-.24.61-.31,1.07-.2.18.04.43.17.6.3.42.33.8.87,1.2,1.43.17.24.34.48.52.72.12.15.23.3.34.45.5.66.97,1.28,1.4,1.69.03.03.07.03.1.01.03-.02.05-.06.04-.1-.17-.57-.22-1.16-.17-1.75.05-.54.19-1.08.42-1.61.4-.93,1.09-1.83,1.93-2.52.66-.55,1.58-1.02,2.57-1.32,1.13-.34,2.34-.45,3.5-.32.74.08,1.5.5,1.89.74.72.44,1.25,1.11,1.76,1.76.06.08.12.15.18.23.02.03.06.04.09.03.2-.06.39-.15.57-.24.33-.15.66-.31,1.02-.31.08.4-.17.69-.43.99-.16.18-.32.37-.41.58,0,.02,0,.05,0,.07.04.09.09.18.13.27.38.77.76,1.58.92,2.58,0,.02.02.04.04.06.02.01.04.02.07.01.59-.12,1.09-.43,1.53-.95.38-.45.68-1.01.96-1.55.12-.22.24-.45.36-.66.3-.52.87-1.2,1.26-1.38.27-.13.86-.32,1.32-.19.18.05.42.29.63.62.21.34.35.73.37,1.04,0,.03.02.05.04.07.02.01.05.02.08,0,.38-.17.78-.31,1.23-.16.47.16,1.13.82,1.32,1.33,0,0,0,0,0,0,.18.48.17,1.01-.05,1.62-.19.53-.47,1-.73,1.4-.01.02-.02.05,0,.08.01.03.03.04.06.05.6.14.79.59.85.94.12.75-.26,1.68-.83,2.05h0Z"/>
      </g>
      <path class="cls-2" d="M11.98,51.4c-.18-.08-.38-.09-.57-.05-.03,0-.05.01-.07.02-.49.17-.87.72-.95,1.38,0,0,0,0,0,.01-.07.65-.05,1.41-.02,2.14.03.71.05,1.38-.02,1.91,0,.03,0,.06.03.08.02.02.05.03.08.02.1-.03.19-.1.28-.19.06-.06.12-.14.18-.21.06-.08.13-.16.19-.23.03-.03.06-.06.09-.09.74.94,1.34,1.98,1.78,3.1,0,.02.03.04.05.05.02,0,.05,0,.07,0,.3-.15.51-.39.7-.65.07-.09.13-.18.19-.26.07-.09.13-.19.2-.28.02-.03.05-.06.07-.09.07-.09.14-.17.21-.24h0s.02-.03.03-.04h0s.02-.03.03-.04l.07-.08s.08-.08.11-.12c.09-.09.19-.19.28-.27.14-.14.29-.28.43-.43.02-.02.03-.04.05-.05.04-.05.08-.12.12-.18.03-.05.07-.11.1-.16,0,0,0,0,0,0,0,0,0,0,0,0,0,0,0,0,0,0,0,0,0,0,0,0,0,0,0,0,0-.01,0,0,0,0,.01-.01h0s0-.01,0-.01c0,0,0,0,0,0,.03-.03.06-.05.09-.07.18.25.35.49.51.7.03.04.06.08.08.12.07.1.15.21.23.31.51.72,1.05,1.5,1.46,2.39.01.03.04.05.07.05h0s.05-.01.06-.03c0,0,.01-.01.01-.02.76-1.14,1.55-2.38,2.27-3.72.57.58,1.06,1.26,1.54,1.93.37.52.75,1.05,1.17,1.53.02.02.04.03.07.03.02,0,.04-.01.06-.03h.01c.43-.57.59-1.41.74-2.21.1-.57.21-1.15.42-1.62.1.07.16.2.23.33.09.19.19.38.39.39.02,0,.03,0,.05-.01,0,0,.02-.01.02-.02.02-.02.03-.05.02-.07-.04-.26-.09-.53-.13-.82-.15-1-.33-2.13-.69-3.03-.43-1.06-1.05-1.62-1.89-1.69-.34-.03-.59.04-.8.14-.14.07-.27.16-.4.25-.1.07-.21.15-.33.22-.06-.06-.12-.12-.18-.18-.21-.22-.43-.46-.76-.54-.39-.11-.74.03-1.05.23-.14.09-.28.19-.41.29-.14.1-.27.21-.4.28-.31-.33-.64-.66-1.19-.69-.56-.03-.91.18-1.19.42-.07.06-.14.12-.2.18-.06.06-.12.11-.17.16-.02-.03-.04-.05-.06-.08h0l-.02-.02s-.01-.01-.02-.02l-.02-.02s-.03-.03-.04-.04c0,0,0,0,0,0,0,0,0,0-.01-.01h0s0,0,0,0c-.01-.01-.03-.03-.04-.04-.45-.47-.98-.67-1.54-.58-.08.01-.16.03-.23.06-.39.14-.65.46-.89.76-.05.07-.11.13-.16.2-.14-.18-.29-.3-.46-.37h0ZM13.75,50.93c.51-.08.98.1,1.4.53h0s.02.02.03.04h0s0,0,0,0c0,0,0,0,.01.01h0s0,0,0,0c0,0,.01.01.02.02,0,0,.01.02.02.02h0s0,0,0,0,0,0,0,0c.01.01.02.03.03.04h0c.04.05.08.1.11.14.03.04.08.05.12.02.01,0,.02-.01.02-.02h0c.08-.07.16-.14.23-.21.31-.28.63-.58,1.26-.55.51.03.81.34,1.12.68h0s.07.04.1.02c.16-.08.31-.2.48-.33.4-.31.82-.62,1.3-.49.27.08.47.28.68.5.07.08.15.16.23.23.03.02.07.03.1.01.15-.08.28-.17.41-.26.31-.22.57-.41,1.08-.36.77.07,1.35.59,1.75,1.58.36.88.53,2,.68,2.99.04.23.07.44.1.65-.04-.05-.08-.13-.13-.22-.09-.18-.19-.39-.4-.45-.04-.01-.08,0-.1.05-.24.51-.35,1.14-.46,1.75-.14.75-.28,1.52-.64,2.05-.39-.46-.74-.95-1.09-1.44-.5-.7-1.02-1.42-1.64-2.03-.02-.02-.05-.03-.07-.02-.03,0-.05.02-.06.04-.7,1.32-1.48,2.55-2.23,3.68-.41-.85-.92-1.59-1.41-2.28-.08-.11-.15-.21-.23-.31-.03-.04-.06-.08-.08-.11-.16-.22-.35-.48-.54-.75-.01-.02-.04-.04-.07-.04h-.01c-.09.01-.16.05-.23.11,0,0,0,0-.01,0h0s0,.02-.01.02c0,0,0,0,0,0,0,0-.01.01-.02.02,0,0,0,0,0,0h0s0,.01-.01.01c0,0,0,0,0,0,0,0,0,0,0,.01-.04.05-.07.11-.11.17-.04.08-.09.15-.14.2-.13.14-.27.28-.42.42-.09.09-.19.18-.28.28-.04.04-.08.08-.11.12l-.07.08s-.05.05-.08.08c-.07.08-.14.16-.22.25-.1.12-.19.25-.28.38-.22.32-.44.62-.75.81-.46-1.12-1.07-2.17-1.82-3.12-.03-.03-.07-.04-.11-.02-.16.09-.28.25-.4.4-.08.1-.16.2-.24.27.05-.51.02-1.12,0-1.77-.02-.73-.05-1.48.02-2.11,0,0,0,0,0-.01.04-.32.14-.61.31-.84.16-.22.36-.37.58-.42.34-.09.66.07.92.44.01.02.04.04.07.04.03,0,.05,0,.07-.03.08-.09.16-.18.24-.28.27-.33.54-.68,1-.75h0Z"/>
      <path class="cls-2" d="M26.03,56.78v.03h0s-.04.03-.06.04c.11-1.04.13-2.11.07-3.14-.09-1.33-.32-2.51-.67-3.43,1.9-.43,3.99-1.3,5.97-2.19.06-.03.13-.06.2-.1.03-.01.05-.03.08-.04.01,0,.02-.01.03-.02h.01s.06-.04.08-.05h0s.03-.01.04-.02h0c.07-.04.14-.08.2-.12.03-.02.05-.04.08-.05.03-.02.05-.04.08-.05.7-.5,1.06-1.11,1.08-1.82,0-.01,0-.03-.01-.04-.09-.17-.25-.26-.4-.35-.12-.07-.24-.14-.32-.26.23-.18.49-.5.69-.82.19-.31.42-.78.38-1.22-.03-.35-.2-.61-.52-.77-.17-.09-.32-.09-.45-.09-.11,0-.21,0-.29-.05,0,0,0,0,.01-.01.29-.4.69-.94.95-1.53.14-.33.23-.63.26-.91.03-.33-.02-.64-.16-.91-.13-.26-.36-.54-.62-.76-.22-.18-.55-.39-.91-.39h0c-.37,0-.6.18-.8.33-.11.08-.21.16-.32.2.04-.36-.03-.79-.18-1.17-.18-.45-.44-.75-.72-.85-.35-.12-.93.05-1.21.2-.54.29-.89.96-1.22,1.61-.05.09-.1.19-.15.28-.33.61-.7,1.24-1.19,1.73-.5.5-1.08.8-1.77.92-.26-1.16-.62-2.18-1.09-3.01-.01-.02-.03-.04-.05-.04-.02,0-.05,0-.07.01-.2.12-.33.32-.44.5-.08.12-.15.23-.23.32h-.01s-.02.03-.03.04h-.01s-.05.05-.07.06c-.03.02-.05.03-.08.04h-.01s-.02.01-.03.01h0s-.02,0-.03,0h-.01s0,0,0,0c0,0,0,0-.01,0h0s-.03,0-.05,0h-.03s-.02,0-.03,0h0c-.25.03-.47-.03-.66-.17,0,0,0,0-.01-.01,0,0,0,0,0,0,0,0,0,0-.01,0s0,0,0,0c-.01-.01-.03-.02-.04-.04,0,0,0,0-.01-.01,0,0,0,0,0,0,0,0,0,0-.01-.01,0,0,0,0,0,0,0,0,0,0-.01-.01,0,0-.01-.01-.02-.02,0,0,0,0-.01,0h0s0-.01-.01-.02c-.22-.24-.35-.54-.43-.78.28-.23.63-.4.98-.57.19-.09.39-.19.58-.29.02-.01.03-.03.04-.05,0-.02,0-.05-.01-.07-.38-.63-.89-1.19-1.46-1.65-.65-.51-1.34-.84-2.06-.99-.43-.09-.87-.05-1.29-.02-.09,0-.18.01-.26.02-1.83.12-3.32.6-4.45,1.43-1.14.85-2.05,2.29-2.32,3.67-.09.48-.09,1.11,0,1.68.03.19.09.36.15.54.08.25.17.49.15.74-.65-.55-1.34-1.31-2.02-2.21-.22-.29-.43-.6-.63-.9-.44-.65-.85-1.26-1.35-1.68-.28-.23-.74-.36-1.1-.31-.25.04-.44.15-.56.33-.29.42-.2.98-.07,1.5.02.08.04.15.05.22.06.24.12.47.13.64-.14-.1-.26-.22-.4-.35-.2-.2-.42-.4-.68-.53-.3-.16-.62-.2-.98-.15-.03,0-.05.02-.06.04-.21.38-.37,1-.2,1.6.06.22.21.41.34.57.13.17.25.32.26.46-.09-.05-.18-.1-.28-.15-.41-.23-.88-.49-1.4-.4,0,0,0,0,0,0-.02,0-.04.02-.05.03-.3.43-.24,1.06-.09,1.46.09.24.26.43.44.63.17.19.33.37.37.56-.1-.05-.2-.13-.31-.21-.2-.15-.42-.32-.72-.38-.18-.04-.36-.01-.55.01-.08,0-.17.02-.26.03-.03,0-.06.03-.07.06-.2.55-.18,1.18.06,1.88.18.52.48,1.08.89,1.67.66.94,1.4,1.72,2.25,2.41.05.04.09.07.14.11.12.09.23.18.35.26.05.04.1.07.14.1.01,0,.03.02.04.03.01,0,.02.01.03.02h0s.1.07.14.1c.02.01.04.03.05.04,0,0,.01,0,.02.01.12.08.24.16.37.25.22.14.46.29.7.43.01,0,.03.02.04.02.01,0,.03.01.04.02h0s.01,0,.02.01c0,0,.01,0,.02.01.01,0,.03.02.04.02.01,0,.03.01.04.02.08.04.14.08.21.12.13.07.26.14.38.2.35.17.68.31.99.4.03,0,.05.02.08.02h.01c.32.1.63.15.94.17-.1,1.06-.11,2.23-.01,3.4.1,1.2.3,2.35.57,3.31,0,.03.03.05.06.06,0,0,.02,0,.03,0,.02,0,.04,0,.05-.02.26-.21.49-.46.72-.7.09-.1.18-.2.27-.29.01-.01.02-.03.02-.05.07-.56.05-1.27.03-2.02-.03-.86-.06-1.75.06-2.47.06-.39.16-.69.29-.93.15-.26.34-.43.59-.53.46-.18.79.09,1.1.35l.03.03s.05.02.08.02c.03,0,.05-.03.06-.05.18-.48.73-.82,1.39-.86.31-.02.61.03.87.14.27.12.48.3.61.54.01.03.04.04.07.04s.06-.01.08-.04c.26-.38.84-.63,1.45-.62.52,0,.95.2,1.16.54.02.04.07.05.11.03.18-.08.35-.19.53-.31.36-.24.73-.49,1.19-.43.26.04.45.19.64.35.13.11.27.22.43.31.03.02.08.01.1-.02.25-.27.67-.44,1.15-.46.45-.02.91.1,1.22.31.5.34.93,1.09,1.26,2.16.26.86.45,1.9.51,2.84.04.69.08,1.1.46,1.47.02.02.06.03.09.02.03-.01.05-.04.06-.07.03-.2.06-.4.08-.6,0,0,0,.01.01.02.02.03.01.09,0,.14-.01.07-.03.17.04.22.02.02.06.02.08.01.03-.01.05-.03.05-.06,0-.02.01-.05.02-.08.04-.16.09-.36,0-.47-.02-.03-.06-.04-.09-.03s-.06.04-.06.08h-.01ZM1.88,41.13h0c.44-.06.85.17,1.24.38.14.08.26.15.39.21,0,0,0,0,0,0h0s0,0,0,0h.02s.02,0,.03,0h0s0,0,0,0h0s0,0,0,0,0,0,0,0c0,0,0,0,0,0,0,0,0,0,0,0s0,0,0,0c0,0,0,0,0,0h0s0,0,0,0,0,0,0,0c0,0,0,0,0,0s0,0,0,0,0,0,0,0h0s0,0,0-.01h0c.09-.26-.09-.49-.27-.72-.13-.16-.26-.33-.31-.51-.11-.39-.07-.86.09-1.26.02-.06.05-.12.08-.17.7-.1,1.08.26,1.47.64.17.16.35.33.55.46h0s0,0,0,0c0,0,0,0,0,0,0,0,0,0,0,0h.05s0,0,0,0h.01s0,0,0,0c0,0,0,0,0,0s0,0,0,0h0s0,0,0,0c0,0,0,0,0,0s0,0,0,0c0,0,0,0,0,0,0,0,0,0,0,0h0s0-.01,0-.01h0s0,0,0-.01h0s0,0,0,0c.03-.21-.03-.48-.11-.79,0-.02-.01-.04-.01-.06-.05-.2-.1-.4-.13-.61,0-.04-.01-.09-.02-.13-.01-.09-.02-.17-.01-.26,0-.05,0-.1,0-.15,0-.04.01-.08.02-.12.02-.12.07-.23.13-.33,0,0,.01-.02.02-.03h0s0,0,0,0c.12-.14.29-.2.42-.22.03,0,.06,0,.09,0h.03c.29,0,.62.1.84.28h0s.06.05.09.08c.44.4.82.96,1.23,1.56.2.3.41.61.64.91.02.02.04.04.05.07,0,0,.01.01.02.02.01.02.03.03.04.05,0,.01.02.03.03.04.01.01.02.03.04.05.01.01.02.03.03.04.01.01.02.03.04.04.01.01.02.03.03.04s.02.03.03.04c.01.01.02.03.04.05.01.01.02.03.03.04.01.01.02.03.04.05.01.01.02.02.03.04.01.01.02.03.04.05.01.01.02.03.03.04.01.01.02.03.04.04.01.01.02.03.03.04.01.01.02.03.04.04.01.01.02.02.03.04.01.01.03.03.04.04.01.01.02.02.03.04.01.01.03.03.04.04.01.01.02.02.03.03.01.01.03.03.04.04.01.01.02.02.03.03.01.01.03.03.04.04.01.01.02.02.03.03.01.01.03.03.04.04.01.01.02.02.03.03.01.01.03.03.04.04l.03.03s.03.03.04.04l.03.03s.03.03.04.04l.03.03s.03.03.04.04l.03.03s.03.03.04.04c.01.01.02.02.03.03.01.01.02.03.04.04.01.01.02.02.03.03.01.01.02.03.04.04.01.01.02.02.03.03.01.01.02.03.04.04.01.01.02.02.03.03.01.01.02.02.04.04.01.01.02.02.03.03.01.01.02.02.04.04.01.01.02.02.03.03.01.01.02.02.04.03.01.01.02.02.03.03.01.01.02.02.04.03.01.01.02.02.03.03.01.01.02.02.04.03.01.01.02.02.03.03.01.01.02.02.04.03.01,0,.02.02.03.03.01.01.02.02.03.03.01,0,.02.02.03.03.01.01.02.02.03.03.01,0,.02.02.03.03.01.01.02.02.03.03.01,0,.02.02.03.03,0,0,.01.01.02.02h0s.04.03.06.04h0s0,0,0,0h.02s0,0,.01,0h0s0,0,.01,0h0s0,0,0,0c0,0,0,0,0,0h0s.01,0,.01-.01h0s0,0,0-.01h0s0-.01,0-.02h0c.08-.35-.03-.67-.13-.98-.06-.17-.11-.34-.14-.51-.09-.55-.09-1.17,0-1.62.13-.67.41-1.36.82-2,.4-.63.89-1.17,1.43-1.56,1.1-.81,2.56-1.29,4.36-1.4.09,0,.18-.01.27-.02.36-.03.73-.06,1.09,0,.05,0,.1.01.15.02.69.14,1.36.46,1.98.96.53.42,1.01.95,1.37,1.52-.16.09-.33.17-.49.24-.37.18-.76.36-1.06.63-.03.02-.04.06-.03.09.08.26.23.62.49.9h0s0,.01,0,.01h0s0,0,0,0c0,0,0,0,0,.01h0s0,.01.01.01c0,0,.01.01.02.02,0,0,0,0,0,0h0s0,0,0,0c0,0,0,0,0,0,0,0,0,0,.01.01.03.03.05.05.08.06,0,0,0,0,0,0s0,0,0,0c0,0,0,0,.01,0,.16.11.33.18.51.21.09.01.18.01.28,0h.01s.03,0,.04,0h0s.01,0,.01,0h0s.04,0,.05-.01h.01s0,0,0,0c0,0,.01,0,.02,0h0s.02,0,.03,0c0,0,.01,0,.01,0,.01,0,.03,0,.04-.01h0s0,0,0,0c.04-.01.07-.03.11-.05.03-.02.07-.04.1-.07h.02s.03-.04.04-.05h.01c.1-.12.18-.24.26-.36.09-.15.18-.29.31-.39.45.82.8,1.82,1.04,2.96,0,.04.04.07.08.07.01,0,.02,0,.03,0,.76-.12,1.4-.44,1.94-.98.51-.51.89-1.16,1.22-1.77.05-.09.1-.19.15-.28.33-.62.66-1.27,1.15-1.53.23-.12.68-.26.98-.21.03,0,.06.01.09.02.23.08.46.36.62.75.16.4.21.85.15,1.2,0,.03,0,.05.02.07.01.02.04.03.06.03,0,0,.01,0,.02,0,.21-.02.36-.13.52-.26.19-.14.38-.29.69-.3.03,0,.05,0,.08,0,.22.02.47.15.72.35.24.2.46.46.57.7.12.24.17.52.14.82-.02.26-.1.55-.24.86-.25.57-.65,1.11-.93,1.5-.02.03-.04.06-.06.08-.03.04-.02.09.01.12.11.1.23.13.34.14.05,0,.09,0,.14,0,.05,0,.11,0,.16,0,.07,0,.13.03.21.06.26.14.41.35.43.63.02.31-.1.7-.36,1.12-.21.34-.49.66-.71.82-.03.02-.04.07-.03.1.09.19.25.3.42.39.13.08.25.15.32.26-.03.65-.37,1.2-1.01,1.66-.03.02-.05.04-.08.05s-.05.03-.08.05c-.07.04-.13.08-.2.12l-.04.02s-.05.03-.08.04h0s0,0-.01,0c-.01,0-.02.01-.03.01,0,0,0,0,0,0-.03.01-.05.03-.08.04-.07.04-.14.07-.2.09-2.01.9-4.13,1.78-6.04,2.2-.03,0-.05.02-.06.04-.01.02-.01.05,0,.07.37.91.61,2.11.7,3.47.07,1.17.03,2.44-.13,3.61-.2-.27-.24-.6-.28-1.21-.06-.96-.25-2.01-.52-2.89-.16-.52-.35-.97-.55-1.33-.23-.42-.5-.73-.78-.92-.21-.15-.49-.25-.78-.3-.18-.03-.36-.05-.55-.04-.5.02-.93.18-1.22.46-.12-.07-.23-.16-.34-.25-.2-.17-.42-.35-.73-.39h0c-.53-.07-.95.21-1.31.46-.15.1-.29.2-.43.27-.21-.28-.55-.47-.97-.53-.09-.01-.2-.02-.3-.03-.31,0-.63.06-.91.17-.25.1-.45.25-.6.41-.15-.22-.36-.39-.63-.5-.14-.06-.3-.1-.46-.13-.16-.03-.33-.03-.5-.02-.34.02-.66.12-.93.28-.25.15-.44.35-.56.58-.2-.17-.44-.34-.72-.39-.15-.03-.32-.01-.5.06-.53.2-.85.72-.99,1.59-.12.74-.09,1.64-.06,2.51.02.73.05,1.42-.02,1.96-.09.09-.17.18-.26.27-.19.2-.38.41-.59.59-.26-.92-.44-2.01-.53-3.14-.1-1.19-.09-2.38.02-3.46,0-.02,0-.05-.02-.07-.01-.01-.03-.03-.06-.03h-.01c-.14,0-.28-.02-.42-.04-.18-.03-.37-.07-.56-.12-.02,0-.03-.01-.05-.01-.01,0-.03,0-.04-.01-.3-.09-.61-.22-.96-.39-.12-.06-.24-.12-.38-.2-.06-.04-.13-.07-.21-.12h0s-.05-.03-.08-.04c0,0,0,0,0,0,0,0-.01,0-.02-.01h-.02s-.03-.03-.04-.04c-.01,0-.03-.01-.04-.02-.23-.13-.47-.27-.7-.42-.13-.09-.25-.17-.37-.24h0s-.03-.02-.04-.03c0,0-.02-.01-.03-.02-.02-.02-.05-.03-.07-.05-.02-.02-.05-.03-.07-.05-.01,0-.02-.02-.04-.03s-.02-.02-.03-.03h0s-.09-.07-.14-.1c-.13-.09-.24-.18-.34-.26-.04-.03-.08-.06-.11-.09l-.02-.02c-.83-.68-1.56-1.46-2.21-2.38-.4-.57-.7-1.11-.87-1.62-.22-.64-.24-1.22-.08-1.72.07,0,.14-.01.21-.02.17-.02.31-.04.45-.02h.01s.02,0,.03,0c.25.05.45.2.64.35.16.13.32.24.49.28.11.03.12.03,0,0-.17-.04,0,0,0,0h.01s.02,0,.04,0h0s0,0,0,0h0s0,0,0,0c0,0,0,0,0,0,0,0,0,0,0,0,0,0,0,0,0,0s0,0,0,0c0,0,0,0,0,0s0,0,0,0h0s0,0,0,0h0s0,0,0,0h0s0,0,0,0h0s0-.01,0-.02v-.06c-.01-.28-.22-.51-.43-.74-.16-.18-.32-.36-.4-.57h0c-.08-.21-.12-.44-.12-.66,0-.18.04-.35.1-.49.02-.04.04-.08.06-.12l-.03.02Z"/>
      <path class="cls-2" d="M25.45,57.29c-.23-.42-.46-.86-.81-1.19-.02-.01-.04-.02-.06-.02,0,0-.01,0-.02,0-.03,0-.05.03-.06.06-.12.42-.21.85-.3,1.26-.13.63-.26,1.22-.45,1.68-.03.07-.06.14-.08.21-.08.2-.15.39-.27.53-.52-.52-.96-1.14-1.39-1.74-.42-.6-.86-1.21-1.38-1.74-.02-.02-.04-.02-.06-.03h-.02s-.05.03-.06.06c-.25.7-.66,1.29-1.07,1.86-.24.34-.46.66-.66.99-.06.11-.11.22-.15.34-.09.21-.17.42-.33.56-.53-.97-1.16-1.95-1.92-3l-.16-.22c-.08-.1-.16-.22-.24-.32,0-.01-.02-.02-.03-.03h0s0,0,0,0h-.03s-.03,0-.05.02c-.02.01-.04.03-.05.04-.15.12-.3.26-.44.4-.04.04-.07.07-.11.11-.03.04-.07.07-.1.11-.05.06-.1.11-.15.17-.04.05-.09.1-.13.15-.15.18-.31.37-.45.56-.41.51-.83,1.04-1.35,1.46-.11-.22-.21-.44-.31-.66-.41-.89-.83-1.8-1.51-2.45-.01-.01-.04-.02-.06-.02h-.01s-.05.01-.06.03c-.37.46-.8.88-1.22,1.29-.28.27-.56.55-.82.83-.06.06-.11.14-.17.2-.14.18-.27.35-.47.42-.1-.25-.2-.51-.32-.82l-.04-.12c-.08-.22-.17-.44-.25-.65-.03-.09-.07-.17-.1-.26-.06-.15-.11-.27-.15-.38-.02-.04-.03-.08-.05-.12-.01-.02-.02-.05-.03-.07-.02-.04-.04-.08-.05-.12-.02-.04-.04-.08-.05-.12-.01-.02-.02-.04-.03-.07-.01-.03-.02-.05-.03-.07,0-.02-.01-.03-.02-.05-.03-.06-.06-.12-.09-.18,0-.01-.01-.02-.01-.03,0-.01-.01-.02-.01-.03-.02-.04-.04-.08-.06-.12h0s-.04-.08-.06-.12c-.02-.04-.04-.08-.07-.12-.09-.16-.18-.31-.27-.45-.02-.02-.04-.04-.07-.04-.01,0-.02,0-.03,0-.04.01-.06.05-.06.08,0,.03,0,.04-.03.07,0,0,0,.01-.01.02-.28.94-.65,2.41-.83,4.1-.18,1.66-.14,3.15.12,4.44.09.45.2.9.34,1.33.01.05.03.1.05.16,0,.03.02.05.03.08h0c.02.05.04.11.05.16.04.11.08.21.11.3.03.08.06.15.09.23.03.07.06.14.09.22l.07.14h0c.04.08.07.15.1.22.04.08.08.17.14.28h0c.04.07.07.14.11.21.01.02.03.05.04.07.01.02.02.04.04.07.02.03.04.07.06.1,0,.01.01.03.02.04.05.09.11.18.16.26.06.09.12.18.17.26h0s.06.09.09.13c.28.4.59.77.92,1.11.02.02.04.04.05.05.91.91,2.01,1.63,3.28,2.13.72.28,1.54.6,2.42.83.79.2,1.55.3,2.32.3h0c.18,0,.35,0,.53-.01,1.18-.07,2.29-.28,3.3-.64.95-.34,1.84-.8,2.64-1.39,1.45-1.07,2.64-2.56,3.53-4.43.33-.69.59-1.49.77-2.38.17-.86.27-1.77.27-2.7.02-1.93-.32-3.73-.96-5.06-.01-.03-.04-.05-.08-.05h0s-.06.02-.08.05c-.16.32-.2.71-.23,1.09-.04.41-.07.8-.25,1.09-.23-.27-.41-.61-.58-.94h0ZM26.11,58.42c.26-.34.31-.81.35-1.26.03-.3.05-.6.14-.86.57,1.29.88,2.99.86,4.81,0,.92-.1,1.82-.27,2.67-.18.88-.43,1.67-.75,2.34-.88,1.84-2.05,3.31-3.48,4.37-.78.58-1.66,1.04-2.59,1.37-1,.35-2.09.56-3.25.63-.93.05-1.84-.04-2.79-.27-.87-.22-1.69-.54-2.4-.82-1.25-.49-2.33-1.2-3.23-2.09-.02-.02-.04-.03-.05-.05h0c-.33-.33-.63-.7-.91-1.09-.03-.04-.06-.08-.09-.12h0c-.05-.08-.11-.16-.17-.25-.05-.09-.11-.17-.16-.26,0-.01-.01-.03-.02-.04-.02-.03-.04-.06-.05-.09h0s-.03-.05-.04-.07c-.01-.02-.03-.05-.04-.07-.04-.07-.07-.14-.11-.2-.06-.11-.1-.2-.14-.28-.03-.06-.06-.13-.1-.21l-.07-.14c-.03-.08-.07-.15-.09-.22-.03-.07-.06-.15-.09-.22-.04-.09-.07-.19-.11-.3-.02-.05-.04-.1-.05-.15h0s-.02-.05-.03-.08c-.02-.06-.04-.11-.05-.16-.13-.42-.25-.86-.33-1.31-.26-1.27-.3-2.75-.12-4.39.18-1.64.53-3.08.81-4.01.05.09.11.17.16.27,0,0,0,.01,0,.01.01.02.02.04.03.06.01.02.02.04.03.06,0,0,0,0,0,.01.01.03.03.06.05.09,0,0,0,.01,0,.01.01.03.03.05.04.08,0,.01.01.03.02.04,0,0,0,0,0,.01,0,0,0,.01,0,.01,0,0,0,.01,0,.02,0,0,0,.01,0,.01.03.06.06.12.08.18,0,0,0,0,0,.01.01.03.02.05.04.08v.02s.01,0,.01,0c0,.02.02.04.03.07.02.04.04.08.05.12,0,0,0,0,0,0,.01.02.02.05.03.07,0,.01.01.03.02.04,0,0,0,0,0,0,0,.02.02.04.03.07.02.04.03.08.05.12,0,0,0,0,0,0,.05.12.1.25.15.37.03.08.03.08,0,0,.03.08.07.17.1.25.1.26.2.52.29.77h0s0,0,0,0c.1.27.22.58.35.89.02.04.06.06.1.05.3-.06.48-.3.64-.5.05-.07.1-.13.16-.19.26-.28.53-.54.82-.83.4-.39.81-.79,1.17-1.23.62.62,1.02,1.49,1.4,2.33.12.25.24.52.36.77.01.02.03.04.06.05.03,0,.05,0,.07-.02.56-.44,1.02-1.01,1.46-1.55.14-.18.3-.37.45-.55.04-.05.09-.1.13-.15.12-.14.24-.26.35-.38.14-.14.27-.26.41-.38.06.08.12.16.18.25l.16.22c.78,1.08,1.42,2.08,1.95,3.07.01.02.03.04.05.04.02,0,.05,0,.07-.01.26-.17.37-.44.47-.7.05-.11.09-.22.14-.32.19-.33.41-.65.65-.98.39-.55.79-1.11,1.04-1.78.47.49.88,1.07,1.27,1.62.45.63.91,1.28,1.47,1.82.03.03.08.03.12,0,.19-.17.29-.41.38-.65.03-.07.05-.14.08-.2.2-.47.33-1.07.46-1.71.08-.37.16-.74.25-1.11.27.29.47.67.67,1.04.2.37.4.75.68,1.06.02.02.04.03.07.03.02,0,.05-.01.06-.04h-.01ZM7.65,57.39l.08-.03-.08.03Z"/>
      <path class="cls-5" d="M12.74,51.69c-.08.1-.16.2-.24.28-.02.02-.04.03-.07.03-.03,0-.05-.01-.07-.04-.26-.37-.59-.52-.92-.44-.21.05-.42.21-.58.42-.17.23-.28.52-.31.84,0,0,0,0,0,.01-.07.64-.04,1.39-.02,2.11.02.65.04,1.26,0,1.77.08-.07.16-.16.24-.27.12-.15.25-.31.4-.4.04-.02.08-.01.11.02.75.95,1.37,1.99,1.82,3.12.31-.19.52-.49.75-.81.09-.13.18-.26.28-.38.07-.09.14-.17.22-.25.02-.03.05-.05.08-.08l.07-.08s.08-.08.11-.12c.09-.09.19-.19.28-.28.15-.14.29-.28.42-.42.05-.05.09-.12.14-.2.03-.06.07-.11.11-.17,0,0,0,0,0-.01,0,0,0,0,0,0,0,0,0,0,.01-.01h0s0,0,0-.01c0,0,.01-.02.02-.02h0s0-.01.01-.02h0s0-.01.01-.02c.07-.07.15-.1.23-.11h.01s.05.01.07.04c.19.26.38.53.54.75.03.04.06.08.08.11.08.1.15.21.23.31.49.69,1,1.43,1.41,2.28.75-1.13,1.53-2.36,2.23-3.68.01-.02.04-.04.06-.04.03,0,.05,0,.07.02.62.6,1.14,1.33,1.64,2.03.34.48.7.98,1.09,1.43.36-.53.51-1.3.64-2.04.11-.61.23-1.24.46-1.75.02-.04.06-.06.1-.05.21.06.31.27.4.45.05.09.09.17.13.22-.04-.21-.07-.43-.1-.65-.15-.99-.32-2.11-.68-2.99-.4-.99-.98-1.51-1.75-1.58-.51-.05-.77.14-1.08.36-.13.09-.26.18-.41.26-.03.02-.07.01-.1-.01-.08-.08-.16-.16-.23-.23-.21-.22-.4-.42-.68-.5-.49-.13-.9.18-1.3.49-.17.13-.32.25-.48.33-.04.02-.08.01-.1-.02h0c-.31-.34-.61-.66-1.12-.68-.63-.03-.95.26-1.26.55-.07.07-.15.14-.23.21h0s-.01.01-.02.02c-.04.03-.09.02-.12-.02-.03-.04-.07-.09-.11-.14h0s-.02-.03-.03-.04c0,0,0,0,0,0s0,0,0,0h0s-.01-.02-.02-.03c0,0-.01-.01-.02-.02h0s0-.02-.01-.02c0,0,0,0,0,0h0s-.02-.03-.03-.04h0c-.41-.43-.88-.61-1.4-.53-.46.07-.73.41-1,.75h0Z"/>
      <path class="cls-5" d="M21.04,37.97s.03.07.05.1c0,0,0,0,0,.01,0,0,0,.01.01.02,0,0,0,0,0,0h0s0,.01.01.02c0,0,.01.02.02.03.02.03.04.06.06.08,0,0,0,.01,0,.01,0,0,0,.01.01.02l.05.06s.03.03.04.04h0s.02.02.03.03h0s.03.03.04.04c0,0,0,0,0,0h0s.01.01.02.02c0,0,0,0,.01.01h0s.06.05.09.07c.04.03.09.05.13.07.1.04.2.05.31.04h.02s.01,0,.02,0h.04c.26-.05.53-.44.75-.76.05-.07.1-.14.14-.2.26-.35.48-.68.64-.95-.17.07-.34.14-.52.21-.71.28-1.45.57-1.99,1.01h0Z"/>
      <path class="cls-2" d="M20.86,37.9s-.02.05,0,.08c.02.06.05.11.09.18,0,0,0,.01.01.02,0,0,0,.01,0,.01,0,0,0,.01,0,.01h0s0,0,0,0c0,0,0,.01.01.02,0,0,0,0,0,.01h0s.04.07.06.09c0,0,0,.01.01.02,0,0,0,.01.01.02,0,0,0,0,0,0l.05.07s.03.03.04.05c.01.01.02.02.03.03.02.02.03.03.05.05h0s0,.01,0,.01,0,0,0,0,0,0,.01,0c0,0,.01.01.02.02.03.03.07.05.1.08h0c.05.04.1.06.16.08.1.04.2.06.31.06.03,0,.05,0,.08,0,.02,0,.03,0,.05,0h.04s0,0,0,0c.21-.04.39-.22.57-.43,0,0,0-.01.01-.01,0,0,0,0,0,0,.1-.12.19-.25.27-.37.02-.03.05-.07.07-.1.02-.03.05-.07.07-.09,0,0,0,0,0,0,.38-.5.65-.96.79-1.18,0,0,0,0,0,0h0s0,0,0,0h0s0-.07-.02-.09c-.03-.03-.06-.04-.1-.02-.24.11-.49.21-.76.31-.75.29-1.52.6-2.09,1.08-.01,0-.02.01-.02.02h0ZM22.9,37.7c-.04.06-.09.13-.14.2-.22.31-.49.7-.75.75h-.04s-.01,0-.02,0h-.02c-.11.01-.21,0-.31-.04-.04-.01-.08-.04-.13-.07-.03-.02-.06-.04-.09-.07h0s-.01,0-.01-.01c0,0-.01,0-.02-.01h0s0,0,0-.01c-.01-.01-.03-.03-.04-.04h0s-.02-.02-.03-.03h0s-.03-.03-.04-.04l-.05-.06s0-.01-.01-.02c0,0,0,0,0-.01-.02-.03-.04-.05-.06-.08,0-.01-.01-.02-.02-.03,0,0,0-.01-.01-.02h0s0,0,0,0c0,0,0-.01-.01-.02,0,0,0,0,0-.01-.02-.04-.04-.07-.05-.1.55-.44,1.28-.73,1.99-1.01.18-.07.35-.14.52-.21-.16.26-.38.6-.64.95h0Z"/>
      <path class="cls-5" d="M25.98,58.42c-.28-.31-.48-.69-.68-1.06-.2-.37-.4-.74-.67-1.04-.1.36-.18.74-.25,1.11-.13.64-.26,1.24-.46,1.71-.03.07-.05.14-.08.2-.09.24-.18.49-.38.65-.03.03-.08.03-.12,0-.56-.54-1.02-1.19-1.47-1.82-.39-.56-.8-1.13-1.27-1.62-.26.66-.66,1.23-1.04,1.78-.24.33-.46.65-.65.98-.05.1-.1.2-.14.32-.1.26-.21.52-.47.7-.02.01-.04.02-.07.01-.02,0-.04-.02-.05-.04-.53-.99-1.17-1.99-1.95-3.07l-.16-.22c-.07-.09-.13-.17-.18-.25-.14.12-.28.24-.41.38-.12.12-.23.25-.35.38-.04.05-.09.1-.13.15-.15.18-.3.37-.45.55-.44.55-.89,1.11-1.46,1.55-.02.02-.05.02-.07.02-.03,0-.05-.02-.06-.05-.12-.25-.24-.51-.36-.77-.39-.84-.78-1.71-1.4-2.33-.36.44-.78.84-1.17,1.23-.29.28-.56.55-.82.83-.05.06-.1.12-.16.19-.16.21-.34.44-.64.5-.04,0-.08-.01-.1-.05-.13-.31-.25-.62-.35-.89h0c-.09-.26-.19-.52-.29-.77-.03-.08-.07-.17-.1-.25-.02-.06-.02-.06,0,0-.05-.12-.1-.25-.15-.37h0s-.03-.08-.05-.12c-.01-.02-.02-.04-.03-.07,0,0,0,0,0,0,0-.01-.01-.03-.02-.04-.01-.02-.02-.05-.03-.07,0,0,0,0,0,0-.02-.04-.03-.08-.05-.12-.01-.02-.02-.04-.03-.07h0s-.01-.03-.01-.03c-.01-.03-.02-.05-.04-.08,0,0,0,0,0-.01-.03-.06-.06-.12-.08-.18,0,0,0-.01,0-.01,0,0,0-.01,0-.02,0,0,0-.01,0-.01,0,0,0,0,0-.01,0-.01-.01-.03-.02-.04-.01-.03-.03-.05-.04-.08,0,0,0-.01,0-.01l-.05-.09s0,0,0-.01c-.01-.02-.02-.04-.03-.06-.01-.02-.02-.04-.03-.06,0,0,0-.01,0-.01-.05-.1-.11-.18-.16-.27-.27.93-.63,2.37-.81,4.01-.18,1.64-.14,3.12.12,4.39.09.44.2.89.33,1.31.01.04.03.09.05.16,0,.03.02.05.03.08h0c.02.05.04.1.05.15.04.11.08.21.11.3.03.08.06.15.09.22.03.07.06.14.09.22l.07.14c.04.08.07.15.1.21.04.08.08.17.14.28.04.07.07.14.11.2.01.02.03.04.04.07.01.02.02.04.04.07h0s.04.06.05.09c0,.01.01.03.02.04.05.09.1.17.16.26.06.09.12.18.17.25h0s.06.08.09.12c.28.39.58.76.91,1.09h0s.04.04.05.05c.89.9,1.98,1.6,3.23,2.09.72.28,1.52.6,2.4.82.95.24,1.86.33,2.79.27,1.16-.07,2.25-.28,3.25-.63.94-.33,1.81-.79,2.59-1.37,1.43-1.06,2.6-2.53,3.48-4.37.32-.68.58-1.46.75-2.34.17-.85.26-1.75.27-2.67.02-1.82-.29-3.52-.86-4.81-.09.26-.11.56-.14.86-.04.46-.08.93-.35,1.26-.02.02-.04.03-.07.03-.02,0-.05,0-.07-.03h.01ZM13.53,64.21s.02.03.02.05,0,.04-.01.05c-.03.05-.06.09-.09.15-.11.19-.23.39-.46.48-.01,0-.02,0-.03,0-.01,0-.03,0-.04,0-.02-.01-.04-.03-.04-.05,0-.02-.01-.04-.02-.06-.04-.17.04-.3.14-.4h0s.01-.01.01-.02h0c.14-.12.33-.19.42-.22.04-.01.08,0,.1.03h0ZM12.32,63.95c.07-.13.18-.22.29-.3.09-.07.17-.13.22-.21.02-.04.07-.05.11-.03s.11.05.13.14v.02h0s0,.02,0,.02h0c-.04.18-.15.29-.27.38,0,0-.01,0-.02.01-.02.01-.04.03-.05.04-.04.03-.08.05-.12.08-.01,0-.03.02-.04.02h-.01s-.03.02-.03.02c0,0-.02.01-.04.02h-.02s-.06-.02-.08-.05c0-.01-.01-.03-.02-.03-.03,0-.05-.02-.06-.05,0-.01,0-.02,0-.03,0-.02,0-.04.01-.05h0ZM22.7,66.35s-.03.04-.05.05-.05.01-.08.01c-.13,0-.26-.09-.37-.24-.08-.11-.14-.26-.14-.39,0-.08.02-.16.06-.22.01-.02.04-.03.07-.04s.05,0,.07.03c.14.16.25.36.35.55.03.06.06.12.09.17,0,.01.01.03.01.05,0,.01,0,.02,0,.03h0ZM23.59,66.13h0s0,0,0,0,0,0,0,0c0,0,0,0,0,0h0s0,0,0,0h0s0,0,0,0h0s0,0,0,0h0s-.01,0-.02,0h-.03l-.04-.02h0s-.02-.01-.04-.02c0,0,0,0-.01,0,0,0-.01,0-.01,0-.16-.08-.31-.2-.43-.34,0,0-.01-.01-.02-.02,0,0,0,0,0,0-.17-.2-.28-.44-.25-.66h0s0-.01,0-.02c0,0,0-.01,0-.02,0-.03.03-.06.06-.07s.07,0,.09.03c.32.36.56.69.76,1.04h0s0,.01,0,.01c0,0,0,0,0,0h0v.03h0s0,0,0,.01c0,0,0,.02-.01.03h0s0,0,0,.01h0Z"/>
      <path class="cls-2" d="M22.69,66.27c-.03-.06-.06-.12-.09-.17-.1-.19-.21-.39-.35-.55-.02-.02-.04-.03-.07-.03s-.05.01-.07.04c-.05.06-.07.14-.06.22,0,.14.06.28.14.39.11.15.24.24.37.24.03,0,.05,0,.08-.01.03,0,.04-.03.05-.05,0-.01,0-.02,0-.03,0-.01,0-.03-.01-.05h0ZM22.46,66.19s-.08-.07-.12-.12c-.06-.09-.1-.19-.11-.27.08.12.15.25.22.38,0,0,0,.01,0,.01h0Z"/>
      <path class="cls-2" d="M12.32,64.03s.04.04.06.05c0,0,.01.02.02.03.01.03.04.05.08.05h.02s.03-.01.04-.02l.03-.02h.01s.03-.02.04-.03c.04-.02.08-.05.12-.08.02-.01.04-.02.05-.04,0,0,.01,0,.02-.01.12-.09.23-.21.27-.38h0s0,0,0-.01h0v-.03c-.02-.09-.09-.12-.13-.14-.04-.02-.08,0-.11.03-.06.08-.14.15-.22.21-.11.08-.22.17-.29.3,0,.01-.01.03-.01.05,0,.01,0,.02,0,.03h0ZM12.56,63.92s.1-.09.16-.14c.04-.03.08-.06.12-.1-.07.1-.17.17-.28.24Z"/>
      <path class="cls-1" d="M23.04,65.59c.07.08.14.16.23.23-.11-.17-.24-.34-.39-.52.03.09.08.19.16.29Z"/>
      <path class="cls-2" d="M23.61,66.1s0,0,0-.01h0v-.03h0s0-.01,0-.01c0,0,0,0,0,0h0c-.2-.35-.44-.68-.76-1.04-.02-.03-.05-.04-.09-.03s-.06.03-.06.07c0,0,0,.01,0,.02,0,0,0,.01,0,.01h0c-.03.23.08.47.25.67,0,0,0,0,0,0,0,0,.01.01.02.02.12.14.28.26.43.34,0,0,.01,0,.01,0s0,0,.01,0c.01,0,.02.01.04.02h0s.03.01.04.02h.03s.01,0,.02,0h0s0,0,0,0h0s0,0,0,0h0s0,0,0,0h0s0,0,0-.01,0,0,0,0h0s0-.01,0-.02h0s0-.02.01-.03h0ZM23.04,65.59c-.08-.1-.13-.2-.16-.29.15.18.27.35.39.52-.08-.07-.16-.14-.23-.23Z"/>
      <path class="cls-1" d="M22.23,65.8c0,.08.05.18.11.27.04.05.08.1.12.12h0c-.07-.15-.14-.28-.22-.39h0Z"/>
      <path class="cls-6" d="M19.85,35.94c-.12-.08-.24-.12-.36-.12-.07,0-.14.01-.22.04-.2.08-.33.33-.35.67-.02.36.09.73.27.92-.01-.09-.04-.2-.07-.31-.07-.26-.15-.55-.09-.8.03-.13.17-.32.28-.37.2-.1.39-.08.57.08.14.12.25.31.36.49.06.09.11.18.17.26-.08-.31-.29-.68-.57-.87h0Z"/>
      <path class="cls-2" d="M18.93,37.37s0,0,0,.01c0,0,.01.02.01.03.08.13.18.23.29.3.01,0,.03.01.04.01.03,0,.05-.01.07-.04.01-.01.01-.03.02-.04.03-.14-.02-.32-.07-.53-.07-.23-.14-.5-.09-.71.02-.09.13-.23.19-.26.16-.08.29-.04.41.09.1.1.19.24.29.41.09.15.17.29.27.39.04.04.08.07.12.09.03.01.06.01.09,0,.03-.01.04-.04.04-.07,0-.2-.07-.45-.19-.68-.09-.17-.2-.31-.32-.43-.05-.05-.11-.1-.17-.14-.24-.16-.5-.19-.74-.09-.26.11-.43.41-.45.82-.01.23.02.48.1.69.02.06.05.12.08.17h0ZM20.42,36.8c-.06-.08-.11-.17-.17-.26-.11-.18-.22-.36-.36-.49-.18-.15-.37-.18-.57-.08-.11.05-.25.24-.28.37-.07.25.01.55.09.8.03.11.06.22.07.31-.18-.2-.29-.56-.27-.92.02-.34.15-.59.35-.67.07-.03.14-.04.22-.04.12,0,.24.04.36.12.28.19.49.55.57.87h0Z"/>
      <path class="cls-6" d="M16.75,36.42c-.07-.01-.13-.02-.2-.02-.21,0-.4.06-.58.19-.2.15-.37.38-.48.66-.24.61-.21,1.45.21,1.9-.03-.13-.07-.27-.12-.41-.11-.34-.22-.7-.16-1.08.04-.22.15-.46.33-.67.17-.21.37-.36.56-.42.35-.11.66-.05.92.18.22.2.39.5.55.78.11.2.22.38.33.53-.1-.26-.24-.6-.45-.91-.29-.43-.59-.68-.91-.73h0Z"/>
      <path class="cls-1" d="M12.72,63.78c-.06.04-.11.09-.16.14.11-.07.21-.14.28-.24-.04.04-.08.07-.12.1Z"/>
      <path class="cls-1" d="M13.02,64.73c.1-.07.17-.16.23-.27-.15.08-.22.17-.23.27Z"/>
      <path class="cls-2" d="M13.01,64.41h0s-.01.01-.01.01h0c-.11.1-.18.23-.14.4,0,.02.01.04.02.06,0,.02.02.04.04.05.01,0,.02,0,.04,0,.01,0,.02,0,.03,0,.24-.09.35-.29.46-.48.03-.05.06-.1.09-.15.01-.01.01-.03.01-.05s0-.04-.02-.05c-.02-.03-.06-.04-.1-.03-.09.04-.28.1-.42.22q-.09.08,0,0h0ZM13.25,64.45c-.07.11-.13.21-.23.27,0-.1.08-.19.23-.27Z"/>
      <path class="cls-5" d="M8.49,58.77c.16-.05.27-.12.32-.22.11-.19.03-.5-.06-.85-.03-.11-.06-.22-.09-.34-.06-.25-.09-.48-.13-.69-.02-.13-.04-.26-.06-.38-.34-.25-.74-.46-1.3-.68.14.32.28.64.42.94.32.7.64,1.43.9,2.22h0Z"/>
      <path class="cls-2" d="M7.43,56.62c.33.72.66,1.47.92,2.28.01.04.04.06.08.06h0s.01,0,.02,0c.25-.07.42-.17.51-.32.15-.25.06-.59-.04-.98-.03-.11-.06-.22-.08-.34-.06-.24-.09-.47-.12-.68-.02-.15-.05-.29-.07-.42,0-.02-.02-.04-.03-.05-.39-.29-.89-.55-1.55-.8-.01,0-.02,0-.03,0-.02,0-.05,0-.07.03-.02.03-.03.06-.02.09.16.39.33.77.49,1.13h0ZM8.47,56.29c.02.12.04.24.06.38.03.21.07.45.13.69.03.12.06.23.09.34.09.35.17.66.06.85-.06.1-.16.17-.32.22-.25-.79-.58-1.52-.9-2.22-.14-.31-.28-.62-.42-.94.56.22.96.43,1.3.68h0Z"/>
      <path class="cls-1" d="M3.13,52.54s0,0-.01,0c-.49-.31-.87-.46-1.22-.5-.16-.02-.22.15-.27.49,0,.05-.02.11-.03.15-.03.13-.06.25-.09.37-.1.43-.2.8-.16,1.22.46.03.86-.13,1.24-.28.1-.04.2-.08.3-.12.14-.05.3-.08.44-.12.16-.03.31-.07.41-.12.14-.07.21-.16.22-.25,0-.14-.14-.41-.84-.85h0ZM3.68,53.38s0,0,0,.01c0,0,0,.01,0,.02-.01.02-.03.03-.05.04-.03.01-.07.02-.1.03-.2.07-.4.14-.59.22-.39.16-.8.32-1.29.38h-.05s0,0,0,0c0,0,0,0,0,0,0,0,0,0-.01-.01,0,0-.01-.01-.02-.02h0s0-.02,0-.02c0,0,0-.02,0-.03,0-.04,0-.08.01-.12h0c.05-.52.16-.99.31-1.51h0s0-.01,0-.01h0s0,0,0,0h0s0,0,0,0h0s0,0,0,0h0s.04-.03.06-.03h.02c.37.07.7.2.99.37.1.06.2.13.29.21.16.13.3.27.42.44,0,0,0,.01.01.02,0,.01.01.03,0,.05h0Z"/>
      <path class="cls-2" d="M3.81,52.83c-.15-.14-.35-.28-.6-.44,0,0,0,0-.01,0-.51-.32-.91-.48-1.28-.52-.11-.01-.26.02-.36.22-.06.12-.08.28-.1.41,0,.05-.01.1-.02.14-.03.13-.06.25-.09.36-.11.47-.21.87-.15,1.35,0,.04.04.07.08.07.07,0,.14.01.2.01.45,0,.84-.16,1.19-.3.1-.04.2-.08.3-.11.13-.05.28-.08.42-.11.17-.04.33-.07.46-.13.2-.1.31-.24.31-.4,0-.17-.1-.36-.34-.57h0ZM3.97,53.39c0,.09-.08.18-.22.25-.1.05-.25.08-.41.12-.15.03-.3.06-.44.12-.1.04-.2.08-.3.12-.38.15-.78.31-1.24.28-.04-.42.05-.79.16-1.22.03-.12.06-.24.09-.37.01-.04.02-.1.03-.15.05-.34.11-.51.27-.49.35.04.73.19,1.22.5,0,0,0,0,.01,0,.7.44.85.71.84.85h0Z"/>
      <path class="cls-5" d="M1.72,53.89c.43-.07.78-.21,1.15-.36.19-.07.38-.15.58-.22-.37-.43-.84-.71-1.44-.84-.11.41-.23.88-.28,1.41Z"/>
      <path class="cls-2" d="M3.66,53.31c-.13-.16-.27-.31-.42-.44-.09-.08-.19-.15-.29-.21-.29-.17-.62-.3-.99-.37h-.02s-.04.01-.06.03h0s0,0,0,0h0s0,0,0,0h0s0,0,0,0h0s0,0,0,0h0c-.14.54-.25,1-.31,1.52h0s0,.08-.01.12c0,.01,0,.02,0,.03,0,0,0,0,0,0h0s0,.01,0,.01c0,0,.01.02.02.02,0,0,0,0,.01.01,0,0,0,0,0,0,0,0,0,0,0,0h0s0,0,0,0h.04c.5-.07.9-.23,1.29-.38.19-.08.38-.15.59-.22.03-.01.07-.02.1-.03.02,0,.04-.02.05-.04,0,0,0-.01,0-.02,0,0,0,0,0-.01,0-.02,0-.03,0-.05,0,0,0-.01-.01-.02h0ZM3.45,53.32c-.2.07-.39.14-.58.22-.37.15-.72.29-1.15.36.05-.53.17-1,.28-1.41.6.13,1.08.4,1.44.84Z"/>
      <path class="cls-5" d="M1.54,58.3c.13-.18.26-.35.35-.56-.21.01-.38.07-.56.12-.05.01-.09.03-.14.04.07.18.15.37.24.53.03-.05.07-.09.1-.14Z"/>
      <path class="cls-1" d="M2.47,57.33s-.08-.03-.11-.03c-.08,0-.17.04-.25.07-.05.02-.1.04-.15.05-.09.02-.2.03-.31.04-.37.04-.83.1-.88.36,0,.06.02.2.14.44.1.2.23.41.35.56.12.16.2.2.21.2.13,0,.3-.33.44-.59.09-.17.18-.35.29-.48.04-.06.09-.1.14-.15.15-.15.25-.25.14-.48h0ZM2.1,57.69c-.1.28-.27.51-.43.72-.06.08-.12.16-.17.24-.02.02-.04.04-.07.04s-.06-.01-.07-.04c-.14-.21-.25-.47-.35-.72l-.02-.04s0-.05,0-.07c.01-.02.03-.04.05-.04.08-.02.16-.04.23-.07.21-.07.43-.13.73-.13h.01s.05.01.07.04c.02.02.02.05.01.08h0Z"/>
      <path class="cls-2" d="M2.57,57.18c-.2-.12-.4-.03-.53.03-.04.02-.08.04-.11.04-.09.02-.19.03-.3.04-.43.05-.96.11-1.03.5-.04.26.32.91.57,1.21.12.13.21.19.29.19h0c.23-.01.4-.33.58-.68.09-.17.18-.34.27-.46.04-.05.08-.09.12-.14.15-.16.34-.35.16-.7-.01-.02-.02-.03-.04-.04ZM1.91,58.44c-.14.26-.3.58-.44.59-.02,0-.09-.04-.21-.2-.12-.15-.25-.36-.35-.56-.12-.24-.14-.38-.14-.44.04-.26.51-.31.88-.36.11-.01.22-.03.31-.04.05,0,.1-.03.15-.05.08-.04.16-.07.25-.07.04,0,.08,0,.11.03.11.23,0,.33-.14.48-.05.05-.09.09-.14.15-.1.13-.19.31-.28.48h0Z"/>
      <path class="cls-2" d="M2.09,57.61s-.04-.04-.07-.04h-.01c-.29,0-.51.07-.73.13-.07.02-.15.05-.23.07-.02,0-.04.02-.05.04s-.01.05,0,.07l.02.04c.1.25.2.51.35.72.01.02.04.04.07.04s.05-.01.07-.04c.05-.08.12-.16.17-.24.16-.22.32-.44.43-.72,0-.03,0-.06-.01-.08h0ZM1.34,57.87c.18-.05.35-.11.56-.12-.09.2-.22.38-.35.56-.03.05-.07.09-.1.14-.09-.16-.17-.35-.24-.53.05-.01.1-.03.14-.04Z"/>
    </g>
    <g class="cls-8">
      <g class="cls-10">
        <path class="cls-7" d="M22.15,2.61c.17-.07.35-.14.52-.21.34-.14.46-.11.6.21.66,1.41,1.32,2.83,1.97,4.24.04.09.11.18.14.28.02.07,0,.16,0,.24-.08-.03-.19-.04-.23-.09-.4-.48-.8-.96-1.19-1.45-.72-.9-1.43-1.81-2.13-2.72-.05-.07-.06-.17-.09-.26l.42-.25ZM24.63,6.26l.03-.02c-.55-1.21-1.11-2.43-1.67-3.67l-.97.43c.88,1.1,1.75,2.18,2.61,3.26ZM23.47,8.67s.03.13,0,.16c-.04.04-.13.08-.18.06-.14-.04-.27-.09-.4-.16-1.55-.79-3.02-1.7-4.45-2.7-.11-.08-.19-.18-.08-.3.23-.26.48-.51.73-.76.15-.15.29-.11.44.03,1.27,1.19,2.55,2.37,3.83,3.55l.12.12ZM22.37,8.2l.06-.07c-1.06-.96-2.11-1.93-3.2-2.92l-.58.67c1.26.79,2.49,1.55,3.73,2.32ZM27.8,2.1c0,.07,0,.14,0,.21-.25,1.51-.51,3.02-.76,4.54-.02.11-.01.23-.05.33-.02.05-.09.09-.13.14-.04-.04-.1-.08-.11-.13-.03-.21-.04-.41-.06-.62-.14-1.43-.27-2.87-.41-4.3-.05-.51-.02-.57.48-.5.33.04.64.18.96.27.03,0,.05.04.09.07ZM26.9,5.79l.05.02c.19-1.15.39-2.31.58-3.46,0-.06-.05-.17-.1-.19-.3-.08-.61-.13-.93-.2.14,1.32.27,2.57.4,3.83Z"/>
      </g>
    </g>
    <g class="cls-8">
      <path class="cls-7" d="M69.37,77.17c.18.19.4.46.31.73-.08.14-.18.28-.3.4-.01,0-.03,0-.04,0-.05.03-.11.05-.17.06-.11,0-.22-.01-.33-.03-.11-.04-.2-.11-.3-.16-.06-.03-.1-.08-.12-.14-.03-.09-.04-.18-.04-.28.02-.29.09-.34.3-.52.08-.07.16-.15.26-.17.03,0,.06-.02.09-.02.12,0,.24.03.34.13ZM68.44,76.97c-.27.19-.56.41-.52.79-.02.24.04.49.23.65.05.05.14.11.2.05.09-.15-.32-.28-.24-.64.05-.17.13-.32.25-.45-.02.03-.03.05-.05.08-.05.07-.09.15-.1.24-.02.28.18.55.41.68.05.03.11.04.17.06.08.02.15.04.23.04.07,0,.14-.02.2-.03-.24.11-.53.18-.75,0-.11-.05-.14.09-.05.13.18.11.39.24.61.19.96-.15,1.17-1.45.25-1.83-.28-.1-.61-.16-.85.05"/>
      <path class="cls-7" d="M72.85,74.89s0,0,0,0c-.02.22-.03.47.13.64.09.09.19.17.31.23.08.04.17.09.26.1.08.01.17,0,.25-.02-.04.03-.09.05-.13.06-.31.06-.56,0-.81-.18-.31-.19-.19-.56-.02-.82ZM74.28,75.14c.02.16-.13.39-.3.56-.05,0-.11.02-.16.03-.08.02-.15.01-.23,0-.08,0-.16-.01-.23-.05-.07-.04-.12-.1-.18-.16-.08-.08-.15-.17-.19-.28-.01-.04-.02-.08-.01-.13.03-.11.07-.22.13-.33.12-.06.24-.1.35-.17.07,0,.09-.03.09-.07.33-.03.68.28.75.59ZM72.9,75.9c.19.12.39.24.62.24.46,0,.87-.34.91-.81.15-.48-.3-.87-.74-.94-.56-.2-1.29.25-1.21.88-.02.21.05.4.22.52.05.05.11.12.19.09"/>
      <path class="cls-7" d="M74.32,73.06c-.19-.33-.61.12-.84.21-.38.17-.77.31-1.13.53-.53.18-1.02.47-1.5.75-.44.18-.82.49-1.24.73-.37.13-.7.38-1.08.48-.34.18-.66.4-1,.59-.07.04-.15.07-.22.13-.05.07.05.17.12.15.12-.05.22-.14.34-.21.44-.18.83-.47,1.26-.67.29-.07.54-.23.78-.39.35-.14.65-.35.97-.54.41-.3.9-.45,1.34-.7.24-.17.5-.25.77-.35.42-.22.87-.39,1.31-.58.12.14.16.34.24.51.12.21.24.42.31.66.16.34.38.66.48,1.03.16.88.38.58-.3.88-.55.19-1.06.48-1.55.79-.27.12-.52.27-.74.46-.18.13-.39.2-.58.31-.33.27-.71.44-1.07.65-.35.25-.77.36-1.09.65-.28.18-.62.26-.87.49-.14.12-.29.22-.46.29-.11.02-.06.15.02.17.12,0,.21-.12.32-.17.35-.16.68-.33.98-.57.27-.15.58-.25.82-.46.54-.33,1.1-.61,1.64-.93.26-.26.63-.35.92-.58.23-.22.55-.32.83-.47.31-.2.65-.36,1-.49.15-.04.28-.12.41-.2.15-.05.18-.2.09-.32-.06-.16-.11-.33-.19-.49-.06-.13-.07-.28-.12-.42-.11-.25-.27-.48-.38-.73-.11-.19-.14-.4-.23-.6-.11-.21-.29-.38-.38-.6"/>
      <path class="cls-7" d="M66.55,77.23c-.07,0-.12-.09-.15-.14,0-.01,0-.02,0-.03,0-.01,0-.02,0-.04,0-.01,0-.02.01-.03,0,0,0,.02,0,.02.01.02.04.04.06.04.03,0,.03-.04.02-.07,0,0,0,0,.01,0,.05.05.13.2.04.24ZM67.38,78.53c.27.37.46.8.7,1.2.06.09.04.28.17.3.16,0-.09-.56-.14-.65-.12-.23-.29-.43-.43-.64-.09-.17-.15-.36-.25-.53-.13-.24-.18-.51-.34-.74-.05-.1-.33-.75-.42-.42-.03-.05-.08-.1-.13-.14-.1-.09-.2-.07-.22.07-.05.02-.03.11-.02.15.03.08.09.15.17.19.1.04.23-.05.22-.16,0-.03,0-.05-.01-.07.07.14.19.27.26.42.14.35.25.71.44,1.03"/>
      <g class="cls-9">
        <path class="cls-7" d="M77.58,77.37c.03-.27-.4-.81-.47-1.02-.2-.37-.31-.79-.48-1.17-.12-.26-.3-.5-.45-.75-.31-.61-.57-1.25-.89-1.86-.13-.2-.2-.36-.27-.47.18,0,.38-.04.46-.02,0,0,.02,0,.02,0,.15.2.24.44.37.65.13.16.2.35.31.52.11.16.23.3.3.48.12.37.31.71.52,1.04.07.14.1.29.15.44.06.16.15.3.22.45.13.28.3.55.37.86.05.3.22.55.34.82.01.03.02.06.03.09-.06,0-.13,0-.19-.01-.11,0-.23-.01-.34-.03ZM75.95,79.06c-.18.1-.33.23-.49.35-.14.08-.28.13-.42.2-.37.21-.74.43-1.1.65-.35.14-.68.32-1.03.46-.24.16-.49.27-.75.38-.26.12-.48.34-.76.42-.06.02-.13.04-.19.07-.07-.04-.18-.02-.26-.03-.12,0-.24,0-.36-.02.13-.06.25-.13.38-.19.13.08.33.14.42.13.11-.03.21-.12.27-.21.17-.08.36-.08.52-.19.25-.15.53-.24.77-.39.21-.14.43-.25.65-.37.21-.12.4-.28.62-.39.23-.13.48-.21.69-.36.1-.07.19-.15.28-.23.13-.05.26-.11.38-.18.11-.07.24-.15.23-.29.04-.05.02-.11-.02-.15-.04-.04-.09-.05-.14-.06.02-.01.04-.02.06-.03.02,0,.04-.01.06-.02.02,0,.04,0,.06,0,.24.04.48.1.73.12-.02.01-.03.02-.05.03-.18.1-.37.2-.55.31ZM70.16,82.15c-.1.04-.19.09-.29.13-.12-.1-.36-.04-.5-.05-.1,0-.2,0-.3-.02.2-.09.42-.27.57-.32.16-.07.32-.12.49-.18,0,0,0,0,0,0,.26.02.52,0,.78.02-.02.01-.05.03-.07.04-.25.09-.46.24-.68.37ZM69.98,80.27c.13-.14.32-.19.49-.27.19-.09.35-.25.52-.37.41-.23.87-.37,1.24-.67.31-.27.7-.38,1.07-.54.33-.19.65-.38,1-.52.26-.12.49-.31.76-.42.1.34.37.59.61.84-.3.18-.61.35-.94.49-.36.18-.62.48-.98.65-.49.24-.92.57-1.4.82-.29.23-.63.36-.99.47-.39.18-.78.37-1.16.56,0,0,0,0,0-.01-.11-.34-.15-.68-.22-1.03ZM78.35,77.55c.09-.1-.14-.42-.18-.52-.12-.33-.31-.63-.38-.98-.05-.24-.21-.43-.31-.64-.1-.39-.37-.7-.51-1.07-.17-.42-.42-.8-.61-1.21-.26-.37-.5-.76-.73-1.15-.09-.15-.22-.13-.24-.06-.18,0-.54-.05-.67,0-.11.01-.27.07-.52.17-.68.32-1.34.68-2.07.89-.33.12-.58.38-.9.52-.7.3-1.41.6-2.02,1.06-.28.15-.59.23-.87.39-.3.17-.55.4-.86.55-.43.2-.76.58-1.21.74-.69.21-.74.34-.4.96.14.37.23.77.43,1.12.26.58.47,1.18.83,1.71.27.72.68,1.37,1.06,2.03.07.1.22.03.18-.09-.03-.09-.09-.17-.14-.25-.11-.15-.19-.33-.26-.5-.1-.2-.23-.39-.31-.6-.17-.35-.42-.67-.53-1.05-.16-.42-.42-.79-.59-1.21-.11-.27-.15-.56-.24-.85-.08-.23-.19-.44-.27-.66.25-.14.46-.35.73-.46.46-.15.87-.39,1.25-.69.53-.27.99-.66,1.52-.93.76-.25,1.41-.75,2.15-1.04.57-.11,1-.48,1.49-.76.54-.22,1.15-.26,1.68-.54.31.64.61,1.27.97,1.89.15.32.24.67.38.99.14.28.33.54.48.82.15.17.38.98.62,1.27,0,.06.05.13.11.13.25.02.49.08.73.1,0,0,0,0,0,0-.21.06-.37.23-.57.32-.24.1-.41.3-.64.41-.12.06-.23.12-.36.15-.01,0-.02.01-.03.02-.07-.01-.16,0-.22-.03-.05,0-.14-.03-.23-.06.22-.11.43-.24.66-.32.19-.1.36-.24.57-.29.41-.09.18-.41-.11-.24-.19.12-.41.17-.62.25-.22.12-.44.22-.67.31-.89-.97-.53-1.28-1.96-.53-.3.2-.64.32-.96.48-.32.21-.62.44-.99.57-.53.2-.93.65-1.47.83-.24.07-.44.23-.64.38-.17.07-.38.18-.24.4.07.22.16.44.22.67.03.15.05.32.12.46-.16.08-.32.17-.48.25-.22.08-.44.16-.66.23-.13.03-.31.08-.26.23,0,0-.02,0-.03.01-.14.24.47.23.61.26.17.02.33.05.5.07.02.02.05.04.08.04.22-.02.4-.2.6-.29.21-.08.41-.18.6-.29.24-.09.46-.21.67-.35.35-.15.7-.32,1.02-.54.25-.11.52-.18.76-.32.38-.14.68-.41,1.07-.54.25-.14.51-.29.76-.44.16-.11.31-.23.49-.3.38-.19.7-.5,1.11-.64.23-.11.4-.33.64-.43.04-.02.04-.07.01-.1.27-.15.52-.34.81-.44.05-.02.07-.07.05-.11-.02-.03-.04-.05-.07-.06.03-.02.05-.05.05-.08"/>
      </g>
      <path class="cls-7" d="M76.46,77.25c.04-.08.11-.17.21-.16.01,0,.02,0,.04,0,0,0-.01,0-.02.01,0,.03-.01.06-.02.09-.05,0-.12,0-.12.04,0,.03.05.08.07.04,0,0,.02,0,.02,0,0,.03-.01.06.02.07.02,0,.03,0,.04-.02,0-.02.01-.04.02-.06,0,0,0,0,.01,0,.04,0,.03-.05,0-.07,0,0,0-.01,0-.02,0-.02,0-.04,0-.06,0,0,0-.02-.02-.03.05.02.11.04.14.08,0,0,0,0,0,.01.03.12-.12.24-.22.28-.12.02-.24-.11-.21-.23ZM76.88,77.18h0s0,0,0,0ZM76.46,77.5c.07.06.16.06.25.06.11,0,.22-.09.26-.21.05-.16-.08-.32-.22-.38-.06-.02-.12,0-.18.01-.16.03-.2.23-.16.37-.04.05.02.11.06.14"/>
      <path class="cls-7" d="M68.63,81.21s.05-.02.08-.02c0,.02,0,.04,0,.06,0,.02,0,.04,0,.06-.02,0-.03,0-.05,0-.02,0-.05,0-.06.02,0,.04.04.07.08.06.05,0,.09,0,.14,0,.05,0,.02-.08-.02-.08,0-.02,0-.05-.01-.07,0-.02,0-.04-.02-.05.05,0,.1,0,.14.03.11.11-.05.28-.16.31-.04,0-.08.01-.12-.02,0-.02-.03-.05-.05-.04-.01-.01-.02-.02-.03-.03,0-.01-.02-.02-.04-.02-.05-.09.03-.18.1-.22ZM68.44,81.23c-.04.11,0,.25.08.32.02.01.03.03.05.03.06.04.12.09.19.09.22.01.35-.23.26-.42-.04-.12-.15-.21-.28-.2-.11.02-.26.04-.31.16"/>
      <path class="cls-7" d="M74.68,72.78s.01,0,.02,0c0,0,0,0,0,0,0,0,0,0,0,0,0,0-.01,0-.02,0ZM74.85,72.77c.06.03.07.18.03.23-.02.05-.11.08-.15.03-.02-.02-.06-.03-.07,0-.04.08.08.14.15.12.25-.02.3-.27.14-.44-.04-.05-.11-.1-.18-.1-.2-.01-.3.24-.16.37.04.04.08,0,.05-.04-.02-.03-.04-.07-.04-.11,0,0,0,0,.01,0,.02,0,.03,0,.05.01,0,.02,0,.05.03.06.03.01.05-.01.05-.04.02,0,.04,0,.07,0,.06,0,.04-.09,0-.09-.01,0-.03,0-.04,0,0,0,0-.02,0-.03.02,0,.04,0,.07,0"/>
      <path class="cls-7" d="M72.06,74.92c-.15.08-.29.16-.44.25-.12.05-.23.09-.34.15-.11.06-.21.12-.33.17-.07.04-.14.08-.21.13-.15.07-.31.14-.45.22-.11.05-.2.12-.3.19-.07.04-.15.07-.22.11-.07.04-.14.09-.2.14-.06.03-.12.05-.17.08-.03.02-.06.04-.09.06-.06.02-.11.06-.15.1-.02.01-.06.03-.07.06,0,.03.03.05.06.05.02,0,.03-.01.03-.03.03-.04.08-.05.12-.07.06-.05.13-.07.2-.11.04-.03.08-.06.12-.09.08-.04.16-.07.23-.11.07-.04.13-.09.19-.13.06-.03.13-.06.2-.09.11-.06.22-.13.33-.18.08-.04.15-.09.23-.13.12-.04.24-.1.36-.16.18-.08.36-.17.53-.27.16-.06.33-.12.47-.22.06-.06-.04-.14-.1-.1"/>
      <path class="cls-7" d="M72.32,75.95c.17.19-.03.24-.16.34-.11.09-.22.15-.35.23-.07.04-.14.06-.22.09-.09.05-.16.13-.25.19-.1.07-.22.11-.33.17-.09.05-.16.12-.25.17-.11.05-.22.12-.34.16-.06.01-.12-.02-.18-.03-.14-.05-.15-.22-.12-.34,0,0,.01-.01.01-.03,0,0,0,0,0,0,.02-.05.08-.06.12-.08.06-.04.13-.07.2-.11.04-.02.06-.04.1-.07.06-.04.13-.07.19-.1.11-.05.21-.11.31-.18.08-.04.16-.07.24-.11.05-.02.1-.06.15-.09.08-.05.16-.09.24-.13.13-.08.27-.15.42-.17.08,0,.15.05.21.1ZM71.75,75.78c-.13.04-.24.13-.37.2-.13.06-.27.13-.4.2-.06.03-.12.07-.18.11-.06.03-.13.06-.19.09-.08.04-.16.1-.24.14-.09.04-.17.1-.24.17-.14.13-.27.25-.13.44.08.12.19.23.33.26.22.05.4-.13.59-.21.08-.03.18-.06.25-.12.09-.07.17-.15.27-.2.07-.04.14-.07.21-.1.08-.03.14-.1.21-.14.15-.08.31-.16.45-.27.05-.04.09-.1.14-.15.02-.02.05-.05.06-.07.06-.03,0-.11,0-.15-.04-.15-.14-.22-.29-.25-.16-.05-.32-.01-.46.05"/>
    </g>
  </g>
</svg>