<?xml version="1.0" encoding="UTF-8"?>
<svg id="Layer_2" data-name="Layer 2" xmlns="http://www.w3.org/2000/svg" xmlns:xlink="http://www.w3.org/1999/xlink" viewBox="0 0 296.71 290.67">
  <defs>
    <style>
      .cls-1 {
        fill: #4f4c4c;
      }

      .cls-1, .cls-2, .cls-3, .cls-4, .cls-5 {
        stroke-width: 0px;
      }

      .cls-6 {
        clip-path: url(#clippath-20);
      }

      .cls-7 {
        clip-path: url(#clippath-11);
      }

      .cls-8 {
        clip-path: url(#clippath-16);
      }

      .cls-9 {
        opacity: .5;
      }

      .cls-10 {
        clip-path: url(#clippath-2);
      }

      .cls-11 {
        clip-path: url(#clippath-13);
      }

      .cls-12 {
        clip-path: url(#clippath-25);
      }

      .cls-13 {
        clip-path: url(#clippath-15);
      }

      .cls-14 {
        clip-path: url(#clippath-6);
      }

      .cls-15 {
        clip-path: url(#clippath-26);
      }

      .cls-2 {
        fill: none;
      }

      .cls-16 {
        clip-path: url(#clippath-7);
      }

      .cls-17 {
        clip-path: url(#clippath-21);
      }

      .cls-18 {
        clip-path: url(#clippath-1);
      }

      .cls-19 {
        clip-path: url(#clippath-4);
      }

      .cls-20 {
        clip-path: url(#clippath-27);
      }

      .cls-3 {
        fill: #ffce89;
      }

      .cls-21 {
        clip-path: url(#clippath-12);
      }

      .cls-4 {
        fill: #fff;
      }

      .cls-22 {
        clip-path: url(#clippath-24);
      }

      .cls-5 {
        fill: #ff936c;
      }

      .cls-23 {
        clip-path: url(#clippath-30);
      }

      .cls-24 {
        clip-path: url(#clippath-22);
      }

      .cls-25 {
        clip-path: url(#clippath-9);
      }

      .cls-26 {
        clip-path: url(#clippath);
      }

      .cls-27 {
        clip-path: url(#clippath-19);
      }

      .cls-28 {
        clip-path: url(#clippath-31);
      }

      .cls-29 {
        clip-path: url(#clippath-3);
      }

      .cls-30 {
        clip-path: url(#clippath-8);
      }

      .cls-31 {
        clip-path: url(#clippath-29);
      }

      .cls-32 {
        clip-path: url(#clippath-18);
      }

      .cls-33 {
        clip-path: url(#clippath-14);
      }

      .cls-34 {
        clip-path: url(#clippath-17);
      }

      .cls-35 {
        clip-path: url(#clippath-5);
      }

      .cls-36 {
        clip-path: url(#clippath-10);
      }

      .cls-37 {
        clip-path: url(#clippath-23);
      }

      .cls-38 {
        clip-path: url(#clippath-28);
      }
    </style>
    <clipPath id="clippath">
      <rect class="cls-2" y="264" width="21.33" height="24"/>
    </clipPath>
    <clipPath id="clippath-1">
      <rect class="cls-2" x="-.22" y="234.79" width="91" height="52" transform="translate(-19.82 4.23) rotate(-4.39)"/>
    </clipPath>
    <clipPath id="clippath-2">
      <rect class="cls-2" x="-10.83" y="-41.98" width="195" height="325" transform="translate(-8.97 6.99) rotate(-4.39)"/>
    </clipPath>
    <clipPath id="clippath-3">
      <rect class="cls-2" x="10.67" y="261.33" width="4" height="5.33"/>
    </clipPath>
    <clipPath id="clippath-4">
      <rect class="cls-2" x="-.22" y="234.79" width="91" height="52" transform="translate(-19.82 4.23) rotate(-4.39)"/>
    </clipPath>
    <clipPath id="clippath-5">
      <rect class="cls-2" x="-10.83" y="-41.98" width="195" height="325" transform="translate(-8.97 6.99) rotate(-4.39)"/>
    </clipPath>
    <clipPath id="clippath-6">
      <rect class="cls-2" y="262.67" width="4" height="5.33"/>
    </clipPath>
    <clipPath id="clippath-7">
      <rect class="cls-2" x="-.22" y="234.79" width="91" height="52" transform="translate(-19.82 4.23) rotate(-4.39)"/>
    </clipPath>
    <clipPath id="clippath-8">
      <rect class="cls-2" x="-10.83" y="-41.98" width="195" height="325" transform="translate(-8.97 6.99) rotate(-4.39)"/>
    </clipPath>
    <clipPath id="clippath-9">
      <rect class="cls-2" x="18.67" y="273.33" width="5.33" height="4"/>
    </clipPath>
    <clipPath id="clippath-10">
      <rect class="cls-2" x="-.22" y="234.79" width="91" height="52" transform="translate(-19.82 4.23) rotate(-4.39)"/>
    </clipPath>
    <clipPath id="clippath-11">
      <rect class="cls-2" x="-10.83" y="-41.98" width="195" height="325" transform="translate(-8.97 6.99) rotate(-4.39)"/>
    </clipPath>
    <clipPath id="clippath-12">
      <rect class="cls-2" x="2.67" y="285.33" width="2.67" height="5.33"/>
    </clipPath>
    <clipPath id="clippath-13">
      <rect class="cls-2" x="-.22" y="234.79" width="91" height="52" transform="translate(-19.82 4.23) rotate(-4.39)"/>
    </clipPath>
    <clipPath id="clippath-14">
      <rect class="cls-2" x="-10.83" y="-41.98" width="195" height="325" transform="translate(-8.97 6.99) rotate(-4.39)"/>
    </clipPath>
    <clipPath id="clippath-15">
      <rect class="cls-2" x="45.33" y="245.33" width="21.33" height="22.67"/>
    </clipPath>
    <clipPath id="clippath-16">
      <rect class="cls-2" x="-.22" y="234.79" width="91" height="52" transform="translate(-19.82 4.23) rotate(-4.39)"/>
    </clipPath>
    <clipPath id="clippath-17">
      <rect class="cls-2" x="-10.83" y="-41.98" width="195" height="325" transform="translate(-8.97 6.99) rotate(-4.39)"/>
    </clipPath>
    <clipPath id="clippath-18">
      <rect class="cls-2" x="58.67" y="245.33" width="5.33" height="5.33"/>
    </clipPath>
    <clipPath id="clippath-19">
      <rect class="cls-2" x="-.22" y="234.79" width="91" height="52" transform="translate(-19.82 4.23) rotate(-4.39)"/>
    </clipPath>
    <clipPath id="clippath-20">
      <rect class="cls-2" x="-10.83" y="-41.98" width="195" height="325" transform="translate(-8.97 6.99) rotate(-4.39)"/>
    </clipPath>
    <clipPath id="clippath-21">
      <rect class="cls-2" x="48" y="242.67" width="2.67" height="5.33"/>
    </clipPath>
    <clipPath id="clippath-22">
      <rect class="cls-2" x="-.22" y="234.79" width="91" height="52" transform="translate(-19.82 4.23) rotate(-4.39)"/>
    </clipPath>
    <clipPath id="clippath-23">
      <rect class="cls-2" x="-10.83" y="-41.98" width="195" height="325" transform="translate(-8.97 6.99) rotate(-4.39)"/>
    </clipPath>
    <clipPath id="clippath-24">
      <rect class="cls-2" x="64" y="258.67" width="5.33" height="4"/>
    </clipPath>
    <clipPath id="clippath-25">
      <rect class="cls-2" x="-.22" y="234.79" width="91" height="52" transform="translate(-19.82 4.23) rotate(-4.39)"/>
    </clipPath>
    <clipPath id="clippath-26">
      <rect class="cls-2" x="-10.83" y="-41.98" width="195" height="325" transform="translate(-8.97 6.99) rotate(-4.39)"/>
    </clipPath>
    <clipPath id="clippath-27">
      <rect class="cls-2" x="42.67" y="264" width="5.33" height="5.33"/>
    </clipPath>
    <clipPath id="clippath-28">
      <rect class="cls-2" x="-.22" y="234.79" width="91" height="52" transform="translate(-19.82 4.23) rotate(-4.39)"/>
    </clipPath>
    <clipPath id="clippath-29">
      <rect class="cls-2" x="-10.83" y="-41.98" width="195" height="325" transform="translate(-8.97 6.99) rotate(-4.39)"/>
    </clipPath>
    <clipPath id="clippath-30">
      <rect class="cls-2" x="146.19" y="104.05" width="150.52" height="147"/>
    </clipPath>
    <clipPath id="clippath-31">
      <rect class="cls-2" x="210.67" width="61.11" height="53.86"/>
    </clipPath>
  </defs>
  <g id="Layer_1-2" data-name="Layer 1">
    <g class="cls-9">
      <g class="cls-26">
        <g class="cls-18">
          <g class="cls-10">
            <path class="cls-5" d="M21.01,276.02c.03-.18.03-.36-.02-.54-.04-.18-.11-.34-.22-.49-.1-.15-.23-.27-.39-.37-.16-.1-.32-.17-.51-.2-.36-.04-.71.04-1.02.22l-5.74,2.98c-1.26.65-2.52,1.31-3.77,1.98.32-1.48.55-2.98.95-4.43.58-1.48,1.15-2.97,1.7-4.46.48-1.28.95-2.57,1.4-3.86.15-.35.17-.7.05-1.06-.14-.35-.38-.61-.72-.78-.34-.16-.7-.18-1.06-.05-.36.13-.63.36-.78.71-.71,2.03-1.45,4.05-2.22,6.05-1.21,2.97-2.09,3.89-3.45,6.56-.53-2.79-.86-5.61-1.55-8.37-.22-.87-.48-1.72-.8-2.56-.13-.35-.37-.61-.71-.78-.34-.17-.69-.18-1.06-.06-.35.14-.61.38-.78.72-.16.34-.18.69-.06,1.05.41,1.1.73,2.22.99,3.37.68,3.18.99,6.43,1.8,9.6.11.51.26,1,.44,1.48-.17.47-.13,1.64-.32,2.09-.16.34-.18.7-.05,1.06s.36.62.71.79c.34.16.7.17,1.06.04.35-.13.61-.36.79-.7.2-.47,1.3-1.51,1.47-1.99,3.56-2.15,6.35-3.47,10.04-5.38l3.24-1.69c.32-.22.52-.53.58-.92Z"/>
          </g>
        </g>
      </g>
    </g>
    <g class="cls-9">
      <g class="cls-29">
        <g class="cls-19">
          <g class="cls-35">
            <path class="cls-5" d="M13.77,265.33c.01-.33.02-.66.04-.98.03-.33.08-.74.13-1.11.06-.49.13-.98.21-1.48-.04.07-.09.14-.14.2-.41.54-.85,1.05-1.33,1.54l-1.16,1.3c.21-.09.43-.15.66-.15.25,0,.47.07.67.22.13.1.26.18.38.28.15.11.26.25.33.42.05.12.07.25.08.38l.04-.06s.04-.06.05-.09c.02-.14.03-.3.04-.47Z"/>
          </g>
        </g>
      </g>
    </g>
    <g class="cls-9">
      <g class="cls-14">
        <g class="cls-16">
          <g class="cls-30">
            <path class="cls-5" d="M2.52,266.2c-.16-.29-.32-.57-.46-.86s-.32-.68-.47-1.02c-.2-.46-.41-.91-.59-1.38,0,.08.01.16-.02.24-.08.67-.21,1.34-.37,2-.11.57-.22,1.15-.33,1.72.13-.19.29-.34.48-.47.22-.13.45-.18.71-.15.16.02.31.02.47.04.19.01.36.07.51.18.11.08.2.18.28.3v-.07s-.01-.07-.02-.1c-.06-.14-.13-.29-.21-.43Z"/>
          </g>
        </g>
      </g>
    </g>
    <g class="cls-9">
      <g class="cls-25">
        <g class="cls-36">
          <g class="cls-7">
            <path class="cls-5" d="M21.5,276.04c.2-.26.4-.52.61-.77.21-.26.5-.55.76-.84.36-.36.68-.72,1.04-1.08l-.23.08c-.66.19-1.32.34-1.98.45-.57.11-1.15.24-1.71.35.22.05.43.14.63.27.21.15.34.34.41.59.05.15.1.3.15.45.06.18.08.36.04.54-.04.14-.09.26-.17.37h.06s.09-.04.09-.04c.1-.12.2-.24.3-.38Z"/>
          </g>
        </g>
      </g>
    </g>
    <g class="cls-21">
      <g class="cls-11">
        <g class="cls-33">
          <path class="cls-5" d="M2.89,286.44c0,.33.01.66,0,.98,0,.33-.04.74-.06,1.13-.04.49-.07.99-.12,1.49.04-.07.08-.15.13-.21.38-.56.79-1.1,1.23-1.61.35-.45.71-.91,1.09-1.37-.2.1-.42.17-.65.19-.25.02-.48-.05-.69-.19-.13-.08-.26-.16-.41-.24-.16-.1-.28-.23-.36-.4-.06-.13-.09-.25-.1-.39l-.04.06s-.03.06-.04.09c.01.15.01.31.02.47Z"/>
        </g>
      </g>
    </g>
    <g class="cls-9">
      <g class="cls-13">
        <g class="cls-8">
          <g class="cls-34">
            <path class="cls-5" d="M65.36,261.17c.17-.33.2-.68.09-1.04-.12-.37-.35-.64-.7-.82-.34-.15-.68-.18-1.04-.09l-6.36,1.18c-1.4.26-2.79.52-4.19.79.74-1.32,1.39-2.69,2.2-3.96.99-1.25,1.97-2.51,2.94-3.77.83-1.09,1.66-2.19,2.47-3.31.24-.29.36-.62.35-.99-.01-.18-.05-.36-.13-.53s-.19-.31-.32-.43-.29-.22-.46-.28c-.17-.06-.35-.09-.53-.08-.39.02-.7.17-.96.46-1.27,1.73-2.57,3.44-3.89,5.14-2.02,2.49-3.13,3.11-5.22,5.26.31-2.82.83-5.61.97-8.45.05-.9.05-1.8,0-2.7,0-.19-.04-.37-.11-.54-.07-.17-.18-.33-.32-.46-.14-.13-.29-.22-.47-.29s-.36-.09-.55-.09c-.19.01-.36.06-.54.14s-.32.19-.44.34c-.13.14-.21.3-.27.48-.06.18-.08.36-.06.55.06,1.17.05,2.34-.05,3.51-.28,3.24-.93,6.44-1.08,9.69-.04.52-.05,1.04-.02,1.56-.3.41-.59,1.53-.92,1.91-.14.13-.23.29-.31.46s-.1.36-.1.55c0,.19.04.38.12.55.08.17.19.32.33.45.14.13.3.22.48.29.18.06.36.09.55.07.19-.01.37-.06.54-.15s.31-.2.43-.35c.33-.4,1.69-1.07,1.99-1.48,4.03-1.02,7.08-1.46,11.17-2.21l3.59-.66c.36-.11.64-.34.82-.68Z"/>
          </g>
        </g>
      </g>
    </g>
    <g class="cls-9">
      <g class="cls-32">
        <g class="cls-27">
          <g class="cls-6">
            <path class="cls-5" d="M61.55,248.84c.11-.31.21-.62.32-.93.1-.31.29-.68.44-1.03.21-.45.41-.91.64-1.36l-.19.16c-.55.39-1.13.76-1.72,1.08l-1.48.89c.22-.03.45-.02.67.04.24.07.43.21.57.42.09.13.19.24.29.37.11.15.17.31.19.49.01.14,0,.27-.04.4l.06-.05.07-.07c.09-.12.13-.27.18-.42Z"/>
          </g>
        </g>
      </g>
    </g>
    <g class="cls-9">
      <g class="cls-17">
        <g class="cls-24">
          <g class="cls-37">
            <path class="cls-5" d="M50.54,246.38c-.07-.32-.14-.65-.2-.97-.06-.32-.11-.74-.15-1.11-.06-.49-.13-.98-.17-1.49-.02.08-.05.16-.08.23-.27.63-.58,1.23-.92,1.81-.28.52-.55,1.04-.82,1.55.18-.14.39-.24.6-.31.24-.06.49-.04.72.06.15.06.3.11.44.17.17.07.32.18.43.33.08.11.14.24.18.38.01-.02.02-.04.03-.07l.03-.09c-.03-.17-.06-.32-.09-.48Z"/>
          </g>
        </g>
      </g>
    </g>
    <g class="cls-22">
      <g class="cls-12">
        <g class="cls-15">
          <path class="cls-5" d="M65.82,261.34c.27-.18.54-.37.82-.55.28-.18.64-.39.97-.57.43-.24.86-.49,1.31-.72l-.24.02c-.68-.01-1.36-.06-2.03-.16-.58-.05-1.18-.1-1.74-.16.2.11.37.26.52.44.15.21.22.44.22.69.02.16.03.32.01.47,0,.19-.04.36-.14.53-.07.12-.16.22-.27.31l.17-.02.41-.28Z"/>
        </g>
      </g>
    </g>
    <g class="cls-9">
      <g class="cls-20">
        <g class="cls-38">
          <g class="cls-31">
            <path class="cls-5" d="M44.98,265.84c-.09.31-.18.63-.28.94s-.25.7-.39,1.05c-.18.46-.35.93-.55,1.39.06-.05.11-.11.18-.16.53-.43,1.08-.82,1.65-1.18l1.44-.99c-.22.04-.45.04-.67,0-.24-.06-.44-.19-.6-.39-.1-.12-.2-.23-.3-.36-.12-.14-.2-.3-.22-.48-.02-.13-.01-.26.02-.39l-.06.05-.06.07c-.05.15-.1.3-.15.46Z"/>
          </g>
        </g>
      </g>
    </g>
    <path class="cls-3" d="M217.42,75.11c17.08,11.16,27.43,32.54,32.27,53.51,4.84,20.84,4.17,41.28.94,61.05-3.09,19.9-8.6,39.13-19.76,55.8-11.16,16.67-27.7,30.79-47.33,38.19-19.77,7.53-42.35,8.33-61.72,1.21-19.22-7.26-35.22-22.45-49.88-39.13-14.66-16.54-28.1-34.42-33.35-54.99-5.38-20.57-2.69-43.83,6.72-63.86,9.41-20.04,25.55-36.84,44.64-47.06,18.96-10.22,41.01-13.85,63.86-15.19,22.86-1.48,46.52-.54,63.6,10.49Z"/>
    <path class="cls-4" d="M205.52,166.04c-.6.13-1.99-1.31-1.73.86.75.51,2.33-.06,1.73-.86ZM257.55,158.43c.96.21,2.83-.52,3.57.39.02.03.05.07.07.1.02.02.03.04.04.06.02.04.04.07.06.11.03.06.05.13.07.2-.08.78-1.1.63-.86,1.73,2.46-.05,5.04,1.75,4.15,5.01-.39.77-2.17.14-2.07,1.39,2.35.21,5.59.86,6.05,3.46.3,1.72-.66,3.13-1.9,4.15-.01.01-.03.02-.04.03-.03.02-.06.03-.09.05-.02.01-.03.02-.05.03-.24.1-.53.15-.77.24-.04.02-.07.03-.1.05-.02.01-.04.02-.06.04-.02.01-.03.02-.04.03-.02,0-.03.02-.04.03l-.02.02s-.02.01-.02.02c-.08.08-.14.19-.15.34.11.09.23.16.34.21.06.03.12.05.18.07.02,0,.04.01.06.02.52.13,1.05-.04,1.54-.39.04-.03.09-.07.13-.1.07-.05.13-.11.2-.17.04-.04.08-.08.13-.12.08-.08.16-.17.24-.26.04-.04.08-.09.12-.14.65-.8,1.13-1.87,1.22-2.77.23-2.26-1.23-3.82-2.78-4.84l-.17-.11c-.06-.04-.12-.07-.18-.11-.06-.03-.11-.07-.17-.1-.23-.14-.46-.26-.68-.37.85-3.41-.8-5.74-3.11-6.57.06-.58-.02-1.02-.1-1.45l-.05-.27c-.01-.06-.02-.12-.03-.18-.05-.09-.11-.17-.2-.26-1.06-1.02-4.64-1.18-4.47.43ZM250.11,191.1c.09.72.97,1.36,1.56,1.04-.19-.62-.8-1.53-1.56-1.04ZM247.87,193.52c.76.32,2.23,1.85,2.77.35-1.36.15-1.33-1.09-2.42-1.21-.07.33-.37.44-.34.86ZM233.87,146.68c.89,1.56.03,3.48-.69,4.49.64.77,1.38-.27,2.24.18,1.43,1.55.65,4.88-.17,5.88,2,.93,5.56,4.41,3.8,7.26-.04.06-.08.11-.14.17-.02.02-.04.04-.06.05-.05.04-.1.08-.15.11-.02.02-.04.03-.07.04-.02.02-.04.03-.07.04-.04.02-.07.04-.11.06s-.07.04-.11.05c-.04.02-.07.04-.11.05-.03.01-.05.02-.07.03-.02,0-.03.02-.04.02-.02.01-.05.02-.07.03-.01,0-.02.01-.04.02-.03.02-.05.03-.07.04-.02.01-.05.03-.07.04-.04.02-.07.04-.1.06-.02.01-.04.02-.06.04-.06.04-.13.08-.18.13,0,0-.02.02-.02.03-.01,0-.02.02-.03.02-.16.17-.24.39-.17.72,5.53-.25,1.94-7.72-.69-9.33,1.23-2.36.22-5.95-1.56-6.92.65-1.84-.47-3-1.04-4.49-1.65-.81-4.63-.53-5.02,1.39,1.14.1,3.42-1.54,4.84-.17ZM185.64,114.53c6.24-.24,11.31,3.66,15.04,6.74,1.03-.41.91-1.97,1.38-2.94,1.24,1.13,1.4,3.32,2.59,4.49,1.1.04,1.9-1.04,3.11-1.39,3.18,8.29,2.71,20.61-.69,28.18-1.02.32-2.42.29-3.58.39-.06,0-.12.01-.18.02-.2.02-.4.04-.58.08-.05,0-.1.02-.15.03-.05.01-.1.03-.15.04-.05.01-.1.03-.14.04-.03.01-.05.02-.07.02-.05.02-.09.03-.13.05-.02.01-.04.02-.06.03-.08.04-.15.07-.22.12-.03.02-.06.04-.09.07.1.22.23.4.37.53.15.14.31.24.48.31.08.04.16.06.24.08l.06.02c.06.01.13.02.19.03.86.12,1.85-.21,2.45-.29,2.36-.3,4.66-.76,6.4-1.72,9.2-5.1,15.36-13.24,18.84-24.89,1.07-3.59,1.98-7.57,3.29-11.24.48-1.37,1.55-3.11,2.42-4.15,1.52-1.81,4.83-4.57,7.44-2.42,3.29,2.71,2.23,9.68.86,14-.8,2.51-2.27,4.82-2.07,6.92.9.23,1.31-1.08,1.73-1.73,1.1-1.69,4.49-8.28,7.78-5.19,3.21,3.03.56,10.81-.86,14-1.09,2.44-2.75,4.34-3.29,6.05,2.38.21,3.71-2.94,6.91-1.9,1.27,1.63.48,3.73.18,5.36-1.05,5.63-3.16,9.84-6.4,13.31-1.94,2.08-4.65,3.07-6.22,5.19,1.49,1.08,4.26-1,6.22-.35,1.63.54,2.27,2.83,1.04,4.84-1.67,2.71-5.85,4.86-7.95,6.91.44,1.29,2.36,1.12,2.59,2.42.47,2.6-4.05,4.29-6.4,5.18-4.41,1.68-10.87,2.99-16.77,2.08-1.56-.24-3.56-1.59-5.02-.86.43.86,1.85,1.06,2.94,1.38,6.59,1.95,15.95.15,21.26-2.24,3.44-1.56,7.13-5.02,3.28-8.13,2.2-2.42,9.16-5.53,7.61-10.54-.53-1.7-2.06-2.48-4.67-2.42-.23-.59,2.14-2.34,3.11-2.94,2.99-4.5,6.1-8.88,6.74-15.73-.06-.53.56-.36.86-.52,1.11-3.73,3.45-8.27,7.78-8.81,4.48-.57,6.45,2.07,5.88,6.74-.2,1.58-1.01,3.65-1.73,5.01-.63,1.18-2.13,1.73-2.07,3.11,1.42.39,1.95-1.29,2.94-2.07,1.73-1.39,4.88-2.92,7.26-3.63,4.02-1.2,7.62.36,10.03,2.24,3.15,4.61-.89,9.77-3.98,12.45-1.24,1.07-2.56,2.42-3.45,2.94-.99.57-2.38.24-2.77,1.38.69,1.29,1.69.61,2.59.69,7.78.68,16.75,3.6,15.56,13.31-.54,4.37-5.39,9.77-9.68,10.72-8.03,1.79-14.8-1.63-20.4-4.32-3.73,7.74-8.21,14.53-14.52,19.71-.48.39-.96.79-1.45,1.17l-.59.47c-.1.07-.2.15-.3.23-.8.61-1.61,1.22-2.45,1.82l-.63.44c-4.85,3.36-10.36,6.19-17.05,7.45-2.15-5.55-3.95-11.46-7.26-16.59-.93-1.43-2.04-2.83-3.17-4.23-.11-.14-.22-.28-.34-.42s-.22-.28-.34-.42c-.23-.28-.45-.56-.68-.83-.11-.14-.22-.28-.33-.42-.11-.14-.22-.28-.33-.42-1.78-2.27-3.41-4.57-5.36-6.57-3.93-4.03-8.59-7.29-13.31-10.55-4.68-3.22-10.3-6.41-15.9-7.78-8.95-2.18-19.09-.59-23.51,4.67-.98-3.29-1.9-6.63-2.42-10.37.07,0,.15.01.23.02.15.01.3.03.45.04.53.05,1.04.09,1.53.14.14.01.28.02.42.04.28.03.55.05.82.07.2.02.41.03.6.05.14.01.27.02.4.03.14,0,.27.02.4.02l.58.03c2.21.09,4.22-.05,6.32-.78,2.26-.78,5.23-4.35,6.4-7.26,2.28-5.67-.17-11.33-3.63-13.83,3.36-3.66,3.54-12.41-.69-15.39,3.17-4.22,9.74-7.35,16.42-7.6ZM224.71,159.82c2.09-5.72-6.41-8.82-8.3-4.49,1.31.49,2.29-1.11,3.97-1.04.2,0,.39.04.59.08.05.02.11.03.17.05.39.11.76.3,1.11.53.05.03.1.07.15.1.03.02.05.03.07.05l.14.11c.06.05.11.1.17.15.04.04.09.08.13.13l.03.03.06.06s.08.09.12.13c.21.24.4.51.55.78l.06.13c.2.42.31.87.29,1.3-.08,1.46-1.25,1.25-1.73,2.59,2.27.47,4.89,1.02,5.19,3.29.24,1.85-1.13,3.07-2.08,4.49.19.61,1.16.45,1.73.69,1.03,1.18,2.09,2.4,1.73,4.15-.39,1.91-2.75,2.03-4.15,2.94,1.53,1.53,4.42-.66,5.01-2.42.91-2.71-1.6-4.23-2.42-5.88,2.15-3.05-.02-7.01-2.59-7.95ZM201.38,166.73c1.09-.11,1.61-.8,2.07-1.56-.91.08-1.48.48-2.25.69-.05.4.03.67.18.86ZM197.57,138.56c2.19-4.23.22-12.42-1.73-15.21-2.18-3.13-7.83-4.23-12.1-3.97-7.08.43-10.75,6.69-10.37,14,.49,9.51,9.69,14.19,17.8,11.06,2.3-.89,5.33-3.8,6.4-5.88"/>
    <g class="cls-23">
      <path class="cls-1" d="M211.05,133.2c.08,2.55-.15,5.03-.51,7.35-.04.23-.07.46-.11.69-.04.23-.08.46-.12.69-.03.15-.06.3-.08.45-.11.6-.23,1.19-.36,1.77-.03.14-.06.29-.09.43-.02.07-.04.15-.05.21-.05.21-.09.42-.14.63-.05.21-.1.42-.15.62-.02.07-.04.14-.05.2-.05.2-.1.41-.15.6-.15.6-.29,1.18-.43,1.74,5.77-2.3,13.73-7.13,15.56-13.14.84-2.76,1.11-9.67-2.07-9.68-1.15,0-1.54,1.34-2.77,1.56-.29-2.22.48-5.02.52-7.78.05-3.41-.57-6.56-1.91-8.81-2.26-2.75-6-.93-6.91,2.07-.86,2.84-.13,7.78-.86,10.71-.15.58-.49.96-.52,1.39-.15,2.39,1.12,5.45,1.21,8.3ZM197.4,241.92c2.14.03,3.86-.61,5.36.52.11,1.53-.91,2.41-1.21,3.98,1.21-.63,1.58-2.11,2.76-2.77,1.8.63,3.91,1.86,6.05,1.56-1.14-1.73-4.26-2.5-4.67-4.84-.15-.84.28-1.73.34-2.59.53-6.89.55-15.66,1.39-21.95-1.5-.34-3.14-.54-4.84-.69-1.56,7.41-1.11,17.98-1.21,25.23-.11.06-.23.11-.35.16-.08.04-.16.07-.24.1l-.25.09-.13.05c-.08.03-.17.06-.26.09-.08.03-.17.06-.26.09-.09.03-.17.06-.26.09-.78.26-1.56.52-2.23.88ZM244.41,125.94c-.42.65-.83,1.96-1.73,1.73-.2-2.1,1.28-4.41,2.07-6.92,1.38-4.32,2.43-11.28-.86-14-2.6-2.15-5.92.61-7.44,2.42-.86,1.03-1.93,2.78-2.42,4.15-1.3,3.67-2.21,7.65-3.29,11.23-3.48,11.66-9.64,19.79-18.84,24.9-1.74.96-4.04,1.42-6.4,1.72-.6.08-1.59.41-2.45.29-.07-.01-.13-.02-.19-.03l-.06-.02c-.08-.02-.16-.05-.24-.08-.18-.07-.34-.17-.48-.31-.14-.14-.27-.31-.37-.53.03-.03.06-.05.09-.07.07-.05.15-.08.22-.12.02,0,.04-.02.06-.03.04-.02.08-.03.13-.05.02,0,.04-.01.07-.02.04-.01.09-.03.14-.04.05-.01.09-.03.15-.04.05-.01.1-.02.15-.03.18-.04.38-.06.58-.08.06,0,.12-.01.18-.02,1.16-.1,2.57-.07,3.58-.39,3.4-7.57,3.86-19.89.69-28.18-1.21.35-2.01,1.42-3.11,1.39-1.19-1.17-1.35-3.37-2.59-4.49-.47.97-.35,2.53-1.38,2.94-3.73-3.08-8.8-6.98-15.04-6.74-6.67.26-13.25,3.39-16.42,7.6,4.23,2.98,4.05,11.72.69,15.39,3.46,2.49,5.91,8.16,3.63,13.83-1.17,2.91-4.14,6.47-6.4,7.26-2.1.73-4.11.87-6.32.78l-.58-.03c-.13,0-.26-.02-.4-.02-.13-.01-.26-.02-.4-.03-.2-.02-.4-.03-.6-.05-.27-.02-.55-.04-.82-.07-.14-.02-.28-.03-.42-.04-.49-.05-1.01-.09-1.53-.14-.15-.02-.3-.03-.45-.04-.08-.01-.16-.02-.23-.02.52,3.74,1.44,7.08,2.42,10.37,4.43-5.26,14.56-6.85,23.51-4.67,5.6,1.36,11.22,4.55,15.9,7.78,4.72,3.26,9.38,6.52,13.31,10.55,1.95,1.99,3.58,4.3,5.36,6.57.11.14.22.28.33.42.11.14.22.28.33.42.22.28.45.56.68.83.11.14.22.28.34.42s.22.28.34.42c1.13,1.4,2.24,2.8,3.17,4.23,3.31,5.13,5.11,11.04,7.26,16.59,6.69-1.27,12.2-4.09,17.05-7.45.21-.15.42-.29.63-.44.83-.59,1.65-1.2,2.44-1.82.1-.08.2-.16.3-.23l.59-.47c.49-.39.97-.78,1.45-1.17,6.31-5.18,10.79-11.97,14.52-19.71,5.6,2.69,12.36,6.11,20.4,4.32,4.29-.95,9.14-6.35,9.68-10.72,1.19-9.71-7.78-12.63-15.56-13.31-.9-.08-1.9.6-2.59-.69.39-1.14,1.78-.81,2.77-1.38.9-.52,2.21-1.87,3.46-2.94,3.09-2.68,7.13-7.84,3.97-12.45-2.41-1.88-6.01-3.44-10.03-2.24-2.38.71-5.53,2.24-7.26,3.63-.99.79-1.52,2.46-2.94,2.07-.06-1.38,1.45-1.93,2.07-3.11.72-1.36,1.53-3.43,1.73-5.01.57-4.67-1.4-7.31-5.88-6.74-4.33.55-6.67,5.08-7.78,8.81-.3.16-.93,0-.86.52-.64,6.85-3.75,11.23-6.74,15.73-.97.59-3.34,2.34-3.11,2.94,2.61-.06,4.15.72,4.67,2.42,1.55,5.02-5.41,8.13-7.61,10.54,3.85,3.11.16,6.57-3.28,8.13-5.31,2.4-14.67,4.19-21.26,2.24-1.09-.32-2.51-.52-2.94-1.38,1.46-.73,3.45.62,5.02.86,5.9.91,12.35-.4,16.77-2.08,2.35-.89,6.86-2.58,6.4-5.18-.23-1.3-2.16-1.13-2.59-2.42,2.1-2.05,6.29-4.2,7.95-6.91,1.23-2.02.59-4.3-1.04-4.84-1.97-.65-4.73,1.43-6.22.35,1.58-2.12,4.28-3.11,6.22-5.19,3.24-3.47,5.35-7.68,6.4-13.31.3-1.64,1.09-3.73-.18-5.36-3.2-1.04-4.54,2.11-6.91,1.9.54-1.71,2.19-3.61,3.29-6.05,1.43-3.19,4.08-10.97.86-14-3.29-3.09-6.68,3.5-7.78,5.19ZM160.06,146.85c1.61,1.01,4.11,1.92,3.97,3.28-3.63,3.06-8.45,4.92-12.79,7.26,5.33-.32,9.71.9,14.17.34,4.8-.59,8.49-7.66,7.78-13.14-.28-2.16-2.22-5.62-3.97-6.05-2.1-.51-5.2.74-7.61.86-.34.02-.67-.32-1.04-.35-.81-.06-1.75.3-2.59.35-2.96.16-6.24.08-9.16.52,2.96,2.45,7.59,4.64,11.24,6.92ZM157.98,125.24c-2.87,3.67-.59,12.22,3.81,12.79.13-.04.27-.08.41-.11l.13-.03c.17-.04.35-.08.53-.11.03-.01.06-.02.08-.02.02,0,.04,0,.06-.01.08-.02.16-.03.24-.05.07-.01.14-.02.21-.03.1-.02.2-.04.31-.05.06,0,.12-.02.18-.03.19-.03.38-.05.56-.07.03,0,.06,0,.09-.01l.28-.03.19-.02c.07,0,.13-.01.19-.02l.19-.02.19-.02s.06,0,.09-.01c.06,0,.13,0,.19-.01s.13,0,.19-.01c.63-.04,1.24-.05,1.79-.04h.12c4.43-2.45,4.74-13.39-.52-14.86-3.77-1.05-7.83.62-9.51,2.77ZM224.02,219.62c1.38,7.34,3.77,15.2,4.49,22.3-1.12.36-2.29.68-3.24,1.21-.08.05-.15.09-.22.14s-.14.09-.21.14c-.1.08-.2.16-.3.23h0c1.33.23,4.21-.1,5.88,0,1.44,1.62,2.59,3.52,4.49,4.67-.1-1.51-.64-2.56-1.11-3.68-.16-.38-.31-.76-.44-1.16.06-.07.12-.13.18-.19,1.27-1.25,3.68-1.37,5.18-2.4-1.7-.38-3.78-.37-5.53-.69-2.14-8.84-4.19-16.7-6.22-25.58-1.07.37-2.51.37-3.63.69.43,1.33.44,3.01.69,4.32ZM290.22,162.93c3.81,2.24,7.4,6.31,6.57,12.79-.44,3.41-3.17,6.78-5.53,8.99-5.84,5.46-17.97,3.29-25.23-.69-2.99,5.56-6.19,10.67-10.2,15.21-3.26,3.7-7.74,6.26-11.92,9.34-4.27,3.14-9.53,4.86-15.04,6.22,1.48,8.43,3.45,16.38,5.7,24.03,1.99.46,4.97-.03,6.92.69.27.1,1.76,1.19,1.56,1.9-.26.92-2.08.76-3.11,1.04-1.62.44-3.08,1.38-4.49,1.73.33,2.01,2.15,4.8.69,6.91-3.34-.86-4.38-4.03-6.91-5.7-2.48-.49-7.09,1.3-7.78-.69-.77-2.22,4.09-3.14,5.53-4.15-1.72-8.19-3.24-16.57-5.19-24.54-4.27.04-8.55.43-12.44.34-.66,5.24-1.63,11.01-1.9,17.11-.09,1.96-.49,5.3,0,7.08.73,2.66,6.01,2.49,4.32,6.57-2.46.27-5.31-.56-7.09-1.55-1.63,1.25-1.96,3.8-4.67,3.97-1.1-1.53.21-4.29.69-5.88-2.21-.54-5.79,1.24-7.78-.17-.32-1.91,1.58-2.42,2.77-2.94,1.35-.58,2.95-.94,4.15-1.55-.44-8.16-.14-16.21,1.04-23.51-27.03-7.37-42.38-26.41-47.19-56.01-2.96.24-7.53.6-7.43-1.9.05-1.26,3.15-2.29,4.32-2.94,1.82-1,3.28-2.01,4.49-2.59.21-2.3.05-3.92.69-5.7-2.18-1.65-4.95-2.69-7.6-4.49-.57-.39-1.96-1.41-1.9-2.07.14-1.49,4-1.61,6.22-1.73,2.21-.11,3.64,0,5.53-.17-2.26-2.41-3.73-7.69-2.42-11.76,1.02-3.17,5.5-5.57,9.68-5.53.66,0,1.6.52,2.42.34,1.16-.24,1.85-1.83,2.77-2.59,3.71-3.09,8.96-5.69,15.38-5.7,6.58-.02,10.51,3.39,14.52,6.05.45-1.24.42-2.79,1.56-2.94,1.8-.23,2.39,3.71,3.29,5.01.98-.08,3.29-2.44,3.97,0-.28-6.6.93-13.85,6.91-13.14,5.78.7,5.63,9.58,5.19,16.42,3.52-.48,5.68,3.12,5.19,7.78,4.04-6.07,4.17-18.78,9.33-24.2,1.08-1.14,3.07-3.17,4.67-3.46,7.33-1.33,8.13,9.78,6.05,15.91-.03.14-.17.17-.17.34,1.43-1.1,2.03-2.69,4.67-2.24,6.71,1.11,3.7,14.92,1.04,18.84,1.45-.3,4.1-.19,4.49,1.56,1.76-2.16,3.48-5.67,6.57-6.74,2.62-.91,6.73-.66,8.13,1.04,1.94,2.38,1.64,7.85.17,10.55,3.11-1.2,6.68-3.68,10.89-3.29,4.01.38,7.89,3.4,7.78,8.13-.13,5.92-4.82,9.09-8.3,12.27,3.31.21,6.07,1.01,8.47,2.42ZM226.78,213.05c-3.01-11.68-9.09-20.88-17.05-28.82-.64-.64-1.29-1.27-1.95-1.89-.52-.48-1.04-.96-1.57-1.44-.28-.25-.55-.49-.83-.74-.21-.19-.42-.37-.64-.56-.15-.13-.29-.24-.43-.37-.15-.12-.29-.24-.44-.37-.07-.06-.15-.12-.22-.18-.15-.13-.29-.24-.44-.37-3.7-3.06-7.89-6.02-12.56-8.3-6.11-2.99-12.57-5.76-20.92-4.84-5.02.55-9.44,2.56-11.76,6.22,1.67,5.17,3.76,9.95,6.22,14.52,2.38,4.41,5.62,8.12,8.99,11.76,3.31,3.56,7.12,6.68,11.58,9.16,4.45,2.47,9.35,4.89,14.52,6.22,8.22,2.12,18.9,1.72,27.48,0ZM156.78,151.69c1.77-.77,4.12-.95,5.19-2.42-1.63-.85-3.2-1.76-4.67-2.77-.53,1.38-.59,3.21-.52,5.19"/>
    </g>
    <path class="cls-1" d="M264.64,166.04c.89-3.26-1.69-5.06-4.15-5.01-.23-1.1.78-.95.87-1.73-.02-.07-.05-.14-.07-.2-.02-.04-.04-.08-.06-.11-.01-.02-.02-.04-.04-.06-.02-.03-.04-.07-.07-.1-.74-.91-2.6-.18-3.57-.39-.17-1.6,3.42-1.45,4.47-.43.08.08.15.17.2.26.01.06.02.12.03.18l.05.27c.08.44.16.88.1,1.45,2.31.82,3.96,3.16,3.11,6.57.22.11.45.23.68.37.06.03.11.07.17.1.06.04.12.07.18.11l.17.11c1.55,1.02,3.01,2.58,2.78,4.84-.09.9-.57,1.96-1.22,2.77-.04.05-.08.09-.12.14-.08.09-.16.18-.24.26-.04.04-.08.08-.13.12-.07.06-.13.11-.2.17-.04.03-.09.07-.13.1-.49.35-1.02.52-1.53.38l-.06-.02c-.06-.02-.11-.04-.18-.07-.11-.05-.23-.13-.34-.21.02-.15.07-.26.15-.34,0,0,.01-.01.02-.02l.02-.02s.03-.03.04-.03c.01-.01.03-.02.04-.03.03-.02.05-.03.07-.04.03-.02.06-.03.1-.05.24-.1.53-.15.77-.24.02-.01.03-.02.05-.03.03-.02.06-.03.09-.05.02-.01.03-.02.04-.03,1.24-1.02,2.2-2.43,1.9-4.15-.45-2.6-3.69-3.24-6.05-3.46-.1-1.25,1.69-.61,2.07-1.39"/>
    <path class="cls-1" d="M251.67,192.14c-.59.32-1.47-.31-1.56-1.04.76-.49,1.36.42,1.56,1.04"/>
    <path class="cls-1" d="M250.64,193.87c-.53,1.51-2.01-.03-2.77-.35-.03-.43.27-.54.34-.86,1.09.13,1.06,1.36,2.42,1.21"/>
    <path class="cls-1" d="M238.86,164.7s.04-.04.06-.05c-.02.02-.04.04-.06.05"/>
    <path class="cls-1" d="M238.64,164.85s.05-.03.07-.04c-.02.02-.05.03-.07.04"/>
    <path class="cls-1" d="M238.57,164.89s.05-.02.07-.04c-.02.02-.05.03-.07.04"/>
    <path class="cls-1" d="M238.46,164.95s.07-.04.11-.06c-.04.02-.07.04-.11.06"/>
    <path class="cls-1" d="M238.35,165s.07-.04.11-.05c-.04.02-.07.04-.11.05"/>
    <path class="cls-1" d="M238.24,165.05s.07-.04.11-.05c-.04.02-.07.04-.11.05"/>
    <path class="cls-1" d="M238.17,165.08s.05-.02.07-.03c-.03.01-.05.02-.07.03"/>
    <path class="cls-1" d="M238.06,165.14s.05-.02.07-.03c-.02.01-.05.02-.07.03"/>
    <path class="cls-1" d="M237.95,165.19s.05-.02.07-.04c-.02.02-.05.03-.07.04"/>
    <path class="cls-1" d="M237.88,165.22s.05-.03.07-.04c-.02.01-.05.03-.07.04"/>
    <path class="cls-1" d="M237.71,165.32s.04-.03.06-.04c-.02.01-.04.02-.06.04"/>
    <path class="cls-1" d="M237.54,165.45s-.02.02-.02.03c0-.01.02-.02.02-.03"/>
    <path class="cls-1" d="M237.52,165.47s-.02.02-.03.02c0,0,.02-.02.03-.02"/>
    <path class="cls-1" d="M233.18,151.17c.72-1.01,1.58-2.93.69-4.49-1.43-1.36-3.7.28-4.84.18.39-1.92,3.36-2.19,5.02-1.39.57,1.49,1.68,2.66,1.04,4.49,1.78.96,2.79,4.56,1.56,6.91,2.63,1.61,6.22,9.09.69,9.34-.07-.33,0-.55.17-.72l.03-.03s.02-.02.03-.02c.05-.05.11-.09.17-.13.02-.02.04-.03.06-.04.04-.02.07-.04.1-.06.02-.02.05-.03.07-.04.02-.01.05-.02.07-.04.02,0,.03-.01.04-.02.03-.01.05-.02.07-.03.02,0,.03-.02.04-.02.02-.01.05-.02.07-.03.04-.02.07-.03.11-.05.04-.02.07-.04.11-.05s.07-.04.11-.06c.02-.01.05-.02.07-.04.03-.02.05-.03.07-.04.05-.03.1-.07.15-.11.02-.02.04-.04.06-.05.05-.05.1-.1.14-.17,1.76-2.85-1.8-6.33-3.8-7.26.82-.99,1.61-4.32.17-5.88-.86-.45-1.61.59-2.24-.18"/>
    <path class="cls-1" d="M233.53,243.28c-.06.06-.12.13-.18.19.13.41.28.79.44,1.16-.16-.38-.31-.76-.44-1.16.06-.07.11-.13.18-.19"/>
    <path class="cls-1" d="M216.41,155.32c1.89-4.32,10.39-1.23,8.3,4.49,2.57.94,4.74,4.9,2.59,7.95.82,1.65,3.33,3.17,2.42,5.88-.59,1.76-3.48,3.94-5.01,2.42,1.4-.91,3.76-1.03,4.15-2.94.36-1.74-.7-2.96-1.73-4.15-.57-.24-1.54-.08-1.72-.69.95-1.42,2.31-2.65,2.07-4.49-.29-2.27-2.92-2.81-5.19-3.29.48-1.34,1.65-1.13,1.73-2.59.03-.43-.08-.88-.29-1.3l-.06-.13c-.15-.28-.33-.54-.55-.78-.04-.04-.08-.08-.12-.13l-.06-.06-.03-.03s-.09-.08-.13-.13c-.06-.05-.11-.1-.17-.15l-.14-.11s-.05-.04-.07-.06c-.05-.03-.1-.07-.15-.1-.35-.23-.72-.42-1.11-.53-.06-.02-.11-.03-.17-.05-.2-.05-.39-.08-.59-.08-1.69-.08-2.67,1.53-3.97,1.04"/>
    <path class="cls-4" d="M233.79,244.64c.48,1.12,1.02,2.18,1.11,3.68-1.91-1.15-3.06-3.05-4.49-4.67-1.67-.1-4.55.23-5.88,0,.09-.08.19-.16.3-.23.07-.05.14-.09.21-.14s.15-.09.22-.14c.95-.54,2.12-.85,3.24-1.21-.72-7.1-3.11-14.96-4.49-22.3-.25-1.31-.26-2.98-.69-4.32,1.12-.32,2.56-.32,3.63-.69,2.04,8.89,4.09,16.74,6.22,25.58,1.75.32,3.83.32,5.53.69-1.49,1.03-3.91,1.15-5.18,2.4-.06.06-.13.13-.18.19.13.41.28.79.44,1.16"/>
    <path class="cls-1" d="M224.54,243.65c1.32.23,4.2-.1,5.88,0-1.67-.1-4.55.23-5.88,0h0"/>
    <path class="cls-4" d="M222.29,125.77c3.18.01,2.92,6.92,2.07,9.68-1.83,6.02-9.79,10.84-15.55,13.14.14-.56.28-1.14.43-1.74.05-.2.1-.4.15-.6.02-.07.03-.14.05-.2.05-.2.09-.41.15-.62.05-.21.09-.42.14-.63.02-.07.04-.14.05-.21.03-.14.06-.28.09-.43.13-.58.24-1.17.36-1.77.03-.15.06-.3.08-.45.04-.23.08-.46.12-.69.04-.23.08-.46.11-.69.36-2.33.59-4.8.51-7.35-.09-2.85-1.36-5.91-1.21-8.3.03-.42.38-.81.52-1.39.73-2.93,0-7.88.86-10.71.91-3.01,4.65-4.82,6.91-2.07,1.34,2.26,1.95,5.41,1.91,8.81-.04,2.76-.81,5.56-.52,7.78,1.23-.21,1.61-1.56,2.77-1.56"/>
    <path class="cls-1" d="M222.78,155.36s.09.08.13.13c-.04-.04-.09-.08-.13-.13"/>
    <path class="cls-1" d="M222.47,155.1l.14.11-.14-.11"/>
    <path class="cls-1" d="M222.25,154.95s.1.07.15.1c-.05-.04-.1-.07-.15-.1"/>
    <path class="cls-1" d="M221.14,154.42c-.06-.02-.11-.03-.17-.05.05.02.11.03.17.05"/>
    <path class="cls-4" d="M209.73,184.23c7.96,7.94,14.04,17.14,17.05,28.82-8.59,1.71-19.27,2.11-27.48,0-5.17-1.33-10.07-3.76-14.52-6.22-4.46-2.48-8.27-5.6-11.58-9.16-3.37-3.64-6.61-7.34-8.99-11.76-2.46-4.57-4.56-9.35-6.22-14.52,2.31-3.66,6.74-5.67,11.76-6.22,8.35-.92,14.8,1.85,20.92,4.84,4.67,2.29,8.86,5.24,12.56,8.3.15.13.3.24.44.37.07.06.15.13.22.18.15.13.29.25.44.37.15.13.29.25.43.37.21.19.42.37.64.56.28.24.56.49.83.74.53.47,1.05.95,1.57,1.44.66.62,1.31,1.25,1.95,1.89"/>
    <path class="cls-1" d="M217.57,191.64c.11.14.23.28.34.42-.11-.14-.22-.28-.34-.42"/>
    <path class="cls-1" d="M217.23,191.22c.11.14.22.28.34.42-.11-.14-.22-.28-.34-.42"/>
    <path class="cls-1" d="M216.22,189.96c.11.14.22.28.33.42-.11-.14-.22-.28-.33-.42"/>
    <path class="cls-1" d="M210.54,140.55c-.04.23-.07.46-.11.69.04-.23.08-.46.11-.69"/>
    <path class="cls-1" d="M210.31,141.93c-.03.15-.06.3-.08.45.03-.15.06-.3.08-.45"/>
    <path class="cls-1" d="M209.86,144.15c-.03.15-.06.29-.09.43.03-.14.06-.28.09-.43"/>
    <path class="cls-1" d="M209.72,144.79c-.05.21-.09.42-.14.63.05-.21.09-.42.14-.63"/>
    <path class="cls-1" d="M209.57,145.42c-.05.21-.09.42-.15.62.05-.2.1-.41.15-.62"/>
    <path class="cls-1" d="M209.38,146.24c-.05.2-.09.41-.15.6.05-.2.1-.4.15-.6"/>
    <path class="cls-1" d="M209.23,146.84c-.15.6-.29,1.18-.43,1.74h0c.14-.56.29-1.14.43-1.74"/>
    <path class="cls-4" d="M205.69,240.36c.41,2.34,3.53,3.11,4.67,4.84-2.15.3-4.26-.93-6.05-1.56-1.19.66-1.55,2.14-2.77,2.77.3-1.57,1.32-2.45,1.21-3.98-1.49-1.13-3.22-.48-5.36-.52.67-.36,1.45-.62,2.23-.88.09-.03.17-.06.26-.09.08-.03.17-.06.26-.09.09-.03.17-.06.26-.09l.13-.05.25-.09c.08-.04.17-.07.24-.1.12-.05.24-.1.35-.16.1-7.26-.35-17.83,1.21-25.23,1.7.15,3.34.34,4.84.69-.83,6.29-.86,15.07-1.38,21.95-.07.86-.49,1.76-.35,2.59"/>
    <path class="cls-1" d="M203.79,166.9c-.26-2.18,1.13-.74,1.73-.86.6.8-.98,1.37-1.73.86"/>
    <path class="cls-1" d="M203.32,150.03c.06,0,.12-.01.18-.02-.06,0-.12.01-.18.02"/>
    <path class="cls-1" d="M203.45,165.18c-.46.75-.98,1.44-2.07,1.55-.15-.2-.23-.46-.18-.86.77-.2,1.34-.61,2.25-.69"/>
    <path class="cls-1" d="M202.58,150.13s.1-.02.15-.03c-.05,0-.1.02-.15.03"/>
    <path class="cls-1" d="M202.3,150.2s.09-.03.14-.04c-.05.01-.09.03-.14.04"/>
    <path class="cls-1" d="M202.1,150.27s.08-.03.13-.05c-.05.02-.09.03-.13.05"/>
    <path class="cls-1" d="M201.81,150.42c.07-.05.15-.08.22-.12-.08.04-.15.07-.22.12"/>
    <path class="cls-1" d="M201.72,150.48s.06-.04.1-.06c-.04.02-.07.04-.1.07h0"/>
    <path class="cls-1" d="M183.74,119.37c4.28-.26,9.92.85,12.1,3.97,1.95,2.79,3.92,10.98,1.73,15.21-1.07,2.07-4.09,4.99-6.4,5.88-8.11,3.13-17.31-1.55-17.8-11.06-.38-7.32,3.29-13.57,10.37-14ZM196.7,137.86c2.05-4.01.56-10.68-1.72-13.83-1.16-1.59-3.59-2.58-5.88-3.11-1.27-.29-3.37-.71-4.67-.69-4.53.08-7.18,2.52-8.3,4.67-1.77,3.39-2.43,10.4-.17,14.34,2.45,4.3,9.21,6.49,15.04,3.98,2.09-.9,4.77-3.52,5.7-5.36"/>
    <path class="cls-4" d="M184.43,120.23c1.3-.03,3.4.4,4.67.69,2.29.53,4.72,1.53,5.88,3.11,2.28,3.15,3.77,9.82,1.72,13.83-.94,1.84-3.61,4.46-5.7,5.36-5.83,2.51-12.58.32-15.04-3.98-2.26-3.95-1.59-10.96.17-14.34,1.12-2.15,3.77-4.58,8.3-4.67ZM182.19,134.93c4.13,1.16,4.33-6.59.52-5.7-2.4.56-2.98,5.01-.52,5.7"/>
    <path class="cls-4" d="M182.36,133.72c.59.07.97-.07,1.38-.18.82-.95.95-2.97-.52-3.28-1.32.4-2.19,2.32-.86,3.46ZM182.7,129.22c3.82-.89,3.61,6.86-.52,5.7-2.47-.69-1.89-5.15.52-5.7"/>
    <path class="cls-4" d="M183.22,130.26c1.46.31,1.33,2.33.52,3.28-.41.1-.79.25-1.38.17-1.33-1.14-.46-3.05.86-3.45"/>
    <path class="cls-4" d="M169.22,138.56c1.75.43,3.69,3.89,3.97,6.05.71,5.48-2.98,12.54-7.78,13.14-4.46.56-8.84-.66-14.17-.34,4.34-2.34,9.16-4.2,12.79-7.26.14-1.36-2.36-2.27-3.97-3.28-3.65-2.28-8.28-4.46-11.24-6.92,2.92-.43,6.2-.35,9.16-.52.84-.05,1.79-.41,2.59-.35.37.03.69.36,1.04.35,2.41-.12,5.51-1.38,7.61-.86"/>
    <path class="cls-1" d="M167.89,137.34c-.55-.01-1.16,0-1.79.04.63-.04,1.24-.05,1.79-.04"/>
    <path class="cls-4" d="M167.49,122.48c5.26,1.47,4.95,12.42.52,14.86h-.12c-.55-.01-1.16,0-1.79.04-.06,0-.13,0-.19.01l-.19.02s-.06,0-.09,0l-.19.02c-.06,0-.13,0-.19.01-.06.01-.13.02-.19.02l-.19.02-.28.03s-.06.01-.09.01c-.19.02-.38.05-.56.07-.06.01-.13.02-.18.03-.1.02-.21.03-.31.05-.07.01-.14.02-.21.04-.08.01-.17.03-.24.04-.02,0-.04.01-.06.01-.03,0-.06.02-.08.02-.18.04-.36.07-.53.11l-.13.03c-.14.04-.28.07-.41.11-4.4-.57-6.68-9.12-3.81-12.79,1.68-2.15,5.74-3.82,9.51-2.77ZM162.14,133.2c2.31.2,4.03-.48,4.15-2.07.26-3.29-4.66-3.18-5.01-.35-.13,1.04.13,1.54.86,2.42"/>
    <path class="cls-1" d="M165.92,137.39l-.19.02.19-.02"/>
    <path class="cls-1" d="M165.64,137.41l-.19.02.19-.02"/>
    <path class="cls-1" d="M165.45,137.43c-.06,0-.13.01-.19.01.06,0,.13-.01.19-.01"/>
    <path class="cls-4" d="M165.06,130.83c.02.11.03.22.02.36,0-.14,0-.25-.02-.36"/>
    <path class="cls-4" d="M165.08,131.19s0,.07-.01.11c0-.04,0-.07.01-.11"/>
    <path class="cls-4" d="M165.03,130.69s.02.07.03.11c0-.04-.02-.08-.03-.11"/>
    <path class="cls-1" d="M165.07,137.46l-.19.02.19-.02"/>
    <path class="cls-4" d="M164.89,130.37s.03.04.04.06c-.01-.02-.03-.04-.04-.06"/>
    <path class="cls-1" d="M164.6,137.51s-.06,0-.09.01c.03,0,.06,0,.09-.01"/>
    <path class="cls-4" d="M162.66,132.16c-.92-1.26.19-2.73,1.9-2.42.08.24.21.43.33.63.01.02.03.04.04.06.04.08.08.17.1.26.02.04.03.08.03.11,0,.01,0,.02,0,.02.02.11.03.22.02.36,0,.04,0,.07-.01.11-.56.53-1.28.91-2.42.86"/>
    <path class="cls-4" d="M161.27,130.78c.35-2.83,5.27-2.94,5.01.35-.12,1.59-1.84,2.28-4.15,2.07-.74-.88-.99-1.39-.86-2.42ZM162.66,132.16c1.14.04,1.85-.33,2.42-.86,0-.04.01-.07.01-.11.01-.14,0-.25-.02-.36,0,0,0-.01,0-.02,0-.04-.02-.08-.03-.11-.03-.09-.06-.18-.1-.26-.01-.02-.03-.04-.04-.06-.11-.2-.25-.39-.33-.63-1.71-.3-2.82,1.16-1.9,2.42"/>
    <path class="cls-1" d="M163.94,137.59c-.06.01-.13.02-.18.03.06,0,.12-.02.18-.03"/>
    <path class="cls-4" d="M157.3,146.51c1.46,1.01,3.04,1.91,4.67,2.77-1.07,1.47-3.42,1.66-5.19,2.42-.07-1.97,0-3.81.52-5.19"/>
    <path class="cls-1" d="M141.39,136.83c.79,2.5-3.57,3.74-5.01,4.49-1.13.58-1.74.82-3.11,1.55-.74.39-2.28,1.73-3.11,1.56-2.27-.46.61-10.35.69-12.27.03-.77-.2-1.21-.17-1.9,1.26-2.28,3.31.86,4.67,2.07,1.43,1.28,2.53,2.35,3.46,2.94.88.56,2.41.96,2.59,1.56ZM139.49,137.34c-2.77-1.32-4.1-4.07-6.91-5.35-.66,3.23-1.6,6.8-1.73,10.02,3.22-1.21,5.93-2.95,8.64-4.67"/>
    <path class="cls-1" d="M139.15,149.62c1.29,1.45.02,3.58-.69,5.01-1.69,3.4-3.25,5.18-5.01,9.16-.56,1.27-1.68,4.18-3.11,3.97-1.24-.18-2.31-4.31-2.94-5.36-.46-.78-3.64-3.42-3.28-4.84.18-.73,1.37-.98,2.07-1.38,4.26-2.42,7.71-5.92,12.96-6.57ZM137.42,152.21v-.34s0-.06-.01-.08c0-.01,0-.02-.01-.03-.02-.05-.06-.08-.15-.06-4.56,1.2-7.66,3.86-11.23,6.05,1.55,2.49,3.19,4.88,4.32,7.78,1.64-1.87,2.47-4.34,3.63-6.57.62-1.19,1.3-2.35,1.94-3.54.07-.14.15-.28.22-.42s.15-.28.22-.42c.04-.07.07-.14.1-.21.36-.7.69-1.42.97-2.16"/>
    <path class="cls-4" d="M137.42,152.21v-.35s0-.06-.01-.08c0,.03.01.06.01.08v.35c-.29.73-.61,1.45-.97,2.15.36-.7.69-1.42.97-2.15"/>
    <path class="cls-4" d="M137.4,151.76s0,.02.01.03c0-.01,0-.02-.01-.03"/>
    <path class="cls-4" d="M137.24,151.69c.09-.02.13.01.15.06,0,.01,0,.02.01.03,0,.03.01.06.01.08v.34c-.29.74-.61,1.45-.97,2.16-.03.07-.07.14-.1.21-.07.14-.15.28-.22.42-.07.14-.15.28-.22.42-.64,1.18-1.32,2.34-1.94,3.54-1.16,2.23-1.99,4.7-3.63,6.57-1.13-2.91-2.77-5.29-4.32-7.78,3.58-2.18,6.68-4.84,11.23-6.05"/>
    <path class="cls-4" d="M136.34,154.58c-.07.14-.15.28-.22.42.07-.14.15-.28.22-.42"/>
    <path class="cls-4" d="M132.58,131.99c2.81,1.28,4.15,4.03,6.91,5.35-2.71,1.72-5.42,3.45-8.64,4.67.13-3.23,1.07-6.79,1.73-10.03"/>
    <path class="cls-4" d="M136.12,154.99c-.07.14-.15.28-.22.42.07-.14.15-.28.22-.42"/>
    <path class="cls-1" d="M166.74,130.6c0,1.75-1.42,3.17-3.17,3.17s-3.17-1.42-3.17-3.17,1.42-3.16,3.17-3.16,3.17,1.42,3.17,3.16"/>
    <path class="cls-1" d="M189.19,131.17c0,2.3-1.86,4.16-4.16,4.16s-4.16-1.86-4.16-4.16,1.86-4.16,4.16-4.16,4.16,1.86,4.16,4.16"/>
    <g class="cls-9">
      <g class="cls-28">
        <path class="cls-5" d="M237.95,18.82c-.35-1.05-1.08-2.3-2.03-3.21-.69-.66-1.51-1.15-2.35-1.32-1.51-.29-2.66.12-3.94.85-2.74,1.56-4.13,4.23-4.81,7.24-.34,1.49-.49,3.07-.58,4.6-.44-.9-1.05-1.71-1.93-2.35-1.44-1.05-3.55-1.31-5.57-.92-1.99.39-3.88,1.39-4.92,2.74-2.05,2.64-1.19,6.04,1.05,9.42,3.01,4.57,8.46,9.09,10.59,11.22.74.74,3.17,3.96,4.54,5.15.35.31.66.49.91.56.24.09.46.09.65.05.18-.03.44-.15.69-.42.2-.24.47-.68.76-1.29,1.37-2.91,3.54-10,3.76-10.83.86-3.17,2.22-6.74,3.08-10.38.9-3.78,1.27-7.61.1-11.12ZM236.13,29.53c-.86,3.6-2.21,7.17-3.06,10.32-.19.71-1.83,6.09-3.13,9.34-.26.61-.57,1.27-.8,1.66-.15-.14-.34-.29-.47-.43-1.39-1.4-3.28-3.92-3.92-4.57-2.08-2.08-7.43-6.48-10.39-10.95-1.76-2.64-2.74-5.28-1.14-7.34.81-1.05,2.32-1.79,3.86-2.1,1.52-.29,3.11-.17,4.2.61,1.27.91,1.69,2.29,2.13,3.71.15.47.39.95.78,1.2.02.47.41.85.88.85s.9-.39.9-.88c0-2.51-.02-5.47.57-8.16.58-2.51,1.66-4.79,3.94-6.09.9-.51,1.69-.84,2.74-.64.53.1,1.02.42,1.46.84.74.71,1.32,1.69,1.59,2.51,1.07,3.16.7,6.67-.14,10.12ZM262.17,32.58c-1.51-1.73-3.54-1.47-5.45-.16-1.45,1-2.82,2.64-3.69,4.18-.07.12-.14.26-.2.37-.12-.56-.27-1.1-.51-1.42-2.45-3.39-7.5-3.39-9.19.54-.74,1.72-.2,3.69.97,5.56,1.52,2.47,4.11,4.82,5.36,6.3,1.27,1.49,2.09,3.23,3.24,4.77.04.12.12.32.19.41.14.19.31.32.49.39.24.08.56.14.97-.14.71-.47,1.84-1.99,3.03-3.99,2.63-4.43,5.69-11.27,5.84-13.18.08-1.08-.32-2.81-1.05-3.64ZM261.44,36.06c-.14,1.54-2.33,6.46-4.5,10.47-.88,1.63-1.74,3.08-2.51,4.13-.19.27-.38.51-.53.69-1.07-1.49-1.9-3.15-3.11-4.58-1.2-1.41-3.72-3.69-5.19-6.08-.83-1.35-1.37-2.71-.85-3.94,1.12-2.62,4.51-2.47,6.13-.2.11.17.15.46.2.74.1.51.18,1.02.35,1.39.15.35.35.61.61.76v.07c0,.49.39.88.88.88s.88-.39.88-.88c0-.56.3-1.3.74-2.1.74-1.32,1.89-2.72,3.15-3.57,1.1-.74,2.27-1.11,3.11-.14.49.56.68,1.66.63,2.35ZM270.55,9.48c-.86-.92-2.39-1.29-4.18-1.12-2.15.19-4.73,1.1-6.78,2.23.44-1.42.47-3.15.34-4.5-.56-5.57-7.24-7.23-10.85-3.35-1.86,2.01-2.84,4.69-3.37,7.58-.74,4.11-.56,8.68-.9,12.23-.14,1.42-.22,2.86-.34,4.27,0,.14-.12.41-.19.69-.08.32-.14.63-.11.88.02.38.15.66.34.85s.44.3.76.3c.37,0,1-.3,1.17-.39,2.44-1.47,5.28-2.4,7.94-3.45,2.93-1.17,5.84-2.61,8.61-4.13,1.74-.96,3.42-1.98,4.92-3.29,1.8-1.55,3.21-3.33,3.48-5.8.14-1.39-.22-2.33-.84-3.01ZM269.64,12.27c-.2,1.98-1.42,3.39-2.88,4.65-1.4,1.23-2.98,2.17-4.62,3.08-2.71,1.49-5.55,2.89-8.43,4.04-2.51,1-5.16,1.9-7.51,3.2.02-.1.03-.2.05-.26.12-1.4.2-2.84.34-4.24.27-2.94.19-6.58.58-10.07.37-3.3,1.15-6.48,3.21-8.72,2.57-2.77,7.38-1.66,7.79,2.32.14,1.39.11,3.28-.58,4.53-.26.47-.81,1.02-1.18,1.58-.39.56-.63,1.13-.63,1.67,0,.31.15.58.39.73.07.05.14.1.2.14.44.22.96.03,1.19-.39.35-.69,1.27-1.44,2.44-2.13,1.89-1.14,4.43-2.08,6.51-2.27,1.15-.1,2.19-.02,2.74.58.34.34.46.86.39,1.56Z"/>
      </g>
    </g>
  </g>
</svg>