<?xml version="1.0" encoding="UTF-8"?>
<svg id="Layer_2" data-name="Layer 2" xmlns="http://www.w3.org/2000/svg" xmlns:xlink="http://www.w3.org/1999/xlink" viewBox="0 0 318.75 325.85">
  <defs>
    <style>
      .cls-1 {
        fill: #4f4c4c;
      }

      .cls-1, .cls-2, .cls-3, .cls-4, .cls-5 {
        stroke-width: 0px;
      }

      .cls-6 {
        clip-path: url(#clippath-11);
      }

      .cls-7 {
        clip-path: url(#clippath-16);
      }

      .cls-8 {
        opacity: .5;
      }

      .cls-9 {
        clip-path: url(#clippath-2);
      }

      .cls-10 {
        clip-path: url(#clippath-13);
      }

      .cls-11 {
        clip-path: url(#clippath-15);
      }

      .cls-12 {
        clip-path: url(#clippath-6);
      }

      .cls-2 {
        fill: none;
      }

      .cls-13 {
        clip-path: url(#clippath-7);
      }

      .cls-14 {
        clip-path: url(#clippath-1);
      }

      .cls-15 {
        clip-path: url(#clippath-4);
      }

      .cls-3 {
        fill: #ffce89;
      }

      .cls-16 {
        clip-path: url(#clippath-12);
      }

      .cls-4 {
        fill: #fff;
      }

      .cls-5 {
        fill: #ff936c;
      }

      .cls-17 {
        clip-path: url(#clippath-9);
      }

      .cls-18 {
        clip-path: url(#clippath);
      }

      .cls-19 {
        clip-path: url(#clippath-19);
      }

      .cls-20 {
        clip-path: url(#clippath-3);
      }

      .cls-21 {
        clip-path: url(#clippath-8);
      }

      .cls-22 {
        clip-path: url(#clippath-18);
      }

      .cls-23 {
        clip-path: url(#clippath-14);
      }

      .cls-24 {
        clip-path: url(#clippath-17);
      }

      .cls-25 {
        clip-path: url(#clippath-5);
      }

      .cls-26 {
        clip-path: url(#clippath-10);
      }
    </style>
    <clipPath id="clippath">
      <rect class="cls-2" x="265.08" y="50.51" width="37.33" height="4" transform="translate(-4.19 71.51) rotate(-14.26)"/>
    </clipPath>
    <clipPath id="clippath-1">
      <rect class="cls-2" x="231.59" y=".76" width="68" height="89" transform="translate(155.16 291) rotate(-75.47)"/>
    </clipPath>
    <clipPath id="clippath-2">
      <rect class="cls-2" x="231.59" y=".76" width="68" height="89" transform="translate(155.16 291) rotate(-75.47)"/>
    </clipPath>
    <clipPath id="clippath-3">
      <rect class="cls-2" x="224.56" y="1.09" width="13.33" height="36" transform="translate(2.42 57.54) rotate(-14.26)"/>
    </clipPath>
    <clipPath id="clippath-4">
      <rect class="cls-2" x="231.59" y=".76" width="68" height="89" transform="translate(155.16 291) rotate(-75.47)"/>
    </clipPath>
    <clipPath id="clippath-5">
      <rect class="cls-2" x="231.59" y=".76" width="68" height="89" transform="translate(155.16 291) rotate(-75.47)"/>
    </clipPath>
    <clipPath id="clippath-6">
      <rect class="cls-2" x="248.36" y="18.11" width="25.33" height="25.33" transform="translate(.46 65.24) rotate(-14.26)"/>
    </clipPath>
    <clipPath id="clippath-7">
      <rect class="cls-2" x="231.59" y=".76" width="68" height="89" transform="translate(155.16 291) rotate(-75.47)"/>
    </clipPath>
    <clipPath id="clippath-8">
      <rect class="cls-2" x="231.59" y=".76" width="68" height="89" transform="translate(155.16 291) rotate(-75.47)"/>
    </clipPath>
    <clipPath id="clippath-9">
      <rect class="cls-2" x="268.7" y="74.06" width="30.67" height="18.67" transform="translate(-11.79 72.53) rotate(-14.26)"/>
    </clipPath>
    <clipPath id="clippath-10">
      <rect class="cls-2" x="231.59" y=".76" width="68" height="89" transform="translate(155.16 291) rotate(-75.47)"/>
    </clipPath>
    <clipPath id="clippath-11">
      <rect class="cls-2" x="231.59" y=".76" width="68" height="89" transform="translate(155.16 291) rotate(-75.47)"/>
    </clipPath>
    <clipPath id="clippath-12">
      <rect class="cls-2" x="170.27" y="284.52" width="71.49" height="41.33"/>
    </clipPath>
    <clipPath id="clippath-13">
      <polygon class="cls-2" points="179.07 284.68 241.31 303.89 228.35 339.59 166.12 320.38 179.07 284.68"/>
    </clipPath>
    <clipPath id="clippath-14">
      <polygon class="cls-2" points="195.16 240.37 261.18 260.75 232.23 340.54 166.2 320.16 195.16 240.37"/>
    </clipPath>
    <clipPath id="clippath-15">
      <rect class="cls-2" y="48.92" width="66.67" height="82.67"/>
    </clipPath>
    <clipPath id="clippath-16">
      <rect class="cls-2" x="-4.99" y="62.79" width="93" height="58" transform="translate(-27.76 18.65) rotate(-19.11)"/>
    </clipPath>
    <clipPath id="clippath-17">
      <rect class="cls-2" x="-16.96" y="-8.25" width="99" height="130" transform="translate(-16.78 13.78) rotate(-19.11)"/>
    </clipPath>
    <clipPath id="clippath-18">
      <rect class="cls-2" x="176.12" y="138.35" width="142.64" height="132.51"/>
    </clipPath>
    <clipPath id="clippath-19">
      <rect class="cls-2" x="176.09" y="113.83" width="69.65" height="47.6"/>
    </clipPath>
  </defs>
  <g id="Layer_1-2" data-name="Layer 1">
    <path class="cls-3" d="M54.83,92.81c9.31-17.7,30.83-18.73,48.89-17.07,20.18,1.86,30.58-3.52,47.6-13.4,13.81-8.02,26.59-7.76,41.23-.26,17.69,9.11,14.07,25.41,28.4,35.75,13.3,9.63,33.37,5.33,47.49,14.23,14.18,8.95,18.01,24.42,17.23,40.41-1.09,21.78-12.31,42.17-8.33,64.26,3.2,17.8,21.78,36.06,12.52,54.84-17.33,35.13-71.45,5.69-99.28,10.81-30.11,5.59-75.74,38.96-104.71,9.31-12.83-13.09-5.9-33.94-6.16-49.93-.36-22.24-7.97-28.97-23.49-43.46-14.95-13.92-26.8-20.85-20.9-41.91,3.52-12.63,20.69-15.42,23.9-23.75,3.88-10.4-9.72-29.8-4.4-39.83Z"/>
    <g>
      <g class="cls-8">
        <g class="cls-18">
          <g class="cls-14">
            <g class="cls-9">
              <path class="cls-5" d="M300.78,47.03c.41.04.72.42.75.81.03.42-.08.78-.47,1.01-.33.2-.69.33-1.06.42-1.14.3-2.28.57-3.41.86-1.57.4-3.13.81-4.7,1.2-1.18.31-2.37.59-3.55.89-1.08.28-2.15.58-3.22.87-1.19.33-2.37.66-3.56.99-1.34.37-2.67.75-4,1.12-1.3.37-2.61.74-3.92,1.11-1.07.3-2.14.61-3.21.91-1,.28-2,.54-3,.79-.75.19-1.09-.28-1.23-.73-.14-.46.18-.97.7-1.17,1.96-.75,3.98-1.35,6.01-1.91,1.43-.39,2.84-.83,4.26-1.23,1.36-.38,2.73-.76,4.09-1.14,1.4-.39,2.79-.79,4.18-1.17.88-.24,1.76-.47,2.65-.7,1.64-.42,3.28-.84,4.92-1.25,1.17-.3,2.34-.58,3.51-.88,1.1-.28,2.19-.55,3.28-.82.33-.08.66-.12.98,0h0Z"/>
            </g>
          </g>
        </g>
      </g>
      <g class="cls-8">
        <g class="cls-20">
          <g class="cls-15">
            <g class="cls-25">
              <path class="cls-5" d="M230.41,37.41c-.46-.13-.76-.54-.73-1.08.04-.66.11-1.33.21-1.99.09-.6.15-1.2.21-1.81.04-.35.11-.69.17-1.03.21-1.26.35-2.53.47-3.79.12-1.28.15-2.58.22-3.86.17-3.13.17-6.26.19-9.39.02-2.83.02-5.65,0-8.48,0-.91-.01-1.82.02-2.73,0-.25.05-.49.06-.73.03-.45.54-.89.97-.89.54,0,.96.4,1.04.97.1.69.13,1.4.13,2.09,0,3.4,0,6.81-.02,10.22,0,2.02,0,4.04-.06,6.06-.05,1.96-.15,3.91-.27,5.87-.07,1.17-.17,2.33-.33,3.49-.15,1.04-.28,2.08-.48,3.1-.18.91-.39,1.81-.53,2.73-.02.12-.01.24-.02.37-.06.69-.81,1.1-1.28.88h0Z"/>
            </g>
          </g>
        </g>
      </g>
      <g class="cls-8">
        <g class="cls-12">
          <g class="cls-13">
            <g class="cls-21">
              <path class="cls-5" d="M269.16,16c.54.07.9.59.74,1.36-.09.45-.33.84-.53,1.26-.66,1.4-1.33,2.79-2,4.19-.88,1.81-1.83,3.6-2.85,5.35-1.3,2.23-2.64,4.44-4,6.65-.93,1.5-1.84,3.01-2.76,4.52-1.01,1.65-2,3.3-3.01,4.95-.14.23-.25.48-.51.62-.47.26-.82.29-1.13-.02-.42-.41-.51-.78-.28-1.28.13-.29.3-.56.45-.84,1.02-2.03,2.2-3.96,3.39-5.89,1.28-2.07,2.55-4.15,3.81-6.23,1.3-2.16,2.6-4.33,3.78-6.56.81-1.54,1.59-3.11,2.32-4.7.37-.78.72-1.57,1.09-2.35.11-.23.25-.46.42-.65.29-.33.65-.51,1.1-.35h0Z"/>
            </g>
          </g>
        </g>
      </g>
      <g class="cls-8">
        <g class="cls-17">
          <g class="cls-26">
            <g class="cls-6">
              <path class="cls-5" d="M298.36,88.45c-1.19-.48-2.48-.66-3.69-1.08-.87-.3-1.76-.52-2.64-.75-4.67-1.22-9.34-2.47-14.03-3.61-1.87-.46-3.75-.89-5.6-1.4-1.02-.28-2.06-.55-3.01-1.05-.37-.19-.72-.38-.91-.78-.18-.36-.14-.68.1-.98.23-.29.54-.48.91-.38.38.1.75.25,1.11.42.18.08.37.14.56.19,2.35.61,4.69,1.29,7.06,1.81,2.48.54,4.9,1.3,7.38,1.82,1.92.4,3.81.88,5.68,1.43,1.72.5,3.46.89,5.16,1.43.83.26,1.67.47,2.51.72.39.12.77.29,1.12.51.37.21.55.7.44,1.11-.1.41-.45.7-.89.72-.43.03-.85,0-1.27-.12h0Z"/>
            </g>
          </g>
        </g>
      </g>
    </g>
    <g class="cls-8">
      <g class="cls-16">
        <g class="cls-10">
          <g class="cls-23">
            <path class="cls-5" d="M193.88,313.57c-1,.47-2.14.76-3.22,1.13-.32.13-.67.26-1.01.35-1.16.26-1.6.93-1.8,2.02-.4,2.33-.96,4.63-1.5,6.94-.16.7-.26,1.56-1.24,1.67-1.02.12-1.45-.7-1.85-1.39-.89-1.55-1.74-3.09-2.61-4.65-.4-.74-.89-.64-1.6-.34-1.75.77-3.52,1.47-5.32,2.12-1.11.41-3.17-.09-2.36-1.66,1.59-2.38,2.15-4,3.35-5.94.72-1.18.5-1.93-.41-2.9-.86-.91-1.5-2.05-2.09-3.17-.88-1.68.18-2.99,2.23-2.7,1.39.21,2.77.5,4.12.89.74.2,1.08.03,1.48-.55,1.78-2.56,3.6-5.07,5.49-7.53.34-.45,1.21-1,1.6-.86.54.17,1.08.88,1.21,1.46.78,3.08.95,6.22.73,9.36-.05.74.18,1.06.92,1.22,1.08.22,4.27,1.2,5.35,1.62.8.35,2.34,1.54-1.45,2.91ZM181.12,316.47c.59-.23,1.26-.48,1.9-.77,1.12-.49,2.62-.73,3.23-1.55.63-.85.42-2.26.59-3.43,0-.07.05-.13.03-.18-.15-.23-.26-.58-.48-.63-1.77-.51-3.56-1.01-5.36-1.45-.33-.03-.65.1-.88.32-.67.9-1.28,1.83-1.87,2.76-.12.23-.15.49-.04.74.93,1.39,1.89,2.74,2.87,4.18ZM181.61,306.34l5.67,1.75c-.18-2.96-.33-5.67-.49-8.37l-.39-.07c-1.58,2.22-3.17,4.45-4.79,6.69ZM179.07,317.29l-2.18-3.44c-.95,1.91-1.76,3.56-2.7,5.43l4.87-1.99ZM182.25,318.1l2.55,4.16,1.21-5.73-3.76,1.56ZM176.57,310.55c.68-1.01,1.18-1.77,1.75-2.63l-3.88-.88-.17.2,2.3,3.32ZM188.52,313.45l4.54-1.51-.04-.2-4.15-1c-.11.9-.21,1.72-.35,2.7ZM251.48,267.91c1.65.51,3.2.97,4.74,1.48.66.22,1.44.58,1.23,1.3-.13.46-.76.95-1.3,1.17-1.15.48-2.38.83-3.61,1.19-.53.17-.74.4-.77.96-.08,2.11-.21,4.23-.45,6.33-.06.52-.48,1.27-.93,1.4s-1.2-.34-1.59-.72c-1.34-1.38-2.6-2.86-3.95-4.38-1.19.63-2.33,1.27-3.52,1.85-.51.26-1.05.46-1.61.59-.91.22-1.25-.07-.99-.91.39-1.22.73-2.46,1.29-3.61.73-1.53.78-2.73-.67-4-.89-.79-1.46-1.92-2.08-2.95-.76-1.29-.06-2.43,1.53-2.38,1.25.05,2.48.22,3.68.48.76.15,1.05,0,1.38-.66,1.14-2.14,2.38-4.23,3.59-6.35.16-.3.24-.66.47-.89.31-.31.73-.75,1.08-.74.36.01.87.4,1.09.74.3.48.47,1,.53,1.55.28,2.56.5,5.12.73,7.66.08.31.09.65.1.87ZM245.14,274.04c1.45-.6,2.81-1.14,4.12-1.72.23-.12.37-.3.41-.53.22-1.55-.1-1.98-1.71-2.46-1.14-.35-2.26-.7-3.6-1.11-.4,1.1-.79,2.08-1.1,3.1-.07.28,0,.57.16.8.6.7,1.24,1.37,1.73,1.92ZM249.54,267.68l-.49-7.35-.38-.03c-1.12,1.98-2.24,3.97-3.41,6.06l4.28,1.32ZM249.52,278.97c.14-1.74.26-3.21.36-4.55l-3.21,1.26,2.85,3.28ZM241.66,270.26l.93-2.57-3.13-.5,2.2,3.07ZM243.55,275.24l-1.33-1.38-.93,2.57,2.26-1.19ZM251.64,271.37l2.13-.68-.02-.2-2.21-.48.1,1.37Z"/>
          </g>
        </g>
      </g>
    </g>
    <g class="cls-8">
      <g class="cls-11">
        <g class="cls-7">
          <g class="cls-24">
            <path class="cls-5" d="M31.92,102.04c-.69,1.45-1.7,2.79-2.56,4.17-.23.44-.52.9-.81,1.31-1.07,1.33-.94,2.52-.13,4.03,1.76,3.19,3.28,6.49,4.83,9.78.48,1,1.18,2.13.18,3.12-1.04,1.03-2.29.41-3.39-.09-2.45-1.11-4.87-2.27-7.31-3.41-1.15-.56-1.6-.01-2.12.97-1.24,2.45-2.58,4.85-3.99,7.2-.86,1.46-3.66,2.64-4.23.02-.45-4.29-1.33-6.75-1.81-10.15-.3-2.07-1.26-2.8-3.2-3.19-1.83-.37-3.62-1.2-5.34-2.05-2.56-1.28-2.61-3.8-.03-5.23,1.77-.95,3.6-1.79,5.47-2.49,1.02-.41,1.24-.9,1.16-1.95-.4-4.67-.72-9.32-.91-13.96-.03-.84.43-2.27.99-2.44.76-.26,2.04.15,2.73.73,3.78,3.08,6.92,6.78,9.64,10.8.64.94,1.19,1.14,2.18.69,1.42-.67,5.95-2.24,7.56-2.67,1.22-.27,4.08-.15,1.1,4.82ZM20.28,116.65c.45-.8.97-1.68,1.43-2.59.8-1.57,2.27-3.16,2.18-4.68-.08-1.6-1.65-3.13-2.56-4.7-.05-.08-.07-.21-.13-.24-.39-.15-.84-.48-1.14-.35-2.47.91-4.97,1.85-7.4,2.88-.41.24-.64.69-.69,1.14.09,1.68.28,3.34.49,5,.08.39.3.72.66.94,2.35.89,4.7,1.7,7.16,2.61ZM11.3,103.86l8.03-2.78c-2.98-3.46-5.71-6.63-8.43-9.8l-.51.26c.3,4.08.61,8.19.91,12.32ZM18.74,119.43l-5.69-2.32c.73,3.16,1.37,5.89,2.08,8.97l3.61-6.66ZM23.09,117.66l6.79,2.88-4.03-8.04-2.76,5.17ZM9.58,113.38c-.19-1.82-.33-3.2-.51-4.74l-5.2,2.3v.39s5.71,2.06,5.71,2.06ZM25.78,106.55l3.69-5.78-.22-.2-5.61,2.38c.73,1.2,1.39,2.29,2.15,3.6ZM53.83-3.7c2.33-.81,4.52-1.59,6.72-2.31.95-.3,2.16-.54,2.61.52.29.68.04,1.82-.36,2.55-.84,1.58-1.9,3.09-2.93,4.58-.44.67-.46,1.14.04,1.84,1.9,2.65,3.74,5.35,5.45,8.12.42.68.66,1.97.28,2.52-.38.54-1.67.63-2.47.49-2.82-.52-5.62-1.23-8.57-1.92-.74,1.81-1.43,3.57-2.21,5.32-.33.76-.76,1.48-1.26,2.12-.82,1.06-1.46.99-1.97-.25-.71-1.82-1.5-3.64-1.94-5.53-.61-2.5-1.7-4.01-4.52-4.3-1.75-.2-3.45-1.08-5.12-1.79-2.07-.91-2.35-2.91-.52-4.24,1.46-1.02,2.99-1.89,4.6-2.6,1-.47,1.18-.92.94-2.01-.73-3.59-1.29-7.23-1.93-10.86-.09-.51-.35-1.02-.31-1.49.06-.64.11-1.54.53-1.84.41-.3,1.35-.26,1.92-.04.79.32,1.47.81,2.05,1.43,2.73,2.88,5.38,5.82,8.04,8.72.39.31.71.71.93.97ZM52.46,9.29c1.07-2,2.09-3.83,3.02-5.68.15-.33.13-.69-.03-.99-1.21-2.09-1.97-2.34-4.25-1.53-1.62.56-3.21,1.11-5.1,1.77.58,1.69,1.07,3.22,1.67,4.75.19.4.53.69.94.84,1.33.34,2.69.59,3.76.84ZM51.42-2.3l-7.46-8.56-.47.29c.6,3.39,1.21,6.79,1.86,10.37l6.07-2.1ZM62.02,11.51c-1.48-2.26-2.73-4.15-3.87-5.87l-2.43,4.33,6.3,1.54ZM44.98,7.69l-1.37-3.94-4,2.11,5.37,1.83ZM51.79,12.13l-2.79-.53,1.36,3.94,1.43-3.41ZM57.27.39l1.76-2.68-.21-.24-2.95,1.33,1.4,1.58Z"/>
          </g>
        </g>
      </g>
    </g>
    <g>
      <path class="cls-4" d="M259.83,255.48c2.02,1.33,3.74,4.15,7.26,4.89,3.22.68,7.87.56,10.97-.34,1-1.3,1.67-2.94,3.21-3.71-.19.95-.52,1.76-.85,2.57-.07.18-.14.36-.21.55-.03.09-.07.18-.1.28-.03.09-.07.19-.1.28-.03.1-.07.19-.1.29-.03.1-.06.19-.08.29-.03.1-.06.2-.08.3.52.97,3.3-.02,4.22.34-1.13,1.01-2.77,1.51-4.39,2.02,0,.07.01.14.02.21,0,.07.01.14.02.21.03.25.06.52.1.79.02.16.04.32.06.47.02.12.03.24.05.35.1.83.17,1.66.08,2.29-.01.05-.02.1-.03.15-.02.1-.04.19-.07.28-.01.04-.03.08-.05.12-1.5-.97-2.41-2.55-3.21-4.22-7.29.68-14.32-.29-17.89-3.88-2.04-3.65-3.86-7.5-4.05-12.99.83-.19,1.62-.41,2.36-.68.64,2.86,1.88,6.1,2.87,9.12"/>
      <path class="cls-1" d="M280.42,258.9c-.07.18-.14.36-.21.55.07-.19.14-.37.21-.55"/>
      <path class="cls-1" d="M280.21,259.44c-.03.09-.07.18-.1.28.03-.1.07-.19.1-.28"/>
      <path class="cls-1" d="M280.1,259.72c-.03.09-.07.19-.1.28.03-.1.06-.19.1-.28"/>
      <path class="cls-1" d="M279.9,267.58c-.01.05-.02.1-.03.15.01-.05.02-.1.03-.15"/>
      <path class="cls-1" d="M279.91,260.29c-.03.1-.06.19-.08.29.03-.1.06-.2.08-.29"/>
      <path class="cls-1" d="M279.87,267.73c-.02.1-.04.19-.07.28.03-.09.06-.18.07-.28"/>
      <path class="cls-1" d="M279.77,264.93c.02.12.03.24.05.35-.01-.12-.03-.24-.05-.35"/>
      <path class="cls-1" d="M279.62,263.66c.03.25.06.52.1.79-.04-.28-.07-.54-.1-.79"/>
      <path class="cls-1" d="M279.6,263.45c0,.07.02.14.02.21-.01-.07-.02-.14-.02-.21"/>
      <path class="cls-1" d="M278.06,214.64c.98-.14,1.65.35,1.18,1.18-.57-.21-1.34-.23-1.18-1.18"/>
      <path class="cls-1" d="M277.56,215.82c-.02.54-.38.74-1.01.68-.29-.51-.83-1.36-.17-1.85.67.11.34,1.23,1.18,1.18"/>
      <path class="cls-1" d="M268.1,161.48c.21-.07.38-.19.54-.34-.15.15-.33.26-.54.34"/>
      <path class="cls-4" d="M263.38,250.75c.99.61.42,1.74.85,2.87.06,0,.11,0,.17.01h.16c.7,0,1.23-.17,1.68-.41.03-.01.05-.03.07-.04.06-.03.12-.07.17-.1.03-.02.06-.04.08-.06.07-.05.14-.09.21-.14.04-.03.08-.06.12-.09.01-.01.03-.02.04-.03.04-.03.08-.06.12-.09.02-.01.04-.03.06-.05.04-.03.07-.06.11-.08.02-.01.03-.02.05-.03.06-.05.11-.08.17-.13.03-.02.05-.04.08-.06.03-.02.06-.04.08-.06.1,1.17-1.22,2.38-1.68,3.54.43,1.04,2.18.74,3.37,1.01-.9.79-2.16,1.21-2.87,2.2-2.54-.45-3.65-2.32-5.07-3.88.42-1.72,1.45-2.82,2.02-4.39"/>
      <path class="cls-1" d="M267.52,252.33s-.06.04-.08.06c.02-.02.05-.04.08-.06"/>
      <path class="cls-1" d="M267.22,252.55s.03-.02.05-.03c-.02.01-.03.02-.05.03"/>
      <path class="cls-1" d="M267.04,252.68s.04-.03.06-.05c-.02.02-.04.03-.06.05"/>
      <path class="cls-1" d="M266.93,252.77s.08-.06.12-.09c-.04.03-.08.06-.12.09"/>
      <path class="cls-1" d="M266.77,252.89s.08-.06.12-.09c-.04.03-.08.06-.12.09"/>
      <path class="cls-1" d="M266.47,253.08s.06-.04.08-.06c-.03.02-.06.04-.08.06"/>
      <path class="cls-1" d="M266.23,253.22s.05-.03.07-.04c-.02.01-.05.03-.07.04"/>
      <path class="cls-1" d="M265.07,224.76c.05.29.03.51-.03.69,0,.01-.01.03-.02.04-.01.03-.02.06-.04.08-.18.31-.57.41-1.1.38,0-.25.05-.45.13-.61.02-.03.03-.06.06-.1.02-.03.04-.06.06-.08.2-.24.52-.36.94-.39"/>
      <path class="cls-1" d="M264.9,181.56c-.54-.02-.74-.38-.68-1.01.41-.07.69-.02.85.15.01.01.03.03.04.05l.03.05s.02.04.03.06c.01.02.02.04.03.06.04.13.05.29.03.47-.2-.03-.3.03-.34.17"/>
      <path class="cls-1" d="M264.22,253.62c.06,0,.11,0,.17.01-.06,0-.11,0-.17-.01"/>
      <path class="cls-1" d="M264.13,225.16s-.05.05-.06.08c.02-.03.04-.06.06-.08"/>
      <path class="cls-1" d="M264.07,225.24s-.04.06-.06.1c.02-.03.03-.06.06-.1"/>
      <path class="cls-1" d="M262.37,180.38c.19.55.16,2.14-.85,2.02-.5-.7.33-1.29.34-2.02h.51"/>
      <path class="cls-1" d="M262.03,222.57c.27-.05.29.16.51.16-.41.78-.17,2.19-1.35,2.2-.45-.9.53-1.67.85-2.36"/>
      <path class="cls-4" d="M231.65,249.4c.6-.14,1.81.09,2.87,0-2.44,7.96.07,14.63,8.44,13.84,5.02-.47,9.44-3.37,12.99-5.4.77.36.81,1.45,1.35,2.02-6.31,1.75-13,6.68-21.09,6.59-7.9-.1-8-11.21-4.56-17.05"/>
      <path class="cls-1" d="M252.58,170.58c.15.57.12,1.09-.24,1.45-.14.14-.3.23-.49.26.24-.56.47-1.14.73-1.71"/>
      <path class="cls-4" d="M245.32,154.56c1.54-1.36,1.18-4.92,3.88-4.73,3.99.29,2.57,9.57,2.7,13,1.15.38,1.18-1.56,2.54-1.52,1.06,2.7-1.03,5.54-2.2,7.76-.05.11-.11.21-.17.32-.5-.92-1.22-1.83-1.63-2.39-1.35-1.83-2.72-3.22-3.28-4.54,2.93-2.12,1.44-7.02-1.85-7.87v-.04"/>
      <path class="cls-1" d="M252.07,169.39c.23.4.41.81.51,1.19-.26.57-.5,1.15-.73,1.71-.37.07-.8-.05-1.25-.28.51-.87,1-1.74,1.47-2.63"/>
      <path class="cls-4" d="M248.36,232.53c1.91,4.25,3.99,9.07,3.71,14.01-6.94,1.67-14.56,2.1-21.43,1.52-10.6-.9-20.22-5.37-26.66-10.97-6.7-5.82-10.81-14.44-14.34-24.31-.5-1.39-1.31-3.34-1.18-4.22.08-.61,1.54-2.19,2.53-2.87,5.1-3.5,14.64-4.96,22.78-2.87,7.04,1.81,12.63,5.25,18.4,8.94,7.85,5.04,12.18,11.79,16.2,20.76"/>
      <path class="cls-1" d="M250.72,203.5c.86.03,1.31.48,1.35,1.35-.95.06-1.26-.53-1.35-1.35"/>
      <path class="cls-1" d="M250.6,172.02c.45.23.88.35,1.25.28-.29.71-.59,1.4-.96,2.01-1.09,1.83-3.06,3.58-4.73,5.57-1.65,1.98-3.43,4-5.06,5.23-1.56,1.17-3.05,1.57-4.73,2.53-.64.37-1.64,1.65-2.54.68,0-.07.02-.15.03-.21,0-.03.02-.07.02-.1.02-.05.03-.1.05-.15.02-.05.03-.1.06-.15.03-.07.07-.15.12-.22.1-.16.21-.32.33-.46.02-.03.05-.06.07-.08.38-.45.82-.85,1.01-1.34.53-1.38.7-3.56.85-5.4.39-5.17-.23-10-.97-14.32.29.21.63.35,1.01.45.5,2.07,1.16,4.2,1.31,6.28.35,4.86-.45,9.71-1.01,13.5,4.76-2.36,8.54-6.19,11.61-10.56.21.1.42.14.64.09.93-.2.93-.99.61-1.95.35-.55.69-1.11,1.03-1.67"/>
      <path class="cls-4" d="M250.6,172.02c-.33.56-.68,1.12-1.03,1.67-.43-1.29-1.45-2.9-1.65-3.82.54.55,1.64,1.63,2.67,2.15"/>
      <path class="cls-1" d="M249.57,173.69c.32.96.32,1.75-.61,1.95-.21.05-.43,0-.64-.09.43-.61.85-1.23,1.25-1.86"/>
      <path class="cls-1" d="M250.05,205.36c-1.51.19-1.88-1.58-1.69-2.53.97.43,1.17,1.65,1.69,2.53"/>
      <path class="cls-4" d="M238.37,159.74c-.65-3.53-1.91-6.52-2.78-9.53-.28-.97-.48-2.05-.68-3.15.49-1.71,1.21-3.41,2.13-4.68.16.61.33,1.23.51,1.84.73,2.51,1.25,5.23,2.22,7.53.5,1.19,1.26,2.91,1.23,4.79,1.32.16,2.1-.65,3.43-.59,3.4.17,3.97,5.19.73,5.81,1.47,3.45,4.13,5.38,5.71,8.69-2.32-.85-2.85-3.98-5.35-4.59-.08.41-.08.81-.03,1.21-.25-.37-.66-.7-1.01-.87-.38.34-.33.78-.06,1.12l-.04.03c-.33-.44-.72-.8-1.2-1.04-.25.62-.25,1.32-.14,2.05-.19-.11-.41-.2-.64-.27-.25-.63-.59-1.18-1.1-1.54-.7,1.14-.57,3.86-.43,5.48.08.9.51,1.68.47,2.49-1.39-2.23-1.48-6.12-2.12-9.3-.9-.47-2.01.07-2.75-.29-.61-2.16-.05-4.55,1.9-5.18"/>
      <path class="cls-4" d="M248.33,175.55c-3.08,4.38-6.85,8.21-11.61,10.56.56-3.79,1.36-8.64,1.01-13.5-.15-2.09-.81-4.21-1.31-6.28.46.12.97.16,1.52.16.51,3.06,1.71,11,3.63,11.19,2.36.23.9-3.86,1-4.75.86,1.21,1.09,3.61,2.36,3.53,1.77-.11.7-2.25.57-4.38.71.81,1.74,2.95,2.83,3.46"/>
      <path class="cls-1" d="M245.49,167.07c.18.27.27.56.17.81-.08-.27-.14-.54-.17-.81"/>
      <path class="cls-4" d="M244.42,167.33c.26.34.74.59,1.24.56h0c.46,1.55,1.52,3.12,1.81,4.75-1.5-1.16-1.92-3.71-3.1-5.28l.04-.03"/>
      <g class="cls-22">
        <path class="cls-1" d="M261.35,255.14c1.41,1.57,2.52,3.44,5.06,3.88.71-.98,1.98-1.4,2.87-2.2-1.19-.27-2.95.02-3.37-1.01.47-1.16,1.78-2.38,1.68-3.54-.03.02-.05.04-.08.06-.03.02-.06.04-.08.06-.06.05-.12.08-.17.13-.02.01-.03.02-.05.03-.04.03-.07.06-.11.08-.02.02-.04.03-.06.05-.04.03-.08.06-.12.09-.01.01-.03.02-.04.03-.04.03-.08.06-.12.09-.06.05-.14.09-.2.14-.03.02-.06.04-.08.06-.06.03-.11.07-.17.1-.02.01-.05.03-.07.04-.45.24-.98.41-1.68.41h-.16c-.06,0-.11,0-.17-.01-.43-1.13.14-2.25-.85-2.87-.57,1.57-1.6,2.67-2.02,4.39ZM231.65,249.4c-3.44,5.84-3.34,16.95,4.56,17.05,8.1.1,14.78-4.83,21.09-6.59-.55-.57-.59-1.66-1.35-2.02-3.55,2.03-7.97,4.92-12.99,5.4-8.37.79-10.88-5.88-8.44-13.84-1.06.09-2.26-.14-2.87,0ZM200.77,175.32c.34.05.45.33.67.5-.12-.5-.05-1.19-.51-1.35.14.47-.24.43-.16.85ZM191.65,189.16c2.55,1.29,4.5,2.8,6.39.91.12-.12.24-.25.35-.4.07-.09.14-.18.21-.28.16-.22.32-.46.48-.72.05-.07.08-.15.13-.23.14-.23.26-.47.39-.73.02-.04.04-.08.06-.13.04-.08.08-.17.12-.26.08-.18.16-.36.24-.55.1-.23.19-.47.27-.71.02-.05.04-.1.06-.15.03-.1.07-.2.1-.3.02-.05.03-.1.05-.15.03-.1.07-.2.1-.3.02-.05.03-.1.05-.15l.08-.3c.02-.05.03-.11.05-.16.46-1.75.66-3.62.41-5.24,0-.05-.01-.1-.02-.15-.02-.09-.03-.17-.05-.26s-.04-.17-.06-.25c-.02-.08-.05-.17-.07-.25-.05-.16-.1-.33-.16-.48-.15-.39-.34-.75-.56-1.08h-.34c-5.81,2.05-15.04,3.05-21.43,5.91,4.24,1.51,8.97,4.28,13.16,6.41ZM189.63,212.78c3.53,9.87,7.65,18.49,14.34,24.31,6.44,5.59,16.06,10.07,26.66,10.97,6.87.57,14.5.15,21.43-1.52.28-4.94-1.8-9.75-3.71-14.01-4.02-8.97-8.35-15.72-16.2-20.76-5.76-3.7-11.36-7.13-18.4-8.94-8.15-2.09-17.69-.64-22.78,2.87-.99.68-2.45,2.25-2.53,2.87-.12.88.68,2.83,1.18,4.22ZM213.93,201.47c1.15.28,2.26,1.1,3.54,1.52,2.86.94,5.37,1.81,7.93,3.21,8.68,4.73,16.58,10.73,20.92,19.58,1.34,2.72,2.91,5.72,3.88,8.43.17.48,0,1.03.17,1.52.23.68.88,1.33,1.18,2.02,1.04,2.43,1.63,5.28,2.02,8.27,12.23-2.85,20.84-11.22,28.52-18.9,3.14-3.14,5.6-6.64,7.59-10.46,5.25-.3,10.29-1.68,15.7-3.88,4.39-1.79,9.4-4.61,10.97-7.59,2.24-4.26.87-8.21-4.22-7.59-5.13.63-9.52,3.43-12.99,5.4-1.26.72-2.59,1.94-3.88,1.52.14-1.33,1.83-1.86,3.04-2.7.08-.06.16-.11.24-.16.12-.08.23-.17.34-.25.04-.03.08-.05.11-.08.19-.14.36-.26.54-.39.1-.08.2-.15.3-.23.2-.15.39-.3.57-.45.1-.08.18-.15.27-.23.12-.1.24-.2.35-.3.03-.02.06-.05.08-.07l.17-.15c.94-.86,1.77-1.79,2.77-3.09,1.7-2.21,3.97-6.02,3.54-9.62-.33-2.87-3.35-5.18-6.41-3.54-4.71,2.52-7.35,7.58-9.79,12.15-.46.85-.85,2.56-2.2,2.36-.2-2.35,2.15-4.12,3.21-6.58,1.45-3.38,2.05-9.72.17-12.65-1.25-.65-3.62-.72-4.89-.17-6.05,2.6-11.32,13.94-11.98,22.61-.26,3.44-.5,5-1.69,7.09-4.58,5.43-11.03,9-20.25,9.79.57,2.63-1.88,4.74-3.54,3.04,1.03-.29,2.95-.29,2.53-2.02-.28-1.17-1.53-.34-1.85-1.69,1.15-1.3,2.6-.35,4.72-.51,5.44-.39,13.19-4.08,16.2-7.59,2.16-2.51,3.68-6.55,1.35-8.94-1-1.02-2.79-1.21-3.88-2.2,3.35-3.94,8.06-7.28,8.27-13.84-.6-.56-1.72.37-2.02-.34,1.92-3.1,5.19-7.91,5.57-13.16.12-1.67.17-4.55-1.18-4.9-2.53-.64-4.62,4.27-5.91,4.39-.76-1.05.42-1.77.85-2.7,1.83-3.98,3.7-10.92,1.86-14.85-3.41-.32-5.63,2.64-6.75,5.4-.43,1.05-.59,2.5-1.32,3.21-.15.15-.33.26-.54.34-.64-1.85.88-4.08,1.69-6.41,1.46-4.21,2.95-11.1-.34-14.18-1.79-1.66-4.82.54-5.74,2.36-1.85,3.68-2.3,8.02-4.05,12.32-.59,1.46-1.48,3-2.19,4.56-1.54,3.32-2.73,6.48-4.39,9.45-.18.33-.35.66-.5,1-.11-.38-.29-.78-.51-1.19l.17-.32c1.17-2.23,3.26-5.07,2.2-7.76-1.35-.04-1.38,1.9-2.54,1.52-.12-3.43,1.3-12.7-2.7-13-2.71-.19-2.34,3.37-3.88,4.73-.97-1.18-.04-2.72,0-4.22.04-1.18-.03-2.76-.34-4.05-.53-2.28-2.41-5.26-3.71-5.74-1.16-.42-2.2-.12-3.12.63l-.46-1.47c1.08-.64,2.37-.97,3.91-.85,2.89,2.06,4.94,4.97,5.07,9.79,1.1.14,1.77-.7,3.04-.51,3.54.56,4.22,6.97,3.71,11.31.51-.05,1.78.12,2.19.68,1.72-3.31,3.65-8.47,5.07-12.83.51-1.58.75-3.36,1.35-4.56,1.03-2.03,3.76-4.48,6.75-4.38,4.26,1.95,4.84,8.33,3.37,13.84,1.15-.39,2.63-2.05,4.73-1.52,4.15,1.04,1.34,11.52.34,14.18.58-.15,1.93-.98,3.54-.67,4.21,4.33.11,14.51-2.87,18.06.59.73,1.89,1.56,1.18,3.04,2.63-2.64,6.42-10.98,13.16-8.61,3.2,1.12,3.14,6.01,2.54,10.29,2.78-1.52,4.74-6.69,9.96-5.74,1.26.23,2.67,1.4,3.21,2.19,3.06,4.52-.74,11.96-3.54,14.85,3.16-1.26,13.48-5,14.34,1.35.42,3.03-1.11,6.77-2.7,8.44-2.15,2.25-5.9,4.56-9.96,6.24-5.31,2.21-9.63,3.62-15.36,4.05-3.72,6.11-9.26,12.14-14.51,17.04-4.87,4.55-10.85,8.36-17.22,10.8-.08,2.73.85,4.45,1.52,6.41,1.31-.7,1.48-4.25,3.04-4.38,1.18-.1,1.79,1.62,1.86,3.37,1.5-.25,2.08-1.4,3.88-1.35,1.28,1.64-.39,3.3-1.01,4.56,1.01.89,2.96.13,3.37,1.35.52,1.52-1.48,2.05-2.36,3.04,3.09-.21,5.47.38,7.43-.51,1.1-.51,2.03-2.05,2.87-3.04.82-.97,1.59-2.83,3.37-1.86.4,1.99-.87,3.73-1.01,5.74,1.35.48,3.59-.44,5.07.16,2.06,2.65-4.54,3.72-5.74,4.9.05,1.94.85,5.83-.67,6.24-1.36.37-4.27-3.71-4.9-5.06-7.45.19-14.03-.48-17.72-4.05-6.73,1.42-13.21,6.45-21.6,6.41-5.28-.03-8.04-3.59-8.44-9.45-.24-3.59.68-6.57,1.85-9.12-6.93-.72-13.39-2.42-18.73-5.74-4.95-3.08-9.75-6.29-13.34-10.97-3.52-4.6-5.92-10.03-8.27-16.03-2.42-6.16-4.25-12.89-4.56-19.75-.07-1.46-.15-3.63,0-5.06.11-1.07,1.23-2.41.85-3.71-.64-2.12-10-3.07-9.62-5.9.12-.94,2.64-1.63,3.88-2.03,2.96-.95,6.39-1.39,9.28-2.19-.33-.96-1.62-1.72-2.2-2.7-2.79-4.77-1.16-12.02,3.68-14.12.05.11.11.21.16.32.21.36.57.73,1.03,1.1-6.13,1.92-6.1,12.73-.15,14.39,1.59.45,5.39-.11,7.09-1.35,2-1.45,2.28-6.19,1.4-9.21.4.11.81.21,1.23.3.09.26.16.53.24.81.07-.25.14-.48.2-.72.3.07.6.12.91.19-.98,3.3-1.27,7.23.24,9.98,1.61,2.92,5.98,4.97,10.29,4.56,2.6-.25,6.61-2.18,8.1-4.73,2.02-3.47,2.29-8.36.91-12.01.33-.11.66-.23.99-.34.91,2.5,1.15,5.49.64,8.14-1.16,6.01-6.34,10.65-12.65,10.12-4.38-.36-7.7-2.43-9.45-5.74,1.17,7.12-1.16,13.09-5.74,15.53-3.12-1.32-5.92-2.97-8.95-4.39-1.56,5.78-.82,12.81.68,18.4,5.64-5.31,16.4-7.49,25.99-5.23ZM279.58,263.24c1.62-.51,3.26-1.01,4.39-2.02-.92-.35-3.7.63-4.22-.34.02-.1.05-.2.08-.3.03-.1.06-.2.08-.29.03-.1.06-.19.1-.29.03-.1.06-.19.1-.28.03-.1.07-.19.1-.28.07-.19.14-.37.21-.55.33-.82.66-1.62.85-2.57-1.53.78-2.2,2.41-3.21,3.71-3.1.9-7.75,1.01-10.97.34-3.52-.74-5.24-3.56-7.26-4.89-.99-3.02-2.23-6.25-2.87-9.12-.74.27-1.53.49-2.36.68.19,5.49,2.01,9.35,4.05,12.99,3.57,3.59,10.6,4.56,17.89,3.88.8,1.67,1.7,3.25,3.21,4.22.02-.04.03-.08.05-.12.03-.09.06-.18.07-.28.01-.05.02-.1.03-.15.09-.64.02-1.46-.08-2.29-.01-.12-.03-.24-.05-.35-.02-.16-.04-.32-.06-.47-.04-.28-.07-.54-.1-.79-.01-.07-.02-.14-.02-.21,0-.07-.01-.14-.02-.21ZM274.51,199.45c.11-2.09.97-4.57,1.01-6.58-1.09,1.55-2.36,2.93-3.37,4.55,1.13.33,1.28,1.65,2.36,2.03ZM254.1,255.65c.08-.61-.47-1.5-.68-2.37-.45-1.85-.69-4.48-1.35-5.23-4.15,1.06-9.85,1.82-15.35,1.68-2.1,4.66-1.06,9.98,2.7,11.14,2.87.89,5.92-.11,9.28-1.52,1.98-.83,5.17-1.97,5.4-3.71"/>
      </g>
      <path class="cls-4" d="M238.15,141.18c.91-.74,1.96-1.04,3.12-.63,1.31.47,3.18,3.45,3.71,5.74.3,1.29.38,2.87.34,4.05-.04,1.5-.97,3.04,0,4.22v.04c-.91-.24-1.96-.16-3.08.36-1.34-4.62-2.68-9.25-4.08-13.78"/>
      <path class="cls-4" d="M244.48,166.2c.34.16.76.5,1.01.87.03.27.1.54.17.81h0c-.5.03-.98-.21-1.24-.56-.27-.34-.32-.78.06-1.12"/>
      <path class="cls-4" d="M243.92,172.28c-.57-.7-.81-1.77-1.09-2.83.17.15.36.28.52.39.21.82.46,1.65.57,2.44"/>
      <path class="cls-1" d="M236.47,164.93c.74.37,1.85-.17,2.75.29.64,3.18.73,7.08,2.12,9.3.03-.82-.39-1.59-.47-2.49-.14-1.61-.27-4.34.43-5.48.52.37.86.92,1.1,1.54-.04-.01-.08-.03-.12-.04-.28.55.1,1.03.55,1.4.28,1.05.52,2.12,1.09,2.83-.11-.79-.35-1.62-.57-2.45.04.03.08.06.11.08.21-.01.23-.22.51-.17-.11-.67-.45-1.09-.94-1.38-.11-.73-.11-1.43.14-2.05.48.24.87.6,1.2,1.04,1.18,1.58,1.6,4.12,3.1,5.28-.3-1.63-1.36-3.19-1.81-4.76.1-.25,0-.54-.17-.81-.06-.4-.06-.8.03-1.21,2.5.61,3.04,3.74,5.35,4.59-1.58-3.31-4.24-5.24-5.71-8.69,3.24-.62,2.67-5.64-.73-5.81-1.33-.06-2.11.75-3.43.59.03-1.88-.74-3.6-1.23-4.79-.97-2.3-1.49-5.03-2.22-7.54-.18-.61-.34-1.22-.51-1.84.34-.47.72-.88,1.11-1.21,1.41,4.54,2.75,9.16,4.08,13.78,1.13-.52,2.17-.6,3.08-.36,3.28.85,4.78,5.75,1.85,7.88.56,1.31,1.93,2.7,3.28,4.53.41.56,1.13,1.46,1.63,2.39-.47.88-.96,1.76-1.47,2.63-1.03-.52-2.14-1.6-2.67-2.15.19.93,1.21,2.53,1.65,3.82-.41.63-.82,1.25-1.25,1.86-1.09-.51-2.12-2.65-2.83-3.46.13,2.13,1.2,4.27-.57,4.38-1.27.07-1.49-2.32-2.36-3.53-.1.88,1.36,4.98-1,4.75-1.92-.19-3.12-8.12-3.63-11.19-.55,0-1.06-.04-1.52-.15-.26-1.08-.47-2.14-.55-3.17-.08-1.16,0-2.16-.29-2.99.3-.5.66-.94,1.09-1.34-.75-2.94-1.59-5.76-2.39-8.63.12-.97.33-2.06.65-3.15.19,1.1.39,2.18.67,3.15.87,3.01,2.14,6,2.78,9.53-1.95.63-2.52,3.03-1.9,5.18"/>
      <path class="cls-1" d="M243.97,169.75c-.28-.05-.29.16-.51.17-.03-.02-.07-.05-.11-.08-.13-.5-.25-.99-.32-1.47.48.29.83.72.94,1.38"/>
      <path class="cls-4" d="M243.04,168.37c.07.48.19.97.32,1.47-.16-.11-.35-.24-.52-.38-.12-.47-.25-.93-.43-1.36.23.07.45.16.64.27"/>
      <path class="cls-1" d="M242.4,168.1c.17.43.3.89.43,1.36-.45-.37-.82-.85-.55-1.4.04.01.08.03.12.04"/>
      <path class="cls-1" d="M237.7,139.71c.15.48.3.98.46,1.47-.39.33-.77.73-1.11,1.21-.16-.61-.32-1.22-.49-1.82.35-.33.73-.61,1.14-.86"/>
      <path class="cls-4" d="M236.55,140.56c.17.6.33,1.21.49,1.82-.92,1.26-1.64,2.97-2.13,4.68-.19-1.08-.35-2.19-.58-3.23.56-1.26,1.28-2.39,2.22-3.26"/>
      <path class="cls-1" d="M235.87,163.17c.07,1.03.29,2.09.55,3.17-.38-.1-.72-.24-1.01-.45-.2-1.18-.42-2.33-.62-3.44.12-.87.39-1.62.79-2.27.29.82.21,1.83.29,2.99"/>
      <path class="cls-4" d="M236.67,158.84c-.42.4-.79.85-1.09,1.34-.12-.33-.29-.63-.55-.9-.83-.05-1.01.57-1.68.67,1.15-2.73.73-5.45.84-8.6.02-.35.05-.74.09-1.14.81,2.87,1.65,5.69,2.39,8.63"/>
      <path class="cls-1" d="M231.99,162.15c-.43-.64-.79-1.35-1.1-2.11,1.99-2.19,3.68-5.37,1.91-8.15,0-.47,0-.93.03-1.39.06-1.15.23-2.42.52-3.68.3,1.14.61,2.27.92,3.39-.05.4-.08.78-.09,1.14-.11,3.16.32,5.88-.84,8.61.68-.11.85-.73,1.68-.68.26.27.43.57.55.9-.4.65-.67,1.4-.79,2.27-.09-.5-.18-1-.27-1.48-.64-.07-1.37,1.21-2.53,1.18"/>
      <path class="cls-1" d="M235.41,165.89c-.18-.13-.33-.28-.47-.46-.23-1.13-.26-2.11-.15-2.98.2,1.1.42,2.25.62,3.44"/>
      <path class="cls-4" d="M279.24,215.82c.47-.82-.2-1.32-1.18-1.18-.16.95.61.97,1.18,1.18ZM276.54,216.49c.63.07.99-.14,1.01-.68-.84.06-.51-1.06-1.18-1.18-.66.49-.12,1.35.17,1.85ZM263.88,225.95c.52.03.92-.07,1.1-.38.02-.02.03-.05.04-.08.01-.01.01-.03.02-.04.07-.17.08-.4.03-.69-.41.03-.73.15-.94.39-.02.02-.05.05-.06.08-.02.03-.04.06-.06.1-.08.16-.13.37-.13.61ZM261.52,182.4c1,.11,1.04-1.48.85-2.02h-.51c-.01.73-.84,1.32-.34,2.02ZM250.72,203.5c.08.81.39,1.4,1.35,1.35-.04-.86-.49-1.31-1.35-1.35ZM248.36,202.83c-.19.95.18,2.72,1.69,2.53-.52-.88-.72-2.1-1.69-2.53ZM211.4,182.91c6.31.52,11.49-4.11,12.65-10.12.51-2.65.27-5.64-.64-8.14,2.54-.93,4.77-2.11,6.36-3.52.37-.32.74-.69,1.11-1.09.31.76.67,1.47,1.1,2.11,1.16.03,1.89-1.26,2.53-1.18.09.48.18.98.27,1.48-.12.87-.08,1.85.15,2.98.14.18.29.33.47.46.74,4.32,1.36,9.16.97,14.32-.14,1.84-.32,4.02-.85,5.4-.19.49-.63.89-1.01,1.34-.02.02-.05.05-.07.08-.12.14-.24.29-.33.46-.05.07-.08.15-.12.22-.02.05-.04.1-.06.15-.02.05-.03.1-.05.15,0,.03-.02.07-.02.1-.02.07-.03.14-.03.21.9.97,1.89-.3,2.54-.68,1.67-.96,3.17-1.36,4.73-2.53,1.63-1.23,3.41-3.26,5.06-5.23,1.67-1.99,3.63-3.74,4.73-5.57.37-.61.66-1.3.96-2.01.19-.04.35-.12.5-.26.35-.36.39-.87.24-1.45.15-.34.32-.68.5-1,1.66-2.97,2.85-6.13,4.39-9.45.72-1.55,1.6-3.1,2.19-4.56,1.75-4.3,2.2-8.64,4.05-12.32.92-1.83,3.96-4.02,5.74-2.36,3.28,3.07,1.8,9.97.34,14.18-.81,2.33-2.33,4.56-1.69,6.41.21-.07.38-.19.54-.34.73-.71.9-2.15,1.32-3.21,1.12-2.76,3.34-5.71,6.75-5.4,1.84,3.93-.03,10.87-1.86,14.85-.43.93-1.61,1.65-.85,2.7,1.29-.12,3.38-5.03,5.91-4.39,1.35.34,1.3,3.22,1.18,4.9-.38,5.25-3.65,10.06-5.57,13.16.3.7,1.43-.22,2.03.34-.21,6.55-4.91,9.89-8.27,13.84,1.09.99,2.88,1.18,3.88,2.2,2.33,2.39.81,6.43-1.35,8.94-3.01,3.51-10.77,7.2-16.2,7.59-2.13.16-3.57-.79-4.73.51.33,1.35,1.58.52,1.85,1.69.42,1.73-1.5,1.72-2.53,2.02,1.66,1.7,4.11-.41,3.54-3.04,9.22-.79,15.67-4.36,20.25-9.79,1.19-2.09,1.43-3.65,1.69-7.09.66-8.67,5.94-20.01,11.98-22.61,1.28-.55,3.65-.48,4.89.16,1.88,2.94,1.29,9.28-.17,12.66-1.05,2.46-3.4,4.23-3.21,6.58,1.35.2,1.75-1.52,2.2-2.36,2.44-4.57,5.08-9.63,9.79-12.15,3.06-1.64,6.08.67,6.41,3.54.42,3.6-1.85,7.41-3.54,9.62-1,1.3-1.83,2.23-2.77,3.09l-.17.15s-.06.05-.08.07c-.11.1-.23.2-.35.3-.08.07-.17.15-.27.23-.18.15-.37.29-.57.45-.1.08-.2.15-.3.23-.17.12-.35.25-.54.39-.03.03-.07.05-.11.08-.11.08-.23.16-.34.24l-.24.17c-1.21.85-2.9,1.37-3.04,2.7,1.3.43,2.62-.81,3.88-1.52,3.48-1.97,7.87-4.78,12.99-5.4,5.09-.61,6.46,3.34,4.22,7.59-1.57,2.99-6.58,5.81-10.97,7.59-5.41,2.2-10.45,3.58-15.7,3.88-1.99,3.82-4.45,7.32-7.59,10.46-7.68,7.68-16.29,16.06-28.52,18.9-.39-2.99-.99-5.84-2.02-8.27-.3-.69-.96-1.35-1.18-2.02-.16-.49,0-1.04-.17-1.52-.97-2.71-2.55-5.72-3.88-8.43-4.34-8.85-12.25-14.85-20.92-19.58-2.56-1.4-5.08-2.26-7.93-3.21-1.28-.42-2.39-1.25-3.54-1.52-9.59-2.26-20.35-.08-25.99,5.23-1.5-5.59-2.24-12.61-.68-18.4,3.03,1.41,5.83,3.06,8.95,4.39,4.57-2.44,6.91-8.41,5.74-15.53,1.75,3.3,5.08,5.37,9.45,5.74ZM265.24,181.39c.02-.19,0-.34-.03-.47-.01-.02-.02-.05-.03-.07,0-.02-.02-.04-.03-.06l-.03-.05s-.03-.03-.04-.05c-.16-.16-.45-.22-.85-.15-.07.63.14.99.68,1.01.04-.14.14-.2.34-.17ZM261.18,224.93c1.18,0,.94-1.42,1.35-2.2-.22,0-.24-.21-.51-.16-.31.69-1.28,1.46-.85,2.36"/>
      <path class="cls-1" d="M234.52,186.95s-.05.05-.07.08c.02-.03.05-.06.07-.08"/>
      <path class="cls-1" d="M234.33,143.83c.23,1.04.39,2.15.58,3.23-.31,1.09-.52,2.17-.64,3.15-.31-1.12-.62-2.24-.92-3.39.24-1.03.56-2.05.98-3"/>
      <path class="cls-1" d="M234.12,187.48c-.05.07-.08.15-.12.22.03-.07.07-.15.12-.22"/>
      <path class="cls-1" d="M234.01,187.7c-.02.05-.04.1-.06.15.02-.05.03-.1.06-.15"/>
      <path class="cls-1" d="M233.9,188s-.02.07-.02.1c0-.03.02-.07.02-.1"/>
      <path class="cls-1" d="M232.8,151.89c1.77,2.78.08,5.97-1.91,8.15-.23-.54-.42-1.1-.61-1.67.44-.49.81-.98,1.1-1.45.17.55.37,1.03.61,1.35.97-1.61.8-4.01.81-6.38"/>
      <path class="cls-4" d="M230.2,152.43c.4.08,1.09-.21,1.23.2.55.91.78,2.18.41,3.3-.1.32-.26.65-.46.99-.42-1.37-.67-3.23-1.18-4.49"/>
      <path class="cls-1" d="M230.28,158.38c.19.57.39,1.13.61,1.67-.37.4-.74.77-1.11,1.09-1.59,1.4-3.83,2.59-6.36,3.52-.17-.48-.37-.94-.59-1.37.54-.21,1.05-.43,1.55-.67,2.28-1.08,4.45-2.65,5.89-4.23"/>
      <path class="cls-1" d="M230.2,152.43c-.12-.03-.23-.1-.26-.25-.01-.12-.02-.23-.03-.35.11.17.2.38.29.6"/>
      <path class="cls-4" d="M229.94,152.19c.03.15.14.22.26.25.51,1.26.76,3.12,1.18,4.49-.29.47-.66.96-1.1,1.45-.59-1.75-1.09-3.58-1.83-5.17-.51,1.01-.61,2.42-1.69,2.87-2.2-1.51-4.96-2.42-7.91-2.8.62-.51,1.24-1.01,1.85-1.52,1.94.39,3.82,1.03,5.56,1.95,1.06-.73,1.05-2.77,2.53-2.7.48.02.84.33,1.13.82.01.12.02.24.03.35"/>
      <path class="cls-4" d="M228.35,145.85c.91,1.57,1.4,3.86,1.56,5.99-.29-.49-.65-.8-1.13-.82-1.48-.07-1.46,1.97-2.53,2.7-1.74-.92-3.61-1.56-5.56-1.95,2.52-2.05,5.03-4.07,7.65-5.92"/>
      <path class="cls-4" d="M228.45,153.21c.74,1.58,1.24,3.42,1.83,5.17-1.44,1.58-3.62,3.15-5.89,4.23-.5.24-1.02.46-1.55.67-.37-.73-.81-1.39-1.3-1.97-1.15-1.32-4.54-3.98-6.92-4.22-.12-.01-.23-.02-.35-.02,1.01-.72,2.25-1.89,2.77-2.31.61-.49,1.22-.99,1.82-1.48,2.95.38,5.71,1.29,7.91,2.8,1.08-.45,1.18-1.86,1.69-2.87"/>
      <path class="cls-1" d="M226.97,129.76c-.45-.19-.85-.45-.61-1.04.63-.04.75.56.61,1.04"/>
      <path class="cls-1" d="M225.17,129.35c.79.26.16,1.69-.06,2.08-.14-.07-.27-.14-.49-.1-.31-.63.23-1.41.55-1.98"/>
      <path class="cls-4" d="M198.21,136.86c.46.25,1.61.1,1.18-.79-.45.08-1.04.05-1.24.32.02.16.04.32.06.47ZM196.4,135.17c.46.07.38-.27.77-.25.03-.52-.2-.72-.29-1.08-.21.03-.42.06-.63.08-.05.37-.19.99.16,1.26ZM226.97,129.76c.15-.48.02-1.08-.61-1.04-.24.6.16.86.61,1.04ZM225.11,131.43c.23-.39.86-1.82.06-2.08-.32.57-.86,1.35-.55,1.98.22-.03.35.03.49.1ZM212.31,147.69c.03.83.82,1.4,1.4.95.14-.45-.73-1.5-1.4-.95ZM209.5,116.16c1.06.67,2.82,1.06,3.63-.3,10.37,4.77,21.41,8.67,30.57,15-1.92,2.47-4.7,4.28-7.18,6.32-.08-.62-.46-.87-.65-1.35-5.17-1.31-10.68-2.19-16.03-3.26-.48-.73-.85-1.71-1.71-2.17-.5-.27-1.35-.11-2.12-.38-.71-.24-.97-.73-1.53-.76-3.26-.17-6.17,2.86-5.34,5.77.63,2.21,3.77,3.28,6.28,1.76,1.4,1.23,3.04.59,4.85.51,1.36-.06,2.32.63,3.63.98,2.94.79,6.71.4,8.44,2.46-2.76,3.04-6.26,5.33-9.54,7.88-1.21.94-2.38,1.92-3.56,2.9-4.12-.56-8.45-.07-12.33,1.18-9.23-5.34-18.77-10.28-28.37-15.13,10.27-7.18,21.09-13.93,30.97-21.4ZM216.44,147.5c.11-.2.15-.45.06-.81-.26.03-.52.06-.78.1-.17.51.07.81.73.71"/>
      <path class="cls-4" d="M222.43,164.99c1.38,3.65,1.12,8.54-.91,12.01-1.49,2.55-5.5,4.48-8.1,4.73-4.31.41-8.69-1.65-10.29-4.56-1.52-2.76-1.22-6.68-.24-9.98.56.11,1.13.2,1.7.28,2.45.34,5.48-.33,8.06-.53,3.24-.26,6.69-.92,9.79-1.95ZM206.06,174.78c2.46-.05,3.65-4.06,1.69-5.4-2.09-1.43-4.88.98-4.22,3.88.83,1.03,1.51,1.54,2.53,1.52"/>
      <path class="cls-1" d="M222.83,163.27c.23.44.42.9.59,1.37-.32.12-.65.23-.99.34-.18-.47-.38-.92-.61-1.34.34-.12.68-.24,1.01-.38"/>
      <path class="cls-1" d="M221.82,163.65c.23.42.43.87.61,1.34-3.09,1.03-6.55,1.69-9.79,1.95-2.58.2-5.61.87-8.06.53-.57-.08-1.13-.17-1.7-.28.17-.59.37-1.15.59-1.69,5.71.69,12.72.12,18.34-1.85"/>
      <path class="cls-4" d="M212.08,157.25c.41.25.77.41,1,.39.29-.02.71-.25,1.18-.57.12,0,.23.01.35.02,2.38.24,5.76,2.9,6.92,4.22.5.57.94,1.24,1.3,1.97-.33.14-.66.26-1.01.38-.19-.35-.41-.68-.63-.99-.19-.26-.42-.52-.68-.78-.13-.13-.26-.25-.41-.38-.07-.06-.15-.12-.22-.19-.15-.12-.3-.25-.46-.37-.08-.06-.16-.12-.24-.18-.04-.03-.08-.06-.12-.09-.08-.06-.17-.12-.25-.17-.12-.09-.25-.17-.39-.26-.08-.05-.17-.11-.26-.16-.08-.05-.17-.11-.26-.16s-.18-.1-.28-.15c-.09-.05-.18-.1-.27-.15-.09-.05-.19-.1-.28-.14-1.45-.72-2.93-1.15-3.98-1.04-3.42.39-6.25,1.59-7.93,3.88-.59.81-1.18,1.91-1.68,3.18-.34-.04-.68-.08-1.01-.14.34-1.1.72-2.1,1.34-3.04,1.27-1.96,4.85-4.38,8.28-5.08"/>
      <path class="cls-4" d="M220.11,161.5c.14.13.28.25.41.38-.13-.13-.26-.25-.41-.38"/>
      <path class="cls-4" d="M219.89,161.31c.07.07.15.13.22.19-.07-.06-.15-.12-.22-.19"/>
      <path class="cls-1" d="M219.23,151.52c.49.07.98.15,1.46.25-.61.5-1.23,1.01-1.85,1.52-.51-.07-1.03-.12-1.55-.15.65-.54,1.29-1.07,1.94-1.61"/>
      <path class="cls-4" d="M219.18,160.76c.08.06.16.12.24.18-.08-.06-.16-.12-.24-.18"/>
      <path class="cls-4" d="M218.81,160.5c.08.06.17.11.25.17-.08-.06-.17-.12-.25-.17"/>
      <path class="cls-4" d="M211.89,136.59c-4.77-1.97,1-8.63,3.94-5.43.92-.6,1.74.08,2.43.33.21.39.31.94.35,1.55,5.26,1.49,11.05,2.31,16.54,3.52.59,1.29,1.02,2.64,1.4,4.01-.94.87-1.66,2.01-2.22,3.26-.51-2.37-1.28-4.43-3.06-5.19s-4.71-.71-7.03-1.36c-1.05-.29-2.72-1.17-4.12-1.08-1.44.1-3.13,1.28-4.22-.59-1.09.52-2.37.9-4.02.98"/>
      <path class="cls-4" d="M218.15,160.07c.09.06.18.11.26.16-.08-.06-.17-.11-.26-.16"/>
      <path class="cls-4" d="M219.23,151.52c-.65.54-1.29,1.08-1.94,1.61-2.78-.19-5.68.08-8.39.73-.66-.39-1.33-.78-2-1.16,3.88-1.26,8.21-1.75,12.33-1.18"/>
      <path class="cls-4" d="M217.61,159.76c.1.05.19.1.28.15-.09-.05-.18-.1-.28-.15"/>
      <path class="cls-1" d="M218.84,153.28c-.6.49-1.21.99-1.82,1.48-.51.42-1.75,1.59-2.77,2.31-.7-.03-1.44.03-2.17.19-1.09-.66-2.61-1.98-3.34-2.42-.35-.21-.72-.43-1.08-.64.41-.12.82-.23,1.24-.33,1.4.82,2.79,1.66,4.18,2.5,1.45-1.01,2.84-2.11,4.21-3.24.52.03,1.04.08,1.55.15"/>
      <path class="cls-4" d="M217.34,159.62c.09.05.18.1.28.15-.1-.05-.19-.1-.28-.15"/>
      <path class="cls-4" d="M217.06,159.48c.09.05.19.09.28.14-.09-.05-.19-.1-.28-.14"/>
      <path class="cls-1" d="M216.5,146.69c.1.35.05.6-.06.81-.65.1-.9-.2-.73-.71.26-.03.52-.06.78-.1"/>
      <path class="cls-4" d="M208.9,153.86c2.72-.65,5.61-.92,8.39-.73-1.37,1.13-2.77,2.23-4.21,3.24-1.39-.85-2.78-1.68-4.18-2.51"/>
      <path class="cls-1" d="M213.08,157.64c-.23.01-.59-.15-1-.39.74-.15,1.47-.22,2.17-.19-.47.33-.89.56-1.18.57"/>
      <path class="cls-4" d="M213.09,158.44c1.05-.12,2.53.32,3.98,1.04.09.05.19.09.28.14.09.05.18.1.28.15l.27.15c.09.05.18.11.26.16.09.06.18.11.26.16.14.08.26.17.39.26.08.06.17.11.25.17.04.03.08.06.12.08.08.06.16.12.24.19.16.12.32.24.46.37.07.07.15.13.22.19.14.13.28.25.41.38.26.26.48.52.68.78.23.31.44.64.63.99-5.63,1.97-12.63,2.54-18.34,1.85.5-1.27,1.09-2.37,1.68-3.18,1.68-2.29,4.51-3.49,7.93-3.88"/>
      <path class="cls-1" d="M213.71,148.63c-.57.46-1.37-.12-1.4-.94.67-.55,1.53.5,1.4.94"/>
      <path class="cls-4" d="M208.74,154.83c.73.44,2.25,1.75,3.34,2.41-3.43.69-7.01,3.12-8.28,5.08-.62.95-1,1.94-1.34,3.04-.6-.09-1.18-.2-1.74-.32-.82-1.43-2-2.5-3.67-3.06,1.66-3.68,5.77-6.38,10.6-7.79.37.21.73.43,1.08.64"/>
      <path class="cls-1" d="M208.9,153.86c-.42.1-.83.21-1.24.33-.63-.37-1.27-.73-1.92-1.09.38-.14.77-.28,1.16-.41.67.38,1.34.77,2,1.16"/>
      <path class="cls-4" d="M204.55,172.76c.72,2.09,4.46-.04,2.7-2.37-1.79-.78-3.14,1.08-2.7,2.37ZM207.75,169.38c1.96,1.34.77,5.36-1.69,5.4-1.02.02-1.7-.5-2.53-1.52-.66-2.9,2.13-5.31,4.22-3.88"/>
      <path class="cls-4" d="M207.24,170.39c1.76,2.33-1.98,4.46-2.7,2.37-.44-1.28.91-3.14,2.7-2.37"/>
      <path class="cls-1" d="M203.47,165.5c-.21.54-.41,1.1-.59,1.69-.3-.06-.6-.11-.91-.18.17-.57.32-1.12.48-1.65.33.05.66.1,1.01.14"/>
      <path class="cls-1" d="M202.47,165.36c-.16.52-.32,1.07-.48,1.65-.15-.03-.29-.06-.44-.1-.22-.67-.48-1.3-.81-1.86.56.12,1.14.23,1.74.32"/>
      <path class="cls-4" d="M201.99,167.01c-.07.23-.14.47-.21.71-.07-.28-.15-.54-.24-.81.15.03.29.07.45.1"/>
      <path class="cls-4" d="M200.93,174.47c.46.16.39.85.51,1.35-.23-.17-.33-.46-.67-.51-.07-.41.3-.37.16-.84"/>
      <path class="cls-4" d="M200.31,166.62c.87,3.02.6,7.75-1.4,9.21-1.7,1.24-5.5,1.8-7.09,1.35-5.95-1.67-5.98-12.47.15-14.39,1.34,1.09,3.44,2.13,4.7,2.65,1.01.42,2.27.83,3.64,1.19ZM189.22,171.97c4.14,2.12,4.94-5.85.85-4.73-1.85.51-2.6,3.83-.85,4.73"/>
      <path class="cls-1" d="M200.73,165.05c.33.57.59,1.19.81,1.86-.42-.09-.83-.19-1.23-.3-.22-.76-.51-1.41-.87-1.88.42.11.85.21,1.29.31"/>
      <path class="cls-4" d="M200.26,176.84c.23.33.42.69.56,1.08.06.16.11.32.16.48.02.08.05.16.07.25.02.08.04.17.06.25s.03.17.05.26c.01.05.02.1.02.15.25,1.62.05,3.49-.41,5.24-.02.05-.03.11-.05.16l-.08.3c-.02.05-.03.1-.05.15-.03.1-.06.2-.1.3-.02.05-.03.1-.05.15-.03.1-.07.2-.1.3-.02.05-.03.1-.06.15-.08.24-.17.48-.27.71-.08.19-.16.37-.24.55-.04.09-.08.17-.12.26-.02.04-.04.08-.06.12-.12.26-.25.5-.39.73-.05.08-.08.16-.13.23-.16.26-.32.5-.48.72-.07.1-.14.19-.21.28-.12.15-.24.28-.35.39-1.89,1.9-3.85.39-6.39-.9-4.19-2.13-8.92-4.9-13.16-6.42,6.39-2.86,15.62-3.86,21.43-5.9h.34"/>
      <path class="cls-4" d="M197.06,161.98c1.67.57,2.86,1.64,3.67,3.06-.45-.1-.87-.2-1.29-.31-.06-.08-.12-.15-.19-.23-1.28-1.32-3.68-1.9-5.03-2.01-.72-.46-1.4-1-1.83-1.62.96-.16,2.01-.15,3.14.08,1.82-3.37,5.62-6.16,10.2-7.87.65.36,1.29.72,1.92,1.09-4.83,1.41-8.94,4.11-10.6,7.79"/>
      <path class="cls-1" d="M199.39,136.07c.43.89-.72,1.04-1.18.79-.02-.16-.04-.32-.06-.47.2-.27.79-.24,1.24-.32"/>
      <path class="cls-4" d="M199.25,164.51c.07.07.13.15.19.23-.96-.26-1.85-.57-2.65-.92-.59-.26-1.61-.71-2.57-1.31,1.34.11,3.74.68,5.03,2.01"/>
      <path class="cls-1" d="M197.17,134.92c-.39-.02-.3.33-.77.25-.35-.27-.21-.88-.16-1.26.21-.03.42-.05.63-.08.1.37.32.56.29,1.08"/>
      <path class="cls-1" d="M193.68,162.49c.15,0,.34,0,.55.02.96.6,1.98,1.05,2.57,1.31.79.35,1.68.66,2.65.92.36.46.65,1.12.87,1.88-1.37-.35-2.63-.77-3.64-1.19-1.26-.52-3.37-1.56-4.7-2.65.52-.16,1.09-.26,1.71-.29"/>
      <g class="cls-19">
        <path class="cls-1" d="M211.89,136.59c1.65-.08,2.94-.46,4.02-.98,1.09,1.88,2.78.69,4.22.59,1.4-.1,3.07.78,4.12,1.08,2.32.65,5.25.59,7.03,1.36s2.55,2.82,3.06,5.19c-.42.95-.74,1.97-.98,3-.3-1.17-.59-2.35-.86-3.56-.84.06-1.69,1.33-2.65,1.76,1.1,1.7.57,3.85,1.49,5.56.35.65,1.08.72,1.43,1.26.01.02.03.03.04.06-.01,2.37.16,4.77-.81,6.38-.25-.32-.45-.79-.61-1.35.2-.34.36-.67.46-.99.37-1.12.14-2.39-.41-3.3-.14-.41-.83-.12-1.23-.2-.08-.22-.18-.42-.29-.6-.16-2.12-.65-4.42-1.56-5.99-2.62,1.85-5.13,3.86-7.65,5.92-.48-.1-.97-.18-1.46-.25,1.18-.98,2.36-1.96,3.56-2.9,3.28-2.56,6.78-4.85,9.54-7.88-1.73-2.06-5.5-1.66-8.44-2.46-1.31-.35-2.27-1.04-3.63-.98-1.8.08-3.45.72-4.85-.51-2.51,1.52-5.65.45-6.28-1.77-.83-2.91,2.08-5.93,5.34-5.76.56.03.82.52,1.53.77.77.26,1.63.1,2.12.37.86.46,1.23,1.45,1.71,2.17,5.35,1.08,10.86,1.95,16.03,3.26.19.48.56.73.65,1.35,2.48-2.03,5.26-3.84,7.18-6.32-9.16-6.33-20.2-10.23-30.57-15-.81,1.36-2.57.97-3.63.29-9.88,7.48-20.7,14.23-30.97,21.4,9.61,4.86,19.14,9.8,28.37,15.14-.39.13-.78.26-1.16.41-3.77-2.1-7.78-4.07-11-5.77-2.08,1.9-.78,7.06-.34,10.08-1.03.26-2.36.77-2.47,1.9-.06.56.13,1.09.46,1.56-.57.1-1.11.26-1.61.48-.92-1.94-.17-4.29,2.05-5.02-.97-3.18-1.19-7.3.25-9.44-4.03-2.06-8.1-4.71-12.63-6.72-1.26-.56-3.92-1.21-3.98-2.53-.05-.96,2.38-2.27,3.45-2.98,5.45-3.62,10.38-6.71,15.62-10.24,1.27-.86,2.28-1.98,3.48-2.83,2.62-1.86,5.44-3.31,7.65-5.1,1.3-1.05,2.55-2.75,4.63-1.22,2.23-1.86,7.35,1.36,9.69,2.3,2.64,1.06,5.41,2.48,7.95,3.63,2.83,1.27,5.27,2.45,7.81,3.8,2.47,1.31,5.76,2.48,7.53,4.16,2.03,1.93.64,2.78-1.06,4.28-1.85,1.63-4,3.53-5.9,5.04.12.39.25.79.38,1.19-.41.24-.79.53-1.14.86-.38-1.37-.81-2.72-1.4-4.01-5.48-1.21-11.27-2.02-16.54-3.52-.05-.61-.14-1.15-.35-1.55-.7-.25-1.51-.94-2.43-.34-2.95-3.19-8.71,3.46-3.94,5.44"/>
      </g>
      <path class="cls-4" d="M194.4,157.42c-.45-3.03-1.74-8.19.34-10.08,3.22,1.71,7.23,3.67,11,5.77-4.58,1.71-8.38,4.5-10.2,7.87-1.14-.23-2.19-.25-3.14-.08-.33-.47-.52-1-.46-1.56.11-1.13,1.44-1.65,2.47-1.9"/>
      <path class="cls-1" d="M192.39,160.89c.43.63,1.12,1.17,1.83,1.62-.21-.02-.39-.02-.55-.02-.61.02-1.18.12-1.71.29-.45-.37-.81-.74-1.03-1.1-.06-.1-.11-.21-.16-.32.5-.21,1.04-.38,1.61-.48"/>
      <path class="cls-4" d="M191.58,170.62c-.64.17-1.32.54-2.02.17-1.64-2.6,3.31-3.45,2.02-.17"/>
      <path class="cls-4" d="M189.56,170.78c.7.37,1.39,0,2.02-.17,1.29-3.28-3.66-2.43-2.02.17ZM190.07,167.24c4.1-1.13,3.29,6.85-.85,4.73-1.75-.9-1.01-4.21.85-4.73"/>
      <path class="cls-1" d="M214.86,172.72c0,1.52-1.23,2.75-2.75,2.75s-2.74-1.23-2.74-2.75,1.23-2.74,2.74-2.74,2.75,1.23,2.75,2.74"/>
      <path class="cls-1" d="M195.89,170.02c0,1.23-1,2.24-2.23,2.24s-2.24-1-2.24-2.24,1-2.24,2.24-2.24,2.23,1,2.23,2.24"/>
    </g>
  </g>
</svg>