<svg id="Layer_2" data-name="Layer 2" xmlns="http://www.w3.org/2000/svg" viewBox="0 0 69.86 102.96"><title>bulb</title><path d="M154.64,201.87a84.71,84.71,0,0,1,15-.52c1.25.08,2.51.17,3.75.31,1.58-.48,2.6-.12,3,1.08.71.75.53,1-.53.73-1.41.84-5.83.09-7.52.11-4,.06-14.73-1.79-15.65,4.37a3.55,3.55,0,0,0,1.92,3.93c1.41.67,3.11.22,4.59.15a37.74,37.74,0,0,1,15,2.11l2.88,1.15a6.31,6.31,0,0,0-3-.24c-1.17,0-2.38.2-3.56.27s-14.94.15-14.95.31c.13-1.93-2.87-1.92-3,0-.24,3.5,5.13,2.85,7.25,2.9q4.9.12,9.81-.15c2.59-.14,6.16.22,8.54-.94,1.87-.91,2.5-2.49,1.19-4.13s-5.86-2.6-7.72-3.07a41.47,41.47,0,0,0-8.14-1.22c-1.31-.07-3.1.34-4.35,0-1.86.65-2.25.29-1.15-1.07.12-1.16.73-1.58,1.82-1.25,2.84-.89,7.35-.11,10.35-.15,2.58,0,9.35,1.31,10.36-2.51,2.31-8.77-22.44-5.6-26-5.18-1.89.22-1.92,3.23,0,3Z" transform="translate(-130.28 -120.79)" style="fill:#fff"/><path d="M181.17,200.59a63.81,63.81,0,0,0,4.79-7.31c1.87-2.95,4.14-5.6,5.88-8.66a63.93,63.93,0,0,0,7.47-21.18c2.1-12.95.75-26.7-10.26-35.24C167,111.07,132,125.3,130.34,153.72c-.5,8.53,2.14,16.89,5.78,24.52a69.65,69.65,0,0,0,6.73,11.9c2.61,3.45,6,6.45,9,9.58,1.34,1.39,3.46-.73,2.12-2.12-2.82-2.94-6-5.76-8.52-9s-4.53-7.38-6.35-11.09c-4.17-8.54-7.1-18.23-5.29-27.78,3-15.95,18.1-26.67,34-26,8.14.33,16.35,3.43,22.13,9.28,6.1,6.17,7.46,14.33,7.14,22.69a60,60,0,0,1-6.31,24.52c-1.93,3.86-4.46,7.16-6.85,10.73-1.7,2.52-2.91,5.17-4.89,7.53-1.23,1.47.88,3.6,2.12,2.12Z" transform="translate(-130.28 -120.79)" style="fill:#fff"/><path d="M157.43,217.93c.85,4.32,5.12,5.36,8.93,5.73s8.5-.22,9.27-4.74c.33-1.89-2.56-2.7-2.89-.8-.79,4.6-11.61,3.14-12.42-1-.37-1.89-3.26-1.09-2.89.8Z" transform="translate(-130.28 -120.79)" style="fill:#fff"/><path d="M145.81,155.88l3.15,6.47c.63,1.3,2.3.71,2.74-.36l4.23-10.24-2.74.36,6.16,9.26a1.52,1.52,0,0,0,2.59,0q2.75-5.56,5.38-11.18h-2.59a99.53,99.53,0,0,1,5.15,11,1.52,1.52,0,0,0,2.74.36l5.77-10.78H175.8c2.53,3.88.16,8.84,3.06,12.7a1.52,1.52,0,0,0,2.59,0l5.37-7.17c1.16-1.54-1.45-3-2.59-1.51l-5.37,7.17h2.59c-2.72-3.63-.51-8.8-3.06-12.7a1.52,1.52,0,0,0-2.59,0L170,160l2.74.36a104.29,104.29,0,0,0-5.45-11.69,1.51,1.51,0,0,0-2.59,0q-2.64,5.63-5.38,11.18h2.59l-6.16-9.27A1.52,1.52,0,0,0,153,151l-4.23,10.25,2.74-.36-3.15-6.48c-.85-1.73-3.43-.21-2.59,1.52Z" transform="translate(-130.28 -120.79)" style="fill:#fff"/><path d="M144.88,155.81l13.24,40.92a1.5,1.5,0,0,0,2.94-.39l.17-1.56c.2-1.92-2.8-1.9-3,0l-.17,1.56,2.95-.4L147.77,155c-.59-1.83-3.48-1.05-2.89.79Z" transform="translate(-130.28 -120.79)" style="fill:#fff"/><path d="M184.6,155.15c.18,6.8-3.77,14.17-6,20.51l-3.19,9-1.92,5.41c-.35,1-1,4.68-1.74,5l2.06.53-.12-.26-.54,2.05.19-.09c1.76-.79.23-3.38-1.51-2.59l-.2.09a1.53,1.53,0,0,0-.53,2l.12.27a1.52,1.52,0,0,0,2,.54c1.67-.82,1.91-3.44,2.47-5l4.79-13.52c2.62-7.38,7.29-16,7.08-24,0-1.93-3-1.94-3,0Z" transform="translate(-130.28 -120.79)" style="fill:#fff"/></svg>