<?xml version="1.0" encoding="utf-8"?>
<!-- Generator: Adobe Illustrator 25.4.1, SVG Export Plug-In . SVG Version: 6.00 Build 0)  -->
<svg version="1.1" id="Layer_2_00000082332515505680926120000002708222541762266518_"
	 xmlns="http://www.w3.org/2000/svg" xmlns:xlink="http://www.w3.org/1999/xlink" x="0px" y="0px" viewBox="0 0 69.9 103"
	 style="enable-background:new 0 0 69.9 103;" xml:space="preserve">
<style type="text/css">
	.st0{fill:#FB6952;}
</style>
<path class="st0" d="M24.4,81.1c5-0.6,10-0.8,15-0.5c1.2,0.1,2.5,0.2,3.8,0.3c1.6-0.5,2.6-0.1,3,1.1c0.7,0.8,0.5,1-0.5,0.7
	c-1.4,0.8-5.8,0.1-7.5,0.1c-4,0.1-14.7-1.8-15.6,4.4c-0.3,1.6,0.5,3.2,1.9,3.9c1.4,0.7,3.1,0.2,4.6,0.1c5.1-0.3,10.2,0.4,15,2.1
	l2.9,1.1c-1-0.3-2-0.4-3-0.2c-1.2,0-2.4,0.2-3.6,0.3s-14.9,0.1-14.9,0.3c0.1-1.9-2.9-1.9-3,0c-0.2,3.5,5.1,2.9,7.2,2.9
	c3.3,0.1,6.5,0,9.8-0.1c2.6-0.1,6.2,0.2,8.5-0.9c1.9-0.9,2.5-2.5,1.2-4.1s-5.9-2.6-7.7-3.1c-2.7-0.7-5.4-1.1-8.1-1.2
	c-1.3-0.1-3.1,0.3-4.4,0c-1.9,0.6-2.2,0.3-1.1-1.1c0.1-1.2,0.7-1.6,1.8-1.2c2.8-0.9,7.4-0.1,10.4-0.1c2.6,0,9.4,1.3,10.4-2.5
	c2.3-8.8-22.4-5.6-26-5.2c-1.9,0.2-1.9,3.2,0,3L24.4,81.1z"/>
<path class="st0" d="M50.9,79.8c1.8-2.3,3.4-4.8,4.8-7.3c1.9-2.9,4.1-5.6,5.9-8.7c3.7-6.6,6.2-13.7,7.5-21.2
	C71.1,29.7,69.8,16,58.8,7.4C36.7-9.7,1.7,4.5,0.1,32.9c-0.5,8.5,2.1,16.9,5.8,24.5c1.8,4.2,4.1,8.2,6.7,11.9c2.6,3.4,6,6.4,9,9.6
	c1.3,1.4,3.5-0.7,2.1-2.1c-2.8-2.9-6-5.8-8.5-9s-4.5-7.4-6.4-11.1c-4.2-8.5-7.1-18.2-5.3-27.8c3-15.9,18.1-26.7,34-26
	c8.1,0.3,16.4,3.4,22.1,9.3c6.1,6.2,7.5,14.3,7.1,22.7c-0.3,8.5-2.5,16.9-6.3,24.5c-1.9,3.9-4.5,7.2-6.9,10.7
	c-1.7,2.5-2.9,5.2-4.9,7.5C47.5,79.2,49.6,81.3,50.9,79.8L50.9,79.8z"/>
<path class="st0" d="M27.1,97.1c0.9,4.3,5.1,5.4,8.9,5.7s8.5-0.2,9.3-4.7c0.3-1.9-2.6-2.7-2.9-0.8c-0.8,4.6-11.6,3.1-12.4-1
	C29.7,94.4,26.8,95.2,27.1,97.1L27.1,97.1z"/>
<path class="st0" d="M15.5,35.1l3.1,6.5c0.6,1.3,2.3,0.7,2.7-0.4L25.6,31l-2.7,0.4l6.2,9.3c0.4,0.7,1.4,0.9,2.1,0.5
	c0.2-0.1,0.4-0.3,0.5-0.5c1.8-3.7,3.6-7.4,5.4-11.2h-2.6c1.9,3.6,3.7,7.2,5.1,11c0.2,0.8,1.1,1.3,1.9,1c0.3-0.1,0.6-0.3,0.8-0.6
	L48.1,30h-2.6c2.5,3.9,0.2,8.8,3.1,12.7c0.4,0.7,1.4,0.9,2.1,0.5c0.2-0.1,0.4-0.3,0.5-0.5l5.4-7.2c1.2-1.5-1.4-3-2.6-1.5l-5.4,7.2
	h2.6c-2.7-3.6-0.5-8.8-3.1-12.7c-0.4-0.7-1.4-0.9-2.1-0.5c-0.2,0.1-0.4,0.3-0.5,0.5l-5.8,10.7l2.7,0.4c-1.6-4-3.4-7.9-5.4-11.7
	c-0.4-0.7-1.4-0.9-2.1-0.5c-0.2,0.1-0.4,0.3-0.5,0.5c-1.8,3.8-3.6,7.5-5.4,11.2h2.6l-6.2-9.3c-0.5-0.7-1.4-0.9-2.1-0.5
	c-0.3,0.2-0.6,0.5-0.7,0.9l-4.2,10.2l2.7-0.4l-3.1-6.5C17.2,31.9,14.7,33.4,15.5,35.1L15.5,35.1z"/>
<path class="st0" d="M14.6,35l13.2,40.9c0.2,0.8,1.1,1.3,1.9,1c0.6-0.2,1.1-0.8,1.1-1.4L31,74c0.2-1.9-2.8-1.9-3,0l-0.2,1.6l2.9-0.4
	L17.5,34.2C16.9,32.4,14,33.2,14.6,35L14.6,35z"/>
<path class="st0" d="M54.3,34.4c0.2,6.8-3.8,14.2-6,20.5l-3.2,9l-1.9,5.4c-0.4,1-1,4.7-1.7,5l2.1,0.5l-0.1-0.3l-0.5,2.1l0.2-0.1
	c1.8-0.8,0.2-3.4-1.5-2.6L41.4,74c-0.7,0.4-0.9,1.3-0.5,2l0.1,0.3c0.4,0.7,1.3,0.9,2,0.5c1.7-0.8,1.9-3.4,2.5-5l4.8-13.5
	c2.6-7.4,7.3-16,7.1-24C57.3,32.4,54.3,32.4,54.3,34.4L54.3,34.4z"/>
</svg>
