<?xml version="1.0" encoding="UTF-8"?>
<svg id="Layer_2" data-name="Layer 2" xmlns="http://www.w3.org/2000/svg" viewBox="0 0 225.58 207.02">
  <defs>
    <style>
      .cls-1 {
        fill: #ff936c;
        stroke-width: 0px;
      }
    </style>
  </defs>
  <g id="Layer_1-2" data-name="Layer 1">
    <path class="cls-1" d="M1.37,113.44c6.89,14.21,13.77,28.42,20.66,42.64,6.89,14.21,14.27,28.2,20.77,42.52,2.13,4.76,7.71,7.6,12.57,8.26,5.24.71,10.71-.77,14.48-4.76,16.83-17.66,32.79-36.35,48.59-54.98,15.85-18.75,31.97-37.28,47.99-55.86,9.84-11.36,19.52-22.9,28.7-34.81-.93,1.2-1.86,2.4-2.79,3.6,5.08-6.61,10.28-13.17,15.42-19.73,5.63-7.1,10.82-14.59,16.13-21.97,3.01-4.15,1.8-11.31-1.92-14.7-3.66-3.33-10.39-5.19-14.7-1.91-6.89,5.24-13.99,10.39-20.55,16.07-5.74,5.03-11.48,10.06-17.17,15.09-11.64,10.33-22.52,21.42-33.12,32.79-20.93,22.46-41.32,45.64-60.18,69.96-6.13,7.87-12.19,15.74-18.15,23.67-5.41,7.16-10.44,14.43-15.31,21.97h29.73c-9.02-12.9-17.22-26.45-25.85-39.57-8.64-13.28-17.27-26.46-25.91-39.63-3.22-4.92-10.06-7.43-15.36-4.04C0,101.58-1.36,107.75,1.37,113.44Z"/>
  </g>
</svg>