<?xml version="1.0" encoding="UTF-8"?><svg id="Layer_2" xmlns="http://www.w3.org/2000/svg" xmlns:xlink="http://www.w3.org/1999/xlink" viewBox="0 0 144 143.77"><defs><clipPath id="clippath"><rect width="144" height="143.77" fill="none"/></clipPath></defs><g id="Layer_1-2"><g clip-path="url(#clippath)"><path d="M143.69,71.84c0,2.35-.11,4.7-.35,7.04-.23,2.34-.57,4.67-1.03,6.97s-1.03,4.59-1.71,6.84-1.47,4.46-2.38,6.64c-.9,2.17-1.91,4.3-3.02,6.37-1.11,2.08-2.32,4.09-3.63,6.05-1.31,1.96-2.71,3.84-4.2,5.67-1.49,1.82-3.07,3.56-4.73,5.22-1.67,1.66-3.41,3.24-5.22,4.73-1.82,1.49-3.71,2.89-5.67,4.2-1.95,1.31-3.97,2.52-6.05,3.63-2.07,1.11-4.2,2.11-6.37,3.02-2.18,.9-4.39,1.69-6.64,2.38s-4.53,1.26-6.84,1.71-4.64,.8-6.97,1.03c-2.34,.23-4.69,.35-7.04,.35s-4.7-.11-7.04-.35c-2.34-.23-4.67-.57-6.97-1.03s-4.59-1.03-6.84-1.71c-2.26-.68-4.47-1.47-6.64-2.38s-4.3-1.91-6.38-3.02c-2.07-1.11-4.09-2.32-6.05-3.63-1.95-1.31-3.84-2.71-5.66-4.2-1.82-1.49-3.56-3.07-5.22-4.73-1.66-1.67-3.24-3.41-4.73-5.22-1.49-1.82-2.9-3.71-4.2-5.67-1.31-1.95-2.52-3.97-3.63-6.05-1.11-2.07-2.11-4.2-3.02-6.37-.9-2.18-1.69-4.39-2.38-6.64s-1.26-4.53-1.71-6.84-.8-4.64-1.04-6.97c-.23-2.34-.34-4.69-.34-7.04s.11-4.7,.34-7.04c.23-2.34,.58-4.67,1.04-6.97s1.03-4.59,1.71-6.84c.68-2.26,1.47-4.47,2.38-6.64s1.91-4.3,3.02-6.38c1.11-2.07,2.32-4.09,3.63-6.05,1.3-1.95,2.7-3.84,4.2-5.66,1.49-1.82,3.07-3.56,4.73-5.22s3.41-3.24,5.22-4.73c1.82-1.49,3.71-2.89,5.66-4.2,1.96-1.31,3.97-2.52,6.05-3.63,2.08-1.11,4.2-2.11,6.38-3.02s4.39-1.69,6.64-2.38c2.25-.68,4.53-1.26,6.84-1.71s4.63-.8,6.97-1.04c2.34-.23,4.69-.34,7.04-.34s4.7,.11,7.04,.34c2.34,.23,4.67,.58,6.97,1.04s4.59,1.03,6.84,1.71,4.46,1.47,6.64,2.38c2.17,.9,4.3,1.91,6.37,3.02,2.08,1.11,4.09,2.32,6.05,3.63,1.96,1.31,3.84,2.7,5.67,4.2,1.82,1.49,3.56,3.07,5.22,4.73,1.66,1.66,3.24,3.41,4.73,5.22,1.49,1.82,2.89,3.71,4.2,5.66,1.31,1.96,2.52,3.97,3.63,6.05,1.11,2.08,2.11,4.2,3.02,6.38s1.69,4.39,2.38,6.64c.68,2.25,1.26,4.53,1.71,6.84s.8,4.63,1.03,6.97c.23,2.34,.35,4.69,.35,7.04Z" fill="#ff936c"/></g><path d="M98.84,28.35c-16.72,20.6-29.58,43.46-40.77,67.31-4.46-6.09-8.92-12.17-13.4-18.26-4.18-5.72-21.69,.8-16.78,7.51,7.67,10.46,15.32,20.89,22.99,31.35,3.39,4.61,14.88,1.59,16.96-3.18,12.42-28.39,26.22-56.48,45.86-80.66,6.99-8.63-10.4-9.6-14.87-4.07Z" fill="#fff4f0"/></g></svg>