<?xml version="1.0" encoding="utf-8"?>
<!-- Generator: Adobe Illustrator 22.0.1, SVG Export Plug-In . SVG Version: 6.00 Build 0)  -->
<svg version="1.1" id="Layer_1" xmlns="http://www.w3.org/2000/svg" xmlns:xlink="http://www.w3.org/1999/xlink" x="0px" y="0px"
	 viewBox="0 0 24 24" style="enable-background:new 0 0 24 24;" xml:space="preserve">
<style type="text/css">
	.st0{fill:none;stroke:#FFFFFF;stroke-linecap:round;stroke-linejoin:round;}
</style>
<title>cog</title>
<path class="st0" d="M20.3,13.5h2.2c0.6,0,1-0.4,1-1v-1c0-0.6-0.4-1-1-1h-2.2c-0.2-1-0.5-2-1-2.9L20.8,6c0.4-0.4,0.4-1,0-1.4
	l-1.4-1.4c-0.4-0.4-1-0.4-1.4,0l-1.6,1.6c-0.9-0.5-1.9-0.8-2.9-1V1.5c0-0.6-0.4-1-1-1h-1c-0.6,0-1,0.4-1,1v2.2c-1,0.2-2,0.5-2.9,1
	L6,3.2c-0.4-0.4-1-0.4-1.4,0L3.2,4.6C2.8,5,2.8,5.6,3.2,6l1.6,1.6c-0.5,0.9-0.8,1.9-1,2.9H1.5c-0.6,0-1,0.4-1,1v1c0,0.6,0.4,1,1,1
	h2.2c0.2,1,0.5,2,1,2.9L3.2,18c-0.4,0.4-0.4,1,0,1.4l1.4,1.4c0.4,0.4,1,0.4,1.4,0l1.6-1.6c0.9,0.5,1.9,0.8,2.9,1v2.2
	c0,0.6,0.4,1,1,1h1c0.6,0,1-0.4,1-1v-2.2c1-0.2,2-0.5,2.9-1l1.6,1.6c0.4,0.4,1,0.4,1.4,0l1.4-1.4c0.4-0.4,0.4-1,0-1.4l-1.6-1.6
	C19.7,15.5,20,14.5,20.3,13.5z"/>
<circle class="st0" cx="12" cy="12" r="4.5"/>
</svg>
