<?xml version="1.0" encoding="utf-8"?>
<!-- Generator: Adobe Illustrator 22.0.1, SVG Export Plug-In . SVG Version: 6.00 Build 0)  -->
<svg version="1.1" id="Layer_1" xmlns="http://www.w3.org/2000/svg" xmlns:xlink="http://www.w3.org/1999/xlink" x="0px" y="0px"
	 viewBox="0 0 100 100" style="enable-background:new 0 0 100 100;" xml:space="preserve">
<style type="text/css">
	.st0{fill:#FFFFFF;}
</style>
<g>
	<g>
		<path class="st0" d="M44.8,16.9c-1.1,7.8-1.6,15.5-1.3,23.4c0.1,2,1.8,4.3,4,4c7.9-1,15.7-0.1,23.5,0.9c1.7,0.2,3.5-1.4,3.9-3
			c0.8-3.2-0.4-5.7-2-8.3c-1.8-2.8-3.6-5.6-5.4-8.4C64,20.3,59.8,16,54.4,12.6c-4.4-2.7-8.5,4.3-4.1,7c3.9,2.4,7.1,5.4,9.6,9.2
			c1.3,1.8,2.5,3.7,3.7,5.6c0.8,1.2,1.5,2.4,2.3,3.5c0.2,0.2,1.3,1.7,1.2,2.1c1.3-1,2.6-2,3.9-3c-7.8-1-15.7-1.9-23.5-0.9
			c1.3,1.3,2.7,2.7,4,4c-0.2-7.1,0.1-14.2,1.1-21.2c0.3-2.2-0.5-4.3-2.8-5C47.8,13.5,45.1,14.7,44.8,16.9L44.8,16.9z"/>
	</g>
</g>
<g>
	<g>
		<path class="st0" d="M15.9,16.7C15.6,34.5,15,52.2,15.1,70c0.1,4.4,0.1,8.7,0.4,13c0.2,3.7-0.3,9.2,2.2,12.2
			c2.4,2.9,6.2,2.8,9.8,3c4.4,0.2,8.8,0.3,13.3,0.5C51,99,61.3,99,71.6,98.9c5.2-0.1,5.2-8.1,0-8.1C61,91,50.4,90.9,39.8,90.6
			c-5-0.2-9.9-0.6-14.8-0.5c-0.6,0-1.3-0.4-0.7,0.3C23.8,89.9,24,87,24,86.3c-0.2-2.4-0.3-4.8-0.4-7.3c-0.7-20.7,0.3-41.5,0.6-62.2
			C24.1,11.5,16.1,11.5,15.9,16.7L15.9,16.7z"/>
	</g>
</g>
<g>
	<g>
		<path class="st0" d="M67.9,44.3c-0.6,16.3-0.5,32.5,0.4,48.8c0.3,5.2,8.4,5.2,8.1,0c-0.9-16.2-1-32.5-0.4-48.8
			C76.2,39,68.2,39,67.9,44.3L67.9,44.3z"/>
	</g>
</g>
<g>
	<g>
		<path class="st0" d="M51.1,11.4c-10.1-0.2-20.7-1.3-30.8,0.3c-2.2,0.3-3.3,3-2.8,5c0.6,2.3,2.8,3.2,5,2.8
			c4.6-0.8,9.3-0.4,13.9-0.3c4.9,0.1,9.8,0.2,14.7,0.3C56.3,19.6,56.3,11.5,51.1,11.4L51.1,11.4z"/>
	</g>
</g>
<g>
	<g>
		<path class="st0" d="M36.9,11.4c0-1.8-0.1-3.7,0.1-5.5c-0.2,0.7-0.4,1.3-0.5,2c-0.3,0.3-0.5,0.5-0.8,0.8c-0.7,0.2-1.3,0.4-2,0.5
			c4.9-0.3,10,0.1,14.9,0.1C53.7,9.4,58.8,9.4,64,9.5s5.2-8,0-8.1c-7.7-0.1-15.3-0.2-23-0.2c-2.9-0.1-7.3-0.9-9.9,0.7
			c-3.1,2-2.3,6.4-2.3,9.5C28.8,16.5,36.9,16.5,36.9,11.4L36.9,11.4z"/>
	</g>
</g>
<g>
	<g>
		<path class="st0" d="M64.9,9.5c2.8,1.5,5.7,3,8.1,5.1c2.4,2.3,4.2,5.1,6.5,7.5c3.7,3.7,9.4-2,5.7-5.7c-2.5-2.6-4.5-5.7-7.2-8.1
			s-5.9-4.1-9.1-5.8C64.3,0.1,60.2,7,64.9,9.5L64.9,9.5z"/>
	</g>
</g>
<g>
	<g>
		<path class="st0" d="M79,23.9c-1.3,18.2-1,36.4,0.9,54.4c1.3-1.3,2.7-2.7,4-4c-2.8,0.2-5.5,0.4-8.4,0.6c-5.2,0.4-5.2,8.5,0,8.1
			c2.8-0.2,5.5-0.4,8.4-0.6c2-0.2,4.3-1.7,4-4C86,60.3,85.7,42.1,87,24C87.4,18.7,79.4,18.7,79,23.9L79,23.9z"/>
	</g>
</g>
<g>
	<g>
		<path class="st0" d="M65.9,6.8C65.9,6.7,66,6.7,65.9,6.8c-2,0.2-4.2,0.4-6.3,0.7c-0.3-0.4-0.5-0.9-0.8-1.3c0-0.7,0-1.5,0-2.2
			c-1.7,6.7-0.4,14.2-0.1,21.1c0.1,2.2,1.8,4,4,4c7.1,0,14-1,20.7-3c5-1.5,2.9-9.3-2.2-7.8C75.1,20.1,68.9,21,62.6,21
			c1.3,1.3,2.7,2.7,4,4c-0.2-4.3-0.5-8.6-0.7-12.9c-0.1-1.9-0.1-3.7,0.3-5.5s0.3-3.4-1.1-4.8c-2-2-4.8-1.2-6.4,0.8
			c0,0.1-0.1,0.1-0.1,0.1c-1.3,1.8-0.3,4.5,1.5,5.5C62.5,9.5,64.7,8.5,65.9,6.8L65.9,6.8z"/>
	</g>
</g>
</svg>
