<svg xmlns="http://www.w3.org/2000/svg" viewBox="0 0 499.3 81.63"><title>down-arrow</title><g id="Layer_2" data-name="Layer 2"><path d="M1.09,227.74A24.26,24.26,0,0,0,5.88,239.3a24.35,24.35,0,0,0,11.57,7.38A58,58,0,0,0,40.39,249c4.18-.39,8.43-1.07,12.2-3a22.15,22.15,0,0,0,8.73-8.23,18.38,18.38,0,0,0,1.8-3.61,23.07,23.07,0,0,0,1-3.83c.14-.7.39-2,.58-3.44l0-.21A26,26,0,0,0,64,215.27a30,30,0,0,0-2.09-4.92,36.59,36.59,0,0,0-3.25-6.07A18.16,18.16,0,0,1,56.32,199a10,10,0,0,1-.22-1.73c-.07-1.41.09-2.85.11-4.26A15.87,15.87,0,0,0,48.58,179,20.2,20.2,0,0,0,44,177a24,24,0,0,0-3.55-.8l-4.22-.59c-1.15-.16-1.44-.87-1.83-1.87a7.15,7.15,0,0,0-3-3.54,5.28,5.28,0,0,0-2.66-1,1.43,1.43,0,0,0-1.4,1,1.65,1.65,0,0,0,.09.85,6.92,6.92,0,0,0,1.07,2.18.46.46,0,0,1,.12.43c-.63-.13-1.24-.44-1.89-.56s-1.47-.18-2.2-.24a8.61,8.61,0,0,0-2.27.05c-.43.09-2.54,1-1.54,1.39a4.2,4.2,0,0,1,1.25.73c.5.37.27.37,1,1.07a5.26,5.26,0,0,0,1.36,1l.06,0s-.08.08-.11.09a.83.83,0,0,1-.34.08,1.34,1.34,0,0,0-.57.23c-1.1.56-2.27.94-3.36,1.54a23,23,0,0,0-3.29,2.16,20.06,20.06,0,0,0-7.87,14.52,18.45,18.45,0,0,0,.59,5.92A10.4,10.4,0,0,0,9.89,203a18.38,18.38,0,0,0-3.2,3.1A26.76,26.76,0,0,0,1.09,227.74Z" transform="translate(-0.7 -169.21)" style="fill:#fdbd6f"/><path d="M24,190.79a5.81,5.81,0,0,0-2.61-3.33,5.74,5.74,0,0,0-4.52-.46,5.54,5.54,0,0,0,1.61,10.81,5.84,5.84,0,0,0,3.41-.8,5.15,5.15,0,0,0,1.88-2A5.55,5.55,0,0,0,24,190.79Z" transform="translate(-0.7 -169.21)" style="fill:#fff5ec"/><path d="M18.62,192.42a1.49,1.49,0,0,1-.46.85,1.53,1.53,0,0,1-1.77.18,1.39,1.39,0,0,1-.58-1.81,1.39,1.39,0,0,1,.49-.61A1.52,1.52,0,0,1,18,191,1.48,1.48,0,0,1,18.62,192.42Z" transform="translate(-0.7 -169.21)" style="fill:#74706b"/><path d="M55.6,189.68a5.29,5.29,0,0,0-5.73-2.84,5.48,5.48,0,0,0,.65,10.81,5.45,5.45,0,0,0,5.66-5.3A5.24,5.24,0,0,0,55.6,189.68Z" transform="translate(-0.7 -169.21)" style="fill:#fff5ec"/><path d="M54.27,192.29a1.49,1.49,0,0,1-.42.78,1.36,1.36,0,0,1-1.6.16,1.29,1.29,0,0,1-.52-1.66,1.43,1.43,0,0,1,.44-.57,1.35,1.35,0,0,1,1.55,0A1.42,1.42,0,0,1,54.27,192.29Z" transform="translate(-0.7 -169.21)" style="fill:#74706b"/><path d="M40.17,191.5l-.26-.28c-2-2-6.28-1.56-6.79,1.59-.35,2.11,1.76,4.09,3.34,5.14A3.69,3.69,0,0,1,38,199.38c.18.46.34.82.89.62a3.87,3.87,0,0,0,1.87-1.66,6.18,6.18,0,0,0,.5-3.84A5.67,5.67,0,0,0,40.17,191.5Z" transform="translate(-0.7 -169.21)" style="fill:#f5825f"/><path d="M39.36,195.34a1,1,0,0,0,.36.57.7.7,0,0,0,.59.18c.36-.11.44-.7.46-.91a3,3,0,0,0-.12-1.07,3.24,3.24,0,0,0-.34-1,1.35,1.35,0,0,0-.75-.75.93.93,0,0,0-.88.14,1,1,0,0,0-.17.93,3.12,3.12,0,0,0,.43.9A5.5,5.5,0,0,1,39.36,195.34Z" transform="translate(-0.7 -169.21)" style="fill:#feeee7"/><path d="M40.71,246.27c2.59-6.73,1.81-15.73,1.45-22.82-.33-6.59-.16-15.62-5.48-20.32-1.73-1.53-4.78-1.53-6,.77-3.2,6.2-.75,13.83-.26,20.49.53,7.16-.58,14.88.85,21.88,1.05,5.17,7.84,4.06,9.4,0Z" transform="translate(-0.7 -169.21)" style="fill:#fff"/><path d="M39.05,248c3.38-1.82,5.8-5.85,7.84-9,1.79-2.78,4.2-7.07,3.27-10.44a2.74,2.74,0,0,0-2.62-2c-3.79.48-6.61,4.06-8.75,7-2.4,3.33-5,7-5.41,11.16-.33,3,3.4,4.48,5.67,3.26Z" transform="translate(-0.7 -169.21)" style="fill:#fff"/><path d="M39.32,243.41a82,82,0,0,0-4.76-8.67c-1.72-2.76-3.28-5.78-6.23-7.39-3.31-1.8-6.46,1.16-5.92,4.55.5,3.07,2.75,5.5,4.41,8s3.35,5.23,5.06,7.83c3.08,4.68,9.79.64,7.44-4.36Z" transform="translate(-0.7 -169.21)" style="fill:#fff"/><path d="M499.62,228.74a21.84,21.84,0,0,1-16.36,18.94A58.06,58.06,0,0,1,460.31,250c-4.18-.39-8.43-1.07-12.2-3a22.22,22.22,0,0,1-8.73-8.23,19,19,0,0,1-1.8-3.61,24.23,24.23,0,0,1-1-3.83c-.15-.7-.4-2-.59-3.44l0-.21a25.9,25.9,0,0,1,.76-11.41,28.4,28.4,0,0,1,2.09-4.92,36.53,36.53,0,0,1,3.24-6.07,17.91,17.91,0,0,0,2.3-5.24,10,10,0,0,0,.21-1.73c.07-1.41-.09-2.85-.11-4.26A15.89,15.89,0,0,1,452.12,180a20.08,20.08,0,0,1,4.64-2,23.69,23.69,0,0,1,3.55-.8l4.21-.59c1.15-.16,1.45-.87,1.83-1.87a7.15,7.15,0,0,1,3-3.54,5.32,5.32,0,0,1,2.66-1,1.43,1.43,0,0,1,1.4,1,1.76,1.76,0,0,1-.08.85,7.14,7.14,0,0,1-1.07,2.18.45.45,0,0,0-.13.43c.63-.13,1.24-.44,1.89-.56s1.47-.18,2.21-.24a8.63,8.63,0,0,1,2.27.05c.43.09,2.53,1,1.53,1.39a4.46,4.46,0,0,0-1.25.73c-.5.37-.27.37-1,1.07a5.26,5.26,0,0,1-1.36,1s-.05,0-.05,0,.08.08.1.09a.86.86,0,0,0,.34.08,1.43,1.43,0,0,1,.58.23c1.09.56,2.27.94,3.35,1.54a23.12,23.12,0,0,1,3.3,2.16,20.1,20.1,0,0,1,7.87,14.52,18.18,18.18,0,0,1-.6,5.92,10.36,10.36,0,0,1-.44,1.33,18.32,18.32,0,0,1,3.19,3.1A26.76,26.76,0,0,1,499.62,228.74Z" transform="translate(-0.7 -169.21)" style="fill:#fdbd6f"/><path d="M476.74,191.79a5.81,5.81,0,0,1,2.61-3.33,5.73,5.73,0,0,1,4.52-.46,5.54,5.54,0,0,1-1.61,10.81,5.84,5.84,0,0,1-3.41-.8,5.22,5.22,0,0,1-1.88-2A5.55,5.55,0,0,1,476.74,191.79Z" transform="translate(-0.7 -169.21)" style="fill:#fff5ec"/><path d="M482.08,193.42a1.49,1.49,0,0,0,.46.85,1.54,1.54,0,0,0,1.78.18,1.41,1.41,0,0,0,.65-.83,1.44,1.44,0,0,0-.07-1,1.46,1.46,0,0,0-.5-.61,1.46,1.46,0,0,0-2.32,1.39Z" transform="translate(-0.7 -169.21)" style="fill:#74706b"/><path d="M445.1,190.68a5.29,5.29,0,0,1,5.73-2.84,5.48,5.48,0,0,1-.64,10.81,5.47,5.47,0,0,1-5.67-5.3A5.34,5.34,0,0,1,445.1,190.68Z" transform="translate(-0.7 -169.21)" style="fill:#fff5ec"/><path d="M446.44,193.29a1.39,1.39,0,0,0,.41.78,1.36,1.36,0,0,0,1.6.16,1.28,1.28,0,0,0,.6-.76,1.31,1.31,0,0,0-.08-.9,1.32,1.32,0,0,0-2-.59A1.39,1.39,0,0,0,446.44,193.29Z" transform="translate(-0.7 -169.21)" style="fill:#74706b"/><path d="M460.53,192.5l.26-.28c2-2,6.29-1.56,6.8,1.59.34,2.11-1.77,4.09-3.34,5.14a3.72,3.72,0,0,0-1.53,1.43c-.18.46-.33.82-.89.62a3.81,3.81,0,0,1-1.86-1.66,6.11,6.11,0,0,1-.5-3.84A5.58,5.58,0,0,1,460.53,192.5Z" transform="translate(-0.7 -169.21)" style="fill:#f5825f"/><path d="M461.35,196.34a1,1,0,0,1-.36.57.74.74,0,0,1-.6.18c-.36-.11-.43-.7-.46-.91a3,3,0,0,1,.13-1.07,3.26,3.26,0,0,1,.33-1,1.35,1.35,0,0,1,.75-.75,1,1,0,0,1,.89.14,1,1,0,0,1,.16.93,2.88,2.88,0,0,1-.43.9A5.59,5.59,0,0,0,461.35,196.34Z" transform="translate(-0.7 -169.21)" style="fill:#feeee7"/><path d="M469.39,247.27c1.44-7,.33-14.71.85-21.88.48-6.64,2.93-14.31-.25-20.49-1.19-2.3-4.24-2.3-6-.77-5.3,4.68-5.15,13.76-5.48,20.32-.36,7.1-1.14,16.09,1.45,22.82,1.56,4.06,8.35,5.18,9.4,0Z" transform="translate(-0.7 -169.21)" style="fill:#fff"/><path d="M467.32,245.74c-.45-4.14-3-7.82-5.41-11.16-2.13-3-5-6.54-8.74-7a2.72,2.72,0,0,0-2.62,2c-.93,3.35,1.48,7.68,3.26,10.44,2.05,3.17,4.45,7.18,7.84,9,2.28,1.22,6-.26,5.67-3.26Z" transform="translate(-0.7 -169.21)" style="fill:#fff"/><path d="M468.83,248.77c1.71-2.6,3.36-5.23,5.06-7.83s3.91-5,4.4-8c.54-3.4-2.62-6.35-5.92-4.55-2.94,1.61-4.5,4.63-6.22,7.39a83,83,0,0,0-4.77,8.67c-2.35,5,4.36,9,7.45,4.36Z" transform="translate(-0.7 -169.21)" style="fill:#fff"/></g></svg>