<svg id="Layer_2" data-name="Layer 2" xmlns="http://www.w3.org/2000/svg" viewBox="0 0 214.72 148.79"><title>header-kiwi</title><path d="M127.13,198.72c-11.4,7.87-34.52,16.27-28.52,34.72,5,15.48,28.91,16.21,41.94,15.47,3.84-.22,3.86-6.22,0-6-10.11.57-31.65,1-36.15-11.06-5.36-14.29,17.29-22.11,25.76-27.94,3.15-2.18.16-7.38-3-5.19Z" transform="translate(-53.01 -128.08)" style="fill:#fff"/><path d="M131.63,202.15c8.05-8.24,13.18-18.9,19.82-28.23,6.92-9.74,14.91-19,24.53-26.16,18-13.41,43.1-19.59,63.15-6.74,18.6,11.92,22.52,38.71,22.59,59.09,0,11.17-2.06,23-9.83,31.58-7.45,8.18-18.46,11.79-28.87,14.47-26.9,6.93-55.6,7.46-81.78-2.63-3.6-1.38-5.17,4.41-1.59,5.79,25.44,9.8,53.44,9.83,79.8,3.88,11.71-2.65,24-6.18,33.35-14.08,8.42-7.12,12.78-17.49,14.23-28.23,1.63-12.11.2-24.61-2.13-36.54-2.23-11.37-6.16-22.82-14.19-31.45-16.31-17.5-42.9-18.23-63.52-8.79-13,6-24.05,15.66-33.14,26.61A188.67,188.67,0,0,0,141.43,178c-4.45,6.81-8.31,14-14,19.9-2.7,2.76,1.54,7,4.24,4.24Z" transform="translate(-53.01 -128.08)" style="fill:#fff"/><path d="M178.37,254.68a46.06,46.06,0,0,1-7.83,17.85c-2.25,3.14,3,6.14,5.18,3a50.12,50.12,0,0,0,8.43-19.28c.78-3.77-5-5.38-5.78-1.59Z" transform="translate(-53.01 -128.08)" style="fill:#fff"/><path d="M232,246.56c-.5,8.95,1.12,21.54,11,24.73,3.68,1.18,5.26-4.61,1.59-5.79-6.8-2.18-6.95-13.28-6.63-18.94.21-3.86-5.79-3.85-6,0Z" transform="translate(-53.01 -128.08)" style="fill:#fff"/><path d="M100.29,222.42c-18.71,6.74-32.9,20.65-46.43,34.7-2.67,2.78,1.56,7,4.25,4.24,12.73-13.23,26.13-26.8,43.78-33.15,3.6-1.3,2-7.1-1.6-5.79Z" transform="translate(-53.01 -128.08)" style="fill:#fff"/><path d="M58.87,261.54c7.43-6,15-11.92,23.47-16.46a64.07,64.07,0,0,1,13.06-5.36c3-.83,6.6-.63,8.48-3.37a3,3,0,0,0-.47-3.63l-.22-.23a3.05,3.05,0,0,0-2.92-.77l-.35.1a3.08,3.08,0,0,0-2.1,3.69l0,.22c.54,3.8,6.32,2.19,5.79-1.6l0-.22-2.1,3.69.35-.09-2.92-.77.23.22-.47-3.63c.8-1.17.61-.55-.86-.37a24.14,24.14,0,0,0-3.24.75,60.74,60.74,0,0,0-6.29,2,81.78,81.78,0,0,0-11.91,5.78c-7.74,4.54-14.82,10.12-21.78,15.76-3,2.43,1.27,6.65,4.25,4.24Z" transform="translate(-53.01 -128.08)" style="fill:#fff"/><path d="M118.35,215.4c-4.42-.37-8.37,4.2-7.06,8.52s6.4,6.34,10.11,3.9a7.17,7.17,0,0,0,1.42-10.5c-2.77-3.08-7.63-2.89-10.57-.23s1.38,6.82,4.24,4.24a1.53,1.53,0,0,1,1.91,0c-.14-.12.14.47.13.37a1.5,1.5,0,0,1-.38,1.1.39.39,0,0,1-.28.07,1.11,1.11,0,0,1-.79-.56c-.26-.64.69-1,1.27-.92a3,3,0,0,0,3-3,3.06,3.06,0,0,0-3-3Z" transform="translate(-53.01 -128.08)" style="fill:#fff"/><path d="M87.27,238.85A32.42,32.42,0,0,1,99.39,233l-3.69-2.1c-.32-1,.5-.54-.56-.85a8.72,8.72,0,0,0-2.44.1l-4.38.17c-3.84.15-3.86,6.15,0,6,4.32-.17,15.51.64,13.16-7a3.06,3.06,0,0,0-3.69-2.1A39.59,39.59,0,0,0,83,234.61c-3,2.38,1.24,6.6,4.24,4.24Z" transform="translate(-53.01 -128.08)" style="fill:#fff"/><path d="M118,217.88a5.25,5.25,0,0,0-2.63,4.79,3.23,3.23,0,0,0,.87,2.12,3.1,3.1,0,0,0,2.13.88,3,3,0,0,0,3-3,2.81,2.81,0,0,1,0-.58l-.11.8a3.31,3.31,0,0,1,.17-.56l-.3.72a2.1,2.1,0,0,1,.13-.26c.17-.26.1-.17-.21.25l.21-.2c-.42.31-.5.38-.25.22a3,3,0,1,0-3-5.18Z" transform="translate(-53.01 -128.08)" style="fill:#fff"/></svg>