<svg id="Layer_10" data-name="Layer 10" xmlns="http://www.w3.org/2000/svg" viewBox="0 0 182.59 156.84"><title>headphones</title><path d="M101.44,67.86c.85-16.85,11-32.72,26.48-39.82,16-7.36,38.31-4.78,50.51,8.64,13.14,14.45,7.66,38.95-.67,54.29-8.76,16.15-22.62,28.69-36.39,40.52-14.58,12.54-32.7,25.44-40.7,43.54-.78,1.75,1.81,3.28,2.59,1.51,4.36-9.86,12-17.65,19.77-25,8.15-7.69,16.85-14.75,25.26-22.13,14.87-13,29.29-27.7,36.45-46.52,6.19-16.3,7.42-39.11-7.31-51.32C164,20.48,144.19,18.05,128.2,24.66c-17.36,7.18-28.82,24.63-29.76,43.2-.09,1.93,2.91,1.92,3,0Z" transform="translate(-6.51 -21.02)" style="fill:#575d77"/><path d="M101.14,68.08C94.49,51.63,86.38,33,68.54,26.19c-16.88-6.44-36.44,0-48.61,12.7a47.51,47.51,0,0,0-10,50.7c6.92,17,20.68,30.34,35.27,41,8.71,6.34,18,11.7,27.18,17.29,9.84,6,19.37,12.74,24.9,23.14.9,1.71,3.5.2,2.59-1.51-7.3-13.74-21.14-21.3-34-29-14.69-8.81-29.18-18.61-40.41-31.71C12.85,94.07,5.06,75.19,12.34,56.16,19,38.82,36.76,26.35,55.41,26.7c24,.47,35,22.8,42.84,42.17.71,1.77,3.61,1,2.89-.79Z" transform="translate(-6.51 -21.02)" style="fill:#575d77"/><path d="M97.92,171.79a29.45,29.45,0,0,1,1.78,5,1.5,1.5,0,0,0,2.89-.8,33,33,0,0,0-2.08-5.71c-.81-1.75-3.4-.23-2.59,1.51Z" transform="translate(-6.51 -21.02)" style="fill:#575d77"/><path d="M90.43,119.56c-4-.86-9.68,1.15-10,5.9-.37,5.91,7.28,5.17,10.81,3.87,4-1.46,7.95-5.67,4.12-9.66C93.92,118.15,92,118,90,118.35c-2.83.49-6.49,1.48-8.79,3.31-3.47,2.75-1.81,7.82,2.19,9s11.46-1.3,13-5.55c2-5.58-5.66-6.51-9.19-6.05-4.16.55-10.16,3.49-8.05,8.67,4.39,10.79,23.87-2.33,15.15-8.74-3.65-2.68-10.52-.28-12.8,3.32-2.7,4.28,1.31,8.63,5.89,7.87,4-.66,10.25-5,7.6-9.73-2.77-5-9.49.16-11.48,3.23a3.66,3.66,0,0,0,.19,4.61c1.63,1.8,4.27,1.56,6.26.57,2.74-1.35,7.47-7.25,2.57-9.05-3.73-1.38-11.26,5.11-7.64,8.58,3,2.92,9.81-3.35,8.87-6.79-1.21-4.45-9.55,1.12-9,4.31.39,2.11,3.07,2.41,4.73,1.87a5.84,5.84,0,0,0,3.93-5.66,1.51,1.51,0,0,0-1.89-1.45,6.47,6.47,0,0,0-4.11,3.22,1.52,1.52,0,0,0,1.7,2.21,5.8,5.8,0,0,0,2.8-1.82c1.26-1.46-.85-3.59-2.12-2.13l-1.48,1,1.69,2.21a3,3,0,0,1,2.31-1.84l-1.9-1.45a4,4,0,0,1-2.61,3.44c.24-.07,2.5-2.31,2.64-2.12-.34-.45-.89.89-1.4,1.33-1.6,1.41-3,1.88-.77-.41a7.38,7.38,0,0,1,1.32-1.24c1.57.06,2,.45,1.19,1.17a4.53,4.53,0,0,1-1,1.09,1.29,1.29,0,0,1-2.26.1c-1.43-.24-1.6-.69-.51-1.36a11.09,11.09,0,0,1,1.42-1.23,7.78,7.78,0,0,1,1.45-1q3.63-.3,2.19,1.75c-.46,1.91-6.81,5.69-8.07,2.87l.29-3a6,6,0,0,1,1.65-1.21,10.83,10.83,0,0,1,3-1.2c1.71-.4,4.14-.49,4.34,2.21.11,1.52-1.46,2.92-2.57,3.63-1.79,1.15-4.59,2.28-6.75,1.55s-3-2.82-1.28-4.62a7.44,7.44,0,0,1,3.28-1.55c1.5-.38,5.17-1.09,6.53,0,3,2.49-2.95,4.84-4.48,5.28a6.44,6.44,0,0,1-3.93.18c-2-.77-2.47-2.64-.87-4s4.18-1.83,6-2.26c1.17-.27,2.88-.78,3.89.23,1.58,1.58,0,3.27-1.41,4a14,14,0,0,1-3.77,1.32c-1.87.41-3,.76-3.8-1.15-.72-1.76.06-2.42,1.72-3.19a5.46,5.46,0,0,1,3.63-.35c1.88.41,2.68-2.48.8-2.89Z" transform="translate(-6.51 -21.02)" style="fill:#575d77"/><path d="M96.65,123a168.25,168.25,0,0,0-5.92-38.43l-1,1.85a36.25,36.25,0,0,0,27.19-20.79l-2.74-.35a299.24,299.24,0,0,1,5.63,40.32c.13,1.92,3.14,1.93,3,0A306.3,306.3,0,0,0,117,64.47a1.51,1.51,0,0,0-2.74-.36,33.6,33.6,0,0,1-25.4,19.41,1.51,1.51,0,0,0-1,1.84A164.67,164.67,0,0,1,93.65,123c.07,1.92,3.07,1.93,3,0Z" transform="translate(-6.51 -21.02)" style="fill:#575d77"/><path d="M121.2,107.1a12.43,12.43,0,0,0-9.5-.92c-2.33.75-5.71,2.58-5.23,5.51s3.76,3.52,6.15,3.37c3-.19,6.41-1.65,8.18-4.17a3.65,3.65,0,0,0-1.7-5.75c-2.87-1.2-6.63-.19-9.17,1.36-2.22,1.37-5.43,4.29-3.58,7.11,1.62,2.46,5.39,2.35,7.92,1.88s6.57-2.1,7.57-4.86-1.57-5.29-4.24-5.57c-3.11-.32-7.42,1.14-9.38,3.66-1.74,2.25-.69,5.19,1.61,6.56,4.4,2.62,14.8-4,10.45-8.79-3.78-4.19-14.09,3.74-10.43,7.28,2.45,2.37,7.15.41,9.05-1.71,1.64-1.84,2.11-5.09-1.11-5.41-2.06-.2-6.63,2-6.46,4.51.27,4,5.64.71,6.78-.75a1.52,1.52,0,0,0-1.06-2.56,3.08,3.08,0,0,0-2.8,1.24c-1.18,1.5.93,3.64,2.13,2.13l.67-.37L116,108.29c-.13.16-1.84,2.06-2.1,1.81l.39,1.46c.13-.62,2.08-1.68,2.8-1.89l.14-.36-.7.91a5.15,5.15,0,0,1-2.29,1.33c-.74.2-1.76.63-1.4-.55.11-.36.84-.88,1.12-1.13a5.73,5.73,0,0,1,2.5-1.39q1.92-1,.87,2l-.6.58a6.1,6.1,0,0,1-4.07,1.95c-1.89,0-2.31-1.53-1.29-3.08.37-.57,1.64-.93,2.22-1.16a9.39,9.39,0,0,1,2.91-.7l1.39.12.85,1.89c-.29,1-3.16,2-4.07,2.29a7.61,7.61,0,0,1-4.14.33c-1.29-.45-1.8-1.22-.68-2.31a9.19,9.19,0,0,1,1.6-1.25,9.67,9.67,0,0,1,4.58-1.43c.4,0,1.35-.11,1.68.15,1.5,1.16-.1,2.16-.8,2.66a8.66,8.66,0,0,1-4.68,1.6c-.53,0-2,.09-2.31-.38-.55-.76.27-1.46.81-1.79a9.16,9.16,0,0,1,9-.21c1.72.88,3.24-1.71,1.52-2.59Z" transform="translate(-6.51 -21.02)" style="fill:#575d77"/></svg>