<?xml version="1.0" encoding="utf-8"?>
<!-- Generator: Adobe Illustrator 26.5.0, SVG Export Plug-In . SVG Version: 6.00 Build 0)  -->
<svg version="1.1" id="Layer_9" xmlns="http://www.w3.org/2000/svg" xmlns:xlink="http://www.w3.org/1999/xlink" x="0px" y="0px"
	 viewBox="0 0 144.4 113.9" style="enable-background:new 0 0 144.4 113.9;" xml:space="preserve">
<style type="text/css">
	.st0{fill:#FB6952;}
</style>
<path class="st0" d="M15.3,73.8c0.1-8.8-0.6-18.3,2.6-26.7c3.1-7.6,7-14.8,11.8-21.5C39.3,11.8,54.4,5,70.8,3.5
	C78.5,2.9,86.6,2.9,94,5.4c7.7,2.7,15.3,7.4,22.1,12c15.2,10.2,20.7,25.2,25.4,42.2c0.2,0.8,1.1,1.2,1.9,1c0.8-0.2,1.2-1,1-1.8
	c-3.6-12.9-7.5-26.4-17.2-36.2c-4.9-5-10.9-8.8-16.9-12.3s-12-7-18.7-8.7c-12.1-3-26.4-1.5-38.1,2.6C41.1,8.4,31.7,16.5,24.8,27.5
	c-4,6.3-8.1,13.2-10.4,20.3c-2.7,8.2-2,17.4-2.1,25.9C12.3,75.7,15.3,75.7,15.3,73.8z"/>
<path class="st0" d="M14.9,76.7c3,3,6.8,4,10.9,4.6c6.7,0.8,13.5,1.3,20.3,1.2c13.4,0,26.9-1.4,40-4.3c1.9-0.4,1.1-3.3-0.8-2.9
	c-11.6,2.5-23.5,3.9-35.4,4.2c-5.4,0.1-10.8-0.1-16.1-0.4c-5.6-0.4-12.5-0.3-16.8-4.4C15.6,73.3,13.5,75.4,14.9,76.7L14.9,76.7z"/>
<path class="st0" d="M91,78c0.8-3,1-3.3,4-4.3c1.8-0.6,3.8-0.9,5.7-1.3l13.4-3l-1.9-1.8c-2.3,11.8,25.5-2.2,29.2-4.3
	c0.7-0.4,0.9-1.4,0.5-2.1c-0.4-0.7-1.3-0.9-2-0.5c-4.1,2.3-8.4,4.3-12.8,5.8c-1.3,0.4-12.4,4.2-11.9,1.9c0.2-0.8-0.3-1.6-1.1-1.8
	c-0.2-0.1-0.5-0.1-0.7,0l-23,5.2c-0.5,0.1-0.9,0.5-1.1,1l-1.2,4.5c-0.2,0.8,0.3,1.6,1.1,1.8C90,79.1,90.7,78.7,91,78L91,78z"/>
<path class="st0" d="M11.6,72c-2.8,4.4-7.9,6.6-11,10.8c-1.2,1.6,1.5,3,2.6,1.5c3.1-4.2,8.2-6.3,11-10.8
	C15.2,71.9,12.6,70.4,11.6,72z"/>
<path class="st0" d="M0.4,85.4c6.2,7.6,17.1,12,26.1,15.2c1.8,0.6,2.6-2.2,0.8-2.9c-8.4-3-19-7.3-24.8-14.4
	C1.3,81.8-0.8,83.9,0.4,85.4z"/>
<path class="st0" d="M26.8,101.3C45.9,94.8,65,88.2,84,81.5c1.8-0.6,1-3.5-0.8-2.9c-19,6.7-38.1,13.3-57.2,19.8
	C24.2,99.1,25,102,26.8,101.3z"/>
<path class="st0" d="M125.1,71.5c1.8-0.3,3.7-0.1,5.4,0.4c0.7,0.2,5.1,2,4.1,3.3c-1.2,1.5,0.9,3.6,2.1,2.1c2-2.3,0.6-4.9-1.6-6.5
	c-2.9-2-6.5-2.8-10-2.3C123.2,68.7,123.1,71.7,125.1,71.5L125.1,71.5z"/>
<path class="st0" d="M135.5,65.6c1.2,5.3-0.7,13.9-4.6,18c-0.6,0.6-0.6,1.6,0,2.1c0.4,0.4,0.9,0.5,1.4,0.4c1.8-0.6,4-0.5,5.4-1.8
	s2-3.7,2.6-5.4c1.9-5.5,3.2-11.1,2.8-16.9c-0.1-1.9-3.1-1.9-3,0c0.3,3.9-0.2,7.8-1.2,11.5c-0.4,1.6-0.9,3.1-1.5,4.6
	c-1.5,3.3-3.1,4.2-6,5.1l1.5,2.5c4.7-5,6.8-14.3,5.3-20.9C137.9,63,135,63.8,135.5,65.6L135.5,65.6z"/>
<path class="st0" d="M45.9,80.4L30,90c-1.4,0.8-0.5,3.4,1.2,2.7c6.8-2.7,13.5-5.5,20.2-8.5c1.8-0.8,0.2-3.4-1.5-2.6
	c-6.4,2.9-12.9,5.7-19.4,8.2l1.2,2.7L47.4,83C49,82,47.5,79.4,45.9,80.4L45.9,80.4z"/>
<path class="st0" d="M14,74.1c-3.1,1.9-6,4-8.9,6.2c-1.5,1.2,0.6,3.3,2.1,2.1c2.6-2.1,5.4-4,8.3-5.8C17.1,75.7,15.6,73.1,14,74.1z"
	/>
<path class="st0" d="M55.3,76.3L55,72.7c0-0.8-0.7-1.5-1.5-1.5c-0.1,0-0.2,0-0.4,0l-3.8,0.3l1.1,1.4C50,56,58,40,71.8,30.2
	c6.5-4.7,14.2-7.6,22.3-8.4c8-0.6,19.9,0.3,26.3,5.7c1.5,1.2,3.6-0.9,2.1-2.1c-6.5-5.5-16.7-6.5-24.9-6.7c-9.3,0-18.3,2.8-26,8
	C56.2,36.9,47,54.3,47.4,72.9c0,0.7,0.5,1.3,1.1,1.4c1.8,0.4,3.7,0.3,5.4-0.3L52,72.6l0.3,3.6C52.5,78.1,55.5,78.1,55.3,76.3
	L55.3,76.3z"/>
<path class="st0" d="M75.4,2.8C64.9,5.2,55.1,10.2,47,17.3c-7.4,6.5-15.5,15.9-16.4,26.1c-0.2,1.9,2.8,1.9,3,0
	c0.9-9.7,9.5-19,16.7-24.9c7.5-6.2,16.4-10.6,25.9-12.7C78.1,5.3,77.3,2.4,75.4,2.8z"/>
<path class="st0" d="M132.1,67.4l-1,1c-0.6,0.6-0.6,1.6,0,2.1c0.4,0.4,0.9,0.5,1.4,0.4c1.2-0.2,2.2-0.8,3.1-1.5l-2.5-1.5l-0.7,2.3
	c-0.2,0.8,0.3,1.6,1.1,1.8c0.4,0.1,0.8,0,1.1-0.1c1.1-0.5,1.9-1.4,2.4-2.5c0.3-0.6,0.2-1.3-0.2-1.8c-0.1-0.1-0.2-0.2-0.2-0.3
	c0.4-0.7,0.1-1.7-0.6-2.1c-0.2-0.1-0.4-0.2-0.7-0.2c-1.1,0.1-2.1,0.4-2.9,1c-0.6,0.4-1.5,1.3-2.3,1.2c-1.9-0.3-2.7,2.6-0.8,2.9
	c1.1,0.2,2.3,0,3.3-0.6c0.8-0.5,1.7-1.4,2.7-1.4l-1.3-2.3c-0.7,1.3-0.4,3,0.6,4l-0.2-1.8c-0.3,0.6-0.8,1.1-1.4,1.4l2.2,1.7l0.7-2.3
	c0.2-0.8-0.3-1.6-1.1-1.8c-0.5-0.1-1,0-1.4,0.4c-0.5,0.4-1.1,0.7-1.8,0.8l1.5,2.5l1-1C135.5,68.2,133.4,66.1,132.1,67.4L132.1,67.4z
	"/>
<path class="st0" d="M97.3,74.7c3,11.3,9.5,21.6,14.8,31.9c0.9,1.7,3.5,0.2,2.6-1.5c-5.2-10.1-11.6-20.2-14.5-31.2
	c-0.2-0.8-1.1-1.2-1.9-1C97.5,73.1,97.1,73.9,97.3,74.7z"/>
<path class="st0" d="M99.3,72.5c3.7,11.1,7.6,22.2,11.6,33.2c0.7,1.8,3.6,1,2.9-0.8c-4-11-7.9-22-11.6-33.2
	C101.6,69.8,98.7,70.7,99.3,72.5z"/>
<path class="st0" d="M123.3,71.3l-11.7,34.4c-0.6,1.8,2.3,2.6,2.9,0.8l11.7-34.4C126.8,70.3,123.9,69.5,123.3,71.3L123.3,71.3z"/>
<path class="st0" d="M125.7,70.1L113.2,105c-0.6,1.8,2.2,2.6,2.9,0.8l12.5-34.9C129.2,69.1,126.4,68.3,125.7,70.1L125.7,70.1z"/>
<path class="st0" d="M110.1,104.2c-0.4,2.4-0.5,4.9-0.3,7.4c0.2,1.8,1.3,2,3,2.3c1.8,0.2,3.1-0.1,3.4-2.1c0.3-2.4,0.4-4.9,0.6-7.3
	c0.1-1.9-2.9-1.9-3,0l-0.3,3.6c-0.1,0.9,0.1,2.8-0.3,3.6l0.9-0.7c-0.3,0.1-0.6,0.1-0.9,0c-0.8-0.3-0.9,0-0.3,0.7
	c-0.1-0.8-0.1-1.6,0-2.5c0-1.6,0.2-3.3,0.3-4.9C113.2,102.3,110.2,102.3,110.1,104.2L110.1,104.2z"/>
</svg>
