<svg id="Layer_9" data-name="Layer 9" xmlns="http://www.w3.org/2000/svg" viewBox="0 0 144.41 113.87"><title>helmet</title><path d="M43.72,102.71c.14-8.83-.61-18.33,2.56-26.73A101.85,101.85,0,0,1,58.08,54.5c9.6-13.73,24.73-20.5,41.12-22,7.7-.68,15.82-.67,23.19,1.89,7.73,2.68,15.3,7.39,22.06,12,15.15,10.25,20.73,25.23,25.4,42.18a1.5,1.5,0,0,0,2.89-.8c-3.56-12.94-7.48-26.42-17.2-36.22-4.91-5-10.87-8.78-16.88-12.27s-12-7-18.7-8.72c-12.09-3-26.45-1.48-38.14,2.56C69.47,37.38,60.11,45.41,53.23,56.44c-3.95,6.34-8.09,13.17-10.4,20.32-2.67,8.25-2,17.4-2.11,25.95,0,1.93,3,1.93,3,0Z" transform="translate(-28.4 -28.96)" style="fill:#575d77"/><path d="M43.26,105.68c3.05,3,6.77,4,10.92,4.57a156.77,156.77,0,0,0,20.32,1.22,186.67,186.67,0,0,0,40-4.27c1.89-.41,1.09-3.3-.8-2.9a184,184,0,0,1-35.39,4.15c-5.38.09-10.77-.06-16.13-.44-5.59-.41-12.51-.29-16.78-4.45-1.39-1.35-3.51.77-2.13,2.12Z" transform="translate(-28.4 -28.96)" style="fill:#575d77"/><path d="M119.4,106.93c.82-3,1-3.31,4-4.27,1.84-.59,3.85-.86,5.74-1.29l13.39-3-1.85-1.84c-2.31,11.75,25.5-2.21,29.16-4.33a1.5,1.5,0,0,0-1.51-2.59,73.5,73.5,0,0,1-12.83,5.77c-1.31.45-12.37,4.2-11.92,1.95a1.53,1.53,0,0,0-1.85-1.85l-23,5.16a1.47,1.47,0,0,0-1.05,1l-1.2,4.46a1.5,1.5,0,0,0,2.89.8Z" transform="translate(-28.4 -28.96)" style="fill:#575d77"/><path d="M40,101c-2.82,4.39-7.93,6.6-11,10.78-1.16,1.55,1.45,3,2.59,1.52,3.11-4.19,8.16-6.33,11-10.78,1-1.63-1.55-3.14-2.59-1.52Z" transform="translate(-28.4 -28.96)" style="fill:#575d77"/><path d="M28.76,114.35c6.16,7.58,17.11,12,26.07,15.19,1.82.65,2.61-2.25.8-2.89-8.39-3-19-7.31-24.75-14.42-1.22-1.5-3.33.64-2.12,2.12Z" transform="translate(-28.4 -28.96)" style="fill:#575d77"/><path d="M55.21,130.3q28.66-9.75,57.21-19.84c1.81-.64,1-3.54-.8-2.89q-28.54,10.08-57.2,19.84c-1.82.61-1,3.51.79,2.89Z" transform="translate(-28.4 -28.96)" style="fill:#575d77"/><path d="M153.46,100.42a12.44,12.44,0,0,1,5.42.41c.7.22,5.12,2,4.06,3.28-1.24,1.47.87,3.6,2.12,2.12,2-2.34.64-4.94-1.61-6.49a14.47,14.47,0,0,0-10-2.32c-1.89.24-1.92,3.24,0,3Z" transform="translate(-28.4 -28.96)" style="fill:#575d77"/><path d="M163.87,94.56c1.2,5.34-.71,13.87-4.57,18a1.51,1.51,0,0,0,1.46,2.51c1.78-.56,4-.54,5.43-1.82s2-3.65,2.64-5.39c1.92-5.51,3.25-11.06,2.83-16.92-.14-1.92-3.14-1.93-3,0a33.6,33.6,0,0,1-1.25,11.49,33.67,33.67,0,0,1-1.47,4.63c-1.48,3.35-3.05,4.19-6,5.12l1.46,2.5c4.71-5,6.82-14.31,5.34-20.88-.42-1.89-3.31-1.09-2.89.79Z" transform="translate(-28.4 -28.96)" style="fill:#575d77"/><path d="M74.27,109.34,58.38,119c-1.4.84-.49,3.38,1.15,2.74q10.2-4,20.16-8.53c1.75-.8.23-3.39-1.51-2.59q-9.62,4.39-19.45,8.23l1.16,2.74,15.89-9.63c1.65-1,.14-3.6-1.51-2.59Z" transform="translate(-28.4 -28.96)" style="fill:#575d77"/><path d="M42.36,103.1a95.74,95.74,0,0,0-8.88,6.24c-1.51,1.19.62,3.3,2.12,2.12a89.39,89.39,0,0,1,8.28-5.77c1.64-1,.13-3.61-1.52-2.59Z" transform="translate(-28.4 -28.96)" style="fill:#575d77"/><path d="M83.69,105.22l-.3-3.6a1.52,1.52,0,0,0-1.9-1.45l-3.84.27,1.1,1.45a51.08,51.08,0,0,1,21.47-42.76,45.27,45.27,0,0,1,22.26-8.4c8-.6,19.92.3,26.31,5.69,1.46,1.24,3.6-.87,2.12-2.12-6.46-5.45-16.7-6.55-24.88-6.67a46.88,46.88,0,0,0-26,8,54.13,54.13,0,0,0-24.23,46.21,1.52,1.52,0,0,0,1.11,1.44,10.64,10.64,0,0,0,5.43-.27l-1.9-1.44.3,3.6c.16,1.91,3.16,1.93,3,0Z" transform="translate(-28.4 -28.96)" style="fill:#575d77"/><path d="M103.79,31.77A65.48,65.48,0,0,0,75.38,46.25c-7.45,6.52-15.46,15.86-16.45,26.07-.18,1.92,2.82,1.91,3,0,.94-9.73,9.52-19,16.74-24.94a62.73,62.73,0,0,1,25.92-12.72c1.88-.44,1.08-3.33-.8-2.89Z" transform="translate(-28.4 -28.96)" style="fill:#575d77"/><path d="M160.45,96.38l-1,1a1.51,1.51,0,0,0,1.45,2.51A6.55,6.55,0,0,0,164,98.36l-2.51-1.46-.66,2.33a1.51,1.51,0,0,0,2.2,1.69,5.52,5.52,0,0,0,2.44-2.5,1.54,1.54,0,0,0-.24-1.81c-.08-.09-.25-.2-.18-.35A1.52,1.52,0,0,0,163.78,94a5.74,5.74,0,0,0-2.94,1c-.57.36-1.52,1.3-2.26,1.17-1.89-.31-2.7,2.58-.79,2.89a4.66,4.66,0,0,0,3.29-.64c.83-.48,1.69-1.38,2.7-1.41l-1.3-2.26a3.33,3.33,0,0,0,.65,4l-.23-1.82a2.85,2.85,0,0,1-1.36,1.42l2.2,1.69.67-2.32a1.51,1.51,0,0,0-2.51-1.46,3.72,3.72,0,0,1-1.76.77l1.46,2.5,1-1c1.34-1.39-.77-3.51-2.12-2.12Z" transform="translate(-28.4 -28.96)" style="fill:#575d77"/><path d="M125.68,103.61c3,11.29,9.45,21.6,14.78,31.91.89,1.71,3.48.2,2.59-1.52-5.2-10.06-11.56-20.18-14.48-31.19a1.5,1.5,0,0,0-2.89.8Z" transform="translate(-28.4 -28.96)" style="fill:#575d77"/><path d="M127.69,101.43q5.53,16.66,11.62,33.15c.66,1.8,3.56,1,2.89-.8q-6.07-16.47-11.62-33.15c-.6-1.82-3.5-1-2.89.8Z" transform="translate(-28.4 -28.96)" style="fill:#575d77"/><path d="M151.69,100.28,140,134.65c-.62,1.83,2.27,2.62,2.89.8l11.73-34.37c.62-1.83-2.28-2.62-2.9-.8Z" transform="translate(-28.4 -28.96)" style="fill:#575d77"/><path d="M154.08,99.07l-12.49,34.86c-.65,1.82,2.25,2.61,2.89.8L157,99.87c.65-1.82-2.24-2.61-2.89-.8Z" transform="translate(-28.4 -28.96)" style="fill:#575d77"/><path d="M138.47,133.13a36.49,36.49,0,0,0-.34,7.38c.21,1.84,1.33,2,3,2.26,1.81.24,3.13-.13,3.35-2.15.27-2.41.38-4.85.57-7.27.14-1.93-2.86-1.92-3,0l-.29,3.63c-.06.86.14,2.82-.32,3.56l.9-.69a1.76,1.76,0,0,1-.91,0c-.76-.28-.85,0-.27.7a14.62,14.62,0,0,1,0-2.46c0-1.65.16-3.29.31-4.92.18-1.92-2.82-1.91-3,0Z" transform="translate(-28.4 -28.96)" style="fill:#575d77"/></svg>