<?xml version="1.0" encoding="utf-8"?>
<!-- Generator: Adobe Illustrator 22.0.1, SVG Export Plug-In . SVG Version: 6.00 Build 0)  -->
<svg version="1.1" id="Layer_1" xmlns="http://www.w3.org/2000/svg" xmlns:xlink="http://www.w3.org/1999/xlink" x="0px" y="0px"
	 viewBox="0 0 200 70" style="enable-background:new 0 0 200 70;" xml:space="preserve">
<style type="text/css">
	.st0{fill:#FFFFFF;}
	.st1{fill:#FDBD6F;}
	.st2{fill:#FFF5EC;}
	.st3{fill:#74706B;}
	.st4{fill:#F5825F;}
	.st5{fill:#FFBE70;}
	.st6{fill:#FEEEE7;}
</style>
<g>
	<g>
		<path class="st0" d="M12.4,15.9c-0.8,15.4-1.6,30.9-2.3,46.3c-0.3,5.8,8.7,5.8,9,0c0.8-15.4,1.6-30.9,2.3-46.3
			C21.7,10.1,12.7,10.1,12.4,15.9L12.4,15.9z"/>
	</g>
</g>
<g>
	<g>
		<path class="st0" d="M14.4,44.2c11.7,0.9,23.4-0.1,34.9-2.8c5.6-1.3,3.3-10-2.4-8.7c-10.7,2.5-21.5,3.3-32.5,2.5
			C8.6,34.8,8.6,43.8,14.4,44.2L14.4,44.2z"/>
	</g>
</g>
<g>
	<g>
		<path class="st0" d="M41.4,14.4c0.9,16.7,1.5,33.5,1.8,50.2c0.1,5.8,9.1,5.8,9,0c-0.3-16.8-0.9-33.5-1.8-50.2
			C50.1,8.7,41.1,8.6,41.4,14.4L41.4,14.4z"/>
	</g>
</g>
<g>
	<g>
		<path class="st0" d="M97.1,29.5C97,40,97.4,50.4,98.3,60.7c0.5,5.7,9.5,5.8,9,0c-0.9-10.4-1.3-20.8-1.2-31.2
			C106.2,23.7,97.2,23.7,97.1,29.5L97.1,29.5z"/>
	</g>
</g>
<g>
	<g>
		<path class="st0" d="M107.6,40.6c1.3-2.3,3.9-6.1,6.8-6.3c2.1-0.2,1.8,1.3,2.6,3.3c0.7,1.8,1.3,3.6,2,5.4c1.4,3.8,5.9,4.3,8.2,1.1
			c3.4-4.7,12.7-16.7,15.6-5.5c2,7.6,2.1,15.9,1.5,23.7c-0.4,5.8,8.6,5.8,9,0c0.5-6.8,0.3-13.5-0.7-20.3c-0.8-5.3-1.9-11.1-6.2-14.7
			c-10.4-8.8-21.3,4.6-27,12.3c2.7,0.4,5.5,0.7,8.2,1.1c-2.3-6.2-3.8-15.8-12.3-15.5c-6.6,0.2-12.5,5.6-15.6,11.1
			C97,41.1,104.7,45.7,107.6,40.6L107.6,40.6z"/>
	</g>
</g>
<g>
	<g>
		<path class="st0" d="M161.7,50.2c6.9-0.2,15.8,0,22.4-2.5c5.5-2.1,5.2-7.9,2.9-12.3c-2.4-4.8-6.8-10.4-12.3-11.5
			c-5.8-1.1-11.2,2.8-14.5,7.2c-6.9,9.1-6.8,22.8,1.4,31.1c8.4,8.6,22.5,7,27.2-4.5c2.2-5.4-6.5-7.7-8.7-2.4
			c-1.9,4.6-7.7,4-10.9,1.5c-3.7-2.8-5.3-7.5-4.9-12.1c0.3-4,2.3-8.9,5.9-11c2.4-1.4,3.9-0.8,5.7,1.1c1.1,1.2,4.4,5,3.7,6.8
			c0.7-0.9,1.4-1.8,2.1-2.7c-2.3,1.5-6.9,1.4-9.6,1.6c-3.4,0.3-6.7,0.5-10.1,0.6C155.9,41.4,155.9,50.4,161.7,50.2L161.7,50.2z"/>
	</g>
</g>
<g>
	<path class="st1" d="M101,50.6c-0.6,3.5-1.8,6.9-4,9.6c-2.4,3-6,5-9.6,6.1c-6.1,2-12.8,2.5-19.1,1.9c-3.5-0.3-7-0.9-10.2-2.5
		c-3-1.5-5.5-4-7.3-6.9c-0.4-0.7-1-1.6-1.5-3c-0.4-1-0.5-1.7-0.8-3.2c-0.1-0.6-0.3-1.6-0.5-2.9c0-0.1,0-0.1,0-0.2
		c-0.4-3.3-0.4-6.4,0.6-9.5c0.5-1.4,1-2.8,1.7-4.1c0.6-1.8,1.7-3.4,2.7-5.1c0.8-1.4,1.6-2.8,1.9-4.4c0.1-0.5,0.2-1,0.2-1.4
		c0.1-1.2-0.1-2.4-0.1-3.6c-0.1-4.8,2.2-9.2,6.4-11.7c1.2-0.7,2.5-1.3,3.9-1.7c1-0.3,1.9-0.5,3-0.7c1.2-0.2,2.3-0.3,3.5-0.5
		c1-0.1,1.2-0.7,1.5-1.6c0.5-1.2,1.4-2.3,2.5-3c0.6-0.4,1.5-0.8,2.2-0.8c0.5,0,1.1,0.3,1.2,0.8c0,0.2,0,0.5-0.1,0.7
		c-0.2,0.7-0.5,1.3-0.9,1.8c-0.1,0.1-0.1,0.2-0.1,0.4c0.5-0.1,1-0.4,1.6-0.5c0.6-0.1,1.2-0.2,1.8-0.2c0.6,0,1.3-0.1,1.9,0
		c0.4,0.1,2.1,0.9,1.3,1.2c-0.4,0.1-0.6,0.3-1,0.6C83.2,7,83.4,7,82.7,7.6c-0.6,0.6-1.1,0.8-1.1,0.8c0,0,0,0,0,0
		c0,0,0.1,0.1,0.1,0.1c0.1,0.1,0.3,0.1,0.3,0.1c0.2,0,0.3,0.1,0.5,0.2c0.9,0.5,1.9,0.8,2.8,1.3c1,0.5,1.9,1.1,2.7,1.8
		c3.8,2.9,6.3,7.3,6.6,12.1c0.1,1.7-0.1,3.3-0.5,4.9c-0.1,0.4-0.2,0.7-0.4,1.1c1,0.7,1.9,1.6,2.7,2.6C100.5,37.6,102,44.2,101,50.6z
		"/>
	<g>
		<path class="st2" d="M81.9,19.8c0.1-0.4,0.6-1.9,2.2-2.8c1.7-1,3.5-0.5,3.8-0.4c2,0.6,3.3,2.5,3.2,4.6c-0.1,2.5-2.1,4.3-4.5,4.4
			c-0.6,0-1.7,0-2.8-0.7c-0.3-0.2-1.1-0.7-1.6-1.7C81.3,21.8,81.8,20.2,81.9,19.8z"/>
		<path class="st3" d="M86.4,21.2c0,0.1,0.1,0.5,0.4,0.7c0.4,0.4,1,0.4,1.5,0.1c0.1-0.1,0.4-0.3,0.5-0.7c0.1-0.4,0-0.7-0.1-0.8
			c-0.1-0.3-0.4-0.5-0.4-0.5c-0.4-0.3-1-0.4-1.4,0C86.5,20.3,86.3,20.7,86.4,21.2z"/>
	</g>
	<g>
		<path class="st2" d="M55.6,18.9c0.9-1.7,2.8-2.8,4.8-2.4c2,0.4,3.5,2.3,3.6,4.3c0.1,2.3-1.8,4.6-4.1,4.7c-2.5,0.2-4.6-1.9-4.7-4.4
			C55,20.3,55.2,19.6,55.6,18.9z"/>
		<path class="st3" d="M56.7,21.1c0,0.1,0.1,0.4,0.3,0.6c0.4,0.3,0.9,0.4,1.3,0.1c0.1,0,0.4-0.2,0.5-0.6c0.1-0.4,0-0.7-0.1-0.8
			c-0.1-0.3-0.3-0.4-0.4-0.5c-0.3-0.2-0.9-0.3-1.3,0C56.8,20.2,56.6,20.7,56.7,21.1z"/>
	</g>
	<g>
		<ellipse class="st4" cx="74.5" cy="49.9" rx="17.5" ry="17.7"/>
		<g id="Shape_1">
			<g>
				<polygon class="st5" points="77.2,22.3 73,22.3 73,61.1 77.2,61.1 77.2,22.3 				"/>
			</g>
		</g>
		<g id="Ellipse_2">
			<g>
				<path class="st5" d="M66.8,54.4c-5.8,0-10.5,2.9-10.5,6.6s4.7,6.6,10.5,6.6c0.8,0,1.5-0.1,2.3-0.2c0.7-0.1,1.4-0.2,2.1-0.4
					c2.7-0.8,5.8-2.5,6-5.7c0.1-1.8-0.9-3.4-2.3-4.5C72.7,55.1,69.6,54.4,66.8,54.4L66.8,54.4z"/>
			</g>
		</g>
		<path class="st1" d="M74.1,40.5c0.5,0.5,0.9,0.9,1.5,1.3c0.8,0.5,1.6,0.9,2.4,1.2c1.1,0.5,2.1,0.8,3.1,1.4c1,0.6,1.9,1.2,2.7,2
			c0.8,0.8,1.4,1.7,2,2.6c0.3,0.5,0.7,1.1,0.9,1.6c0.1,0.3,0.2,0.6,0.3,0.9c0.1,0.3,0.1,0.7,0.2,0.9c0.1,0,0.1-0.1,0.1-0.1
			c0.7-0.9,0.8-2.1,0.8-3.1c0-1.3-0.1-2.6-0.5-3.9c-0.3-1.1-0.9-2.2-1.6-3.2c-0.6-0.9-1.3-1.9-2.2-2.7c-0.9-0.8-1.9-1.5-2.8-2.3
			c-1.6-1.3-3.2-2.9-4.2-4.7c-0.1-0.3-0.3-0.5-0.4-0.8c0-0.1-0.1-0.7-0.3-0.7C75.6,30.6,73.3,39.8,74.1,40.5z"/>
	</g>
	<g>
		<path class="st4" d="M68.4,20.4c0.1-0.1,0.1-0.2,0.2-0.2c1.6-1.6,5.2-1.3,5.7,1.3c0.3,1.8-1.5,3.4-2.8,4.3
			c-0.5,0.3-1.1,0.6-1.3,1.2c-0.2,0.4-0.3,0.7-0.7,0.5c-0.6-0.2-1.2-0.8-1.6-1.4c-0.5-1-0.6-2.1-0.4-3.2
			C67.6,22,67.8,21.1,68.4,20.4z"/>
		<path class="st6" d="M69.1,23.6c0,0.1-0.1,0.3-0.3,0.5c-0.1,0-0.3,0.2-0.5,0.2c-0.3-0.1-0.4-0.6-0.4-0.8c0-0.3,0-0.5,0.1-0.9
			c0.1-0.4,0.1-0.6,0.3-0.9c0.1-0.2,0.3-0.5,0.6-0.6c0,0,0.5-0.1,0.7,0.1c0.2,0.2,0.2,0.6,0.1,0.8c-0.1,0.3-0.2,0.4-0.4,0.8
			C69.3,22.9,69.2,23.2,69.1,23.6z"/>
	</g>
</g>
</svg>
