<?xml version="1.0" encoding="UTF-8"?><svg id="Layer_2" xmlns="http://www.w3.org/2000/svg" viewBox="0 0 236.72 299.26"><g id="Layer_1-2"><path d="M82.07,137.21c-4.24,.41-7.65,2.49-10.7,5.36-2.8,2.63-5.9,5.03-8.06,8.26l3.89,.51-.29-1.32-4.1,1.13c1.34,5.09,2.68,10.19,4.02,15.28s2.68,9.66,4.86,14.21c2.09,4.36,4.71,8.45,7.31,12.52,1.42,2.22,2.84,4.44,4.26,6.66,1.09,1.71,2.3,3.39,3.25,5.18s3.3,1.11,3.89-.51c3.36-9.33,6.24-18.82,8.61-28.45,1.18-4.77,2.23-9.58,3.16-14.41,.62-3.22,1.26-6.37,2.26-9.5,.22-.69-.01-1.57-.55-2.07-6.07-5.63-13.47-9.98-21.25-12.78-1.08-.39-2.33,.44-2.62,1.48-.32,1.18,.4,2.22,1.48,2.62,7.06,2.55,13.87,6.58,19.37,11.69l-.55-2.07c-.98,3.05-1.61,6.12-2.21,9.26-.94,4.91-2.01,9.79-3.2,14.64-2.37,9.63-5.26,19.12-8.61,28.45l3.89-.51c-.95-1.79-2.15-3.47-3.25-5.18-1.42-2.22-2.84-4.44-4.26-6.66-2.52-3.94-5.05-7.9-7.11-12.11-2.12-4.34-3.41-8.95-4.63-13.6-1.34-5.09-2.68-10.19-4.02-15.28-.7-2.66-4.68-1.53-4.1,1.13l.29,1.32c.42,1.9,2.93,1.93,3.89,.51,1.8-2.69,4.51-4.74,6.87-6.91s4.87-4.28,8.22-4.6c1.14-.11,2.13-.9,2.13-2.13,0-1.06-.98-2.24-2.13-2.13h0Z" fill="#fb6952"/><path d="M75.1,144.79c.6-.8,1.03-1.74,1.32-2.69s.33-1.92,.1-2.85c-.29-1.18-1.17-2.15-2.35-2.48s-2.5,.17-3.53,.79c-1.6,.96-2.86,2.44-3.59,4.15-.53,1.26-.7,2.65-.04,3.91,.62,1.18,1.86,1.8,3.14,1.91,.97,.09,1.86-.3,2.63-.85,.52-.37,.99-.81,1.55-1.13,.96-.56,1.38-1.95,.76-2.91s-1.88-1.36-2.91-.76c-.82,.47-1.46,1.21-2.33,1.6l.51-.21c-.09,.04-.18,.07-.27,.09l.57-.08c-.17,.02-.33,.02-.5,0l.57,.08c-.18-.03-.35-.07-.52-.14l.51,.21c-.14-.06-.26-.14-.39-.23l.43,.33c-.09-.08-.17-.16-.25-.26l.33,.43c-.08-.11-.14-.21-.19-.33l.21,.51c-.05-.14-.08-.27-.1-.42l.08,.57c-.02-.18-.01-.36,.01-.54l-.08,.57c.05-.33,.15-.65,.28-.96l-.21,.51c.23-.53,.52-1.02,.87-1.48l-.33,.43c.35-.45,.75-.85,1.19-1.2l-.43,.33c.44-.34,.92-.63,1.44-.85l-.51,.21c.21-.09,.43-.16,.66-.19l-.57,.08c.12-.01,.22-.01,.33,0l-.57-.08c.1,.02,.19,.04,.29,.08l-.51-.21c.07,.03,.13,.07,.19,.11l-.43-.33c.08,.06,.14,.13,.21,.2l-.33-.43c.08,.1,.14,.21,.19,.32l-.21-.51c.07,.18,.11,.36,.14,.54l-.08-.57c.03,.29,.03,.57,0,.85l.08-.57c-.07,.47-.22,.93-.41,1.37l.21-.51c-.22,.51-.5,1-.84,1.45-.31,.41-.34,1.16-.21,1.64s.52,1.03,.98,1.27c.49,.26,1.09,.39,1.64,.21s.92-.51,1.27-.98h0Z" fill="#fb6952"/><path d="M88.07,144.29c1.82,1.71,4.74,2.45,6.97,1.06,2.12-1.32,3.07-4.12,2.09-6.43s-3.71-3.48-6.11-3.56-4.9,1.27-5.35,3.72c-.22,1.23-.08,2.48,.54,3.57,.66,1.17,1.91,1.98,3.28,1.96,1.11-.02,2.18-.96,2.13-2.13s-.93-2.15-2.13-2.13c-.09,0-.18,0-.28-.02l.57,.08c-.11-.02-.21-.05-.32-.09l.51,.21c-.12-.05-.23-.12-.34-.2l.43,.33c-.13-.1-.23-.21-.33-.34l.33,.43c-.13-.17-.23-.36-.32-.56l.21,.51c-.09-.24-.16-.48-.19-.73l.08,.57c-.03-.28-.04-.56,0-.84l-.08,.57c.04-.22,.09-.44,.18-.65l-.21,.51c.07-.16,.16-.3,.26-.44l-.33,.43c.14-.17,.3-.32,.47-.46l-.43,.33c.2-.15,.42-.28,.65-.38l-.51,.21c.33-.14,.66-.22,1.01-.27l-.57,.08c.43-.05,.85-.04,1.28,.01l-.57-.08c.57,.08,1.12,.24,1.65,.46l-.51-.21c.39,.17,.76,.37,1.1,.63l-.43-.33c.19,.16,.36,.33,.52,.52l-.33-.43c.14,.19,.26,.38,.36,.6l-.21-.51c.09,.22,.15,.45,.19,.69l-.08-.57c.03,.27,.03,.53,0,.8l.08-.57c-.04,.3-.12,.59-.24,.87l.21-.51c-.11,.25-.24,.48-.4,.7l.33-.43c-.16,.21-.35,.4-.55,.57l.43-.33c-.2,.15-.41,.26-.64,.36l.51-.21c-.25,.1-.5,.16-.76,.2l.57-.08c-.3,.03-.59,.03-.88,0l.57,.08c-.37-.05-.72-.15-1.06-.29l.51,.21c-.35-.15-.66-.34-.96-.57l.43,.33c-.11-.09-.21-.18-.31-.27-.81-.76-2.21-.86-3.01,0s-.87,2.19,0,3.01h0Z" fill="#fb6952"/><path d="M93.66,147.05c8.97-.51,17.69-3.5,25.03-8.7,.94-.66,1.38-1.86,.76-2.91-.54-.92-1.97-1.43-2.91-.76-6.73,4.77-14.64,7.66-22.89,8.12-2.72,.15-2.74,4.41,0,4.25h0Z" fill="#fb6952"/><path d="M65.93,149.43c-4.24-1.79-8.33-3.91-12.24-6.33-.95-.59-2.38-.23-2.91,.76s-.25,2.28,.76,2.91c3.91,2.43,8,4.54,12.24,6.33,1.02,.43,2.33,.34,2.91-.76,.48-.91,.33-2.45-.76-2.91h0Z" fill="#fb6952"/><path d="M121.21,135.22c-.95-2.89-1.17-5.98-1.18-9.01,0-1.42-.08-3,.26-4.39,.07-.28,.19-.71,.4-.81,.34-.16,1.02,.23,1.34,.41,2.12,1.2,3.71,3.51,3.93,5.81,.12,1.33,.19,2.67,.1,4.01-.08,1.15-.12,2.07-.47,3.05-.21,.61-.54,1.18-1.01,1.63-.37,.35-1.05,.67-1.28,.69-1.07,.11-1.89-.43-2.07-1.39-.21-1.13-1.58-1.77-2.62-1.48-1.19,.33-1.7,1.48-1.48,2.62,.39,2.1,2.16,3.68,4.15,4.27,2.09,.62,4.25,.03,5.9-1.33,2.83-2.33,3.26-6.43,3.17-9.87-.05-2.05-.2-4.1-1.06-5.98-.8-1.75-2.08-3.38-3.58-4.6-1.63-1.32-3.7-2.42-5.86-1.97-2.82,.59-3.72,3.29-3.94,5.83-.38,4.46-.19,9.38,1.21,13.66,.85,2.59,4.96,1.48,4.1-1.13h0Z" fill="#fb6952"/><path d="M54.44,142.85c.59-4.98,.33-10.11-.85-15-.54-2.22-1.97-4.03-4.43-4.03s-4.31,1.7-5.62,3.48c-2.4,3.25-2.17,7.42-2.45,11.25-.21,2.83,.72,6.1,2.36,8.43,.48,.69,1.08,1.3,1.92,1.51,1.25,.31,2.88,.12,4.1-.2,2.6-.69,4.51-2.72,4.74-5.43,.1-1.15-1.05-2.13-2.13-2.13-1.23,0-2.03,.98-2.13,2.13-.08,.99-1.55,1.39-2.36,1.46-.36,.03-.83-.07-1.17,.02s-.08-.07,0,.04c.02,.03,.6,.33,.62,.33-.21-.13,.18,.34-.07-.07-.12-.21-.25-.42-.37-.63-.47-.89-.75-1.66-1.06-2.79-.07-.25-.13-.5-.19-.76-.03-.13-.12-.74-.08-.32-.06-.59,.01-1.16,.05-1.75,.17-2.52-.07-5.42,1.11-7.73,.51-1,1.34-2.18,2.47-2.52,.16-.05,.42-.03,.47-.04-.32,.1-.28-.43-.13,.08,.2,.7,.37,1.41,.51,2.13,.82,4.13,.91,8.38,.41,12.56-.14,1.14,1.07,2.13,2.13,2.13,1.26,0,1.99-.98,2.13-2.13h0Z" fill="#fb6952"/><path d="M52.15,125.42c-3.18-10.14,4.9-18.95,11.31-25.71,1.88-1.98-1.12-5-3.01-3.01-7.5,7.91-16.09,18.1-12.4,29.84,.82,2.6,4.92,1.49,4.1-1.13h0Z" fill="#fb6952"/><path d="M63.79,99.28c8.35-11.89,11.65-26.65,11.55-41.01-.05-7.32-.96-14.65-2.62-21.78-1.56-6.73-3.78-13.41-7.16-19.46-3.68-6.59-8.99-12.48-16.04-15.49-1.05-.45-2.28-.31-2.91,.76-.52,.89-.3,2.45,.76,2.91,12.08,5.16,17.69,18.38,20.73,30.32,3.37,13.23,4.16,27.43,1.08,40.79-1.72,7.46-4.68,14.54-9.08,20.81-.66,.94-.17,2.36,.76,2.91,1.06,.62,2.25,.18,2.91-.76h0Z" fill="#fb6952"/><path d="M47.71,4.2c6.21,2.36,11.67,6.34,16.47,10.88s8.86,9.35,12.54,14.62c7.49,10.73,12.97,22.73,17.08,35.13,2.31,6.99,4.2,14.11,5.8,21.29,.59,2.67,4.69,1.54,4.1-1.13-5.85-26.26-15.97-52.91-35.6-72.04C62.52,7.51,56.16,2.89,48.84,.1c-1.07-.41-2.33,.45-2.62,1.48-.33,1.2,.41,2.21,1.48,2.62h0Z" fill="#fb6952"/><path d="M99.18,68.7c.37-13.69,.77-28.06,7.2-40.49l-3.96-1.07c-.59,9.89-1.1,19.92-.52,29.81s2.85,19.74,5.14,29.44c.63,2.66,4.73,1.54,4.1-1.13-2.24-9.48-4.5-19.03-5.01-28.79-.51-9.74-.03-19.6,.55-29.33,.13-2.09-3.01-2.92-3.96-1.07-6.8,13.14-7.39,28.15-7.78,42.63-.07,2.74,4.18,2.74,4.25,0h0Z" fill="#fb6952"/><path d="M48.49,146.62c-1.36,17.87-3.64,35.69-7.12,53.28-.97,4.93-2.05,9.85-3.23,14.74-.64,2.66,3.46,3.79,4.1,1.13,4.28-17.72,7.16-35.76,9.1-53.88,.55-5.08,1.01-10.17,1.4-15.27,.21-2.73-4.05-2.72-4.25,0h0Z" fill="#fb6952"/><path d="M44.61,128.9c-.6,1.59-1.03,3.24-1.3,4.92-.09,.58-.09,1.11,.21,1.64,.26,.44,.76,.86,1.27,.98,.54,.12,1.16,.1,1.64-.21,.44-.28,.89-.74,.98-1.27,.27-1.68,.71-3.33,1.3-4.92,.18-.49,.04-1.2-.21-1.64s-.76-.86-1.27-.98c-.54-.12-1.16-.1-1.64,.21s-.77,.73-.98,1.27h0Z" fill="#fb6952"/><path d="M117.74,123.89c-.05,.53-.11,1.06-.13,1.59-.03,.61-.04,1.22-.05,1.84-.01,.54,.25,1.13,.62,1.5s.97,.65,1.5,.62,1.12-.21,1.5-.62,.61-.92,.62-1.5c.02-.61,.02-1.22,.05-1.84,.03-.53,.08-1.06,.13-1.59,.01-.29-.05-.57-.18-.82-.09-.26-.23-.49-.44-.68-.37-.37-.97-.65-1.5-.62s-1.12,.21-1.5,.62l-.33,.43c-.19,.33-.29,.69-.29,1.07h0Z" fill="#fb6952"/><path d="M38.15,214.64c-4.08,21.96-2.16,44.94,5.59,65.9,2.22,5.99,4.88,11.82,7.99,17.4,1.33,2.39,5.01,.25,3.67-2.15-10.51-18.87-15.7-40.52-15.07-62.1,.18-6.02,.81-12,1.91-17.92,.21-1.13-.31-2.29-1.48-2.62-1.03-.28-2.4,.35-2.62,1.48h0Z" fill="#fb6952"/><path d="M79.29,163.51c.19,6.16,.61,12.3,1.51,18.41,1,6.8,2.58,13.49,4.29,20.14,.68,2.65,4.78,1.53,4.1-1.13-1.68-6.54-3.24-13.12-4.24-19.8-.87-5.83-1.22-11.73-1.4-17.62-.08-2.73-4.34-2.74-4.25,0h0Z" fill="#fb6952"/><path d="M96.1,186.96l4.32-7.69c1.41-2.5,2.92-4.98,4.1-7.6s1.96-5.17,1.84-7.96-1.06-5.61-2.35-8.17-4.89-.3-3.67,2.15c1.04,2.08,1.81,4.35,1.78,6.7s-.98,4.66-2.06,6.75c-2.38,4.63-5.08,9.13-7.63,13.67-1.34,2.39,2.33,4.53,3.67,2.15h0Z" fill="#fb6952"/><path d="M79.29,149.92v6.04c0,1.11,.98,2.18,2.13,2.13s2.13-.93,2.13-2.13v-6.04c0-1.11-.98-2.18-2.13-2.13s-2.13,.93-2.13,2.13h0Z" fill="#fb6952"/><path d="M134.76,110.4c2.51,6.35,4.56,12.86,7.17,19.18,1.53,3.72,3.15,7.43,5.15,10.92,1.48,2.58,3.26,5.43,5.85,7.03,1.85,1.15,4.37,1.41,6.48,1.09,2.97-.44,5.08-2.44,6.61-4.91,3.24-5.21,5.02-11.42,5.39-17.52,.7-11.6-4.32-23.3-14.12-29.82-4.96-3.3-12.39-6.11-18.17-3.44-2.76,1.28-4.64,4.05-5.37,6.94-.88,3.51-.15,7.17,1.01,10.52,.89,2.57,5,1.47,4.1-1.13-1.35-3.9-2.59-10.46,2.27-12.6,2.25-.99,4.97-.45,7.23,.2s4.22,1.56,6.13,2.76c8.59,5.38,12.95,15.35,12.71,25.29-.13,5.37-1.58,10.71-4.15,15.42-1.08,1.98-2.36,4.03-4.84,4.15-.96,.05-1.87-.14-2.78-.41-.43-.13,.33,.17,.07,.03-.1-.06-.21-.1-.31-.17-.13-.09-.74-.52-.32-.19-2.03-1.61-3.18-3.68-4.5-6.07-1.67-3.02-3.09-6.18-4.4-9.37-2.58-6.27-4.61-12.74-7.11-19.04-.42-1.07-1.42-1.81-2.62-1.48-1.02,.28-1.91,1.54-1.48,2.62h0Z" fill="#fb6952"/><path d="M160.86,144.16c-2.99,.21-6.73,.58-8.76-2.12-.96-1.28-1.53-2.86-2.13-4.33-.75-1.84-1.5-3.68-2.24-5.52-3-7.44-5.89-14.94-8.25-22.61-.68-2.2-1.31-4.41-1.89-6.64-.26-1-1.34-3.86,.32-4.17,1.18-.22,1.7-1.57,1.48-2.62-.66-3.23-5.14-3.77-7.81-2.99-3.19,.92-5.35,3.61-6.39,6.66-1.24,3.65-.61,7.6,.09,11.29s1.59,7.48,2.64,11.15c1.89,6.59,4.22,13.22,7.68,19.17,3.18,5.46,7.63,10.75,13.41,13.57,3.34,1.63,7.65,2.47,10.89,.11,2.84-2.07,4.24-5.78,2.53-9.02-1.28-2.42-4.95-.27-3.67,2.15,.75,1.43-.62,3.2-1.91,3.77-2.34,1.04-5.22-.31-7.21-1.51-4.2-2.55-7.45-6.37-9.97-10.54-2.7-4.46-4.62-9.32-6.24-14.26-1.93-5.86-3.57-11.93-4.46-18.04-.41-2.84-.5-6.11,1.27-8.55,1.39-1.93,3.91-2.7,5.89-1.19l-.98-1.27,.13,.65,1.48-2.62c-1.94,.36-3.42,2.08-3.83,3.97-.49,2.28,.31,4.63,.9,6.81,1.22,4.52,2.66,8.98,4.23,13.39s3.32,8.94,5.1,13.36c.86,2.14,1.73,4.27,2.6,6.41,.78,1.91,1.49,3.94,2.7,5.63,2.96,4.13,7.69,4.5,12.38,4.17,2.71-.19,2.73-4.45,0-4.25h0Z" fill="#fb6952"/><path d="M109.13,88.08c3.38,.91,6.35,2.94,9.28,4.8,2.68,1.7,5.43,3.56,7.37,6.12,.69,.91,1.83,1.39,2.91,.76,.9-.53,1.46-1.99,.76-2.91-2.36-3.09-5.38-5.41-8.64-7.49s-6.71-4.35-10.55-5.39c-2.64-.71-3.77,3.39-1.13,4.1h0Z" fill="#fb6952"/><path d="M153.37,155.51c.51,2.66,.98,5.32,1.43,7.99,.08,.49,.56,1.03,.98,1.27,.46,.27,1.13,.38,1.64,.21,1.19-.38,1.68-1.44,1.48-2.62-.45-2.67-.93-5.33-1.43-7.99-.21-1.09-1.58-1.82-2.62-1.48-1.17,.38-1.71,1.44-1.48,2.62h0Z" fill="#fb6952"/><path d="M155.81,165.03c8.91,7.96,17.83,15.92,26.74,23.89,8.22,7.34,16.51,14.62,24.23,22.5,4.31,4.4,8.43,9,12.22,13.86,.71,.91,2.26,.74,3.01,0,.89-.89,.71-2.1,0-3.01-6.76-8.65-14.53-16.42-22.59-23.86s-17.03-15.32-25.57-22.94c-5.01-4.48-10.03-8.96-15.04-13.44-2.04-1.82-5.05,1.18-3.01,3.01h0Z" fill="#fb6952"/><path d="M140.98,94.75c.11-15.87-8.91-30.87-23.14-37.99-3.9-1.95-8.06-3.32-12.37-4-1.13-.18-2.29,.29-2.62,1.48-.28,1.01,.34,2.44,1.48,2.62,14.14,2.21,26.14,12.12,30.54,25.81,1.26,3.92,1.87,7.96,1.85,12.07-.02,2.74,4.23,2.74,4.25,0h0Z" fill="#fb6952"/><path d="M136.55,94.6c-.83-13.82-7.52-27.75-20.52-33.89-3.46-1.63-7.1-2.61-10.91-2.88-2.73-.2-2.72,4.06,0,4.25,7.45,.53,14.26,4.59,19,10.25,5.18,6.18,7.71,14.32,8.18,22.27,.16,2.72,4.42,2.74,4.25,0h0Z" fill="#fb6952"/><path d="M97.26,51.87h-2.94c-.55,0-1.12,.24-1.5,.62-.21,.19-.35,.42-.44,.68-.13,.25-.19,.53-.18,.82,.02,.55,.21,1.12,.62,1.5s.93,.62,1.5,.62h2.94c.55,0,1.12-.24,1.5-.62,.21-.19,.35-.42,.44-.68,.13-.25,.19-.53,.18-.82-.02-.55-.21-1.12-.62-1.5s-.93-.62-1.5-.62h0Z" fill="#fb6952"/><path d="M70.44,60.4c-5.57,4-11.51,8.23-14.94,14.34-3.19,5.68-4.17,12.38-5.19,18.73-.18,1.13,.29,2.29,1.48,2.62,1.01,.28,2.43-.34,2.62-1.48,.94-5.83,1.75-12.12,4.59-17.39,3.03-5.63,8.51-9.5,13.58-13.14,.93-.67,1.38-1.85,.76-2.91-.54-.92-1.97-1.44-2.91-.76h0Z" fill="#fb6952"/><path d="M59.36,92.26c.8-9.04,6.25-18.92,14.67-22.87,1.04-.49,1.3-1.98,.76-2.91-.62-1.07-1.87-1.25-2.91-.76-9.81,4.6-15.86,16.09-16.78,26.54-.24,2.73,4.01,2.71,4.25,0h0Z" fill="#fb6952"/><path d="M64.47,93.62c-5.33-2.69-11.71-1.8-16.6,1.45s-8.49,8.32-10.95,13.53c-2.75,5.82-3.05,12.2-3.28,18.53s.09,12.71,2.86,18.42c2.51,5.18,7.22,9.65,13.05,10.62,1.13,.19,2.29-.3,2.62-1.48,.28-1.02-.35-2.43-1.48-2.62-4.33-.72-7.68-3.64-9.82-7.37-2.6-4.53-3.07-9.9-3.03-15.02,.04-5.42,.07-11.27,1.77-16.46,1.54-4.68,4.57-9.36,8.19-12.71s9.61-5.71,14.53-3.22c2.44,1.23,4.59-2.44,2.15-3.67h0Z" fill="#fb6952"/><path d="M166.36,137.27c6.61,8.57,15.8,14.34,25.27,19.32s20.18,9.69,28.44,17.17c7.25,6.56,13.1,15.95,12.26,26.08-.21,2.5-1.1,4.75-2.91,6.51-1.65,1.61-3.74,2.71-5.82,3.65-5.11,2.3-10.61,3.9-16.04,5.23-22.11,5.38-45.13,4.97-67.3,10.01-10.44,2.37-20.74,5.96-29.85,11.66-8.53,5.34-16.23,12.9-19.55,22.6-1.59,4.64-1.91,9.72-.68,14.48s3.83,8.85,7.18,12.26c7.63,7.78,18.29,10.85,28.81,12.2,2.81,.36,5.64,.61,8.47,.81s2.72-4.05,0-4.25c-10.58-.78-21.76-2.16-30.59-8.57-7.51-5.46-12.05-14.35-9.73-23.64,2.37-9.46,9.88-16.93,17.88-22.01,8.91-5.65,18.95-9.13,29.19-11.46,21.95-4.99,44.72-4.64,66.63-9.85,5.51-1.31,10.96-2.97,16.19-5.15,4.44-1.85,9.05-4.42,11.09-9.03s1.59-10.74,.15-15.66-3.99-9.35-7.15-13.32c-13.71-17.26-37.25-21.09-53.11-35.64-1.86-1.7-3.62-3.54-5.16-5.54-.7-.91-1.83-1.39-2.91-.76-.89,.52-1.47,1.99-.76,2.91h0Z" fill="#fb6952"/><path d="M157.64,57.15c-3.27-3.34-8.85-5.26-13.43-4-2.39,.66-4.88,2.29-4.93,5.05-.06,2.98,2.56,5.05,5.27,5.56,4.63,.88,11.05,.86,13.43-4.04,1.26-2.59,1.43-5.8,1.25-8.63-.19-2.97-.83-5.9-1.81-8.71-2.28-6.53-6.17-12.28-9.61-18.22l-2.4,3.12c6.82,2.04,13.94,3.01,21.05,2.87,2.73-.05,2.74-4.3,0-4.25-6.77,.13-13.44-.78-19.92-2.72-1.8-.54-3.31,1.54-2.4,3.12,4.53,7.84,10.45,15.84,10.86,25.23,.09,1.95,.07,4.2-.7,6.04-.64,1.52-2.06,2.1-3.61,2.26-1.77,.18-3.87,.15-5.6-.31-.59-.16-1.38-.45-1.55-1.13-.05-.19-.1-.15,.11-.37s.54-.37,.8-.49c3.28-1.48,7.79,.18,10.18,2.61,1.92,1.96,4.92-1.05,3.01-3.01h0Z" fill="#fb6952"/><path d="M177.11,84.81c-2.75-3.98-8.03-5.8-12.67-4.3-2.39,.77-5.3,2.61-5.45,5.39-.16,3,2.88,4.36,5.35,4.88,4.52,.96,10.17,.45,13.42-3.22,1.97-2.23,2.58-5.03,2.68-7.94,.12-3.38,.02-6.79,.03-10.17,0-7.82,.01-15.63,.02-23.45l-3.63,1.5c6.18,5.52,13.57,9.51,21.6,11.6,2.65,.69,3.78-3.41,1.13-4.1-7.31-1.9-14.08-5.47-19.72-10.5-1.34-1.2-3.63-.41-3.63,1.5,0,11.06,.19,22.14-.04,33.19-.04,1.91-.21,3.98-1.55,5.47-1.06,1.18-2.55,1.78-4.07,2.09-1.6,.33-3.35,.28-4.95-.04-.78-.16-1.54-.57-2.28-.72-.54-.11,.12-.09-.09,.11,.29-.28,.54-.55,.87-.77,2.82-1.95,7.35-1.22,9.31,1.62,1.55,2.24,5.23,.11,3.67-2.15h0Z" fill="#fb6952"/><path d="M16.74,95.51c-2.35-.42-4.59-1.39-6.85-2.13s-5.27-1.67-7.54-.35c-2.15,1.25-2.77,4.02-2.07,6.29,.87,2.85,3.5,4.33,6.36,4.52,2.7,.17,5.75-.68,8.09-2,3.02-1.69,4.05-4.41,4.34-7.71,.6-6.78,.58-13.63,.04-20.41-.62-7.77-1.95-15.48-3.96-23.01l-2.62,2.62c11.1,3.91,24.21,.64,32.22-7.96l-3.63-1.5c.47,4.85,.95,9.7,1.42,14.55,.24,2.47,.48,4.93,.72,7.4,.11,1.12,.25,2.24,.33,3.37,0,.08-.04,1.12,.01,1.16,0,0-.22,.4,.07-.08,.17-.29,.26,.05,.04-.15-.23-.21-1.22-.37-1.53-.47-.48-.14-.97-.26-1.47-.34-1.16-.19-2.29-.23-3.46-.02-1.91,.35-3.74,1.61-4.62,3.37-1.76,3.54,.73,7.17,4.4,7.81,4.74,.83,7.84-3.03,10.12-6.61,1.47-2.32-2.2-4.45-3.67-2.15-1.22,1.92-3.15,5.27-5.9,4.53-.74-.2-1.51-.66-1.23-1.49,.43-1.31,2.16-1.48,3.31-1.33,1.76,.23,3.35,1.26,5.18,.86s2.88-2.11,3.03-3.93-.28-3.88-.46-5.76c-.2-2.05-.4-4.11-.6-6.16-.47-4.85-.95-9.7-1.42-14.55-.17-1.71-2.27-2.96-3.63-1.5-7.05,7.57-18.33,10.3-28.08,6.87-1.57-.55-3.01,1.14-2.62,2.62,2.9,10.85,4.33,22.03,4.2,33.27-.03,2.85-.16,5.7-.39,8.54-.09,1.05-.11,2.24-.69,3.15-.52,.82-1.44,1.35-2.32,1.73-1.76,.77-4.27,1.52-6.16,.85-.98-.35-2.06-1.88-1.25-2.66,.25-.24,1.44-.02,1.97,.09,1.02,.22,2.02,.56,3.01,.89,2.04,.68,4.07,1.53,6.2,1.91,1.13,.2,2.29-.31,2.62-1.48,.28-1.03-.35-2.41-1.48-2.62h0Z" fill="#fb6952"/></g></svg>