<?xml version="1.0" encoding="UTF-8"?><svg id="Layer_2" xmlns="http://www.w3.org/2000/svg" viewBox="0 0 226.45 317.17"><g id="Layer_1-2"><path d="M178.63,33.58c0,4.03,0,8.05,0,12.08,0,1.11,.98,2.18,2.13,2.13s2.13-.93,2.13-2.13c0-4.03,0-8.05,0-12.08,0-1.11-.98-2.18-2.13-2.13s-2.13,.93-2.13,2.13h0Z" fill="#fb6952"/><path d="M179.77,43.65c-1.26,.12-2.42,.62-3.25,1.61-.78,.93-1.25,2.03-1.48,3.22-.25,1.31-.55,2.76,.26,3.94,.68,.99,1.84,1.6,3.01,1.8,1.84,.33,3.74,.01,5.34-.98s2.91-2.56,3.28-4.39c.17-.84,.18-1.63-.16-2.43s-.93-1.34-1.68-1.67c-1.27-.55-2.57-1.04-3.85-1.56-.48-.19-1.21-.03-1.64,.21s-.86,.76-.98,1.27c-.12,.54-.1,1.16,.21,1.64s.73,.76,1.27,.98c.81,.32,1.62,.65,2.43,.97,.2,.08,.39,.16,.59,.24,.08,.03,.42,.16,.08,.03-.31-.12-.06-.02,.02,.02,.05,.03,.1,.07,.15,.09-.16-.05-.35-.28-.43-.43-.24-.42-.12-.36-.09-.19-.03-.36-.05-.45-.04-.28,0,.06,0,.12,0,.18-.02,0,.12-.58,.03-.21-.02,.07-.03,.14-.05,.22-.04,.13-.08,.26-.12,.39-.1,.32,.25-.5,.03-.09-.07,.13-.14,.27-.22,.4-.07,.11-.16,.22-.23,.33,.32-.54,.16-.2,.01-.04-.09,.1-.19,.2-.28,.29-.07,.07-.49,.41-.17,.16s-.09,.06-.16,.1c-.11,.07-.23,.15-.35,.21-.1,.06-.21,.11-.32,.17-.06,.03-.13,.05-.19,.09,.56-.29,.3-.12,.13-.06-.26,.09-.52,.16-.79,.21-.05,0-.1,.01-.15,.03-.25,.06,.52-.05,.26-.04-.15,0-.3,.03-.45,.03-.13,0-.27,0-.4-.01-.53-.04,.4,.09,.06,.01-.29-.06-.56-.14-.83-.23-.23-.08,.42,.21,.19,.07-.07-.04-.14-.08-.2-.12-.23-.12,.34,.3,.16,.12s.25,.39,.12,.17c-.12-.2,.1,.32,.12,.38,.07,.29,0,.12,.02,.02,0,0,.03-.25,.02-.27-.04,.32-.05,.4-.03,.23,.01-.07,.02-.14,.03-.21,.06-.41,.13-.82,.23-1.23,.05-.2,.12-.39,.18-.59,.08-.27-.19,.38-.06,.13,.05-.09,.09-.19,.15-.29,.04-.07,.08-.13,.12-.2,.2-.35-.33,.34-.05,.06,.06-.05,.1-.11,.16-.17,.06-.06,.34-.28,.05-.06-.35,.27,.22-.17,.27-.14,.04,.03-.56,.16-.19,.09,.17-.03,.54-.07-.12,0,.58-.06,1.08-.2,1.5-.62,.37-.37,.65-.97,.62-1.5-.05-1.06-.94-2.24-2.13-2.13h0Z" fill="#fb6952"/><path d="M180.63,52.87c-1.8,20.97-1.67,42.79,5.23,62.91,.94,2.75,2.02,5.46,3.21,8.11,.59,1.31,1.21,2.61,1.86,3.9,.55,1.08,1.06,1.76,2.12,2.32,2.42,1.28,4.47-2.21,2.15-3.67-2.16-1.36-4.32-2.72-6.48-4.08-1.6-1.01-3.59,.66-3.12,2.4,.6,2.23,1.19,4.46,1.79,6.68l1.48-2.62c.37,.07,.42,.05,.16-.07-.19-.16-.36-.34-.52-.53-.31-.37-.57-.79-.88-1.16-.7-.86-1.55-1.44-2.61-1.77-1.13-.34-2.28,.41-2.62,1.48-.43,1.37-.96,2.66-1.63,3.93l3.67,2.15c.3-.58,.71-1.19,.71-1.87,0-1.41-.6-2.99-.89-4.37-.55-2.7-1.05-5.41-1.5-8.14-.88-5.33-1.55-10.7-2.02-16.09-.97-11.08-.97-22.22-1.17-33.32-.05-2.74-.21-5.49-.08-8.23,.1-2.11,.48-4.27,2.07-5.78,1.98-1.89-1.03-4.9-3.01-3.01-3.2,3.05-3.41,7.62-3.33,11.77,.1,5.58,.21,11.15,.31,16.73,.21,10.99,.71,21.9,2.19,32.8,.83,6.11,1.92,12.18,3.25,18.2l.21-1.64-.42,.8c-1.26,2.42,2.4,4.58,3.67,2.15,.83-1.59,1.52-3.24,2.05-4.94l-2.62,1.48c.88,.27,1.45,1.76,2.13,2.37,1.17,1.04,2.44,1.41,3.98,1.16,1.14-.18,1.76-1.6,1.48-2.62-.6-2.23-1.19-4.46-1.79-6.68l-3.12,2.4,6.48,4.08,2.15-3.67-.76-.4,.76,.76c-9.22-17.52-11.63-37.6-11.25-57.14,.11-5.6,.45-11.2,.93-16.78,.23-2.73-4.02-2.71-4.25,0h0Z" fill="#fb6952"/><path d="M109.44,162.23c-5.94-14.18-13.56-27.59-20.33-41.38-1.62-3.29-3.2-6.61-4.67-9.97-.75-1.7-1.54-3.41-2.07-5.19-.6-2.01-.43-3.85,.22-5.82,2.28-6.89,6.82-13.22,12.21-18.02,2.73-2.43,5.91-4.9,9.49-5.88,3.87-1.06,7.55,.53,10.74,2.66,5.97,4,10.86,9.91,13.69,16.5s3.25,14.25,.71,21.28c-2.25,6.24-6.02,11.9-9.12,17.74-2.81,5.28-5.54,10.6-8.3,15.91-1.89,3.63-3.66,7.41-5.86,10.87-.11,.17-.24,.33-.34,.51,.18-.31,.17-.34,.5-.49-1.05,.47-1.3,1.99-.76,2.91,.63,1.08,1.86,1.24,2.91,.76,.99-.45,1.65-1.99,2.15-2.88,1.09-1.92,2.12-3.88,3.14-5.84,2.87-5.46,5.67-10.95,8.54-16.42,3.15-5.99,6.78-11.81,9.59-17.96,1.81-3.96,3.14-8.06,3.49-12.41,.31-3.83-.17-7.75-1.25-11.44-2.18-7.45-6.74-14.22-12.55-19.32-3.15-2.77-6.78-5.38-10.88-6.49s-8.52-.14-12.3,2.05c-6.83,3.97-12.52,10.23-16.39,17.07-1.99,3.51-4.08,7.61-4.3,11.71s2.16,8.34,3.83,12.04c6.68,14.8,14.86,28.88,21.62,43.65,.75,1.64,1.49,3.3,2.19,4.96,.44,1.06,1.41,1.82,2.62,1.48,1-.27,1.93-1.55,1.48-2.62h0Z" fill="#fb6952"/><path d="M129.75,97.63c5.93,4.87,13.02,8.18,20.62,9.39,1.13,.18,2.29-.29,2.62-1.48,.28-1.01-.34-2.43-1.48-2.62-6.85-1.09-13.37-3.89-18.74-8.3-.89-.73-2.14-.87-3.01,0-.75,.75-.89,2.27,0,3.01h0Z" fill="#fb6952"/><path d="M79.56,96.38c-.05,.08-.1,.15-.14,.23-.2,.35,.32-.33,.09-.12-.18,.17-.34,.37-.52,.55-.2,.19-.4,.37-.62,.54-.11,.09-.23,.18-.35,.28,.47-.39,.01-.01-.11,.08-1.25,.91-2.57,1.72-3.9,2.5-2.51,1.47-5.1,2.81-7.7,4.12-.83,.42-1.78,.76-2.31,1.57-.38,.59-.41,1.56,0,2.15,.56,.8,1.46,1.22,2.43,.97,1.11-.28,1.79-1.52,1.48-2.62s-1.5-1.77-2.62-1.48c-.19,.05-.01,.02,.54-.07l1.84,1.05h0v2.14s-1.12,.86-.62,.67c.11-.04,.22-.12,.33-.17,.36-.18,.72-.36,1.08-.54,1.17-.59,2.34-1.19,3.5-1.8,2.77-1.46,5.57-2.97,8.1-4.83,1.17-.86,2.43-1.79,3.17-3.07,.57-.99,.23-2.33-.76-2.91s-2.33-.24-2.91,.76h0Z" fill="#fb6952"/><path d="M92.98,82.25l-1.39,2.9c-.44,.93-.96,1.85-1.28,2.82s-.37,1.98,.06,2.9c.47,1.01,1.62,1.55,2.7,1.49,1.62-.09,3.2-1.1,4.21-2.34s1.63-2.75,1.82-4.38-.19-3.44-1.17-4.81c-.46-.64-1.33-1.01-2.05-.54-.63,.41-1.03,1.37-.54,2.05,.15,.21,.29,.43,.41,.65,.05,.09,.19,.5,.07,.14,.04,.14,.1,.27,.14,.41,.05,.17,.22,.57,.17,.74,.05-.16-.02-.25-.01-.07,0,.05,.01,.11,.01,.16,.01,.16,.02,.33,.02,.49,0,.24,.01,.53-.05,.77,.08-.3,0-.06-.03,.09-.03,.16-.07,.32-.12,.48-.07,.25-.16,.49-.25,.73,.1-.28,.01-.04-.05,.09s-.13,.26-.21,.39c-.06,.11-.13,.22-.2,.33-.05,.07-.34,.43-.09,.14-.18,.21-.35,.41-.55,.6-.09,.09-.19,.17-.29,.25,.22-.2,.03-.02-.09,.06-.24,.17-.5,.29-.76,.43-.15,.08,.09-.04,.1-.04-.08,.02-.15,.06-.23,.08-.09,.03-.17,.05-.26,.07-.02,0-.24,.05-.07,.02,.19-.03-.1,0-.14,0-.17,.03,.04-.02,.07,.02l-.13-.03,.12,.05c.09,.08,.12,.12,.02,.01,.22,.24,.1,.1,.05,.04,.06,.07,.05,.29,.04,.06,0-.06,.01-.19,0-.02-.02,.21,0-.03,.02-.09,0-.06,0-.12,.01-.18-.02,.32-.02,.12,0,.04,.05-.16,.08-.33,.14-.49,.03-.08,.06-.16,.09-.24-.07,.19-.04,.09,.02-.04,.1-.21,.2-.41,.3-.62l.66-1.37,1.31-2.74c.34-.71,.22-1.65-.54-2.05-.67-.35-1.69-.22-2.05,.54h0Z" fill="#fb6952"/><path d="M117.65,82.77c.76,1.6,1.54,3.19,2.29,4.79,.01,.02,.09,.21,.02,.05-.07-.18,.02,.07,.04,.11,.05,.14,.09,.28,.13,.42,.02,.08,.03,.16,.05,.24,0-.03,0-.26-.01-.1,0,.07-.01,.17,0,.24,.06,.19,.02-.34,0,0,0,.04-.07,.21,0,.02,.1-.24-.14,.14,.03-.05,.13-.15,0,0-.03,.01,.08-.06,.13-.08,.22-.14-.03,.02-.23,.04-.06,.02,.2-.02-.09-.02-.13-.01-.16,.01,.02,0,.06,.01-.11-.03-.22-.05-.33-.08-.14-.04-.43-.17-.14-.04-.13-.06-.27-.12-.39-.19-.11-.06-.22-.13-.33-.2-.05-.03-.09-.06-.14-.09-.02-.01-.27-.23-.11-.08s-.14-.12-.18-.16c-.09-.09-.18-.18-.27-.27s-.17-.19-.25-.29c-.18-.2,0,0,.03,.05-.05-.07-.11-.15-.16-.22-.14-.21-.28-.43-.39-.66-.06-.11-.11-.23-.17-.35,.17,.34-.02-.06-.05-.16-.09-.26-.17-.53-.23-.8-.02-.1-.1-.28-.07-.38,0,.03,.04,.36,0,.07,0-.07-.01-.15-.02-.22-.02-.31-.02-.62,0-.93,0-.05,0-.11,.01-.16,.03-.35-.05,.22,0,.02,.04-.16,.06-.32,.1-.48,.04-.14,.08-.28,.13-.42,.02-.07,.05-.14,.08-.2-.03,.1-.11,.23-.02,.06,.15-.3,.31-.58,.5-.85,.46-.64,.13-1.7-.54-2.05-.77-.41-1.56-.15-2.05,.54-1.76,2.47-1.53,6.09,.16,8.53,.91,1.32,2.2,2.4,3.77,2.84,1.1,.31,2.33,.18,3.17-.67,.78-.79,.88-1.91,.69-2.95s-.76-2-1.21-2.95l-1.62-3.39c-.34-.71-1.41-.95-2.05-.54-.73,.47-.9,1.29-.54,2.05h0Z" fill="#fb6952"/><path d="M98.01,49.33c4.17,3.56,8.48,6.95,12.93,10.14,2.01,1.44,4.05,2.85,6.41,3.65,2.58,.87,5.36,.75,8,.22s5.09-1.49,7.58-2.37,5.18-1.84,7.78-2.76c1.98-.7,4.29-1.13,5.77-2.7,.76-.8,.95-1.93,1.26-2.97l1.31-4.27c1.9-6.17,3.79-12.35,5.69-18.52l-2.62,1.48c7.04,1.09,14.06,2.3,21.06,3.62,3.44,.65,6.87,1.32,10.29,2.03,3.22,.67,6.48,1.4,9.49,2.76,.96,.44,2.07,.36,2.74-.55,.58-.77,.67-2.12-.17-2.79-2.27-1.84-4.94-3.27-7.4-4.83-2.86-1.81-5.73-3.63-8.59-5.44-5.59-3.54-11.17-7.07-16.76-10.61-5.23-3.31-10.43-6.71-15.94-9.55-2.64-1.36-5.36-2.59-8.16-3.62-1.37-.5-2.77-.95-4.18-1.33s-2.97-.88-4.43-.93c-1.1-.04-2.24,.11-3.33,.17-2.85,.14-5.69,.29-8.54,.43-8.38,.42-16.76,.83-25.14,1.22-10.64,.5-21.27,.94-31.91,1.38-1.94,.08-3.11,3.02-1.07,3.96,2.37,1.1,4.84,1.94,7.27,2.88,3.31,1.28,6.59,2.61,9.85,4.01s6.54,2.88,9.76,4.4c1.58,.74,3.15,1.5,4.72,2.27,1.09,.54,2.03,.87,2.92,1.58l-.62-1.5c1.1,9.01,2.3,18.01,3.4,27.02,.14,1.14,.88,2.13,2.13,2.13,1.04,0,2.27-.98,2.13-2.13-.56-4.58-1.14-9.15-1.73-13.72-.28-2.18-.56-4.36-.83-6.53-.14-1.14-.29-2.28-.43-3.41-.16-1.26-.15-2.69-.49-3.91-.43-1.56-2.65-2.36-3.9-2.97-2.13-1.06-4.28-2.09-6.44-3.09-4.41-2.06-8.87-4-13.37-5.85-4.05-1.67-8.35-3.04-12.23-4.84l-1.07,3.96c17.89-.73,35.78-1.54,53.66-2.43,4.95-.25,9.9-.47,14.85-.74,.9-.05,1.73,.26,2.87,.54,2.8,.7,5.55,1.66,8.19,2.83,5.42,2.4,10.48,5.51,15.49,8.66,6.23,3.93,12.45,7.88,18.68,11.82,3.07,1.95,6.15,3.89,9.22,5.84,1.54,.97,3.07,1.95,4.61,2.92,1.26,.8,2.68,1.52,3.82,2.44l2.58-3.34c-6.35-2.89-13.51-3.84-20.31-5.13-7.16-1.36-14.34-2.59-21.54-3.71-1.16-.18-2.25,.28-2.62,1.48-2.53,8.23-5.06,16.47-7.59,24.7l.55-.94-.85,.81,.94-.55c-3.96,1.41-7.93,2.82-11.89,4.23-3.6,1.28-7.6,3.09-11.51,2.59-3.67-.47-6.84-3.35-9.7-5.48-3.28-2.44-6.47-5-9.58-7.66-2.07-1.77-5.09,1.23-3.01,3.01h0Z" fill="#fb6952"/><path d="M52.59,113.63c-2.24,13.38-4.78,26.71-7.61,39.97-.57,2.67,3.53,3.81,4.1,1.13,2.83-13.27,5.37-26.59,7.61-39.97,.19-1.13-.3-2.29-1.48-2.62-1.02-.28-2.42,.35-2.62,1.48h0Z" fill="#fb6952"/><path d="M160.92,109.49c2.99,14.38,5.97,28.75,8.96,43.13,.56,2.68,4.66,1.54,4.1-1.13-2.99-14.38-5.97-28.75-8.96-43.13-.56-2.68-4.66-1.54-4.1,1.13h0Z" fill="#fb6952"/><path d="M99.52,45.7c-8.68,.82-17.37,3.54-25.38,6.88-4.14,1.73-8.25,3.66-11.93,6.25s-6.67,6.1-8.5,10.44c-2.26,5.37-3.03,11.33-2.86,17.13,.08,2.73,4.33,2.74,4.25,0-.26-8.57,1.56-18.32,8.91-23.65,6.85-4.96,15.24-7.96,23.31-10.26,3.98-1.13,8.3-2.17,12.2-2.54,1.14-.11,2.13-.9,2.13-2.13,0-1.07-.98-2.23-2.13-2.13h0Z" fill="#fb6952"/><path d="M144.26,56.05c10.48,4.26,17.18,15.42,17.81,26.47,.16,2.72,4.41,2.74,4.25,0-.75-13.12-8.59-25.55-20.94-30.57-1.06-.43-2.34,.47-2.62,1.48-.33,1.22,.42,2.18,1.48,2.62h0Z" fill="#fb6952"/><path d="M31.13,174.62c-6.18,10.55-12.17,21.2-17.97,31.96-5.4,10.01-11.08,20.39-12.77,31.79-.45,3.02-.56,6-.08,9.02s1.49,5.61,2.69,8.25c2.22,4.88,5.19,9.36,8.51,13.56,6.71,8.51,14.89,15.81,22.79,23.17,9.39,8.75,19.1,17.26,30.02,24.06,2.33,1.45,4.47-2.23,2.15-3.67-9.39-5.85-17.84-13-25.98-20.46s-15.84-14.36-22.84-22.35c-3.33-3.8-6.37-7.86-8.85-12.27s-4.71-9.62-4.57-15.02,1.9-11.15,3.93-16.3,4.53-9.89,7.09-14.68c6.29-11.77,12.82-23.4,19.56-34.91,1.39-2.37-2.29-4.51-3.67-2.15h0Z" fill="#fb6952"/><path d="M48.28,159.67c11.07,8.84,22.22,17.8,31.01,29.01,.71,.9,2.26,.74,3.01,0,.89-.89,.71-2.1,0-3.01-8.79-11.21-19.95-20.17-31.01-29.01-.9-.72-2.13-.88-3.01,0-.74,.74-.9,2.29,0,3.01h0Z" fill="#fb6952"/><path d="M78.74,186.61c-3.47,15.59-5.07,31.55-6.69,47.42-1.76,17.26-3.53,34.52-5.29,51.78-1,9.74-1.99,19.48-2.99,29.23-.12,1.14,1.06,2.13,2.13,2.13,1.25,0,2.01-.98,2.13-2.13,1.76-17.17,3.51-34.35,5.27-51.52s3.17-32.97,5.19-49.4c1.09-8.85,2.42-17.68,4.36-26.38,.59-2.67-3.5-3.8-4.1-1.13h0Z" fill="#fb6952"/><path d="M171.99,151.84c-10.67,10.37-20.93,21.16-30.76,32.33-1.8,2.05,1.19,5.07,3.01,3.01,9.83-11.17,20.09-21.95,30.76-32.33,1.97-1.91-1.04-4.92-3.01-3.01h0Z" fill="#fb6952"/><path d="M140.6,185.67c.7,16.41,1.96,32.8,3.8,49.12s4.46,33.03,6.86,49.52c1.33,9.15,2.2,18.55,4.62,27.5,.71,2.64,4.82,1.52,4.1-1.13-2.12-7.84-2.95-16.02-4.12-24.04s-2.4-16.49-3.6-24.74c-2.36-16.21-4.39-32.44-5.72-48.77-.74-9.15-1.31-18.31-1.7-27.48-.12-2.73-4.37-2.74-4.25,0h0Z" fill="#fb6952"/><path d="M186.6,172.79c9.75,17.59,19.94,34.95,28.82,53.01,2.49,5.07,4.88,10.2,7.11,15.39,.45,1.05,2,1.29,2.91,.76,1.09-.64,1.22-1.85,.76-2.91-7.96-18.48-17.79-36.07-27.64-53.59-2.77-4.93-5.55-9.86-8.3-14.81-1.33-2.39-5-.25-3.67,2.15h0Z" fill="#fb6952"/><path d="M222.2,239.52c-5.17,11.7-12.19,22.55-20.84,31.99-4.31,4.7-8.99,9.06-14.01,12.99s-10.01,7.25-14.98,10.93c-5.75,4.26-11.34,8.8-15.94,14.32-.73,.88-.86,2.14,0,3.01,.76,.76,2.27,.89,3.01,0,8.22-9.88,19.42-16.43,29.5-24.16,10.23-7.85,19.12-17.28,26.39-27.94,4.08-5.99,7.6-12.36,10.54-18.99,.46-1.05,.31-2.28-.76-2.91-.9-.53-2.44-.29-2.91,.76h0Z" fill="#fb6952"/><path d="M45.82,155.86c3.17,24.79,9.04,49.11,15.09,73.33,1.7,6.82,3.42,13.64,5.09,20.46l.98-2.4c-.31,.22-.63,.44-.93,.67-.81,.6-1.33,1.53-1.93,2.34-1.3,1.78-2.64,3.54-4,5.27s-2.79,3.48-4.23,5.18c-1.09,1.29-2.28,3.09-3.94,3.67l2.07,.55c-2.32-2.48-5.11-4.61-7.71-6.8s-5.3-4-7.55-6.34l.55,.94c-1.97-13.82-3.17-27.76-3.6-41.71-.22-6.95-.24-13.91-.08-20.86,.08-3.51,.21-7.02,.39-10.52,.16-3.17,.37-6.36,1.1-9.46,1.26-5.34,4.78-11.51,10.85-12.19,1.14-.13,2.13-.89,2.13-2.13,0-1.05-.98-2.25-2.13-2.13-7.7,.86-12.82,7.33-14.73,14.45-1.08,4.04-1.32,8.26-1.52,12.41-.22,4.58-.36,9.16-.42,13.74-.23,18.24,.85,36.5,3.23,54.59,.26,2.01,.11,4.73,1.57,6.24s3.35,2.78,5,4.14c3.34,2.76,6.96,5.47,9.92,8.64,.49,.52,1.38,.78,2.07,.55,3.62-1.25,5.94-4.85,8.26-7.7,2.62-3.23,5.15-6.54,7.58-9.92l-.76,.76,.98-.7c.79-.57,1.22-1.42,.98-2.4-5.88-23.99-12.3-47.88-16.79-72.19-1.26-6.8-2.36-13.62-3.24-20.47-.15-1.14-.87-2.13-2.13-2.13-1.04,0-2.27,.98-2.13,2.13h0Z" fill="#fb6952"/><path d="M171.73,153.06c-3.13,24.48-9.02,48.52-14.99,72.44-1.68,6.74-3.38,13.48-5.03,20.23-.24,.99,.19,1.83,.98,2.4l.98,.7-.76-.76c2.43,3.38,4.96,6.69,7.58,9.92,2.32,2.85,4.64,6.45,8.26,7.7,.69,.24,1.58-.02,2.07-.55,2.59-2.77,5.72-5.14,8.63-7.57,1.72-1.43,3.45-2.85,5.19-4.25,.44-.35,.86-.69,1.24-1.11,.73-.79,.81-1.57,.96-2.61,1.26-9.02,2.22-18.08,2.84-27.17s.92-18.3,.89-27.47c-.02-4.5-.11-9-.29-13.49s-.31-8.73-1.03-13.04c-1.38-8.22-6.42-16.5-15.38-17.5-1.14-.13-2.13,1.07-2.13,2.13,0,1.26,.98,2,2.13,2.13,5.17,.58,8.77,5.44,10.25,10.04,1.99,6.17,1.82,13.02,2.02,19.43,.43,13.98,.09,27.99-1.02,41.93-.62,7.8-1.48,15.59-2.58,23.33l.55-.94c-2.25,2.34-5.06,4.25-7.55,6.34s-5.39,4.31-7.71,6.8l2.07-.55c-1.67-.58-2.85-2.37-3.94-3.67-1.44-1.7-2.85-3.43-4.23-5.18s-2.7-3.49-4-5.27c-.59-.81-1.11-1.74-1.93-2.34-.31-.23-.62-.45-.93-.67l.98,2.4c5.94-24.23,12.42-48.35,16.92-72.9,1.27-6.93,2.36-13.9,3.26-20.89,.15-1.14-1.08-2.13-2.13-2.13-1.27,0-1.98,.98-2.13,2.13h0Z" fill="#fb6952"/><path d="M99.2,21.93c16.17-3.39,33.38-1.3,48.26,5.87,2.45,1.18,4.61-2.48,2.15-3.67-15.97-7.7-34.18-9.93-51.53-6.3-2.68,.56-1.54,4.66,1.13,4.1h0Z" fill="#fb6952"/><path d="M154.89,80.4c-2.45,1.59-4.26,3.7-5.31,6.43-.89,2.29-1.19,4.83-1.33,7.27-.18,2.98,.38,6,1.53,8.75s2.9,5.64,5.5,7.19c5.01,2.99,12.28-1.14,14.78-5.77,1.59-2.94,1.39-6.15,.92-9.34-.43-2.91-.79-5.84-2-8.54-1.06-2.39-3.06-4.77-5.48-5.86-2.6-1.17-5.39-.88-8.11-.35s-1.55,4.63,1.13,4.1c1.57-.31,3.31-.6,4.85-.06,1.29,.46,2.45,1.72,3.21,2.93,1.14,1.81,1.53,3.98,1.86,6.07,.37,2.28,.97,4.79,.55,7.1-.33,1.86-1.49,3.4-2.99,4.51s-3.94,2.4-5.84,1.88-3.31-3.03-4.15-4.73c-1-2.04-1.52-4.35-1.55-6.62-.05-4.22,.8-8.85,4.57-11.29,2.29-1.48,.16-5.16-2.15-3.67h0Z" fill="#fb6952"/><path d="M158.76,87.53c-1.35,1.03-2.3,2.27-2.88,3.88-.52,1.47-.68,3.12-.74,4.67-.07,1.72,.2,3.5,.79,5.12s1.39,3.21,2.72,4.26c2.87,2.24,7-.42,8.38-3.2,.83-1.68,.86-3.49,.64-5.31s-.35-3.55-.93-5.21c-.54-1.55-1.52-3.15-2.96-4.02s-3.12-.7-4.68-.34c-1.88,.43-1.08,3.33,.8,2.89,.44-.1,.87-.19,1.32-.2,.19,0,.33,0,.4,0,.21,.03,.38,.09,.43,.11,.72,.33,1.31,1.19,1.66,1.98,.51,1.13,.66,2.44,.82,3.66,.17,1.3,.45,2.71,.19,4.02-.2,1.01-.78,1.9-1.59,2.54-.59,.47-1.78,1.24-2.53,.79-.84-.51-1.39-1.77-1.73-2.65-.46-1.21-.72-2.48-.74-3.77-.03-2.23,.21-5.17,2.14-6.64,.64-.49,.98-1.29,.54-2.05-.37-.63-1.4-1.03-2.05-.54h0Z" fill="#fb6952"/><path d="M60.03,88.66c3.37,2.18,4.21,5.83,4.51,9.61,.33,4.22-.94,9.54-4.38,12.33-1.66,1.35-3.8,.66-5.53-.23s-3.31-2.18-4.11-3.97c-.96-2.13-.51-4.59-.17-6.81s.58-4.54,1.47-6.61c.68-1.58,1.94-3.27,3.53-4.02s3.51-.42,5.19-.09c2.67,.53,3.82-3.57,1.13-4.1-2.4-.47-5-.83-7.36,.03s-3.96,2.52-5.29,4.46c-1.61,2.36-2.17,5.24-2.6,8.01-.48,3.14-1.2,6.47-.25,9.59,1.58,5.19,7.95,9.65,13.44,8.62,3.02-.57,5.19-3.33,6.62-5.85,1.53-2.71,2.41-5.75,2.59-8.86,.17-2.84-.19-6.04-1.1-8.74-1.01-3-2.89-5.34-5.54-7.06-2.3-1.49-4.44,2.19-2.15,3.67h0Z" fill="#fb6952"/><path d="M56.88,95.63c1.7,1.29,1.98,3.59,2.11,5.56,.16,2.39-.35,5.12-1.92,7.01-.73,.88-1.55,.62-2.45,.1-.83-.48-1.54-1.2-1.93-2.08-.52-1.17-.36-2.53-.22-3.76,.16-1.31,.3-2.64,.66-3.91,.27-.96,.86-2.11,1.6-2.63,.7-.5,1.51-.36,2.51-.13,1.88,.43,2.68-2.46,.8-2.89-1.42-.33-2.87-.48-4.23,.12-1.29,.57-2.29,1.81-2.91,3.04-.81,1.62-1.04,3.39-1.27,5.16s-.52,3.66,.03,5.44c.49,1.56,1.49,2.85,2.8,3.82s3.27,1.75,4.95,1.13,2.63-2.19,3.31-3.67c.75-1.62,1.18-3.34,1.28-5.12s-.08-3.58-.53-5.23c-.5-1.87-1.54-3.36-3.08-4.53-.65-.49-1.68-.1-2.05,.54-.45,.77-.11,1.56,.54,2.05h0Z" fill="#fb6952"/></g></svg>