<?xml version="1.0" encoding="UTF-8"?><svg id="Layer_2" xmlns="http://www.w3.org/2000/svg" viewBox="0 0 348.75 357.01"><g id="Layer_1-2"><path d="M69.27,322.8c1.27-7.58,2.54-15.18,4.34-22.66,1.81-7.52,4.36-14.68,7.38-21.78s5.5-14.31,6.82-21.94c.54-3.14,1.11-6.41,1.09-9.6s-.99-6.7-1.54-9.97c-1.48-8.85-2.67-17.75-3.59-26.67-.14-1.4-1.24-2.39-2.69-2.05-1.95,.45-4.13,.15-6.26,.16-3.02,.02-6.03,.12-9.04,.3-5.89,.34-11.75,.97-17.58,1.86-1.15,.18-2.75,.16-3.63,1.04s-1.08,2.65-1.4,3.79c-.67,2.35-1.27,4.73-1.79,7.12-1.04,4.77-1.77,9.61-2.22,14.47-1.79,19.26,1.08,39.03,8.24,57,4.06,10.2,9.42,19.83,16.12,28.54,.7,.91,1.83,1.39,2.91,.76,.89-.52,1.47-1.99,.76-2.91-8.94-11.62-15.56-24.89-19.6-38.97s-5.51-28.97-4.25-43.63c.71-8.18,2.33-16.27,4.78-24.1l-1.48,1.48c1.25-.49,2.82-.52,4.15-.71,1.59-.23,3.18-.43,4.77-.61,3.24-.37,6.49-.65,9.74-.85s6.35-.3,9.53-.33c2.47-.02,4.97,.25,7.39-.31l-2.69-2.05c.82,8,1.86,15.98,3.11,23.93,.31,1.94,.63,3.88,.96,5.81s.86,3.87,1.04,5.8c.21,2.2-.22,4.94-.55,7.27-1.09,7.59-3.27,14.92-6.23,21.98-2.93,7.01-5.73,13.94-7.65,21.31-2.18,8.36-3.6,16.88-5.03,25.39-.19,1.13,.3,2.29,1.48,2.62,1.02,.28,2.42-.35,2.62-1.48h0Z" fill="#fb6952"/><path d="M108.86,284.54c9.3-11.29,14.95-24.89,18.54-38.97,1.83-7.19,3.16-14.49,4.29-21.82,1.18-7.72,2.28-15.49,3.06-23.26,.96-9.46,1.13-19.08-1.21-28.37-.29-1.16-1.51-1.72-2.62-1.48-7.18,1.54-14.36,3.09-21.53,4.65-2.34,.51-4.67,1.02-7.01,1.53-1.04,.23-2.61,.31-3.4,1.09-.54,.54-.96,1.79-1.15,2.53-.41,1.59-.42,3.36-.69,4.98-.29,1.79-.64,3.57-1.04,5.34-.8,3.54-1.82,7.03-3.04,10.45-1.34,3.75-2.85,7.57-4.84,11.02-.75,1.3-1.72,1.73-3.12,.96-1.49-.82-2.31-2.59-3.07-4.02-1.28-2.42-4.95-.27-3.67,2.15,1.64,3.1,3.81,6.11,7.58,6.48,4.14,.41,5.92-3.2,7.44-6.37,3.31-6.92,5.79-14.23,7.3-21.75,.44-2.19,.79-4.39,1.08-6.6,.16-1.26,.32-1.87,.79-3.09l-1.48,1.48c9.39-2.09,18.8-4.11,28.2-6.13,.93-.2,1.86-.4,2.8-.6l-2.62-1.48c1.99,7.91,2.01,16.09,1.34,24.17-.63,7.61-1.72,15.2-2.83,22.75-2.06,14-4.74,28.11-10.2,41.24-3,7.2-6.93,14.09-11.9,20.12-.73,.89-.87,2.14,0,3.01,.75,.75,2.27,.89,3.01,0h0Z" fill="#fb6952"/><path d="M129.46,133.93c-10.35-.89-20.92,1.45-30.77,4.44-11.13,3.37-21.91,7.92-32.39,12.93-8.55,4.09-16.94,8.55-25.15,13.29-2.48,1.43-4.94,2.89-7.38,4.39-1.37,.84-3.06,1.53-3.47,3.21-2,8.18-1.88,17.11-.63,25.38,.63,4.21,1.66,8.36,3.06,12.37,1.25,3.59,2.7,7.05,6.46,8.55,1.68,.67,3.29,.46,5.03,.16,1.13-.2,1.77-1.59,1.48-2.62-.33-1.2-1.48-1.68-2.62-1.48-1.43,.25-2.58,.21-3.73-.8-1.22-1.07-1.78-2.83-2.31-4.3-1.39-3.86-2.43-7.85-3.11-11.89-1.37-8.16-1.16-16.6,.54-24.69l-.98,1.27c7.38-4.72,15.08-9,22.83-13.09,15.08-7.95,30.8-15.19,47.28-19.68,8.39-2.29,17.1-3.93,25.83-3.19,2.73,.23,2.71-4.02,0-4.25h0Z" fill="#fb6952"/><path d="M39.5,216.17c-2.29,10.28-6.41,19.73-12.92,28.04-5.71,7.29-12.27,13.83-17.42,21.56-3.71,5.58-6.66,11.59-9.05,17.85-.41,1.07,.45,2.33,1.48,2.62,1.2,.33,2.2-.41,2.62-1.48,3.83-10.02,9.5-18.86,16.44-26.99,5.94-6.95,12.14-13.69,16.39-21.87,3.04-5.86,5.13-12.15,6.57-18.59,.59-2.67-3.5-3.8-4.1-1.13h0Z" fill="#fb6952"/><path d="M204.39,261.75c2.79,10.14,4.72,20.52,5.66,31,.47,5.25,.71,10.53,.72,15.8,0,4.84,.34,10.26-1.35,14.87-.67,1.82-1.86,3.5-3.52,4.54-1.89,1.18-3.51,.85-5.61,.63-2.58-.28-4.48,.95-5.73,3.14-.99,1.73-2.09,3.2-3.81,4.27-1.61,1-3.41,1.53-5.31,1.56-2.49,.03-4.79,.17-6.62,2.08-1.35,1.41-2.07,3.27-3.43,4.67-1.45,1.49-3.28,2.48-5.3,2.94-2.56,.58-5-.33-7.56-.35s-4.94,1.04-7.08,2.44c-1.81,1.18-3.53,2.67-5.65,3.23-1.39,.36-3.32,.5-4.15-.9-1.4-2.35-5.08-.21-3.67,2.15,2.32,3.87,7.33,3.78,11.01,2.1,2.07-.95,3.81-2.49,5.77-3.62,.83-.48,1.7-.89,2.65-1.06,1.36-.24,2.76,.07,4.1,.26,4.79,.67,9.66-.73,13.03-4.32,.76-.81,1.4-1.72,1.99-2.66,.47-.74,.93-1.67,1.65-2.22,.85-.65,2.06-.49,3.06-.49,1.21,0,2.41-.13,3.59-.42,2.23-.55,4.28-1.67,6.01-3.15,.85-.72,1.57-1.56,2.23-2.46,.59-.81,.96-2.02,1.69-2.71,.65-.61,1.84-.18,2.63-.07,1.24,.18,2.45,.17,3.68-.12,2.23-.52,4.29-1.92,5.77-3.65,3.45-4.02,3.91-9.39,4.08-14.47,.19-5.59,.12-11.19-.22-16.77-.76-12.63-2.85-25.19-6.21-37.39-.73-2.63-4.83-1.52-4.1,1.13h0Z" fill="#fb6952"/><path d="M.66,282.29c-.6,1.47-.26,3.37-.05,4.87,.33,2.31,.89,4.59,1.5,6.84,1.6,5.88,3.64,11.66,5.91,17.32,2.02,5.03,4.13,10.23,7.13,14.78,.88,1.34,1.92,2.88,3.38,3.66,1.93,1.03,4.55,1.19,6.69,1.33,2.67,.17,5.36,.03,8.03,.03,.77,0,1.53,0,2.3,.04,.28,.01,.59,.09,.86,.05,.11,0,.22,.01,.31,.07l-.38-.41c.05-.02-.08,1.05-.1,1.16-.11,.64-.24,1.28-.25,1.93-.04,2.56,1.26,5.03,3.12,6.73,4.69,4.29,11.12,3.35,16.82,2.18l-1.64-.21c9.7,6.43,21.67,9.32,33.23,7.93,1.14-.14,2.13-.88,2.13-2.13,0-1.04-.98-2.26-2.13-2.13-5.84,.7-11.74,.33-17.43-1.18-2.81-.75-5.56-1.74-8.18-3.02-1.26-.62-2.5-1.29-3.7-2.02-.6-.36-1.16-.81-1.78-1.13-.91-.48-1.83-.17-2.78,.02-2.94,.59-6.14,1.12-9.06,.15-1.94-.65-4-2.37-4.34-4.49-.18-1.15,.29-2.28,.33-3.42,.05-1.47-.58-2.99-1.93-3.71s-2.87-.62-4.29-.64c-1.69-.03-3.38,.03-5.06,.04-3.1,.03-5.96-.21-8.97-.95,.38,.09,.4,.26,.1,0-.36-.31,.36,.39,0,0-.27-.29-.56-.56-.82-.86-.42-.47,.11,.17-.17-.21-.13-.18-.26-.36-.39-.55-.35-.51-.68-1.03-1-1.56-.73-1.22-1.4-2.48-2.03-3.75-3.17-6.34-5.68-12.96-7.9-19.74-1.14-3.47-2.2-6.99-2.95-10.57-.14-.68-.28-1.36-.39-2.05-.02-.14-.04-.27-.06-.41-.08-.5,.04,.39,0-.06-.03-.29-.07-.57-.09-.86-.04-.48-.03-.95-.03-1.43,0-.59-.15,.29,0-.08,.06-.13,.07-.29,.13-.43,.43-1.06-.47-2.34-1.48-2.62-1.22-.33-2.18,.42-2.62,1.48H.66Z" fill="#fb6952"/><path d="M76.34,291.83c.57-7.37,2.76-14.36,6.14-20.91s7.12-13.56,5.63-21.3c-.26-1.37-2.02-1.92-3.12-1.27l-.17,.1c-2.05,1.2-.71,4.6,1.64,3.89l2.9-.88,1.34-.41c.22-.07,.44-.14,.67-.2,.24-.07,.71-.08,.52-.19-.25-.15,.16,.42,.22,.52,.2,.36,.38,.74,.54,1.12,.34,.8,.61,1.64,.83,2.48,.91,3.43,.85,7.08,.11,10.53-1.56,7.31-5.89,13.46-10.99,18.78-3.03,3.16-6.31,6.06-9.58,8.96-2.05,1.82,.96,4.81,3.01,3.01,6.53-5.77,13.18-11.72,17.62-19.33,4.19-7.19,6.27-16.35,3.52-24.42-.7-2.06-1.7-4.99-4.03-5.68-1.3-.39-2.54,.01-3.79,.39l-4.01,1.22,1.64,3.89,.17-.1-3.12-1.27c1.39,7.24-3.25,13.93-6.26,20.11-3.2,6.59-5.1,13.66-5.67,20.97-.21,2.73,4.04,2.72,4.25,0h0Z" fill="#fb6952"/><path d="M67.27,210.7c-1.4,.48-2.31,1.61-2.5,3.07-.18,1.31,.34,2.65,1.33,3.53s2.12,1.3,3.41,1.45c1.09,.13,2.16-.14,3.16-.57,1.95-.84,3.22-2.91,3.17-5.03s-1.41-4.34-3.62-4.93c-1.24-.33-2.49-.14-3.64,.37-.47,.21-.9,.53-1.27,.89-.53,.51-.83,1.1-1.1,1.77-.19,.48-.03,1.22,.21,1.64s.76,.86,1.27,.98c.54,.12,1.16,.1,1.64-.21s.76-.73,.98-1.27l.03-.07-.21,.51c.08-.18,.18-.35,.3-.51l-.33,.43c.13-.16,.26-.29,.42-.42l-.43,.33c.2-.15,.41-.28,.64-.38l-.51,.21c.26-.11,.52-.18,.8-.23l-.57,.08c.28-.04,.55-.04,.83,0l-.57-.08c.25,.04,.49,.1,.73,.2l-.51-.21c.19,.08,.36,.18,.53,.31l-.43-.33c.19,.15,.36,.32,.51,.51l-.33-.43c.16,.21,.29,.44,.4,.69l-.21-.51c.11,.28,.19,.56,.23,.85l-.08-.57c.04,.32,.04,.65,0,.97l.08-.57c-.04,.3-.12,.58-.23,.86l.21-.51c-.11,.25-.25,.48-.42,.7l.33-.43c-.16,.2-.35,.38-.55,.54l.43-.33c-.27,.21-.57,.38-.89,.52l.51-.21c-.32,.13-.66,.22-1,.27l.57-.08c-.38,.05-.75,.05-1.13,0l.57,.08c-.32-.05-.62-.13-.92-.25l.51,.21c-.28-.12-.55-.27-.79-.46l.43,.33c-.17-.13-.32-.28-.45-.44l.33,.43c-.13-.17-.23-.34-.32-.54l.21,.51c-.05-.13-.09-.26-.11-.4l.08,.57c-.02-.16-.02-.32,0-.48l-.08,.57c.02-.16,.06-.31,.12-.46l-.21,.51c.06-.15,.14-.28,.24-.4l-.33,.43c.07-.08,.14-.15,.22-.22l-.43,.33c.08-.06,.17-.12,.26-.16l-.51,.21s.1-.04,.15-.06c.53-.18,.98-.48,1.27-.98,.27-.46,.38-1.13,.21-1.64-.34-1.04-1.49-1.88-2.62-1.48h0Z" fill="#fb6952"/><path d="M46.57,212.24c-1.4,.48-2.31,1.61-2.5,3.07-.18,1.31,.34,2.65,1.33,3.53s2.12,1.3,3.41,1.45c1.09,.13,2.16-.14,3.16-.57,1.95-.84,3.22-2.91,3.17-5.03s-1.41-4.34-3.62-4.93c-1.24-.33-2.49-.14-3.64,.37-.47,.21-.9,.53-1.27,.89-.53,.51-.83,1.1-1.1,1.77-.19,.48-.03,1.22,.21,1.64s.76,.86,1.27,.98c.54,.12,1.16,.1,1.64-.21s.76-.73,.98-1.27l.03-.07-.21,.51c.08-.18,.18-.35,.3-.51l-.33,.43c.13-.16,.26-.29,.42-.42l-.43,.33c.2-.15,.41-.28,.64-.38l-.51,.21c.26-.11,.52-.18,.8-.23l-.57,.08c.28-.04,.55-.04,.83,0l-.57-.08c.25,.04,.49,.1,.73,.2l-.51-.21c.19,.08,.36,.18,.53,.31l-.43-.33c.19,.15,.36,.32,.51,.51l-.33-.43c.16,.21,.29,.44,.4,.69l-.21-.51c.11,.28,.19,.56,.23,.85l-.08-.57c.04,.32,.04,.65,0,.97l.08-.57c-.04,.3-.12,.58-.23,.86l.21-.51c-.11,.25-.25,.48-.42,.7l.33-.43c-.16,.2-.35,.38-.55,.54l.43-.33c-.27,.21-.57,.38-.89,.52l.51-.21c-.32,.13-.66,.22-1,.27l.57-.08c-.38,.05-.75,.05-1.13,0l.57,.08c-.32-.05-.62-.13-.92-.25l.51,.21c-.28-.12-.55-.27-.79-.46l.43,.33c-.17-.13-.32-.28-.45-.44l.33,.43c-.13-.17-.23-.34-.32-.54l.21,.51c-.05-.13-.09-.26-.11-.4l.08,.57c-.02-.16-.02-.32,0-.48l-.08,.57c.02-.16,.06-.31,.12-.46l-.21,.51c.06-.15,.14-.28,.24-.4l-.33,.43c.07-.08,.14-.15,.22-.22l-.43,.33c.08-.06,.17-.12,.26-.16l-.51,.21s.1-.04,.15-.06c.53-.18,.98-.48,1.27-.98,.27-.46,.38-1.13,.21-1.64-.34-1.04-1.49-1.88-2.62-1.48h0Z" fill="#fb6952"/><path d="M112.58,191c-4.63,3-6.05,7.83-6.36,13.09s1.86,12.13,6.57,15.1,11.53-.78,14.11-5.05c1.68-2.78,1.58-5.93,1.13-9.03-.4-2.78-.73-5.62-1.87-8.22-1.02-2.34-2.91-4.68-5.27-5.76-2.5-1.14-5.18-.87-7.8-.35s-1.55,4.63,1.13,4.1c1.47-.29,3.11-.57,4.54-.05,1.21,.44,2.3,1.64,3,2.77,1.13,1.82,1.47,4.02,1.79,6.1s.9,4.49,.37,6.63c-.42,1.7-1.59,3.08-3.04,4.04s-3.74,2.17-5.46,1.42-2.82-2.86-3.56-4.41c-.9-1.88-1.37-3.99-1.41-6.07-.06-3.97,.73-8.35,4.28-10.65,2.29-1.48,.16-5.17-2.15-3.67h0Z" fill="#fb6952"/><path d="M116.72,196.79c-1.6,1.04-2.76,2.4-3.46,4.18-.57,1.44-.76,3.03-.85,4.57-.21,3.53,1.27,7.76,4.25,9.85,3.3,2.31,8.29-.25,10.06-3.42,1.06-1.89,.99-3.95,.69-6.02-.26-1.79-.49-3.57-1.23-5.24-.69-1.55-1.96-3.1-3.53-3.83-1.74-.81-3.58-.66-5.42-.3-1.13,.22-1.77,1.57-1.48,2.62,.32,1.18,1.48,1.71,2.62,1.48,.16-.03,.32-.06,.47-.09,.05,0,.43-.06,.1-.02,.27-.03,.54-.05,.8-.06,.1,0,.71,.03,.44,0-.29-.03,.06,.01,.14,.03,.13,.03,.26,.07,.4,.11,.16,.04,.25,.18-.06-.03,.07,.05,.15,.07,.22,.12,.09,.06,.19,.12,.28,.18,.25,.16-.25-.23-.02-.01,.16,.15,.32,.3,.46,.46,.09,.1,.18,.2,.26,.3-.2-.24,.11,.16,.14,.21,.64,.99,.86,2.25,1.06,3.53,.18,1.16,.5,2.5,.28,3.62-.03,.17-.08,.33-.13,.49-.14,.44-.08,.19-.05,.12-.07,.13-.15,.26-.22,.39-.01,.02-.22,.33-.06,.12-.38,.51-.69,.76-1.1,1.03-.26,.17-.53,.31-.8,.46,.02,0-.33,.15-.17,.08,.2-.08-.29,.1-.3,.11-.5,.17-1.07,.26-1.36,.13,.19,.08-.27-.19-.11-.07s-.2-.18-.23-.2c-.19-.18-.38-.39-.54-.6,.13,.17-.11-.17-.1-.16-.09-.14-.19-.28-.27-.42-.2-.32-.38-.66-.54-1-.43-.93-.68-2.14-.7-3.2,0-.69,.06-1.37,.14-2.05-.01,.09-.07,.37,.01-.06,.03-.17,.06-.34,.09-.51,.06-.3,.13-.6,.23-.9,.29-.94,.78-1.69,1.75-2.31s1.36-1.89,.76-2.91c-.56-.96-1.94-1.39-2.91-.76h0Z" fill="#fb6952"/><path d="M33.05,209.14c-.6,4.19-1,8.45-.89,12.69,.08,3.31,.88,6.81,3.87,8.68,2.33,1.45,4.46-2.22,2.15-3.67-.79-.49-1.18-1.31-1.45-2.33-.29-1.14-.33-2.26-.33-3.51,0-3.58,.25-7.18,.75-10.73,.16-1.14-.28-2.28-1.48-2.62-1-.27-2.45,.34-2.62,1.48h0Z" fill="#fb6952"/><path d="M232.9,108.11c-1.34,.34-2.39,2.3-3.15,3.29-1.98,2.57-3.94,5.15-5.9,7.74-5.53,7.32-11.02,14.67-16.49,22.03-4.93,6.64-9.87,13.29-14.72,19.99-1.12,1.55-2.35,3.09-3.33,4.74-.77,1.3-.57,3.03,1.12,3.52,1.03,.3,2.31,.2,3.37,.22,8.01,.17,16.04,.07,24.05,.01,.2,0,.4,0,.61,0l-2.13-2.13c-.1,14.98-.29,29.97-.22,44.95,.02,5.32,.07,10.63,.11,15.95,0,1.15,.97,2.13,2.13,2.13h31.69c1.15,0,2.12-.97,2.13-2.13,.07-15.03,.12-30.06,.16-45.09,.01-5.41,.02-10.83,.02-16.24l-2.13,2.13c9.09,.22,18.19,.06,27.28-.02l-2.13-2.13c.19-1.5,1.79-2.53,3.08-1.8-.25-.14,.3,.38,.3,.24,0-.06-.3-.29-.35-.34-.37-.38-.7-.8-1.03-1.21-.22-.27-.44-.54-.65-.82-.12-.15-.24-.31-.36-.46-.39-.5,.06,.09-.17-.22-.61-.8-1.22-1.6-1.83-2.41-3.44-4.58-6.79-9.23-10.16-13.86-7.55-10.39-15-20.89-23.01-30.93-1.33-1.67-2.67-3.34-4.14-4.9-.94-1-2.1-2.3-3.59-2.32-2.74-.02-2.74,4.23,0,4.25-.11,0-1.04-.32-.68-.14,.61,.3-.31-.33,.1,.08s.88,.84,1.3,1.29c1.35,1.45,2.6,3,3.83,4.55,3.6,4.5,7.2,9.36,10.85,14.3,7.53,10.21,14.84,20.59,22.49,30.71,1.19,1.58,2.37,3.18,3.66,4.67,.36,.42,.75,.86,1.23,1.15,1.57,.96,3.17-.17,3.38-1.83,.14-1.14-1.09-2.14-2.13-2.13-9.09,.08-18.19,.24-27.28,.02-1.15-.03-2.13,1-2.13,2.13,0,18.76-.08,37.52-.16,56.27,0,1.69-.01,3.37-.02,5.06l2.13-2.13h-31.69l2.13,2.13c-.12-14.77-.14-29.52-.02-44.29,.05-5.54,.09-11.07,.12-16.61,0-1.14-.98-2.14-2.13-2.13-7.88,.06-15.76,.14-23.63,.01-.87-.01-1.74-.03-2.61-.06-.28-.01-.55-.04-.83-.05-.39,0,.12,0,.28,.05-.29-.08,0-.05,.35,.17l.76,.76h0c.1,.35,.19,.71,.29,1.07,.02,.18-.46,1.18-.21,.89,.1-.11,.17-.27,.25-.39,.27-.41,.55-.81,.83-1.21,1-1.43,2.03-2.85,3.05-4.26,3.29-4.54,6.63-9.06,9.96-13.56,7.51-10.15,15.06-20.28,22.69-30.34,.73-.97,1.47-1.94,2.21-2.9,.3-.39,.59-.77,.89-1.16,.43-.56-.13,.16,.17-.22,.13-.17,.26-.34,.39-.51,.37-.48,.74-.95,1.12-1.42,.11-.13,.24-.26,.34-.41,.35-.52-.48,.29-.76,.37,2.65-.67,1.53-4.77-1.13-4.1Z" fill="#fb6952"/><path d="M277.76,48.91c-3.49,0-7.07-.79-10.42,.57-1.66,.67-3.2,1.76-4.06,3.37-.79,1.47-1.08,3.22-.67,4.86,.97,3.81,5.11,4.42,8.41,4.82s6.79,.03,9.02-2.56c2.39-2.79,2.46-6.65,1.74-10.08-.24-1.12-1.56-1.78-2.62-1.48-1.17,.32-1.72,1.49-1.48,2.62,.06,.26,.1,.53,.15,.79,.08,.42,.02,.13,.01,.04,.02,.14,.03,.27,.04,.41,.06,.61,.08,1.23,.04,1.84,0,.14-.08,.83-.03,.44-.04,.26-.09,.52-.16,.78s-.14,.5-.23,.75c-.02,.07-.17,.37,0,.03-.07,.14-.14,.29-.22,.43-.06,.11-.13,.22-.2,.33-.03,.05-.27,.37-.11,.17s-.11,.11-.15,.15c-.09,.1-.18,.19-.28,.28-.06,.05-.39,.3-.14,.12-.12,.08-.24,.16-.36,.23s-.25,.13-.37,.2c-.32,.17,.03,0-.17,.07-.27,.09-.53,.17-.81,.23-.14,.03-.28,.06-.42,.08-.36,.06,.29-.02-.07,0-.62,.05-1.24,.06-1.87,.02-.3-.02-.59-.04-.89-.07-.15-.02-.3-.03-.45-.05,.32,.04-.05,0-.1-.01-.65-.1-1.31-.2-1.96-.33-.29-.06-.58-.13-.86-.21-.14-.04-.28-.09-.42-.14,.08,.03,.3,.17-.09-.04-.13-.07-.25-.14-.37-.21-.05-.03-.29-.24-.08-.06-.1-.09-.2-.19-.29-.29,.19,.23,.03,.02-.04-.12-.16-.28,.08,.3-.01-.01-.04-.12-.07-.24-.1-.36-.1-.31,.01,.33,0,0,0-.13-.01-.26-.01-.39,0-.06,.03-.47,0-.2s.03-.14,.04-.2c.03-.13,.06-.26,.1-.38,.05-.14,.18-.4,.04-.14,.12-.23,.25-.47,.4-.68-.21,.28,.25-.22,.35-.33,.27-.27,.15-.14,.07-.07,.14-.11,.29-.2,.44-.29,.12-.07,.25-.14,.37-.21,.09-.05,.44-.2,.18-.1,.63-.26,1.32-.42,1.99-.52,.36-.05-.28,.02,.08,0,.18-.01,.36-.03,.54-.04,.43-.02,.87-.03,1.3-.02,1.73,.03,3.44,.26,5.17,.25,1.11,0,2.18-.98,2.13-2.13s-.93-2.13-2.13-2.13h0Z" fill="#fb6952"/><path d="M282.06,50.64c.3-16.12,.6-32.24,.9-48.36l-3.96,1.07c7.16,10.74,16.54,21.2,30.15,22.64,1.14,.12,2.13-1.06,2.13-2.13,0-1.25-.98-2.01-2.13-2.13-11.91-1.25-20.27-11.22-26.48-20.53-1.15-1.73-3.92-1.11-3.96,1.07-.3,16.12-.6,32.24-.9,48.36-.05,2.74,4.2,2.74,4.25,0h0Z" fill="#fb6952"/><path d="M315.25,89.27c-3.49,0-7.07-.79-10.42,.57-1.66,.67-3.2,1.76-4.06,3.37-.79,1.47-1.08,3.22-.67,4.86,.97,3.81,5.11,4.42,8.41,4.82s6.79,.03,9.02-2.56c2.39-2.79,2.46-6.65,1.74-10.08-.24-1.12-1.56-1.78-2.62-1.48-1.17,.32-1.72,1.49-1.48,2.62,.06,.26,.1,.53,.15,.79,.08,.42,.02,.13,.01,.04,.02,.14,.03,.27,.04,.41,.06,.61,.08,1.23,.04,1.84,0,.14-.08,.83-.03,.44-.04,.26-.09,.52-.16,.78s-.14,.5-.23,.75c-.02,.07-.17,.37,0,.03-.07,.14-.14,.29-.22,.43-.06,.11-.13,.22-.2,.33-.03,.05-.27,.37-.11,.17s-.11,.11-.15,.15c-.09,.1-.18,.19-.28,.28-.06,.05-.39,.3-.14,.12-.12,.08-.24,.16-.36,.23s-.25,.13-.37,.2c-.32,.17,.03,0-.17,.07-.27,.09-.53,.17-.81,.23-.14,.03-.28,.06-.42,.08-.36,.06,.29-.02-.07,0-.62,.05-1.24,.06-1.87,.02-.3-.02-.59-.04-.89-.07-.15-.02-.3-.03-.45-.05,.32,.04-.05,0-.1-.01-.65-.1-1.31-.2-1.96-.33-.29-.06-.58-.13-.86-.21-.14-.04-.28-.09-.42-.14,.08,.03,.3,.17-.09-.04-.13-.07-.25-.14-.37-.21-.05-.03-.29-.24-.08-.06-.1-.09-.2-.19-.29-.29,.19,.23,.03,.02-.04-.12-.16-.28,.08,.3-.01-.01-.04-.12-.07-.24-.1-.36-.1-.31,.01,.33,0,0,0-.13-.01-.26-.01-.39,0-.06,.03-.47,0-.2s.03-.14,.04-.2c.03-.13,.06-.26,.1-.38,.05-.14,.18-.4,.04-.14,.12-.23,.25-.47,.4-.68-.21,.28,.25-.22,.35-.33,.27-.27,.15-.14,.07-.07,.14-.11,.29-.2,.44-.29,.12-.07,.25-.14,.37-.21,.09-.05,.44-.2,.18-.1,.63-.26,1.32-.42,1.99-.52,.36-.05-.28,.02,.08,0,.18-.01,.36-.03,.54-.04,.43-.02,.87-.03,1.3-.02,1.73,.03,3.44,.26,5.17,.25,1.11,0,2.18-.98,2.13-2.13s-.93-2.13-2.13-2.13h0Z" fill="#fb6952"/><path d="M319.54,91c.3-16.12,.6-32.24,.9-48.36l-3.96,1.07c7.16,10.74,16.54,21.2,30.15,22.64,1.14,.12,2.13-1.06,2.13-2.13,0-1.25-.98-2.01-2.13-2.13-11.91-1.25-20.27-11.22-26.48-20.53-1.15-1.73-3.92-1.11-3.96,1.07-.3,16.12-.6,32.24-.9,48.36-.05,2.74,4.2,2.74,4.25,0h0Z" fill="#fb6952"/><path d="M175.49,80.01c-3.49,0-7.07-.79-10.42,.57-1.66,.67-3.2,1.76-4.06,3.37-.79,1.47-1.08,3.22-.67,4.86,.97,3.81,5.11,4.42,8.41,4.82s6.79,.03,9.02-2.56c2.39-2.79,2.46-6.65,1.74-10.08-.24-1.12-1.56-1.78-2.62-1.48-1.17,.32-1.72,1.49-1.48,2.62,.06,.26,.1,.53,.15,.79,.08,.42,.02,.13,.01,.04,.02,.14,.03,.27,.04,.41,.06,.61,.08,1.23,.04,1.84,0,.14-.08,.83-.03,.44-.04,.26-.09,.52-.16,.78s-.14,.5-.23,.75c-.02,.07-.17,.37,0,.03-.07,.14-.14,.29-.22,.43-.06,.11-.13,.22-.2,.33-.03,.05-.27,.37-.11,.17s-.11,.11-.15,.15c-.09,.1-.18,.19-.28,.28-.06,.05-.39,.3-.14,.12-.12,.08-.24,.16-.36,.23s-.25,.13-.37,.2c-.32,.17,.03,0-.17,.07-.27,.09-.53,.17-.81,.23-.14,.03-.28,.06-.42,.08-.36,.06,.29-.02-.07,0-.62,.05-1.24,.06-1.87,.02-.3-.02-.59-.04-.89-.07-.15-.02-.3-.03-.45-.05,.32,.04-.05,0-.1-.01-.65-.1-1.31-.2-1.96-.33-.29-.06-.58-.13-.86-.21-.14-.04-.28-.09-.42-.14,.08,.03,.3,.17-.09-.04-.13-.07-.25-.14-.37-.21-.05-.03-.29-.24-.08-.06-.1-.09-.2-.19-.29-.29,.19,.23,.03,.02-.04-.12-.16-.28,.08,.3-.01-.01-.04-.12-.07-.24-.1-.36-.1-.31,.01,.33,0,0,0-.13-.01-.26-.01-.39,0-.06,.03-.47,0-.2s.03-.14,.04-.2c.03-.13,.06-.26,.1-.38,.05-.14,.18-.4,.04-.14,.12-.23,.25-.47,.4-.68-.21,.28,.25-.22,.35-.33,.27-.27,.15-.14,.07-.07,.14-.11,.29-.2,.44-.29,.12-.07,.25-.14,.37-.21,.09-.05,.44-.2,.18-.1,.63-.26,1.32-.42,1.99-.52,.36-.05-.28,.02,.08,0,.18-.01,.36-.03,.54-.04,.43-.02,.87-.03,1.3-.02,1.73,.03,3.44,.26,5.17,.25,1.11,0,2.18-.98,2.13-2.13s-.93-2.13-2.13-2.13h0Z" fill="#fb6952"/><path d="M179.81,80.95c-.05-7.56-.1-15.12-.15-22.68s.17-14.98-1.43-22.28c-.59-2.67-4.69-1.54-4.1,1.13,1.55,7.08,1.23,14.44,1.28,21.64s.1,14.79,.15,22.18c.02,2.74,4.27,2.74,4.25,0h0Z" fill="#fb6952"/><path d="M176.05,37.29c17.99-2.02,30.69-15.93,39.66-30.54,1.44-2.34-2.24-4.48-3.67-2.15-8.07,13.15-19.65,26.61-35.99,28.44-1.14,.13-2.13,.89-2.13,2.13,0,1.05,.98,2.25,2.13,2.13h0Z" fill="#fb6952"/><path d="M212.8,4.85c.11,16.15,.23,32.3,.34,48.46,.02,2.73,4.27,2.74,4.25,0-.11-16.15-.23-32.3-.34-48.46-.02-2.73-4.27-2.74-4.25,0h0Z" fill="#fb6952"/><path d="M213.04,52.17c-3.49,0-7.07-.79-10.42,.57-1.66,.67-3.2,1.76-4.06,3.37-.79,1.47-1.08,3.22-.67,4.86,.97,3.81,5.11,4.42,8.41,4.82s6.79,.03,9.02-2.56c2.39-2.79,2.46-6.65,1.74-10.08-.24-1.12-1.56-1.78-2.62-1.48-1.17,.32-1.72,1.49-1.48,2.62,.06,.26,.1,.53,.15,.79,.08,.42,.02,.13,.01,.04,.02,.14,.03,.27,.04,.41,.06,.61,.08,1.23,.04,1.84,0,.14-.08,.83-.03,.44-.04,.26-.09,.52-.16,.78s-.14,.5-.23,.75c-.02,.07-.17,.37,0,.03-.07,.14-.14,.29-.22,.43-.06,.11-.13,.22-.2,.33-.03,.05-.27,.37-.11,.17s-.11,.11-.15,.15c-.09,.1-.18,.19-.28,.28-.06,.05-.39,.3-.14,.12-.12,.08-.24,.16-.36,.23s-.25,.13-.37,.2c-.32,.17,.03,0-.17,.07-.27,.09-.53,.17-.81,.23-.14,.03-.28,.06-.42,.08-.36,.06,.29-.02-.07,0-.62,.05-1.24,.06-1.87,.02-.3-.02-.59-.04-.89-.07-.15-.02-.3-.03-.45-.05,.32,.04-.05,0-.1-.01-.65-.1-1.31-.2-1.96-.33-.29-.06-.58-.13-.86-.21-.14-.04-.28-.09-.42-.14,.08,.03,.3,.17-.09-.04-.13-.07-.25-.14-.37-.21-.05-.03-.29-.24-.08-.06-.1-.09-.2-.19-.29-.29,.19,.23,.03,.02-.04-.12-.16-.28,.08,.3-.01-.01-.04-.12-.07-.24-.1-.36-.1-.31,.01,.33,0,0,0-.13-.01-.26-.01-.39,0-.06,.03-.47,0-.2s.03-.14,.04-.2c.03-.13,.06-.26,.1-.38,.05-.14,.18-.4,.04-.14,.12-.23,.25-.47,.4-.68-.21,.28,.25-.22,.35-.33,.27-.27,.15-.14,.07-.07,.14-.11,.29-.2,.44-.29,.12-.07,.25-.14,.37-.21,.09-.05,.44-.2,.18-.1,.63-.26,1.32-.42,1.99-.52,.36-.05-.28,.02,.08,0,.18-.01,.36-.03,.54-.04,.43-.02,.87-.03,1.3-.02,1.73,.03,3.44,.26,5.17,.25,1.11,0,2.18-.98,2.13-2.13s-.93-2.13-2.13-2.13h0Z" fill="#fb6952"/><path d="M216.85,196.55c-9.33-.23-18.67-.2-28.01-.27-1.17,0-2.34-.02-3.51-.03l1.84,1.05c-5.38-9.54-10.99-19-17.58-27.78-5.19-6.92-11-13.27-17.22-19.28-4.07-3.93-8.25-7.74-12.42-11.55l.33,2.58c2.04-2.77,3.9-5.15,6.1-7.85,3.47-4.28,7.04-8.74,11.3-12.27,3.95-3.28,9.37-4.56,14.37-5.07,5.36-.55,10.8-.32,16.15,.3,2.6,.3,5.59,.74,8.43,1.4,1.71,.4,2.85-1.02,2.62-2.62-.05-.38,.03,.3-.03-.22-.02-.21-.04-.43-.06-.64-.04-.48-.07-.97-.08-1.46-.03-1-.01-2,.04-2.99,.13-2.4,.42-4.34,.94-6.72,1.11-5.07,3-9.96,5.85-14.31s6.93-8.18,11.86-10.16c4.48-1.81,8.73-2.03,13.55-1.96,11.54,.17,23.28,2.65,34.06,6.72,5,1.89,9.93,4.25,14.22,7.46,1.58,1.18,3.31,2.77,4.61,4.44,1.93,2.47,3.86,6.38,5.01,9.7,2.22,6.4,2.68,13.17,1.96,19.87-.2,1.88-.55,3.79-.88,5.79-.16,.95-.43,1.94,.08,2.83,.45,.79,1.28,1.17,2.12,1.4,2.08,.57,4.36,.62,6.5,.87,3.26,.37,6.52,.85,9.72,1.59,7.24,1.68,13.66,4.92,18.79,10.38,4.69,5,7.69,11.18,8.57,17.98,.73,5.65,.32,11.51-1.65,16.88-2.09,5.71-6.21,10.34-11.62,13.09-.24,.12-.49,.22-.72,.35s.54-.16,.16-.07c-.23,.05-.46,.16-.69,.22-.57,.16-1.16,.28-1.74,.39-.31,.06-.62,.11-.94,.16-.18,.03-.36,.05-.54,.08-.31,.04,.39-.05,.08-.01-.14,.02-.28,.04-.42,.05-.86,.11-1.72,.19-2.58,.27-10.04,.9-20.19,.86-30.27,.86-9.72,0-19.44-.16-29.16-.28-1.38-.02-2.77-.03-4.15-.04-2.74,0-2.74,4.24,0,4.25,8.71,.02,17.43,.23,26.14,.29,11.01,.07,22.05,.12,33.04-.52,3.64-.21,7.39-.41,10.95-1.23,5.01-1.15,9.51-5.16,12.52-9.15,7.56-10.04,7.99-25.33,2.88-36.53-3.19-6.99-8.79-13.04-15.41-16.92s-14.04-5.26-21.44-6.17c-1.4-.17-2.81-.32-4.21-.48-.27-.03-.54-.06-.81-.1-.12-.01-.78-.1-.37-.04-.41-.06-.83-.12-1.24-.21-.14-.03-.29-.09-.44-.11-.45-.07,.15,.11,.06,.04,.15,.12,.64,.74,.76,1.26,.03,.12-.02,.55,.04,.25,.14-.81,.27-1.63,.41-2.44,1.02-6.12,1.37-12.24,.44-18.4-1.08-7.21-3.98-14.9-8.97-20.33-3.52-3.83-8.16-6.64-12.81-8.88-11.14-5.37-23.6-8.38-35.89-9.47-5.13-.46-10.34-.55-15.43,.29-5.61,.92-10.79,3.63-14.88,7.57-7.8,7.5-11.84,18.9-12.34,29.55-.1,2.05,0,4.07,.29,6.1l2.62-2.62c-7.77-1.81-16.1-2.56-24.05-2-5.79,.41-11.89,1.56-16.82,4.8s-8.49,7.84-12.06,12.15c-2.83,3.42-5.59,6.92-8.22,10.5-.53,.72-.31,1.99,.33,2.58,6.88,6.28,13.8,12.54,20.13,19.38s11.32,13.63,16.12,21.09c3.63,5.64,7.01,11.43,10.31,17.27,.37,.65,1.09,1.05,1.84,1.05,8.72,.06,17.45,.13,26.17,.22,1.78,.02,3.56,.03,5.35,.07,2.74,.07,2.74-4.19,0-4.25h0Z" fill="#fb6952"/><path d="M183.9,199.64c6.42,15.69,11.94,31.75,16.5,48.08,1.31,4.68,2.53,9.37,3.69,14.09,.65,2.66,4.75,1.53,4.1-1.13-4.03-16.47-8.99-32.71-14.9-48.6-1.69-4.55-3.46-9.07-5.3-13.57-.43-1.06-1.41-1.82-2.62-1.48-1.01,.28-1.92,1.55-1.48,2.62h0Z" fill="#fb6952"/><path d="M139.95,138.71c-1.29-1.13-2.64-2.24-4.18-3.01-1.81-.91-3.74-1.41-5.75-1.69-.59-.08-1.1-.1-1.64,.21-.44,.26-.86,.76-.98,1.27-.23,1,.31,2.45,1.48,2.62,.97,.13,1.94,.31,2.89,.58,.39,.11,.78,.24,1.16,.38,.09,.03,.18,.07,.27,.1,.4,.15-.47-.22-.09-.04,.17,.08,.34,.15,.5,.24,.64,.32,1.25,.7,1.83,1.12,.09,.06,.17,.13,.26,.19,.23,.17-.13-.1-.17-.13,.16,.13,.32,.25,.48,.38,.31,.26,.62,.52,.92,.79,.83,.73,2.2,.88,3.01,0,.74-.8,.89-2.22,0-3.01h0Z" fill="#fb6952"/></g></svg>