<?xml version="1.0" encoding="UTF-8"?><svg id="Layer_2" xmlns="http://www.w3.org/2000/svg" viewBox="0 0 384.85 287.5"><g id="Layer_1-2"><path d="M182.9,108.37c13.39,.25,26.6,2.09,39.48,5.82,6.41,1.86,12.7,4.11,18.9,6.56,4.72,1.87,9.22,3.84,13.5,6.6,4.66,3.01,9.75,6.77,12.15,11.95,.48,1.04,1.98,1.3,2.91,.76,1.07-.63,1.25-1.86,.76-2.91-2.32-5.02-6.99-8.82-11.41-11.94-4.21-2.97-8.66-5.26-13.42-7.21-12.59-5.15-25.52-9.5-38.97-11.75-7.9-1.33-15.89-1.99-23.9-2.14-2.74-.05-2.74,4.2,0,4.25h0Z" fill="#fb6952"/><path d="M269.84,136.4c-6.65-4.36-13.93-7.66-21.76-9.18-4.5-.88-9.09-1.18-13.66-1.57-8.01-.69-15.98-.44-23.97,.44-8.44,.93-16.82,2.34-25.16,3.93-2.68,.51-1.55,4.61,1.13,4.1,12.08-2.3,24.36-4.42,36.69-4.64,6.83-.12,13.86,.38,20.63,1.31,8.69,1.19,16.64,4.5,23.95,9.29,2.29,1.51,4.43-2.17,2.15-3.67h0Z" fill="#fb6952"/><path d="M3.18,147.81c13.81-5.87,27.36-12.36,40.58-19.45,13.02-6.98,25.59-14.76,38.64-21.69,12.69-6.74,25.95-12.65,40.04-15.75,3.46-.76,7.03-1.56,10.6-1.43,2.75,.1,5.53,.66,8.25,1.07,5.59,.85,11.21,1.72,16.68,3.2,6.84,1.84,14.06,4.61,19.29,9.56,4.5,4.26,5.76,10.06,6.1,16.03,.15,2.72,4.41,2.74,4.25,0-.32-5.75-1.33-11.59-4.9-16.29-4-5.27-10.21-8.61-16.25-11s-11.9-3.6-18.04-4.65c-2.93-.5-5.86-.95-8.8-1.38-3.15-.46-6.29-1.01-9.48-.73-7.35,.64-14.73,2.77-21.69,5.14s-13.88,5.37-20.56,8.64c-13.82,6.79-26.91,14.93-40.37,22.39-15.08,8.35-30.6,15.91-46.47,22.66-1.06,.45-1.29,2.01-.76,2.91,.64,1.09,1.85,1.21,2.91,.76h0Z" fill="#fb6952"/><path d="M185.85,134.19c7.08,.61,14.11,1.72,21.07,3.14,5.16,1.05,10.5,2.13,15.39,4.12l-1.48-2.62-.99,3.45,2.05-1.56c-13.4,.54-26.81,.42-40.21,.79-1.52,.04-3.05,.09-4.57,.15-1.02,.04-1.8,.07-2.61,.7-.27,.21-.54,.42-.81,.63-1.46,1.15-2.9,2.31-4.33,3.48-12.68,10.38-24.94,21.47-35.8,33.75-6.34,7.17-12.61,14.94-16.47,23.76-.46,1.05-.31,2.28,.76,2.91,.9,.53,2.45,.29,2.91-.76,2.46-5.61,5.95-10.77,9.71-15.59,4.38-5.62,9.2-10.89,14.19-15.96,8.53-8.67,17.62-16.81,27.02-24.54,1.41-1.16,2.82-2.31,4.25-3.44,.38-.3,.77-.61,1.15-.91,.21-.16,.93-.72,.03-.03l-1.07,.29c15.28-.62,30.57-.36,45.85-.98,.95-.04,1.78-.63,2.05-1.56l.99-3.45c.35-1.2-.43-2.19-1.48-2.62-5.01-2.04-10.49-3.13-15.77-4.2-7.2-1.46-14.49-2.58-21.82-3.21-2.73-.23-2.71,4.02,0,4.25h0Z" fill="#fb6952"/><path d="M48.4,189.18c12.09-.4,23.98,1.94,35.45,5.62,5.81,1.87,11.52,4.06,17.15,6.42,2.76,1.16,5.49,2.36,8.22,3.58,1.34,.6,2.67,1.2,4.01,1.81,.87,.39,2.86,.89,3.3,1.83,.38,.81,.06,2.2-.03,3.04-.13,1.25-.29,2.5-.48,3.75-.37,2.43-.83,4.84-1.39,7.24-1.13,4.85-2.65,9.6-4.51,14.22-3.65,9.05-8.76,17.61-14.95,25.15-7.1,8.64-15.63,16.03-25.28,21.68-2.36,1.38-.22,5.06,2.15,3.67,18.17-10.64,32.67-27.29,41.02-46.6,4.12-9.53,7.07-19.85,7.8-30.25,.1-1.37,0-2.82-.66-4.05-.72-1.36-2.01-2.06-3.36-2.68-2.95-1.35-5.9-2.68-8.87-3.98-5.84-2.56-11.73-5-17.74-7.14-13.41-4.78-27.52-8.04-41.83-7.56-2.73,.09-2.74,4.34,0,4.25h0Z" fill="#fb6952"/><path d="M161.38,116.87c-.87-.89-2.42-2.19-2.65-3.49-.2-1.14,0-2.5,1.04-3.12,2.66-1.58,6.17-.63,8.84,.43s5.46,2.78,6.1,5.72c.29,1.33,.01,2.85-.76,3.97-.71,1.03-1.97,1.16-3.14,1-3.62-.5-6.95-2.79-9.87-4.85-.94-.66-2.36-.17-2.91,.76-.62,1.06-.18,2.24,.76,2.91,3.61,2.55,7.74,5.12,12.26,5.46,2.36,.18,4.74-.69,6.18-2.61,1.31-1.75,1.97-4.06,1.79-6.24-.39-4.71-4.01-7.95-8.13-9.73s-9.19-2.92-13.28-.49c-2.33,1.38-3.27,3.83-3.17,6.46,.11,2.81,2.04,4.91,3.92,6.82s4.93-1.05,3.01-3.01h0Z" fill="#fb6952"/><path d="M170.58,112.21c-.27-.1,.06,.05,.09,.08-.2-.21,.05,.05,.07,.08,.29,.29,.14,.16,.09,.08,.09,.12,.16,.25,.23,.38,.2,.38,.1,.21,.07,.12,.06,.14,.1,.29,.14,.44s.07,.3,.11,.45c.13,.56,.03-.22,.04,.35,.02,1.32-.14,2.55-.76,3.75-.29,.57-.63,1.1-1.05,1.56-.45,.49-.53,.57-1.1,.47-1.48-.25-3.05-.86-4.43-1.43-1.28-.53-2.62-1.23-3.56-2.26-.22-.24-.76-.93-.98-1.24-.09-.13-.17-.26-.25-.39-.05-.09-.13-.38-.03-.05-.1-.33-.16-.68-.19-1.01-.14-1.36-.09-2.45,1.1-3.37,.26-.2,.8-.38,1.33-.49,.61-.13,1.21-.16,1.96-.17,2.92-.01,5.77,.93,7.78,3.13,.77,.85,2.22,.78,3.01,0,.85-.85,.77-2.15,0-3.01-2.71-2.98-6.81-4.4-10.78-4.38-2.13,.01-4.41,.34-6.1,1.74-1.84,1.52-2.68,3.63-2.58,5.97,.05,1.14,.17,2.34,.65,3.39,.4,.87,1.06,1.59,1.65,2.33-.35-.44,.37,.47,.43,.54,.16,.18,.34,.35,.52,.51,.45,.39,.94,.76,1.44,1.1,.85,.57,1.77,1.03,2.71,1.43,1.04,.44,2.09,.83,3.16,1.17s2.16,.71,3.29,.77c2.52,.12,4.34-1.77,5.5-3.81,2.23-3.9,2.48-10.4-2.43-12.34-1.07-.42-2.33,.46-2.62,1.48-.33,1.21,.41,2.19,1.48,2.62h0Z" fill="#fb6952"/><path d="M165.39,107.53c-.53-.31-1.12-.57-1.72-.7-.8-.17-1.49-.17-2.28-.03-.19,.03-.37,.09-.55,.16-.34,.14-.68,.27-.98,.48-.58,.41-1.13,.91-1.45,1.56-.24,.49-.4,.99-.38,1.54,.02,.7,.31,1.32,.77,1.85s1.19,.83,1.86,1.07c1.32,.46,2.76,.43,4.01-.2,.33-.17,.64-.41,.91-.66s.51-.56,.69-.88,.33-.65,.4-1c.12-.63,.11-1.02,0-1.66-.09-.5-.56-1.02-.98-1.27-.46-.27-1.13-.38-1.64-.21s-1.01,.49-1.27,.98l-.21,.51c-.1,.38-.1,.75,0,1.13v.06c-.01-.19-.04-.38-.06-.57,.02,.13,.02,.25,0,.37l.08-.57c-.02,.15-.06,.28-.12,.42l.21-.51c-.06,.14-.14,.26-.23,.38l.33-.43c-.11,.14-.23,.25-.37,.36l.43-.33c-.14,.1-.29,.19-.44,.26l.51-.21c-.18,.07-.37,.12-.57,.15l.57-.08c-.28,.03-.56,.03-.85-.01l.57,.08c-.41-.06-.81-.18-1.19-.34l.51,.21c-.14-.06-.27-.13-.39-.22l.43,.33c-.07-.05-.13-.11-.18-.17l.33,.43c-.04-.05-.07-.1-.1-.15l.21,.51c-.03-.06-.04-.12-.05-.19l.08,.57c0-.08,0-.14,0-.22l-.08,.57c.02-.08,.04-.14,.07-.22l-.21,.51c.06-.13,.13-.25,.22-.37l-.33,.43c.13-.16,.27-.3,.43-.42l-.43,.33c.17-.12,.34-.22,.53-.3l-.51,.21c.21-.09,.43-.15,.65-.18l-.57,.08c.28-.04,.55-.03,.82,0l-.57-.08c.33,.05,.65,.14,.96,.27l-.51-.21c.17,.07,.33,.16,.48,.25,.48,.28,1.1,.36,1.64,.21,.49-.14,1.03-.52,1.27-.98,.26-.49,.39-1.09,.21-1.64s-.49-.99-.98-1.27h0Z" fill="#fb6952"/><g><path d="M247.66,24.53c6.32-.3,12.64-.51,18.95-.81,1.15-.05,2.13-.94,2.13-2.13,0-1.11-.97-2.18-2.13-2.13-6.32,.3-12.64,.51-18.95,.81-1.15,.05-2.13,.94-2.13,2.13,0,1.11,.97,2.18,2.13,2.13h0Z" fill="#fb6952"/><path d="M268.45,20.51c-1.62-2.7-3.24-5.63-3.09-8.88s2.42-5.07,5.23-6.3c2.61-1.14,5.82-1.65,8.46-.3s3.66,3.82,3.31,6.65c-.45,3.58-3.23,6.13-5.18,8.97-.65,.95-.18,2.36,.76,2.91,1.05,.62,2.26,.19,2.91-.76,2.26-3.28,5.02-6.04,5.63-10.15s-.74-8.32-4.37-10.75-7.96-2.35-11.78-1-7.79,3.9-8.87,8.25c-1.19,4.82,.89,9.45,3.33,13.51,1.41,2.34,5.08,.21,3.67-2.15h0Z" fill="#fb6952"/><path d="M279,23.85c8.3,.38,16.63-1.9,24.91-.7,1.13,.16,2.28-.28,2.62-1.48,.27-1-.34-2.45-1.48-2.62-8.71-1.26-17.32,.96-26.04,.55-2.74-.13-2.73,4.13,0,4.25h0Z" fill="#fb6952"/><path d="M303.15,21.43c.08,3.69,.15,7.39,.23,11.08,.07,3.49-.2,7.24,.86,10.62,.81,2.6,4.92,1.49,4.1-1.13-.97-3.12-.64-6.67-.71-9.9l-.22-10.66c-.06-2.73-4.31-2.74-4.25,0h0Z" fill="#fb6952"/><path d="M307.21,41.7c-4.35-1.92-9.15-3.85-13.96-4-3.94-.12-8.4,1.55-10.25,5.28-.98,1.99-1.17,4.21-1.03,6.4s.61,4.41,2.03,6.18c2.48,3.07,7.02,4.39,10.82,4.55,4.42,.18,8.7-1.33,12.11-4.12,.89-.73,.75-2.25,0-3.01-.88-.88-2.11-.73-3.01,0-4.26,3.48-10.87,3.88-15.49,.89-2.46-1.59-2.71-5.44-2.01-8.05,.74-2.76,3.8-3.87,6.4-3.87,2.14,0,4.22,.57,6.25,1.2s4.03,1.36,5.98,2.22c1.05,.46,2.28,.31,2.91-.76,.53-.9,.29-2.44-.76-2.91h0Z" fill="#fb6952"/><path d="M303.65,53.74c-.68,6.96-.36,13.94,.85,20.83,.2,1.13,1.58,1.77,2.62,1.48,1.19-.33,1.68-1.48,1.48-2.62-1.14-6.5-1.34-13.13-.7-19.69,.11-1.14-1.06-2.13-2.13-2.13-1.24,0-2.01,.98-2.13,2.13h0Z" fill="#fb6952"/><path d="M306.83,72.82c-8.86-.13-17.71-.02-26.56,.35-2.73,.11-2.74,4.36,0,4.25,8.85-.36,17.71-.48,26.56-.35,2.74,.04,2.74-4.21,0-4.25h0Z" fill="#fb6952"/><path d="M277.96,77.03c4.5,2.77,5.36,9.37,1.17,12.64-2.07,1.62-4.7,2.08-7.07,1.13-1.49-.6-2.79-1.66-3.96-2.74-.51-.48-1.09-.96-1.44-1.57-.41-.71-.46-1.51-.44-2.31,.05-3.12,1.77-6.14,4.4-7.82,2.3-1.47,.17-5.15-2.15-3.67-3.61,2.3-5.95,6.09-6.42,10.34-.27,2.42,.16,4.77,1.73,6.68,1.35,1.64,3.19,3.13,5.02,4.2,3.56,2.07,7.75,2.14,11.36,.16s5.8-5.53,5.98-9.54c.19-4.46-2.25-8.83-6.03-11.15-2.34-1.44-4.48,2.24-2.15,3.67h0Z" fill="#fb6952"/><path d="M268.97,72.46c-7.32,1.42-14.82,1-22.22,.9-2.74-.04-2.74,4.21,0,4.25,7.81,.11,15.64,.46,23.35-1.05,1.13-.22,1.77-1.57,1.48-2.62-.32-1.18-1.48-1.71-2.62-1.48h0Z" fill="#fb6952"/><path d="M247.73,75.46c.29-17.61,.57-35.22,.86-52.83,.04-2.74-4.21-2.74-4.25,0-.29,17.61-.57,35.22-.86,52.83-.04,2.74,4.21,2.74,4.25,0h0Z" fill="#fb6952"/><path d="M305.62,23.4c7.35-.18,14.69-.61,22.01-1.3,1.14-.11,2.13-.9,2.13-2.13,0-1.07-.98-2.23-2.13-2.13-7.32,.69-14.66,1.12-22.01,1.3-2.73,.07-2.74,4.32,0,4.25h0Z" fill="#fb6952"/><path d="M326.13,18.46c-1.38,1.23-2.39,2.5-3.07,4.23-.77,1.99-.95,4.46-.88,6.58,.14,4.4,3.59,8.02,7.53,9.59,3.12,1.24,7.44,1.11,10.21-.92,3.09-2.27,4.23-6.93,4.26-10.58,.01-1.52-.48-2.96-1.04-4.36-.71-1.77-1.5-3.47-2.69-4.98-.71-.9-2.26-.74-3.01,0-.89,.89-.71,2.1,0,3.01-.29-.37,.12,.2,.2,.32,.15,.24,.29,.49,.43,.73,.32,.58,.6,1.18,.86,1.79,.29,.68,.73,1.96,.97,2.93,.02,.09,.03,.18,.05,.27-.02-.08,.02-.48-.04-.23-.07,.3,0,.72,0,1.03-.03,.67-.1,1.24-.24,1.89-.29,1.4-.73,2.74-1.5,3.95-.24,.38-.5,.65-.88,.87-.53,.31-.89,.45-1.6,.61-.87,.2-2.41,.23-3.3,.03-2.43-.52-5.45-2.61-5.91-5.26-.15-.87-.05-1.79,.01-2.66s.13-1.74,.36-2.6c.18-.69,.47-1.32,.87-1.91,.13-.2-.02,.03-.05,.05,.13-.16,.28-.31,.43-.46,.33-.33,.67-.63,1.02-.94,.86-.76,.78-2.23,0-3.01-.85-.85-2.15-.77-3.01,0h0Z" fill="#fb6952"/><path d="M338.95,21.67c9.01-.29,18.03-.59,27.04-.88,2.73-.09,2.74-4.34,0-4.25-9.01,.29-18.03,.59-27.04,.88-2.73,.09-2.74,4.34,0,4.25h0Z" fill="#fb6952"/><path d="M364.82,18.12c-.66,1.65-.75,3.44-.86,5.19-.12,1.89-.23,3.79-.35,5.68-.23,3.72-.45,7.44-.68,11.15-.17,2.73,4.09,2.72,4.25,0,.22-3.58,.43-7.16,.65-10.73,.11-1.75,.21-3.51,.32-5.26s.12-3.32,.76-4.9c.43-1.07-.47-2.34-1.48-2.62-1.21-.33-2.18,.42-2.62,1.48h0Z" fill="#fb6952"/><path d="M366.39,42.75c1.44-.82,2.91-1.58,4.42-2.28,1.29-.6,2.81-1.46,4.24-1.6,1.07-.1,1.6,1.17,2.1,1.91,.84,1.24,1.65,2.5,2.31,3.84,1.18,2.38,1.58,5.08,.57,7.6-.46,1.15-1.19,2.32-2.34,2.86-1.05,.49-2.28,.66-3.42,.7-2.55,.1-5.27-.47-7.11-2.35s-4.92,1.04-3.01,3.01c2.39,2.46,5.86,3.54,9.23,3.61,3.8,.08,7.58-1.04,9.67-4.42s2.33-7.59,.92-11.24c-.71-1.84-1.68-3.53-2.76-5.17-1.01-1.52-2.01-3.3-3.72-4.1-2.19-1.03-4.49-.17-6.56,.7-2.29,.96-4.51,2.05-6.67,3.27-2.38,1.35-.24,5.02,2.15,3.67h0Z" fill="#fb6952"/><path d="M363.53,54.94c.69,7.02,.89,14.08,.59,21.13-.12,2.74,4.14,2.73,4.25,0,.3-7.05,.1-14.11-.59-21.13-.11-1.14-.9-2.13-2.13-2.13-1.06,0-2.24,.98-2.13,2.13h0Z" fill="#fb6952"/><path d="M308.64,76.99h19.32c2.74,0,2.74-4.25,0-4.25h-19.32c-2.74,0-2.74,4.25,0,4.25h0Z" fill="#fb6952"/><path d="M330.56,73.09c-2.4-2.95-2.95-7.26-1.27-10.69,1.51-3.07,5.3-6.48,9-5.17,2.89,1.02,4.32,4.47,4.18,7.34-.2,4.08-3.07,7.61-5.82,10.37-1.32,1.33-.32,3.58,1.5,3.63,8.78,.24,17.56,.48,26.34,.73,2.74,.08,2.74-4.18,0-4.25-8.78-.24-17.56-.48-26.34-.73l1.5,3.63c3-3.02,5.78-6.64,6.72-10.88,.85-3.87,0-7.88-2.55-10.93s-6.94-4.18-10.8-2.68-6.92,4.87-8.26,8.86c-1.61,4.77-.33,9.95,2.79,13.79,.72,.89,2.25,.75,3.01,0,.88-.88,.73-2.11,0-3.01h0Z" fill="#fb6952"/><path d="M304.1,76.07c-.07,7.56,.13,15.12,.6,22.66,.17,2.72,4.42,2.74,4.25,0-.47-7.54-.67-15.1-.6-22.66,.03-2.74-4.23-2.74-4.25,0h0Z" fill="#fb6952"/><path d="M308.95,98.73l.02-.18-.29,1.07c-.08,.18-1.64,.64-1.02,.69,.1,0,.21-.01,.31-.02,.36-.04,.72-.08,1.07-.19,.77-.25,1.42-.79,2.12-1.18,1.28-.71,2.69-1.31,4.15-1.49,2.54-.32,4.96,.85,6.49,2.85,1.63,2.13,2.28,5.14,1.92,7.77-.15,1.08-.5,2.26-1.21,3.09-.89,1.05-2.27,1.35-3.57,1.59-3.29,.61-6.85,.13-9.87-1.27-1.04-.48-2.29-.29-2.91,.76-.54,.92-.28,2.42,.76,2.91,3.94,1.83,8.19,2.47,12.48,1.81,2.08-.32,4.14-.96,5.73-2.41,1.35-1.24,2.2-3.03,2.58-4.8,1.66-7.64-3.45-17.24-12.17-16.58-2.38,.18-4.62,1-6.68,2.18-.19,.11-.39,.22-.58,.34-.14,.09-.28,.17-.42,.27-.31,.18-.38,.23-.21,.15,.1-.07,.34,.02,.12-.04-.2-.05-.56,.05-.75,.08-1.42,.21-2.18,1.2-2.3,2.6-.1,1.15,1.05,2.13,2.13,2.13,1.23,0,2.03-.98,2.13-2.13h0Z" fill="#fb6952"/><path d="M305.87,113.29c-.03,6.41,.04,12.82,.07,19.23,.01,2.74,4.26,2.74,4.25,0-.03-6.41-.1-12.82-.07-19.23,.01-2.74-4.24-2.74-4.25,0h0Z" fill="#fb6952"/><path d="M308.05,136.1c18.9-.9,37.82-1.44,56.74-1.6,2.73-.02,2.74-4.28,0-4.25-18.92,.16-37.84,.69-56.74,1.6-2.72,.13-2.74,4.38,0,4.25h0Z" fill="#fb6952"/><path d="M368.08,132.52c.27-8.24,.33-16.53,1.12-24.74,.11-1.14-1.06-2.13-2.13-2.13-1.24,0-2.02,.98-2.13,2.13-.79,8.21-.85,16.5-1.12,24.74-.09,2.74,4.16,2.73,4.25,0h0Z" fill="#fb6952"/><path d="M365.78,104.54c-1.93,1.23-3.5,2.92-5.23,4.39-.32,.27-.55,.46-.9,.7-.21,.14-.86,.39-.21,.18-.64,.21-1.27,.4-1.94,.49,.43-.06-.34,.02-.33,.02-.25,.02-.5,.03-.74,.03-.55,0-1.1,0-1.65-.08-.42-.05-.84-.15-1.26-.25-.32-.08-.65-.17-.96-.27-.22-.07-.44-.15-.66-.23,.35,.16,.43,.19,.24,.08-.34-.19,.33,.38,.07,.06-.05-.06-.12-.12-.18-.17-.09-.1-.18-.2-.26-.3,.38,.44,.05,.07,0-.05-.17-.28-.34-.56-.49-.86-.05-.11-.1-.21-.16-.32-.05-.11-.1-.22-.15-.33,.09,.22,.09,.21,0-.02-.25-.7-.49-1.41-.67-2.13-.1-.41-.2-.83-.27-1.25-.04-.21-.07-.42-.11-.64,.06,.38-.05-.42-.05-.5-.07-.76-.09-1.52-.05-2.28,.01-.2,.03-.39,.05-.59-.05,.49,.02-.12,.04-.19,.07-.35,.19-.69,.28-1.04,.12-.5-.22,.31,.04-.11,.08-.12,.18-.28,.24-.42,.18-.42-.29,.24,.04-.07,.08-.07,.14-.16,.22-.23,.11-.11,.24-.22,.36-.32-.41,.33,.02,0,.11-.05,.15-.08,.29-.17,.44-.25,.09-.05,.76-.33,.3-.15,.65-.25,1.32-.44,2-.57,.8-.16,1.02-.18,2.05-.23,.88-.04,1.77-.03,2.65,.02,.46,.03,.91,.08,1.36,.12,.61,.06-.28-.04,.08,0,.21,.03,.41,.06,.62,.1,.67,.12,1.33,.26,1.97,.47,.12,.04,.24,.09,.37,.13,.36,.1-.45-.27,.01,0,.08,.05,.17,.1,.25,.14,.43,.19-.31-.28-.12-.1,.84,.78,2.17,.84,3.01,0,.79-.79,.85-2.23,0-3.01-1-.92-2.39-1.33-3.69-1.61-1.76-.38-3.58-.56-5.38-.56-3.61,0-8.04,.66-10.24,3.88-1.05,1.54-1.33,3.6-1.33,5.43,0,2.01,.34,4.07,.94,5.99,.52,1.68,1.24,3.4,2.42,4.73,1.55,1.73,4.41,2.1,6.6,2.23,1.98,.11,4.37-.1,6.11-1.16,2.35-1.44,4.08-3.79,6.34-5.22s.17-5.15-2.15-3.67h0Z" fill="#fb6952"/><path d="M366.77,96.01c.78-6.11,1.01-12.28,.67-18.43-.06-1.15-.93-2.13-2.13-2.13-1.1,0-2.19,.97-2.13,2.13,.34,6.15,.11,12.32-.67,18.43-.15,1.14,1.08,2.13,2.13,2.13,1.27,0,1.98-.98,2.13-2.13h0Z" fill="#fb6952"/></g><path d="M224.8,127.22c-3.13,8.16-5.6,16.55-7.39,25.1-.56,2.67,3.54,3.81,4.1,1.13,1.79-8.55,4.26-16.94,7.39-25.1,.41-1.07-.45-2.33-1.48-2.62-1.2-.33-2.2,.41-2.62,1.48h0Z" fill="#fb6952"/><path d="M233.81,113.88c.6-2,1.26-3.98,1.86-5.97,.32-1.07-.38-2.36-1.48-2.62s-2.27,.34-2.62,1.48c-.6,2-1.26,3.98-1.86,5.97-.32,1.07,.38,2.36,1.48,2.62s2.27-.34,2.62-1.48h0Z" fill="#fb6952"/><path d="M233.05,109.39c5.73,2.18,11.89,3.12,17.88,4.32,1.12,.23,2.3-.32,2.62-1.48,.29-1.05-.35-2.39-1.48-2.62-5.99-1.2-12.14-2.14-17.88-4.32-1.07-.41-2.33,.45-2.62,1.48-.33,1.2,.41,2.21,1.48,2.62h0Z" fill="#fb6952"/><path d="M249.99,110.16c-1.34,1.08-2.56,2.33-3.62,3.69-1.18,1.52-2.36,3.26-2.65,5.21-.09,.59-.1,1.1,.21,1.64,.26,.44,.76,.86,1.27,.98,.54,.12,1.16,.1,1.64-.21,.43-.28,.9-.74,.98-1.27,.05-.37,.14-.72,.27-1.07,.03-.08,.06-.17,.09-.25,.15-.39-.06,.16-.07,.16,0,0,.25-.51,.27-.55,.19-.36,.4-.71,.63-1.06,.12-.18,.25-.37,.38-.55,.06-.08,.12-.16,.18-.25,.26-.36-.32,.39-.03,.04,1.04-1.28,2.19-2.46,3.47-3.5,.4-.32,.62-1.02,.62-1.5,0-.52-.23-1.14-.62-1.5s-.94-.65-1.5-.62c-.6,.03-1.04,.25-1.5,.62h0Z" fill="#fb6952"/><path d="M256.26,127.02c1.48-.05,3.05-.11,4.37-.86,1.44-.81,2.31-2.43,2.68-3.99,.41-1.74,.38-3.63,.2-5.4-.2-1.99-.78-3.78-2.51-4.95-.92-.62-2.4-.21-2.91,.76-.57,1.07-.22,2.24,.76,2.91,.16,.11,.17,.11,.03,.01-.14-.11-.13-.1,0,.03l.1,.11c-.18-.24-.2-.27-.08-.08,.04,.08,.28,.39,.1,.14-.18-.23,.02,.07,.06,.17,.05,.17,.1,.83,.21,.91-.09-.06-.05-.44,0-.02,.01,.13,.02,.26,.03,.39,.05,.68,.07,1.36,.08,2.03,0,.39-.02,.78-.04,1.17s.04-.14,0,.11c-.03,.19-.07,.38-.11,.57-.04,.16-.08,.31-.13,.46-.02,.06-.26,.58-.06,.21-.11,.22-.23,.43-.36,.65-.22,.37,.06-.14,.1-.12,0,0-.21,.22-.21,.23-.21,.27,.43-.25,.12-.08-.07,.04-.15,.09-.22,.13-.34,.22,.14-.11,.18-.06,0,0-.3,.1-.31,.1-.22,.06-.43,.09-.65,.14-.25,.05,.49-.04,.09-.02-.15,.01-.3,.03-.45,.04-.34,.02-.69,.04-1.03,.05-1.11,.04-2.18,.95-2.13,2.13s.94,2.17,2.13,2.13h0Z" fill="#fb6952"/><path d="M259.19,115.27c4.09,.44,8.07,2.34,11.89,3.75,4.09,1.51,8.17,3.01,12.26,4.52,1.08,.4,2.33-.44,2.62-1.48,.33-1.19-.4-2.22-1.48-2.62-4.24-1.56-8.48-3.13-12.73-4.69s-8.17-3.26-12.56-3.73c-1.14-.12-2.13,1.07-2.13,2.13,0,1.25,.98,2,2.13,2.13h0Z" fill="#fb6952"/><path d="M281.86,120.92c-2.77,6.75-5.08,13.69-8.21,20.29-.49,1.04-.29,2.29,.76,2.91,.92,.54,2.42,.28,2.91-.76,3.28-6.93,5.73-14.21,8.64-21.31,.44-1.06-.47-2.34-1.48-2.62-1.22-.33-2.18,.42-2.62,1.48h0Z" fill="#fb6952"/><path d="M275.75,145.28c2.26-.31,4.59-.41,6.86-.25,1.26,.08,3.36,.95,3.85,2.28,.26,.72,.04,1.84,.03,2.6-.02,.81,.06,1.64,0,2.45-.11,1.71-.92,3.78-2.02,5.11-2,2.42-6.26,1.82-8.43,.07s-1.63-4.41-2.28-6.94c-.54-2.13-3.45-1.9-4.1,0-2.05,6-4.09,12.01-6.14,18.01-.88,2.6,3.22,3.71,4.1,1.13,2.05-6,4.09-12.01,6.14-18.01h-4.1c.32,1.26,.34,2.54,.58,3.9,.27,1.58,.98,3.02,2.06,4.21,2.78,3.07,7.2,4.15,11.13,2.99s5.94-4.27,6.92-8c.51-1.92,.37-3.9,.41-5.86s-.23-3.76-1.7-5.25c-1.68-1.7-3.86-2.75-6.23-2.92-2.75-.2-5.49,.02-8.21,.39-1.14,.16-1.76,1.61-1.48,2.62,.34,1.23,1.47,1.64,2.62,1.48h0Z" fill="#fb6952"/><path d="M266.15,167.12c-15.75-3.58-30.83-9.67-45.61-16.08-1.05-.46-2.28-.31-2.91,.76-.53,.9-.3,2.45,.76,2.91,15.12,6.56,30.51,12.84,46.63,16.51,2.66,.61,3.8-3.49,1.13-4.1h0Z" fill="#fb6952"/></g></svg>