<?xml version="1.0" encoding="utf-8"?>
<!-- Generator: Adobe Illustrator 22.0.1, SVG Export Plug-In . SVG Version: 6.00 Build 0)  -->
<svg version="1.1" id="Layer_1" xmlns="http://www.w3.org/2000/svg" xmlns:xlink="http://www.w3.org/1999/xlink" x="0px" y="0px"
	 viewBox="0 0 48 48" style="enable-background:new 0 0 48 48;" xml:space="preserve">
<style type="text/css">
	.st0{fill:#FFFFFF;}
</style>
<g>
	<path id="i-418" class="st0" d="M33,42c-2.4,0-4-1.6-4-4V15l-0.1-1H14v6h1c2.4,0,4,1.6,4,4v14c0,2.4-1.6,4-4,4h-1v6h20v-6H33z
		 M32,46H16v-2.1c3-0.4,5-2.7,5-5.9V24c0-3.2-2-5.5-5-5.9V16h11v22c0,3.2,2,5.5,5,5.9V46z M24,12c3.3,0,6-2.7,6-6s-2.7-6-6-6
		c-3.3,0-6,2.7-6,6S20.7,12,24,12z M24,2c2.2,0,4,1.8,4,4s-1.8,4-4,4s-4-1.8-4-4S21.8,2,24,2z"/>
</g>
</svg>
