<?xml version="1.0" encoding="utf-8"?>
<!-- Generator: Adobe Illustrator 25.4.1, SVG Export Plug-In . SVG Version: 6.00 Build 0)  -->
<svg version="1.1" id="Capa_1" xmlns="http://www.w3.org/2000/svg" xmlns:xlink="http://www.w3.org/1999/xlink" x="0px" y="0px"
	 viewBox="0 0 49.7 49.7" style="enable-background:new 0 0 49.7 49.7;" xml:space="preserve">
<style type="text/css">
	.st0{fill:url(#SVGID_1_);}
	.st1{fill:url(#SVGID_00000159468772116497662830000013735913306144174504_);}
	.st2{fill:url(#SVGID_00000043416680983113106020000013779526569881859204_);}
	.st3{fill:url(#SVGID_00000106149450717994348290000009820838725333770423_);}
</style>
<linearGradient id="SVGID_1_" gradientUnits="userSpaceOnUse" x1="19.9967" y1="27.2" x2="29.8" y2="27.2" gradientTransform="matrix(1 0 0 -1 0 52)">
	<stop  offset="4.422065e-07" style="stop-color:#FB6952"/>
	<stop  offset="1" style="stop-color:#F8C236"/>
</linearGradient>
<path class="st0" d="M24.8,29.8c2.7,0,5-2.2,5-5c0-1.1-0.4-2.1-0.9-2.9c-0.9-1.3-2.4-2.1-4-2.1c-1.7,0-3.1,0.8-4,2.1
	c-0.6,0.8-0.9,1.8-0.9,2.9C19.9,27.6,22.1,29.8,24.8,29.8z"/>
<linearGradient id="SVGID_00000036955925101448031690000004395162499305181374_" gradientUnits="userSpaceOnUse" x1="30.9" y1="35.6" x2="35.7" y2="35.6" gradientTransform="matrix(1 0 0 -1 0 52)">
	<stop  offset="4.422065e-07" style="stop-color:#FB6952"/>
	<stop  offset="1" style="stop-color:#F8C236"/>
</linearGradient>
<polygon style="fill:url(#SVGID_00000036955925101448031690000004395162499305181374_);" points="35.7,18.7 35.7,14.6 35.7,14 
	35.1,14 30.9,14 30.9,18.8 "/>
<linearGradient id="SVGID_00000136393240415178193780000002158222265642355098_" gradientUnits="userSpaceOnUse" x1="0" y1="27.2" x2="49.6007" y2="27.2" gradientTransform="matrix(1 0 0 -1 0 52)">
	<stop  offset="0" style="stop-color:#F8C236"/>
	<stop  offset="1" style="stop-color:#FB6952"/>
</linearGradient>
<path style="fill:url(#SVGID_00000136393240415178193780000002158222265642355098_);" d="M24.8,0C11.1,0,0,11.1,0,24.8
	s11.1,24.8,24.8,24.8s24.8-11.1,24.8-24.8C49.7,11.1,38.5,0,24.8,0z M38.9,21.9v11.6c0,3-2.4,5.5-5.5,5.5H16.2c-3,0-5.5-2.4-5.5-5.5
	V21.9v-5.8c0-3,2.4-5.5,5.5-5.5h17.3c3,0,5.5,2.4,5.5,5.5L38.9,21.9L38.9,21.9z"/>
<linearGradient id="SVGID_00000060024831090412453610000000639977919977769367_" gradientUnits="userSpaceOnUse" x1="13.5" y1="22.95" x2="36.2" y2="22.95" gradientTransform="matrix(1 0 0 -1 0 52)">
	<stop  offset="4.422065e-07" style="stop-color:#FB6952"/>
	<stop  offset="1" style="stop-color:#F8C236"/>
</linearGradient>
<path style="fill:url(#SVGID_00000060024831090412453610000000639977919977769367_);" d="M32.5,24.8c0,4.3-3.5,7.7-7.7,7.7
	s-7.7-3.5-7.7-7.7c0-1,0.2-2,0.6-2.9h-4.2v11.6c0,1.5,1.2,2.7,2.7,2.7h17.3c1.5,0,2.7-1.2,2.7-2.7V21.9H32
	C32.3,22.8,32.5,23.8,32.5,24.8z"/>
</svg>
