<?xml version="1.0" encoding="UTF-8"?>
<svg id="Layer_2" data-name="Layer 2" xmlns="http://www.w3.org/2000/svg" viewBox="0 0 49.69 48.37">
  <defs>
    <style>
      .cls-1 {
        fill: #b6aaf1;
      }

      .cls-1, .cls-2 {
        stroke-width: 0px;
      }

      .cls-2 {
        fill: #fff;
      }
    </style>
  </defs>
  <g id="Layer_1-2" data-name="Layer 1">
    <g>
      <path class="cls-2" d="M13.04,5.53c-2.3-.5-4.66,1-5.88,3.01s-1.54,4.42-1.77,6.76c-.5,5.25-.66,10.53-.47,15.8.12,3.4.58,7.18,3.18,9.36,1.92,1.62,4.58,1.97,7.08,2.25,6.97.79,14.03,1.59,20.96.52,2.58-.4,5.39-1.25,6.68-3.51.71-1.25.83-2.73.94-4.17.4-5.37.8-10.73,1.19-16.1.31-4.12.45-8.74-2.3-11.82-3.2-3.59-8.76-3.42-13.55-2.97-4.76.45-9.53.89-14.29,1.34"/>
      <path class="cls-1" d="M13.04,1.03C6.07.68,2.17,6.43,1.21,12.7c-1.14,7.44-1.97,16.63-.14,24.02,1.6,6.49,6.26,9.43,12.6,10.31,8.05,1.12,16.95,2.22,24.97.31,6.72-1.6,9.16-6.16,9.68-12.67.57-7.16,2.02-15.03,1.02-22.19C46.98-4.48,26.61.39,14.81,1.5c-5.72.53-5.77,9.54,0,9,4.76-.45,9.52-.95,14.29-1.34,3.83-.31,9.35-1.19,11.1,3.19,1.21,3.02.22,7.54-.01,10.68-.18,2.39-.35,4.77-.53,7.16-.12,1.64.31,5.66-.64,7.02-2.31,3.29-10.91,2.11-14.29,1.92s-10.23.33-13.11-1.72c-3.57-2.54-2.32-10.46-2.21-14.21.08-2.58-.7-13.38,3.64-13.16,5.79.3,5.77-8.7,0-9h0Z"/>
    </g>
    <g>
      <path class="cls-2" d="M21.49,20.91c-2.71,1.04-4.36,4.2-3.81,7.05s3.16,5.13,6.04,5.43,5.84-1.32,7.27-3.84c.52-.91.85-1.95.84-3-.02-1.97-1.27-3.78-2.89-4.91s-3.56-1.68-5.49-2.09"/>
      <path class="cls-1" d="M19.21,17.03c-4.69,2.18-7.23,7.95-5.68,12.89,1.7,5.43,7.4,8.77,12.95,7.79,5.1-.9,9.68-5.44,9.82-10.77.18-6.72-5.84-10.42-11.66-11.73s-8.05,7.4-2.39,8.68c1.26.28,4.95.83,5.08,2.66.08,1.17-1.48,2.18-2.46,2.34-2.9.49-3.58-2.94-1.11-4.09,2.2-1.02,2.76-4.2,1.61-6.16-1.32-2.26-3.94-2.64-6.16-1.61h0Z"/>
    </g>
    <path class="cls-1" d="M30.09,14.13v.43c-.02.62.11,1.2.39,1.73.18.56.49,1.04.93,1.45.41.44.89.75,1.45.93.54.28,1.11.41,1.73.39l1.2-.16c.76-.21,1.42-.6,1.99-1.16l.7-.91c.41-.7.61-1.46.61-2.27v-.43c.02-.62-.11-1.2-.39-1.73-.18-.56-.49-1.04-.93-1.45-.41-.44-.89-.75-1.45-.93-.54-.28-1.11-.41-1.73-.39l-1.2.16c-.76.21-1.42.6-1.99,1.16l-.7.91c-.41.7-.61,1.46-.61,2.27h0Z"/>
  </g>
</svg>