<?xml version="1.0" encoding="utf-8"?>
<!-- Generator: Adobe Illustrator 25.4.1, SVG Export Plug-In . SVG Version: 6.00 Build 0)  -->
<svg version="1.1" id="Layer_2_00000168117175815954356370000011178155565371602313_"
	 xmlns="http://www.w3.org/2000/svg" xmlns:xlink="http://www.w3.org/1999/xlink" x="0px" y="0px" viewBox="0 0 214.7 148.8"
	 style="enable-background:new 0 0 214.7 148.8;" xml:space="preserve">
<style type="text/css">
	.st0{fill:#CBC4EE;}
	.st1{fill:none;stroke:#CBC4EE;stroke-width:2.8346;stroke-miterlimit:10;}
</style>
<path class="st0" d="M81.6,71.2c-9.5,6.6-28.7,13.6-23.7,28.9c4.2,12.9,24,13.5,34.9,12.9c3.2-0.2,3.2-5.2,0-5
	c-8.4,0.5-26.4,0.8-30.1-9.2C58.2,87,77.1,80.5,84.2,75.6C86.7,73.8,84.2,69.4,81.6,71.2L81.6,71.2z"/>
<path class="st0" d="M85.3,74.1c6.7-6.8,11-15.7,16.5-23.5c5.7-8.1,12.4-15.8,20.4-21.8c15-11.1,35.9-16.3,52.5-5.6
	c15.5,9.9,18.7,32.2,18.8,49.2c0,9.3-1.7,19.1-8.2,26.3c-6.2,6.8-15.4,9.8-24,12.1c-22.4,5.7-46.3,6.2-68.1-2.2
	c-3-1.2-4.3,3.7-1.3,4.8c21.1,8.2,44.4,8.2,66.4,3.2c9.7-2.2,20-5.2,27.8-11.7c7-5.9,10.7-14.6,11.8-23.5
	c1.3-10.1,0.2-20.5-1.7-30.4c-1.8-9.5-5.2-19-11.8-26.1c-13.5-14.8-35.6-15.4-52.8-7.6c-10.8,5-20.1,13.1-27.5,22.1
	c-3.7,4.6-7.2,9.4-10.5,14.4c-3.7,5.7-6.9,11.6-11.6,16.6C79.6,72.9,83.2,76.4,85.3,74.1L85.3,74.1z"/>
<path class="st0" d="M124.3,117.8c-1.1,5.3-3.3,10.4-6.5,14.9c-1.8,2.6,2.5,5.1,4.3,2.5c3.4-4.8,5.8-10.2,7-16.1
	C129.7,116,124.9,114.7,124.3,117.8L124.3,117.8z"/>
<path class="st0" d="M168.9,111.1c-0.4,7.4,0.9,17.9,9.2,20.6c3.1,1,4.4-3.8,1.3-4.8c-5.7-1.8-5.7-11.1-5.5-15.7
	C174,107.8,169,107.8,168.9,111.1L168.9,111.1z"/>
<path class="st0" d="M59.3,91c-15.6,5.7-27.4,17.2-38.6,28.9c-2.2,2.3,1.3,5.8,3.5,3.5c10.6-11,21.7-22.3,36.4-27.5
	C63.6,94.7,62.3,89.9,59.3,91z"/>
<path class="st0" d="M24.8,123.6c6.2-5,12.5-9.9,19.6-13.7c3.4-1.9,7.1-3.4,10.9-4.5c2.5-0.7,5.5-0.5,7.1-2.8c0.6-1,0.4-2.2-0.4-3
	l-0.2-0.2c-0.7-0.7-1.6-0.8-2.4-0.7l-0.2,0.1c-1.3,0.4-2.1,1.7-1.7,3.1v0.2c0.4,3.2,5.2,1.8,4.8-1.3v-0.2l-1.7,3.1l0.2-0.1l-2.4-0.7
	l0.2,0.2l-0.4-3c0.7-1,0.5-0.5-0.7-0.3c-0.9,0.2-1.8,0.3-2.7,0.7c-1.7,0.5-3.5,1-5.2,1.7c-3.4,1.3-6.7,2.9-9.9,4.8
	c-6.4,3.7-12.3,8.4-18.1,13.1C18.8,122,22.3,125.5,24.8,123.6L24.8,123.6z"/>
<path class="st0" d="M74.3,85.1c-3.7-0.3-7,3.5-5.9,7.1s5.3,5.2,8.4,3.2c2.7-1.9,3.4-5.6,1.5-8.3c-0.1-0.2-0.2-0.3-0.3-0.4
	c-2.3-2.6-6.3-2.4-8.8-0.2s1.2,5.7,3.5,3.5c0.5-0.3,1.2-0.3,1.6,0c-0.1-0.1,0.1,0.4,0.1,0.3c0,0.3-0.1,0.7-0.3,0.9
	c-0.1,0.1-0.2,0.1-0.2,0.1c-0.2-0.1-0.5-0.2-0.7-0.5c-0.2-0.5,0.6-0.8,1.1-0.7c1.4,0,2.5-1.1,2.5-2.5C76.8,86.3,75.7,85.1,74.3,85.1
	L74.3,85.1z"/>
<path class="st0" d="M48.5,104.7c3-2.3,6.4-4,10.1-4.9L55.5,98c-0.2-0.8,0.4-0.4-0.5-0.7c-0.7-0.1-1.3,0-2,0.1l-3.7,0.2
	c-3.2,0.1-3.2,5.1,0,5c3.6-0.2,12.9,0.5,11-5.8c-0.4-1.3-1.7-2.1-3.1-1.7c-4.5,1.2-8.7,3.2-12.3,6.2
	C42.4,103.1,45.9,106.6,48.5,104.7L48.5,104.7z"/>
<path class="st0" d="M74,87.2c-1.4,0.8-2.2,2.3-2.2,4c0,0.7,0.2,1.2,0.7,1.7c0.5,0.5,1.1,0.7,1.7,0.7c1.4,0,2.5-1.1,2.5-2.5
	c0-0.2,0-0.3,0-0.5l-0.1,0.7c0-0.2,0.1-0.3,0.2-0.5l-0.3,0.7c0-0.1,0.1-0.2,0.1-0.2c0.2-0.2,0.1-0.2-0.2,0.2l0.2-0.2
	c-0.3,0.2-0.4,0.3-0.2,0.2c1.2-0.6,1.7-2.1,1.2-3.3c-0.6-1.2-2.1-1.7-3.3-1.2C74.2,87.1,74.1,87.1,74,87.2L74,87.2z"/>
<g>
	<path class="st1" d="M61.8,20.7c-2.5-4-5.9-8.6-11.2-8.2c-5.1,0.4-8.8,4.8-9.6,9.6c-1,5.9,1.5,11.4,4.5,16.4
		c3.8,6.2,8.1,12.2,12.8,17.8c0.8,1,2.3-0.4,1.4-1.4c-3.4-4.1-6.5-8.4-9.5-12.8c-2.6-3.9-5.4-8-6.7-12.6c-1.4-4.9-0.8-11,4-13.8
		c5.6-3.2,9.8,1.7,12.5,6.1C60.7,22.9,62.5,21.8,61.8,20.7L61.8,20.7z"/>
	<path class="st1" d="M58.8,56.6c6-4.6,11.8-9.3,17.6-14c2.2-1.9,5-3.6,6.2-6.4s1.5-6.7,1.3-9.7c-0.3-4.6-2.9-9.2-7.9-9.6
		c-5.9-0.5-10,4.3-13.1,8.6c-0.8,1.1,1,2.1,1.8,1c2.8-4,8-9.9,13.5-6.9c4.7,2.6,4.2,10.2,2.9,14.6c-1.3,4.5-7.3,7.8-10.7,10.6
		c-4.1,3.4-8.4,6.7-12.6,9.9C56.7,55.6,57.8,57.4,58.8,56.6L58.8,56.6z"/>
</g>
</svg>
