<?xml version="1.0" encoding="utf-8"?>
<!-- Generator: Adobe Illustrator 25.4.1, SVG Export Plug-In . SVG Version: 6.00 Build 0)  -->
<svg version="1.1" id="Layer_2_00000168117175815954356370000011178155565371602313_"
	 xmlns="http://www.w3.org/2000/svg" xmlns:xlink="http://www.w3.org/1999/xlink" x="0px" y="0px" viewBox="0 0 214.7 148.8"
	 style="enable-background:new 0 0 214.7 148.8;" xml:space="preserve">
<style type="text/css">
	.st0{fill:#FB6952;}
</style>
<path class="st0" d="M74.1,70.6c-11.4,7.9-34.5,16.3-28.5,34.7c5,15.5,28.9,16.2,41.9,15.5c3.8-0.2,3.9-6.2,0-6
	c-10.1,0.6-31.7,1-36.2-11.1C46,89.5,68.7,81.7,77.2,75.8C80.3,73.7,77.3,68.4,74.1,70.6L74.1,70.6z"/>
<path class="st0" d="M78.6,74.1c8.1-8.2,13.2-18.9,19.8-28.2c6.9-9.7,14.9-19,24.5-26.2c18-13.4,43.1-19.6,63.1-6.7
	c18.6,11.9,22.5,38.7,22.6,59.1c0,11.2-2.1,23-9.8,31.6c-7.4,8.2-18.5,11.8-28.9,14.5c-26.9,6.9-55.6,7.5-81.8-2.6
	c-3.6-1.4-5.2,4.4-1.6,5.8c25.4,9.8,53.4,9.8,79.8,3.9c11.7-2.6,24-6.2,33.4-14.1c8.4-7.1,12.8-17.5,14.2-28.2
	c1.6-12.1,0.2-24.6-2.1-36.5c-2.2-11.4-6.2-22.8-14.2-31.4C181.4-2.7,154.8-3.4,134.2,6c-13,6-24.1,15.7-33.1,26.6
	c-4.5,5.5-8.7,11.3-12.6,17.3c-4.4,6.8-8.3,14-14,19.9C71.7,72.6,76,76.8,78.6,74.1L78.6,74.1z"/>
<path class="st0" d="M125.4,126.6c-1.3,6.4-4,12.5-7.8,17.9c-2.2,3.1,3,6.1,5.2,3c4.1-5.8,7-12.3,8.4-19.3
	C131.9,124.4,126.1,122.8,125.4,126.6L125.4,126.6z"/>
<path class="st0" d="M179,118.5c-0.5,8.9,1.1,21.5,11,24.7c3.7,1.2,5.3-4.6,1.6-5.8c-6.8-2.2-6.9-13.3-6.6-18.9
	C185.2,114.6,179.2,114.6,179,118.5L179,118.5z"/>
<path class="st0" d="M47.3,94.3C28.6,101.1,14.4,115,0.9,129c-2.7,2.8,1.6,7,4.2,4.2c12.7-13.2,26.1-26.8,43.8-33.1
	C52.5,98.8,50.9,93,47.3,94.3z"/>
<path class="st0" d="M5.9,133.5c7.4-6,15-11.9,23.5-16.5c4.1-2.3,8.5-4.1,13.1-5.4c3-0.8,6.6-0.6,8.5-3.4c0.7-1.2,0.5-2.7-0.5-3.6
	l-0.2-0.2c-0.8-0.8-1.9-1-2.9-0.8l-0.3,0.1c-1.6,0.5-2.5,2.1-2.1,3.7v0.2c0.5,3.8,6.3,2.2,5.8-1.6v-0.2l-2.1,3.7l0.3-0.1l-2.9-0.8
	l0.2,0.2l-0.5-3.6c0.8-1.2,0.6-0.6-0.9-0.4c-1.1,0.2-2.2,0.4-3.2,0.8c-2.1,0.6-4.2,1.2-6.3,2c-4.1,1.6-8.1,3.5-11.9,5.8
	c-7.7,4.5-14.8,10.1-21.8,15.8C-1.4,131.6,2.9,135.8,5.9,133.5L5.9,133.5z"/>
<path class="st0" d="M65.3,87.3c-4.4-0.4-8.4,4.2-7.1,8.5s6.4,6.3,10.1,3.9c3.3-2.3,4.1-6.7,1.8-10c-0.1-0.2-0.3-0.4-0.4-0.5
	c-2.8-3.1-7.6-2.9-10.6-0.2s1.4,6.8,4.2,4.2c0.6-0.4,1.4-0.4,1.9,0c-0.1-0.1,0.1,0.5,0.1,0.4c0,0.4-0.1,0.8-0.4,1.1
	c-0.1,0.1-0.2,0.1-0.3,0.1c-0.3-0.1-0.6-0.3-0.8-0.6c-0.3-0.6,0.7-1,1.3-0.9c1.7,0,3-1.3,3-3C68.3,88.7,67,87.3,65.3,87.3L65.3,87.3
	z"/>
<path class="st0" d="M34.3,110.8c3.6-2.8,7.7-4.8,12.1-5.9l-3.7-2.1c-0.3-1,0.5-0.5-0.6-0.9c-0.8-0.1-1.6,0-2.4,0.1l-4.4,0.2
	c-3.8,0.1-3.9,6.1,0,6c4.3-0.2,15.5,0.6,13.2-7c-0.5-1.6-2.1-2.5-3.7-2.1c-5.4,1.4-10.4,3.9-14.8,7.4
	C27,108.9,31.2,113.1,34.3,110.8L34.3,110.8z"/>
<path class="st0" d="M65,89.8c-1.7,1-2.7,2.8-2.6,4.8c0,0.8,0.3,1.5,0.9,2.1c0.6,0.6,1.3,0.9,2.1,0.9c1.7,0,3-1.3,3-3
	c0-0.2,0-0.4,0-0.6l-0.1,0.8c0-0.2,0.1-0.4,0.2-0.6L68.1,95c0-0.1,0.1-0.2,0.1-0.3c0.2-0.3,0.1-0.2-0.2,0.2l0.2-0.2
	c-0.4,0.3-0.5,0.4-0.2,0.2c1.5-0.7,2.1-2.5,1.4-4c-0.7-1.5-2.5-2.1-4-1.4C65.2,89.7,65.1,89.7,65,89.8L65,89.8z"/>
</svg>
