<svg id="Layer_1" data-name="Layer 1" xmlns="http://www.w3.org/2000/svg" viewBox="0 0 273.59 66.73"><title>title</title><path d="M113.39,231.42h14.52q10.23,0,14.8,3.05t4.57,9.67a11.16,11.16,0,0,1-2.55,7.54,12.25,12.25,0,0,1-7.43,3.85v.35q11.7,2,11.7,12.31,0,6.88-4.65,10.76t-13,3.86H113.39Zm6,22h9.84q6.33,0,9.11-2t2.77-6.7q0-4.32-3.09-6.24t-9.84-1.92h-8.79Zm0,5.07v19.23h10.72c4.15,0,7.27-.81,9.37-2.41s3.15-4.12,3.15-7.54c0-3.19-1.08-5.53-3.22-7s-5.41-2.25-9.79-2.25Z" transform="translate(-113.39 -216.85)" style="fill:#fdbd6f"/><path d="M170.83,283.52q-8.54,0-13.48-5.21t-4.94-14.45q0-9.32,4.59-14.8a15.26,15.26,0,0,1,12.32-5.48q7.25,0,11.46,4.76T185,260.91v3.69H158.46q.18,6.79,3.43,10.3c2.16,2.35,5.22,3.52,9.15,3.52a31.15,31.15,0,0,0,12.31-2.6V281a31.1,31.1,0,0,1-5.85,1.92A33.41,33.41,0,0,1,170.83,283.52Zm-1.58-35a9.52,9.52,0,0,0-7.4,3,14,14,0,0,0-3.25,8.37h20.14q0-5.52-2.46-8.46A8.64,8.64,0,0,0,169.25,248.47Z" transform="translate(-113.39 -216.85)" style="fill:#fdbd6f"/><path d="M214,282.81l-1.16-5.48h-.28a16.17,16.17,0,0,1-5.75,4.9,17.47,17.47,0,0,1-7.16,1.29q-5.73,0-9-3t-3.25-8.4q0-11.67,18.67-12.23l6.54-.21v-2.39q0-4.54-1.95-6.7t-6.24-2.16a25.36,25.36,0,0,0-10.9,2.95l-1.8-4.47a27.25,27.25,0,0,1,6.24-2.42,26.91,26.91,0,0,1,6.81-.88q6.88,0,10.21,3.06t3.32,9.81v26.29Zm-13.19-4.11c3.64,0,6.49-1,8.57-3s3.11-4.78,3.11-8.37v-3.48l-5.84.25c-4.64.16-8,.89-10,2.16a6.53,6.53,0,0,0-3.07,6,6,6,0,0,0,1.91,4.82A8,8,0,0,0,200.85,278.7Z" transform="translate(-113.39 -216.85)" style="fill:#fdbd6f"/><path d="M231.54,263.09a69.86,69.86,0,0,1,4.61-5.62l12.44-13.19h6.93L239.91,260.7l16.7,22.11h-7.07l-13.6-18.21-4.4,3.8v14.41h-5.76v-54.7h5.76v29c0,1.29-.09,3.29-.28,6Z" transform="translate(-113.39 -216.85)" style="fill:#fdbd6f"/><path d="M259.84,231.42h14.52q10.23,0,14.8,3.05t4.57,9.67a11.16,11.16,0,0,1-2.55,7.54,12.22,12.22,0,0,1-7.43,3.85v.35q11.7,2,11.71,12.31,0,6.88-4.66,10.76t-13,3.86H259.84Zm6,22h9.84q6.33,0,9.11-2t2.77-6.7q0-4.32-3.09-6.24t-9.84-1.92h-8.79Zm0,5.07v19.23h10.72c4.15,0,7.27-.81,9.37-2.41s3.15-4.12,3.15-7.54c0-3.19-1.08-5.53-3.22-7s-5.41-2.25-9.79-2.25Z" transform="translate(-113.39 -216.85)" style="fill:#fdbd6f"/><path d="M366.17,263.09l-13.4-18.81h6.65l10.16,14.77,10.12-14.77h6.58l-13.4,18.81L387,282.81h-6.61L369.58,267.2l-10.9,15.61h-6.61Z" transform="translate(-113.39 -216.85)" style="fill:#fdbd6f"/><path d="M352,265.62a18.19,18.19,0,0,1-13.63,15.79,48.53,48.53,0,0,1-19.12,1.94,28.21,28.21,0,0,1-10.17-2.5,18.48,18.48,0,0,1-7.28-6.86,16,16,0,0,1-1.5-3,20.3,20.3,0,0,1-.81-3.19c-.12-.59-.33-1.63-.49-2.87l0-.18a21.69,21.69,0,0,1,.63-9.51,24.31,24.31,0,0,1,1.75-4.1,30.28,30.28,0,0,1,2.7-5,15.33,15.33,0,0,0,1.91-4.37,7.88,7.88,0,0,0,.18-1.44c.06-1.18-.08-2.38-.09-3.56A13.23,13.23,0,0,1,312.4,225a16.52,16.52,0,0,1,3.86-1.67,19.79,19.79,0,0,1,3-.66l3.51-.5c1-.13,1.21-.72,1.53-1.56a6,6,0,0,1,2.49-2.95,4.4,4.4,0,0,1,2.22-.8,1.18,1.18,0,0,1,1.17.84,1.58,1.58,0,0,1-.08.71,5.66,5.66,0,0,1-.89,1.81.41.41,0,0,0-.1.36c.52-.11,1-.37,1.57-.47a16.39,16.39,0,0,1,1.84-.19,6.65,6.65,0,0,1,1.89,0c.36.07,2.12.87,1.28,1.15a3.4,3.4,0,0,0-1,.62c-.41.3-.22.3-.87.88a4.19,4.19,0,0,1-1.13.81l-.05,0s.07.06.09.07a.7.7,0,0,0,.29.07,1,1,0,0,1,.47.19c.92.47,1.9.79,2.8,1.28a21.67,21.67,0,0,1,2.75,1.8,16.78,16.78,0,0,1,6.56,12.1,15.51,15.51,0,0,1-.5,4.94,9,9,0,0,1-.37,1.11,15.14,15.14,0,0,1,2.66,2.59A22.26,22.26,0,0,1,352,265.62Z" transform="translate(-113.39 -216.85)" style="fill:#fdbd6f"/><path d="M332.92,234.83a4.66,4.66,0,0,1,5.94-3.16,4.62,4.62,0,0,1-1.34,9,4.84,4.84,0,0,1-2.84-.67,4.21,4.21,0,0,1-1.57-1.66A4.6,4.6,0,0,1,332.92,234.83Z" transform="translate(-113.39 -216.85)" style="fill:#fff5ec"/><path d="M337.37,236.19a1.26,1.26,0,0,0,.38.71,1.3,1.3,0,0,0,1.48.15,1.21,1.21,0,0,0,.55-.69,1.27,1.27,0,0,0-.48-1.33,1.24,1.24,0,0,0-1.43,0A1.22,1.22,0,0,0,337.37,236.19Z" transform="translate(-113.39 -216.85)" style="fill:#74706b"/><path d="M306.55,233.91a4.39,4.39,0,0,1,4.78-2.37,4.57,4.57,0,0,1-.54,9,4.57,4.57,0,0,1-4.73-4.42A4.47,4.47,0,0,1,306.55,233.91Z" transform="translate(-113.39 -216.85)" style="fill:#fff5ec"/><path d="M307.66,236.08a1.12,1.12,0,0,0,.35.65,1.12,1.12,0,0,0,1.83-.5,1.19,1.19,0,0,0-.06-.75,1.2,1.2,0,0,0-.37-.47,1.11,1.11,0,0,0-1.29,0A1.16,1.16,0,0,0,307.66,236.08Z" transform="translate(-113.39 -216.85)" style="fill:#74706b"/><ellipse cx="212.12" cy="48.08" rx="17.53" ry="17.66" style="fill:#f5825f"/><g id="Shape_1" data-name="Shape 1"><polygon points="214.84 20.43 210.65 20.43 210.65 59.24 214.84 59.24 214.84 20.43 214.84 20.43" style="fill:#ffbe70"/></g><g id="Ellipse_2" data-name="Ellipse 2"><path d="M317.8,269.41c-5.8,0-10.5,2.95-10.5,6.59s4.7,6.58,10.5,6.58a16.1,16.1,0,0,0,2.31-.16,15.51,15.51,0,0,0,2.13-.45c2.68-.76,5.81-2.54,6-5.66a5.33,5.33,0,0,0-2.26-4.45,13.41,13.41,0,0,0-8.17-2.45Z" transform="translate(-113.39 -216.85)" style="fill:#ffbe70"/></g><path d="M325.11,255.55a9.74,9.74,0,0,0,1.51,1.28A16.34,16.34,0,0,0,329,258a32.63,32.63,0,0,1,3.14,1.4,12.33,12.33,0,0,1,2.72,2,16.76,16.76,0,0,1,2,2.58,11.7,11.7,0,0,1,.94,1.65,6.94,6.94,0,0,1,.34.9,4,4,0,0,0,.18.88.33.33,0,0,0,.15-.11,5.24,5.24,0,0,0,.77-3.15,13.11,13.11,0,0,0-.46-3.85,11.81,11.81,0,0,0-1.55-3.22,14.72,14.72,0,0,0-2.17-2.68c-.88-.83-1.86-1.54-2.79-2.33a17.82,17.82,0,0,1-4.17-4.74,4.8,4.8,0,0,1-.38-.83c0-.14-.09-.67-.26-.71C326.58,245.63,324.31,254.77,325.11,255.55Z" transform="translate(-113.39 -216.85)" style="fill:#fdbd6f"/><path d="M319.41,235.42a2.39,2.39,0,0,1,.22-.23c1.64-1.64,5.23-1.3,5.66,1.32.28,1.76-1.47,3.41-2.79,4.29a2.91,2.91,0,0,0-1.26,1.19c-.16.38-.28.68-.75.51a3.15,3.15,0,0,1-1.55-1.38,5.07,5.07,0,0,1-.42-3.19A4.7,4.7,0,0,1,319.41,235.42Z" transform="translate(-113.39 -216.85)" style="fill:#f5825f"/><path d="M320.09,238.63a.87.87,0,0,1-.3.47.59.59,0,0,1-.5.15c-.3-.09-.36-.59-.38-.76a2.34,2.34,0,0,1,.1-.89,2.69,2.69,0,0,1,.28-.87,1.16,1.16,0,0,1,.62-.63.81.81,0,0,1,.74.12.85.85,0,0,1,.14.77,2.43,2.43,0,0,1-.36.76A4.63,4.63,0,0,0,320.09,238.63Z" transform="translate(-113.39 -216.85)" style="fill:#feeee7"/></svg>