<svg id="Layer_2_Image" data-name="Layer 2 Image" xmlns="http://www.w3.org/2000/svg" viewBox="0 0 349.59 435.32"><title>menu</title><path d="M371.75,220.43a99.19,99.19,0,0,0-17.39-16.85,58.08,58.08,0,0,0,2.43-7.24A100.34,100.34,0,0,0,360,164.11c-1.89-31.38-18.22-59.69-42.79-78.93a129.43,129.43,0,0,0-17.91-11.76c-5.91-3.22-12.28-5.32-18.25-8.34-1.29-.66-2-1.23-3.11-1.25a4.91,4.91,0,0,1-1.87-.45c-.13-.07-.6-.29-.56-.46s.24-.14.28-.15c.52-.09,3.43-1.68,7.42-5.28,4.19-3.78,2.94-3.79,5.66-5.77,2.95-2.16,4.42-3.24,6.79-4,5.44-1.8-6-7-8.36-7.51-4-.82-8.22-.55-12.34-.27a109.59,109.59,0,0,0-12,1.27c-3.55.64-6.86,2.36-10.28,3.05a2.5,2.5,0,0,1,.67-2.34,37.65,37.65,0,0,0,5.83-11.83,9.73,9.73,0,0,0,.47-4.62c-.65-3.32-4.25-5.4-7.63-5.49-5-.13-10.31,2.7-14.46,5.23a39.34,39.34,0,0,0-16.26,19.26c-2.08,5.44-3.71,9.33-9.94,10.2l-22.93,3.2a129.5,129.5,0,0,0-19.3,4.34A108.64,108.64,0,0,0,144,73.06c-27,16.16-42,45.24-41.5,76.48.11,7.68,1,15.5.63,23.21a55.3,55.3,0,0,1-1.19,9.41c-2.28,10.18-7.18,19.58-12.46,28.49C83.09,221.38,76,232,71.8,243.62a156,156,0,0,0-11.37,26.75c-6.56,20.59-6.8,40.78-4.13,62.07l.15,1.12c1,8.11,2.38,14.89,3.17,18.72,2,9.58,2.93,14.42,5.28,20.83a102.67,102.67,0,0,0,9.81,19.62c11.6,18.85,27.66,34.64,47.46,44.75,20.51,10.47,43.61,14.15,66.34,16.31,41.32,3.95,85.12.12,124.75-12.64,24-7.74,47-20.55,62.91-40.11,14.49-17.79,22.39-40.22,26-62.88C409,296.09,399.3,253.45,371.75,220.43ZM104.14,245.75a8.94,8.94,0,0,1,3.87-7,4.29,4.29,0,0,1,4.28-3.28c9.55-.11,19.09.07,28.64.45,10.76,0,21.52.37,32.27.93,24,1.26,48.07,2,72.14,2.38,15.57.25,31.14.45,46.7.81,14.12-1.53,28.45-2.53,42.15.08a24.79,24.79,0,0,1,7.3,2.55c4.87,1.53,8.7,4.39,9.7,9.77,2.77,15-15.28,18.42-26,19.07-17.18,1-34.64.68-51.83.62-23.78-.08-47.56-.75-71.29-2.21-21.94-1.34-44.19-1.73-66-4.62C125.37,263.93,102.71,261,104.14,245.75ZM351.07,380a18.56,18.56,0,0,1-3.89,1.93c-5.15,5.42-16.46,7.4-22,8.39-16.92,3-34.28,3.7-51.43,4-21.09.35-42.2-.24-63.26-1.47-19-1.12-37.92-2.74-56.73-5.44-10.63-1.53-23.58-2.6-33.06-8.2a4.19,4.19,0,0,1-1.31-1.23,20.44,20.44,0,0,1-3.2-2.36,4.17,4.17,0,0,1-1.27-3.75,4.64,4.64,0,0,1-1.35-4.33c1.83-9.75,16.79-11,24.41-11.75,14-1.45,28.28-.92,42.34-.28,32.41,1.5,64.73,2.05,97.18,2.49,19.72.26,39.6,1,58.79,2.52,5.55.45,13.19.84,17.23,5.31S355.8,376.83,351.07,380Zm8.75-55.5c-4.86,5-13,5.76-19.56,6.23-7.43.53-14.92.47-22.36.82-26.82,1.25-53.74,1.59-80.58,1.94-26.44.34-52.93-.53-79.15-4.11-11.33-1.55-22.44-3.93-33.64-6.18-7.59-1.53-17-2.95-22.87-8.42-4.82-4.47-7.74-13.4-1-17.52l.22-.12a4.39,4.39,0,0,1,3-2.85c23.58-7.27,49.15-2.45,73.28-1.69,14.51.46,29,.44,43.51,1.18,15.55.78,31.08,1.86,46.63,2.77,14.41.84,28.56.78,43,.92,12.83.12,26.82.3,39.06,4.58,4.52,1.58,9.37,3.87,11.93,8.15A12,12,0,0,1,359.82,324.45Z" transform="translate(-54.7 -19.96)" style="fill:#fdbd6f"/><path d="M277.83,137.3c.87-2.74,4.08-12.37,14.18-18.15,11.35-6.49,22.65-3.12,24.61-2.5a29.72,29.72,0,0,1,20.79,30.19c-.81,16.51-13.43,28.23-29.55,28.63-4,.1-11.22.19-18.56-4.39a27.89,27.89,0,0,1-10.22-10.84C273.81,150,277,139.87,277.83,137.3Z" transform="translate(-54.7 -19.96)" style="fill:#fff5ec"/><path d="M306.86,146.17a8.28,8.28,0,0,0,2.5,4.6,8.44,8.44,0,0,0,9.67,1,7.57,7.57,0,0,0,3.14-9.85,8.13,8.13,0,0,0-12-3.46A8.12,8.12,0,0,0,306.86,146.17Z" transform="translate(-54.7 -19.96)" style="fill:#74706b"/><path d="M105.81,131.24c5.64-11,18-18.15,31.16-15.44,12.79,2.64,22.89,14.77,23.4,27.81.6,15.18-11.56,30-26.92,31-16.58,1.08-30.07-12.6-30.81-28.83A29,29,0,0,1,105.81,131.24Z" transform="translate(-54.7 -19.96)" style="fill:#fff5ec"/><path d="M113.07,145.44a7.66,7.66,0,0,0,2.25,4.24,7.48,7.48,0,0,0,8.71.88,7.21,7.21,0,0,0,3.22-4.14,7.36,7.36,0,0,0-.39-4.92,7.43,7.43,0,0,0-2.41-3.06,7.33,7.33,0,0,0-8.42-.13A7.54,7.54,0,0,0,113.07,145.44Z" transform="translate(-54.7 -19.96)" style="fill:#74706b"/><path d="M189.71,141.15a20.27,20.27,0,0,1,1.41-1.56c10.7-10.66,34.16-8.44,36.94,8.67,1.86,11.45-9.6,22.22-18.16,28-3.2,2.14-6.86,4.19-8.28,7.77-1,2.49-1.83,4.44-4.86,3.33a20.67,20.67,0,0,1-10.13-9c-3.55-6.36-3.64-13.82-2.72-20.87C184.7,151.44,185.85,145.85,189.71,141.15Z" transform="translate(-54.7 -19.96)" style="fill:#f5825f"/><path d="M194.13,162a5.42,5.42,0,0,1-2,3.09c-.4.31-1.87,1.41-3.25,1-1.94-.6-2.34-3.84-2.49-5-.21-1.71.08-3.1.68-5.81a18.43,18.43,0,0,1,1.81-5.66c.93-1.62,2-3.45,4.08-4.08.19-.05,3.09-.94,4.83.76,1.55,1.51,1.1,4,.91,5.06-.35,1.87-1.13,2.59-2.34,4.9A29.26,29.26,0,0,0,194.13,162Z" transform="translate(-54.7 -19.96)" style="fill:#feeee7"/></svg>