<?xml version="1.0" encoding="utf-8"?>
<!-- Generator: Adobe Illustrator 22.0.1, SVG Export Plug-In . SVG Version: 6.00 Build 0)  -->
<svg version="1.1" id="Layer_1" xmlns="http://www.w3.org/2000/svg" xmlns:xlink="http://www.w3.org/1999/xlink" x="0px" y="0px"
	 viewBox="0 0 127.2 72.8" style="enable-background:new 0 0 127.2 72.8;" xml:space="preserve">
<style type="text/css">
	.st0{fill:#483D77;}
</style>
<title>next</title>
<path class="st0" d="M119.6,28.7c-9.7-3.4-21.2-3.4-31.4-3.9c-9.9-0.4-19.9-0.3-29.8,0.1c-10.4,0.3-20.7,1.3-30.9,2.8
	c-5.3,0.9-10.9,1.5-15.8,3.7c-5.1,2.3-9.1,3.5-11.2,9.2c-1,2.6,0.3,5.4,2,7.4c3.6,4.1,9.8,3.9,14.9,4.1c4.4,0.2,9-0.8,13.3-1.2
	c9.9-0.8,19.8-2,29.7-2.6c9.6-0.5,19.2-0.7,28.9-0.6c10.2,0.1,20.4,1.2,30.5-0.2c4.2-0.6,7.2-5.5,7.2-9.4
	C126.7,33.7,123.8,29.9,119.6,28.7L119.6,28.7z"/>
<path class="st0" d="M122.8,31.1c-2.9-4.8-7.2-7.8-11.7-11.1c-4-3-8-6.1-12.2-8.8c-4-2.9-8.4-5.3-13-7.2C81.1,1.9,77.5-0.8,72,0.2
	c-3.1,0.6-4.3,4-3.8,6.7c0.9,5.2,5.5,7.5,8.8,11.1s7.3,6.5,11.3,9.4c3.8,2.7,7.8,5.1,11.7,7.6c4.5,2.9,9,6.1,14.3,7
	C120.5,43.2,126.5,37.1,122.8,31.1L122.8,31.1z"/>
<path class="st0" d="M114.3,31.8c-8.1,3.9-16,8.2-23.6,12.9s-16.6,9-21.1,17.1c-3.4,6.1,2.2,11.9,8.4,10.9
	c8.6-1.4,15.7-7.9,22.8-12.4s14.7-9.1,22.1-13.6C132.6,40.8,124.2,27,114.3,31.8z"/>
</svg>
