<?xml version="1.0" encoding="utf-8"?>
<!-- Generator: Adobe Illustrator 25.4.1, SVG Export Plug-In . SVG Version: 6.00 Build 0)  -->
<svg version="1.1" id="Layer_1" xmlns="http://www.w3.org/2000/svg" xmlns:xlink="http://www.w3.org/1999/xlink" x="0px" y="0px"
	 viewBox="0 0 248.2 165.2" style="enable-background:new 0 0 248.2 165.2;" xml:space="preserve">
<style type="text/css">
	.st0{fill:#FB6952;}
</style>
<path class="st0" d="M58.7,101.1c0.4-4.1,0.4-8.4-2.5-11.7c-2.7-3.1-6.8-3.9-10.4-5.4c-9.8-4-18.1-11-23.7-20.1
	c-1.3-2.1-4.9-1.9-5.5,0.7c-0.1,1.1-0.4,2.3-0.8,3.3c-0.7,1.2-3.4,3.2-4.5,4.6c-2.9,3.6-5.2,7.6-7,11.9c-3.9,9.4-5.2,19.7-3.9,29.9
	c1.4,10.6,5.1,20.9,10.7,30c2.3,4.1,5.3,7.7,8.8,10.8c2.9,2.4,6.4,3.2,9.4,5.2c2.4,1.6,4.8-1,4.4-3.4c-1-6.1-1.6-12.3-1.7-18.5
	c0-2.5-0.6-5.9,0.1-8.3c-0.2,0.7-0.1-0.4-0.1-0.4c0-0.2,1-1.1,1.2-1.3H29c15.7,12.8,26.4-21.9,29.9-31.5c1.3-3.6-4.5-5.2-5.8-1.6
	c-1.6,4.5-12,35.2-19.8,28.9c-1.2-1.1-3.1-1.1-4.2,0c-3.5,3.7-3,7.2-3,12.4c0.1,7.4,0.7,14.7,2,21.9l4.4-3.4
	c-2.7-1.8-5.9-2.4-8.5-4.6c-3.6-2.9-6.2-6.9-8.5-10.8c-5.4-9.1-8.6-19.3-9.4-29.8c-0.6-9.2,1.3-18.4,5.5-26.7
	c2.2-4.1,4.9-7.8,8.2-11.1c1.9-1.9,2.1-3.4,2.7-6L17,66.8c4.3,7,10.1,13,17,17.6c3.2,2.1,6.7,3.9,10.3,5.3c2.1,0.8,4.8,1.3,6.5,2.8
	c2.6,2.2,2.2,5.4,1.9,8.5C52.3,104.8,58.3,104.8,58.7,101.1L58.7,101.1z"/>
<path class="st0" d="M65.8,116.9c0.4-2.8,8.1,3.5,8.6,3.8l8.8,6.3l8,5.8c2.5,1.8,7.3,4,9,6.5l1-4.1l-0.3,0.2l3.6,0.5l-0.2-0.2
	l-2.1,5.1h1.7l-2.6-4.5c-2.8,4-6.3,7.4-10.2,10.3c-3.4,2.4-7.5,5.7-11.8,4.7c-9.8-2.2-19.3-6.5-25.3-14.8l-4.1,4.1
	c3.7,2.8,8,4.8,12.5,5.9c1.7,0.5,4-0.9,3.8-2.9c-0.9-9.7-0.6-19.5,0.9-29.1c0.6-3.8-5.2-5.4-5.8-1.6c-1.6,10.2-2,20.5-1.1,30.7
	l3.8-2.9c-4-1-7.8-2.8-11.1-5.3c-2.4-1.8-5.8,1.7-4.1,4.1c7.3,10,18.4,15.5,30.4,17.9c5.5,1.1,10.5-2.5,14.9-5.6
	c4.8-3.4,9-7.6,12.4-12.4c1.4-1.9-0.5-4.5-2.6-4.5h-1.7c-1.7,0-3,1.3-3,3c0,0.8,0.3,1.6,0.9,2.1l0.2,0.2c1,0.9,2.4,1.1,3.6,0.5
	l0.3-0.2c1.4-0.8,1.9-2.7,1.1-4.1c-2.6-3.9-8.1-6.6-11.9-9.3L78.3,116c-3.2-2.3-7.1-6.2-11.4-6.2c-3.3-0.1-6.2,2.2-6.8,5.4
	C59.5,119,65.3,120.6,65.8,116.9L65.8,116.9z"/>
<path class="st0" d="M198.8,42.6c17.1,10.7,34.3,22.4,43.8,40.8c1.8,3.4,7,0.4,5.2-3c-10-19.3-28-31.8-46-43
	C198.6,35.4,195.5,40.6,198.8,42.6L198.8,42.6z"/>
<path class="st0" d="M20,62.9C13.1,58.1,31,39.8,33.9,37c9.1-8.6,20.1-15.1,32-19c24.5-8.1,50.7-6.1,75.3,0.3c3.7,1,5.3-4.8,1.6-5.8
	c-29.2-7.6-60.6-9-88.6,3.7c-13,5.9-24.4,14.8-33,26.1C16,49,7.3,61.4,17,68C20.2,70.2,23.2,65,20,62.9L20,62.9z"/>
<path class="st0" d="M53.8,102.6l9.7,11.9c2.4,3,6.7-1.3,4.2-4.2l-9.7-11.9C55.6,95.3,51.4,99.6,53.8,102.6z"/>
<path class="st0" d="M95.2,146c-1.4,4.3-3.1,8.4-5.2,12.3c-1.5,2.9,1.4,5.2,4.1,4.1l5.9-2.5l-4.4-1.8c0.3,1.7-0.8,3.4-0.2,5.1
	c1.3,3.6,7.1,2,5.8-1.6c-0.2-0.7,0.4-3.7,0.2-5.1c-0.4-2.1-2.8-2.5-4.4-1.8l-5.9,2.5l4.1,4.1c2.4-4.4,4.3-9,5.8-13.8
	C102.1,143.9,96.3,142.3,95.2,146L95.2,146z"/>
<path class="st0" d="M106.7,138.9c17-3.4,35.5-14,41.5-31.2c2.6-7.2,2-15.2-1.6-22c-1.7-2.9-4.1-5.5-6.9-7.4
	c-4.3-3.2-8.7-5.2-5.9-11.1c3.1-6.6,7-16.4,2.2-23.1s-14-10-21.6-11.7c-9.2-2-18.9-2.4-28.2-2.7c-10-0.4-20.3,0-30,3.1
	c-8.9,2.8-17.4,7.8-23.1,15.4c-1.4,1.9-2.3,4.2-3.8,6c-2.4,2.8-4.4,1.2-7.4,0.7c-3.6-0.6-6.5,0.9-7.7,4.3c-1.3,3.6,4.5,5.2,5.8,1.6
	c2.6,0.7,5.3,1.2,8,1.5c2.9-0.5,4.9-2.7,6.4-5c4.4-6.8,8.9-12,16.3-15.7c15.7-8,35-6.3,51.9-4.7c7.9,0.7,16.2,2.1,23.1,6.4
	c4.2,2.6,6.8,5.1,6.2,10.4c-0.5,4.7-2.5,8.4-4.3,12.7c-2.6,5.8-0.1,10.5,4.7,14.1c6,4.7,10.9,8.5,11.4,16.8
	c1.2,19.9-22,32.7-38.7,36C101.3,134,102.9,139.7,106.7,138.9L106.7,138.9z"/>
<path class="st0" d="M94.5,36.5c-7.8,1.9-12.6,9.7-10.8,17.5c0,0.2,0.1,0.4,0.1,0.6c2.1,8,9.7,13.9,17.8,10.3
	c6.7-3,10.7-11.1,8.4-18.2c-2.5-7.4-10.6-11.1-17.9-9.6c-3.8,0.8-2.2,6.6,1.6,5.8c9.3-1.9,15,9.9,7.1,15.6
	c-9.6,6.9-17.2-13.4-4.7-16.2C99.8,41.4,98.2,35.6,94.5,36.5z"/>
<path class="st0" d="M173.8,11.9c-3.7-5.9-8.6-12.5-16.4-11.9c-7.4,0.6-12.8,7-14,14c-1.5,8.6,2.2,16.7,6.5,23.9
	c5.6,9.1,11.8,17.8,18.6,26c1.2,1.5,3.3-0.6,2.1-2.1c-4.9-6-9.5-12.2-13.8-18.7c-3.8-5.7-7.9-11.7-9.8-18.4
	c-2-7.1-1.1-16.1,5.9-20.1c8.2-4.7,14.3,2.5,18.3,8.9C172.2,15.1,174.8,13.6,173.8,11.9L173.8,11.9z"/>
<path class="st0" d="M169.4,64.3c8.7-6.7,17.2-13.5,25.6-20.4c3.2-2.7,7.3-5.3,9-9.3s2.2-9.8,1.9-14.1c-0.5-6.7-4.2-13.4-11.5-14
	c-8.6-0.8-14.6,6.2-19.1,12.5c-1.1,1.6,1.5,3.1,2.6,1.5c4.1-5.8,11.6-14.5,19.7-10c6.8,3.8,6.1,14.9,4.2,21.3
	c-1.9,6.5-10.6,11.4-15.6,15.5c-6,4.9-12.2,9.8-18.4,14.5C166.4,62.9,167.9,65.5,169.4,64.3L169.4,64.3z"/>
<path class="st0" d="M171.1,14l2.8,7.2c0.7,1.8,3.6,1,2.9-0.8l-2.8-7.2C173.4,11.4,170.5,12.2,171.1,14L171.1,14z"/>
<path class="st0" d="M185.3,82.4c13,1.2,19.2-11.3,23.3-21.5h-2.9c2.7,13.8,4.2,27.7,4.5,41.8c0.1,1.9,3.1,1.9,3,0
	c-0.3-14.3-1.9-28.5-4.6-42.6c-0.3-1.6-2.4-1.2-2.9,0c-3.6,9-8.9,20.4-20.4,19.3C183.3,79.2,183.3,82.2,185.3,82.4L185.3,82.4z"/>
<path class="st0" d="M182.8,81.9c3,12.9,5.6,25.9,7.7,38.9l1.9-1.8c-3.6-0.8-7.5-1.2-10.5,1.4c-1.6,1.4-3.1,4.2-2.1,6.3
	c2.8,5.9,11.8-0.2,13.6-3.8c0.9-1.7-1.7-3.2-2.6-1.5c-1,1.9-3.3,4.7-5.9,4.3c-2.1,0.6-2.1-0.6-0.2-3.6c2.2-0.9,4.7-0.9,6.9-0.2
	c0.8,0.2,1.6-0.3,1.8-1.1c0.1-0.2,0.1-0.5,0-0.7c-2.1-13.1-4.7-26-7.7-38.9C185.2,79.2,182.3,80,182.8,81.9L182.8,81.9z"/>
<path class="st0" d="M212.3,102.6c-3.7-0.6-7.9-1.2-11,1.6c-2.3,2-3,5.7-0.8,8.1s6.4,1.5,8.9-0.2c2.9-2,4.5-5.4,4.4-8.9
	c-0.1-1.9-3.1-1.9-3,0c0.1,1.9-0.5,3.8-1.8,5.3c-1.2,1.4-3.9,3.1-5.7,2.1c-2.1-1.1-0.7-3.8,0.9-4.7c2.2-1.3,5-0.7,7.4-0.3
	C213.4,105.8,214.2,103,212.3,102.6L212.3,102.6z"/>
<path class="st0" d="M232.4,97.7c-1.1,10.3-1.8,20.7-2,31.1c0,1.9,3,1.9,3,0c0.2-10.4,0.8-20.8,2-31.1
	C235.6,95.8,232.6,95.8,232.4,97.7z"/>
<path class="st0" d="M233.1,97.6c4.5,5.8,13.7,2.3,13.5-5c0-1.9-3-1.9-3,0c0.1,4.8-5.5,6.5-8.4,2.8C234.1,93.9,232,96,233.1,97.6
	L233.1,97.6z"/>
<path class="st0" d="M230.8,129.1c-3.3-1.1-7.4-2.1-10.2,0.6c-2.1,2.1-2.2,5.4-0.2,7.6c2.1,2.6,5.8,2.8,8.7,1.3
	c3.3-1.7,4.8-5.2,5.5-8.7c0.4-1.9-2.5-2.7-2.9-0.8c-0.6,3.3-3.6,9.6-8.1,7.1c-2-1.2-2.2-4,0.2-5c2-0.8,4.4,0.1,6.3,0.8
	S232.6,129.7,230.8,129.1L230.8,129.1z"/>
</svg>
