<svg id="Layer_1" data-name="Layer 1" xmlns="http://www.w3.org/2000/svg" viewBox="0 0 248.22 165.25"><title>parrot-with-hearts-and-muscial-notes</title><path d="M93.54,227.2c.4-4.15.39-8.4-2.48-11.72-2.66-3.06-6.76-3.95-10.38-5.39A49.74,49.74,0,0,1,57,190c-1.31-2.1-4.89-1.89-5.49.71a13.35,13.35,0,0,1-.77,3.34c-.68,1.19-3.44,3.22-4.51,4.57a51,51,0,0,0-7,11.9,58.5,58.5,0,0,0-3.92,29.86,76.8,76.8,0,0,0,10.67,30,42.6,42.6,0,0,0,8.81,10.82c2.92,2.43,6.41,3.21,9.42,5.24,2.39,1.61,4.8-1,4.4-3.39a127.28,127.28,0,0,1-1.74-18.48c0-2.54-.55-5.88.12-8.31-.2.73-.11-.45-.12-.41,0-.19,1-1.06,1.23-1.28H63.87c15.72,12.79,26.42-21.91,29.85-31.54,1.3-3.64-4.5-5.21-5.79-1.59-1.6,4.51-12,35.22-19.82,28.89a3.06,3.06,0,0,0-4.24,0c-3.53,3.68-3,7.24-3,12.39a136.7,136.7,0,0,0,2,21.93l4.41-3.39c-2.72-1.83-5.88-2.43-8.48-4.57-3.59-2.94-6.2-6.86-8.49-10.84A68.64,68.64,0,0,1,40.91,236a51.38,51.38,0,0,1,5.47-26.69,48,48,0,0,1,8.18-11.07c1.86-1.92,2.14-3.41,2.73-6l-5.48.71a56.77,56.77,0,0,0,17,17.6,54.21,54.21,0,0,0,10.28,5.27c2.11.82,4.81,1.28,6.54,2.8,2.55,2.25,2.21,5.4,1.91,8.52-.37,3.84,5.64,3.82,6,0Z" transform="translate(-34.85 -126.14)" style="fill:#fff"/><path d="M100.69,243c.41-2.76,8.14,3.5,8.56,3.81l8.75,6.32,8,5.75c2.49,1.8,7.28,4,9,6.55L136,261.3l-.33.23,3.64.47-.24-.21L137,266.91h1.69l-2.59-4.51a44.19,44.19,0,0,1-10.21,10.26c-3.43,2.42-7.51,5.66-11.79,4.71-9.76-2.17-19.29-6.53-25.31-14.82l-4.1,4.11a35.86,35.86,0,0,0,12.5,5.91c1.73.45,4-.9,3.79-2.9a117.09,117.09,0,0,1,.87-29.15c.59-3.77-5.19-5.4-5.79-1.59a123.61,123.61,0,0,0-1.08,30.74l3.8-2.89a31.19,31.19,0,0,1-11.06-5.3c-2.38-1.75-5.84,1.72-4.11,4.1,7.29,10,18.43,15.51,30.39,17.89,5.48,1.09,10.52-2.53,14.92-5.63a52.25,52.25,0,0,0,12.36-12.42c1.38-1.91-.49-4.49-2.59-4.51H137a3,3,0,0,0-2.12,5.12l.24.22a3.06,3.06,0,0,0,3.63.47l.33-.24a3,3,0,0,0,1.07-4.1c-2.58-3.89-8.15-6.56-11.9-9.28l-15.13-10.92c-3.23-2.33-7.11-6.22-11.4-6.24a6.6,6.6,0,0,0-6.77,5.44c-.56,3.78,5.22,5.41,5.79,1.6Z" transform="translate(-34.85 -126.14)" style="fill:#fff"/><path d="M233.67,168.73c17.12,10.73,34.29,22.45,43.85,40.85,1.78,3.43,7,.4,5.18-3-10-19.29-28-31.75-46-43-3.29-2.06-6.3,3.13-3,5.18Z" transform="translate(-34.85 -126.14)" style="fill:#fff"/><path d="M54.83,189c-6.93-4.77,11-23.08,13.93-25.9a84.85,84.85,0,0,1,32-19c24.51-8.14,50.69-6.08,75.33.31,3.74,1,5.34-4.81,1.6-5.78-29.2-7.58-60.62-9-88.65,3.66A86.32,86.32,0,0,0,56,168.44c-5.13,6.72-13.86,19.07-4.19,25.73,3.19,2.2,6.19-3,3-5.18Z" transform="translate(-34.85 -126.14)" style="fill:#fff"/><path d="M88.67,228.69l9.7,11.91c2.44,3,6.66-1.27,4.24-4.24l-9.7-11.92c-2.44-3-6.66,1.28-4.24,4.25Z" transform="translate(-34.85 -126.14)" style="fill:#fff"/><path d="M130,272.13a72.52,72.52,0,0,1-5.22,12.32c-1.52,2.85,1.45,5.24,4.11,4.11l5.87-2.5-4.41-1.8c.31,1.68-.77,3.4-.16,5.09,1.29,3.61,7.09,2,5.78-1.6-.25-.69.43-3.67.17-5.08-.4-2.11-2.8-2.48-4.41-1.79l-5.87,2.5,4.11,4.1a80.4,80.4,0,0,0,5.81-13.76c1.17-3.68-4.62-5.26-5.78-1.59Z" transform="translate(-34.85 -126.14)" style="fill:#fff"/><path d="M141.56,265.07c17-3.37,35.47-14,41.52-31.17a27.09,27.09,0,0,0-1.6-22,24,24,0,0,0-6.91-7.45c-4.31-3.17-8.66-5.16-5.86-11.08,3.12-6.58,7-16.43,2.16-23.12s-14-10-21.6-11.66c-9.2-2-18.86-2.4-28.23-2.74-10-.36-20.35,0-30,3.06-8.93,2.83-17.38,7.84-23.12,15.37-1.41,1.85-2.35,4.24-3.84,6-2.43,2.83-4.36,1.23-7.36.72-3.58-.6-6.49.86-7.71,4.26-1.3,3.64,4.49,5.21,5.79,1.6a44.42,44.42,0,0,0,8,1.49c2.9-.5,4.87-2.7,6.41-5,4.45-6.76,8.9-12,16.28-15.7,15.7-8,35-6.29,51.93-4.69,7.94.74,16.22,2.13,23.12,6.39,4.2,2.58,6.82,5.15,6.25,10.37-.52,4.71-2.46,8.44-4.33,12.7-2.57,5.83-.06,10.49,4.66,14.15,6.05,4.7,10.95,8.48,11.44,16.78,1.19,19.92-22,32.66-38.67,36-3.78.75-2.18,6.53,1.6,5.78Z" transform="translate(-34.85 -126.14)" style="fill:#fff"/><path d="M129.32,162.64a14.52,14.52,0,0,0-10.62,18.05c2.09,8,9.65,13.92,17.82,10.34,6.74-3,10.7-11.1,8.35-18.17-2.47-7.41-10.56-11.15-17.89-9.63-3.78.78-2.18,6.57,1.59,5.78,9.28-1.92,15,9.9,7.08,15.6-9.59,6.92-17.18-13.38-4.73-16.19,3.76-.84,2.17-6.63-1.6-5.78Z" transform="translate(-34.85 -126.14)" style="fill:#fff"/><path d="M208.67,138.07c-3.7-5.94-8.58-12.54-16.43-11.88-7.42.61-12.77,6.95-14,14-1.52,8.57,2.17,16.72,6.53,23.87a233.3,233.3,0,0,0,18.61,26c1.22,1.5,3.34-.63,2.12-2.12-4.9-6-9.54-12.23-13.84-18.68-3.82-5.74-7.92-11.72-9.81-18.43-2-7.08-1.08-16.08,5.93-20.09,8.22-4.71,14.3,2.47,18.29,8.89,1,1.63,3.62.13,2.6-1.52Z" transform="translate(-34.85 -126.14)" style="fill:#fff"/><path d="M204.28,190.4q13-10,25.59-20.41c3.24-2.69,7.31-5.32,9-9.31s2.17-9.77,1.86-14.14c-.48-6.68-4.2-13.36-11.49-14-8.59-.76-14.56,6.22-19.06,12.53-1.13,1.57,1.47,3.07,2.59,1.51,4.1-5.75,11.58-14.54,19.67-10,6.83,3.79,6.11,14.92,4.24,21.26-1.93,6.5-10.57,11.42-15.6,15.5q-9.07,7.38-18.36,14.51c-1.51,1.16,0,3.77,1.51,2.59Z" transform="translate(-34.85 -126.14)" style="fill:#fff"/><path d="M206,140.12l2.8,7.21c.69,1.78,3.59,1,2.89-.79l-2.8-7.22c-.69-1.78-3.59-1-2.89.8Z" transform="translate(-34.85 -126.14)" style="fill:#fff"/><path d="M220.12,208.5c13,1.21,19.24-11.31,23.29-21.5h-2.89A251.51,251.51,0,0,1,245,228.77c.05,1.93,3.05,1.94,3,0a254.79,254.79,0,0,0-4.62-42.57c-.31-1.61-2.4-1.22-2.89,0-3.58,9-8.86,20.38-20.4,19.3-1.92-.18-1.91,2.82,0,3Z" transform="translate(-34.85 -126.14)" style="fill:#fff"/><path d="M217.62,208q4.49,19.32,7.68,38.91l1.85-1.84c-3.58-.77-7.55-1.16-10.53,1.41-1.63,1.4-3.15,4.17-2.14,6.34,2.77,5.93,11.78-.25,13.6-3.83.87-1.72-1.72-3.24-2.59-1.51-1,1.94-3.31,4.74-5.87,4.32-2.08.58-2.15-.64-.19-3.65a10.23,10.23,0,0,1,6.92-.19,1.52,1.52,0,0,0,1.85-1.84q-3.19-19.59-7.69-38.92c-.44-1.88-3.33-1.09-2.89.8Z" transform="translate(-34.85 -126.14)" style="fill:#fff"/><path d="M247.13,228.76c-3.73-.64-7.95-1.17-11,1.55-2.31,2-3,5.72-.78,8.12s6.4,1.54,8.88-.22a10.38,10.38,0,0,0,4.36-8.93c-.09-1.92-3.09-1.93-3,0a7.33,7.33,0,0,1-1.78,5.3c-1.2,1.38-3.89,3.14-5.74,2.13-2.14-1.15-.73-3.83.86-4.73,2.25-1.26,5-.74,7.44-.33,1.88.33,2.69-2.56.79-2.89Z" transform="translate(-34.85 -126.14)" style="fill:#fff"/><path d="M267.28,223.8q-1.72,15.51-2,31.09c0,1.93,3,1.93,3,0q.26-15.6,2-31.09c.21-1.91-2.79-1.9-3,0Z" transform="translate(-34.85 -126.14)" style="fill:#fff"/><path d="M268,223.74c4.55,5.84,13.68,2.29,13.54-5,0-1.93-3-1.94-3,0,.09,4.83-5.55,6.51-8.42,2.83-1.19-1.53-3.3.61-2.12,2.12Z" transform="translate(-34.85 -126.14)" style="fill:#fff"/><path d="M265.63,255.2c-3.29-1.15-7.38-2.15-10.23.55a5.55,5.55,0,0,0-.22,7.63c2.15,2.58,5.81,2.8,8.66,1.29,3.27-1.74,4.83-5.25,5.5-8.72.36-1.89-2.53-2.7-2.9-.8-.62,3.25-3.6,9.64-8.07,7.08-2.05-1.17-2.17-4,.18-5,2-.8,4.35.15,6.28.83s2.61-2.26.8-2.9Z" transform="translate(-34.85 -126.14)" style="fill:#fff"/></svg>