<?xml version="1.0" encoding="utf-8"?>
<!-- Generator: Adobe Illustrator 22.0.1, SVG Export Plug-In . SVG Version: 6.00 Build 0)  -->
<svg version="1.1" id="Layer_1" xmlns="http://www.w3.org/2000/svg" xmlns:xlink="http://www.w3.org/1999/xlink" x="0px" y="0px"
	 viewBox="0 0 127.2 72.8" style="enable-background:new 0 0 127.2 72.8;" xml:space="preserve">
<style type="text/css">
	.st0{fill:#483D77;}
</style>
<title>prev</title>
<path class="st0" d="M7.6,44c9.7,3.4,21.2,3.5,31.4,4c9.9,0.5,19.9,0.4,29.8,0c10.4-0.3,20.7-1.2,30.9-2.7
	c5.3-0.9,10.9-1.4,15.8-3.6c5.1-2.3,9.1-3.5,11.3-9.2c1-2.6-0.2-5.4-2-7.4C121.2,21,115,21.2,110,21c-4.4-0.2-9,0.8-13.3,1.2
	C86.8,23,76.9,24.1,67,24.6c-9.6,0.5-19.2,0.6-28.9,0.5C27.9,25,17.7,23.9,7.6,25.2c-4.2,0.6-7.2,5.5-7.2,9.4
	C0.5,38.9,3.4,42.8,7.6,44L7.6,44z"/>
<path class="st0" d="M4.3,41.6c2.9,4.8,7.2,7.8,11.6,11.1c4,3,8,6.1,12.1,8.9s8.5,5.2,13.1,7.2C46,71,49.6,73.6,55,72.6
	c3.1-0.6,4.3-4,3.8-6.7c-0.9-5.2-5.5-7.5-8.7-11.2s-7.3-6.5-11.3-9.5c-3.7-2.8-7.8-5.1-11.7-7.7c-4.5-2.9-8.9-6.1-14.3-7.1
	C6.8,29.4,0.7,35.6,4.3,41.6L4.3,41.6z"/>
<path class="st0" d="M12.9,40.9C21,37,28.9,32.7,36.5,28c7.6-4.6,16.6-9,21.1-17C61,4.9,55.5-0.9,49.2,0
	c-8.6,1.4-15.7,7.8-22.9,12.4S11.6,21.5,4.3,26C-5.3,31.8,3,45.7,12.9,40.9z"/>
</svg>
