<svg xmlns="http://www.w3.org/2000/svg" viewBox="0 0 499.3 81.06"><title>question-marks</title><g id="Layer_2" data-name="Layer 2"><path d="M1.09,227.74A24.26,24.26,0,0,0,5.88,239.3a24.35,24.35,0,0,0,11.57,7.38A58,58,0,0,0,40.39,249c4.18-.39,8.43-1.07,12.2-3a22.15,22.15,0,0,0,8.73-8.23,18.38,18.38,0,0,0,1.8-3.61,23.07,23.07,0,0,0,1-3.83c.14-.7.39-2,.58-3.44l0-.21A26,26,0,0,0,64,215.27a30,30,0,0,0-2.09-4.92,36.59,36.59,0,0,0-3.25-6.07A18.16,18.16,0,0,1,56.32,199a10,10,0,0,1-.22-1.73c-.07-1.41.09-2.85.11-4.26A15.87,15.87,0,0,0,48.58,179,20.2,20.2,0,0,0,44,177a24,24,0,0,0-3.55-.8l-4.22-.59c-1.15-.16-1.44-.87-1.83-1.87a7.15,7.15,0,0,0-3-3.54,5.28,5.28,0,0,0-2.66-1,1.43,1.43,0,0,0-1.4,1,1.65,1.65,0,0,0,.09.85,6.92,6.92,0,0,0,1.07,2.18.46.46,0,0,1,.12.43c-.63-.13-1.24-.44-1.89-.56s-1.47-.18-2.2-.24a8.61,8.61,0,0,0-2.27.05c-.43.09-2.54,1-1.54,1.39a4.2,4.2,0,0,1,1.25.73c.5.37.27.37,1,1.07a5.26,5.26,0,0,0,1.36,1l.06,0s-.08.08-.11.09a.83.83,0,0,1-.34.08,1.34,1.34,0,0,0-.57.23c-1.1.56-2.27.94-3.36,1.54a23,23,0,0,0-3.29,2.16,20.06,20.06,0,0,0-7.87,14.52,18.45,18.45,0,0,0,.59,5.92A10.4,10.4,0,0,0,9.89,203a18.38,18.38,0,0,0-3.2,3.1A26.76,26.76,0,0,0,1.09,227.74Z" transform="translate(-0.7 -169.21)" style="fill:#fdbd6f"/><path d="M24,190.79a5.81,5.81,0,0,0-2.61-3.33,5.74,5.74,0,0,0-4.52-.46,5.54,5.54,0,0,0,1.61,10.81,5.84,5.84,0,0,0,3.41-.8,5.15,5.15,0,0,0,1.88-2A5.55,5.55,0,0,0,24,190.79Z" transform="translate(-0.7 -169.21)" style="fill:#fff5ec"/><path d="M18.62,192.42a1.49,1.49,0,0,1-.46.85,1.53,1.53,0,0,1-1.77.18,1.39,1.39,0,0,1-.58-1.81,1.39,1.39,0,0,1,.49-.61A1.52,1.52,0,0,1,18,191,1.48,1.48,0,0,1,18.62,192.42Z" transform="translate(-0.7 -169.21)" style="fill:#74706b"/><path d="M55.6,189.68a5.29,5.29,0,0,0-5.73-2.84,5.48,5.48,0,0,0,.65,10.81,5.45,5.45,0,0,0,5.66-5.3A5.24,5.24,0,0,0,55.6,189.68Z" transform="translate(-0.7 -169.21)" style="fill:#fff5ec"/><path d="M54.27,192.29a1.49,1.49,0,0,1-.42.78,1.36,1.36,0,0,1-1.6.16,1.29,1.29,0,0,1-.52-1.66,1.43,1.43,0,0,1,.44-.57,1.35,1.35,0,0,1,1.55,0A1.42,1.42,0,0,1,54.27,192.29Z" transform="translate(-0.7 -169.21)" style="fill:#74706b"/><path d="M40.17,191.5l-.26-.28c-2-2-6.28-1.56-6.79,1.59-.35,2.11,1.76,4.09,3.34,5.14A3.69,3.69,0,0,1,38,199.38c.18.46.34.82.89.62a3.87,3.87,0,0,0,1.87-1.66,6.18,6.18,0,0,0,.5-3.84A5.67,5.67,0,0,0,40.17,191.5Z" transform="translate(-0.7 -169.21)" style="fill:#f5825f"/><path d="M39.36,195.34a1,1,0,0,0,.36.57.7.7,0,0,0,.59.18c.36-.11.44-.7.46-.91a3,3,0,0,0-.12-1.07,3.24,3.24,0,0,0-.34-1,1.35,1.35,0,0,0-.75-.75.93.93,0,0,0-.88.14,1,1,0,0,0-.17.93,3.12,3.12,0,0,0,.43.9A5.5,5.5,0,0,1,39.36,195.34Z" transform="translate(-0.7 -169.21)" style="fill:#feeee7"/><path d="M499.62,228.74a21.84,21.84,0,0,1-16.36,18.94A58.06,58.06,0,0,1,460.31,250c-4.18-.39-8.43-1.07-12.2-3a22.22,22.22,0,0,1-8.73-8.23,19,19,0,0,1-1.8-3.61,24.23,24.23,0,0,1-1-3.83c-.15-.7-.4-2-.59-3.44l0-.21a25.9,25.9,0,0,1,.76-11.41,28.4,28.4,0,0,1,2.09-4.92,36.53,36.53,0,0,1,3.24-6.07,17.91,17.91,0,0,0,2.3-5.24,10,10,0,0,0,.21-1.73c.07-1.41-.09-2.85-.11-4.26A15.89,15.89,0,0,1,452.12,180a20.08,20.08,0,0,1,4.64-2,23.69,23.69,0,0,1,3.55-.8l4.21-.59c1.15-.16,1.45-.87,1.83-1.87a7.15,7.15,0,0,1,3-3.54,5.32,5.32,0,0,1,2.66-1,1.43,1.43,0,0,1,1.4,1,1.76,1.76,0,0,1-.08.85,7.14,7.14,0,0,1-1.07,2.18.45.45,0,0,0-.13.43c.63-.13,1.24-.44,1.89-.56s1.47-.18,2.21-.24a8.63,8.63,0,0,1,2.27.05c.43.09,2.53,1,1.53,1.39a4.46,4.46,0,0,0-1.25.73c-.5.37-.27.37-1,1.07a5.26,5.26,0,0,1-1.36,1s-.05,0-.05,0,.08.08.1.09a.86.86,0,0,0,.34.08,1.43,1.43,0,0,1,.58.23c1.09.56,2.27.94,3.35,1.54a23.12,23.12,0,0,1,3.3,2.16,20.1,20.1,0,0,1,7.87,14.52,18.18,18.18,0,0,1-.6,5.92,10.36,10.36,0,0,1-.44,1.33,18.32,18.32,0,0,1,3.19,3.1A26.76,26.76,0,0,1,499.62,228.74Z" transform="translate(-0.7 -169.21)" style="fill:#fdbd6f"/><path d="M476.74,191.79a5.81,5.81,0,0,1,2.61-3.33,5.73,5.73,0,0,1,4.52-.46,5.54,5.54,0,0,1-1.61,10.81,5.84,5.84,0,0,1-3.41-.8,5.22,5.22,0,0,1-1.88-2A5.55,5.55,0,0,1,476.74,191.79Z" transform="translate(-0.7 -169.21)" style="fill:#fff5ec"/><path d="M482.08,193.42a1.49,1.49,0,0,0,.46.85,1.54,1.54,0,0,0,1.78.18,1.41,1.41,0,0,0,.65-.83,1.44,1.44,0,0,0-.07-1,1.46,1.46,0,0,0-.5-.61,1.46,1.46,0,0,0-2.32,1.39Z" transform="translate(-0.7 -169.21)" style="fill:#74706b"/><path d="M445.1,190.68a5.29,5.29,0,0,1,5.73-2.84,5.48,5.48,0,0,1-.64,10.81,5.47,5.47,0,0,1-5.67-5.3A5.34,5.34,0,0,1,445.1,190.68Z" transform="translate(-0.7 -169.21)" style="fill:#fff5ec"/><path d="M446.44,193.29a1.39,1.39,0,0,0,.41.78,1.36,1.36,0,0,0,1.6.16,1.28,1.28,0,0,0,.6-.76,1.31,1.31,0,0,0-.08-.9,1.32,1.32,0,0,0-2-.59A1.39,1.39,0,0,0,446.44,193.29Z" transform="translate(-0.7 -169.21)" style="fill:#74706b"/><path d="M460.53,192.5l.26-.28c2-2,6.29-1.56,6.8,1.59.34,2.11-1.77,4.09-3.34,5.14a3.72,3.72,0,0,0-1.53,1.43c-.18.46-.33.82-.89.62a3.81,3.81,0,0,1-1.86-1.66,6.11,6.11,0,0,1-.5-3.84A5.58,5.58,0,0,1,460.53,192.5Z" transform="translate(-0.7 -169.21)" style="fill:#f5825f"/><path d="M461.35,196.34a1,1,0,0,1-.36.57.74.74,0,0,1-.6.18c-.36-.11-.43-.7-.46-.91a3,3,0,0,1,.13-1.07,3.26,3.26,0,0,1,.33-1,1.35,1.35,0,0,1,.75-.75,1,1,0,0,1,.89.14,1,1,0,0,1,.16.93,2.88,2.88,0,0,1-.43.9A5.59,5.59,0,0,0,461.35,196.34Z" transform="translate(-0.7 -169.21)" style="fill:#feeee7"/><path d="M465.86,213.36c2.46-3.21,6.43,2.89,2.22,5.18-2.92,1.59-5.47,2.3-7.51,5.26-3.51,5.09-3.37,12.81,3.48,14.69a3.46,3.46,0,0,0,4.21-2.39c.48-2.23.58-4.71,2.35-6.23s4.19-1.81,5.91-3.56A14.65,14.65,0,0,0,480,212.93a12,12,0,0,0-21.73-4c-3.19,4.8,4.23,8.76,7.55,4.42Z" transform="translate(-0.7 -169.21)" style="fill:#fff"/><path d="M466.58,240.17a4.7,4.7,0,0,0-2-1.18,5,5,0,0,0-3.63.49,4.54,4.54,0,0,0-2.25,3.92,5.23,5.23,0,0,0,.68,2.73,5.75,5.75,0,0,0,1.87,2,5.25,5.25,0,0,0,4.31.66,5.76,5.76,0,0,0,3.35-2.65,4.86,4.86,0,0,0-.2-5.15,4.34,4.34,0,0,0-1.32-1.31,3.58,3.58,0,0,0-2.33-.44,3.71,3.71,0,0,0-3.05,2.63l-.05.14.38-.9a2.18,2.18,0,0,1-.2.37l.62-.8c-.34.43-.65.86-.95,1.31l.64-.84a2,2,0,0,1-.29.29l.84-.65a1.78,1.78,0,0,1-.36.19l1-.42-.26.07,1.13-.15h-.27l1.13.15a1.1,1.1,0,0,1-.26-.06l1,.43a.91.91,0,0,1-.22-.11l.87.67a.62.62,0,0,1-.18-.18l.68.88a.94.94,0,0,1-.12-.22l.44,1.05a1.68,1.68,0,0,1-.07-.24l.16,1.18a1,1,0,0,1,0-.24L467.5,245a.59.59,0,0,1,.05-.23l-.46,1.08a5,5,0,0,0,.59-3,4.7,4.7,0,0,0-.58-1.8l.44,1V242l.15,1.14a.48.48,0,0,1,0-.12l-.15,1.1a1,1,0,0,1,0-.17,3.79,3.79,0,0,0-1-3.76Z" transform="translate(-0.7 -169.21)" style="fill:#fff"/><path d="M33.53,214.14c2.22-4.95,7.17-.17,4.64,3.13-.8,1-2.86,1.72-3.89,2.7a13.2,13.2,0,0,0-2.86,4.08c-2.72,5.9-.7,13.77,6.65,14a3.47,3.47,0,0,0,3.43-3.42c0-2.27-.59-4.78.94-6.59s3.66-2.7,4.92-4.82a14.62,14.62,0,0,0,.21-13.85c-5.15-9.51-18.3-8.74-22,1.35-1.7,4.61,6,7.91,8,3.38Z" transform="translate(-0.7 -169.21)" style="fill:#fff"/><path d="M40.7,239.09a4.69,4.69,0,0,0-7,4,5.44,5.44,0,0,0,10.13,2.6,5,5,0,0,0-.84-6.29,3.75,3.75,0,0,0-4-.76,3.61,3.61,0,0,0-1.48,1.14A4.18,4.18,0,0,0,36.7,242l0,.16.13-1a1.11,1.11,0,0,1-.08.3l.4-.94c-.23.52-.43,1-.63,1.56l.41-1a2.15,2.15,0,0,1-.14.26l.64-.84a1.82,1.82,0,0,1-.31.31l.85-.66a1.28,1.28,0,0,1-.25.15l1-.42-.27.08,1.13-.15a1.41,1.41,0,0,1-.29,0l1.14.15a1,1,0,0,1-.29-.08l1,.43-.12-.07.87.68a1,1,0,0,1-.2-.21l.68.89a1.3,1.3,0,0,1-.14-.26l.45,1.06a.9.9,0,0,1-.07-.27l.16,1.19v-.14l-.16,1.2a5.24,5.24,0,0,0,0-2.61,6.84,6.84,0,0,0-.54-1.24l.43,1a.61.61,0,0,1,0-.11l.15,1.08a.48.48,0,0,1,0-.12,3.8,3.8,0,0,0-1.92-3.35Z" transform="translate(-0.7 -169.21)" style="fill:#fff"/></g></svg>