<svg xmlns="http://www.w3.org/2000/svg" viewBox="0 0 260.83 88.88"><title>tag-banana</title><g id="Layer_1" data-name="Layer 1"><rect x="3.69" y="2.35" width="255" height="66" rx="11.5" ry="11.5" style="fill:#fdbd6f"/><path d="M269,127a11,11,0,0,1,11,11v43a11,11,0,0,1-11,11H37a11,11,0,0,1-11-11V138a11,11,0,0,1,11-11H269m0-1H37a12,12,0,0,0-12,12v43a12,12,0,0,0,12,12H269a12,12,0,0,0,12-12V138a12,12,0,0,0-12-12Z" transform="translate(-21.81 -124.15)" style="fill:#fdbd6f"/><path d="M61.54,200.86A13.68,13.68,0,0,1,66,195.77l-2.21-1.69-1.39,4.16c-.5,1.5,1.47,2.42,2.51,1.46A52.79,52.79,0,0,0,71,193.06l-2.35-1.81L67,193.42c-1.1,1.46,1.14,2.81,2.35,1.82l3.52-2.89-2.36-1.82-3.81,6.89a1.5,1.5,0,0,0,2.35,1.82,26.51,26.51,0,0,0,7.59-9.78l-2.74-1.15c-2.14,5.44-4.52,10.94-9.87,13.91l2,2.05a25.68,25.68,0,0,0,3.48-11.21c.14-1.67-2.61-2.05-2.94-.39A19.06,19.06,0,0,1,60,204l2.35,1.82A30.24,30.24,0,0,0,66.51,192c.11-1.72-2.48-2-2.94-.4C62.32,195.9,60.23,199.21,58,203c-1.24,2-1.59,3.43-.63,5.58a1.5,1.5,0,0,0,2.35.31c4-4.8,4.07-10.52,3.71-16.51a1.5,1.5,0,0,0-3,0,22.33,22.33,0,0,1-7.75,14.87c-1.35,1.18.37,3.07,1.82,2.36,6.55-3.22,7.11-10.42,6.61-16.94-.12-1.58-2.59-2.16-3-.4a52,52,0,0,1-5,14l2.74,1.15a61.85,61.85,0,0,0,3.32-14.83c.15-1.48-2.15-2-2.79-.76-2.11,4.22-4.66,8.43-6.38,12.82-.84,2.15-1,3.63.48,5.4a1.53,1.53,0,0,0,2.12,0c6.05-4.78,3.64-12.65,4.18-19.29a1.49,1.49,0,0,0-1.1-1.44l-3.5-1a1.52,1.52,0,0,0-1.85,1.85c2.55,7.32.42,14.48-3.88,20.65a1.5,1.5,0,0,0,1.3,2.25A39,39,0,0,0,82,185c.33-1.15-1.12-2.52-2.2-1.69L59.49,198.81c-1.51,1.15,0,3.76,1.51,2.59l20.35-15.53-2.2-1.69A35.88,35.88,0,0,1,47.77,210l1.29,2.26c4.72-6.78,7-15,4.19-23l-1.85,1.85,3.5,1-1.1-1.45c-.46,5.7,1.89,13.06-3.3,17.17h2.12c-1.51-1.8,5.33-12.5,6.37-14.58l-2.8-.76a58.28,58.28,0,0,1-3.21,14c-.58,1.6,2,2.65,2.74,1.15A54.68,54.68,0,0,0,61,193l-2.94-.4c.42,5.41.44,11.61-5.13,14.34l1.82,2.36a25.23,25.23,0,0,0,8.63-17h-3c.3,5,.57,10.29-2.83,14.39l2.36.3c-.86-1.93,3-6.12,3.87-7.74a38.19,38.19,0,0,0,2.67-6.87l-2.95-.4a26.69,26.69,0,0,1-3.77,12.27,1.51,1.51,0,0,0,2.36,1.81,21.6,21.6,0,0,0,7.42-12.64l-3-.4a22.07,22.07,0,0,1-3.07,9.7,1.51,1.51,0,0,0,2,2.05c6.07-3.37,8.81-9.51,11.25-15.71.62-1.57-2-2.7-2.74-1.15a24.76,24.76,0,0,1-7.12,9.17l2.36,1.82,3.81-6.89a1.5,1.5,0,0,0-2.35-1.82l-3.52,2.88,2.36,1.82,1.63-2.17c1-1.35-1.31-3.16-2.36-1.82a54.33,54.33,0,0,1-6.13,6.64l2.5,1.46,1.4-4.17a1.52,1.52,0,0,0-2.21-1.69A16.83,16.83,0,0,0,59,199.34C58.05,201.05,60.64,202.57,61.54,200.86Z" transform="translate(-21.81 -124.15)" style="fill:#fdbd6f"/></g><g id="Layer_2" data-name="Layer 2"><text transform="translate(5.27 43.94)" style="font-size:28px;fill:#fff;font-family:SegoeUI-Semilight, Segoe UI">@<tspan x="26.58" y="0" style="font-family:SegoeUI-Bold, Segoe UI;font-weight:700">beautiful.</tspan><tspan x="153.17" y="0" style="font-family:SegoeUI-Bold, Segoe UI;font-weight:700;letter-spacing:-0.009765625em">b</tspan><tspan x="170.26" y="0" style="font-family:SegoeUI-Bold, Segoe UI;font-weight:700">anana</tspan></text><path d="M279.51,180.43c-.85,10.68-15.71,8.69-23.41,9.12q-12.87.72-25.75,1.06c-16.75.46-33.51.51-50.26.39-33.55-.25-67.09-1.16-100.65-.84a1.5,1.5,0,0,0,0,3c37.49-.36,75,.83,112.45.89,18.76,0,37.53-.22,56.28-1.09q6.95-.33,13.89-.76c3.76-.24,8,0,11.68-.87,5.19-1.22,8.36-5.75,8.77-10.9.15-1.92-2.85-1.91-3,0Z" transform="translate(-21.81 -124.15)" style="fill:#fff"/><path d="M49.25,190.5c-9.15,1.28-20.12,1.51-22.87-9.43-1.91-7.59-1.41-16.36-1.49-24.14-.07-6.53-2.08-20,3.92-24.32,2.68-1.94,7-2.41,10.2-2.93a72,72,0,0,1,14.6-.75c1.93.08,1.92-2.92,0-3a75.08,75.08,0,0,0-16.33,1c-3.79.68-8.39,1.38-11.35,4.12-2.74,2.54-3.49,6.32-3.78,9.88-.49,5.93-.34,12-.24,17.93.1,5.73.25,11.49.74,17.2.35,4.07,1,8.27,3.4,11.68,5.49,7.71,15.77,6.79,24,5.63,1.9-.26,1.09-3.16-.8-2.89Z" transform="translate(-21.81 -124.15)" style="fill:#fff"/><path d="M55.27,128.24q108.24-3.06,216.49,2.43c1.93.1,1.92-2.9,0-3q-108.15-5.49-216.49-2.43c-1.93.06-1.94,3.06,0,3Z" transform="translate(-21.81 -124.15)" style="fill:#fff"/><path d="M272.59,129.93c7.89,6.19,7,16.21,7,25.25l0,25.68a1.5,1.5,0,0,0,3,0c0-10.46.09-20.91,0-31.36,0-8.21-1.07-16.32-7.92-21.69-1.5-1.18-3.64.93-2.12,2.12Z" transform="translate(-21.81 -124.15)" style="fill:#fff"/><path d="M48.43,193.58c1.6,1.1,0,8.08-.18,9a26.21,26.21,0,0,1-3.57,8,1.5,1.5,0,0,0,1.3,2.25,46.07,46.07,0,0,0,35.17-20c1.1-1.59-1.5-3.09-2.59-1.51A42.91,42.91,0,0,1,46,209.84l1.29,2.26a28.45,28.45,0,0,0,4.52-12.39c.33-3,.88-6.85-1.85-8.72-1.59-1.1-3.09,1.5-1.51,2.59Z" transform="translate(-21.81 -124.15)" style="fill:#fff"/></g></svg>