<?xml version="1.0" encoding="utf-8"?>
<!-- Generator: Adobe Illustrator 25.4.1, SVG Export Plug-In . SVG Version: 6.00 Build 0)  -->
<svg version="1.1" id="Capa_1" xmlns="http://www.w3.org/2000/svg" xmlns:xlink="http://www.w3.org/1999/xlink" x="0px" y="0px"
	 viewBox="0 0 49.7 49.7" style="enable-background:new 0 0 49.7 49.7;" xml:space="preserve">
<style type="text/css">
	.st0{fill:#CBC4EE;}
</style>
<path class="st0" d="M24.8,0C11.1,0,0,11.1,0,24.8c0,13.7,11.1,24.8,24.8,24.8s24.8-11.1,24.8-24.8C49.7,11.1,38.5,0,24.8,0z
	 M37,18.4v0.8c0,8.4-6.4,18.1-18.1,18.1c-3.6,0-6.9-1-9.7-2.8c0.5,0.1,1,0.1,1.5,0.1c3,0,5.7-1,7.9-2.7c-2.7,0-5.1-1.9-5.9-4.4
	c0.4,0.1,0.8,0.1,1.2,0.1c0.6,0,1.2-0.1,1.7-0.2c-2.9-0.6-5.1-3.1-5.1-6.2c0-0.1,0-0.1,0-0.1c0.9,0.5,1.9,0.8,2.9,0.8
	c-1.7-1.2-2.8-3.1-2.8-5.3c0-1.2,0.3-2.3,0.9-3.2c3.1,3.8,7.8,6.3,13.1,6.6c-0.1-0.4-0.1-0.9-0.1-1.4c0-3.5,2.8-6.4,6.3-6.4
	c1.8,0,3.4,0.8,4.6,2c1.4-0.3,2.8-0.8,4-1.5c-0.5,1.5-1.5,2.7-2.8,3.5c1.3-0.2,2.6-0.5,3.7-1C39.4,16.5,38.4,17.6,37,18.4z"/>
</svg>
