<?xml version="1.0" encoding="utf-8"?>
<!-- Generator: Adobe Illustrator 25.4.1, SVG Export Plug-In . SVG Version: 6.00 Build 0)  -->
<svg version="1.1" id="Capa_1" xmlns="http://www.w3.org/2000/svg" xmlns:xlink="http://www.w3.org/1999/xlink" x="0px" y="0px"
	 viewBox="0 0 49.7 49.7" style="enable-background:new 0 0 49.7 49.7;" xml:space="preserve">
<style type="text/css">
	.st0{fill:url(#SVGID_1_);}
	.st1{fill:#FFFFFF;}
</style>
<linearGradient id="SVGID_1_" gradientUnits="userSpaceOnUse" x1="0" y1="24.8" x2="49.6007" y2="24.8">
	<stop  offset="0" style="stop-color:#F8C236"/>
	<stop  offset="1" style="stop-color:#FB6952"/>
</linearGradient>
<path class="st0" d="M24.8,0C11.1,0,0,11.1,0,24.8s11.1,24.8,24.8,24.8s24.8-11.1,24.8-24.8C49.7,11.1,38.5,0,24.8,0z"/>
<g>
	<g>
		<path class="st1" d="M40.3,15.2c-1.1,0.5-2.4,0.8-3.7,1c1.3-0.8,2.3-2,2.8-3.5c-1.2,0.7-2.6,1.2-4,1.5c-1.2-1.2-2.8-2-4.6-2
			c-3.5,0-6.3,2.9-6.3,6.4c0,0.5,0,1,0.1,1.4c-5.3-0.3-10-2.8-13.1-6.6c-0.6,0.9-0.9,2-0.9,3.2c0,2.2,1.1,4.1,2.8,5.3
			c-1,0-2-0.3-2.9-0.8c0,0,0,0,0,0.1c0,3.1,2.2,5.6,5.1,6.2c-0.5,0.1-1.1,0.2-1.7,0.2c-0.4,0-0.8,0-1.2-0.1c0.8,2.5,3.2,4.4,5.9,4.4
			c-2.2,1.7-4.9,2.7-7.9,2.7c-0.5,0-1,0-1.5-0.1c2.8,1.8,6.1,2.8,9.7,2.8c11.7,0,18.1-9.7,18.1-18.1c0-0.3,0-0.6,0-0.8
			C38.4,17.6,39.4,16.5,40.3,15.2z"/>
	</g>
</g>
</svg>
