<svg xmlns="http://www.w3.org/2000/svg" viewBox="0 0 179.31 312.24"><title>up</title><g id="Layer_1" data-name="Layer 1"><path d="M376.94,315.21c-1.87,11.62-5.92,23.12-13.36,32.25-8.17,10-19.95,16.6-32.26,20.57-20.33,6.55-42.79,8.51-64,6.48-11.66-1.1-23.5-3-34-8.36A61.93,61.93,0,0,1,209,343.2a53.66,53.66,0,0,1-5-10.07,67.54,67.54,0,0,1-2.7-10.68c-.41-2-1.11-5.44-1.63-9.6,0-.19,0-.39-.08-.58-1.37-10.92-1.24-21.27,2.12-31.83a79.75,79.75,0,0,1,5.83-13.72c2.15-6,5.79-11.41,9.06-16.91,2.7-4.57,5.22-9.39,6.39-14.62a29,29,0,0,0,.61-4.82c.18-4-.27-8-.33-11.91-.24-16,7.45-30.93,21.29-39.22a55.84,55.84,0,0,1,12.92-5.58,67.12,67.12,0,0,1,9.9-2.22l11.76-1.65c3.2-.44,4-2.44,5.1-5.23a20.21,20.21,0,0,1,8.34-9.88c2.13-1.29,4.86-2.74,7.42-2.68,1.73.05,3.58,1.12,3.91,2.82a4.93,4.93,0,0,1-.24,2.37,19.43,19.43,0,0,1-3,6.07,1.27,1.27,0,0,0-.34,1.2c1.75-.36,3.45-1.24,5.27-1.57a55.09,55.09,0,0,1,6.14-.65,23.93,23.93,0,0,1,6.33.14c1.2.24,7.08,2.93,4.29,3.85a11.71,11.71,0,0,0-3.48,2.06c-1.4,1-.76,1-2.91,3a14.05,14.05,0,0,1-3.8,2.71s-.13,0-.14.08.22.2.28.23a2.52,2.52,0,0,0,1,.23,3.73,3.73,0,0,1,1.6.64c3.06,1.55,6.33,2.63,9.36,4.28a66.63,66.63,0,0,1,9.18,6c12.61,9.87,21,24.39,21.95,40.49a51.48,51.48,0,0,1-1.66,16.53,28.84,28.84,0,0,1-1.24,3.71,50.9,50.9,0,0,1,8.92,8.64C375.45,271.76,380.42,293.63,376.94,315.21Z" transform="translate(-198.7 -152)" style="fill:#fdbd6f"/><path d="M313.15,212.18A15.62,15.62,0,0,1,333,201.59a15.47,15.47,0,0,1-4.49,30.17,16.25,16.25,0,0,1-9.52-2.25,14.19,14.19,0,0,1-5.24-5.56C311.08,218.72,312.73,213.5,313.15,212.18Z" transform="translate(-198.7 -152)" style="fill:#fff5ec"/><path d="M328,216.73a4.27,4.27,0,0,0,1.29,2.36,4.32,4.32,0,0,0,5,.5,3.89,3.89,0,0,0,1.61-5.05,4.32,4.32,0,0,0-1.37-1.71,4.25,4.25,0,0,0-4.8-.07A4.17,4.17,0,0,0,328,216.73Z" transform="translate(-198.7 -152)" style="fill:#74706b"/><path d="M224.92,209.08a14.71,14.71,0,0,1,16-7.92,15.57,15.57,0,0,1,12,14.26c.31,7.79-5.93,15.37-13.81,15.89-8.5.55-15.42-6.47-15.8-14.79A14.76,14.76,0,0,1,224.92,209.08Z" transform="translate(-198.7 -152)" style="fill:#fff5ec"/><path d="M228.64,216.36a3.92,3.92,0,0,0,1.15,2.17,3.84,3.84,0,0,0,4.47.46,3.61,3.61,0,0,0,1.45-4.65,3.82,3.82,0,0,0-1.23-1.57,3.76,3.76,0,0,0-4.32-.07A3.87,3.87,0,0,0,228.64,216.36Z" transform="translate(-198.7 -152)" style="fill:#74706b"/><path d="M268,214.16a10.61,10.61,0,0,1,.72-.8c5.49-5.47,17.52-4.33,18.95,4.44.95,5.88-4.93,11.4-9.32,14.35-1.64,1.1-3.51,2.15-4.24,4-.51,1.28-.94,2.27-2.5,1.71a10.59,10.59,0,0,1-5.19-4.61c-1.82-3.27-1.87-7.09-1.39-10.71C265.38,219.44,266,216.57,268,214.16Z" transform="translate(-198.7 -152)" style="fill:#f5825f"/><path d="M270.22,224.87a2.81,2.81,0,0,1-1,1.59,2,2,0,0,1-1.66.5c-1-.31-1.21-2-1.28-2.55a8.3,8.3,0,0,1,.35-3,9.13,9.13,0,0,1,.93-2.9,3.82,3.82,0,0,1,2.09-2.09,2.67,2.67,0,0,1,2.47.38,2.89,2.89,0,0,1,.47,2.6,8.51,8.51,0,0,1-1.2,2.51A14.51,14.51,0,0,0,270.22,224.87Z" transform="translate(-198.7 -152)" style="fill:#feeee7"/></g><g id="Layer_2" data-name="Layer 2"><path d="M272.45,251.1c-3.36,9.7-3.39,21.19-3.84,31.41-.42,9.93-.32,19.9.09,29.83a252.33,252.33,0,0,0,2.84,30.93c.87,5.31,1.46,10.87,3.67,15.81,2.29,5.13,3.51,9.11,9.2,11.21,2.61,1,5.44-.27,7.39-2,4.11-3.57,3.89-9.78,4.09-14.86.18-4.37-.84-9-1.21-13.34-.83-9.91-2-19.79-2.58-29.72-.55-9.62-.67-19.24-.6-28.87.07-10.17,1.15-20.37-.24-30.45-.58-4.16-5.54-7.15-9.41-7.15-4.47,0-8,3.07-9.4,7.15Z" transform="translate(-198.7 -152)" style="fill:#fff"/><path d="M274.86,247.81c-4.82,2.93-7.8,7.21-11.07,11.67-3,4-6.06,8-8.84,12.15a81.11,81.11,0,0,0-7.18,13.11c-2.09,4.82-4.77,8.45-3.72,13.88.6,3.07,4,4.29,6.69,3.8,5.19-.93,7.5-5.5,11.14-8.78s6.47-7.29,9.42-11.3c2.74-3.75,5.11-7.8,7.62-11.71,2.87-4.49,6.06-8.95,7-14.3,1.11-6.14-5.05-12.17-11.08-8.52Z" transform="translate(-198.7 -152)" style="fill:#fff"/><path d="M275.56,256.35a263,263,0,0,0,12.95,23.58c4.66,7.61,9.06,16.58,17.09,21.05,6.12,3.4,11.93-2.19,10.94-8.41-1.37-8.56-7.88-15.68-12.42-22.84S295,255,290.46,247.65c-5.88-9.57-19.67-1.21-14.9,8.7Z" transform="translate(-198.7 -152)" style="fill:#fff"/><path d="M221.12,387c.1,8.18.36,16.34.31,24.52,0,6.56,10.16,6.57,10.2,0,.05-8.19,0-16.36-.73-24.52-.52-6.17-9.85-6.38-9.78,0Z" transform="translate(-198.7 -152)" style="fill:#fff"/><path d="M215.48,390.61a155.63,155.63,0,0,0,22.18-2.23c6.54-1.05,3.87-11.47-2.77-10.07-6.43,1.34-12.9,2.26-19.41,3.1-5.67.73-6.1,9.29,0,9.2Z" transform="translate(-198.7 -152)" style="fill:#fff"/><path d="M246.44,386.19c-14,4.33-8.42,38.08,8.28,29.75,7.36-3.68,10.79-12.93,9.22-20.74-1.38-6.88-8.6-17.27-16.59-12.87-4.53,2.5-2.18,9,2.5,9.24,2.6.15,4.17,5.37,4.24,7.29.06,1.5-1.33,8.33-3.84,8-1.56-.22-1.44-4.88-1.45-5.89a17.46,17.46,0,0,1,2.22-8.78c1.57-3-1-7.06-4.58-6Z" transform="translate(-198.7 -152)" style="fill:#fff"/><path d="M291.72,381c-4.06,2.53-3.24,8.78-3.42,13-.28,6.22-.45,12.59-.15,18.82.3,6,9,6,9.28,0,.28-6.23.08-12.59-.22-18.82-.21-4.23.6-10.51-3.47-13a2,2,0,0,0-2,0Z" transform="translate(-198.7 -152)" style="fill:#fff"/><path d="M282.43,388.26c4,.42,8.11-.16,12.1-.53,3.63-.33,6.91,0,9.63-2.69a3.37,3.37,0,0,0-.68-5.24c-3.25-1.95-6.48-.81-10.06-.29-4,.58-8.07,1-11.86,2.33a3.29,3.29,0,0,0,.87,6.42Z" transform="translate(-198.7 -152)" style="fill:#fff"/><path d="M307.86,383.59c-7.17,3.79-6.55,18.12-3.79,24.46,3.12,7.15,12.87,9.57,18.78,4.18,6.07-5.55,5-15.42,2.32-22.35-1.36-3.51-3.59-8.55-7.22-10.28a5.8,5.8,0,0,0-8.25,3.66,3.58,3.58,0,0,0,2.46,4.32c3.57,1.33,7.76,14.55,4.13,17.08-3.47,2.4-4.19-3.9-4.36-6-.32-3.8.45-7.32,1.3-11a3.7,3.7,0,0,0-5.37-4.13Z" transform="translate(-198.7 -152)" style="fill:#fff"/><path d="M326.65,385.79a120.32,120.32,0,0,0,1.41,24.86c.93,5.41,10.39,4.22,9.69-1.31-.73-5.75-1.42-11.44-1.78-17.23-.24-3.68.29-9.05-4.29-10.15a4,4,0,0,0-5,3.83Z" transform="translate(-198.7 -152)" style="fill:#fff"/><path d="M332.51,385.72c2-1.6,6.74-2.42,7.91.72.45,1.21-.86,1.39-2.14,2-2,.91-2.91.34-5.1.25-4.07-.18-5.67,4.23-4.25,7.4,2.67,6,10.81,4.17,15.17,1.42,4.86-3.07,7.51-8.31,5.26-13.93-2-4.94-7-7.69-12.2-7.86-4.3-.14-9.67,1.86-10.71,6.49-.85,3.73,3.3,5.76,6.06,3.53Z" transform="translate(-198.7 -152)" style="fill:#fff"/><path d="M216.07,426.38c-7.6,4.86-9,15.3-7.11,23.47s9.26,16.28,18,11.11,7.73-17.89,5.57-26.2c-1.06-4.06-3.3-8.13-7.45-9.62-3.79-1.36-7.19-.41-8.83,3.33-.65,1.49-.28,3.71,1.66,4.08,2.48.47,4.8,2.55,5.55,6.24.46,2.25,2.34,13.48-1.45,13.7-3.2.19-3.66-7-3.62-9.1.08-4.27,1.88-7.19,3.91-10.76,2.2-3.84-2.3-8.78-6.25-6.25Z" transform="translate(-198.7 -152)" style="fill:#fff"/><path d="M236.94,428c-2.61,4.42-1.55,10.39-1.48,15.35.09,5.66-.07,11.53,1,17.1,1.31,6.73,12.88,1.62,7.5-4.37a3.83,3.83,0,0,0-3.17-1.31l4.49,4.49c.53-5.52-.32-11.39-.77-16.91-.38-4.62.08-10.46-2.74-14.35a2.85,2.85,0,0,0-4.85,0Z" transform="translate(-198.7 -152)" style="fill:#fff"/><path d="M240.54,432.54A40.5,40.5,0,0,0,254.11,430c4.2-1.81,1.65-7.76-2.15-7.95-4.16-.22-9.69,1.75-13.23,3.85-3,1.77-1.81,6.79,1.81,6.68Z" transform="translate(-198.7 -152)" style="fill:#fff"/><path d="M239.74,445.42c3,1.37,6,1,9.22.36s7-1.35,7.66-4.94A3.64,3.64,0,0,0,255,437c-2.51-1.85-5.29-.3-7.87.53s-5.28,1.19-7.43,2.78c-1.6,1.18-2.27,4.14,0,5.16Z" transform="translate(-198.7 -152)" style="fill:#fff"/><path d="M271,430.55c.2,5.95.71,11.89,1.13,17.83.33,4.78-.61,11.11,3.32,14.46l5.15-5.16c-2.13-1.69-4.47-2.23-5.72.74-1.46,3.44,2.73,7.85,5.72,4.42,3.57-4.1,2-9.4,1.57-14.46-.47-5.95-.83-11.91-1.51-17.83s-9.88-6.36-9.66,0Z" transform="translate(-198.7 -152)" style="fill:#fff"/><path d="M274.34,432.53c1.69-1.3,8.19-4.59,9.06-1,.6,2.47-2.55,7.17-5.1,7.49-4.47.54-5.89,5.52-2.23,8.25,9.71,7.26,18.46-10.55,15-18.3a9.7,9.7,0,0,0-10.9-5.74c-3.67.58-8.38,2.71-9.27,6.69-.39,1.75,1.67,4,3.4,2.62Z" transform="translate(-198.7 -152)" style="fill:#fff"/><path d="M298.73,425.87c-4.29,9.94-5.28,21.83-6.89,32.46l9.25,1.26a101.49,101.49,0,0,1,2.1-16.11c.52-2.39,1.09-4.78,1.72-7.14.31-1.19.64-2.36,1-3.54.17-.59.34-1.17.53-1.76q.76-1.95-.7.28l-3-.4c4,1.75,4.83,10.43,5.71,14.08,1.31,5.45,1.85,12.37,5,17.08,2.22,3.36,6.91,1.86,7.27-2,.4-4.22-1.4-8.64-2.45-12.69-.88-3.41-1.64-6.89-2.77-10.24-1.48-4.41-4.47-12.24-9.73-13.37-6.34-1.37-7.6,7-8.82,11.27a225,225,0,0,0-5.06,23.25c-1,6,8.22,8.43,9.08,2.51,1.55-10.72,4.29-22.73,3.05-33.55-.27-2.38-4-4.3-5.24-1.42Z" transform="translate(-198.7 -152)" style="fill:#fff"/><path d="M300.21,449.69c2.8-.42,5.57-.68,8.35-1.27s5.8-.95,7.73-3.05a3.1,3.1,0,0,0-1.35-5.11c-2.88-1.06-6.6.37-9.46,1.2s-5.72,1.51-8,3.59.2,5,2.7,4.64Z" transform="translate(-198.7 -152)" style="fill:#fff"/><path d="M331,426.63a2.92,2.92,0,0,0-.41-2.47,3.81,3.81,0,0,0-4.13-1.68c-7.81,1.09-11.18,12.79-11.75,19.31-.64,7.38,1.22,17.62,8.92,20.77,7.48,3.06,16-3.23,17.91-10.52,2-7.78-4.12-17.34-12.76-15.38l4.51,7.74a17.9,17.9,0,0,0,2.94-2.83c1.22-1.47,1-4.13-1.21-4.59a23.39,23.39,0,0,0-5-.49c-4.36,0-6.62,6.55-2.34,8.64,1.47.71,3.58,1.11,4,3,.37,1.6-1.12,3.67-2.48,4.36-3.67,1.87-4.41-4.39-4.64-6.88a22.42,22.42,0,0,1,2.24-12.14c1.19-2.35,3.48-4.58,4.2-6.8Z" transform="translate(-198.7 -152)" style="fill:#fff"/><path d="M340.58,427.73c-2,8.35-4,21.84,1.21,29.41,4.93,7.12,18.21,5.25,21.21-2.6.92-2.42-1.4-4.58-3.6-4.72-2.67-.17-5,1.31-7.6,1.24-3.14-.09-3-4.37-3.27-7.05-.62-5.69.1-11.7-2.34-17-1.12-2.42-5-1.71-5.61.73Z" transform="translate(-198.7 -152)" style="fill:#fff"/><path d="M345.85,446.65a66.15,66.15,0,0,1,6.56-1.63c2.66-.44,5-1,6.82-3.15,2.13-2.5.18-7.56-3.57-6.14-4.51,1.71-11.49,2.15-13.35,7.38-.76,2.12,1.54,4.08,3.54,3.54Z" transform="translate(-198.7 -152)" style="fill:#fff"/><path d="M341.39,429.65c3.17,1.82,6.28,2,9.85,1.65,3.81-.35,7.23-.44,9.61-3.74,1.17-1.63.29-4.23-1.36-5.16-3.33-1.87-6.56-.41-10,.49a18.94,18.94,0,0,0-8.42,4.05,1.74,1.74,0,0,0,.35,2.71Z" transform="translate(-198.7 -152)" style="fill:#fff"/></g></svg>