<?xml version="1.0" encoding="UTF-8"?>
<svg id="Layer_2" data-name="Layer 2" xmlns="http://www.w3.org/2000/svg" viewBox="0 0 164.17 160.77">
  <defs>
    <style>
      .cls-1 {
        fill: #5f2e1b;
      }

      .cls-1, .cls-2 {
        stroke-width: 0px;
      }

      .cls-2 {
        fill: #ffcc4d;
      }
    </style>
  </defs>
  <g id="Layer_1-2" data-name="Layer 1">
    <path class="cls-2" d="M10.05,160.77c-8.64,0-12.45-6.28-8.47-13.95L74.84,5.75c3.98-7.67,10.51-7.67,14.49,0l73.26,141.07c3.99,7.67.18,13.95-8.47,13.95H10.05Z"/>
    <path class="cls-1" d="M70.74,132.39c0-6.26,5.09-11.35,11.35-11.35s11.35,5.09,11.35,11.35-5.1,11.35-11.35,11.35-11.35-5.09-11.35-11.35ZM71.61,46.53c0-6.11,4.51-9.89,10.48-9.89s10.48,3.93,10.48,9.89v56.03c0,5.97-4.66,9.9-10.48,9.9s-10.48-3.79-10.48-9.9v-56.03Z"/>
  </g>
</svg>