<?xml version="1.0" encoding="UTF-8"?><svg id="wave" xmlns="http://www.w3.org/2000/svg" viewBox="0 0 2659.5 181.19"><path d="M.5,.5H2659V180.5l-18.5-6c-18-6-55.4-18-92-42-37-24-74.2-60-111-72-37-12-73.9,0-111,0s-73.7-12-111-21c-37-9-73.5-15-110-15s-74.2,6-111,12c-37,6-74,12-111,15s-73.8,3-111,21c-37,18-73.5,54-110,72-37,18-74.3,18-111,9-37-9-74.1-27-111-45-37-18-73.8-36-111-36s-73.6,18-111,39c-36,21-73.4,45-110,48-37,3-74.2-15-111-15s-73.9,18-111,3c-37-15-73.7-63-111-63s-73.5,48-110,48-74.2-48-111-75c-37-27-74-33-111-9s-73.8,78-111,99c-37,21-73.5,9-110,0-37-9-74.3-15-111-24-37-9-74.1-21-92.5-27L.5,90.5V.5Z" fill="#3a2d76" stroke="#3a2d76" /></svg>