<?xml version="1.0" encoding="UTF-8"?>
<svg id="Layer_2" data-name="Layer 2" xmlns="http://www.w3.org/2000/svg" viewBox="0 0 51 51">
  <defs>
    <style>
      .cls-1 {
        fill: #b6aaf1;
        stroke: #b6aaf1;
        stroke-miterlimit: 10;
      }

      .cls-2 {
        fill: #fff;
        stroke-width: 0px;
      }
    </style>
  </defs>
  <g id="Layer_1-2" data-name="Layer 1">
    <rect class="cls-1" x=".5" y=".5" width="50" height="50" rx="12" ry="12"/>
    <path class="cls-2" d="M16.47,20.56c6.83,3.12,13.14,7.66,19.51,11.62l1.07-8.22c-6.87,2.47-13.57,5.35-20.09,8.65l6.77,3.89c-.67-6.3-1.04-12.62-1.12-18.95l-8.39,2.27c1.85,4.36,3.9,8.63,6.14,12.8,2.74,5.1,10.52.56,7.77-4.54-2.25-4.18-4.29-8.44-6.14-12.8s-8.44-1.89-8.39,2.27c.08,6.34.45,12.65,1.12,18.95.37,3.45,3.52,5.53,6.77,3.89,5.83-2.95,11.79-5.53,17.94-7.74,3.61-1.3,4.51-6.09,1.07-8.22-6.37-3.96-12.67-8.5-19.51-11.62-5.23-2.39-9.81,5.36-4.54,7.77h0Z"/>
    <path class="cls-2" d="M24.63,32.74c3.06.82,6.13-.51,7.83-3.12,1.29-1.98.46-5.06-1.61-6.16-2.25-1.19-4.78-.49-6.16,1.61-.05.09-.11.17-.17.25l.7-.91c-.13.15-.27.29-.43.41l.91-.7c-.17.12-.34.21-.52.29l1.07-.45c-.19.07-.38.13-.58.16l1.2-.16c-.25.03-.49.03-.75,0l1.2.16c-.1-.02-.2-.04-.29-.07-1.13-.3-2.45-.14-3.47.45-.93.55-1.82,1.62-2.07,2.69-.54,2.36.71,4.88,3.14,5.54h0Z"/>
  </g>
</svg>